solid Tirador
facet normal 1.48419288555152e-16 1.0 1.08093341706905e-33
outer loop
vertex 0.0 6.8 1.8
vertex 9.5 6.8 4.0
vertex 9.5 6.8 1.8
endloop
endfacet
facet normal 1.48419288555152e-16 1.0 1.08093341706905e-33
outer loop
vertex 9.5 6.8 4.0
vertex 0.0 6.8 1.8
vertex 1.24700522112026e-16 6.8 4.0
endloop
endfacet
facet normal 0.0 -1.0 0.0
outer loop
vertex 9.5 28.8 1.8
vertex 1.24700522112026e-16 28.8 4.0
vertex 0.0 28.8 1.8
endloop
endfacet
facet normal 0.0 -1.0 0.0
outer loop
vertex 1.24700522112026e-16 28.8 4.0
vertex 9.5 28.8 1.8
vertex 9.5 28.8 4.0
endloop
endfacet
facet normal 0.910366477462604 0.413802944301184 -3.65075068608835e-31
outer loop
vertex 9.5 6.8 1.8
vertex 10.5 4.6 4.0
vertex 10.5 4.6 1.8
endloop
endfacet
facet normal 0.910366477462604 0.413802944301184 -3.65075068608835e-31
outer loop
vertex 10.5 4.6 4.0
vertex 9.5 6.8 1.8
vertex 9.5 6.8 4.0
endloop
endfacet
facet normal 0.894427190999917 -0.447213595499956 7.23344246898466e-31
outer loop
vertex 10.0 29.8 1.8
vertex 9.5 28.8 4.0
vertex 9.5 28.8 1.8
endloop
endfacet
facet normal 0.894427190999917 -0.447213595499956 7.23344246898466e-31
outer loop
vertex 9.5 28.8 4.0
vertex 10.0 29.8 1.8
vertex 10.0 29.8 4.0
endloop
endfacet
facet normal 1.0 1.27353419869753e-16 4.10675206260254e-17
outer loop
vertex 10.0 30.8 0.0
vertex 10.0 20.8 1.8
vertex 10.0 20.8 0.0
endloop
endfacet
facet normal 1.0 1.27353419869753e-16 4.10675206260254e-17
outer loop
vertex 10.0 20.8 1.8
vertex 10.0 30.8 0.0
vertex 10.0 29.8 1.8
endloop
endfacet
facet normal 1.0 1.27353419869753e-16 4.10675206260254e-17
outer loop
vertex 10.0 29.8 1.8
vertex 10.0 30.8 0.0
vertex 10.0 29.8 4.0
endloop
endfacet
facet normal 1.0 1.27353419869753e-16 4.10675206260254e-17
outer loop
vertex 10.0 29.8 4.0
vertex 10.0 30.8 0.0
vertex 10.0 30.8 4.0
endloop
endfacet
facet normal 0.0 0.0 -1.0
outer loop
vertex 10.0 30.8 0.0
vertex 1.24700522112026e-16 0.0 0.0
vertex 1.24700522112026e-16 30.8 0.0
endloop
endfacet
facet normal 0.0 0.0 -1.0
outer loop
vertex 1.24700522112026e-16 0.0 0.0
vertex 10.0 30.8 0.0
vertex 10.0 20.8 0.0
endloop
endfacet
facet normal 0.0 0.0 -1.0
outer loop
vertex 1.24700522112026e-16 0.0 0.0
vertex 10.0 20.8 0.0
vertex 20.0 4.6 0.0
endloop
endfacet
facet normal 0.0 0.0 -1.0
outer loop
vertex 1.24700522112026e-16 0.0 0.0
vertex 20.0 4.6 0.0
vertex 45.0 0.0 0.0
endloop
endfacet
facet normal 0.0 0.0 -1.0
outer loop
vertex 45.0 0.0 0.0
vertex 20.0 4.6 0.0
vertex 45.0 4.6 0.0
endloop
endfacet
facet normal -1.0 -2.2895813549912e-19 7.26178886424709e-18
outer loop
vertex 1.24700522112026e-16 30.8 4.0
vertex 0.0 28.8 1.8
vertex 1.24700522112026e-16 28.8 4.0
endloop
endfacet
facet normal -1.0 -2.2895813549912e-19 7.26178886424709e-18
outer loop
vertex 1.24700522112026e-16 6.8 4.0
vertex 1.24700522112026e-16 0.0 0.0
vertex 1.24700522112026e-16 0.0 4.0
endloop
endfacet
facet normal -1.0 -2.2895813549912e-19 7.26178886424709e-18
outer loop
vertex 1.24700522112026e-16 0.0 0.0
vertex 1.24700522112026e-16 6.8 4.0
vertex 0.0 6.8 1.8
endloop
endfacet
facet normal -1.0 -2.2895813549912e-19 7.26178886424709e-18
outer loop
vertex 1.24700522112026e-16 0.0 0.0
vertex 0.0 6.8 1.8
vertex 1.24700522112026e-16 30.8 0.0
endloop
endfacet
facet normal -1.0 -2.2895813549912e-19 7.26178886424709e-18
outer loop
vertex 1.24700522112026e-16 30.8 0.0
vertex 0.0 6.8 1.8
vertex 0.0 28.8 1.8
endloop
endfacet
facet normal -1.0 -2.2895813549912e-19 7.26178886424709e-18
outer loop
vertex 1.24700522112026e-16 30.8 0.0
vertex 0.0 28.8 1.8
vertex 1.24700522112026e-16 30.8 4.0
endloop
endfacet
facet normal 0.0 -1.0 0.0
outer loop
vertex 45.0 0.0 4.0
vertex 1.24700522112026e-16 0.0 0.0
vertex 45.0 0.0 0.0
endloop
endfacet
facet normal 0.0 -1.0 0.0
outer loop
vertex 1.24700522112026e-16 0.0 0.0
vertex 45.0 0.0 4.0
vertex 1.24700522112026e-16 0.0 4.0
endloop
endfacet
facet normal -1.05748743095546e-16 1.58623114643319e-15 1.0
outer loop
vertex 9.5 28.8 4.0
vertex 1.24700522112026e-16 30.8 4.0
vertex 1.24700522112026e-16 28.8 4.0
endloop
endfacet
facet normal -1.05748743095546e-16 1.58623114643319e-15 1.0
outer loop
vertex 1.24700522112026e-16 30.8 4.0
vertex 9.5 28.8 4.0
vertex 10.0 30.8 4.0
endloop
endfacet
facet normal -1.05748743095546e-16 1.58623114643319e-15 1.0
outer loop
vertex 10.0 30.8 4.0
vertex 9.5 28.8 4.0
vertex 10.0 29.8 4.0
endloop
endfacet
facet normal 1.0 0.0 0.0
outer loop
vertex 45.0 4.6 0.0
vertex 45.0 0.0 4.0
vertex 45.0 0.0 0.0
endloop
endfacet
facet normal 1.0 0.0 0.0
outer loop
vertex 45.0 0.0 4.0
vertex 45.0 4.6 0.0
vertex 45.0 4.6 4.0
endloop
endfacet
facet normal 0.0 1.0 0.0
outer loop
vertex 1.24700522112026e-16 30.8 4.0
vertex 10.0 30.8 0.0
vertex 1.24700522112026e-16 30.8 0.0
endloop
endfacet
facet normal 0.0 1.0 0.0
outer loop
vertex 10.0 30.8 0.0
vertex 1.24700522112026e-16 30.8 4.0
vertex 10.0 30.8 4.0
endloop
endfacet
facet normal 3.20055358585927e-17 -1.12301228659511e-16 1.0
outer loop
vertex 9.5 6.8 1.8
vertex 0.0 28.8 1.8
vertex 0.0 6.8 1.8
endloop
endfacet
facet normal 3.20055358585927e-17 -1.12301228659511e-16 1.0
outer loop
vertex 0.0 28.8 1.8
vertex 9.5 6.8 1.8
vertex 9.5 28.8 1.8
endloop
endfacet
facet normal 3.20055358585927e-17 -1.12301228659511e-16 1.0
outer loop
vertex 9.5 28.8 1.8
vertex 9.5 6.8 1.8
vertex 10.5 4.6 1.8
endloop
endfacet
facet normal 3.20055358585927e-17 -1.12301228659511e-16 1.0
outer loop
vertex 9.5 28.8 1.8
vertex 10.5 4.6 1.8
vertex 10.0 20.8 1.8
endloop
endfacet
facet normal 3.20055358585927e-17 -1.12301228659511e-16 1.0
outer loop
vertex 9.5 28.8 1.8
vertex 10.0 20.8 1.8
vertex 10.0 29.8 1.8
endloop
endfacet
facet normal 3.20055358585927e-17 -1.12301228659511e-16 1.0
outer loop
vertex 10.0 20.8 1.8
vertex 10.5 4.6 1.8
vertex 20.0 4.6 1.8
endloop
endfacet
facet normal 2.23304103985268e-17 1.0 2.67669883145422e-17
outer loop
vertex 10.5 4.6 4.0
vertex 20.0 4.6 1.8
vertex 10.5 4.6 1.8
endloop
endfacet
facet normal 2.23304103985268e-17 1.0 2.67669883145422e-17
outer loop
vertex 20.0 4.6 1.8
vertex 45.0 4.6 0.0
vertex 20.0 4.6 0.0
endloop
endfacet
facet normal 2.23304103985268e-17 1.0 2.67669883145422e-17
outer loop
vertex 45.0 4.6 0.0
vertex 20.0 4.6 1.8
vertex 45.0 4.6 4.0
endloop
endfacet
facet normal 2.23304103985268e-17 1.0 2.67669883145422e-17
outer loop
vertex 45.0 4.6 4.0
vertex 20.0 4.6 1.8
vertex 10.5 4.6 4.0
endloop
endfacet
facet normal 1.2136452583081e-17 -1.23681071499165e-16 1.0
outer loop
vertex 1.24700522112026e-16 0.0 4.0
vertex 10.5 4.6 4.0
vertex 1.24700522112026e-16 6.8 4.0
endloop
endfacet
facet normal 1.2136452583081e-17 -1.23681071499165e-16 1.0
outer loop
vertex 10.5 4.6 4.0
vertex 1.24700522112026e-16 0.0 4.0
vertex 45.0 0.0 4.0
endloop
endfacet
facet normal 1.2136452583081e-17 -1.23681071499165e-16 1.0
outer loop
vertex 1.24700522112026e-16 6.8 4.0
vertex 10.5 4.6 4.0
vertex 9.5 6.8 4.0
endloop
endfacet
facet normal 1.2136452583081e-17 -1.23681071499165e-16 1.0
outer loop
vertex 10.5 4.6 4.0
vertex 45.0 0.0 4.0
vertex 45.0 4.6 4.0
endloop
endfacet
facet normal 0.85093611014404 0.525269203792617 0.0
outer loop
vertex 10.0 20.8 0.0
vertex 20.0 4.6 1.8
vertex 20.0 4.6 0.0
endloop
endfacet
facet normal 0.85093611014404 0.525269203792617 0.0
outer loop
vertex 20.0 4.6 1.8
vertex 10.0 20.8 0.0
vertex 10.0 20.8 1.8
endloop
endfacet
endsolid Tirador
