solid Base
facet normal 0.0 -1.0 1.14446691661846e-17
outer loop
vertex 200.0 31.0 8.8
vertex 198.0 31.0 2.0
vertex 200.0 31.0 2.0
endloop
endfacet
facet normal 0.0 -1.0 1.14446691661846e-17
outer loop
vertex 198.0 31.0 2.0
vertex 200.0 31.0 8.8
vertex 198.0 31.0 8.8
endloop
endfacet
facet normal 3.55717951453003e-18 -1.63687560589495e-16 1.0
outer loop
vertex 2.0 22.0 2.0
vertex 66.0 32.5 2.00000000000001
vertex 2.0 38.0 2.0
endloop
endfacet
facet normal 3.55717951453003e-18 -1.63687560589495e-16 1.0
outer loop
vertex 66.0 32.5 2.00000000000001
vertex 2.0 22.0 2.0
vertex 200.0 22.0 2.0
endloop
endfacet
facet normal 3.55717951453003e-18 -1.63687560589495e-16 1.0
outer loop
vertex 2.0 38.0 2.0
vertex 66.0 32.5 2.00000000000001
vertex 64.0 34.5 2.0
endloop
endfacet
facet normal 3.55717951453003e-18 -1.63687560589495e-16 1.0
outer loop
vertex 66.0 32.5 2.00000000000001
vertex 200.0 22.0 2.0
vertex 134.0 32.5 2.0
endloop
endfacet
facet normal 3.55717951453003e-18 -1.63687560589495e-16 1.0
outer loop
vertex 134.0 32.5 2.0
vertex 200.0 22.0 2.0
vertex 136.0 34.5 2.0
endloop
endfacet
facet normal 3.55717951453003e-18 -1.63687560589495e-16 1.0
outer loop
vertex 136.0 34.5 2.0
vertex 200.0 22.0 2.0
vertex 198.0 31.0 2.0
endloop
endfacet
facet normal 3.55717951453003e-18 -1.63687560589495e-16 1.0
outer loop
vertex 198.0 31.0 2.0
vertex 200.0 22.0 2.0
vertex 200.0 31.0 2.0
endloop
endfacet
facet normal 3.55717951453003e-18 -1.63687560589495e-16 1.0
outer loop
vertex 64.0 34.5 2.0
vertex 198.0 38.0 2.0
vertex 2.0 38.0 2.0
endloop
endfacet
facet normal 3.55717951453003e-18 -1.63687560589495e-16 1.0
outer loop
vertex 198.0 38.0 2.0
vertex 64.0 34.5 2.0
vertex 136.0 34.5 2.0
endloop
endfacet
facet normal 3.55717951453003e-18 -1.63687560589495e-16 1.0
outer loop
vertex 198.0 38.0 2.0
vertex 136.0 34.5 2.0
vertex 198.0 31.0 2.0
endloop
endfacet
facet normal -1.37989814783246e-18 1.59191824938239e-16 1.0
outer loop
vertex 2.0 2.0 2.0
vertex 48.5938714568422 4.57146767855945 2.0
vertex 48.593234310209 4.83251928546129 2.0
endloop
endfacet
facet normal -1.37989814783246e-18 1.59191824938239e-16 1.0
outer loop
vertex 48.5938714568422 4.57146767855945 2.0
vertex 2.0 2.0 2.0
vertex 48.6620520208512 4.31947609514191 2.0
endloop
endfacet
facet normal -1.37989814783246e-18 1.59191824938239e-16 1.0
outer loop
vertex 48.6620520208512 4.31947609514191 2.0
vertex 2.0 2.0 2.0
vertex 48.7931296094724 4.09371734518278 2.0
endloop
endfacet
facet normal -1.37989814783246e-18 1.59191824938239e-16 1.0
outer loop
vertex 48.7931296094724 4.09371734518278 2.0
vertex 2.0 2.0 2.0
vertex 48.9781715016573 3.9095765144078 2.0
endloop
endfacet
facet normal -1.37989814783246e-18 1.59191824938239e-16 1.0
outer loop
vertex 48.9781715016573 3.9095765144078 2.0
vertex 2.0 2.0 2.0
vertex 49.2045673982497 3.77960249612719 2.0
endloop
endfacet
facet normal -1.37989814783246e-18 1.59191824938239e-16 1.0
outer loop
vertex 49.2045673982497 3.77960249612719 2.0
vertex 2.0 2.0 2.0
vertex 49.4568887930336 3.71265280489454 2.0
endloop
endfacet
facet normal -1.37989814783246e-18 1.59191824938239e-16 1.0
outer loop
vertex 49.4568887930336 3.71265280489454 2.0
vertex 2.0 2.0 2.0
vertex 198.0 2.0 2.0
endloop
endfacet
facet normal -1.37989814783246e-18 1.59191824938239e-16 1.0
outer loop
vertex 49.4568887930336 3.71265280489454 2.0
vertex 198.0 2.0 2.0
vertex 49.7179403999355 3.71328995152776 2.0
endloop
endfacet
facet normal -1.37989814783246e-18 1.59191824938239e-16 1.0
outer loop
vertex 49.7179403999355 3.71328995152776 2.0
vertex 198.0 2.0 2.0
vertex 49.969931983353 3.78147051553673 2.0
endloop
endfacet
facet normal -1.37989814783246e-18 1.59191824938239e-16 1.0
outer loop
vertex 49.969931983353 3.78147051553673 2.0
vertex 198.0 2.0 2.0
vertex 50.1956907333121 3.91254810415795 2.0
endloop
endfacet
facet normal -1.37989814783246e-18 1.59191824938239e-16 1.0
outer loop
vertex 50.1956907333121 3.91254810415795 2.0
vertex 198.0 2.0 2.0
vertex 50.3798315640871 4.09758999634284 2.0
endloop
endfacet
facet normal -1.37989814783246e-18 1.59191824938239e-16 1.0
outer loop
vertex 50.3798315640871 4.09758999634284 2.0
vertex 198.0 2.0 2.0
vertex 50.5098055823677 4.32398589293519 2.0
endloop
endfacet
facet normal -1.37989814783246e-18 1.59191824938239e-16 1.0
outer loop
vertex 50.5098055823677 4.32398589293519 2.0
vertex 198.0 2.0 2.0
vertex 50.5767552736004 4.57630728771914 2.0
endloop
endfacet
facet normal -1.37989814783246e-18 1.59191824938239e-16 1.0
outer loop
vertex 50.5767552736004 4.57630728771914 2.0
vertex 198.0 2.0 2.0
vertex 64.0 5.49999999999999 2.0
endloop
endfacet
facet normal -1.37989814783246e-18 1.59191824938239e-16 1.0
outer loop
vertex 64.0 5.49999999999999 2.0
vertex 198.0 2.0 2.0
vertex 151.455172328191 3.59226983403583 2.0
endloop
endfacet
facet normal -1.37989814783246e-18 1.59191824938239e-16 1.0
outer loop
vertex 64.0 5.49999999999999 2.0
vertex 151.455172328191 3.59226983403583 2.0
vertex 136.0 5.49999999999999 2.0
endloop
endfacet
facet normal -1.37989814783246e-18 1.59191824938239e-16 1.0
outer loop
vertex 136.0 5.49999999999999 2.0
vertex 151.455172328191 3.59226983403583 2.0
vertex 151.200745713843 3.650711645551 2.0
endloop
endfacet
facet normal -1.37989814783246e-18 1.59191824938239e-16 1.0
outer loop
vertex 136.0 5.49999999999999 2.0
vertex 151.200745713843 3.650711645551 2.0
vertex 150.970114329999 3.77301255400289 2.0
endloop
endfacet
facet normal -1.37989814783246e-18 1.59191824938239e-16 1.0
outer loop
vertex 136.0 5.49999999999999 2.0
vertex 150.970114329999 3.77301255400289 2.0
vertex 150.778995324332 3.95083795459231 2.0
endloop
endfacet
facet normal -1.37989814783246e-18 1.59191824938239e-16 1.0
outer loop
vertex 136.0 5.49999999999999 2.0
vertex 150.778995324332 3.95083795459231 2.0
vertex 150.640413141239 4.17206934013945 2.0
endloop
endfacet
facet normal -1.37989814783246e-18 1.59191824938239e-16 1.0
outer loop
vertex 136.0 5.49999999999999 2.0
vertex 150.640413141239 4.17206934013945 2.0
vertex 150.563811927481 4.42163015732145 2.0
endloop
endfacet
facet normal -1.37989814783246e-18 1.59191824938239e-16 1.0
outer loop
vertex 136.0 5.49999999999999 2.0
vertex 150.563811927481 4.42163015732145 2.0
vertex 150.554411929184 4.68251324886608 2.0
endloop
endfacet
facet normal -1.37989814783246e-18 1.59191824938239e-16 1.0
outer loop
vertex 151.455172328191 3.59226983403583 2.0
vertex 198.0 2.0 2.0
vertex 151.716055419736 3.60166983233248 2.0
endloop
endfacet
facet normal -1.37989814783246e-18 1.59191824938239e-16 1.0
outer loop
vertex 151.716055419736 3.60166983233248 2.0
vertex 198.0 2.0 2.0
vertex 151.965616236918 3.67827104609127 2.0
endloop
endfacet
facet normal -1.37989814783246e-18 1.59191824938239e-16 1.0
outer loop
vertex 151.965616236918 3.67827104609127 2.0
vertex 198.0 2.0 2.0
vertex 152.186847622465 3.81685322918401 2.0
endloop
endfacet
facet normal -1.37989814783246e-18 1.59191824938239e-16 1.0
outer loop
vertex 152.186847622465 3.81685322918401 2.0
vertex 198.0 2.0 2.0
vertex 152.364673023054 4.00797223485084 2.0
endloop
endfacet
facet normal -1.37989814783246e-18 1.59191824938239e-16 1.0
outer loop
vertex 152.364673023054 4.00797223485084 2.0
vertex 198.0 2.0 2.0
vertex 152.486973931506 4.23860361869464 2.0
endloop
endfacet
facet normal -1.37989814783246e-18 1.59191824938239e-16 1.0
outer loop
vertex 152.486973931506 4.23860361869464 2.0
vertex 198.0 2.0 2.0
vertex 152.545415743021 4.49303023304284 2.0
endloop
endfacet
facet normal -1.37989814783246e-18 1.59191824938239e-16 1.0
outer loop
vertex 2.0 18.0 2.0
vertex 66.0 7.5 2.00000000000001
vertex 200.0 18.0 2.0
endloop
endfacet
facet normal -1.37989814783246e-18 1.59191824938239e-16 1.0
outer loop
vertex 66.0 7.5 2.00000000000001
vertex 2.0 18.0 2.0
vertex 2.0 2.0 2.0
endloop
endfacet
facet normal -1.37989814783246e-18 1.59191824938239e-16 1.0
outer loop
vertex 66.0 7.5 2.00000000000001
vertex 2.0 2.0 2.0
vertex 49.4520491838739 5.69553662165267 2.0
endloop
endfacet
facet normal -1.37989814783246e-18 1.59191824938239e-16 1.0
outer loop
vertex 49.4520491838739 5.69553662165267 2.0
vertex 2.0 2.0 2.0
vertex 49.2000576004564 5.6273560576437 2.0
endloop
endfacet
facet normal -1.37989814783246e-18 1.59191824938239e-16 1.0
outer loop
vertex 49.2000576004564 5.6273560576437 2.0
vertex 2.0 2.0 2.0
vertex 48.9742988504973 5.49627846902248 2.0
endloop
endfacet
facet normal -1.37989814783246e-18 1.59191824938239e-16 1.0
outer loop
vertex 48.9742988504973 5.49627846902248 2.0
vertex 2.0 2.0 2.0
vertex 48.7901580197223 5.31123657683759 2.0
endloop
endfacet
facet normal -1.37989814783246e-18 1.59191824938239e-16 1.0
outer loop
vertex 48.7901580197223 5.31123657683759 2.0
vertex 2.0 2.0 2.0
vertex 48.6601840014417 5.08484068024524 2.0
endloop
endfacet
facet normal -1.37989814783246e-18 1.59191824938239e-16 1.0
outer loop
vertex 48.6601840014417 5.08484068024524 2.0
vertex 2.0 2.0 2.0
vertex 48.593234310209 4.83251928546129 2.0
endloop
endfacet
facet normal -1.37989814783246e-18 1.59191824938239e-16 1.0
outer loop
vertex 66.0 7.5 2.00000000000001
vertex 49.4520491838739 5.69553662165267 2.0
vertex 49.7131007907758 5.69617376828589 2.0
endloop
endfacet
facet normal -1.37989814783246e-18 1.59191824938239e-16 1.0
outer loop
vertex 66.0 7.5 2.00000000000001
vertex 49.7131007907758 5.69617376828589 2.0
vertex 49.9654221855597 5.62922407705324 2.0
endloop
endfacet
facet normal -1.37989814783246e-18 1.59191824938239e-16 1.0
outer loop
vertex 66.0 7.5 2.00000000000001
vertex 49.9654221855597 5.62922407705324 2.0
vertex 50.1918180821521 5.49925005877262 2.0
endloop
endfacet
facet normal -1.37989814783246e-18 1.59191824938239e-16 1.0
outer loop
vertex 66.0 7.5 2.00000000000001
vertex 50.1918180821521 5.49925005877262 2.0
vertex 50.376859974337 5.31510922799765 2.0
endloop
endfacet
facet normal -1.37989814783246e-18 1.59191824938239e-16 1.0
outer loop
vertex 66.0 7.5 2.00000000000001
vertex 50.376859974337 5.31510922799765 2.0
vertex 50.5079375629582 5.08935047803852 2.0
endloop
endfacet
facet normal -1.37989814783246e-18 1.59191824938239e-16 1.0
outer loop
vertex 66.0 7.5 2.00000000000001
vertex 50.5079375629582 5.08935047803852 2.0
vertex 50.5761181269672 4.83735889462097 2.0
endloop
endfacet
facet normal -1.37989814783246e-18 1.59191824938239e-16 1.0
outer loop
vertex 66.0 7.5 2.00000000000001
vertex 50.5761181269672 4.83735889462097 2.0
vertex 50.5767552736004 4.57630728771914 2.0
endloop
endfacet
facet normal -1.37989814783246e-18 1.59191824938239e-16 1.0
outer loop
vertex 66.0 7.5 2.00000000000001
vertex 50.5767552736004 4.57630728771914 2.0
vertex 64.0 5.49999999999999 2.0
endloop
endfacet
facet normal -1.37989814783246e-18 1.59191824938239e-16 1.0
outer loop
vertex 200.0 18.0 2.0
vertex 66.0 7.5 2.00000000000001
vertex 134.0 7.5 2.0
endloop
endfacet
facet normal -1.37989814783246e-18 1.59191824938239e-16 1.0
outer loop
vertex 200.0 18.0 2.0
vertex 134.0 7.5 2.0
vertex 136.0 5.49999999999999 2.0
endloop
endfacet
facet normal -1.37989814783246e-18 1.59191824938239e-16 1.0
outer loop
vertex 200.0 18.0 2.0
vertex 136.0 5.49999999999999 2.0
vertex 151.383772252469 5.57387364957643 2.0
endloop
endfacet
facet normal -1.37989814783246e-18 1.59191824938239e-16 1.0
outer loop
vertex 151.383772252469 5.57387364957643 2.0
vertex 136.0 5.49999999999999 2.0
vertex 151.134211435288 5.49727243581765 2.0
endloop
endfacet
facet normal -1.37989814783246e-18 1.59191824938239e-16 1.0
outer loop
vertex 151.134211435288 5.49727243581765 2.0
vertex 136.0 5.49999999999999 2.0
vertex 150.91298004974 5.3586902527249 2.0
endloop
endfacet
facet normal -1.37989814783246e-18 1.59191824938239e-16 1.0
outer loop
vertex 150.91298004974 5.3586902527249 2.0
vertex 136.0 5.49999999999999 2.0
vertex 150.735154649151 5.16757124705808 2.0
endloop
endfacet
facet normal -1.37989814783246e-18 1.59191824938239e-16 1.0
outer loop
vertex 150.735154649151 5.16757124705808 2.0
vertex 136.0 5.49999999999999 2.0
vertex 150.612853740699 4.93693986321428 2.0
endloop
endfacet
facet normal -1.37989814783246e-18 1.59191824938239e-16 1.0
outer loop
vertex 150.612853740699 4.93693986321428 2.0
vertex 136.0 5.49999999999999 2.0
vertex 150.554411929184 4.68251324886608 2.0
endloop
endfacet
facet normal -1.37989814783246e-18 1.59191824938239e-16 1.0
outer loop
vertex 200.0 18.0 2.0
vertex 151.383772252469 5.57387364957643 2.0
vertex 151.644655344014 5.58327364787308 2.0
endloop
endfacet
facet normal -1.37989814783246e-18 1.59191824938239e-16 1.0
outer loop
vertex 200.0 18.0 2.0
vertex 151.644655344014 5.58327364787308 2.0
vertex 151.899081958362 5.52483183635791 2.0
endloop
endfacet
facet normal -1.37989814783246e-18 1.59191824938239e-16 1.0
outer loop
vertex 200.0 18.0 2.0
vertex 151.899081958362 5.52483183635791 2.0
vertex 152.129713342206 5.40253092790603 2.0
endloop
endfacet
facet normal -1.37989814783246e-18 1.59191824938239e-16 1.0
outer loop
vertex 200.0 18.0 2.0
vertex 152.129713342206 5.40253092790603 2.0
vertex 152.320832347873 5.22470552731661 2.0
endloop
endfacet
facet normal -1.37989814783246e-18 1.59191824938239e-16 1.0
outer loop
vertex 200.0 18.0 2.0
vertex 152.320832347873 5.22470552731661 2.0
vertex 152.459414530966 5.00347414176946 2.0
endloop
endfacet
facet normal -1.37989814783246e-18 1.59191824938239e-16 1.0
outer loop
vertex 200.0 18.0 2.0
vertex 152.459414530966 5.00347414176946 2.0
vertex 152.536015744724 4.75391332458747 2.0
endloop
endfacet
facet normal -1.37989814783246e-18 1.59191824938239e-16 1.0
outer loop
vertex 200.0 18.0 2.0
vertex 152.536015744724 4.75391332458747 2.0
vertex 152.545415743021 4.49303023304284 2.0
endloop
endfacet
facet normal -1.37989814783246e-18 1.59191824938239e-16 1.0
outer loop
vertex 200.0 18.0 2.0
vertex 152.545415743021 4.49303023304284 2.0
vertex 198.0 9.0 2.0
endloop
endfacet
facet normal -1.37989814783246e-18 1.59191824938239e-16 1.0
outer loop
vertex 198.0 9.0 2.0
vertex 152.545415743021 4.49303023304284 2.0
vertex 198.0 2.0 2.0
endloop
endfacet
facet normal -1.37989814783246e-18 1.59191824938239e-16 1.0
outer loop
vertex 200.0 18.0 2.0
vertex 198.0 9.0 2.0
vertex 200.0 9.0 2.0
endloop
endfacet
facet normal -1.56885475116271e-34 1.0 -4.40619762898109e-17
outer loop
vertex 2.0 18.0 0.999999999999998
vertex 200.0 18.0 2.0
vertex 200.0 18.0 0.999999999999997
endloop
endfacet
facet normal -1.56885475116271e-34 1.0 -4.40619762898109e-17
outer loop
vertex 200.0 18.0 2.0
vertex 2.0 18.0 0.999999999999998
vertex 2.0 18.0 2.0
endloop
endfacet
facet normal -1.0 3.31416924112846e-34 -1.31628144271776e-18
outer loop
vertex 198.0 38.0 8.8
vertex 198.0 31.0 2.0
vertex 198.0 31.0 8.8
endloop
endfacet
facet normal -1.0 3.31416924112846e-34 -1.31628144271776e-18
outer loop
vertex 198.0 31.0 2.0
vertex 198.0 38.0 8.8
vertex 198.0 38.0 2.0
endloop
endfacet
facet normal -1.31628144271776e-18 1.14446691661846e-17 1.0
outer loop
vertex 0.0 0.0 8.8
vertex 2.0 2.0 8.8
vertex 0.0 40.0 8.8
endloop
endfacet
facet normal -1.31628144271776e-18 1.14446691661846e-17 1.0
outer loop
vertex 2.0 2.0 8.8
vertex 0.0 0.0 8.8
vertex 200.0 0.0 8.8
endloop
endfacet
facet normal -1.31628144271776e-18 1.14446691661846e-17 1.0
outer loop
vertex 2.0 2.0 8.8
vertex 200.0 0.0 8.8
vertex 198.0 2.0 8.8
endloop
endfacet
facet normal -1.31628144271776e-18 1.14446691661846e-17 1.0
outer loop
vertex 198.0 2.0 8.8
vertex 200.0 0.0 8.8
vertex 198.0 9.0 8.8
endloop
endfacet
facet normal -1.31628144271776e-18 1.14446691661846e-17 1.0
outer loop
vertex 198.0 9.0 8.8
vertex 200.0 0.0 8.8
vertex 200.0 9.0 8.8
endloop
endfacet
facet normal -1.31628144271776e-18 1.14446691661846e-17 1.0
outer loop
vertex 200.0 31.0 8.8
vertex 198.0 38.0 8.8
vertex 198.0 31.0 8.8
endloop
endfacet
facet normal -1.31628144271776e-18 1.14446691661846e-17 1.0
outer loop
vertex 0.0 40.0 8.8
vertex 2.0 38.0 8.8
vertex 200.0 40.0 8.8
endloop
endfacet
facet normal -1.31628144271776e-18 1.14446691661846e-17 1.0
outer loop
vertex 2.0 38.0 8.8
vertex 0.0 40.0 8.8
vertex 2.0 2.0 8.8
endloop
endfacet
facet normal -1.31628144271776e-18 1.14446691661846e-17 1.0
outer loop
vertex 200.0 40.0 8.8
vertex 2.0 38.0 8.8
vertex 198.0 38.0 8.8
endloop
endfacet
facet normal -1.31628144271776e-18 1.14446691661846e-17 1.0
outer loop
vertex 200.0 40.0 8.8
vertex 198.0 38.0 8.8
vertex 200.0 31.0 8.8
endloop
endfacet
facet normal 0.0 1.0 0.0
outer loop
vertex 0.0 40.0 8.8
vertex 200.0 40.0 0.0
vertex 8.95071381048078e-18 40.0 0.0
endloop
endfacet
facet normal 0.0 1.0 0.0
outer loop
vertex 200.0 40.0 0.0
vertex 0.0 40.0 8.8
vertex 200.0 40.0 8.8
endloop
endfacet
facet normal 0.0 -1.0 1.14446691661846e-17
outer loop
vertex 198.0 38.0 8.8
vertex 2.0 38.0 2.0
vertex 198.0 38.0 2.0
endloop
endfacet
facet normal 0.0 -1.0 1.14446691661846e-17
outer loop
vertex 2.0 38.0 2.0
vertex 198.0 38.0 8.8
vertex 2.0 38.0 8.8
endloop
endfacet
facet normal -0.0 -1.0 -0.0
outer loop
vertex 200.0 0.0 8.8
vertex 8.95071381048078e-18 0.0 0.0
vertex 200.0 0.0 0.0
endloop
endfacet
facet normal -0.0 -1.0 -0.0
outer loop
vertex 8.95071381048078e-18 0.0 0.0
vertex 200.0 0.0 8.8
vertex 0.0 0.0 8.8
endloop
endfacet
facet normal 1.0 -3.46671670770971e-18 -1.79362194295267e-16
outer loop
vertex 2.0 22.0 0.999999999999998
vertex 2.0 18.0 2.0
vertex 2.0 18.0 0.999999999999998
endloop
endfacet
facet normal 1.0 -3.46671670770971e-18 -1.79362194295267e-16
outer loop
vertex 2.0 18.0 2.0
vertex 2.0 2.0 8.8
vertex 2.0 2.0 2.0
endloop
endfacet
facet normal 1.0 -3.46671670770971e-18 -1.79362194295267e-16
outer loop
vertex 2.0 2.0 8.8
vertex 2.0 18.0 2.0
vertex 2.0 38.0 8.8
endloop
endfacet
facet normal 1.0 -3.46671670770971e-18 -1.79362194295267e-16
outer loop
vertex 2.0 38.0 8.8
vertex 2.0 18.0 2.0
vertex 2.0 22.0 2.0
endloop
endfacet
facet normal 1.0 -3.46671670770971e-18 -1.79362194295267e-16
outer loop
vertex 2.0 22.0 2.0
vertex 2.0 18.0 2.0
vertex 2.0 22.0 0.999999999999998
endloop
endfacet
facet normal 1.0 -3.46671670770971e-18 -1.79362194295267e-16
outer loop
vertex 2.0 38.0 8.8
vertex 2.0 22.0 2.0
vertex 2.0 38.0 2.0
endloop
endfacet
facet normal 0.0 1.0 -1.14446691661846e-17
outer loop
vertex 2.0 2.0 8.8
vertex 198.0 2.0 2.0
vertex 2.0 2.0 2.0
endloop
endfacet
facet normal 0.0 1.0 -1.14446691661846e-17
outer loop
vertex 198.0 2.0 2.0
vertex 2.0 2.0 8.8
vertex 198.0 2.0 8.8
endloop
endfacet
facet normal 0.0 0.0 -1.0
outer loop
vertex 200.0 40.0 0.0
vertex 8.95071381048078e-18 0.0 0.0
vertex 8.95071381048078e-18 40.0 0.0
endloop
endfacet
facet normal 0.0 0.0 -1.0
outer loop
vertex 8.95071381048078e-18 0.0 0.0
vertex 200.0 40.0 0.0
vertex 200.0 0.0 0.0
endloop
endfacet
facet normal 1.0 0.0 0.0
outer loop
vertex 200.0 0.0 0.0
vertex 200.0 9.0 2.0
vertex 200.0 0.0 8.8
endloop
endfacet
facet normal 1.0 0.0 0.0
outer loop
vertex 200.0 9.0 2.0
vertex 200.0 0.0 0.0
vertex 200.0 18.0 0.999999999999997
endloop
endfacet
facet normal 1.0 0.0 0.0
outer loop
vertex 200.0 18.0 0.999999999999997
vertex 200.0 0.0 0.0
vertex 200.0 40.0 0.0
endloop
endfacet
facet normal 1.0 0.0 0.0
outer loop
vertex 200.0 18.0 0.999999999999997
vertex 200.0 40.0 0.0
vertex 200.0 22.0 0.999999999999997
endloop
endfacet
facet normal 1.0 0.0 0.0
outer loop
vertex 200.0 22.0 0.999999999999997
vertex 200.0 40.0 0.0
vertex 200.0 22.0 2.0
endloop
endfacet
facet normal 1.0 0.0 0.0
outer loop
vertex 200.0 22.0 2.0
vertex 200.0 40.0 0.0
vertex 200.0 31.0 2.0
endloop
endfacet
facet normal 1.0 0.0 0.0
outer loop
vertex 200.0 31.0 2.0
vertex 200.0 40.0 0.0
vertex 200.0 31.0 8.8
endloop
endfacet
facet normal 1.0 0.0 0.0
outer loop
vertex 200.0 31.0 8.8
vertex 200.0 40.0 0.0
vertex 200.0 40.0 8.8
endloop
endfacet
facet normal 1.0 0.0 0.0
outer loop
vertex 200.0 18.0 2.0
vertex 200.0 9.0 2.0
vertex 200.0 18.0 0.999999999999997
endloop
endfacet
facet normal 1.0 0.0 0.0
outer loop
vertex 200.0 9.0 8.8
vertex 200.0 0.0 8.8
vertex 200.0 9.0 2.0
endloop
endfacet
facet normal -1.0 -0.0 -1.31628144271776e-18
outer loop
vertex 198.0 9.0 8.8
vertex 198.0 2.0 2.0
vertex 198.0 2.0 8.8
endloop
endfacet
facet normal -1.0 -0.0 -1.31628144271776e-18
outer loop
vertex 198.0 2.0 2.0
vertex 198.0 9.0 8.8
vertex 198.0 9.0 2.0
endloop
endfacet
facet normal -7.04991620636976e-16 1.0 -1.14446691661846e-17
outer loop
vertex 198.0 9.0 8.8
vertex 200.0 9.0 2.0
vertex 198.0 9.0 2.0
endloop
endfacet
facet normal -7.04991620636976e-16 1.0 -1.14446691661846e-17
outer loop
vertex 200.0 9.0 2.0
vertex 198.0 9.0 8.8
vertex 200.0 9.0 8.8
endloop
endfacet
facet normal -1.0 0.0 0.0
outer loop
vertex 0.0 40.0 8.8
vertex 8.95071381048078e-18 0.0 0.0
vertex 0.0 0.0 8.8
endloop
endfacet
facet normal -1.0 0.0 0.0
outer loop
vertex 8.95071381048078e-18 0.0 0.0
vertex 0.0 40.0 8.8
vertex 8.95071381048078e-18 40.0 0.0
endloop
endfacet
facet normal 4.45070467573847e-18 4.40619762898109e-17 1.0
outer loop
vertex 200.0 18.0 0.999999999999997
vertex 2.0 22.0 0.999999999999998
vertex 2.0 18.0 0.999999999999998
endloop
endfacet
facet normal 4.45070467573847e-18 4.40619762898109e-17 1.0
outer loop
vertex 2.0 22.0 0.999999999999998
vertex 200.0 18.0 0.999999999999997
vertex 200.0 22.0 0.999999999999997
endloop
endfacet
facet normal 2.35328212674407e-34 -1.0 4.40619762898109e-17
outer loop
vertex 200.0 22.0 2.0
vertex 2.0 22.0 0.999999999999998
vertex 200.0 22.0 0.999999999999997
endloop
endfacet
facet normal 2.35328212674407e-34 -1.0 4.40619762898109e-17
outer loop
vertex 2.0 22.0 0.999999999999998
vertex 200.0 22.0 2.0
vertex 2.0 22.0 2.0
endloop
endfacet
facet normal 0.0 0.0 1.0
outer loop
vertex 48.5938714568422 4.57146767855945 5.90000000000001
vertex 48.6601840014417 5.08484068024524 5.90000000000001
vertex 48.593234310209 4.83251928546129 5.90000000000001
endloop
endfacet
facet normal 0.0 0.0 1.0
outer loop
vertex 48.6601840014417 5.08484068024524 5.90000000000001
vertex 48.5938714568422 4.57146767855945 5.90000000000001
vertex 48.6620520208512 4.31947609514191 5.90000000000001
endloop
endfacet
facet normal 0.0 0.0 1.0
outer loop
vertex 48.6601840014417 5.08484068024524 5.90000000000001
vertex 48.6620520208512 4.31947609514191 5.90000000000001
vertex 48.7901580197223 5.31123657683759 5.90000000000001
endloop
endfacet
facet normal 0.0 0.0 1.0
outer loop
vertex 48.7901580197223 5.31123657683759 5.90000000000001
vertex 48.6620520208512 4.31947609514191 5.90000000000001
vertex 48.7931296094724 4.09371734518278 5.90000000000001
endloop
endfacet
facet normal 0.0 0.0 1.0
outer loop
vertex 48.7901580197223 5.31123657683759 5.90000000000001
vertex 48.7931296094724 4.09371734518278 5.90000000000001
vertex 48.9742988504973 5.49627846902248 5.90000000000001
endloop
endfacet
facet normal 0.0 0.0 1.0
outer loop
vertex 48.9742988504973 5.49627846902248 5.90000000000001
vertex 48.7931296094724 4.09371734518278 5.90000000000001
vertex 48.9781715016573 3.9095765144078 5.90000000000001
endloop
endfacet
facet normal 0.0 0.0 1.0
outer loop
vertex 48.9742988504973 5.49627846902248 5.90000000000001
vertex 48.9781715016573 3.9095765144078 5.90000000000001
vertex 49.2000576004564 5.6273560576437 5.90000000000001
endloop
endfacet
facet normal 0.0 0.0 1.0
outer loop
vertex 49.2000576004564 5.6273560576437 5.90000000000001
vertex 48.9781715016573 3.9095765144078 5.90000000000001
vertex 49.2045673982497 3.77960249612719 5.90000000000001
endloop
endfacet
facet normal 0.0 0.0 1.0
outer loop
vertex 49.2000576004564 5.6273560576437 5.90000000000001
vertex 49.2045673982497 3.77960249612719 5.90000000000001
vertex 49.4520491838739 5.69553662165267 5.90000000000001
endloop
endfacet
facet normal 0.0 0.0 1.0
outer loop
vertex 49.4520491838739 5.69553662165267 5.90000000000001
vertex 49.2045673982497 3.77960249612719 5.90000000000001
vertex 49.4568887930336 3.71265280489454 5.90000000000001
endloop
endfacet
facet normal 0.0 0.0 1.0
outer loop
vertex 49.4520491838739 5.69553662165267 5.90000000000001
vertex 49.4568887930336 3.71265280489454 5.90000000000001
vertex 49.7131007907758 5.69617376828589 5.90000000000001
endloop
endfacet
facet normal 0.0 0.0 1.0
outer loop
vertex 49.7131007907758 5.69617376828589 5.90000000000001
vertex 49.4568887930336 3.71265280489454 5.90000000000001
vertex 49.7179403999355 3.71328995152776 5.90000000000001
endloop
endfacet
facet normal 0.0 0.0 1.0
outer loop
vertex 49.7131007907758 5.69617376828589 5.90000000000001
vertex 49.7179403999355 3.71328995152776 5.90000000000001
vertex 49.9654221855597 5.62922407705324 5.90000000000001
endloop
endfacet
facet normal 0.0 0.0 1.0
outer loop
vertex 49.9654221855597 5.62922407705324 5.90000000000001
vertex 49.7179403999355 3.71328995152776 5.90000000000001
vertex 49.969931983353 3.78147051553673 5.90000000000001
endloop
endfacet
facet normal 0.0 0.0 1.0
outer loop
vertex 49.9654221855597 5.62922407705324 5.90000000000001
vertex 49.969931983353 3.78147051553673 5.90000000000001
vertex 50.1918180821521 5.49925005877262 5.90000000000001
endloop
endfacet
facet normal 0.0 0.0 1.0
outer loop
vertex 50.1918180821521 5.49925005877262 5.90000000000001
vertex 49.969931983353 3.78147051553673 5.90000000000001
vertex 50.1956907333121 3.91254810415795 5.90000000000001
endloop
endfacet
facet normal 0.0 0.0 1.0
outer loop
vertex 50.1918180821521 5.49925005877262 5.90000000000001
vertex 50.1956907333121 3.91254810415795 5.90000000000001
vertex 50.376859974337 5.31510922799765 5.90000000000001
endloop
endfacet
facet normal 0.0 0.0 1.0
outer loop
vertex 50.376859974337 5.31510922799765 5.90000000000001
vertex 50.1956907333121 3.91254810415795 5.90000000000001
vertex 50.3798315640871 4.09758999634284 5.90000000000001
endloop
endfacet
facet normal 0.0 0.0 1.0
outer loop
vertex 50.376859974337 5.31510922799765 5.90000000000001
vertex 50.3798315640871 4.09758999634284 5.90000000000001
vertex 50.5079375629582 5.08935047803852 5.90000000000001
endloop
endfacet
facet normal 0.0 0.0 1.0
outer loop
vertex 50.5079375629582 5.08935047803852 5.90000000000001
vertex 50.3798315640871 4.09758999634284 5.90000000000001
vertex 50.5098055823677 4.32398589293519 5.90000000000001
endloop
endfacet
facet normal 0.0 0.0 1.0
outer loop
vertex 50.5079375629582 5.08935047803852 5.90000000000001
vertex 50.5098055823677 4.32398589293519 5.90000000000001
vertex 50.5761181269672 4.83735889462097 5.90000000000001
endloop
endfacet
facet normal 0.0 0.0 1.0
outer loop
vertex 50.5761181269672 4.83735889462097 5.90000000000001
vertex 50.5098055823677 4.32398589293519 5.90000000000001
vertex 50.5767552736004 4.57630728771914 5.90000000000001
endloop
endfacet
facet normal -0.38042739365502 -0.924810790463027 0.0
outer loop
vertex 49.2045673982497 3.77960249612719 5.90000000000001
vertex 48.9781715016573 3.9095765144078 2.0
vertex 49.2045673982497 3.77960249612719 2.0
endloop
endfacet
facet normal -0.606823290247369 -0.794836772182413 0.0
outer loop
vertex 48.9781715016573 3.9095765144078 2.0
vertex 49.2045673982497 3.77960249612719 5.90000000000001
vertex 48.9781715016573 3.9095765144078 5.90000000000001
endloop
endfacet
facet normal -0.128105998871078 -0.991760481695678 0.0
outer loop
vertex 49.4568887930336 3.71265280489454 5.90000000000001
vertex 49.2045673982497 3.77960249612719 2.0
vertex 49.4568887930336 3.71265280489454 2.0
endloop
endfacet
facet normal -0.38042739365502 -0.924810790463027 0.0
outer loop
vertex 49.2045673982497 3.77960249612719 2.0
vertex 49.4568887930336 3.71265280489454 5.90000000000001
vertex 49.2045673982497 3.77960249612719 5.90000000000001
endloop
endfacet
facet normal 0.132945608030762 -0.991123335062459 0.0
outer loop
vertex 49.7179403999355 3.71328995152776 5.90000000000001
vertex 49.4568887930336 3.71265280489454 2.0
vertex 49.7179403999355 3.71328995152776 2.0
endloop
endfacet
facet normal -0.128105998871078 -0.991760481695678 0.0
outer loop
vertex 49.4568887930336 3.71265280489454 2.0
vertex 49.7179403999355 3.71328995152776 5.90000000000001
vertex 49.4568887930336 3.71265280489454 5.90000000000001
endloop
endfacet
facet normal 0.384937191448303 -0.922942771053489 0.0
outer loop
vertex 49.969931983353 3.78147051553673 5.90000000000001
vertex 49.7179403999355 3.71328995152776 2.0
vertex 49.969931983353 3.78147051553673 2.0
endloop
endfacet
facet normal 0.132945608030762 -0.991123335062459 0.0
outer loop
vertex 49.7179403999355 3.71328995152776 2.0
vertex 49.969931983353 3.78147051553673 5.90000000000001
vertex 49.7179403999355 3.71328995152776 5.90000000000001
endloop
endfacet
facet normal 0.610695941407432 -0.791865182432269 0.0
outer loop
vertex 50.1956907333121 3.91254810415795 5.90000000000001
vertex 49.969931983353 3.78147051553673 2.0
vertex 50.1956907333121 3.91254810415795 2.0
endloop
endfacet
facet normal 0.384937191448303 -0.922942771053489 0.0
outer loop
vertex 49.969931983353 3.78147051553673 2.0
vertex 50.1956907333121 3.91254810415795 5.90000000000001
vertex 49.969931983353 3.78147051553673 5.90000000000001
endloop
endfacet
facet normal 0.794836772182413 -0.606823290247369 0.0
outer loop
vertex 50.3798315640871 4.09758999634284 2.0
vertex 50.1956907333121 3.91254810415795 5.90000000000001
vertex 50.1956907333121 3.91254810415795 2.0
endloop
endfacet
facet normal 0.610695941407432 -0.791865182432269 0.0
outer loop
vertex 50.1956907333121 3.91254810415795 5.90000000000001
vertex 50.3798315640871 4.09758999634284 2.0
vertex 50.3798315640871 4.09758999634284 5.90000000000001
endloop
endfacet
facet normal 0.924810790463027 -0.38042739365502 0.0
outer loop
vertex 50.5098055823677 4.32398589293519 2.0
vertex 50.3798315640871 4.09758999634284 5.90000000000001
vertex 50.3798315640871 4.09758999634284 2.0
endloop
endfacet
facet normal 0.794836772182413 -0.606823290247369 0.0
outer loop
vertex 50.3798315640871 4.09758999634284 5.90000000000001
vertex 50.5098055823677 4.32398589293519 2.0
vertex 50.5098055823677 4.32398589293519 5.90000000000001
endloop
endfacet
facet normal 0.991760481695678 -0.128105998871078 0.0
outer loop
vertex 50.5767552736004 4.57630728771914 2.0
vertex 50.5098055823677 4.32398589293519 5.90000000000001
vertex 50.5098055823677 4.32398589293519 2.0
endloop
endfacet
facet normal 0.924810790463027 -0.38042739365502 0.0
outer loop
vertex 50.5098055823677 4.32398589293519 5.90000000000001
vertex 50.5767552736004 4.57630728771914 2.0
vertex 50.5767552736004 4.57630728771914 5.90000000000001
endloop
endfacet
facet normal 0.991123335062459 0.132945608030759 0.0
outer loop
vertex 50.5761181269672 4.83735889462097 2.0
vertex 50.5767552736004 4.57630728771914 5.90000000000001
vertex 50.5767552736004 4.57630728771914 2.0
endloop
endfacet
facet normal 0.991760481695678 -0.128105998871078 0.0
outer loop
vertex 50.5767552736004 4.57630728771914 5.90000000000001
vertex 50.5761181269672 4.83735889462097 2.0
vertex 50.5761181269672 4.83735889462097 5.90000000000001
endloop
endfacet
facet normal 0.92294277105349 0.3849371914483 0.0
outer loop
vertex 50.5079375629582 5.08935047803852 2.0
vertex 50.5761181269672 4.83735889462097 5.90000000000001
vertex 50.5761181269672 4.83735889462097 2.0
endloop
endfacet
facet normal 0.991123335062459 0.132945608030759 0.0
outer loop
vertex 50.5761181269672 4.83735889462097 5.90000000000001
vertex 50.5079375629582 5.08935047803852 2.0
vertex 50.5079375629582 5.08935047803852 5.90000000000001
endloop
endfacet
facet normal 0.791865182432269 0.610695941407432 0.0
outer loop
vertex 50.376859974337 5.31510922799765 2.0
vertex 50.5079375629582 5.08935047803852 5.90000000000001
vertex 50.5079375629582 5.08935047803852 2.0
endloop
endfacet
facet normal 0.92294277105349 0.3849371914483 0.0
outer loop
vertex 50.5079375629582 5.08935047803852 5.90000000000001
vertex 50.376859974337 5.31510922799765 2.0
vertex 50.376859974337 5.31510922799765 5.90000000000001
endloop
endfacet
facet normal 0.606823290247377 0.794836772182407 0.0
outer loop
vertex 50.1918180821521 5.49925005877262 5.90000000000001
vertex 50.376859974337 5.31510922799765 2.0
vertex 50.1918180821521 5.49925005877262 2.0
endloop
endfacet
facet normal 0.791865182432269 0.610695941407432 0.0
outer loop
vertex 50.376859974337 5.31510922799765 2.0
vertex 50.1918180821521 5.49925005877262 5.90000000000001
vertex 50.376859974337 5.31510922799765 5.90000000000001
endloop
endfacet
facet normal 0.380427393655019 0.924810790463027 0.0
outer loop
vertex 49.9654221855597 5.62922407705324 5.90000000000001
vertex 50.1918180821521 5.49925005877262 2.0
vertex 49.9654221855597 5.62922407705324 2.0
endloop
endfacet
facet normal 0.606823290247377 0.794836772182407 0.0
outer loop
vertex 50.1918180821521 5.49925005877262 2.0
vertex 49.9654221855597 5.62922407705324 5.90000000000001
vertex 50.1918180821521 5.49925005877262 5.90000000000001
endloop
endfacet
facet normal 0.128105998871067 0.99176048169568 0.0
outer loop
vertex 49.7131007907758 5.69617376828589 5.90000000000001
vertex 49.9654221855597 5.62922407705324 2.0
vertex 49.7131007907758 5.69617376828589 2.0
endloop
endfacet
facet normal 0.380427393655019 0.924810790463027 0.0
outer loop
vertex 49.9654221855597 5.62922407705324 2.0
vertex 49.7131007907758 5.69617376828589 5.90000000000001
vertex 49.9654221855597 5.62922407705324 5.90000000000001
endloop
endfacet
facet normal -0.132945608030762 0.991123335062459 0.0
outer loop
vertex 49.4520491838739 5.69553662165267 5.90000000000001
vertex 49.7131007907758 5.69617376828589 2.0
vertex 49.4520491838739 5.69553662165267 2.0
endloop
endfacet
facet normal 0.128105998871067 0.99176048169568 0.0
outer loop
vertex 49.7131007907758 5.69617376828589 2.0
vertex 49.4520491838739 5.69553662165267 5.90000000000001
vertex 49.7131007907758 5.69617376828589 5.90000000000001
endloop
endfacet
facet normal -0.384937191448303 0.922942771053489 0.0
outer loop
vertex 49.2000576004564 5.6273560576437 5.90000000000001
vertex 49.4520491838739 5.69553662165267 2.0
vertex 49.2000576004564 5.6273560576437 2.0
endloop
endfacet
facet normal -0.132945608030762 0.991123335062459 0.0
outer loop
vertex 49.4520491838739 5.69553662165267 2.0
vertex 49.2000576004564 5.6273560576437 5.90000000000001
vertex 49.4520491838739 5.69553662165267 5.90000000000001
endloop
endfacet
facet normal -0.610695941407432 0.791865182432269 0.0
outer loop
vertex 48.9742988504973 5.49627846902248 5.90000000000001
vertex 49.2000576004564 5.6273560576437 2.0
vertex 48.9742988504973 5.49627846902248 2.0
endloop
endfacet
facet normal -0.384937191448303 0.922942771053489 0.0
outer loop
vertex 49.2000576004564 5.6273560576437 2.0
vertex 48.9742988504973 5.49627846902248 5.90000000000001
vertex 49.2000576004564 5.6273560576437 5.90000000000001
endloop
endfacet
facet normal -0.610695941407432 0.791865182432269 0.0
outer loop
vertex 48.9742988504973 5.49627846902248 5.90000000000001
vertex 48.7901580197223 5.31123657683759 2.0
vertex 48.7901580197223 5.31123657683759 5.90000000000001
endloop
endfacet
facet normal -0.794836772182407 0.606823290247377 0.0
outer loop
vertex 48.7901580197223 5.31123657683759 2.0
vertex 48.9742988504973 5.49627846902248 5.90000000000001
vertex 48.9742988504973 5.49627846902248 2.0
endloop
endfacet
facet normal -0.794836772182407 0.606823290247377 0.0
outer loop
vertex 48.7901580197223 5.31123657683759 5.90000000000001
vertex 48.6601840014417 5.08484068024524 2.0
vertex 48.6601840014417 5.08484068024524 5.90000000000001
endloop
endfacet
facet normal -0.924810790463027 0.380427393655019 0.0
outer loop
vertex 48.6601840014417 5.08484068024524 2.0
vertex 48.7901580197223 5.31123657683759 5.90000000000001
vertex 48.7901580197223 5.31123657683759 2.0
endloop
endfacet
facet normal -0.924810790463027 0.380427393655019 0.0
outer loop
vertex 48.6601840014417 5.08484068024524 5.90000000000001
vertex 48.593234310209 4.83251928546129 2.0
vertex 48.593234310209 4.83251928546129 5.90000000000001
endloop
endfacet
facet normal -0.99176048169568 0.128105998871067 0.0
outer loop
vertex 48.593234310209 4.83251928546129 2.0
vertex 48.6601840014417 5.08484068024524 5.90000000000001
vertex 48.6601840014417 5.08484068024524 2.0
endloop
endfacet
facet normal -0.99176048169568 0.128105998871067 0.0
outer loop
vertex 48.593234310209 4.83251928546129 5.90000000000001
vertex 48.5938714568422 4.57146767855945 2.0
vertex 48.5938714568422 4.57146767855945 5.90000000000001
endloop
endfacet
facet normal -0.991123335062459 -0.132945608030762 0.0
outer loop
vertex 48.5938714568422 4.57146767855945 2.0
vertex 48.593234310209 4.83251928546129 5.90000000000001
vertex 48.593234310209 4.83251928546129 2.0
endloop
endfacet
facet normal -0.991123335062459 -0.132945608030762 0.0
outer loop
vertex 48.5938714568422 4.57146767855945 5.90000000000001
vertex 48.6620520208512 4.31947609514191 2.0
vertex 48.6620520208512 4.31947609514191 5.90000000000001
endloop
endfacet
facet normal -0.922942771053489 -0.384937191448303 0.0
outer loop
vertex 48.6620520208512 4.31947609514191 2.0
vertex 48.5938714568422 4.57146767855945 5.90000000000001
vertex 48.5938714568422 4.57146767855945 2.0
endloop
endfacet
facet normal -0.922942771053489 -0.384937191448303 0.0
outer loop
vertex 48.6620520208512 4.31947609514191 5.90000000000001
vertex 48.7931296094724 4.09371734518278 2.0
vertex 48.7931296094724 4.09371734518278 5.90000000000001
endloop
endfacet
facet normal -0.791865182432269 -0.610695941407432 0.0
outer loop
vertex 48.7931296094724 4.09371734518278 2.0
vertex 48.6620520208512 4.31947609514191 5.90000000000001
vertex 48.6620520208512 4.31947609514191 2.0
endloop
endfacet
facet normal -0.606823290247369 -0.794836772182413 0.0
outer loop
vertex 48.9781715016573 3.9095765144078 5.90000000000001
vertex 48.7931296094724 4.09371734518278 2.0
vertex 48.9781715016573 3.9095765144078 2.0
endloop
endfacet
facet normal -0.791865182432269 -0.610695941407432 0.0
outer loop
vertex 48.7931296094724 4.09371734518278 2.0
vertex 48.9781715016573 3.9095765144078 5.90000000000001
vertex 48.7931296094724 4.09371734518278 5.90000000000001
endloop
endfacet
facet normal 0.0 0.0 1.0
outer loop
vertex 150.563811927481 4.42163015732145 6.50000000000002
vertex 150.612853740699 4.93693986321428 6.50000000000002
vertex 150.554411929184 4.68251324886608 6.50000000000002
endloop
endfacet
facet normal 0.0 0.0 1.0
outer loop
vertex 150.612853740699 4.93693986321428 6.50000000000002
vertex 150.563811927481 4.42163015732145 6.50000000000002
vertex 150.640413141239 4.17206934013945 6.50000000000002
endloop
endfacet
facet normal 0.0 0.0 1.0
outer loop
vertex 150.612853740699 4.93693986321428 6.50000000000002
vertex 150.640413141239 4.17206934013945 6.50000000000002
vertex 150.735154649151 5.16757124705808 6.50000000000002
endloop
endfacet
facet normal 0.0 0.0 1.0
outer loop
vertex 150.735154649151 5.16757124705808 6.50000000000002
vertex 150.640413141239 4.17206934013945 6.50000000000002
vertex 150.778995324332 3.95083795459231 6.50000000000002
endloop
endfacet
facet normal 0.0 0.0 1.0
outer loop
vertex 150.735154649151 5.16757124705808 6.50000000000002
vertex 150.778995324332 3.95083795459231 6.50000000000002
vertex 150.91298004974 5.3586902527249 6.50000000000002
endloop
endfacet
facet normal 0.0 0.0 1.0
outer loop
vertex 150.91298004974 5.3586902527249 6.50000000000002
vertex 150.778995324332 3.95083795459231 6.50000000000002
vertex 150.970114329999 3.77301255400289 6.50000000000002
endloop
endfacet
facet normal 0.0 0.0 1.0
outer loop
vertex 150.91298004974 5.3586902527249 6.50000000000002
vertex 150.970114329999 3.77301255400289 6.50000000000002
vertex 151.134211435288 5.49727243581765 6.50000000000002
endloop
endfacet
facet normal 0.0 0.0 1.0
outer loop
vertex 151.134211435288 5.49727243581765 6.50000000000002
vertex 150.970114329999 3.77301255400289 6.50000000000002
vertex 151.200745713843 3.650711645551 6.50000000000002
endloop
endfacet
facet normal 0.0 0.0 1.0
outer loop
vertex 151.134211435288 5.49727243581765 6.50000000000002
vertex 151.200745713843 3.650711645551 6.50000000000002
vertex 151.383772252469 5.57387364957643 6.50000000000002
endloop
endfacet
facet normal 0.0 0.0 1.0
outer loop
vertex 151.383772252469 5.57387364957643 6.50000000000002
vertex 151.200745713843 3.650711645551 6.50000000000002
vertex 151.455172328191 3.59226983403583 6.50000000000002
endloop
endfacet
facet normal 0.0 0.0 1.0
outer loop
vertex 151.383772252469 5.57387364957643 6.50000000000002
vertex 151.455172328191 3.59226983403583 6.50000000000002
vertex 151.644655344014 5.58327364787308 6.50000000000002
endloop
endfacet
facet normal 0.0 0.0 1.0
outer loop
vertex 151.644655344014 5.58327364787308 6.50000000000002
vertex 151.455172328191 3.59226983403583 6.50000000000002
vertex 151.716055419736 3.60166983233248 6.50000000000002
endloop
endfacet
facet normal 0.0 0.0 1.0
outer loop
vertex 151.644655344014 5.58327364787308 6.50000000000002
vertex 151.716055419736 3.60166983233248 6.50000000000002
vertex 151.899081958362 5.52483183635791 6.50000000000002
endloop
endfacet
facet normal 0.0 0.0 1.0
outer loop
vertex 151.899081958362 5.52483183635791 6.50000000000002
vertex 151.716055419736 3.60166983233248 6.50000000000002
vertex 151.965616236918 3.67827104609127 6.50000000000002
endloop
endfacet
facet normal 0.0 0.0 1.0
outer loop
vertex 151.899081958362 5.52483183635791 6.50000000000002
vertex 151.965616236918 3.67827104609127 6.50000000000002
vertex 152.129713342206 5.40253092790603 6.50000000000002
endloop
endfacet
facet normal 0.0 0.0 1.0
outer loop
vertex 152.129713342206 5.40253092790603 6.50000000000002
vertex 151.965616236918 3.67827104609127 6.50000000000002
vertex 152.186847622465 3.81685322918401 6.50000000000002
endloop
endfacet
facet normal 0.0 0.0 1.0
outer loop
vertex 152.129713342206 5.40253092790603 6.50000000000002
vertex 152.186847622465 3.81685322918401 6.50000000000002
vertex 152.320832347873 5.22470552731661 6.50000000000002
endloop
endfacet
facet normal 0.0 0.0 1.0
outer loop
vertex 152.320832347873 5.22470552731661 6.50000000000002
vertex 152.186847622465 3.81685322918401 6.50000000000002
vertex 152.364673023054 4.00797223485084 6.50000000000002
endloop
endfacet
facet normal 0.0 0.0 1.0
outer loop
vertex 152.320832347873 5.22470552731661 6.50000000000002
vertex 152.364673023054 4.00797223485084 6.50000000000002
vertex 152.459414530966 5.00347414176946 6.50000000000002
endloop
endfacet
facet normal 0.0 0.0 1.0
outer loop
vertex 152.459414530966 5.00347414176946 6.50000000000002
vertex 152.364673023054 4.00797223485084 6.50000000000002
vertex 152.486973931506 4.23860361869464 6.50000000000002
endloop
endfacet
facet normal 0.0 0.0 1.0
outer loop
vertex 152.459414530966 5.00347414176946 6.50000000000002
vertex 152.486973931506 4.23860361869464 6.50000000000002
vertex 152.536015744724 4.75391332458747 6.50000000000002
endloop
endfacet
facet normal 0.0 0.0 1.0
outer loop
vertex 152.536015744724 4.75391332458747 6.50000000000002
vertex 152.486973931506 4.23860361869464 6.50000000000002
vertex 152.545415743021 4.49303023304284 6.50000000000002
endloop
endfacet
facet normal 0.579799506103626 0.814759186951575 0.0
outer loop
vertex 152.129713342206 5.40253092790603 6.50000000000002
vertex 152.320832347873 5.22470552731661 2.0
vertex 152.129713342206 5.40253092790603 2.0
endloop
endfacet
facet normal 0.770918511770447 0.636933786362161 0.0
outer loop
vertex 152.320832347873 5.22470552731661 2.0
vertex 152.129713342206 5.40253092790603 6.50000000000002
vertex 152.320832347873 5.22470552731661 6.50000000000002
endloop
endfacet
facet normal 0.349168122259827 0.937060095403463 0.0
outer loop
vertex 151.899081958362 5.52483183635791 6.50000000000002
vertex 152.129713342206 5.40253092790603 2.0
vertex 151.899081958362 5.52483183635791 2.0
endloop
endfacet
facet normal 0.579799506103626 0.814759186951575 0.0
outer loop
vertex 152.129713342206 5.40253092790603 2.0
vertex 151.899081958362 5.52483183635791 6.50000000000002
vertex 152.129713342206 5.40253092790603 6.50000000000002
endloop
endfacet
facet normal 0.0947415079116254 0.995501906918631 0.0
outer loop
vertex 151.644655344014 5.58327364787308 6.50000000000002
vertex 151.899081958362 5.52483183635791 2.0
vertex 151.644655344014 5.58327364787308 2.0
endloop
endfacet
facet normal 0.349168122259827 0.937060095403463 0.0
outer loop
vertex 151.899081958362 5.52483183635791 2.0
vertex 151.644655344014 5.58327364787308 6.50000000000002
vertex 151.899081958362 5.52483183635791 6.50000000000002
endloop
endfacet
facet normal -0.166141583633016 0.986101908621981 0.0
outer loop
vertex 151.383772252469 5.57387364957643 6.50000000000002
vertex 151.644655344014 5.58327364787308 2.0
vertex 151.383772252469 5.57387364957643 2.0
endloop
endfacet
facet normal 0.0947415079116254 0.995501906918631 0.0
outer loop
vertex 151.644655344014 5.58327364787308 2.0
vertex 151.383772252469 5.57387364957643 6.50000000000002
vertex 151.644655344014 5.58327364787308 6.50000000000002
endloop
endfacet
facet normal -0.415702400815014 0.909500694863194 0.0
outer loop
vertex 151.134211435288 5.49727243581765 6.50000000000002
vertex 151.383772252469 5.57387364957643 2.0
vertex 151.134211435288 5.49727243581765 2.0
endloop
endfacet
facet normal -0.166141583633016 0.986101908621981 0.0
outer loop
vertex 151.383772252469 5.57387364957643 2.0
vertex 151.134211435288 5.49727243581765 6.50000000000002
vertex 151.383772252469 5.57387364957643 6.50000000000002
endloop
endfacet
facet normal -0.636933786362165 0.770918511770444 0.0
outer loop
vertex 150.91298004974 5.3586902527249 6.50000000000002
vertex 151.134211435288 5.49727243581765 2.0
vertex 150.91298004974 5.3586902527249 2.0
endloop
endfacet
facet normal -0.415702400815014 0.909500694863194 0.0
outer loop
vertex 151.134211435288 5.49727243581765 2.0
vertex 150.91298004974 5.3586902527249 6.50000000000002
vertex 151.134211435288 5.49727243581765 6.50000000000002
endloop
endfacet
facet normal -0.636933786362165 0.770918511770444 0.0
outer loop
vertex 150.91298004974 5.3586902527249 6.50000000000002
vertex 150.735154649151 5.16757124705808 2.0
vertex 150.735154649151 5.16757124705808 6.50000000000002
endloop
endfacet
facet normal -0.814759186951585 0.579799506103612 0.0
outer loop
vertex 150.735154649151 5.16757124705808 2.0
vertex 150.91298004974 5.3586902527249 6.50000000000002
vertex 150.91298004974 5.3586902527249 2.0
endloop
endfacet
facet normal -0.814759186951585 0.579799506103612 0.0
outer loop
vertex 150.735154649151 5.16757124705808 6.50000000000002
vertex 150.612853740699 4.93693986321428 2.0
vertex 150.612853740699 4.93693986321428 6.50000000000002
endloop
endfacet
facet normal -0.937060095403457 0.349168122259843 0.0
outer loop
vertex 150.612853740699 4.93693986321428 2.0
vertex 150.735154649151 5.16757124705808 6.50000000000002
vertex 150.735154649151 5.16757124705808 2.0
endloop
endfacet
facet normal -0.937060095403457 0.349168122259843 0.0
outer loop
vertex 150.612853740699 4.93693986321428 6.50000000000002
vertex 150.554411929184 4.68251324886608 2.0
vertex 150.554411929184 4.68251324886608 6.50000000000002
endloop
endfacet
facet normal -0.99550190691863 0.0947415079116397 0.0
outer loop
vertex 150.554411929184 4.68251324886608 2.0
vertex 150.612853740699 4.93693986321428 6.50000000000002
vertex 150.612853740699 4.93693986321428 2.0
endloop
endfacet
facet normal -0.99550190691863 0.0947415079116397 0.0
outer loop
vertex 150.554411929184 4.68251324886608 6.50000000000002
vertex 150.563811927481 4.42163015732145 2.0
vertex 150.563811927481 4.42163015732145 6.50000000000002
endloop
endfacet
facet normal -0.986101908621981 -0.166141583633015 0.0
outer loop
vertex 150.563811927481 4.42163015732145 2.0
vertex 150.554411929184 4.68251324886608 6.50000000000002
vertex 150.554411929184 4.68251324886608 2.0
endloop
endfacet
facet normal -0.986101908621981 -0.166141583633015 0.0
outer loop
vertex 150.563811927481 4.42163015732145 6.50000000000002
vertex 150.640413141239 4.17206934013945 2.0
vertex 150.640413141239 4.17206934013945 6.50000000000002
endloop
endfacet
facet normal -0.909500694863198 -0.415702400815005 0.0
outer loop
vertex 150.640413141239 4.17206934013945 2.0
vertex 150.563811927481 4.42163015732145 6.50000000000002
vertex 150.563811927481 4.42163015732145 2.0
endloop
endfacet
facet normal -0.909500694863198 -0.415702400815005 0.0
outer loop
vertex 150.640413141239 4.17206934013945 6.50000000000002
vertex 150.778995324332 3.95083795459231 2.0
vertex 150.778995324332 3.95083795459231 6.50000000000002
endloop
endfacet
facet normal -0.770918511770447 -0.636933786362161 0.0
outer loop
vertex 150.778995324332 3.95083795459231 2.0
vertex 150.640413141239 4.17206934013945 6.50000000000002
vertex 150.640413141239 4.17206934013945 2.0
endloop
endfacet
facet normal -0.579799506103626 -0.814759186951575 0.0
outer loop
vertex 150.970114329999 3.77301255400289 6.50000000000002
vertex 150.778995324332 3.95083795459231 2.0
vertex 150.970114329999 3.77301255400289 2.0
endloop
endfacet
facet normal -0.770918511770447 -0.636933786362161 0.0
outer loop
vertex 150.778995324332 3.95083795459231 2.0
vertex 150.970114329999 3.77301255400289 6.50000000000002
vertex 150.778995324332 3.95083795459231 6.50000000000002
endloop
endfacet
facet normal -0.349168122259827 -0.937060095403463 0.0
outer loop
vertex 151.200745713843 3.650711645551 6.50000000000002
vertex 150.970114329999 3.77301255400289 2.0
vertex 151.200745713843 3.650711645551 2.0
endloop
endfacet
facet normal -0.579799506103626 -0.814759186951575 0.0
outer loop
vertex 150.970114329999 3.77301255400289 2.0
vertex 151.200745713843 3.650711645551 6.50000000000002
vertex 150.970114329999 3.77301255400289 6.50000000000002
endloop
endfacet
facet normal -0.0947415079116254 -0.995501906918631 0.0
outer loop
vertex 151.455172328191 3.59226983403583 6.50000000000002
vertex 151.200745713843 3.650711645551 2.0
vertex 151.455172328191 3.59226983403583 2.0
endloop
endfacet
facet normal -0.349168122259827 -0.937060095403463 0.0
outer loop
vertex 151.200745713843 3.650711645551 2.0
vertex 151.455172328191 3.59226983403583 6.50000000000002
vertex 151.200745713843 3.650711645551 6.50000000000002
endloop
endfacet
facet normal 0.166141583633016 -0.986101908621981 0.0
outer loop
vertex 151.716055419736 3.60166983233248 6.50000000000002
vertex 151.455172328191 3.59226983403583 2.0
vertex 151.716055419736 3.60166983233248 2.0
endloop
endfacet
facet normal -0.0947415079116254 -0.995501906918631 0.0
outer loop
vertex 151.455172328191 3.59226983403583 2.0
vertex 151.716055419736 3.60166983233248 6.50000000000002
vertex 151.455172328191 3.59226983403583 6.50000000000002
endloop
endfacet
facet normal 0.415702400815014 -0.909500694863194 0.0
outer loop
vertex 151.965616236918 3.67827104609127 6.50000000000002
vertex 151.716055419736 3.60166983233248 2.0
vertex 151.965616236918 3.67827104609127 2.0
endloop
endfacet
facet normal 0.166141583633016 -0.986101908621981 0.0
outer loop
vertex 151.716055419736 3.60166983233248 2.0
vertex 151.965616236918 3.67827104609127 6.50000000000002
vertex 151.716055419736 3.60166983233248 6.50000000000002
endloop
endfacet
facet normal 0.636933786362165 -0.770918511770444 0.0
outer loop
vertex 152.186847622465 3.81685322918401 6.50000000000002
vertex 151.965616236918 3.67827104609127 2.0
vertex 152.186847622465 3.81685322918401 2.0
endloop
endfacet
facet normal 0.415702400815014 -0.909500694863194 0.0
outer loop
vertex 151.965616236918 3.67827104609127 2.0
vertex 152.186847622465 3.81685322918401 6.50000000000002
vertex 151.965616236918 3.67827104609127 6.50000000000002
endloop
endfacet
facet normal 0.814759186951585 -0.579799506103612 0.0
outer loop
vertex 152.364673023054 4.00797223485084 2.0
vertex 152.186847622465 3.81685322918401 6.50000000000002
vertex 152.186847622465 3.81685322918401 2.0
endloop
endfacet
facet normal 0.636933786362165 -0.770918511770444 0.0
outer loop
vertex 152.186847622465 3.81685322918401 6.50000000000002
vertex 152.364673023054 4.00797223485084 2.0
vertex 152.364673023054 4.00797223485084 6.50000000000002
endloop
endfacet
facet normal 0.937060095403457 -0.349168122259843 0.0
outer loop
vertex 152.486973931506 4.23860361869464 2.0
vertex 152.364673023054 4.00797223485084 6.50000000000002
vertex 152.364673023054 4.00797223485084 2.0
endloop
endfacet
facet normal 0.814759186951585 -0.579799506103612 0.0
outer loop
vertex 152.364673023054 4.00797223485084 6.50000000000002
vertex 152.486973931506 4.23860361869464 2.0
vertex 152.486973931506 4.23860361869464 6.50000000000002
endloop
endfacet
facet normal 0.99550190691863 -0.0947415079116397 0.0
outer loop
vertex 152.545415743021 4.49303023304284 2.0
vertex 152.486973931506 4.23860361869464 6.50000000000002
vertex 152.486973931506 4.23860361869464 2.0
endloop
endfacet
facet normal 0.937060095403457 -0.349168122259843 0.0
outer loop
vertex 152.486973931506 4.23860361869464 6.50000000000002
vertex 152.545415743021 4.49303023304284 2.0
vertex 152.545415743021 4.49303023304284 6.50000000000002
endloop
endfacet
facet normal 0.986101908621981 0.166141583633015 0.0
outer loop
vertex 152.536015744724 4.75391332458747 2.0
vertex 152.545415743021 4.49303023304284 6.50000000000002
vertex 152.545415743021 4.49303023304284 2.0
endloop
endfacet
facet normal 0.99550190691863 -0.0947415079116397 0.0
outer loop
vertex 152.545415743021 4.49303023304284 6.50000000000002
vertex 152.536015744724 4.75391332458747 2.0
vertex 152.536015744724 4.75391332458747 6.50000000000002
endloop
endfacet
facet normal 0.909500694863198 0.415702400815005 0.0
outer loop
vertex 152.459414530966 5.00347414176946 2.0
vertex 152.536015744724 4.75391332458747 6.50000000000002
vertex 152.536015744724 4.75391332458747 2.0
endloop
endfacet
facet normal 0.986101908621981 0.166141583633015 0.0
outer loop
vertex 152.536015744724 4.75391332458747 6.50000000000002
vertex 152.459414530966 5.00347414176946 2.0
vertex 152.459414530966 5.00347414176946 6.50000000000002
endloop
endfacet
facet normal 0.770918511770447 0.636933786362161 0.0
outer loop
vertex 152.320832347873 5.22470552731661 2.0
vertex 152.459414530966 5.00347414176946 6.50000000000002
vertex 152.459414530966 5.00347414176946 2.0
endloop
endfacet
facet normal 0.909500694863198 0.415702400815005 0.0
outer loop
vertex 152.459414530966 5.00347414176946 6.50000000000002
vertex 152.320832347873 5.22470552731661 2.0
vertex 152.320832347873 5.22470552731661 6.50000000000002
endloop
endfacet
facet normal 5.20316060969077e-16 -2.72762870271394e-15 1.0
outer loop
vertex 96.0 5.49999999999999 4.49999999999999
vertex 66.0 7.49999999999999 4.50000000000001
vertex 64.0 5.49999999999999 4.5
endloop
endfacet
facet normal 5.20316060969077e-16 -2.72762870271394e-15 1.0
outer loop
vertex 66.0 7.49999999999999 4.50000000000001
vertex 96.0 5.49999999999999 4.49999999999999
vertex 96.0 7.49999999999999 4.49999999999999
endloop
endfacet
facet normal 4.8877885606968e-17 -1.76247905159243e-15 1.0
outer loop
vertex 136.0 5.49999999999999 2.0
vertex 66.0 7.5 2.00000000000001
vertex 64.0 5.49999999999999 2.0
endloop
endfacet
facet normal 4.8877885606968e-17 -1.76247905159243e-15 1.0
outer loop
vertex 66.0 7.5 2.00000000000001
vertex 136.0 5.49999999999999 2.0
vertex 134.0 7.5 2.0
endloop
endfacet
facet normal -0.70710678118655 0.707106781186546 1.28082277344299e-15
outer loop
vertex 66.0 7.49999999999999 4.50000000000001
vertex 64.0 5.49999999999999 2.0
vertex 64.0 5.49999999999999 4.5
endloop
endfacet
facet normal -0.70710678118655 0.707106781186546 1.28082277344299e-15
outer loop
vertex 64.0 5.49999999999999 2.0
vertex 66.0 7.49999999999999 4.50000000000001
vertex 66.0 7.5 2.00000000000001
endloop
endfacet
facet normal -1.0 5.63993296509577e-15 7.93115573216602e-16
outer loop
vertex 96.0 7.49999999999999 6.49999999999999
vertex 96.0 5.49999999999999 4.49999999999999
vertex 96.0 5.49999999999999 6.49999999999999
endloop
endfacet
facet normal -1.0 5.63993296509577e-15 7.93115573216602e-16
outer loop
vertex 96.0 5.49999999999999 4.49999999999999
vertex 96.0 7.49999999999999 6.49999999999999
vertex 96.0 7.49999999999999 4.49999999999999
endloop
endfacet
facet normal -6.14119519848008e-16 -6.59555570242488e-16 1.0
outer loop
vertex 136.0 5.49999999999999 4.5
vertex 104.0 7.49999999999999 4.49999999999998
vertex 104.0 5.49999999999999 4.49999999999998
endloop
endfacet
facet normal -6.14119519848008e-16 -6.59555570242488e-16 1.0
outer loop
vertex 104.0 7.49999999999999 4.49999999999998
vertex 136.0 5.49999999999999 4.5
vertex 134.0 7.49999999999999 4.5
endloop
endfacet
facet normal 7.93115573216596e-16 -1.05748743095546e-15 1.0
outer loop
vertex 104.0 5.49999999999999 6.49999999999998
vertex 96.0 7.49999999999999 6.49999999999999
vertex 96.0 5.49999999999999 6.49999999999999
endloop
endfacet
facet normal 7.93115573216596e-16 -1.05748743095546e-15 1.0
outer loop
vertex 96.0 7.49999999999999 6.49999999999999
vertex 104.0 5.49999999999999 6.49999999999998
vertex 104.0 7.49999999999999 6.49999999999998
endloop
endfacet
facet normal 1.0 5.59139833314389e-31 -7.93115573216596e-16
outer loop
vertex 104.0 7.49999999999999 4.49999999999998
vertex 104.0 5.49999999999999 6.49999999999998
vertex 104.0 5.49999999999999 4.49999999999998
endloop
endfacet
facet normal 1.0 5.59139833314389e-31 -7.93115573216596e-16
outer loop
vertex 104.0 5.49999999999999 6.49999999999998
vertex 104.0 7.49999999999999 4.49999999999998
vertex 104.0 7.49999999999999 6.49999999999998
endloop
endfacet
facet normal 0.0 -1.0 -1.76247905159243e-15
outer loop
vertex 136.0 5.49999999999999 4.5
vertex 64.0 5.49999999999999 2.0
vertex 136.0 5.49999999999999 2.0
endloop
endfacet
facet normal 0.0 -1.0 -1.76247905159243e-15
outer loop
vertex 64.0 5.49999999999999 2.0
vertex 136.0 5.49999999999999 4.5
vertex 104.0 5.49999999999999 4.49999999999998
endloop
endfacet
facet normal 0.0 -1.0 -1.76247905159243e-15
outer loop
vertex 104.0 5.49999999999999 6.49999999999998
vertex 96.0 5.49999999999999 4.49999999999999
vertex 104.0 5.49999999999999 4.49999999999998
endloop
endfacet
facet normal 0.0 -1.0 -1.76247905159243e-15
outer loop
vertex 96.0 5.49999999999999 4.49999999999999
vertex 104.0 5.49999999999999 6.49999999999998
vertex 96.0 5.49999999999999 6.49999999999999
endloop
endfacet
facet normal 0.0 -1.0 -1.76247905159243e-15
outer loop
vertex 104.0 5.49999999999999 4.49999999999998
vertex 64.0 5.49999999999999 4.5
vertex 64.0 5.49999999999999 2.0
endloop
endfacet
facet normal 0.0 -1.0 -1.76247905159243e-15
outer loop
vertex 64.0 5.49999999999999 4.5
vertex 104.0 5.49999999999999 4.49999999999998
vertex 96.0 5.49999999999999 4.49999999999999
endloop
endfacet
facet normal 0.70710678118655 0.707106781186546 1.21169900471749e-15
outer loop
vertex 136.0 5.49999999999999 2.0
vertex 134.0 7.49999999999999 4.5
vertex 136.0 5.49999999999999 4.5
endloop
endfacet
facet normal 0.70710678118655 0.707106781186546 1.21169900471749e-15
outer loop
vertex 134.0 7.49999999999999 4.5
vertex 136.0 5.49999999999999 2.0
vertex 134.0 7.5 2.0
endloop
endfacet
facet normal 1.82725435723657e-31 1.0 1.76247905159243e-15
outer loop
vertex 66.0 7.5 2.00000000000001
vertex 134.0 7.49999999999999 4.5
vertex 134.0 7.5 2.0
endloop
endfacet
facet normal 1.82725435723657e-31 1.0 1.76247905159243e-15
outer loop
vertex 134.0 7.49999999999999 4.5
vertex 66.0 7.5 2.00000000000001
vertex 104.0 7.49999999999999 4.49999999999998
endloop
endfacet
facet normal 1.82725435723657e-31 1.0 1.76247905159243e-15
outer loop
vertex 66.0 7.49999999999999 4.50000000000001
vertex 104.0 7.49999999999999 4.49999999999998
vertex 66.0 7.5 2.00000000000001
endloop
endfacet
facet normal 1.82725435723657e-31 1.0 1.76247905159243e-15
outer loop
vertex 104.0 7.49999999999999 4.49999999999998
vertex 66.0 7.49999999999999 4.50000000000001
vertex 96.0 7.49999999999999 4.49999999999999
endloop
endfacet
facet normal 1.82725435723657e-31 1.0 1.76247905159243e-15
outer loop
vertex 96.0 7.49999999999999 4.49999999999999
vertex 104.0 7.49999999999999 6.49999999999998
vertex 104.0 7.49999999999999 4.49999999999998
endloop
endfacet
facet normal 1.82725435723657e-31 1.0 1.76247905159243e-15
outer loop
vertex 104.0 7.49999999999999 6.49999999999998
vertex 96.0 7.49999999999999 4.49999999999999
vertex 96.0 7.49999999999999 6.49999999999999
endloop
endfacet
facet normal 1.82725435723657e-31 -1.0 1.76247905159243e-15
outer loop
vertex 134.0 32.5 4.5
vertex 66.0 32.5 2.00000000000001
vertex 134.0 32.5 2.0
endloop
endfacet
facet normal 1.82725435723657e-31 -1.0 1.76247905159243e-15
outer loop
vertex 66.0 32.5 2.00000000000001
vertex 134.0 32.5 4.5
vertex 104.0 32.5 4.49999999999998
endloop
endfacet
facet normal 1.82725435723657e-31 -1.0 1.76247905159243e-15
outer loop
vertex 104.0 32.5 6.49999999999998
vertex 96.0 32.5 4.49999999999999
vertex 104.0 32.5 4.49999999999998
endloop
endfacet
facet normal 1.82725435723657e-31 -1.0 1.76247905159243e-15
outer loop
vertex 96.0 32.5 4.49999999999999
vertex 104.0 32.5 6.49999999999998
vertex 96.0 32.5 6.49999999999999
endloop
endfacet
facet normal 1.82725435723657e-31 -1.0 1.76247905159243e-15
outer loop
vertex 104.0 32.5 4.49999999999998
vertex 66.0 32.5 4.50000000000001
vertex 66.0 32.5 2.00000000000001
endloop
endfacet
facet normal 1.82725435723657e-31 -1.0 1.76247905159243e-15
outer loop
vertex 66.0 32.5 4.50000000000001
vertex 104.0 32.5 4.49999999999998
vertex 96.0 32.5 4.49999999999999
endloop
endfacet
facet normal 0.0 1.0 -1.76247905159243e-15
outer loop
vertex 64.0 34.5 4.5
vertex 136.0 34.5 2.0
vertex 64.0 34.5 2.0
endloop
endfacet
facet normal 0.0 1.0 -1.76247905159243e-15
outer loop
vertex 136.0 34.5 2.0
vertex 64.0 34.5 4.5
vertex 104.0 34.5 4.49999999999998
endloop
endfacet
facet normal 0.0 1.0 -1.76247905159243e-15
outer loop
vertex 104.0 34.5 4.49999999999998
vertex 64.0 34.5 4.5
vertex 96.0 34.5 4.49999999999999
endloop
endfacet
facet normal 0.0 1.0 -1.76247905159243e-15
outer loop
vertex 96.0 34.5 4.49999999999999
vertex 104.0 34.5 6.49999999999998
vertex 104.0 34.5 4.49999999999998
endloop
endfacet
facet normal 0.0 1.0 -1.76247905159243e-15
outer loop
vertex 104.0 34.5 6.49999999999998
vertex 96.0 34.5 4.49999999999999
vertex 96.0 34.5 6.49999999999998
endloop
endfacet
facet normal 0.0 1.0 -1.76247905159243e-15
outer loop
vertex 136.0 34.5 4.5
vertex 136.0 34.5 2.0
vertex 104.0 34.5 4.49999999999998
endloop
endfacet
facet normal 0.70710678118655 -0.707106781186546 1.21169900471749e-15
outer loop
vertex 136.0 34.5 2.0
vertex 134.0 32.5 4.5
vertex 134.0 32.5 2.0
endloop
endfacet
facet normal 0.70710678118655 -0.707106781186546 1.21169900471749e-15
outer loop
vertex 134.0 32.5 4.5
vertex 136.0 34.5 2.0
vertex 136.0 34.5 4.5
endloop
endfacet
facet normal -4.8877885606968e-17 -1.76247905159243e-15 -1.0
outer loop
vertex 136.0 34.5 2.0
vertex 66.0 32.5 2.00000000000001
vertex 64.0 34.5 2.0
endloop
endfacet
facet normal -4.8877885606968e-17 -1.76247905159243e-15 -1.0
outer loop
vertex 66.0 32.5 2.00000000000001
vertex 136.0 34.5 2.0
vertex 134.0 32.5 2.0
endloop
endfacet
facet normal 5.20316060969077e-16 2.72762870271394e-15 1.0
outer loop
vertex 66.0 32.5 4.50000000000001
vertex 96.0 34.5 4.49999999999999
vertex 64.0 34.5 4.5
endloop
endfacet
facet normal 5.20316060969077e-16 2.72762870271394e-15 1.0
outer loop
vertex 96.0 34.5 4.49999999999999
vertex 66.0 32.5 4.50000000000001
vertex 96.0 32.5 4.49999999999999
endloop
endfacet
facet normal -0.70710678118655 -0.707106781186546 1.28082277344299e-15
outer loop
vertex 64.0 34.5 4.5
vertex 66.0 32.5 2.00000000000001
vertex 66.0 32.5 4.50000000000001
endloop
endfacet
facet normal -0.70710678118655 -0.707106781186546 1.28082277344299e-15
outer loop
vertex 66.0 32.5 2.00000000000001
vertex 64.0 34.5 4.5
vertex 64.0 34.5 2.0
endloop
endfacet
facet normal -6.14119519848008e-16 6.59555570242488e-16 1.0
outer loop
vertex 134.0 32.5 4.5
vertex 104.0 34.5 4.49999999999998
vertex 104.0 32.5 4.49999999999998
endloop
endfacet
facet normal -6.14119519848008e-16 6.59555570242488e-16 1.0
outer loop
vertex 104.0 34.5 4.49999999999998
vertex 134.0 32.5 4.5
vertex 136.0 34.5 4.5
endloop
endfacet
facet normal 7.93115573216596e-16 1.05748743095546e-15 1.0
outer loop
vertex 96.0 32.5 6.49999999999999
vertex 104.0 34.5 6.49999999999998
vertex 96.0 34.5 6.49999999999998
endloop
endfacet
facet normal 7.93115573216596e-16 1.05748743095546e-15 1.0
outer loop
vertex 104.0 34.5 6.49999999999998
vertex 96.0 32.5 6.49999999999999
vertex 104.0 32.5 6.49999999999998
endloop
endfacet
facet normal 1.0 -5.59139833314389e-31 -7.93115573216596e-16
outer loop
vertex 104.0 34.5 4.49999999999998
vertex 104.0 32.5 6.49999999999998
vertex 104.0 32.5 4.49999999999998
endloop
endfacet
facet normal 1.0 -5.59139833314389e-31 -7.93115573216596e-16
outer loop
vertex 104.0 32.5 6.49999999999998
vertex 104.0 34.5 4.49999999999998
vertex 104.0 34.5 6.49999999999998
endloop
endfacet
facet normal -1.0 -5.63993296509577e-15 7.93115573216602e-16
outer loop
vertex 96.0 34.5 6.49999999999998
vertex 96.0 32.5 4.49999999999999
vertex 96.0 32.5 6.49999999999999
endloop
endfacet
facet normal -1.0 -5.63993296509577e-15 7.93115573216602e-16
outer loop
vertex 96.0 32.5 4.49999999999999
vertex 96.0 34.5 6.49999999999998
vertex 96.0 34.5 4.49999999999999
endloop
endfacet
endsolid Base
