solid Base
facet normal 2.82393855209288e-033 -1.0 -2.64371857738865e-016
outer loop
vertex 200.0 22.0 1.0
vertex 2.0 22.0 2.0
vertex 2.0 22.0 0.999999999999998
endloop
endfacet
facet normal 2.82393855209288e-033 -1.0 -2.64371857738865e-016
outer loop
vertex 2.0 22.0 2.0
vertex 200.0 22.0 1.0
vertex 200.0 22.0 2.0
endloop
endfacet
facet normal 0.707106781186548 0.707106781186547 -1.58275132913193e-017
outer loop
vertex 134.0 7.5 2.0
vertex 136.0 5.5 4.5
vertex 136.0 5.5 2.0
endloop
endfacet
facet normal 0.707106781186548 0.707106781186547 -1.58275132913193e-017
outer loop
vertex 136.0 5.5 4.5
vertex 134.0 7.5 2.0
vertex 134.0 7.5 4.5
endloop
endfacet
facet normal 0.707106781186549 -0.707106781186547 0.0
outer loop
vertex 136.0 34.5 2.0
vertex 134.0 32.5 4.5
vertex 134.0 32.5 2.0
endloop
endfacet
facet normal 0.707106781186549 -0.707106781186547 0.0
outer loop
vertex 134.0 32.5 4.5
vertex 136.0 34.5 2.0
vertex 136.0 34.5 4.5
endloop
endfacet
facet normal 0.0 0.0 -1.0
outer loop
vertex 200.0 40.0 0.0
vertex 0.0 0.0 0.0
vertex 0.0 40.0 0.0
endloop
endfacet
facet normal 0.0 0.0 -1.0
outer loop
vertex 0.0 0.0 0.0
vertex 200.0 40.0 0.0
vertex 200.0 0.0 0.0
endloop
endfacet
facet normal 0.0 1.0 0.0
outer loop
vertex -2.10400559931119e-017 40.0 8.8
vertex 200.0 40.0 0.0
vertex 0.0 40.0 0.0
endloop
endfacet
facet normal 0.0 1.0 0.0
outer loop
vertex 200.0 40.0 0.0
vertex -2.10400559931119e-017 40.0 8.8
vertex 200.0 40.0 8.8
endloop
endfacet
facet normal -1.0 0.0 0.0
outer loop
vertex -2.10400559931119e-017 40.0 8.8
vertex 0.0 0.0 0.0
vertex -2.10400559931119e-017 -1.55647500660111e-017 8.8
endloop
endfacet
facet normal -1.0 0.0 0.0
outer loop
vertex 0.0 0.0 0.0
vertex -2.10400559931119e-017 40.0 8.8
vertex 0.0 40.0 0.0
endloop
endfacet
facet normal 0.0 -1.0 0.0
outer loop
vertex 200.0 -1.55647500660111e-017 8.8
vertex 0.0 0.0 0.0
vertex 200.0 0.0 0.0
endloop
endfacet
facet normal 0.0 -1.0 0.0
outer loop
vertex 0.0 0.0 0.0
vertex 200.0 -1.55647500660111e-017 8.8
vertex -2.10400559931119e-017 -1.55647500660111e-017 8.8
endloop
endfacet
facet normal 1.52090177871225e-031 -1.0 -4.41160400643998e-015
outer loop
vertex 136.0 5.5 4.5
vertex 64.0 5.5 2.0
vertex 136.0 5.5 2.0
endloop
endfacet
facet normal 1.52090177871225e-031 -1.0 -4.41160400643998e-015
outer loop
vertex 64.0 5.5 2.0
vertex 136.0 5.5 4.5
vertex 96.0 5.5 4.49999999999997
endloop
endfacet
facet normal 1.52090177871225e-031 -1.0 -4.41160400643998e-015
outer loop
vertex 96.0 5.5 4.49999999999997
vertex 136.0 5.5 4.5
vertex 104.0 5.5 4.49999999999999
endloop
endfacet
facet normal 1.52090177871225e-031 -1.0 -4.41160400643998e-015
outer loop
vertex 104.0 5.5 4.49999999999999
vertex 96.0 5.49999999999998 6.49999999999997
vertex 96.0 5.5 4.49999999999997
endloop
endfacet
facet normal 1.52090177871225e-031 -1.0 -4.41160400643998e-015
outer loop
vertex 96.0 5.49999999999998 6.49999999999997
vertex 104.0 5.5 4.49999999999999
vertex 104.0 5.49999999999998 6.49999999999999
endloop
endfacet
facet normal 1.52090177871225e-031 -1.0 -4.41160400643998e-015
outer loop
vertex 64.0 5.5 4.5
vertex 64.0 5.5 2.0
vertex 96.0 5.5 4.49999999999997
endloop
endfacet
facet normal -1.43490471267475e-018 1.34510729046226e-016 1.0
outer loop
vertex 2.0 2.0 2.0
vertex 48.6313872667898 4.4033606532448 2.0
vertex 48.5859625001645 4.66043056202237 2.0
endloop
endfacet
facet normal -1.43490471267475e-018 1.34510729046226e-016 1.0
outer loop
vertex 48.6313872667898 4.4033606532448 2.0
vertex 2.0 2.0 2.0
vertex 48.7417988103407 4.16680698391673 2.0
endloop
endfacet
facet normal -1.43490471267475e-018 1.34510729046226e-016 1.0
outer loop
vertex 48.7417988103407 4.16680698391673 2.0
vertex 2.0 2.0 2.0
vertex 48.9096727665879 3.96689029567943 2.0
endloop
endfacet
facet normal -1.43490471267475e-018 1.34510729046226e-016 1.0
outer loop
vertex 48.9096727665879 3.96689029567943 2.0
vertex 2.0 2.0 2.0
vertex 49.123568802838 3.81723458045833 2.0
endloop
endfacet
facet normal -1.43490471267475e-018 1.34510729046226e-016 1.0
outer loop
vertex 49.123568802838 3.81723458045833 2.0
vertex 2.0 2.0 2.0
vertex 49.3689102577006 3.72803862792798 2.0
endloop
endfacet
facet normal -1.43490471267475e-018 1.34510729046226e-016 1.0
outer loop
vertex 49.3689102577006 3.72803862792798 2.0
vertex 2.0 2.0 2.0
vertex 49.6289775164726 3.70538099485006 2.0
endloop
endfacet
facet normal -1.43490471267475e-018 1.34510729046226e-016 1.0
outer loop
vertex 49.6289775164726 3.70538099485006 2.0
vertex 2.0 2.0 2.0
vertex 198.0 2.0 2.0
endloop
endfacet
facet normal -1.43490471267475e-018 1.34510729046226e-016 1.0
outer loop
vertex 49.6289775164726 3.70538099485006 2.0
vertex 198.0 2.0 2.0
vertex 49.8860474252501 3.7508057614753 2.0
endloop
endfacet
facet normal -1.43490471267475e-018 1.34510729046226e-016 1.0
outer loop
vertex 49.8860474252501 3.7508057614753 2.0
vertex 198.0 2.0 2.0
vertex 50.1226010945782 3.86121730502617 2.0
endloop
endfacet
facet normal -1.43490471267475e-018 1.34510729046226e-016 1.0
outer loop
vertex 50.1226010945782 3.86121730502617 2.0
vertex 198.0 2.0 2.0
vertex 50.3225177828155 4.0290912612734 2.0
endloop
endfacet
facet normal -1.43490471267475e-018 1.34510729046226e-016 1.0
outer loop
vertex 50.3225177828155 4.0290912612734 2.0
vertex 198.0 2.0 2.0
vertex 50.4721734980366 4.24298729752354 2.0
endloop
endfacet
facet normal -1.43490471267475e-018 1.34510729046226e-016 1.0
outer loop
vertex 50.4721734980366 4.24298729752354 2.0
vertex 198.0 2.0 2.0
vertex 50.5613694505669 4.48832875238608 2.0
endloop
endfacet
facet normal -1.43490471267475e-018 1.34510729046226e-016 1.0
outer loop
vertex 50.5613694505669 4.48832875238608 2.0
vertex 198.0 2.0 2.0
vertex 50.5840270836449 4.74839601115806 2.0
endloop
endfacet
facet normal -1.43490471267475e-018 1.34510729046226e-016 1.0
outer loop
vertex 50.5840270836449 4.74839601115806 2.0
vertex 198.0 2.0 2.0
vertex 64.0 5.5 2.0
endloop
endfacet
facet normal -1.43490471267475e-018 1.34510729046226e-016 1.0
outer loop
vertex 64.0 5.5 2.0
vertex 198.0 2.0 2.0
vertex 136.0 5.5 2.0
endloop
endfacet
facet normal -1.43490471267475e-018 1.34510729046226e-016 1.0
outer loop
vertex 2.0 18.0 2.0
vertex 66.0 7.5 2.00000000000003
vertex 200.0 18.0 2.0
endloop
endfacet
facet normal -1.43490471267475e-018 1.34510729046226e-016 1.0
outer loop
vertex 66.0 7.5 2.00000000000003
vertex 2.0 18.0 2.0
vertex 2.0 2.0 2.0
endloop
endfacet
facet normal -1.43490471267475e-018 1.34510729046226e-016 1.0
outer loop
vertex 66.0 7.5 2.00000000000003
vertex 2.0 2.0 2.0
vertex 49.5410120673369 5.70344557833037 2.0
endloop
endfacet
facet normal -1.43490471267475e-018 1.34510729046226e-016 1.0
outer loop
vertex 49.5410120673369 5.70344557833037 2.0
vertex 2.0 2.0 2.0
vertex 49.2839421585593 5.65802081170513 2.0
endloop
endfacet
facet normal -1.43490471267475e-018 1.34510729046226e-016 1.0
outer loop
vertex 49.2839421585593 5.65802081170513 2.0
vertex 2.0 2.0 2.0
vertex 49.0473884892312 5.54760926815425 2.0
endloop
endfacet
facet normal -1.43490471267475e-018 1.34510729046226e-016 1.0
outer loop
vertex 49.0473884892312 5.54760926815425 2.0
vertex 2.0 2.0 2.0
vertex 48.8474718009939 5.37973531190703 2.0
endloop
endfacet
facet normal -1.43490471267475e-018 1.34510729046226e-016 1.0
outer loop
vertex 48.8474718009939 5.37973531190703 2.0
vertex 2.0 2.0 2.0
vertex 48.6978160857728 5.16583927565689 2.0
endloop
endfacet
facet normal -1.43490471267475e-018 1.34510729046226e-016 1.0
outer loop
vertex 48.6978160857728 5.16583927565689 2.0
vertex 2.0 2.0 2.0
vertex 48.6086201332425 4.92049782079434 2.0
endloop
endfacet
facet normal -1.43490471267475e-018 1.34510729046226e-016 1.0
outer loop
vertex 48.6086201332425 4.92049782079434 2.0
vertex 2.0 2.0 2.0
vertex 48.5859625001645 4.66043056202237 2.0
endloop
endfacet
facet normal -1.43490471267475e-018 1.34510729046226e-016 1.0
outer loop
vertex 66.0 7.5 2.00000000000003
vertex 49.5410120673369 5.70344557833037 2.0
vertex 49.8010793261088 5.68078794525244 2.0
endloop
endfacet
facet normal -1.43490471267475e-018 1.34510729046226e-016 1.0
outer loop
vertex 66.0 7.5 2.00000000000003
vertex 49.8010793261088 5.68078794525244 2.0
vertex 50.0464207809714 5.5915919927221 2.0
endloop
endfacet
facet normal -1.43490471267475e-018 1.34510729046226e-016 1.0
outer loop
vertex 66.0 7.5 2.00000000000003
vertex 50.0464207809714 5.5915919927221 2.0
vertex 50.2603168172215 5.441936277501 2.0
endloop
endfacet
facet normal -1.43490471267475e-018 1.34510729046226e-016 1.0
outer loop
vertex 66.0 7.5 2.00000000000003
vertex 50.2603168172215 5.441936277501 2.0
vertex 50.4281907734687 5.2420195892637 2.0
endloop
endfacet
facet normal -1.43490471267475e-018 1.34510729046226e-016 1.0
outer loop
vertex 66.0 7.5 2.00000000000003
vertex 50.4281907734687 5.2420195892637 2.0
vertex 50.5386023170196 5.00546591993562 2.0
endloop
endfacet
facet normal -1.43490471267475e-018 1.34510729046226e-016 1.0
outer loop
vertex 66.0 7.5 2.00000000000003
vertex 50.5386023170196 5.00546591993562 2.0
vertex 50.5840270836449 4.74839601115806 2.0
endloop
endfacet
facet normal -1.43490471267475e-018 1.34510729046226e-016 1.0
outer loop
vertex 66.0 7.5 2.00000000000003
vertex 50.5840270836449 4.74839601115806 2.0
vertex 64.0 5.5 2.0
endloop
endfacet
facet normal -1.43490471267475e-018 1.34510729046226e-016 1.0
outer loop
vertex 200.0 18.0 2.0
vertex 66.0 7.5 2.00000000000003
vertex 134.0 7.5 2.0
endloop
endfacet
facet normal -1.43490471267475e-018 1.34510729046226e-016 1.0
outer loop
vertex 200.0 18.0 2.0
vertex 134.0 7.5 2.0
vertex 136.0 5.5 2.0
endloop
endfacet
facet normal -1.43490471267475e-018 1.34510729046226e-016 1.0
outer loop
vertex 200.0 18.0 2.0
vertex 136.0 5.5 2.0
vertex 198.0 9.0 2.0
endloop
endfacet
facet normal -1.43490471267475e-018 1.34510729046226e-016 1.0
outer loop
vertex 198.0 9.0 2.0
vertex 136.0 5.5 2.0
vertex 198.0 2.0 2.0
endloop
endfacet
facet normal -1.43490471267475e-018 1.34510729046226e-016 1.0
outer loop
vertex 200.0 18.0 2.0
vertex 198.0 9.0 2.0
vertex 200.0 9.0 2.0
endloop
endfacet
facet normal 1.0 0.0 0.0
outer loop
vertex 200.0 0.0 0.0
vertex 200.0 9.0 8.8
vertex 200.0 -1.55647500660111e-017 8.8
endloop
endfacet
facet normal 1.0 0.0 0.0
outer loop
vertex 200.0 9.0 8.8
vertex 200.0 0.0 0.0
vertex 200.0 9.0 2.0
endloop
endfacet
facet normal 1.0 0.0 0.0
outer loop
vertex 200.0 0.0 0.0
vertex 200.0 18.0 0.999999999999998
vertex 200.0 9.0 2.0
endloop
endfacet
facet normal 1.0 0.0 0.0
outer loop
vertex 200.0 18.0 0.999999999999998
vertex 200.0 0.0 0.0
vertex 200.0 40.0 0.0
endloop
endfacet
facet normal 1.0 0.0 0.0
outer loop
vertex 200.0 18.0 0.999999999999998
vertex 200.0 40.0 0.0
vertex 200.0 22.0 1.0
endloop
endfacet
facet normal 1.0 0.0 0.0
outer loop
vertex 200.0 22.0 1.0
vertex 200.0 40.0 0.0
vertex 200.0 22.0 2.0
endloop
endfacet
facet normal 1.0 0.0 0.0
outer loop
vertex 200.0 22.0 2.0
vertex 200.0 40.0 0.0
vertex 200.0 31.0 2.0
endloop
endfacet
facet normal 1.0 0.0 0.0
outer loop
vertex 200.0 31.0 2.0
vertex 200.0 40.0 0.0
vertex 200.0 31.0 8.8
endloop
endfacet
facet normal 1.0 0.0 0.0
outer loop
vertex 200.0 31.0 8.8
vertex 200.0 40.0 0.0
vertex 200.0 40.0 8.8
endloop
endfacet
facet normal 1.0 0.0 0.0
outer loop
vertex 200.0 18.0 2.0
vertex 200.0 9.0 2.0
vertex 200.0 18.0 0.999999999999998
endloop
endfacet
facet normal -5.22011240496624e-018 -6.61505345280502e-017 1.0
outer loop
vertex 2.0 22.0 2.0
vertex 66.0 32.5 2.0
vertex 2.0 38.0 2.0
endloop
endfacet
facet normal -5.22011240496624e-018 -6.61505345280502e-017 1.0
outer loop
vertex 66.0 32.5 2.0
vertex 2.0 22.0 2.0
vertex 200.0 22.0 2.0
endloop
endfacet
facet normal -5.22011240496624e-018 -6.61505345280502e-017 1.0
outer loop
vertex 2.0 38.0 2.0
vertex 66.0 32.5 2.0
vertex 64.0 34.5 2.0
endloop
endfacet
facet normal -5.22011240496624e-018 -6.61505345280502e-017 1.0
outer loop
vertex 66.0 32.5 2.0
vertex 200.0 22.0 2.0
vertex 134.0 32.5 2.0
endloop
endfacet
facet normal -5.22011240496624e-018 -6.61505345280502e-017 1.0
outer loop
vertex 134.0 32.5 2.0
vertex 200.0 22.0 2.0
vertex 136.0 34.5 2.0
endloop
endfacet
facet normal -5.22011240496624e-018 -6.61505345280502e-017 1.0
outer loop
vertex 136.0 34.5 2.0
vertex 200.0 22.0 2.0
vertex 198.0 31.0 2.0
endloop
endfacet
facet normal -5.22011240496624e-018 -6.61505345280502e-017 1.0
outer loop
vertex 198.0 31.0 2.0
vertex 200.0 22.0 2.0
vertex 200.0 31.0 2.0
endloop
endfacet
facet normal -5.22011240496624e-018 -6.61505345280502e-017 1.0
outer loop
vertex 64.0 34.5 2.0
vertex 198.0 38.0 2.0
vertex 2.0 38.0 2.0
endloop
endfacet
facet normal -5.22011240496624e-018 -6.61505345280502e-017 1.0
outer loop
vertex 198.0 38.0 2.0
vertex 64.0 34.5 2.0
vertex 136.0 34.5 2.0
endloop
endfacet
facet normal -5.22011240496624e-018 -6.61505345280502e-017 1.0
outer loop
vertex 198.0 38.0 2.0
vertex 136.0 34.5 2.0
vertex 198.0 31.0 2.0
endloop
endfacet
facet normal 0.0 1.0 2.64371857738865e-016
outer loop
vertex 2.0 18.0 2.0
vertex 200.0 18.0 0.999999999999998
vertex 2.0 18.0 0.999999999999998
endloop
endfacet
facet normal 0.0 1.0 2.64371857738865e-016
outer loop
vertex 200.0 18.0 0.999999999999998
vertex 2.0 18.0 2.0
vertex 200.0 18.0 2.0
endloop
endfacet
facet normal -1.0 0.0 0.0
outer loop
vertex 96.0 7.49999999999998 6.5
vertex 96.0 5.5 4.49999999999997
vertex 96.0 5.49999999999998 6.49999999999997
endloop
endfacet
facet normal -1.0 0.0 0.0
outer loop
vertex 96.0 5.5 4.49999999999997
vertex 96.0 7.49999999999998 6.5
vertex 96.0 7.5 4.5
endloop
endfacet
facet normal 1.0 0.0 6.6889921750893e-018
outer loop
vertex 2.0 22.0 0.999999999999998
vertex 2.0 18.0 2.0
vertex 2.0 18.0 0.999999999999998
endloop
endfacet
facet normal 1.0 0.0 6.6889921750893e-018
outer loop
vertex 2.0 18.0 2.0
vertex 2.0 22.0 0.999999999999998
vertex 2.0 18.0 8.8
endloop
endfacet
facet normal 1.0 0.0 6.6889921750893e-018
outer loop
vertex 2.0 18.0 8.8
vertex 2.0 22.0 0.999999999999998
vertex 2.0 22.0 8.8
endloop
endfacet
facet normal 1.0 0.0 6.6889921750893e-018
outer loop
vertex 2.0 22.0 8.8
vertex 2.0 22.0 0.999999999999998
vertex 2.0 22.0 2.0
endloop
endfacet
facet normal -1.2219471401742e-017 -8.81239525796217e-017 1.0
outer loop
vertex 66.0 32.5 2.0
vertex 136.0 34.5 2.0
vertex 64.0 34.5 2.0
endloop
endfacet
facet normal -1.2219471401742e-017 -8.81239525796217e-017 1.0
outer loop
vertex 136.0 34.5 2.0
vertex 66.0 32.5 2.0
vertex 134.0 32.5 2.0
endloop
endfacet
facet normal -6.6889921750893e-018 -2.64371857738865e-016 1.0
outer loop
vertex 200.0 18.0 0.999999999999998
vertex 2.0 22.0 0.999999999999998
vertex 2.0 18.0 0.999999999999998
endloop
endfacet
facet normal -6.6889921750893e-018 -2.64371857738865e-016 1.0
outer loop
vertex 2.0 22.0 0.999999999999998
vertex 200.0 18.0 0.999999999999998
vertex 200.0 22.0 1.0
endloop
endfacet
facet normal 7.13052855384383e-016 -1.30463755991577e-014 1.0
outer loop
vertex 96.0 5.5 4.49999999999997
vertex 66.0 7.5 4.50000000000002
vertex 64.0 5.5 4.5
endloop
endfacet
facet normal 7.13052855384383e-016 -1.30463755991577e-014 1.0
outer loop
vertex 66.0 7.5 4.50000000000002
vertex 96.0 5.5 4.49999999999997
vertex 96.0 7.5 4.5
endloop
endfacet
facet normal -0.707106781186548 0.707106781186547 3.40103894215044e-030
outer loop
vertex 66.0 7.5 4.50000000000002
vertex 64.0 5.5 2.0
vertex 64.0 5.5 4.5
endloop
endfacet
facet normal -0.707106781186548 0.707106781186547 3.40103894215044e-030
outer loop
vertex 64.0 5.5 2.0
vertex 66.0 7.5 4.50000000000002
vertex 66.0 7.5 2.00000000000003
endloop
endfacet
facet normal 1.0 0.0 0.0
outer loop
vertex 104.0 5.5 4.49999999999999
vertex 104.0 7.49999999999998 6.5
vertex 104.0 5.49999999999998 6.49999999999999
endloop
endfacet
facet normal 1.0 0.0 0.0
outer loop
vertex 104.0 7.49999999999998 6.5
vertex 104.0 5.5 4.49999999999999
vertex 104.0 7.5 4.5
endloop
endfacet
facet normal 1.0 0.0 0.0
outer loop
vertex 104.0 32.5 4.5
vertex 104.0 34.5 6.5
vertex 104.0 32.5 6.5
endloop
endfacet
facet normal 1.0 0.0 0.0
outer loop
vertex 104.0 34.5 6.5
vertex 104.0 32.5 4.5
vertex 104.0 34.5 4.5
endloop
endfacet
facet normal -6.15585198892992e-017 -1.61701040637784e-015 1.0
outer loop
vertex 136.0 5.5 4.5
vertex 104.0 7.5 4.5
vertex 104.0 5.5 4.49999999999999
endloop
endfacet
facet normal -6.15585198892992e-017 -1.61701040637784e-015 1.0
outer loop
vertex 104.0 7.5 4.5
vertex 136.0 5.5 4.5
vertex 134.0 7.5 4.5
endloop
endfacet
facet normal 2.19851856747497e-017 3.41503217481112e-016 1.0
outer loop
vertex 134.0 32.5 4.5
vertex 104.0 34.5 4.5
vertex 104.0 32.5 4.5
endloop
endfacet
facet normal 2.19851856747497e-017 3.41503217481112e-016 1.0
outer loop
vertex 104.0 34.5 4.5
vertex 134.0 32.5 4.5
vertex 136.0 34.5 4.5
endloop
endfacet
facet normal 7.69481498616241e-016 -1.0542629370565e-014 1.0
outer loop
vertex 66.0 32.5 4.5
vertex 96.0 34.5 4.5
vertex 64.0 34.5 4.5
endloop
endfacet
facet normal 7.69481498616241e-016 -1.0542629370565e-014 1.0
outer loop
vertex 96.0 34.5 4.5
vertex 66.0 32.5 4.5
vertex 96.0 32.5 4.49999999999995
endloop
endfacet
facet normal 1.95655300914952e-016 -6.69742039605126e-015 1.0
outer loop
vertex 136.0 5.5 2.0
vertex 66.0 7.5 2.00000000000003
vertex 64.0 5.5 2.0
endloop
endfacet
facet normal 1.95655300914952e-016 -6.69742039605126e-015 1.0
outer loop
vertex 66.0 7.5 2.00000000000003
vertex 136.0 5.5 2.0
vertex 134.0 7.5 2.0
endloop
endfacet
facet normal -1.0 1.29302639620156e-028 -5.63993296509579e-015
outer loop
vertex 96.0 34.5 6.5
vertex 96.0 32.5 4.49999999999995
vertex 96.0 32.5 6.49999999999995
endloop
endfacet
facet normal -1.0 1.29302639620156e-028 -5.63993296509579e-015
outer loop
vertex 96.0 32.5 4.49999999999995
vertex 96.0 34.5 6.5
vertex 96.0 34.5 4.5
endloop
endfacet
facet normal -1.58623114643319e-015 -1.05748743095546e-014 1.0
outer loop
vertex 104.0 5.49999999999998 6.49999999999999
vertex 96.0 7.49999999999998 6.5
vertex 96.0 5.49999999999998 6.49999999999997
endloop
endfacet
facet normal -1.58623114643319e-015 -1.05748743095546e-014 1.0
outer loop
vertex 96.0 7.49999999999998 6.5
vertex 104.0 5.49999999999998 6.49999999999999
vertex 104.0 7.49999999999998 6.5
endloop
endfacet
facet normal -2.99621438770713e-015 -1.05748743095546e-014 1.0
outer loop
vertex 104.0 32.5 6.5
vertex 96.0 34.5 6.5
vertex 96.0 32.5 6.49999999999995
endloop
endfacet
facet normal -2.99621438770713e-015 -1.05748743095546e-014 1.0
outer loop
vertex 96.0 34.5 6.5
vertex 104.0 32.5 6.5
vertex 104.0 34.5 6.5
endloop
endfacet
facet normal 3.63485445302861e-031 -1.0 -4.70571094020265e-015
outer loop
vertex 134.0 32.5 4.5
vertex 96.0 32.5 4.49999999999995
vertex 134.0 32.5 2.0
endloop
endfacet
facet normal 3.63485445302861e-031 -1.0 -4.70571094020265e-015
outer loop
vertex 96.0 32.5 4.49999999999995
vertex 134.0 32.5 4.5
vertex 104.0 32.5 4.5
endloop
endfacet
facet normal 3.63485445302861e-031 -1.0 -4.70571094020265e-015
outer loop
vertex 96.0 32.5 4.49999999999995
vertex 104.0 32.5 4.5
vertex 96.0 32.5 6.49999999999995
endloop
endfacet
facet normal 3.63485445302861e-031 -1.0 -4.70571094020265e-015
outer loop
vertex 96.0 32.5 6.49999999999995
vertex 104.0 32.5 4.5
vertex 104.0 32.5 6.5
endloop
endfacet
facet normal 3.63485445302861e-031 -1.0 -4.70571094020265e-015
outer loop
vertex 134.0 32.5 2.0
vertex 66.0 32.5 4.5
vertex 66.0 32.5 2.0
endloop
endfacet
facet normal 3.63485445302861e-031 -1.0 -4.70571094020265e-015
outer loop
vertex 66.0 32.5 4.5
vertex 134.0 32.5 2.0
vertex 96.0 32.5 4.49999999999995
endloop
endfacet
facet normal -0.707106781186549 -0.707106781186547 1.58275132913201e-017
outer loop
vertex 64.0 34.5 4.5
vertex 66.0 32.5 2.0
vertex 66.0 32.5 4.5
endloop
endfacet
facet normal -0.707106781186549 -0.707106781186547 1.58275132913201e-017
outer loop
vertex 66.0 32.5 2.0
vertex 64.0 34.5 4.5
vertex 64.0 34.5 2.0
endloop
endfacet
facet normal -1.71178298264134e-032 1.0 4.70571094020263e-015
outer loop
vertex 96.0 34.5 6.5
vertex 104.0 34.5 4.5
vertex 96.0 34.5 4.5
endloop
endfacet
facet normal -1.71178298264134e-032 1.0 4.70571094020263e-015
outer loop
vertex 104.0 34.5 4.5
vertex 96.0 34.5 6.5
vertex 104.0 34.5 6.5
endloop
endfacet
facet normal -1.71178298264134e-032 1.0 4.70571094020263e-015
outer loop
vertex 64.0 34.5 4.5
vertex 136.0 34.5 2.0
vertex 64.0 34.5 2.0
endloop
endfacet
facet normal -1.71178298264134e-032 1.0 4.70571094020263e-015
outer loop
vertex 136.0 34.5 2.0
vertex 64.0 34.5 4.5
vertex 136.0 34.5 4.5
endloop
endfacet
facet normal -1.71178298264134e-032 1.0 4.70571094020263e-015
outer loop
vertex 136.0 34.5 4.5
vertex 64.0 34.5 4.5
vertex 96.0 34.5 4.5
endloop
endfacet
facet normal -1.71178298264134e-032 1.0 4.70571094020263e-015
outer loop
vertex 136.0 34.5 4.5
vertex 96.0 34.5 4.5
vertex 104.0 34.5 4.5
endloop
endfacet
facet normal 1.38682401872174e-030 1.0 4.11749707267731e-015
outer loop
vertex 66.0 7.5 2.00000000000003
vertex 134.0 7.5 4.5
vertex 134.0 7.5 2.0
endloop
endfacet
facet normal 1.38682401872174e-030 1.0 4.11749707267731e-015
outer loop
vertex 134.0 7.5 4.5
vertex 66.0 7.5 2.00000000000003
vertex 104.0 7.5 4.5
endloop
endfacet
facet normal 1.38682401872174e-030 1.0 4.11749707267731e-015
outer loop
vertex 104.0 7.5 4.5
vertex 66.0 7.5 2.00000000000003
vertex 96.0 7.5 4.5
endloop
endfacet
facet normal 1.38682401872174e-030 1.0 4.11749707267731e-015
outer loop
vertex 96.0 7.5 4.5
vertex 66.0 7.5 2.00000000000003
vertex 66.0 7.5 4.50000000000002
endloop
endfacet
facet normal 1.38682401872174e-030 1.0 4.11749707267731e-015
outer loop
vertex 96.0 7.5 4.5
vertex 104.0 7.49999999999998 6.5
vertex 104.0 7.5 4.5
endloop
endfacet
facet normal 1.38682401872174e-030 1.0 4.11749707267731e-015
outer loop
vertex 104.0 7.49999999999998 6.5
vertex 96.0 7.5 4.5
vertex 96.0 7.49999999999998 6.5
endloop
endfacet
facet normal -3.09412588133998e-018 -2.28893383323693e-018 1.0
outer loop
vertex -2.10400559931119e-017 -1.55647500660111e-017 8.8
vertex 2.0 2.0 8.8
vertex -2.10400559931119e-017 40.0 8.8
endloop
endfacet
facet normal -3.09412588133998e-018 -2.28893383323693e-018 1.0
outer loop
vertex 2.0 2.0 8.8
vertex -2.10400559931119e-017 -1.55647500660111e-017 8.8
vertex 200.0 -1.55647500660111e-017 8.8
endloop
endfacet
facet normal -3.09412588133998e-018 -2.28893383323693e-018 1.0
outer loop
vertex -2.10400559931119e-017 40.0 8.8
vertex 2.0 2.0 8.8
vertex 2.0 18.0 8.8
endloop
endfacet
facet normal -3.09412588133998e-018 -2.28893383323693e-018 1.0
outer loop
vertex 2.0 2.0 8.8
vertex 200.0 -1.55647500660111e-017 8.8
vertex 198.0 2.0 8.8
endloop
endfacet
facet normal -3.09412588133998e-018 -2.28893383323693e-018 1.0
outer loop
vertex 198.0 2.0 8.8
vertex 200.0 -1.55647500660111e-017 8.8
vertex 198.0 9.0 8.8
endloop
endfacet
facet normal -3.09412588133998e-018 -2.28893383323693e-018 1.0
outer loop
vertex 198.0 9.0 8.8
vertex 200.0 -1.55647500660111e-017 8.8
vertex 200.0 9.0 8.8
endloop
endfacet
facet normal -3.09412588133998e-018 -2.28893383323693e-018 1.0
outer loop
vertex 200.0 31.0 8.8
vertex 198.0 38.0 8.8
vertex 198.0 31.0 8.8
endloop
endfacet
facet normal -3.09412588133998e-018 -2.28893383323693e-018 1.0
outer loop
vertex -2.10400559931119e-017 40.0 8.8
vertex 2.0 38.0 8.8
vertex 200.0 40.0 8.8
endloop
endfacet
facet normal -3.09412588133998e-018 -2.28893383323693e-018 1.0
outer loop
vertex 2.0 38.0 8.8
vertex -2.10400559931119e-017 40.0 8.8
vertex 2.0 22.0 8.8
endloop
endfacet
facet normal -3.09412588133998e-018 -2.28893383323693e-018 1.0
outer loop
vertex 2.0 22.0 8.8
vertex -2.10400559931119e-017 40.0 8.8
vertex 2.0 18.0 8.8
endloop
endfacet
facet normal -3.09412588133998e-018 -2.28893383323693e-018 1.0
outer loop
vertex 200.0 40.0 8.8
vertex 2.0 38.0 8.8
vertex 198.0 38.0 8.8
endloop
endfacet
facet normal -3.09412588133998e-018 -2.28893383323693e-018 1.0
outer loop
vertex 200.0 40.0 8.8
vertex 198.0 38.0 8.8
vertex 200.0 31.0 8.8
endloop
endfacet
facet normal -1.0 0.0 -3.09412588133998e-018
outer loop
vertex 198.0 38.0 8.8
vertex 198.0 31.0 2.0
vertex 198.0 31.0 8.8
endloop
endfacet
facet normal -1.0 0.0 -3.09412588133998e-018
outer loop
vertex 198.0 31.0 2.0
vertex 198.0 38.0 8.8
vertex 198.0 38.0 2.0
endloop
endfacet
facet normal 0.0 -1.0 -2.28893383323693e-018
outer loop
vertex 200.0 31.0 8.8
vertex 198.0 31.0 2.0
vertex 200.0 31.0 2.0
endloop
endfacet
facet normal 0.0 -1.0 -2.28893383323693e-018
outer loop
vertex 198.0 31.0 2.0
vertex 200.0 31.0 8.8
vertex 198.0 31.0 8.8
endloop
endfacet
facet normal 8.06839586312254e-034 1.0 2.28893383323693e-018
outer loop
vertex 198.0 9.0 2.0
vertex 200.0 9.0 8.8
vertex 200.0 9.0 2.0
endloop
endfacet
facet normal 8.06839586312254e-034 1.0 2.28893383323693e-018
outer loop
vertex 200.0 9.0 8.8
vertex 198.0 9.0 2.0
vertex 198.0 9.0 8.8
endloop
endfacet
facet normal -1.0 0.0 -3.09412588133998e-018
outer loop
vertex 198.0 9.0 8.8
vertex 198.0 2.0 2.0
vertex 198.0 2.0 8.8
endloop
endfacet
facet normal -1.0 0.0 -3.09412588133998e-018
outer loop
vertex 198.0 2.0 2.0
vertex 198.0 9.0 8.8
vertex 198.0 9.0 2.0
endloop
endfacet
facet normal 0.0 1.0 2.28893383323693e-018
outer loop
vertex 2.0 2.0 8.8
vertex 198.0 2.0 2.0
vertex 2.0 2.0 2.0
endloop
endfacet
facet normal 0.0 1.0 2.28893383323693e-018
outer loop
vertex 198.0 2.0 2.0
vertex 2.0 2.0 8.8
vertex 198.0 2.0 8.8
endloop
endfacet
facet normal 1.0 1.10154940724527e-016 3.09412588133998e-018
outer loop
vertex 2.0 18.0 2.0
vertex 2.0 2.0 8.8
vertex 2.0 2.0 2.0
endloop
endfacet
facet normal 1.0 1.10154940724527e-016 3.09412588133998e-018
outer loop
vertex 2.0 2.0 8.8
vertex 2.0 18.0 2.0
vertex 2.0 18.0 8.8
endloop
endfacet
facet normal 1.0 -1.10154940724527e-016 3.09412588133998e-018
outer loop
vertex 2.0 38.0 2.0
vertex 2.0 22.0 8.8
vertex 2.0 22.0 2.0
endloop
endfacet
facet normal 1.0 -1.10154940724527e-016 3.09412588133998e-018
outer loop
vertex 2.0 22.0 8.8
vertex 2.0 38.0 2.0
vertex 2.0 38.0 8.8
endloop
endfacet
facet normal 0.0 -1.0 -2.28893383323693e-018
outer loop
vertex 198.0 38.0 8.8
vertex 2.0 38.0 2.0
vertex 198.0 38.0 2.0
endloop
endfacet
facet normal 0.0 -1.0 -2.28893383323693e-018
outer loop
vertex 2.0 38.0 2.0
vertex 198.0 38.0 8.8
vertex 2.0 38.0 8.8
endloop
endfacet
facet normal 0.0 0.0 -1.0
outer loop
vertex 150.561291875847 4.73819321448776 2.60000000000001
vertex 150.618531367015 4.22372957818108 2.60000000000001
vertex 150.556046410112 4.47719353534794 2.60000000000001
endloop
endfacet
facet normal 0.0 0.0 -1.0
outer loop
vertex 150.618531367015 4.22372957818108 2.60000000000001
vertex 150.561291875847 4.73819321448776 2.60000000000001
vertex 150.633910294398 4.98894191878953 2.60000000000001
endloop
endfacet
facet normal 0.0 0.0 -1.0
outer loop
vertex 150.618531367015 4.22372957818108 2.60000000000001
vertex 150.633910294398 4.98894191878953 2.60000000000001
vertex 150.744488500004 3.9950744927991 2.60000000000001
endloop
endfacet
facet normal 0.0 0.0 -1.0
outer loop
vertex 150.744488500004 3.9950744927991 2.60000000000001
vertex 150.633910294398 4.98894191878953 2.60000000000001
vertex 150.768952840548 5.2123515384369 2.60000000000001
endloop
endfacet
facet normal 0.0 0.0 -1.0
outer loop
vertex 150.744488500004 3.9950744927991 2.60000000000001
vertex 150.768952840548 5.2123515384369 2.60000000000001
vertex 150.92533403862 3.8068107454004 2.60000000000001
endloop
endfacet
facet normal 0.0 0.0 -1.0
outer loop
vertex 150.92533403862 3.8068107454004 2.60000000000001
vertex 150.768952840548 5.2123515384369 2.60000000000001
vertex 150.957216587947 5.39319707705276 2.60000000000001
endloop
endfacet
facet normal 0.0 0.0 -1.0
outer loop
vertex 150.92533403862 3.8068107454004 2.60000000000001
vertex 150.957216587947 5.39319707705276 2.60000000000001
vertex 151.148743658267 3.67176819924964 2.60000000000001
endloop
endfacet
facet normal 0.0 0.0 -1.0
outer loop
vertex 151.148743658267 3.67176819924964 2.60000000000001
vertex 150.957216587947 5.39319707705276 2.60000000000001
vertex 151.185871673329 5.51915421004183 2.60000000000001
endloop
endfacet
facet normal 0.0 0.0 -1.0
outer loop
vertex 151.148743658267 3.67176819924964 2.60000000000001
vertex 151.185871673329 5.51915421004183 2.60000000000001
vertex 151.399492362569 3.59914978069863 2.60000000000001
endloop
endfacet
facet normal 0.0 0.0 -1.0
outer loop
vertex 151.399492362569 3.59914978069863 2.60000000000001
vertex 151.185871673329 5.51915421004183 2.60000000000001
vertex 151.439335630496 5.58163916694489 2.60000000000001
endloop
endfacet
facet normal 0.0 0.0 -1.0
outer loop
vertex 151.399492362569 3.59914978069863 2.60000000000001
vertex 151.439335630496 5.58163916694489 2.60000000000001
vertex 151.660492041709 3.59390431496403 2.60000000000001
endloop
endfacet
facet normal 0.0 0.0 -1.0
outer loop
vertex 151.660492041709 3.59390431496403 2.60000000000001
vertex 151.439335630496 5.58163916694489 2.60000000000001
vertex 151.700335309636 5.57639370121029 2.60000000000001
endloop
endfacet
facet normal 0.0 0.0 -1.0
outer loop
vertex 151.660492041709 3.59390431496403 2.60000000000001
vertex 151.700335309636 5.57639370121029 2.60000000000001
vertex 151.913955998876 3.65638927186709 2.60000000000001
endloop
endfacet
facet normal 0.0 0.0 -1.0
outer loop
vertex 151.913955998876 3.65638927186709 2.60000000000001
vertex 151.700335309636 5.57639370121029 2.60000000000001
vertex 151.951084013938 5.50377528265928 2.60000000000001
endloop
endfacet
facet normal 0.0 0.0 -1.0
outer loop
vertex 151.913955998876 3.65638927186709 2.60000000000001
vertex 151.951084013938 5.50377528265928 2.60000000000001
vertex 152.142611084258 3.78234640485616 2.60000000000001
endloop
endfacet
facet normal 0.0 0.0 -1.0
outer loop
vertex 152.142611084258 3.78234640485616 2.60000000000001
vertex 151.951084013938 5.50377528265928 2.60000000000001
vertex 152.174493633585 5.36873273650852 2.60000000000001
endloop
endfacet
facet normal 0.0 0.0 -1.0
outer loop
vertex 152.142611084258 3.78234640485616 2.60000000000001
vertex 152.174493633585 5.36873273650852 2.60000000000001
vertex 152.330874831657 3.96319194347202 2.60000000000001
endloop
endfacet
facet normal 0.0 0.0 -1.0
outer loop
vertex 152.330874831657 3.96319194347202 2.60000000000001
vertex 152.174493633585 5.36873273650852 2.60000000000001
vertex 152.355339172201 5.18046898910982 2.60000000000001
endloop
endfacet
facet normal 0.0 0.0 -1.0
outer loop
vertex 152.330874831657 3.96319194347202 2.60000000000001
vertex 152.355339172201 5.18046898910982 2.60000000000001
vertex 152.465917377807 4.18660156311939 2.60000000000001
endloop
endfacet
facet normal 0.0 0.0 -1.0
outer loop
vertex 152.465917377807 4.18660156311939 2.60000000000001
vertex 152.355339172201 5.18046898910982 2.60000000000001
vertex 152.48129630519 4.95181390372784 2.60000000000001
endloop
endfacet
facet normal 0.0 0.0 -1.0
outer loop
vertex 152.465917377807 4.18660156311939 2.60000000000001
vertex 152.48129630519 4.95181390372784 2.60000000000001
vertex 152.538535796358 4.43735026742116 2.60000000000001
endloop
endfacet
facet normal 0.0 0.0 -1.0
outer loop
vertex 152.538535796358 4.43735026742116 2.60000000000001
vertex 152.48129630519 4.95181390372784 2.60000000000001
vertex 152.543781262093 4.69834994656098 2.60000000000001
endloop
endfacet
facet normal 0.0 0.0 1.0
outer loop
vertex 150.618531367015 4.22372957818108 6.50000000000001
vertex 150.561291875847 4.73819321448776 6.50000000000001
vertex 150.556046410112 4.47719353534794 6.50000000000001
endloop
endfacet
facet normal 0.0 0.0 1.0
outer loop
vertex 150.561291875847 4.73819321448776 6.50000000000001
vertex 150.618531367015 4.22372957818108 6.50000000000001
vertex 150.633910294398 4.98894191878953 6.50000000000001
endloop
endfacet
facet normal 0.0 0.0 1.0
outer loop
vertex 150.633910294398 4.98894191878953 6.50000000000001
vertex 150.618531367015 4.22372957818108 6.50000000000001
vertex 150.744488500004 3.9950744927991 6.50000000000001
endloop
endfacet
facet normal 0.0 0.0 1.0
outer loop
vertex 150.633910294398 4.98894191878953 6.50000000000001
vertex 150.744488500004 3.9950744927991 6.50000000000001
vertex 150.768952840548 5.2123515384369 6.50000000000001
endloop
endfacet
facet normal 0.0 0.0 1.0
outer loop
vertex 150.768952840548 5.2123515384369 6.50000000000001
vertex 150.744488500004 3.9950744927991 6.50000000000001
vertex 150.92533403862 3.8068107454004 6.50000000000001
endloop
endfacet
facet normal 0.0 0.0 1.0
outer loop
vertex 150.768952840548 5.2123515384369 6.50000000000001
vertex 150.92533403862 3.8068107454004 6.50000000000001
vertex 150.957216587947 5.39319707705276 6.50000000000001
endloop
endfacet
facet normal 0.0 0.0 1.0
outer loop
vertex 150.957216587947 5.39319707705276 6.50000000000001
vertex 150.92533403862 3.8068107454004 6.50000000000001
vertex 151.148743658267 3.67176819924964 6.50000000000001
endloop
endfacet
facet normal 0.0 0.0 1.0
outer loop
vertex 150.957216587947 5.39319707705276 6.50000000000001
vertex 151.148743658267 3.67176819924964 6.50000000000001
vertex 151.185871673329 5.51915421004183 6.50000000000001
endloop
endfacet
facet normal 0.0 0.0 1.0
outer loop
vertex 151.185871673329 5.51915421004183 6.50000000000001
vertex 151.148743658267 3.67176819924964 6.50000000000001
vertex 151.399492362569 3.59914978069863 6.50000000000001
endloop
endfacet
facet normal 0.0 0.0 1.0
outer loop
vertex 151.185871673329 5.51915421004183 6.50000000000001
vertex 151.399492362569 3.59914978069863 6.50000000000001
vertex 151.439335630496 5.58163916694489 6.50000000000001
endloop
endfacet
facet normal 0.0 0.0 1.0
outer loop
vertex 151.439335630496 5.58163916694489 6.50000000000001
vertex 151.399492362569 3.59914978069863 6.50000000000001
vertex 151.660492041709 3.59390431496403 6.50000000000001
endloop
endfacet
facet normal 0.0 0.0 1.0
outer loop
vertex 151.439335630496 5.58163916694489 6.50000000000001
vertex 151.660492041709 3.59390431496403 6.50000000000001
vertex 151.700335309636 5.57639370121029 6.50000000000001
endloop
endfacet
facet normal 0.0 0.0 1.0
outer loop
vertex 151.700335309636 5.57639370121029 6.50000000000001
vertex 151.660492041709 3.59390431496403 6.50000000000001
vertex 151.913955998876 3.65638927186709 6.50000000000001
endloop
endfacet
facet normal 0.0 0.0 1.0
outer loop
vertex 151.700335309636 5.57639370121029 6.50000000000001
vertex 151.913955998876 3.65638927186709 6.50000000000001
vertex 151.951084013938 5.50377528265928 6.50000000000001
endloop
endfacet
facet normal 0.0 0.0 1.0
outer loop
vertex 151.951084013938 5.50377528265928 6.50000000000001
vertex 151.913955998876 3.65638927186709 6.50000000000001
vertex 152.142611084258 3.78234640485616 6.50000000000001
endloop
endfacet
facet normal 0.0 0.0 1.0
outer loop
vertex 151.951084013938 5.50377528265928 6.50000000000001
vertex 152.142611084258 3.78234640485616 6.50000000000001
vertex 152.174493633585 5.36873273650852 6.50000000000001
endloop
endfacet
facet normal 0.0 0.0 1.0
outer loop
vertex 152.174493633585 5.36873273650852 6.50000000000001
vertex 152.142611084258 3.78234640485616 6.50000000000001
vertex 152.330874831657 3.96319194347202 6.50000000000001
endloop
endfacet
facet normal 0.0 0.0 1.0
outer loop
vertex 152.174493633585 5.36873273650852 6.50000000000001
vertex 152.330874831657 3.96319194347202 6.50000000000001
vertex 152.355339172201 5.18046898910982 6.50000000000001
endloop
endfacet
facet normal 0.0 0.0 1.0
outer loop
vertex 152.355339172201 5.18046898910982 6.50000000000001
vertex 152.330874831657 3.96319194347202 6.50000000000001
vertex 152.465917377807 4.18660156311939 6.50000000000001
endloop
endfacet
facet normal 0.0 0.0 1.0
outer loop
vertex 152.355339172201 5.18046898910982 6.50000000000001
vertex 152.465917377807 4.18660156311939 6.50000000000001
vertex 152.48129630519 4.95181390372784 6.50000000000001
endloop
endfacet
facet normal 0.0 0.0 1.0
outer loop
vertex 152.48129630519 4.95181390372784 6.50000000000001
vertex 152.465917377807 4.18660156311939 6.50000000000001
vertex 152.538535796358 4.43735026742116 6.50000000000001
endloop
endfacet
facet normal 0.0 0.0 1.0
outer loop
vertex 152.48129630519 4.95181390372784 6.50000000000001
vertex 152.538535796358 4.43735026742116 6.50000000000001
vertex 152.543781262093 4.69834994656098 6.50000000000001
endloop
endfacet
facet normal 0.150421473533301 0.988621960255825 0.0
outer loop
vertex 151.700335309636 5.57639370121029 6.50000000000001
vertex 151.951084013938 5.50377528265928 2.60000000000001
vertex 151.700335309636 5.57639370121029 2.60000000000001
endloop
endfacet
facet normal 0.401170177835068 0.916003541704823 0.0
outer loop
vertex 151.951084013938 5.50377528265928 2.60000000000001
vertex 151.700335309636 5.57639370121029 6.50000000000001
vertex 151.951084013938 5.50377528265928 6.50000000000001
endloop
endfacet
facet normal 0.401170177835068 0.916003541704823 0.0
outer loop
vertex 151.951084013938 5.50377528265928 6.50000000000001
vertex 152.174493633585 5.36873273650852 2.60000000000001
vertex 151.951084013938 5.50377528265928 2.60000000000001
endloop
endfacet
facet normal 0.624579797482436 0.780960995554067 0.0
outer loop
vertex 152.174493633585 5.36873273650852 2.60000000000001
vertex 151.951084013938 5.50377528265928 6.50000000000001
vertex 152.174493633585 5.36873273650852 6.50000000000001
endloop
endfacet
facet normal 0.624579797482436 0.780960995554067 0.0
outer loop
vertex 152.174493633585 5.36873273650852 2.60000000000001
vertex 152.355339172201 5.18046898910982 6.50000000000001
vertex 152.355339172201 5.18046898910982 2.60000000000001
endloop
endfacet
facet normal 0.805425336098302 0.59269724815536 0.0
outer loop
vertex 152.355339172201 5.18046898910982 6.50000000000001
vertex 152.174493633585 5.36873273650852 2.60000000000001
vertex 152.174493633585 5.36873273650852 6.50000000000001
endloop
endfacet
facet normal 0.805425336098302 0.59269724815536 0.0
outer loop
vertex 152.355339172201 5.18046898910982 2.60000000000001
vertex 152.48129630519 4.95181390372784 6.50000000000001
vertex 152.48129630519 4.95181390372784 2.60000000000001
endloop
endfacet
facet normal 0.931382469087367 0.36404216277338 0.0
outer loop
vertex 152.48129630519 4.95181390372784 6.50000000000001
vertex 152.355339172201 5.18046898910982 2.60000000000001
vertex 152.355339172201 5.18046898910982 6.50000000000001
endloop
endfacet
facet normal 0.931382469087367 0.36404216277338 0.0
outer loop
vertex 152.48129630519 4.95181390372784 2.60000000000001
vertex 152.543781262093 4.69834994656098 6.50000000000001
vertex 152.543781262093 4.69834994656098 2.60000000000001
endloop
endfacet
facet normal 0.99386742599043 0.11057820560652 0.0
outer loop
vertex 152.543781262093 4.69834994656098 6.50000000000001
vertex 152.48129630519 4.95181390372784 2.60000000000001
vertex 152.48129630519 4.95181390372784 6.50000000000001
endloop
endfacet
facet normal 0.99386742599043 0.11057820560652 0.0
outer loop
vertex 152.543781262093 4.69834994656098 2.60000000000001
vertex 152.538535796358 4.43735026742116 6.50000000000001
vertex 152.538535796358 4.43735026742116 2.60000000000001
endloop
endfacet
facet normal 0.988621960255828 -0.150421473533286 0.0
outer loop
vertex 152.538535796358 4.43735026742116 6.50000000000001
vertex 152.543781262093 4.69834994656098 2.60000000000001
vertex 152.543781262093 4.69834994656098 6.50000000000001
endloop
endfacet
facet normal 0.988621960255828 -0.150421473533286 0.0
outer loop
vertex 152.538535796358 4.43735026742116 2.60000000000001
vertex 152.465917377807 4.18660156311939 6.50000000000001
vertex 152.465917377807 4.18660156311939 2.60000000000001
endloop
endfacet
facet normal 0.91600354170483 -0.401170177835053 0.0
outer loop
vertex 152.465917377807 4.18660156311939 6.50000000000001
vertex 152.538535796358 4.43735026742116 2.60000000000001
vertex 152.538535796358 4.43735026742116 6.50000000000001
endloop
endfacet
facet normal 0.91600354170483 -0.401170177835053 0.0
outer loop
vertex 152.465917377807 4.18660156311939 2.60000000000001
vertex 152.330874831657 3.96319194347202 6.50000000000001
vertex 152.330874831657 3.96319194347202 2.60000000000001
endloop
endfacet
facet normal 0.780960995554063 -0.62457979748244 0.0
outer loop
vertex 152.330874831657 3.96319194347202 6.50000000000001
vertex 152.465917377807 4.18660156311939 2.60000000000001
vertex 152.465917377807 4.18660156311939 6.50000000000001
endloop
endfacet
facet normal 0.780960995554063 -0.62457979748244 0.0
outer loop
vertex 152.330874831657 3.96319194347202 6.50000000000001
vertex 152.142611084258 3.78234640485616 2.60000000000001
vertex 152.330874831657 3.96319194347202 2.60000000000001
endloop
endfacet
facet normal 0.59269724815536 -0.805425336098302 0.0
outer loop
vertex 152.142611084258 3.78234640485616 2.60000000000001
vertex 152.330874831657 3.96319194347202 6.50000000000001
vertex 152.142611084258 3.78234640485616 6.50000000000001
endloop
endfacet
facet normal 0.59269724815536 -0.805425336098302 0.0
outer loop
vertex 152.142611084258 3.78234640485616 6.50000000000001
vertex 151.913955998876 3.65638927186709 2.60000000000001
vertex 152.142611084258 3.78234640485616 2.60000000000001
endloop
endfacet
facet normal 0.364042162773385 -0.931382469087365 0.0
outer loop
vertex 151.913955998876 3.65638927186709 2.60000000000001
vertex 152.142611084258 3.78234640485616 6.50000000000001
vertex 151.913955998876 3.65638927186709 6.50000000000001
endloop
endfacet
facet normal 0.364042162773385 -0.931382469087365 0.0
outer loop
vertex 151.913955998876 3.65638927186709 6.50000000000001
vertex 151.660492041709 3.59390431496403 2.60000000000001
vertex 151.913955998876 3.65638927186709 2.60000000000001
endloop
endfacet
facet normal 0.110578205606524 -0.993867425990429 0.0
outer loop
vertex 151.660492041709 3.59390431496403 2.60000000000001
vertex 151.913955998876 3.65638927186709 6.50000000000001
vertex 151.660492041709 3.59390431496403 6.50000000000001
endloop
endfacet
facet normal 0.110578205606524 -0.993867425990429 0.0
outer loop
vertex 151.660492041709 3.59390431496403 6.50000000000001
vertex 151.399492362569 3.59914978069863 2.60000000000001
vertex 151.660492041709 3.59390431496403 2.60000000000001
endloop
endfacet
facet normal -0.150421473533301 -0.988621960255825 0.0
outer loop
vertex 151.399492362569 3.59914978069863 2.60000000000001
vertex 151.660492041709 3.59390431496403 6.50000000000001
vertex 151.399492362569 3.59914978069863 6.50000000000001
endloop
endfacet
facet normal -0.150421473533301 -0.988621960255825 0.0
outer loop
vertex 151.399492362569 3.59914978069863 6.50000000000001
vertex 151.148743658267 3.67176819924964 2.60000000000001
vertex 151.399492362569 3.59914978069863 2.60000000000001
endloop
endfacet
facet normal -0.401170177835068 -0.916003541704823 0.0
outer loop
vertex 151.148743658267 3.67176819924964 2.60000000000001
vertex 151.399492362569 3.59914978069863 6.50000000000001
vertex 151.148743658267 3.67176819924964 6.50000000000001
endloop
endfacet
facet normal -0.401170177835068 -0.916003541704823 0.0
outer loop
vertex 151.148743658267 3.67176819924964 6.50000000000001
vertex 150.92533403862 3.8068107454004 2.60000000000001
vertex 151.148743658267 3.67176819924964 2.60000000000001
endloop
endfacet
facet normal -0.624579797482436 -0.780960995554067 0.0
outer loop
vertex 150.92533403862 3.8068107454004 2.60000000000001
vertex 151.148743658267 3.67176819924964 6.50000000000001
vertex 150.92533403862 3.8068107454004 6.50000000000001
endloop
endfacet
facet normal -0.805425336098302 -0.59269724815536 0.0
outer loop
vertex 150.744488500004 3.9950744927991 6.50000000000001
vertex 150.92533403862 3.8068107454004 2.60000000000001
vertex 150.92533403862 3.8068107454004 6.50000000000001
endloop
endfacet
facet normal -0.624579797482436 -0.780960995554067 0.0
outer loop
vertex 150.92533403862 3.8068107454004 2.60000000000001
vertex 150.744488500004 3.9950744927991 6.50000000000001
vertex 150.744488500004 3.9950744927991 2.60000000000001
endloop
endfacet
facet normal -0.931382469087367 -0.36404216277338 0.0
outer loop
vertex 150.618531367015 4.22372957818108 6.50000000000001
vertex 150.744488500004 3.9950744927991 2.60000000000001
vertex 150.744488500004 3.9950744927991 6.50000000000001
endloop
endfacet
facet normal -0.805425336098302 -0.59269724815536 0.0
outer loop
vertex 150.744488500004 3.9950744927991 2.60000000000001
vertex 150.618531367015 4.22372957818108 6.50000000000001
vertex 150.618531367015 4.22372957818108 2.60000000000001
endloop
endfacet
facet normal -0.99386742599043 -0.11057820560652 0.0
outer loop
vertex 150.556046410112 4.47719353534794 6.50000000000001
vertex 150.618531367015 4.22372957818108 2.60000000000001
vertex 150.618531367015 4.22372957818108 6.50000000000001
endloop
endfacet
facet normal -0.931382469087367 -0.36404216277338 0.0
outer loop
vertex 150.618531367015 4.22372957818108 2.60000000000001
vertex 150.556046410112 4.47719353534794 6.50000000000001
vertex 150.556046410112 4.47719353534794 2.60000000000001
endloop
endfacet
facet normal -0.988621960255827 0.150421473533286 0.0
outer loop
vertex 150.561291875847 4.73819321448776 6.50000000000001
vertex 150.556046410112 4.47719353534794 2.60000000000001
vertex 150.556046410112 4.47719353534794 6.50000000000001
endloop
endfacet
facet normal -0.99386742599043 -0.11057820560652 0.0
outer loop
vertex 150.556046410112 4.47719353534794 2.60000000000001
vertex 150.561291875847 4.73819321448776 6.50000000000001
vertex 150.561291875847 4.73819321448776 2.60000000000001
endloop
endfacet
facet normal -0.91600354170483 0.401170177835053 0.0
outer loop
vertex 150.633910294398 4.98894191878953 6.50000000000001
vertex 150.561291875847 4.73819321448776 2.60000000000001
vertex 150.561291875847 4.73819321448776 6.50000000000001
endloop
endfacet
facet normal -0.988621960255827 0.150421473533286 0.0
outer loop
vertex 150.561291875847 4.73819321448776 2.60000000000001
vertex 150.633910294398 4.98894191878953 6.50000000000001
vertex 150.633910294398 4.98894191878953 2.60000000000001
endloop
endfacet
facet normal -0.780960995554063 0.62457979748244 0.0
outer loop
vertex 150.768952840548 5.2123515384369 6.50000000000001
vertex 150.633910294398 4.98894191878953 2.60000000000001
vertex 150.633910294398 4.98894191878953 6.50000000000001
endloop
endfacet
facet normal -0.91600354170483 0.401170177835053 0.0
outer loop
vertex 150.633910294398 4.98894191878953 2.60000000000001
vertex 150.768952840548 5.2123515384369 6.50000000000001
vertex 150.768952840548 5.2123515384369 2.60000000000001
endloop
endfacet
facet normal -0.780960995554063 0.62457979748244 0.0
outer loop
vertex 150.768952840548 5.2123515384369 6.50000000000001
vertex 150.957216587947 5.39319707705276 2.60000000000001
vertex 150.768952840548 5.2123515384369 2.60000000000001
endloop
endfacet
facet normal -0.59269724815536 0.805425336098302 0.0
outer loop
vertex 150.957216587947 5.39319707705276 2.60000000000001
vertex 150.768952840548 5.2123515384369 6.50000000000001
vertex 150.957216587947 5.39319707705276 6.50000000000001
endloop
endfacet
facet normal -0.59269724815536 0.805425336098302 0.0
outer loop
vertex 150.957216587947 5.39319707705276 6.50000000000001
vertex 151.185871673329 5.51915421004183 2.60000000000001
vertex 150.957216587947 5.39319707705276 2.60000000000001
endloop
endfacet
facet normal -0.364042162773385 0.931382469087365 0.0
outer loop
vertex 151.185871673329 5.51915421004183 2.60000000000001
vertex 150.957216587947 5.39319707705276 6.50000000000001
vertex 151.185871673329 5.51915421004183 6.50000000000001
endloop
endfacet
facet normal -0.364042162773385 0.931382469087365 0.0
outer loop
vertex 151.185871673329 5.51915421004183 6.50000000000001
vertex 151.439335630496 5.58163916694489 2.60000000000001
vertex 151.185871673329 5.51915421004183 2.60000000000001
endloop
endfacet
facet normal -0.110578205606524 0.993867425990429 0.0
outer loop
vertex 151.439335630496 5.58163916694489 2.60000000000001
vertex 151.185871673329 5.51915421004183 6.50000000000001
vertex 151.439335630496 5.58163916694489 6.50000000000001
endloop
endfacet
facet normal -0.110578205606524 0.993867425990429 0.0
outer loop
vertex 151.439335630496 5.58163916694489 6.50000000000001
vertex 151.700335309636 5.57639370121029 2.60000000000001
vertex 151.439335630496 5.58163916694489 2.60000000000001
endloop
endfacet
facet normal 0.150421473533301 0.988621960255825 0.0
outer loop
vertex 151.700335309636 5.57639370121029 2.60000000000001
vertex 151.439335630496 5.58163916694489 6.50000000000001
vertex 151.700335309636 5.57639370121029 6.50000000000001
endloop
endfacet
facet normal -6.78267038591062e-017 3.83847972573946e-016 1.0
outer loop
vertex 48.6313872667898 4.4033606532448 6.50000000000002
vertex 48.6086201332425 4.92049782079434 6.50000000000002
vertex 48.5859625001645 4.66043056202237 6.50000000000002
endloop
endfacet
facet normal -6.78267038591062e-017 3.83847972573946e-016 1.0
outer loop
vertex 48.6086201332425 4.92049782079434 6.50000000000002
vertex 48.6313872667898 4.4033606532448 6.50000000000002
vertex 48.6978160857728 5.16583927565689 6.50000000000002
endloop
endfacet
facet normal -6.78267038591062e-017 3.83847972573946e-016 1.0
outer loop
vertex 48.6978160857728 5.16583927565689 6.50000000000002
vertex 48.6313872667898 4.4033606532448 6.50000000000002
vertex 48.7417988103407 4.16680698391673 6.50000000000002
endloop
endfacet
facet normal -6.78267038591062e-017 3.83847972573946e-016 1.0
outer loop
vertex 48.6978160857728 5.16583927565689 6.50000000000002
vertex 48.7417988103407 4.16680698391673 6.50000000000002
vertex 48.8474718009939 5.37973531190703 6.50000000000002
endloop
endfacet
facet normal -6.78267038591062e-017 3.83847972573946e-016 1.0
outer loop
vertex 48.8474718009939 5.37973531190703 6.50000000000002
vertex 48.7417988103407 4.16680698391673 6.50000000000002
vertex 48.9096727665879 3.96689029567943 6.50000000000002
endloop
endfacet
facet normal -6.78267038591062e-017 3.83847972573946e-016 1.0
outer loop
vertex 48.8474718009939 5.37973531190703 6.50000000000002
vertex 48.9096727665879 3.96689029567943 6.50000000000002
vertex 49.0473884892312 5.54760926815425 6.50000000000002
endloop
endfacet
facet normal -6.78267038591062e-017 3.83847972573946e-016 1.0
outer loop
vertex 49.0473884892312 5.54760926815425 6.50000000000002
vertex 48.9096727665879 3.96689029567943 6.50000000000002
vertex 49.123568802838 3.81723458045833 6.50000000000002
endloop
endfacet
facet normal -6.78267038591062e-017 3.83847972573946e-016 1.0
outer loop
vertex 49.0473884892312 5.54760926815425 6.50000000000002
vertex 49.123568802838 3.81723458045833 6.50000000000002
vertex 49.2839421585593 5.65802081170513 6.50000000000002
endloop
endfacet
facet normal -6.78267038591062e-017 3.83847972573946e-016 1.0
outer loop
vertex 49.2839421585593 5.65802081170513 6.50000000000002
vertex 49.123568802838 3.81723458045833 6.50000000000002
vertex 49.3689102577006 3.72803862792798 6.50000000000002
endloop
endfacet
facet normal -6.78267038591062e-017 3.83847972573946e-016 1.0
outer loop
vertex 49.2839421585593 5.65802081170513 6.50000000000002
vertex 49.3689102577006 3.72803862792798 6.50000000000002
vertex 49.5410120673369 5.70344557833037 6.50000000000002
endloop
endfacet
facet normal -6.78267038591062e-017 3.83847972573946e-016 1.0
outer loop
vertex 49.5410120673369 5.70344557833037 6.50000000000002
vertex 49.3689102577006 3.72803862792798 6.50000000000002
vertex 49.6289775164726 3.70538099485006 6.50000000000002
endloop
endfacet
facet normal -6.78267038591062e-017 3.83847972573946e-016 1.0
outer loop
vertex 49.5410120673369 5.70344557833037 6.50000000000002
vertex 49.6289775164726 3.70538099485006 6.50000000000002
vertex 49.8010793261088 5.68078794525244 6.50000000000002
endloop
endfacet
facet normal -6.78267038591062e-017 3.83847972573946e-016 1.0
outer loop
vertex 49.8010793261088 5.68078794525244 6.50000000000002
vertex 49.6289775164726 3.70538099485006 6.50000000000002
vertex 49.8860474252501 3.7508057614753 6.50000000000002
endloop
endfacet
facet normal -6.78267038591062e-017 3.83847972573946e-016 1.0
outer loop
vertex 49.8010793261088 5.68078794525244 6.50000000000002
vertex 49.8860474252501 3.7508057614753 6.50000000000002
vertex 50.0464207809714 5.5915919927221 6.50000000000002
endloop
endfacet
facet normal -6.78267038591062e-017 3.83847972573946e-016 1.0
outer loop
vertex 50.0464207809714 5.5915919927221 6.50000000000002
vertex 49.8860474252501 3.7508057614753 6.50000000000002
vertex 50.1226010945782 3.86121730502617 6.50000000000002
endloop
endfacet
facet normal -6.78267038591062e-017 3.83847972573946e-016 1.0
outer loop
vertex 50.0464207809714 5.5915919927221 6.50000000000002
vertex 50.1226010945782 3.86121730502617 6.50000000000002
vertex 50.2603168172215 5.441936277501 6.50000000000002
endloop
endfacet
facet normal -6.78267038591062e-017 3.83847972573946e-016 1.0
outer loop
vertex 50.2603168172215 5.441936277501 6.50000000000002
vertex 50.1226010945782 3.86121730502617 6.50000000000002
vertex 50.3225177828155 4.0290912612734 6.50000000000002
endloop
endfacet
facet normal -6.78267038591062e-017 3.83847972573946e-016 1.0
outer loop
vertex 50.2603168172215 5.441936277501 6.50000000000002
vertex 50.3225177828155 4.0290912612734 6.50000000000002
vertex 50.4281907734687 5.2420195892637 6.50000000000002
endloop
endfacet
facet normal -6.78267038591062e-017 3.83847972573946e-016 1.0
outer loop
vertex 50.4281907734687 5.2420195892637 6.50000000000002
vertex 50.3225177828155 4.0290912612734 6.50000000000002
vertex 50.4721734980366 4.24298729752354 6.50000000000002
endloop
endfacet
facet normal -6.78267038591062e-017 3.83847972573946e-016 1.0
outer loop
vertex 50.4281907734687 5.2420195892637 6.50000000000002
vertex 50.4721734980366 4.24298729752354 6.50000000000002
vertex 50.5386023170196 5.00546591993562 6.50000000000002
endloop
endfacet
facet normal -6.78267038591062e-017 3.83847972573946e-016 1.0
outer loop
vertex 50.5386023170196 5.00546591993562 6.50000000000002
vertex 50.4721734980366 4.24298729752354 6.50000000000002
vertex 50.5613694505669 4.48832875238608 6.50000000000002
endloop
endfacet
facet normal -6.78267038591062e-017 3.83847972573946e-016 1.0
outer loop
vertex 50.5386023170196 5.00546591993562 6.50000000000002
vertex 50.5613694505669 4.48832875238608 6.50000000000002
vertex 50.5840270836449 4.74839601115806 6.50000000000002
endloop
endfacet
facet normal -0.0439827245678452 0.999032291740157 -3.86459722954542e-016
outer loop
vertex 49.5410120673369 5.70344557833037 6.50000000000002
vertex 49.8010793261088 5.68078794525244 2.0
vertex 49.5410120673369 5.70344557833037 2.0
endloop
endfacet
facet normal 0.216084534204129 0.976374658662229 -3.60123131490079e-016
outer loop
vertex 49.8010793261088 5.68078794525244 2.0
vertex 49.5410120673369 5.70344557833037 6.50000000000002
vertex 49.8010793261088 5.68078794525244 6.50000000000002
endloop
endfacet
facet normal -0.301052633345412 0.953607525114915 -3.86459722954541e-016
outer loop
vertex 49.2839421585593 5.65802081170513 6.50000000000002
vertex 49.5410120673369 5.70344557833037 2.0
vertex 49.2839421585593 5.65802081170513 2.0
endloop
endfacet
facet normal -0.0439827245678452 0.999032291740157 -3.86459722954542e-016
outer loop
vertex 49.5410120673369 5.70344557833037 2.0
vertex 49.2839421585593 5.65802081170513 6.50000000000002
vertex 49.5410120673369 5.70344557833037 6.50000000000002
endloop
endfacet
facet normal -0.537606302673487 0.843195981564039 -3.60123131490078e-016
outer loop
vertex 49.0473884892312 5.54760926815425 6.50000000000002
vertex 49.2839421585593 5.65802081170513 2.0
vertex 49.0473884892312 5.54760926815425 2.0
endloop
endfacet
facet normal -0.301052633345412 0.953607525114915 -3.86459722954541e-016
outer loop
vertex 49.2839421585593 5.65802081170513 2.0
vertex 49.0473884892312 5.54760926815425 6.50000000000002
vertex 49.2839421585593 5.65802081170513 6.50000000000002
endloop
endfacet
facet normal -0.737522990910782 0.675322025316823 -3.09244743746181e-016
outer loop
vertex 48.8474718009939 5.37973531190703 6.50000000000002
vertex 49.0473884892312 5.54760926815425 2.0
vertex 48.8474718009939 5.37973531190703 2.0
endloop
endfacet
facet normal -0.537606302673487 0.843195981564039 -3.60123131490078e-016
outer loop
vertex 49.0473884892312 5.54760926815425 2.0
vertex 48.8474718009939 5.37973531190703 6.50000000000002
vertex 49.0473884892312 5.54760926815425 6.50000000000002
endloop
endfacet
facet normal -0.737522990910782 0.675322025316823 -3.09244743746181e-016
outer loop
vertex 48.8474718009939 5.37973531190703 6.50000000000002
vertex 48.6978160857728 5.16583927565689 2.0
vertex 48.6978160857728 5.16583927565689 6.50000000000002
endloop
endfacet
facet normal -0.887178706131884 0.461425989066671 -2.37291837767082e-016
outer loop
vertex 48.6978160857728 5.16583927565689 2.0
vertex 48.8474718009939 5.37973531190703 6.50000000000002
vertex 48.8474718009939 5.37973531190703 2.0
endloop
endfacet
facet normal -0.887178706131884 0.461425989066671 -2.37291837767082e-016
outer loop
vertex 48.6978160857728 5.16583927565689 6.50000000000002
vertex 48.6086201332425 4.92049782079434 2.0
vertex 48.6086201332425 4.92049782079434 6.50000000000002
endloop
endfacet
facet normal -0.976374658662229 0.216084534204131 -1.4916788518746e-016
outer loop
vertex 48.6086201332425 4.92049782079434 2.0
vertex 48.6978160857728 5.16583927565689 6.50000000000002
vertex 48.6978160857728 5.16583927565689 2.0
endloop
endfacet
facet normal -0.976374658662229 0.216084534204131 -1.4916788518746e-016
outer loop
vertex 48.6086201332425 4.92049782079434 6.50000000000002
vertex 48.5859625001645 4.66043056202237 2.0
vertex 48.5859625001645 4.66043056202237 6.50000000000002
endloop
endfacet
facet normal -0.999032291740157 -0.0439827245678469 -5.08783877438975e-017
outer loop
vertex 48.5859625001645 4.66043056202237 2.0
vertex 48.6086201332425 4.92049782079434 6.50000000000002
vertex 48.6086201332425 4.92049782079434 2.0
endloop
endfacet
facet normal -0.999032291740157 -0.0439827245678469 -5.08783877438975e-017
outer loop
vertex 48.5859625001645 4.66043056202237 6.50000000000002
vertex 48.6313872667898 4.4033606532448 2.0
vertex 48.6313872667898 4.4033606532448 6.50000000000002
endloop
endfacet
facet normal -0.953607525114914 -0.301052633345414 5.08783877439002e-017
outer loop
vertex 48.6313872667898 4.4033606532448 2.0
vertex 48.5859625001645 4.66043056202237 6.50000000000002
vertex 48.5859625001645 4.66043056202237 2.0
endloop
endfacet
facet normal -0.953607525114914 -0.301052633345414 5.08783877439002e-017
outer loop
vertex 48.6313872667898 4.4033606532448 6.50000000000002
vertex 48.7417988103407 4.16680698391673 2.0
vertex 48.7417988103407 4.16680698391673 6.50000000000002
endloop
endfacet
facet normal -0.843195981564042 -0.537606302673483 1.49167885187459e-016
outer loop
vertex 48.7417988103407 4.16680698391673 2.0
vertex 48.6313872667898 4.4033606532448 6.50000000000002
vertex 48.6313872667898 4.4033606532448 2.0
endloop
endfacet
facet normal -0.843195981564042 -0.537606302673483 1.49167885187459e-016
outer loop
vertex 48.7417988103407 4.16680698391673 6.50000000000002
vertex 48.9096727665879 3.96689029567943 2.0
vertex 48.9096727665879 3.96689029567943 6.50000000000002
endloop
endfacet
facet normal -0.675322025316822 -0.737522990910782 2.3729183776708e-016
outer loop
vertex 48.9096727665879 3.96689029567943 2.0
vertex 48.7417988103407 4.16680698391673 6.50000000000002
vertex 48.7417988103407 4.16680698391673 2.0
endloop
endfacet
facet normal -0.461425989066673 -0.887178706131883 3.0924474374618e-016
outer loop
vertex 49.123568802838 3.81723458045833 6.50000000000002
vertex 48.9096727665879 3.96689029567943 2.0
vertex 49.123568802838 3.81723458045833 2.0
endloop
endfacet
facet normal -0.675322025316822 -0.737522990910782 2.3729183776708e-016
outer loop
vertex 48.9096727665879 3.96689029567943 2.0
vertex 49.123568802838 3.81723458045833 6.50000000000002
vertex 48.9096727665879 3.96689029567943 6.50000000000002
endloop
endfacet
facet normal -0.21608453420413 -0.976374658662229 3.60123131490079e-016
outer loop
vertex 49.3689102577006 3.72803862792798 6.50000000000002
vertex 49.123568802838 3.81723458045833 2.0
vertex 49.3689102577006 3.72803862792798 2.0
endloop
endfacet
facet normal -0.461425989066673 -0.887178706131883 3.0924474374618e-016
outer loop
vertex 49.123568802838 3.81723458045833 2.0
vertex 49.3689102577006 3.72803862792798 6.50000000000002
vertex 49.123568802838 3.81723458045833 6.50000000000002
endloop
endfacet
facet normal 0.0439827245678452 -0.999032291740157 3.86459722954542e-016
outer loop
vertex 49.6289775164726 3.70538099485006 6.50000000000002
vertex 49.3689102577006 3.72803862792798 2.0
vertex 49.6289775164726 3.70538099485006 2.0
endloop
endfacet
facet normal -0.21608453420413 -0.976374658662229 3.60123131490079e-016
outer loop
vertex 49.3689102577006 3.72803862792798 2.0
vertex 49.6289775164726 3.70538099485006 6.50000000000002
vertex 49.3689102577006 3.72803862792798 6.50000000000002
endloop
endfacet
facet normal 0.301052633345412 -0.953607525114915 3.86459722954541e-016
outer loop
vertex 49.8860474252501 3.7508057614753 6.50000000000002
vertex 49.6289775164726 3.70538099485006 2.0
vertex 49.8860474252501 3.7508057614753 2.0
endloop
endfacet
facet normal 0.0439827245678452 -0.999032291740157 3.86459722954542e-016
outer loop
vertex 49.6289775164726 3.70538099485006 2.0
vertex 49.8860474252501 3.7508057614753 6.50000000000002
vertex 49.6289775164726 3.70538099485006 6.50000000000002
endloop
endfacet
facet normal 0.537606302673488 -0.843195981564039 3.60123131490078e-016
outer loop
vertex 50.1226010945782 3.86121730502617 6.50000000000002
vertex 49.8860474252501 3.7508057614753 2.0
vertex 50.1226010945782 3.86121730502617 2.0
endloop
endfacet
facet normal 0.301052633345412 -0.953607525114915 3.86459722954541e-016
outer loop
vertex 49.8860474252501 3.7508057614753 2.0
vertex 50.1226010945782 3.86121730502617 6.50000000000002
vertex 49.8860474252501 3.7508057614753 6.50000000000002
endloop
endfacet
facet normal 0.737522990910782 -0.675322025316822 3.09244743746181e-016
outer loop
vertex 50.3225177828155 4.0290912612734 6.50000000000002
vertex 50.1226010945782 3.86121730502617 2.0
vertex 50.3225177828155 4.0290912612734 2.0
endloop
endfacet
facet normal 0.537606302673488 -0.843195981564039 3.60123131490078e-016
outer loop
vertex 50.1226010945782 3.86121730502617 2.0
vertex 50.3225177828155 4.0290912612734 6.50000000000002
vertex 50.1226010945782 3.86121730502617 6.50000000000002
endloop
endfacet
facet normal 0.887178706131884 -0.461425989066672 2.37291837767082e-016
outer loop
vertex 50.4721734980366 4.24298729752354 2.0
vertex 50.3225177828155 4.0290912612734 6.50000000000002
vertex 50.3225177828155 4.0290912612734 2.0
endloop
endfacet
facet normal 0.737522990910782 -0.675322025316822 3.09244743746181e-016
outer loop
vertex 50.3225177828155 4.0290912612734 6.50000000000002
vertex 50.4721734980366 4.24298729752354 2.0
vertex 50.4721734980366 4.24298729752354 6.50000000000002
endloop
endfacet
facet normal 0.976374658662229 -0.21608453420413 1.4916788518746e-016
outer loop
vertex 50.5613694505669 4.48832875238608 2.0
vertex 50.4721734980366 4.24298729752354 6.50000000000002
vertex 50.4721734980366 4.24298729752354 2.0
endloop
endfacet
facet normal 0.887178706131884 -0.461425989066672 2.37291837767082e-016
outer loop
vertex 50.4721734980366 4.24298729752354 6.50000000000002
vertex 50.5613694505669 4.48832875238608 2.0
vertex 50.5613694505669 4.48832875238608 6.50000000000002
endloop
endfacet
facet normal 0.999032291740157 0.0439827245678467 5.08783877438975e-017
outer loop
vertex 50.5840270836449 4.74839601115806 2.0
vertex 50.5613694505669 4.48832875238608 6.50000000000002
vertex 50.5613694505669 4.48832875238608 2.0
endloop
endfacet
facet normal 0.976374658662229 -0.216084534204131 1.4916788518746e-016
outer loop
vertex 50.5613694505669 4.48832875238608 6.50000000000002
vertex 50.5840270836449 4.74839601115806 2.0
vertex 50.5840270836449 4.74839601115806 6.50000000000002
endloop
endfacet
facet normal 0.953607525114914 0.301052633345414 -5.08783877439e-017
outer loop
vertex 50.5386023170196 5.00546591993562 2.0
vertex 50.5840270836449 4.74839601115806 6.50000000000002
vertex 50.5840270836449 4.74839601115806 2.0
endloop
endfacet
facet normal 0.999032291740157 0.0439827245678467 5.08783877438975e-017
outer loop
vertex 50.5840270836449 4.74839601115806 6.50000000000002
vertex 50.5386023170196 5.00546591993562 2.0
vertex 50.5386023170196 5.00546591993562 6.50000000000002
endloop
endfacet
facet normal 0.843195981564042 0.537606302673483 -1.49167885187459e-016
outer loop
vertex 50.4281907734687 5.2420195892637 2.0
vertex 50.5386023170196 5.00546591993562 6.50000000000002
vertex 50.5386023170196 5.00546591993562 2.0
endloop
endfacet
facet normal 0.953607525114914 0.301052633345414 -5.08783877439e-017
outer loop
vertex 50.5386023170196 5.00546591993562 6.50000000000002
vertex 50.4281907734687 5.2420195892637 2.0
vertex 50.4281907734687 5.2420195892637 6.50000000000002
endloop
endfacet
facet normal 0.675322025316822 0.737522990910782 -2.3729183776708e-016
outer loop
vertex 50.2603168172215 5.441936277501 2.0
vertex 50.4281907734687 5.2420195892637 6.50000000000002
vertex 50.4281907734687 5.2420195892637 2.0
endloop
endfacet
facet normal 0.843195981564041 0.537606302673483 -1.49167885187459e-016
outer loop
vertex 50.4281907734687 5.2420195892637 6.50000000000002
vertex 50.2603168172215 5.441936277501 2.0
vertex 50.2603168172215 5.441936277501 6.50000000000002
endloop
endfacet
facet normal 0.461425989066673 0.887178706131884 -3.09244743746179e-016
outer loop
vertex 50.0464207809714 5.5915919927221 6.50000000000002
vertex 50.2603168172215 5.441936277501 2.0
vertex 50.0464207809714 5.5915919927221 2.0
endloop
endfacet
facet normal 0.675322025316822 0.737522990910782 -2.3729183776708e-016
outer loop
vertex 50.2603168172215 5.441936277501 2.0
vertex 50.0464207809714 5.5915919927221 6.50000000000002
vertex 50.2603168172215 5.441936277501 6.50000000000002
endloop
endfacet
facet normal 0.216084534204129 0.976374658662229 -3.60123131490079e-016
outer loop
vertex 49.8010793261088 5.68078794525244 6.50000000000002
vertex 50.0464207809714 5.5915919927221 2.0
vertex 49.8010793261088 5.68078794525244 2.0
endloop
endfacet
facet normal 0.461425989066673 0.887178706131884 -3.09244743746179e-016
outer loop
vertex 50.0464207809714 5.5915919927221 2.0
vertex 49.8010793261088 5.68078794525244 6.50000000000002
vertex 50.0464207809714 5.5915919927221 6.50000000000002
endloop
endfacet
endsolid Base
