solid Cuchilla
facet normal 0.0 -1.0 0.0
outer loop
vertex 208.333333333333 10.8 2.8
vertex 0.0 10.8 2.0
vertex 208.333333333333 10.8 2.0
endloop
endfacet
facet normal 0.0 -1.0 0.0
outer loop
vertex 0.0 10.8 2.0
vertex 208.333333333333 10.8 2.8
vertex 0.0 10.8 2.8
endloop
endfacet
facet normal 0.0 -1.0 0.0
outer loop
vertex 18.5 -2.25597318603832e-14 2.0
vertex 11.5 0.0 0.0
vertex 18.5 0.0 0.0
endloop
endfacet
facet normal 0.0 -1.0 0.0
outer loop
vertex 11.5 0.0 0.0
vertex 18.5 -2.25597318603832e-14 2.0
vertex 11.5 -2.25597318603832e-14 2.0
endloop
endfacet
facet normal 0.0 0.0 -1.0
outer loop
vertex 10.5 23.4 0.0
vertex 0.0 1.8 0.0
vertex 0.0 23.4 0.0
endloop
endfacet
facet normal 0.0 0.0 -1.0
outer loop
vertex 0.0 1.8 0.0
vertex 10.5 23.4 0.0
vertex 10.5 1.8 0.0
endloop
endfacet
facet normal 0.0 0.0 -1.0
outer loop
vertex 10.5 1.8 0.0
vertex 10.5 23.4 0.0
vertex 11.5 25.2 0.0
endloop
endfacet
facet normal 0.0 0.0 -1.0
outer loop
vertex 10.5 1.8 0.0
vertex 11.5 25.2 0.0
vertex 11.5 0.0 0.0
endloop
endfacet
facet normal 0.0 0.0 -1.0
outer loop
vertex 11.5 0.0 0.0
vertex 11.5 25.2 0.0
vertex 18.5 25.2 0.0
endloop
endfacet
facet normal 0.0 0.0 -1.0
outer loop
vertex 11.5 0.0 0.0
vertex 18.5 25.2 0.0
vertex 18.5 0.0 0.0
endloop
endfacet
facet normal 0.0 0.0 -1.0
outer loop
vertex 18.5 0.0 0.0
vertex 18.5 25.2 0.0
vertex 19.5 23.4 0.0
endloop
endfacet
facet normal 0.0 0.0 -1.0
outer loop
vertex 18.5 0.0 0.0
vertex 19.5 23.4 0.0
vertex 19.5 1.8 0.0
endloop
endfacet
facet normal 0.0 0.0 -1.0
outer loop
vertex 19.5 1.8 0.0
vertex 19.5 23.4 0.0
vertex 150.0 23.4 0.0
endloop
endfacet
facet normal 0.0 0.0 -1.0
outer loop
vertex 19.5 1.8 0.0
vertex 150.0 23.4 0.0
vertex 150.0 1.8 0.0
endloop
endfacet
facet normal 0.0 0.0 -1.0
outer loop
vertex 150.0 1.8 0.0
vertex 150.0 23.4 0.0
vertex 220.0 12.6 1.40998324127395e-15
endloop
endfacet
facet normal 0.0 1.0 0.0
outer loop
vertex 19.5 23.4 2.0
vertex 150.0 23.4 0.0
vertex 19.5 23.4 0.0
endloop
endfacet
facet normal 0.0 1.0 0.0
outer loop
vertex 150.0 23.4 0.0
vertex 19.5 23.4 2.0
vertex 150.0 23.4 2.0
endloop
endfacet
facet normal 0.0 0.0 1.0
outer loop
vertex 208.333333333333 10.8 2.8
vertex 0.0 14.4 2.8
vertex 0.0 10.8 2.8
endloop
endfacet
facet normal 0.0 0.0 1.0
outer loop
vertex 0.0 14.4 2.8
vertex 208.333333333333 10.8 2.8
vertex 208.333333333333 14.4 2.8
endloop
endfacet
facet normal 0.0 0.0 1.0
outer loop
vertex 208.333333333333 14.4 2.8
vertex 208.333333333333 10.8 2.8
vertex 220.0 12.6 2.8
endloop
endfacet
facet normal 0.0 -1.0 0.0
outer loop
vertex 10.5 1.79999999999999 2.0
vertex 0.0 1.8 0.0
vertex 10.5 1.8 0.0
endloop
endfacet
facet normal 0.0 -1.0 0.0
outer loop
vertex 0.0 1.8 0.0
vertex 10.5 1.79999999999999 2.0
vertex 0.0 1.79999999999999 2.0
endloop
endfacet
facet normal 0.0 1.0 0.0
outer loop
vertex 11.5 25.2 2.0
vertex 18.5 25.2 0.0
vertex 11.5 25.2 0.0
endloop
endfacet
facet normal 0.0 1.0 0.0
outer loop
vertex 18.5 25.2 0.0
vertex 11.5 25.2 2.0
vertex 18.5 25.2 2.0
endloop
endfacet
facet normal 0.874157276121539 0.48564293117863 0.0
outer loop
vertex 18.5 25.2 0.0
vertex 19.5 23.4 2.0
vertex 19.5 23.4 0.0
endloop
endfacet
facet normal 0.874157276121539 0.48564293117863 0.0
outer loop
vertex 19.5 23.4 2.0
vertex 18.5 25.2 0.0
vertex 18.5 25.2 2.0
endloop
endfacet
facet normal 0.0 -1.0 0.0
outer loop
vertex 150.0 1.79999999999999 2.0
vertex 19.5 1.8 0.0
vertex 150.0 1.8 0.0
endloop
endfacet
facet normal 0.0 -1.0 0.0
outer loop
vertex 19.5 1.8 0.0
vertex 150.0 1.79999999999999 2.0
vertex 19.5 1.79999999999999 2.0
endloop
endfacet
facet normal 0.15248154619565 -0.988306317934771 3.22083145902228e-15
outer loop
vertex 220.0 12.6 2.8
vertex 208.333333333333 10.8 2.0
vertex 220.0 12.6 1.40998324127395e-15
endloop
endfacet
facet normal 0.15248154619565 -0.988306317934771 3.22083145902228e-15
outer loop
vertex 208.333333333333 10.8 2.0
vertex 220.0 12.6 2.8
vertex 208.333333333333 10.8 2.8
endloop
endfacet
facet normal 0.15248154619565 -0.988306317934771 3.22083145902228e-15
outer loop
vertex 220.0 12.6 1.40998324127395e-15
vertex 150.0 1.79999999999999 2.0
vertex 150.0 1.8 0.0
endloop
endfacet
facet normal 0.15248154619565 -0.988306317934771 3.22083145902228e-15
outer loop
vertex 150.0 1.79999999999999 2.0
vertex 220.0 12.6 1.40998324127395e-15
vertex 208.333333333333 10.8 2.0
endloop
endfacet
facet normal 0.0 0.0 1.0
outer loop
vertex 208.333333333333 14.4 2.0
vertex 0.0 23.4 2.0
vertex 0.0 14.4 2.0
endloop
endfacet
facet normal 0.0 0.0 1.0
outer loop
vertex 0.0 23.4 2.0
vertex 208.333333333333 14.4 2.0
vertex 10.5 23.4 2.0
endloop
endfacet
facet normal 0.0 0.0 1.0
outer loop
vertex 10.5 23.4 2.0
vertex 208.333333333333 14.4 2.0
vertex 19.5 23.4 2.0
endloop
endfacet
facet normal 0.0 0.0 1.0
outer loop
vertex 10.5 23.4 2.0
vertex 19.5 23.4 2.0
vertex 11.5 25.2 2.0
endloop
endfacet
facet normal 0.0 0.0 1.0
outer loop
vertex 11.5 25.2 2.0
vertex 19.5 23.4 2.0
vertex 18.5 25.2 2.0
endloop
endfacet
facet normal 0.0 0.0 1.0
outer loop
vertex 19.5 23.4 2.0
vertex 208.333333333333 14.4 2.0
vertex 150.0 23.4 2.0
endloop
endfacet
facet normal -0.874157276121537 -0.485642931178633 0.0
outer loop
vertex 10.5 1.79999999999999 2.0
vertex 11.5 0.0 0.0
vertex 11.5 -2.25597318603832e-14 2.0
endloop
endfacet
facet normal -0.874157276121537 -0.485642931178633 0.0
outer loop
vertex 11.5 0.0 0.0
vertex 10.5 1.79999999999999 2.0
vertex 10.5 1.8 0.0
endloop
endfacet
facet normal 0.0 1.0 0.0
outer loop
vertex 0.0 23.4 2.0
vertex 10.5 23.4 0.0
vertex 0.0 23.4 0.0
endloop
endfacet
facet normal 0.0 1.0 0.0
outer loop
vertex 10.5 23.4 0.0
vertex 0.0 23.4 2.0
vertex 10.5 23.4 2.0
endloop
endfacet
facet normal 0.15248154619565 0.988306317934771 1.61041572951114e-15
outer loop
vertex 150.0 23.4 2.0
vertex 220.0 12.6 1.40998324127395e-15
vertex 150.0 23.4 0.0
endloop
endfacet
facet normal 0.15248154619565 0.988306317934771 1.61041572951114e-15
outer loop
vertex 220.0 12.6 1.40998324127395e-15
vertex 150.0 23.4 2.0
vertex 208.333333333333 14.4 2.0
endloop
endfacet
facet normal 0.15248154619565 0.988306317934771 1.61041572951114e-15
outer loop
vertex 208.333333333333 14.4 2.0
vertex 220.0 12.6 2.8
vertex 220.0 12.6 1.40998324127395e-15
endloop
endfacet
facet normal 0.15248154619565 0.988306317934771 1.61041572951114e-15
outer loop
vertex 220.0 12.6 2.8
vertex 208.333333333333 14.4 2.0
vertex 208.333333333333 14.4 2.8
endloop
endfacet
facet normal -1.0 0.0 0.0
outer loop
vertex 0.0 14.4 2.8
vertex 0.0 10.8 2.0
vertex 0.0 10.8 2.8
endloop
endfacet
facet normal -1.0 0.0 0.0
outer loop
vertex 0.0 10.8 2.0
vertex 0.0 1.8 0.0
vertex 0.0 1.79999999999999 2.0
endloop
endfacet
facet normal -1.0 0.0 0.0
outer loop
vertex 0.0 1.8 0.0
vertex 0.0 10.8 2.0
vertex 0.0 23.4 0.0
endloop
endfacet
facet normal -1.0 0.0 0.0
outer loop
vertex 0.0 23.4 0.0
vertex 0.0 10.8 2.0
vertex 0.0 14.4 2.0
endloop
endfacet
facet normal -1.0 0.0 0.0
outer loop
vertex 0.0 14.4 2.0
vertex 0.0 10.8 2.0
vertex 0.0 14.4 2.8
endloop
endfacet
facet normal -1.0 0.0 0.0
outer loop
vertex 0.0 23.4 0.0
vertex 0.0 14.4 2.0
vertex 0.0 23.4 2.0
endloop
endfacet
facet normal -0.874157276121538 0.485642931178632 0.0
outer loop
vertex 10.5 23.4 2.0
vertex 11.5 25.2 0.0
vertex 10.5 23.4 0.0
endloop
endfacet
facet normal -0.874157276121538 0.485642931178632 0.0
outer loop
vertex 11.5 25.2 0.0
vertex 10.5 23.4 2.0
vertex 11.5 25.2 2.0
endloop
endfacet
facet normal 0.0 0.0 1.0
outer loop
vertex 10.5 1.79999999999999 2.0
vertex 0.0 10.8 2.0
vertex 0.0 1.79999999999999 2.0
endloop
endfacet
facet normal 0.0 0.0 1.0
outer loop
vertex 0.0 10.8 2.0
vertex 10.5 1.79999999999999 2.0
vertex 208.333333333333 10.8 2.0
endloop
endfacet
facet normal 0.0 0.0 1.0
outer loop
vertex 208.333333333333 10.8 2.0
vertex 10.5 1.79999999999999 2.0
vertex 19.5 1.79999999999999 2.0
endloop
endfacet
facet normal 0.0 0.0 1.0
outer loop
vertex 19.5 1.79999999999999 2.0
vertex 10.5 1.79999999999999 2.0
vertex 11.5 -2.25597318603832e-14 2.0
endloop
endfacet
facet normal 0.0 0.0 1.0
outer loop
vertex 19.5 1.79999999999999 2.0
vertex 11.5 -2.25597318603832e-14 2.0
vertex 18.5 -2.25597318603832e-14 2.0
endloop
endfacet
facet normal 0.0 0.0 1.0
outer loop
vertex 208.333333333333 10.8 2.0
vertex 19.5 1.79999999999999 2.0
vertex 150.0 1.79999999999999 2.0
endloop
endfacet
facet normal -2.70716782324598e-17 1.0 0.0
outer loop
vertex 0.0 14.4 2.8
vertex 208.333333333333 14.4 2.0
vertex 0.0 14.4 2.0
endloop
endfacet
facet normal -2.70716782324598e-17 1.0 0.0
outer loop
vertex 208.333333333333 14.4 2.0
vertex 0.0 14.4 2.8
vertex 208.333333333333 14.4 2.8
endloop
endfacet
facet normal 0.874157276121538 -0.485642931178632 0.0
outer loop
vertex 18.5 0.0 0.0
vertex 19.5 1.79999999999999 2.0
vertex 18.5 -2.25597318603832e-14 2.0
endloop
endfacet
facet normal 0.874157276121538 -0.485642931178632 0.0
outer loop
vertex 19.5 1.79999999999999 2.0
vertex 18.5 0.0 0.0
vertex 19.5 1.8 0.0
endloop
endfacet
endsolid Cuchilla
