solid Deslizador
facet normal 5.55446962084281e-18 -4.86590941629842e-17 -1.0
outer loop
vertex 62.5 30.0 0.0
vertex 57.5 28.0 0.0
vertex 57.5 30.0 0.0
endloop
endfacet
facet normal 5.55446962084281e-18 -4.86590941629842e-17 -1.0
outer loop
vertex 57.5 28.0 0.0
vertex 62.5 30.0 0.0
vertex 57.5 25.0 7.04991620636974e-16
endloop
endfacet
facet normal 5.55446962084281e-18 -4.86590941629842e-17 -1.0
outer loop
vertex 57.5 25.0 7.04991620636974e-16
vertex 62.5 30.0 0.0
vertex 58.1470476127563 24.9148145657227 7.04991620636974e-16
endloop
endfacet
facet normal 5.55446962084281e-18 -4.86590941629842e-17 -1.0
outer loop
vertex 58.1470476127563 24.9148145657227 7.04991620636974e-16
vertex 62.5 30.0 0.0
vertex 58.75 24.6650635094611 7.04991620636974e-16
endloop
endfacet
facet normal 5.55446962084281e-18 -4.86590941629842e-17 -1.0
outer loop
vertex 58.75 24.6650635094611 7.04991620636974e-16
vertex 62.5 30.0 0.0
vertex 59.2677669529664 24.2677669529664 1.40998324127395e-15
endloop
endfacet
facet normal 5.55446962084281e-18 -4.86590941629842e-17 -1.0
outer loop
vertex 59.2677669529664 24.2677669529664 1.40998324127395e-15
vertex 62.5 30.0 0.0
vertex 59.6650635094611 23.75 1.40998324127395e-15
endloop
endfacet
facet normal 5.55446962084281e-18 -4.86590941629842e-17 -1.0
outer loop
vertex 59.6650635094611 23.75 1.40998324127395e-15
vertex 62.5 30.0 0.0
vertex 59.9148145657227 23.1470476127563 1.40998324127395e-15
endloop
endfacet
facet normal 5.55446962084281e-18 -4.86590941629842e-17 -1.0
outer loop
vertex 59.9148145657227 23.1470476127563 1.40998324127395e-15
vertex 62.5 30.0 0.0
vertex 60.0 22.5 2.11497486191092e-15
endloop
endfacet
facet normal 5.55446962084281e-18 -4.86590941629842e-17 -1.0
outer loop
vertex 60.0 22.5 2.11497486191092e-15
vertex 62.5 30.0 0.0
vertex 60.0 7.5 4.93494134445882e-15
endloop
endfacet
facet normal 5.55446962084281e-18 -4.86590941629842e-17 -1.0
outer loop
vertex 151.0 28.0 0.0
vertex 113.5 3.99999999999999 4.22994972382185e-15
vertex 103.5 28.0 0.0
endloop
endfacet
facet normal 5.55446962084281e-18 -4.86590941629842e-17 -1.0
outer loop
vertex 113.5 3.99999999999999 4.22994972382185e-15
vertex 151.0 28.0 0.0
vertex 144.5 3.99999999999999 2.38307026694189e-15
endloop
endfacet
facet normal 5.55446962084281e-18 -4.86590941629842e-17 -1.0
outer loop
vertex 144.5 3.99999999999999 2.38307026694189e-15
vertex 151.0 28.0 0.0
vertex 145.440853755388 3.96683262880727 1.66213811698258e-15
endloop
endfacet
facet normal 5.55446962084281e-18 -4.86590941629842e-17 -1.0
outer loop
vertex 145.440853755388 3.96683262880727 1.66213811698258e-15
vertex 151.0 28.0 0.0
vertex 146.377036395404 3.86749518334733 1.06305185970742e-15
endloop
endfacet
facet normal 5.55446962084281e-18 -4.86590941629842e-17 -1.0
outer loop
vertex 146.377036395404 3.86749518334733 1.06305185970742e-15
vertex 151.0 28.0 0.0
vertex 147.303899995656 3.70248085043665 5.88785816055205e-16
endloop
endfacet
facet normal 5.55446962084281e-18 -4.86590941629842e-17 -1.0
outer loop
vertex 147.303899995656 3.70248085043665 5.88785816055205e-16
vertex 151.0 28.0 0.0
vertex 148.21684289857 3.47260888703467 2.41694604258352e-16
endloop
endfacet
facet normal 5.55446962084281e-18 -4.86590941629842e-17 -1.0
outer loop
vertex 148.21684289857 3.47260888703467 2.41694604258352e-16
vertex 151.0 28.0 0.0
vertex 149.111332559525 3.1790205528276 2.3501449722856e-17
endloop
endfacet
facet normal 5.55446962084281e-18 -4.86590941629842e-17 -1.0
outer loop
vertex 149.111332559525 3.1790205528276 2.3501449722856e-17
vertex 151.0 28.0 0.0
vertex 149.982928049865 2.82317344414517 -6.47103703765178e-17
endloop
endfacet
facet normal 5.55446962084281e-18 -4.86590941629842e-17 -1.0
outer loop
vertex 149.982928049865 2.82317344414517 -6.47103703765178e-17
vertex 151.0 28.0 0.0
vertex 150.827302105051 2.40683425734122 -2.25029053099872e-17
endloop
endfacet
facet normal 5.55446962084281e-18 -4.86590941629842e-17 -1.0
outer loop
vertex 150.827302105051 2.40683425734122 -2.25029053099872e-17
vertex 151.0 28.0 0.0
vertex 151.640262608501 1.93207001756597 1.49914294885873e-16
endloop
endfacet
facet normal 5.55446962084281e-18 -4.86590941629842e-17 -1.0
outer loop
vertex 151.640262608501 1.93207001756597 1.49914294885873e-16
vertex 151.0 28.0 0.0
vertex 161.000000000001 12.0 0.0
endloop
endfacet
facet normal 5.55446962084281e-18 -4.86590941629842e-17 -1.0
outer loop
vertex 151.640262608501 1.93207001756597 1.49914294885873e-16
vertex 161.000000000001 12.0 0.0
vertex 152.417773404455 1.40123781647725 4.51685219774306e-16
endloop
endfacet
facet normal 5.55446962084281e-18 -4.86590941629842e-17 -1.0
outer loop
vertex 152.417773404455 1.40123781647725 4.51685219774306e-16
vertex 161.000000000001 12.0 0.0
vertex 153.155974336531 0.816973109840402 8.81311648406811e-16
endloop
endfacet
facet normal 5.55446962084281e-18 -4.86590941629842e-17 -1.0
outer loop
vertex 153.155974336531 0.816973109840402 8.81311648406811e-16
vertex 161.000000000001 12.0 0.0
vertex 153.851200412478 0.182176633116506 1.43666058763421e-15
endloop
endfacet
facet normal 5.55446962084281e-18 -4.86590941629842e-17 -1.0
outer loop
vertex 153.851200412478 0.182176633116506 1.43666058763421e-15
vertex 161.000000000001 12.0 0.0
vertex 154.5 -0.499999999999982 2.11497486191092e-15
endloop
endfacet
facet normal 5.55446962084281e-18 -4.86590941629842e-17 -1.0
outer loop
vertex 154.5 -0.499999999999982 2.11497486191092e-15
vertex 161.000000000001 12.0 0.0
vertex 161.000000000001 -0.499999999999982 0.0
endloop
endfacet
facet normal 5.55446962084281e-18 -4.86590941629842e-17 -1.0
outer loop
vertex 103.5 30.0 0.0
vertex 98.5000000000001 27.7 0.0
vertex 98.5000000000001 30.0 0.0
endloop
endfacet
facet normal 5.55446962084281e-18 -4.86590941629842e-17 -1.0
outer loop
vertex 98.5000000000001 27.7 0.0
vertex 103.5 30.0 0.0
vertex 98.5000000000001 2.29999999999996 4.22994972382185e-15
endloop
endfacet
facet normal 5.55446962084281e-18 -4.86590941629842e-17 -1.0
outer loop
vertex 98.5000000000001 2.29999999999996 4.22994972382185e-15
vertex 103.5 30.0 0.0
vertex 98.5000000000001 -2.7 4.22994972382185e-15
endloop
endfacet
facet normal 5.55446962084281e-18 -4.86590941629842e-17 -1.0
outer loop
vertex 98.5000000000001 -2.7 4.22994972382185e-15
vertex 103.5 30.0 0.0
vertex 103.5 28.0 0.0
endloop
endfacet
facet normal 5.55446962084281e-18 -4.86590941629842e-17 -1.0
outer loop
vertex 98.5000000000001 -2.7 4.22994972382185e-15
vertex 103.5 28.0 0.0
vertex 113.5 -2.7 4.22994972382185e-15
endloop
endfacet
facet normal 5.55446962084281e-18 -4.86590941629842e-17 -1.0
outer loop
vertex 113.5 -2.7 4.22994972382185e-15
vertex 103.5 28.0 0.0
vertex 113.5 3.99999999999999 4.22994972382185e-15
endloop
endfacet
facet normal 5.55446962084281e-18 -4.86590941629842e-17 -1.0
outer loop
vertex 98.5000000000001 27.7 0.0
vertex 62.5 2.29999999999996 4.22994972382185e-15
vertex 62.5 27.7 0.0
endloop
endfacet
facet normal 5.55446962084281e-18 -4.86590941629842e-17 -1.0
outer loop
vertex 62.5 2.29999999999996 4.22994972382185e-15
vertex 98.5000000000001 27.7 0.0
vertex 98.5000000000001 2.29999999999996 4.22994972382185e-15
endloop
endfacet
facet normal 5.55446962084281e-18 -4.86590941629842e-17 -1.0
outer loop
vertex 47.5 -2.7 4.22994972382185e-15
vertex 55.7322330470336 5.73223304703362 5.63993296509579e-15
vertex 62.5 -2.7 4.22994972382185e-15
endloop
endfacet
facet normal 5.55446962084281e-18 -4.86590941629842e-17 -1.0
outer loop
vertex 55.7322330470336 5.73223304703362 5.63993296509579e-15
vertex 47.5 -2.7 4.22994972382185e-15
vertex 55.3349364905389 6.24999999999999 5.63993296509579e-15
endloop
endfacet
facet normal 5.55446962084281e-18 -4.86590941629842e-17 -1.0
outer loop
vertex 55.3349364905389 6.24999999999999 5.63993296509579e-15
vertex 47.5 -2.7 4.22994972382185e-15
vertex 55.0851854342773 6.85295238724369 4.93494134445882e-15
endloop
endfacet
facet normal 5.55446962084281e-18 -4.86590941629842e-17 -1.0
outer loop
vertex 55.0851854342773 6.85295238724369 4.93494134445882e-15
vertex 47.5 -2.7 4.22994972382185e-15
vertex 55.0 7.49999999999999 4.93494134445882e-15
endloop
endfacet
facet normal 5.55446962084281e-18 -4.86590941629842e-17 -1.0
outer loop
vertex 55.0 7.49999999999999 4.93494134445882e-15
vertex 47.5 -2.7 4.22994972382185e-15
vertex 55.0 22.5 2.11497486191092e-15
endloop
endfacet
facet normal 5.55446962084281e-18 -4.86590941629842e-17 -1.0
outer loop
vertex 62.5 -2.7 4.22994972382185e-15
vertex 55.7322330470336 5.73223304703362 5.63993296509579e-15
vertex 56.25 5.33493649053889 5.63993296509579e-15
endloop
endfacet
facet normal 5.55446962084281e-18 -4.86590941629842e-17 -1.0
outer loop
vertex 62.5 -2.7 4.22994972382185e-15
vertex 56.25 5.33493649053889 5.63993296509579e-15
vertex 56.8529523872437 5.08518543427732 5.63993296509579e-15
endloop
endfacet
facet normal 5.55446962084281e-18 -4.86590941629842e-17 -1.0
outer loop
vertex 62.5 -2.7 4.22994972382185e-15
vertex 56.8529523872437 5.08518543427732 5.63993296509579e-15
vertex 57.5 4.99999999999999 5.63993296509579e-15
endloop
endfacet
facet normal 5.55446962084281e-18 -4.86590941629842e-17 -1.0
outer loop
vertex 62.5 -2.7 4.22994972382185e-15
vertex 57.5 4.99999999999999 5.63993296509579e-15
vertex 58.1470476127563 5.08518543427732 5.63993296509579e-15
endloop
endfacet
facet normal 5.55446962084281e-18 -4.86590941629842e-17 -1.0
outer loop
vertex 62.5 -2.7 4.22994972382185e-15
vertex 58.1470476127563 5.08518543427732 5.63993296509579e-15
vertex 58.75 5.3349364905389 5.63993296509579e-15
endloop
endfacet
facet normal 5.55446962084281e-18 -4.86590941629842e-17 -1.0
outer loop
vertex 62.5 -2.7 4.22994972382185e-15
vertex 58.75 5.3349364905389 5.63993296509579e-15
vertex 59.2677669529664 5.73223304703362 5.63993296509579e-15
endloop
endfacet
facet normal 5.55446962084281e-18 -4.86590941629842e-17 -1.0
outer loop
vertex 62.5 -2.7 4.22994972382185e-15
vertex 59.2677669529664 5.73223304703362 5.63993296509579e-15
vertex 59.6650635094611 6.25 5.63993296509579e-15
endloop
endfacet
facet normal 5.55446962084281e-18 -4.86590941629842e-17 -1.0
outer loop
vertex 62.5 -2.7 4.22994972382185e-15
vertex 59.6650635094611 6.25 5.63993296509579e-15
vertex 59.9148145657227 6.8529523872437 4.93494134445882e-15
endloop
endfacet
facet normal 5.55446962084281e-18 -4.86590941629842e-17 -1.0
outer loop
vertex 62.5 -2.7 4.22994972382185e-15
vertex 59.9148145657227 6.8529523872437 4.93494134445882e-15
vertex 60.0 7.5 4.93494134445882e-15
endloop
endfacet
facet normal 5.55446962084281e-18 -4.86590941629842e-17 -1.0
outer loop
vertex 62.5 -2.7 4.22994972382185e-15
vertex 60.0 7.5 4.93494134445882e-15
vertex 62.5 30.0 0.0
endloop
endfacet
facet normal 5.55446962084281e-18 -4.86590941629842e-17 -1.0
outer loop
vertex 62.5 -2.7 4.22994972382185e-15
vertex 62.5 30.0 0.0
vertex 62.5 27.7 0.0
endloop
endfacet
facet normal 5.55446962084281e-18 -4.86590941629842e-17 -1.0
outer loop
vertex 62.5 -2.7 4.22994972382185e-15
vertex 62.5 27.7 0.0
vertex 62.5 2.29999999999996 4.22994972382185e-15
endloop
endfacet
facet normal 5.55446962084281e-18 -4.86590941629842e-17 -1.0
outer loop
vertex 10.0 28.0 0.0
vertex 0.0 -0.499999999999982 0.0
vertex 0.0 12.0 0.0
endloop
endfacet
facet normal 5.55446962084281e-18 -4.86590941629842e-17 -1.0
outer loop
vertex 0.0 -0.499999999999982 0.0
vertex 10.0 28.0 0.0
vertex 6.50000000000001 -0.499999999999982 -4.90181666511731e-16
endloop
endfacet
facet normal 5.55446962084281e-18 -4.86590941629842e-17 -1.0
outer loop
vertex 6.50000000000001 -0.499999999999982 -4.90181666511731e-16
vertex 10.0 28.0 0.0
vertex 7.14879958752183 0.182176633116506 -7.3570278634996e-16
endloop
endfacet
facet normal 5.55446962084281e-18 -4.86590941629842e-17 -1.0
outer loop
vertex 7.14879958752183 0.182176633116506 -7.3570278634996e-16
vertex 10.0 28.0 0.0
vertex 7.8440256634695 0.816973109840402 -8.92312892295075e-16
endloop
endfacet
facet normal 5.55446962084281e-18 -4.86590941629842e-17 -1.0
outer loop
vertex 7.8440256634695 0.816973109840402 -8.92312892295075e-16
vertex 10.0 28.0 0.0
vertex 8.58222659554505 1.40123781647725 -9.59234452377887e-16
endloop
endfacet
facet normal 5.55446962084281e-18 -4.86590941629842e-17 -1.0
outer loop
vertex 8.58222659554505 1.40123781647725 -9.59234452377887e-16
vertex 10.0 28.0 0.0
vertex 9.35973739149964 1.93207001756597 -9.3613521695154e-16
endloop
endfacet
facet normal 5.55446962084281e-18 -4.86590941629842e-17 -1.0
outer loop
vertex 9.35973739149964 1.93207001756597 -9.3613521695154e-16
vertex 10.0 28.0 0.0
vertex 10.1726978949494 2.40683425734122 -8.23129868232108e-16
endloop
endfacet
facet normal 5.55446962084281e-18 -4.86590941629842e-17 -1.0
outer loop
vertex 10.1726978949494 2.40683425734122 -8.23129868232108e-16
vertex 10.0 28.0 0.0
vertex 57.5 28.0 0.0
endloop
endfacet
facet normal 5.55446962084281e-18 -4.86590941629842e-17 -1.0
outer loop
vertex 10.1726978949494 2.40683425734122 -8.23129868232108e-16
vertex 57.5 28.0 0.0
vertex 11.0170719501347 2.82317344414517 -6.20779450928602e-16
endloop
endfacet
facet normal 5.55446962084281e-18 -4.86590941629842e-17 -1.0
outer loop
vertex 11.0170719501347 2.82317344414517 -6.20779450928602e-16
vertex 57.5 28.0 0.0
vertex 11.8886674404747 3.1790205528276 -3.30088586789303e-16
endloop
endfacet
facet normal 5.55446962084281e-18 -4.86590941629842e-17 -1.0
outer loop
vertex 11.8886674404747 3.1790205528276 -3.30088586789303e-16
vertex 57.5 28.0 0.0
vertex 12.7831571014301 3.47260888703468 4.74995131065469e-17
endloop
endfacet
facet normal 5.55446962084281e-18 -4.86590941629842e-17 -1.0
outer loop
vertex 12.7831571014301 3.47260888703468 4.74995131065469e-17
vertex 57.5 28.0 0.0
vertex 13.6961000043437 3.70248085043666 5.10110213548896e-16
endloop
endfacet
facet normal 5.55446962084281e-18 -4.86590941629842e-17 -1.0
outer loop
vertex 13.6961000043437 3.70248085043666 5.10110213548896e-16
vertex 57.5 28.0 0.0
vertex 14.6229636045961 3.86749518334734 1.05544676231531e-15
endloop
endfacet
facet normal 5.55446962084281e-18 -4.86590941629842e-17 -1.0
outer loop
vertex 14.6229636045961 3.86749518334734 1.05544676231531e-15
vertex 57.5 28.0 0.0
vertex 15.5591462446125 3.96683262880729 1.68080169300012e-15
endloop
endfacet
facet normal 5.55446962084281e-18 -4.86590941629842e-17 -1.0
outer loop
vertex 15.5591462446125 3.96683262880729 1.68080169300012e-15
vertex 57.5 28.0 0.0
vertex 16.5 4.0 2.38307026694188e-15
endloop
endfacet
facet normal 5.55446962084281e-18 -4.86590941629842e-17 -1.0
outer loop
vertex 16.5 4.0 2.38307026694188e-15
vertex 57.5 28.0 0.0
vertex 55.3349364905389 23.75 1.40998324127395e-15
endloop
endfacet
facet normal 5.55446962084281e-18 -4.86590941629842e-17 -1.0
outer loop
vertex 16.5 4.0 2.38307026694188e-15
vertex 55.3349364905389 23.75 1.40998324127395e-15
vertex 55.0851854342773 23.1470476127563 1.40998324127395e-15
endloop
endfacet
facet normal 5.55446962084281e-18 -4.86590941629842e-17 -1.0
outer loop
vertex 16.5 4.0 2.38307026694188e-15
vertex 55.0851854342773 23.1470476127563 1.40998324127395e-15
vertex 47.5 4.0 4.22994972382185e-15
endloop
endfacet
facet normal 5.55446962084281e-18 -4.86590941629842e-17 -1.0
outer loop
vertex 47.5 4.0 4.22994972382185e-15
vertex 55.0851854342773 23.1470476127563 1.40998324127395e-15
vertex 47.5 -2.7 4.22994972382185e-15
endloop
endfacet
facet normal 5.55446962084281e-18 -4.86590941629842e-17 -1.0
outer loop
vertex 47.5 -2.7 4.22994972382185e-15
vertex 55.0851854342773 23.1470476127563 1.40998324127395e-15
vertex 55.0 22.5 2.11497486191092e-15
endloop
endfacet
facet normal 5.55446962084281e-18 -4.86590941629842e-17 -1.0
outer loop
vertex 55.3349364905389 23.75 1.40998324127395e-15
vertex 57.5 28.0 0.0
vertex 55.7322330470336 24.2677669529664 1.40998324127395e-15
endloop
endfacet
facet normal 5.55446962084281e-18 -4.86590941629842e-17 -1.0
outer loop
vertex 55.7322330470336 24.2677669529664 1.40998324127395e-15
vertex 57.5 28.0 0.0
vertex 56.25 24.6650635094611 7.04991620636974e-16
endloop
endfacet
facet normal 5.55446962084281e-18 -4.86590941629842e-17 -1.0
outer loop
vertex 56.25 24.6650635094611 7.04991620636974e-16
vertex 57.5 28.0 0.0
vertex 56.8529523872437 24.9148145657227 7.04991620636974e-16
endloop
endfacet
facet normal 5.55446962084281e-18 -4.86590941629842e-17 -1.0
outer loop
vertex 56.8529523872437 24.9148145657227 7.04991620636974e-16
vertex 57.5 28.0 0.0
vertex 57.5 25.0 7.04991620636974e-16
endloop
endfacet
facet normal 3.66950705657889e-33 -1.0 4.86590941629842e-17
outer loop
vertex 6.50000000000001 -0.499999999999982 2.0
vertex 0.0 -0.499999999999982 0.0
vertex 6.50000000000001 -0.499999999999982 -4.90181666511731e-16
endloop
endfacet
facet normal 3.66950705657889e-33 -1.0 4.86590941629842e-17
outer loop
vertex 0.0 -0.499999999999982 0.0
vertex 6.50000000000001 -0.499999999999982 2.0
vertex 0.0 -0.499999999999982 2.0
endloop
endfacet
facet normal -1.0 0.0 -5.55446962084281e-18
outer loop
vertex 0.0 12.0 2.0
vertex 0.0 -0.499999999999982 0.0
vertex 0.0 -0.499999999999982 2.0
endloop
endfacet
facet normal -1.0 0.0 -5.55446962084281e-18
outer loop
vertex 0.0 -0.499999999999982 0.0
vertex 0.0 12.0 2.0
vertex 0.0 12.0 0.0
endloop
endfacet
facet normal -0.847998304005088 0.52999894000318 -3.0499449146019e-17
outer loop
vertex 10.0 28.0 2.0
vertex 0.0 12.0 0.0
vertex 0.0 12.0 2.0
endloop
endfacet
facet normal -0.847998304005088 0.52999894000318 -3.0499449146019e-17
outer loop
vertex 0.0 12.0 0.0
vertex 10.0 28.0 2.0
vertex 10.0 28.0 0.0
endloop
endfacet
facet normal 0.0 1.0 -4.86590941629842e-17
outer loop
vertex 10.0 28.0 2.0
vertex 57.5 28.0 0.0
vertex 10.0 28.0 0.0
endloop
endfacet
facet normal 0.0 1.0 -4.86590941629842e-17
outer loop
vertex 57.5 28.0 0.0
vertex 10.0 28.0 2.0
vertex 57.5 28.0 2.0
endloop
endfacet
facet normal -1.0 0.0 -5.55446962084281e-18
outer loop
vertex 57.5 30.0 2.0
vertex 57.5 28.0 0.0
vertex 57.5 28.0 2.0
endloop
endfacet
facet normal -1.0 0.0 -5.55446962084281e-18
outer loop
vertex 57.5 28.0 0.0
vertex 57.5 30.0 2.0
vertex 57.5 30.0 0.0
endloop
endfacet
facet normal 0.0 1.0 -4.86590941629842e-17
outer loop
vertex 57.5 30.0 2.0
vertex 62.5 30.0 0.0
vertex 57.5 30.0 0.0
endloop
endfacet
facet normal 0.0 1.0 -4.86590941629842e-17
outer loop
vertex 62.5 30.0 0.0
vertex 57.5 30.0 2.0
vertex 62.5 30.0 2.0
endloop
endfacet
facet normal 1.0 0.0 5.55446962084281e-18
outer loop
vertex 62.5 30.0 0.0
vertex 62.5 27.7 2.0
vertex 62.5 27.7 0.0
endloop
endfacet
facet normal 1.0 0.0 5.55446962084281e-18
outer loop
vertex 62.5 27.7 2.0
vertex 62.5 30.0 0.0
vertex 62.5 30.0 2.0
endloop
endfacet
facet normal 0.0 1.0 -4.86590941629842e-17
outer loop
vertex 62.5 27.7 2.0
vertex 98.5000000000001 27.7 0.0
vertex 62.5 27.7 0.0
endloop
endfacet
facet normal 0.0 1.0 -4.86590941629842e-17
outer loop
vertex 98.5000000000001 27.7 0.0
vertex 62.5 27.7 2.0
vertex 98.5000000000001 27.7 2.0
endloop
endfacet
facet normal -1.0 0.0 -5.55446962084281e-18
outer loop
vertex 98.5000000000001 30.0 2.0
vertex 98.5000000000001 27.7 0.0
vertex 98.5000000000001 27.7 2.0
endloop
endfacet
facet normal -1.0 0.0 -5.55446962084281e-18
outer loop
vertex 98.5000000000001 27.7 0.0
vertex 98.5000000000001 30.0 2.0
vertex 98.5000000000001 30.0 0.0
endloop
endfacet
facet normal 0.0 1.0 -4.86590941629842e-17
outer loop
vertex 98.5000000000001 30.0 2.0
vertex 103.5 30.0 0.0
vertex 98.5000000000001 30.0 0.0
endloop
endfacet
facet normal 0.0 1.0 -4.86590941629842e-17
outer loop
vertex 103.5 30.0 0.0
vertex 98.5000000000001 30.0 2.0
vertex 103.5 30.0 2.0
endloop
endfacet
facet normal 1.0 0.0 5.55446962084281e-18
outer loop
vertex 103.5 30.0 0.0
vertex 103.5 28.0 2.0
vertex 103.5 28.0 0.0
endloop
endfacet
facet normal 1.0 0.0 5.55446962084281e-18
outer loop
vertex 103.5 28.0 2.0
vertex 103.5 30.0 0.0
vertex 103.5 30.0 2.0
endloop
endfacet
facet normal -4.74941723376488e-16 1.0 -4.86590941629842e-17
outer loop
vertex 103.5 28.0 2.0
vertex 151.0 28.0 0.0
vertex 103.5 28.0 0.0
endloop
endfacet
facet normal -4.74941723376488e-16 1.0 -4.86590941629842e-17
outer loop
vertex 151.0 28.0 0.0
vertex 103.5 28.0 2.0
vertex 151.0 28.0 2.0
endloop
endfacet
facet normal 0.847998304005076 0.529998940003198 -2.1079087509775e-17
outer loop
vertex 151.0 28.0 0.0
vertex 161.000000000001 12.0 2.0
vertex 161.000000000001 12.0 0.0
endloop
endfacet
facet normal 0.847998304005076 0.529998940003198 -2.1079087509775e-17
outer loop
vertex 161.000000000001 12.0 2.0
vertex 151.0 28.0 0.0
vertex 151.0 28.0 2.0
endloop
endfacet
facet normal 1.0 0.0 5.55446962084281e-18
outer loop
vertex 161.000000000001 12.0 0.0
vertex 161.000000000001 -0.499999999999982 2.0
vertex 161.000000000001 -0.499999999999982 0.0
endloop
endfacet
facet normal 1.0 0.0 5.55446962084281e-18
outer loop
vertex 161.000000000001 -0.499999999999982 2.0
vertex 161.000000000001 12.0 0.0
vertex 161.000000000001 12.0 2.0
endloop
endfacet
facet normal 1.58327324550861e-32 -1.0 4.86590941629842e-17
outer loop
vertex 161.000000000001 -0.499999999999982 2.0
vertex 154.5 -0.499999999999982 2.11497486191092e-15
vertex 161.000000000001 -0.499999999999982 0.0
endloop
endfacet
facet normal 1.58327324550861e-32 -1.0 4.86590941629842e-17
outer loop
vertex 154.5 -0.499999999999982 2.11497486191092e-15
vertex 161.000000000001 -0.499999999999982 2.0
vertex 154.5 -0.499999999999982 2.0
endloop
endfacet
facet normal -0.699881943553456 -0.714258542187516 3.08677006673741e-17
outer loop
vertex 153.851200412478 0.182176633116506 2.0
vertex 154.5 -0.499999999999982 2.11497486191092e-15
vertex 154.5 -0.499999999999982 2.0
endloop
endfacet
facet normal -0.724611175913868 -0.689157923658084 2.95089695369086e-17
outer loop
vertex 154.5 -0.499999999999982 2.11497486191092e-15
vertex 153.851200412478 0.182176633116506 2.0
vertex 153.851200412478 0.182176633116506 1.43666058763421e-15
endloop
endfacet
facet normal -0.699881943553456 -0.714258542187516 3.08677006673741e-17
outer loop
vertex 153.851200412478 0.182176633116506 1.43666058763421e-15
vertex 153.155974336531 0.816973109840402 2.0
vertex 153.155974336531 0.816973109840402 8.81311648406811e-16
endloop
endfacet
facet normal -0.647848391091679 -0.761769297202193 3.34685497558012e-17
outer loop
vertex 153.155974336531 0.816973109840402 2.0
vertex 153.851200412478 0.182176633116506 1.43666058763421e-15
vertex 153.851200412478 0.182176633116506 2.0
endloop
endfacet
facet normal -0.647848391091679 -0.761769297202193 3.34685497558012e-17
outer loop
vertex 153.155974336531 0.816973109840402 8.81311648406811e-16
vertex 152.417773404455 1.40123781647725 2.0
vertex 152.417773404455 1.40123781647725 4.51685219774306e-16
endloop
endfacet
facet normal -0.592598425281451 -0.805498048634474 3.59032354460198e-17
outer loop
vertex 152.417773404455 1.40123781647725 2.0
vertex 153.155974336531 0.816973109840402 8.81311648406811e-16
vertex 153.155974336531 0.816973109840402 2.0
endloop
endfacet
facet normal -0.592598425281451 -0.805498048634474 3.59032354460198e-17
outer loop
vertex 152.417773404455 1.40123781647725 4.51685219774306e-16
vertex 151.640262608501 1.93207001756597 2.0
vertex 151.640262608501 1.93207001756597 1.49914294885873e-16
endloop
endfacet
facet normal -0.534406349076948 -0.845227693622404 3.81596701020011e-17
outer loop
vertex 151.640262608501 1.93207001756597 2.0
vertex 152.417773404455 1.40123781647725 4.51685219774306e-16
vertex 152.417773404455 1.40123781647725 2.0
endloop
endfacet
facet normal -0.534406349076948 -0.845227693622404 3.81596701020011e-17
outer loop
vertex 151.640262608501 1.93207001756597 1.49914294885873e-16
vertex 150.827302105051 2.40683425734122 2.0
vertex 150.827302105051 2.40683425734122 -2.25029053099872e-17
endloop
endfacet
facet normal -0.473561072311478 -0.880760983917432 4.02266510617531e-17
outer loop
vertex 150.827302105051 2.40683425734122 2.0
vertex 151.640262608501 1.93207001756597 1.49914294885873e-16
vertex 151.640262608501 1.93207001756597 2.0
endloop
endfacet
facet normal -0.473561072311478 -0.880760983917432 4.02266510617531e-17
outer loop
vertex 150.827302105051 2.40683425734122 -2.25029053099872e-17
vertex 149.982928049865 2.82317344414517 2.0
vertex 149.982928049865 2.82317344414517 -6.47103703765178e-17
endloop
endfacet
facet normal -0.410364677328796 -0.911921505175107 4.20939162558761e-17
outer loop
vertex 149.982928049865 2.82317344414517 2.0
vertex 150.827302105051 2.40683425734122 -2.25029053099872e-17
vertex 150.827302105051 2.40683425734122 2.0
endloop
endfacet
facet normal -0.410364677328796 -0.911921505175107 4.20939162558761e-17
outer loop
vertex 149.982928049865 2.82317344414517 2.0
vertex 149.111332559525 3.1790205528276 2.3501449722856e-17
vertex 149.982928049865 2.82317344414517 -6.47103703765178e-17
endloop
endfacet
facet normal -0.345130919216032 -0.938554552810382 4.37521951562989e-17
outer loop
vertex 149.111332559525 3.1790205528276 2.3501449722856e-17
vertex 149.982928049865 2.82317344414517 2.0
vertex 149.111332559525 3.1790205528276 2.0
endloop
endfacet
facet normal -0.345130919216032 -0.938554552810382 4.37521951562989e-17
outer loop
vertex 149.111332559525 3.1790205528276 2.0
vertex 148.21684289857 3.47260888703467 2.41694604258352e-16
vertex 149.111332559525 3.1790205528276 2.3501449722856e-17
endloop
endfacet
facet normal -0.278183668084231 -0.960527900069125 4.51932548022485e-17
outer loop
vertex 148.21684289857 3.47260888703467 2.41694604258352e-16
vertex 149.111332559525 3.1790205528276 2.0
vertex 148.21684289857 3.47260888703467 2.0
endloop
endfacet
facet normal -0.278183668084231 -0.960527900069125 4.51932548022485e-17
outer loop
vertex 148.21684289857 3.47260888703467 2.0
vertex 147.303899995656 3.70248085043665 5.88785816055205e-16
vertex 148.21684289857 3.47260888703467 2.41694604258352e-16
endloop
endfacet
facet normal -0.209855301130199 -0.977732454502536 4.64099406749441e-17
outer loop
vertex 147.303899995656 3.70248085043665 5.88785816055205e-16
vertex 148.21684289857 3.47260888703467 2.0
vertex 147.303899995656 3.70248085043665 2.0
endloop
endfacet
facet normal -0.209855301130199 -0.977732454502536 4.64099406749441e-17
outer loop
vertex 147.303899995656 3.70248085043665 2.0
vertex 146.377036395404 3.86749518334733 1.06305185970742e-15
vertex 147.303899995656 3.70248085043665 5.88785816055205e-16
endloop
endfacet
facet normal -0.140485052462664 -0.990082799585248 4.73962122180832e-17
outer loop
vertex 146.377036395404 3.86749518334733 1.06305185970742e-15
vertex 147.303899995656 3.70248085043665 2.0
vertex 146.377036395404 3.86749518334733 2.0
endloop
endfacet
facet normal -0.140485052462664 -0.990082799585248 4.73962122180832e-17
outer loop
vertex 146.377036395404 3.86749518334733 2.0
vertex 145.440853755388 3.96683262880727 1.66213811698258e-15
vertex 146.377036395404 3.86749518334733 1.06305185970742e-15
endloop
endfacet
facet normal -0.0704173288855528 -0.997517618788071 4.81471728277688e-17
outer loop
vertex 145.440853755388 3.96683262880727 1.66213811698258e-15
vertex 146.377036395404 3.86749518334733 2.0
vertex 145.440853755388 3.96683262880727 2.0
endloop
endfacet
facet normal -0.0704173288855527 -0.997517618788071 4.81471728277688e-17
outer loop
vertex 145.440853755388 3.96683262880727 2.0
vertex 144.5 3.99999999999999 2.38307026694189e-15
vertex 145.440853755388 3.96683262880727 1.66213811698258e-15
endloop
endfacet
facet normal -0.0352305351359369 -0.999379212008152 4.8433200244495e-17
outer loop
vertex 144.5 3.99999999999999 2.38307026694189e-15
vertex 145.440853755388 3.96683262880727 2.0
vertex 144.5 3.99999999999999 2.0
endloop
endfacet
facet normal -1.81933321454703e-16 -1.0 4.86590941629842e-17
outer loop
vertex 144.5 3.99999999999999 2.0
vertex 113.5 3.99999999999999 4.22994972382185e-15
vertex 144.5 3.99999999999999 2.38307026694189e-15
endloop
endfacet
facet normal -1.81933321454703e-16 -1.0 4.86590941629842e-17
outer loop
vertex 113.5 3.99999999999999 4.22994972382185e-15
vertex 144.5 3.99999999999999 2.0
vertex 113.5 3.99999999999999 2.0
endloop
endfacet
facet normal 1.0 0.0 5.55446962084281e-18
outer loop
vertex 113.5 3.99999999999999 4.22994972382185e-15
vertex 113.5 -2.7 2.0
vertex 113.5 -2.7 4.22994972382185e-15
endloop
endfacet
facet normal 1.0 0.0 5.55446962084281e-18
outer loop
vertex 113.5 -2.7 2.0
vertex 113.5 3.99999999999999 4.22994972382185e-15
vertex 113.5 3.99999999999999 2.0
endloop
endfacet
facet normal 0.0 -1.0 4.86590941629842e-17
outer loop
vertex 113.5 -2.7 2.0
vertex 98.5000000000001 -2.7 4.22994972382185e-15
vertex 113.5 -2.7 4.22994972382185e-15
endloop
endfacet
facet normal 0.0 -1.0 4.86590941629842e-17
outer loop
vertex 98.5000000000001 -2.7 4.22994972382185e-15
vertex 113.5 -2.7 2.0
vertex 98.5000000000001 -2.7 2.0
endloop
endfacet
facet normal -1.0 0.0 -5.55446962084281e-18
outer loop
vertex 98.5000000000001 2.29999999999996 2.0
vertex 98.5000000000001 -2.7 4.22994972382185e-15
vertex 98.5000000000001 -2.7 2.0
endloop
endfacet
facet normal -1.0 0.0 -5.55446962084281e-18
outer loop
vertex 98.5000000000001 -2.7 4.22994972382185e-15
vertex 98.5000000000001 2.29999999999996 2.0
vertex 98.5000000000001 2.29999999999996 4.22994972382185e-15
endloop
endfacet
facet normal 0.0 -1.0 4.86590941629842e-17
outer loop
vertex 98.5000000000001 2.29999999999996 2.0
vertex 62.5 2.29999999999996 4.22994972382185e-15
vertex 98.5000000000001 2.29999999999996 4.22994972382185e-15
endloop
endfacet
facet normal 0.0 -1.0 4.86590941629842e-17
outer loop
vertex 62.5 2.29999999999996 4.22994972382185e-15
vertex 98.5000000000001 2.29999999999996 2.0
vertex 62.5 2.29999999999996 2.0
endloop
endfacet
facet normal 1.0 0.0 5.55446962084281e-18
outer loop
vertex 62.5 2.29999999999996 4.22994972382185e-15
vertex 62.5 -2.7 2.0
vertex 62.5 -2.7 4.22994972382185e-15
endloop
endfacet
facet normal 1.0 0.0 5.55446962084281e-18
outer loop
vertex 62.5 -2.7 2.0
vertex 62.5 2.29999999999996 4.22994972382185e-15
vertex 62.5 2.29999999999996 2.0
endloop
endfacet
facet normal 0.0 -1.0 4.86590941629842e-17
outer loop
vertex 62.5 -2.7 2.0
vertex 47.5 -2.7 4.22994972382185e-15
vertex 62.5 -2.7 4.22994972382185e-15
endloop
endfacet
facet normal 0.0 -1.0 4.86590941629842e-17
outer loop
vertex 47.5 -2.7 4.22994972382185e-15
vertex 62.5 -2.7 2.0
vertex 47.5 -2.7 2.0
endloop
endfacet
facet normal -1.0 0.0 -5.55446962084281e-18
outer loop
vertex 47.5 4.0 2.0
vertex 47.5 -2.7 4.22994972382185e-15
vertex 47.5 -2.7 2.0
endloop
endfacet
facet normal -1.0 0.0 -5.55446962084281e-18
outer loop
vertex 47.5 -2.7 4.22994972382185e-15
vertex 47.5 4.0 2.0
vertex 47.5 4.0 4.22994972382185e-15
endloop
endfacet
facet normal -2.89895101290333e-33 -1.0 4.86590941629842e-17
outer loop
vertex 47.5 4.0 4.22994972382185e-15
vertex 16.5 4.0 2.0
vertex 16.5 4.0 2.38307026694188e-15
endloop
endfacet
facet normal -2.89895101290333e-33 -1.0 4.86590941629842e-17
outer loop
vertex 16.5 4.0 2.0
vertex 47.5 4.0 4.22994972382185e-15
vertex 47.5 4.0 2.0
endloop
endfacet
facet normal 0.035230535135931 -0.999379212008153 4.88245741187722e-17
outer loop
vertex 16.5 4.0 2.38307026694188e-15
vertex 15.5591462446125 3.96683262880729 2.0
vertex 15.5591462446125 3.96683262880729 1.68080169300012e-15
endloop
endfacet
facet normal 0.0704173288855498 -0.997517618788071 4.89294346559202e-17
outer loop
vertex 15.5591462446125 3.96683262880729 2.0
vertex 16.5 4.0 2.38307026694188e-15
vertex 16.5 4.0 2.0
endloop
endfacet
facet normal 0.0704173288855498 -0.997517618788071 4.89294346559202e-17
outer loop
vertex 15.5591462446125 3.96683262880729 1.68080169300012e-15
vertex 14.6229636045961 3.86749518334734 2.0
vertex 14.6229636045961 3.86749518334734 1.05544676231531e-15
endloop
endfacet
facet normal 0.140485052462667 -0.990082799585248 4.8956852130256e-17
outer loop
vertex 14.6229636045961 3.86749518334734 2.0
vertex 15.5591462446125 3.96683262880729 1.68080169300012e-15
vertex 15.5591462446125 3.96683262880729 2.0
endloop
endfacet
facet normal 0.140485052462667 -0.990082799585248 4.8956852130256e-17
outer loop
vertex 14.6229636045961 3.86749518334734 1.05544676231531e-15
vertex 13.6961000043437 3.70248085043666 2.0
vertex 13.6961000043437 3.70248085043666 5.10110213548896e-16
endloop
endfacet
facet normal 0.209855301130202 -0.977732454502535 4.87412104647451e-17
outer loop
vertex 13.6961000043437 3.70248085043666 2.0
vertex 14.6229636045961 3.86749518334734 1.05544676231531e-15
vertex 14.6229636045961 3.86749518334734 2.0
endloop
endfacet
facet normal 0.209855301130202 -0.977732454502535 4.87412104647451e-17
outer loop
vertex 13.6961000043437 3.70248085043666 5.10110213548896e-16
vertex 12.7831571014301 3.47260888703468 2.0
vertex 12.7831571014301 3.47260888703468 4.74995131065469e-17
endloop
endfacet
facet normal 0.278183668084234 -0.960527900069124 4.82835802690255e-17
outer loop
vertex 12.7831571014301 3.47260888703468 2.0
vertex 13.6961000043437 3.70248085043666 5.10110213548896e-16
vertex 13.6961000043437 3.70248085043666 2.0
endloop
endfacet
facet normal 0.278183668084234 -0.960527900069124 4.82835802690255e-17
outer loop
vertex 12.7831571014301 3.47260888703468 4.74995131065469e-17
vertex 11.8886674404747 3.1790205528276 2.0
vertex 11.8886674404747 3.1790205528276 -3.30088586789303e-16
endloop
endfacet
facet normal 0.345130919216035 -0.938554552810381 4.75862335682969e-17
outer loop
vertex 11.8886674404747 3.1790205528276 2.0
vertex 12.7831571014301 3.47260888703468 4.74995131065469e-17
vertex 12.7831571014301 3.47260888703468 2.0
endloop
endfacet
facet normal 0.345130919216035 -0.938554552810381 4.75862335682969e-17
outer loop
vertex 11.8886674404747 3.1790205528276 -3.30088586789303e-16
vertex 11.0170719501347 2.82317344414517 2.0
vertex 11.0170719501347 2.82317344414517 -6.20779450928602e-16
endloop
endfacet
facet normal 0.410364677328798 -0.911921505175106 4.66526325232555e-17
outer loop
vertex 11.0170719501347 2.82317344414517 2.0
vertex 11.8886674404747 3.1790205528276 -3.30088586789303e-16
vertex 11.8886674404747 3.1790205528276 2.0
endloop
endfacet
facet normal 0.410364677328798 -0.911921505175106 4.66526325232555e-17
outer loop
vertex 11.0170719501347 2.82317344414517 -6.20779450928602e-16
vertex 10.1726978949494 2.40683425734122 2.0
vertex 10.1726978949494 2.40683425734122 -8.23129868232108e-16
endloop
endfacet
facet normal 0.47356107231148 -0.880760983917431 4.54874122412887e-17
outer loop
vertex 10.1726978949494 2.40683425734122 2.0
vertex 11.0170719501347 2.82317344414517 -6.20779450928602e-16
vertex 11.0170719501347 2.82317344414517 2.0
endloop
endfacet
facet normal 0.47356107231148 -0.880760983917431 4.54874122412888e-17
outer loop
vertex 10.1726978949494 2.40683425734122 -8.23129868232108e-16
vertex 9.35973739149964 1.93207001756597 2.0
vertex 9.35973739149964 1.93207001756597 -9.3613521695154e-16
endloop
endfacet
facet normal 0.534406349076951 -0.845227693622401 4.40963577642678e-17
outer loop
vertex 9.35973739149964 1.93207001756597 2.0
vertex 10.1726978949494 2.40683425734122 -8.23129868232108e-16
vertex 10.1726978949494 2.40683425734122 2.0
endloop
endfacet
facet normal 0.534406349076951 -0.845227693622401 4.40963577642678e-17
outer loop
vertex 9.35973739149964 1.93207001756597 -9.3613521695154e-16
vertex 8.58222659554505 1.40123781647725 2.0
vertex 8.58222659554505 1.40123781647725 -9.59234452377887e-16
endloop
endfacet
facet normal 0.59259842528145 -0.805498048634474 4.248637534719e-17
outer loop
vertex 8.58222659554505 1.40123781647725 2.0
vertex 9.35973739149964 1.93207001756597 -9.3613521695154e-16
vertex 9.35973739149964 1.93207001756597 2.0
endloop
endfacet
facet normal 0.59259842528145 -0.805498048634474 4.248637534719e-17
outer loop
vertex 8.58222659554505 1.40123781647725 2.0
vertex 7.8440256634695 0.816973109840402 -8.92312892295075e-16
vertex 8.58222659554505 1.40123781647725 -9.59234452377887e-16
endloop
endfacet
facet normal 0.647848391091675 -0.761769297202196 4.06654581702626e-17
outer loop
vertex 7.8440256634695 0.816973109840402 -8.92312892295075e-16
vertex 8.58222659554505 1.40123781647725 2.0
vertex 7.8440256634695 0.816973109840402 2.0
endloop
endfacet
facet normal 0.647848391091675 -0.761769297202196 4.06654581702625e-17
outer loop
vertex 7.8440256634695 0.816973109840402 2.0
vertex 7.14879958752183 0.182176633116506 -7.3570278634996e-16
vertex 7.8440256634695 0.816973109840402 -8.92312892295075e-16
endloop
endfacet
facet normal 0.699881943553456 -0.714258542187516 3.86426466546623e-17
outer loop
vertex 7.14879958752183 0.182176633116506 -7.3570278634996e-16
vertex 7.8440256634695 0.816973109840402 2.0
vertex 7.14879958752183 0.182176633116506 2.0
endloop
endfacet
facet normal 0.699881943553456 -0.714258542187516 3.86426466546623e-17
outer loop
vertex 7.14879958752183 0.182176633116506 -7.3570278634996e-16
vertex 6.50000000000001 -0.499999999999982 2.0
vertex 6.50000000000001 -0.499999999999982 -4.90181666511731e-16
endloop
endfacet
facet normal 0.724611175913868 -0.689157923658084 3.75586310639821e-17
outer loop
vertex 6.50000000000001 -0.499999999999982 2.0
vertex 7.14879958752183 0.182176633116506 -7.3570278634996e-16
vertex 7.14879958752183 0.182176633116506 2.0
endloop
endfacet
facet normal -1.0 -1.04422787727382e-33 -5.55446962084281e-18
outer loop
vertex 60.0 22.5 2.0
vertex 60.0 7.5 4.93494134445882e-15
vertex 60.0 7.5 2.0
endloop
endfacet
facet normal -1.0 -1.04422787727382e-33 -5.55446962084281e-18
outer loop
vertex 60.0 7.5 4.93494134445882e-15
vertex 60.0 22.5 2.0
vertex 60.0 22.5 2.11497486191092e-15
endloop
endfacet
facet normal -0.965925826289067 -0.258819045102527 7.2286946287074e-18
outer loop
vertex 59.9148145657227 23.1470476127563 2.0
vertex 60.0 22.5 2.11497486191092e-15
vertex 60.0 22.5 2.0
endloop
endfacet
facet normal -0.99144486137381 -0.130526192220056 8.44335914729945e-19
outer loop
vertex 60.0 22.5 2.11497486191092e-15
vertex 59.9148145657227 23.1470476127563 2.0
vertex 59.9148145657227 23.1470476127563 1.40998324127395e-15
endloop
endfacet
facet normal -0.866025403784441 -0.499999999999996 1.95192352852931e-17
outer loop
vertex 59.6650635094611 23.75 2.0
vertex 59.9148145657227 23.1470476127563 1.40998324127395e-15
vertex 59.9148145657227 23.1470476127563 2.0
endloop
endfacet
facet normal -0.965925826289067 -0.258819045102527 7.2286946287074e-18
outer loop
vertex 59.9148145657227 23.1470476127563 1.40998324127395e-15
vertex 59.6650635094611 23.75 2.0
vertex 59.6650635094611 23.75 1.40998324127395e-15
endloop
endfacet
facet normal -0.707106781186557 -0.707106781186538 3.04795723142477e-17
outer loop
vertex 59.2677669529664 24.2677669529664 2.0
vertex 59.6650635094611 23.75 1.40998324127395e-15
vertex 59.6650635094611 23.75 2.0
endloop
endfacet
facet normal -0.866025403784441 -0.499999999999996 1.95192352852931e-17
outer loop
vertex 59.6650635094611 23.75 1.40998324127395e-15
vertex 59.2677669529664 24.2677669529664 2.0
vertex 59.2677669529664 24.2677669529664 1.40998324127395e-15
endloop
endfacet
facet normal -0.707106781186557 -0.707106781186538 3.04795723142477e-17
outer loop
vertex 59.2677669529664 24.2677669529664 1.40998324127395e-15
vertex 58.75 24.6650635094611 2.0
vertex 58.75 24.6650635094611 7.04991620636974e-16
endloop
endfacet
facet normal -0.500000000000008 -0.866025403784434 3.93627768598617e-17
outer loop
vertex 58.75 24.6650635094611 2.0
vertex 59.2677669529664 24.2677669529664 1.40998324127395e-15
vertex 59.2677669529664 24.2677669529664 2.0
endloop
endfacet
facet normal -0.500000000000008 -0.866025403784434 3.93627768598617e-17
outer loop
vertex 58.75 24.6650635094611 2.0
vertex 58.1470476127563 24.9148145657227 7.04991620636974e-16
vertex 58.75 24.6650635094611 7.04991620636974e-16
endloop
endfacet
facet normal -0.258819045102526 -0.965925826289067 4.55634732125405e-17
outer loop
vertex 58.1470476127563 24.9148145657227 7.04991620636974e-16
vertex 58.75 24.6650635094611 2.0
vertex 58.1470476127563 24.9148145657227 2.0
endloop
endfacet
facet normal -0.258819045102526 -0.965925826289067 4.55634732125405e-17
outer loop
vertex 58.1470476127563 24.9148145657227 2.0
vertex 57.5 25.0 7.04991620636974e-16
vertex 58.1470476127563 24.9148145657227 7.04991620636974e-16
endloop
endfacet
facet normal 0.0 -1.0 4.86590941629842e-17
outer loop
vertex 57.5 25.0 7.04991620636974e-16
vertex 58.1470476127563 24.9148145657227 2.0
vertex 57.5 25.0 2.0
endloop
endfacet
facet normal 0.0 -1.0 4.86590941629842e-17
outer loop
vertex 57.5 25.0 2.0
vertex 56.8529523872437 24.9148145657227 7.04991620636974e-16
vertex 57.5 25.0 7.04991620636974e-16
endloop
endfacet
facet normal 0.258819045102526 -0.965925826289067 4.84386782591755e-17
outer loop
vertex 56.8529523872437 24.9148145657227 7.04991620636974e-16
vertex 57.5 25.0 2.0
vertex 56.8529523872437 24.9148145657227 2.0
endloop
endfacet
facet normal 0.258819045102526 -0.965925826289067 4.84386782591755e-17
outer loop
vertex 56.8529523872437 24.9148145657227 2.0
vertex 56.25 24.6650635094611 7.04991620636974e-16
vertex 56.8529523872437 24.9148145657227 7.04991620636974e-16
endloop
endfacet
facet normal 0.499999999999996 -0.866025403784441 4.49172464807049e-17
outer loop
vertex 56.25 24.6650635094611 7.04991620636974e-16
vertex 56.8529523872437 24.9148145657227 2.0
vertex 56.25 24.6650635094611 2.0
endloop
endfacet
facet normal 0.499999999999996 -0.866025403784441 4.49172464807049e-17
outer loop
vertex 56.25 24.6650635094611 2.0
vertex 55.7322330470336 24.2677669529664 1.40998324127395e-15
vertex 56.25 24.6650635094611 7.04991620636974e-16
endloop
endfacet
facet normal 0.707106781186545 -0.70710678118655 3.83347785838336e-17
outer loop
vertex 55.7322330470336 24.2677669529664 1.40998324127395e-15
vertex 56.25 24.6650635094611 2.0
vertex 55.7322330470336 24.2677669529664 2.0
endloop
endfacet
facet normal 0.707106781186545 -0.70710678118655 3.83347785838336e-17
outer loop
vertex 55.7322330470336 24.2677669529664 1.40998324127395e-15
vertex 55.3349364905389 23.75 2.0
vertex 55.3349364905389 23.75 1.40998324127395e-15
endloop
endfacet
facet normal 0.866025403784437 -0.500000000000002 2.9139858877691e-17
outer loop
vertex 55.3349364905389 23.75 2.0
vertex 55.7322330470336 24.2677669529664 1.40998324127395e-15
vertex 55.7322330470336 24.2677669529664 2.0
endloop
endfacet
facet normal 0.866025403784437 -0.500000000000002 2.9139858877691e-17
outer loop
vertex 55.3349364905389 23.75 1.40998324127395e-15
vertex 55.0851854342773 23.1470476127563 2.0
vertex 55.0851854342773 23.1470476127563 1.40998324127395e-15
endloop
endfacet
facet normal 0.96592582628907 -0.258819045102514 1.7959105944927e-17
outer loop
vertex 55.0851854342773 23.1470476127563 2.0
vertex 55.3349364905389 23.75 1.40998324127395e-15
vertex 55.3349364905389 23.75 2.0
endloop
endfacet
facet normal 0.96592582628907 -0.258819045102514 1.7959105944927e-17
outer loop
vertex 55.0851854342773 23.1470476127563 1.40998324127395e-15
vertex 55.0 22.5 2.0
vertex 55.0 22.5 2.11497486191092e-15
endloop
endfacet
facet normal 0.991444861373814 -0.130526192220022 1.18582366412114e-17
outer loop
vertex 55.0 22.5 2.0
vertex 55.0851854342773 23.1470476127563 1.40998324127395e-15
vertex 55.0851854342773 23.1470476127563 2.0
endloop
endfacet
facet normal 1.0 1.04422787727382e-33 5.55446962084281e-18
outer loop
vertex 55.0 22.5 2.11497486191092e-15
vertex 55.0 7.49999999999999 2.0
vertex 55.0 7.49999999999999 4.93494134445882e-15
endloop
endfacet
facet normal 1.0 1.04422787727382e-33 5.55446962084281e-18
outer loop
vertex 55.0 7.49999999999999 2.0
vertex 55.0 22.5 2.11497486191092e-15
vertex 55.0 22.5 2.0
endloop
endfacet
facet normal 0.991444861373814 0.130526192220022 -8.44335914728267e-19
outer loop
vertex 55.0 7.49999999999999 4.93494134445882e-15
vertex 55.0851854342773 6.85295238724369 2.0
vertex 55.0851854342773 6.85295238724369 4.93494134445882e-15
endloop
endfacet
facet normal 0.965925826289071 0.258819045102511 -7.22869462870658e-18
outer loop
vertex 55.0851854342773 6.85295238724369 2.0
vertex 55.0 7.49999999999999 4.93494134445882e-15
vertex 55.0 7.49999999999999 2.0
endloop
endfacet
facet normal 0.965925826289071 0.25881904510251 -7.22869462870657e-18
outer loop
vertex 55.0851854342773 6.85295238724369 4.93494134445882e-15
vertex 55.3349364905389 6.24999999999999 2.00000000000001
vertex 55.3349364905389 6.24999999999999 5.63993296509579e-15
endloop
endfacet
facet normal 0.866025403784435 0.500000000000006 -1.95192352852936e-17
outer loop
vertex 55.3349364905389 6.24999999999999 2.00000000000001
vertex 55.0851854342773 6.85295238724369 4.93494134445882e-15
vertex 55.0851854342773 6.85295238724369 2.0
endloop
endfacet
facet normal 0.866025403784435 0.500000000000006 -1.95192352852936e-17
outer loop
vertex 55.3349364905389 6.24999999999999 5.63993296509579e-15
vertex 55.7322330470336 5.73223304703362 2.00000000000001
vertex 55.7322330470336 5.73223304703362 5.63993296509579e-15
endloop
endfacet
facet normal 0.707106781186547 0.707106781186548 -3.04795723142483e-17
outer loop
vertex 55.7322330470336 5.73223304703362 2.00000000000001
vertex 55.3349364905389 6.24999999999999 5.63993296509579e-15
vertex 55.3349364905389 6.24999999999999 2.00000000000001
endloop
endfacet
facet normal 0.707106781186547 0.707106781186548 -3.04795723142483e-17
outer loop
vertex 55.7322330470336 5.73223304703362 2.00000000000001
vertex 56.25 5.33493649053889 5.63993296509579e-15
vertex 55.7322330470336 5.73223304703362 5.63993296509579e-15
endloop
endfacet
facet normal 0.500000000000002 0.866025403784437 -3.93627768598619e-17
outer loop
vertex 56.25 5.33493649053889 5.63993296509579e-15
vertex 55.7322330470336 5.73223304703362 2.00000000000001
vertex 56.25 5.33493649053889 2.00000000000001
endloop
endfacet
facet normal 0.500000000000002 0.866025403784437 -3.93627768598619e-17
outer loop
vertex 56.25 5.33493649053889 2.00000000000001
vertex 56.8529523872437 5.08518543427732 5.63993296509579e-15
vertex 56.25 5.33493649053889 5.63993296509579e-15
endloop
endfacet
facet normal 0.258819045102518 0.965925826289069 -4.55634732125406e-17
outer loop
vertex 56.8529523872437 5.08518543427732 5.63993296509579e-15
vertex 56.25 5.33493649053889 2.00000000000001
vertex 56.8529523872437 5.08518543427732 2.00000000000001
endloop
endfacet
facet normal 0.258819045102518 0.965925826289069 -4.55634732125406e-17
outer loop
vertex 56.8529523872437 5.08518543427732 2.00000000000001
vertex 57.5 4.99999999999999 5.63993296509579e-15
vertex 56.8529523872437 5.08518543427732 5.63993296509579e-15
endloop
endfacet
facet normal -4.28624385980616e-15 1.0 -4.86590941629842e-17
outer loop
vertex 57.5 4.99999999999999 5.63993296509579e-15
vertex 56.8529523872437 5.08518543427732 2.00000000000001
vertex 57.5 4.99999999999999 2.00000000000001
endloop
endfacet
facet normal -4.28624385980616e-15 1.0 -4.86590941629842e-17
outer loop
vertex 57.5 4.99999999999999 2.00000000000001
vertex 58.1470476127563 5.08518543427732 5.63993296509579e-15
vertex 57.5 4.99999999999999 5.63993296509579e-15
endloop
endfacet
facet normal -0.258819045102522 0.965925826289068 -4.84386782591756e-17
outer loop
vertex 58.1470476127563 5.08518543427732 5.63993296509579e-15
vertex 57.5 4.99999999999999 2.00000000000001
vertex 58.1470476127563 5.08518543427732 2.00000000000001
endloop
endfacet
facet normal -0.258819045102522 0.965925826289068 -4.84386782591756e-17
outer loop
vertex 58.1470476127563 5.08518543427732 2.00000000000001
vertex 58.75 5.3349364905389 5.63993296509579e-15
vertex 58.1470476127563 5.08518543427732 5.63993296509579e-15
endloop
endfacet
facet normal -0.500000000000002 0.866025403784437 -4.49172464807048e-17
outer loop
vertex 58.75 5.3349364905389 5.63993296509579e-15
vertex 58.1470476127563 5.08518543427732 2.00000000000001
vertex 58.75 5.3349364905389 2.00000000000001
endloop
endfacet
facet normal -0.500000000000002 0.866025403784437 -4.49172464807048e-17
outer loop
vertex 58.75 5.3349364905389 2.00000000000001
vertex 59.2677669529664 5.73223304703362 5.63993296509579e-15
vertex 58.75 5.3349364905389 5.63993296509579e-15
endloop
endfacet
facet normal -0.707106781186558 0.707106781186537 -3.8334778583833e-17
outer loop
vertex 59.2677669529664 5.73223304703362 5.63993296509579e-15
vertex 58.75 5.3349364905389 2.00000000000001
vertex 59.2677669529664 5.73223304703362 2.00000000000001
endloop
endfacet
facet normal -0.866025403784443 0.499999999999992 -2.91398588776905e-17
outer loop
vertex 59.6650635094611 6.25 2.00000000000001
vertex 59.2677669529664 5.73223304703362 5.63993296509579e-15
vertex 59.2677669529664 5.73223304703362 2.00000000000001
endloop
endfacet
facet normal -0.707106781186558 0.707106781186537 -3.8334778583833e-17
outer loop
vertex 59.2677669529664 5.73223304703362 5.63993296509579e-15
vertex 59.6650635094611 6.25 2.00000000000001
vertex 59.6650635094611 6.25 5.63993296509579e-15
endloop
endfacet
facet normal -0.965925826289067 0.258819045102527 -1.79591059449276e-17
outer loop
vertex 59.9148145657227 6.8529523872437 2.0
vertex 59.6650635094611 6.25 5.63993296509579e-15
vertex 59.6650635094611 6.25 2.00000000000001
endloop
endfacet
facet normal -0.866025403784443 0.499999999999992 -2.91398588776905e-17
outer loop
vertex 59.6650635094611 6.25 5.63993296509579e-15
vertex 59.9148145657227 6.8529523872437 2.0
vertex 59.9148145657227 6.8529523872437 4.93494134445882e-15
endloop
endfacet
facet normal -0.99144486137381 0.130526192220056 -1.1858236641213e-17
outer loop
vertex 60.0 7.5 2.0
vertex 59.9148145657227 6.8529523872437 4.93494134445882e-15
vertex 59.9148145657227 6.8529523872437 2.0
endloop
endfacet
facet normal -0.965925826289067 0.258819045102527 -1.79591059449276e-17
outer loop
vertex 59.9148145657227 6.8529523872437 4.93494134445882e-15
vertex 60.0 7.5 2.0
vertex 60.0 7.5 4.93494134445882e-15
endloop
endfacet
facet normal -5.55446962084281e-18 4.86590941629842e-17 1.0
outer loop
vertex 62.5 -2.7 2.0
vertex 47.5 4.0 2.0
vertex 47.5 -2.7 2.0
endloop
endfacet
facet normal -5.55446962084281e-18 4.86590941629842e-17 1.0
outer loop
vertex 47.5 4.0 2.0
vertex 62.5 -2.7 2.0
vertex 55.7322330470336 5.73223304703362 2.00000000000001
endloop
endfacet
facet normal -5.55446962084281e-18 4.86590941629842e-17 1.0
outer loop
vertex 47.5 4.0 2.0
vertex 55.7322330470336 5.73223304703362 2.00000000000001
vertex 55.3349364905389 6.24999999999999 2.00000000000001
endloop
endfacet
facet normal -5.55446962084281e-18 4.86590941629842e-17 1.0
outer loop
vertex 47.5 4.0 2.0
vertex 55.3349364905389 6.24999999999999 2.00000000000001
vertex 55.0851854342773 6.85295238724369 2.0
endloop
endfacet
facet normal -5.55446962084281e-18 4.86590941629842e-17 1.0
outer loop
vertex 47.5 4.0 2.0
vertex 55.0851854342773 6.85295238724369 2.0
vertex 55.0 7.49999999999999 2.0
endloop
endfacet
facet normal -5.55446962084281e-18 4.86590941629842e-17 1.0
outer loop
vertex 55.7322330470336 5.73223304703362 2.00000000000001
vertex 62.5 -2.7 2.0
vertex 56.25 5.33493649053889 2.00000000000001
endloop
endfacet
facet normal -5.55446962084281e-18 4.86590941629842e-17 1.0
outer loop
vertex 56.25 5.33493649053889 2.00000000000001
vertex 62.5 -2.7 2.0
vertex 56.8529523872437 5.08518543427732 2.00000000000001
endloop
endfacet
facet normal -5.55446962084281e-18 4.86590941629842e-17 1.0
outer loop
vertex 56.8529523872437 5.08518543427732 2.00000000000001
vertex 62.5 -2.7 2.0
vertex 57.5 4.99999999999999 2.00000000000001
endloop
endfacet
facet normal -5.55446962084281e-18 4.86590941629842e-17 1.0
outer loop
vertex 57.5 4.99999999999999 2.00000000000001
vertex 62.5 -2.7 2.0
vertex 58.1470476127563 5.08518543427732 2.00000000000001
endloop
endfacet
facet normal -5.55446962084281e-18 4.86590941629842e-17 1.0
outer loop
vertex 58.1470476127563 5.08518543427732 2.00000000000001
vertex 62.5 -2.7 2.0
vertex 58.75 5.3349364905389 2.00000000000001
endloop
endfacet
facet normal -5.55446962084281e-18 4.86590941629842e-17 1.0
outer loop
vertex 58.75 5.3349364905389 2.00000000000001
vertex 62.5 -2.7 2.0
vertex 59.2677669529664 5.73223304703362 2.00000000000001
endloop
endfacet
facet normal -5.55446962084281e-18 4.86590941629842e-17 1.0
outer loop
vertex 59.2677669529664 5.73223304703362 2.00000000000001
vertex 62.5 -2.7 2.0
vertex 59.6650635094611 6.25 2.00000000000001
endloop
endfacet
facet normal -5.55446962084281e-18 4.86590941629842e-17 1.0
outer loop
vertex 59.6650635094611 6.25 2.00000000000001
vertex 62.5 -2.7 2.0
vertex 59.9148145657227 6.8529523872437 2.0
endloop
endfacet
facet normal -5.55446962084281e-18 4.86590941629842e-17 1.0
outer loop
vertex 59.9148145657227 6.8529523872437 2.0
vertex 62.5 -2.7 2.0
vertex 60.0 7.5 2.0
endloop
endfacet
facet normal -5.55446962084281e-18 4.86590941629842e-17 1.0
outer loop
vertex 60.0 7.5 2.0
vertex 62.5 -2.7 2.0
vertex 60.0 22.5 2.0
endloop
endfacet
facet normal -5.55446962084281e-18 4.86590941629842e-17 1.0
outer loop
vertex 98.5000000000001 2.29999999999996 2.0
vertex 62.5 27.7 2.0
vertex 62.5 2.29999999999996 2.0
endloop
endfacet
facet normal -5.55446962084281e-18 4.86590941629842e-17 1.0
outer loop
vertex 62.5 27.7 2.0
vertex 98.5000000000001 2.29999999999996 2.0
vertex 98.5000000000001 27.7 2.0
endloop
endfacet
facet normal -5.55446962084281e-18 4.86590941629842e-17 1.0
outer loop
vertex 6.50000000000001 -0.499999999999982 2.0
vertex 0.0 12.0 2.0
vertex 0.0 -0.499999999999982 2.0
endloop
endfacet
facet normal -5.55446962084281e-18 4.86590941629842e-17 1.0
outer loop
vertex 0.0 12.0 2.0
vertex 6.50000000000001 -0.499999999999982 2.0
vertex 10.0 28.0 2.0
endloop
endfacet
facet normal -5.55446962084281e-18 4.86590941629842e-17 1.0
outer loop
vertex 10.0 28.0 2.0
vertex 6.50000000000001 -0.499999999999982 2.0
vertex 7.14879958752183 0.182176633116506 2.0
endloop
endfacet
facet normal -5.55446962084281e-18 4.86590941629842e-17 1.0
outer loop
vertex 10.0 28.0 2.0
vertex 7.14879958752183 0.182176633116506 2.0
vertex 7.8440256634695 0.816973109840402 2.0
endloop
endfacet
facet normal -5.55446962084281e-18 4.86590941629842e-17 1.0
outer loop
vertex 10.0 28.0 2.0
vertex 7.8440256634695 0.816973109840402 2.0
vertex 8.58222659554505 1.40123781647725 2.0
endloop
endfacet
facet normal -5.55446962084281e-18 4.86590941629842e-17 1.0
outer loop
vertex 10.0 28.0 2.0
vertex 8.58222659554505 1.40123781647725 2.0
vertex 9.35973739149964 1.93207001756597 2.0
endloop
endfacet
facet normal -5.55446962084281e-18 4.86590941629842e-17 1.0
outer loop
vertex 10.0 28.0 2.0
vertex 9.35973739149964 1.93207001756597 2.0
vertex 10.1726978949494 2.40683425734122 2.0
endloop
endfacet
facet normal -5.55446962084281e-18 4.86590941629842e-17 1.0
outer loop
vertex 10.0 28.0 2.0
vertex 10.1726978949494 2.40683425734122 2.0
vertex 57.5 28.0 2.0
endloop
endfacet
facet normal -5.55446962084281e-18 4.86590941629842e-17 1.0
outer loop
vertex 57.5 28.0 2.0
vertex 10.1726978949494 2.40683425734122 2.0
vertex 11.0170719501347 2.82317344414517 2.0
endloop
endfacet
facet normal -5.55446962084281e-18 4.86590941629842e-17 1.0
outer loop
vertex 57.5 28.0 2.0
vertex 11.0170719501347 2.82317344414517 2.0
vertex 11.8886674404747 3.1790205528276 2.0
endloop
endfacet
facet normal -5.55446962084281e-18 4.86590941629842e-17 1.0
outer loop
vertex 57.5 28.0 2.0
vertex 11.8886674404747 3.1790205528276 2.0
vertex 12.7831571014301 3.47260888703468 2.0
endloop
endfacet
facet normal -5.55446962084281e-18 4.86590941629842e-17 1.0
outer loop
vertex 57.5 28.0 2.0
vertex 12.7831571014301 3.47260888703468 2.0
vertex 13.6961000043437 3.70248085043666 2.0
endloop
endfacet
facet normal -5.55446962084281e-18 4.86590941629842e-17 1.0
outer loop
vertex 57.5 28.0 2.0
vertex 13.6961000043437 3.70248085043666 2.0
vertex 14.6229636045961 3.86749518334734 2.0
endloop
endfacet
facet normal -5.55446962084281e-18 4.86590941629842e-17 1.0
outer loop
vertex 57.5 28.0 2.0
vertex 14.6229636045961 3.86749518334734 2.0
vertex 15.5591462446125 3.96683262880729 2.0
endloop
endfacet
facet normal -5.55446962084281e-18 4.86590941629842e-17 1.0
outer loop
vertex 57.5 28.0 2.0
vertex 15.5591462446125 3.96683262880729 2.0
vertex 16.5 4.0 2.0
endloop
endfacet
facet normal -5.55446962084281e-18 4.86590941629842e-17 1.0
outer loop
vertex 57.5 28.0 2.0
vertex 16.5 4.0 2.0
vertex 55.3349364905389 23.75 2.0
endloop
endfacet
facet normal -5.55446962084281e-18 4.86590941629842e-17 1.0
outer loop
vertex 55.3349364905389 23.75 2.0
vertex 16.5 4.0 2.0
vertex 55.0851854342773 23.1470476127563 2.0
endloop
endfacet
facet normal -5.55446962084281e-18 4.86590941629842e-17 1.0
outer loop
vertex 55.0851854342773 23.1470476127563 2.0
vertex 16.5 4.0 2.0
vertex 47.5 4.0 2.0
endloop
endfacet
facet normal -5.55446962084281e-18 4.86590941629842e-17 1.0
outer loop
vertex 55.0851854342773 23.1470476127563 2.0
vertex 47.5 4.0 2.0
vertex 55.0 22.5 2.0
endloop
endfacet
facet normal -5.55446962084281e-18 4.86590941629842e-17 1.0
outer loop
vertex 55.0 22.5 2.0
vertex 47.5 4.0 2.0
vertex 55.0 7.49999999999999 2.0
endloop
endfacet
facet normal -5.55446962084281e-18 4.86590941629842e-17 1.0
outer loop
vertex 57.5 28.0 2.0
vertex 55.3349364905389 23.75 2.0
vertex 55.7322330470336 24.2677669529664 2.0
endloop
endfacet
facet normal -5.55446962084281e-18 4.86590941629842e-17 1.0
outer loop
vertex 57.5 28.0 2.0
vertex 55.7322330470336 24.2677669529664 2.0
vertex 56.25 24.6650635094611 2.0
endloop
endfacet
facet normal -5.55446962084281e-18 4.86590941629842e-17 1.0
outer loop
vertex 57.5 28.0 2.0
vertex 56.25 24.6650635094611 2.0
vertex 56.8529523872437 24.9148145657227 2.0
endloop
endfacet
facet normal -5.55446962084281e-18 4.86590941629842e-17 1.0
outer loop
vertex 57.5 28.0 2.0
vertex 56.8529523872437 24.9148145657227 2.0
vertex 57.5 25.0 2.0
endloop
endfacet
facet normal -5.55446962084281e-18 4.86590941629842e-17 1.0
outer loop
vertex 57.5 28.0 2.0
vertex 57.5 25.0 2.0
vertex 58.1470476127563 24.9148145657227 2.0
endloop
endfacet
facet normal -5.55446962084281e-18 4.86590941629842e-17 1.0
outer loop
vertex 57.5 28.0 2.0
vertex 58.1470476127563 24.9148145657227 2.0
vertex 57.5 30.0 2.0
endloop
endfacet
facet normal -5.55446962084281e-18 4.86590941629842e-17 1.0
outer loop
vertex 57.5 30.0 2.0
vertex 58.1470476127563 24.9148145657227 2.0
vertex 62.5 30.0 2.0
endloop
endfacet
facet normal -5.55446962084281e-18 4.86590941629842e-17 1.0
outer loop
vertex 62.5 30.0 2.0
vertex 58.1470476127563 24.9148145657227 2.0
vertex 58.75 24.6650635094611 2.0
endloop
endfacet
facet normal -5.55446962084281e-18 4.86590941629842e-17 1.0
outer loop
vertex 62.5 30.0 2.0
vertex 58.75 24.6650635094611 2.0
vertex 59.2677669529664 24.2677669529664 2.0
endloop
endfacet
facet normal -5.55446962084281e-18 4.86590941629842e-17 1.0
outer loop
vertex 62.5 30.0 2.0
vertex 59.2677669529664 24.2677669529664 2.0
vertex 59.6650635094611 23.75 2.0
endloop
endfacet
facet normal -5.55446962084281e-18 4.86590941629842e-17 1.0
outer loop
vertex 62.5 30.0 2.0
vertex 59.6650635094611 23.75 2.0
vertex 59.9148145657227 23.1470476127563 2.0
endloop
endfacet
facet normal -5.55446962084281e-18 4.86590941629842e-17 1.0
outer loop
vertex 62.5 30.0 2.0
vertex 59.9148145657227 23.1470476127563 2.0
vertex 60.0 22.5 2.0
endloop
endfacet
facet normal -5.55446962084281e-18 4.86590941629842e-17 1.0
outer loop
vertex 62.5 30.0 2.0
vertex 60.0 22.5 2.0
vertex 62.5 -2.7 2.0
endloop
endfacet
facet normal -5.55446962084281e-18 4.86590941629842e-17 1.0
outer loop
vertex 62.5 30.0 2.0
vertex 62.5 -2.7 2.0
vertex 62.5 2.29999999999996 2.0
endloop
endfacet
facet normal -5.55446962084281e-18 4.86590941629842e-17 1.0
outer loop
vertex 62.5 30.0 2.0
vertex 62.5 2.29999999999996 2.0
vertex 62.5 27.7 2.0
endloop
endfacet
facet normal -5.55446962084281e-18 4.86590941629842e-17 1.0
outer loop
vertex 113.5 -2.7 2.0
vertex 98.5000000000001 2.29999999999996 2.0
vertex 98.5000000000001 -2.7 2.0
endloop
endfacet
facet normal -5.55446962084281e-18 4.86590941629842e-17 1.0
outer loop
vertex 98.5000000000001 2.29999999999996 2.0
vertex 113.5 -2.7 2.0
vertex 98.5000000000001 27.7 2.0
endloop
endfacet
facet normal -5.55446962084281e-18 4.86590941629842e-17 1.0
outer loop
vertex 98.5000000000001 27.7 2.0
vertex 113.5 -2.7 2.0
vertex 98.5000000000001 30.0 2.0
endloop
endfacet
facet normal -5.55446962084281e-18 4.86590941629842e-17 1.0
outer loop
vertex 98.5000000000001 30.0 2.0
vertex 113.5 -2.7 2.0
vertex 103.5 28.0 2.0
endloop
endfacet
facet normal -5.55446962084281e-18 4.86590941629842e-17 1.0
outer loop
vertex 103.5 28.0 2.0
vertex 113.5 -2.7 2.0
vertex 113.5 3.99999999999999 2.0
endloop
endfacet
facet normal -5.55446962084281e-18 4.86590941629842e-17 1.0
outer loop
vertex 103.5 28.0 2.0
vertex 113.5 3.99999999999999 2.0
vertex 151.0 28.0 2.0
endloop
endfacet
facet normal -5.55446962084281e-18 4.86590941629842e-17 1.0
outer loop
vertex 151.0 28.0 2.0
vertex 113.5 3.99999999999999 2.0
vertex 144.5 3.99999999999999 2.0
endloop
endfacet
facet normal -5.55446962084281e-18 4.86590941629842e-17 1.0
outer loop
vertex 151.0 28.0 2.0
vertex 144.5 3.99999999999999 2.0
vertex 145.440853755388 3.96683262880727 2.0
endloop
endfacet
facet normal -5.55446962084281e-18 4.86590941629842e-17 1.0
outer loop
vertex 151.0 28.0 2.0
vertex 145.440853755388 3.96683262880727 2.0
vertex 146.377036395404 3.86749518334733 2.0
endloop
endfacet
facet normal -5.55446962084281e-18 4.86590941629842e-17 1.0
outer loop
vertex 151.0 28.0 2.0
vertex 146.377036395404 3.86749518334733 2.0
vertex 147.303899995656 3.70248085043665 2.0
endloop
endfacet
facet normal -5.55446962084281e-18 4.86590941629842e-17 1.0
outer loop
vertex 151.0 28.0 2.0
vertex 147.303899995656 3.70248085043665 2.0
vertex 148.21684289857 3.47260888703467 2.0
endloop
endfacet
facet normal -5.55446962084281e-18 4.86590941629842e-17 1.0
outer loop
vertex 151.0 28.0 2.0
vertex 148.21684289857 3.47260888703467 2.0
vertex 149.111332559525 3.1790205528276 2.0
endloop
endfacet
facet normal -5.55446962084281e-18 4.86590941629842e-17 1.0
outer loop
vertex 151.0 28.0 2.0
vertex 149.111332559525 3.1790205528276 2.0
vertex 149.982928049865 2.82317344414517 2.0
endloop
endfacet
facet normal -5.55446962084281e-18 4.86590941629842e-17 1.0
outer loop
vertex 151.0 28.0 2.0
vertex 149.982928049865 2.82317344414517 2.0
vertex 150.827302105051 2.40683425734122 2.0
endloop
endfacet
facet normal -5.55446962084281e-18 4.86590941629842e-17 1.0
outer loop
vertex 151.0 28.0 2.0
vertex 150.827302105051 2.40683425734122 2.0
vertex 151.640262608501 1.93207001756597 2.0
endloop
endfacet
facet normal -5.55446962084281e-18 4.86590941629842e-17 1.0
outer loop
vertex 151.0 28.0 2.0
vertex 151.640262608501 1.93207001756597 2.0
vertex 161.000000000001 12.0 2.0
endloop
endfacet
facet normal -5.55446962084281e-18 4.86590941629842e-17 1.0
outer loop
vertex 161.000000000001 12.0 2.0
vertex 151.640262608501 1.93207001756597 2.0
vertex 152.417773404455 1.40123781647725 2.0
endloop
endfacet
facet normal -5.55446962084281e-18 4.86590941629842e-17 1.0
outer loop
vertex 161.000000000001 12.0 2.0
vertex 152.417773404455 1.40123781647725 2.0
vertex 153.155974336531 0.816973109840402 2.0
endloop
endfacet
facet normal -5.55446962084281e-18 4.86590941629842e-17 1.0
outer loop
vertex 161.000000000001 12.0 2.0
vertex 153.155974336531 0.816973109840402 2.0
vertex 153.851200412478 0.182176633116506 2.0
endloop
endfacet
facet normal -5.55446962084281e-18 4.86590941629842e-17 1.0
outer loop
vertex 161.000000000001 12.0 2.0
vertex 153.851200412478 0.182176633116506 2.0
vertex 154.5 -0.499999999999982 2.0
endloop
endfacet
facet normal -5.55446962084281e-18 4.86590941629842e-17 1.0
outer loop
vertex 161.000000000001 12.0 2.0
vertex 154.5 -0.499999999999982 2.0
vertex 161.000000000001 -0.499999999999982 2.0
endloop
endfacet
facet normal -5.55446962084281e-18 4.86590941629842e-17 1.0
outer loop
vertex 103.5 30.0 2.0
vertex 98.5000000000001 30.0 2.0
vertex 103.5 28.0 2.0
endloop
endfacet
endsolid Deslizador
