solid Deslizador
facet normal -1.56987952677226e-032 -3.66082923059827e-017 -1.0
outer loop
vertex 62.5 30.0 0.0
vertex 57.5 28.0 0.0
vertex 57.5 30.0 0.0
endloop
endfacet
facet normal -1.56987952677226e-032 -3.66082923059827e-017 -1.0
outer loop
vertex 57.5 28.0 0.0
vertex 62.5 30.0 0.0
vertex 57.5 25.0 7.04991620636974e-016
endloop
endfacet
facet normal -1.56987952677226e-032 -3.66082923059827e-017 -1.0
outer loop
vertex 57.5 25.0 7.04991620636974e-016
vertex 62.5 30.0 0.0
vertex 58.1470476127563 24.9148145657227 7.04991620636974e-016
endloop
endfacet
facet normal -1.56987952677226e-032 -3.66082923059827e-017 -1.0
outer loop
vertex 58.1470476127563 24.9148145657227 7.04991620636974e-016
vertex 62.5 30.0 0.0
vertex 58.75 24.6650635094611 7.04991620636974e-016
endloop
endfacet
facet normal -1.56987952677226e-032 -3.66082923059827e-017 -1.0
outer loop
vertex 58.75 24.6650635094611 7.04991620636974e-016
vertex 62.5 30.0 0.0
vertex 59.2677669529664 24.2677669529664 1.40998324127395e-015
endloop
endfacet
facet normal -1.56987952677226e-032 -3.66082923059827e-017 -1.0
outer loop
vertex 59.2677669529664 24.2677669529664 1.40998324127395e-015
vertex 62.5 30.0 0.0
vertex 59.6650635094611 23.75 1.40998324127395e-015
endloop
endfacet
facet normal -1.56987952677226e-032 -3.66082923059827e-017 -1.0
outer loop
vertex 59.6650635094611 23.75 1.40998324127395e-015
vertex 62.5 30.0 0.0
vertex 59.9148145657227 23.1470476127563 1.40998324127395e-015
endloop
endfacet
facet normal -1.56987952677226e-032 -3.66082923059827e-017 -1.0
outer loop
vertex 59.9148145657227 23.1470476127563 1.40998324127395e-015
vertex 62.5 30.0 0.0
vertex 60.0 22.5 2.11497486191092e-015
endloop
endfacet
facet normal -1.56987952677226e-032 -3.66082923059827e-017 -1.0
outer loop
vertex 60.0 22.5 2.11497486191092e-015
vertex 62.5 30.0 0.0
vertex 60.0 7.5 4.93494134445882e-015
endloop
endfacet
facet normal -1.56987952677226e-032 -3.66082923059827e-017 -1.0
outer loop
vertex 151.0 28.0 0.0
vertex 113.5 3.99999999999999 4.22994972382185e-015
vertex 103.5 28.0 0.0
endloop
endfacet
facet normal -1.56987952677226e-032 -3.66082923059827e-017 -1.0
outer loop
vertex 113.5 3.99999999999999 4.22994972382185e-015
vertex 151.0 28.0 0.0
vertex 149.0 3.99999999999999 0.0
endloop
endfacet
facet normal -1.56987952677226e-032 -3.66082923059827e-017 -1.0
outer loop
vertex 149.0 3.99999999999999 0.0
vertex 151.0 28.0 0.0
vertex 149.91699249629 3.95971904474542 0.0
endloop
endfacet
facet normal -1.56987952677226e-032 -3.66082923059827e-017 -1.0
outer loop
vertex 149.91699249629 3.95971904474542 0.0
vertex 151.0 28.0 0.0
vertex 150.829804473724 3.86342736566812 0.0
endloop
endfacet
facet normal -1.56987952677226e-032 -3.66082923059827e-017 -1.0
outer loop
vertex 150.829804473724 3.86342736566812 0.0
vertex 151.0 28.0 0.0
vertex 151.735017967516 3.71148552066677 0.0
endloop
endfacet
facet normal -1.56987952677226e-032 -3.66082923059827e-017 -1.0
outer loop
vertex 151.735017967516 3.71148552066677 0.0
vertex 151.0 28.0 0.0
vertex 161.000000000001 12.0 0.0
endloop
endfacet
facet normal -1.56987952677226e-032 -3.66082923059827e-017 -1.0
outer loop
vertex 151.735017967516 3.71148552066677 0.0
vertex 161.000000000001 12.0 0.0
vertex 152.629243464907 3.50446244604866 0.0
endloop
endfacet
facet normal -1.56987952677226e-032 -3.66082923059827e-017 -1.0
outer loop
vertex 152.629243464907 3.50446244604866 0.0
vertex 161.000000000001 12.0 0.0
vertex 153.509132596967 3.24313332618536 0.0
endloop
endfacet
facet normal -1.56987952677226e-032 -3.66082923059827e-017 -1.0
outer loop
vertex 153.509132596967 3.24313332618536 0.0
vertex 161.000000000001 12.0 0.0
vertex 154.371390676354 2.9284766908853 0.0
endloop
endfacet
facet normal -1.56987952677226e-032 -3.66082923059827e-017 -1.0
outer loop
vertex 154.371390676354 2.9284766908853 0.0
vertex 161.000000000001 12.0 0.0
vertex 155.212789034049 2.56167075135278 0.0
endloop
endfacet
facet normal -1.56987952677226e-032 -3.66082923059827e-017 -1.0
outer loop
vertex 155.212789034049 2.56167075135278 0.0
vertex 161.000000000001 12.0 0.0
vertex 156.030177108895 2.14408898845334 0.0
endloop
endfacet
facet normal -1.56987952677226e-032 -3.66082923059827e-017 -1.0
outer loop
vertex 156.030177108895 2.14408898845334 0.0
vertex 161.000000000001 12.0 0.0
vertex 156.274130548443 1.99999999999999 0.0
endloop
endfacet
facet normal -1.56987952677226e-032 -3.66082923059827e-017 -1.0
outer loop
vertex 156.274130548443 1.99999999999999 0.0
vertex 161.000000000001 12.0 0.0
vertex 156.820494244672 1.67729500980433 0.0
endloop
endfacet
facet normal -1.56987952677226e-032 -3.66082923059827e-017 -1.0
outer loop
vertex 156.820494244672 1.67729500980433 0.0
vertex 161.000000000001 12.0 0.0
vertex 157.580781150524 1.16303669494827 0.0
endloop
endfacet
facet normal -1.56987952677226e-032 -3.66082923059827e-017 -1.0
outer loop
vertex 157.580781150524 1.16303669494827 0.0
vertex 161.000000000001 12.0 0.0
vertex 158.308190981823 0.603239650532321 0.0
endloop
endfacet
facet normal -1.56987952677226e-032 -3.66082923059827e-017 -1.0
outer loop
vertex 158.308190981823 0.603239650532321 0.0
vertex 161.000000000001 12.0 0.0
vertex 159.0 1.69197988952874e-014 0.0
endloop
endfacet
facet normal -1.56987952677226e-032 -3.66082923059827e-017 -1.0
outer loop
vertex 159.0 1.69197988952874e-014 0.0
vertex 161.000000000001 12.0 0.0
vertex 161.000000000001 1.69197988952874e-014 0.0
endloop
endfacet
facet normal -1.56987952677226e-032 -3.66082923059827e-017 -1.0
outer loop
vertex 103.5 30.0 0.0
vertex 98.5000000000001 27.2 0.0
vertex 98.5000000000001 30.0 0.0
endloop
endfacet
facet normal -1.56987952677226e-032 -3.66082923059827e-017 -1.0
outer loop
vertex 98.5000000000001 27.2 0.0
vertex 103.5 30.0 0.0
vertex 98.5000000000001 2.79999999999995 4.22994972382185e-015
endloop
endfacet
facet normal -1.56987952677226e-032 -3.66082923059827e-017 -1.0
outer loop
vertex 98.5000000000001 2.79999999999995 4.22994972382185e-015
vertex 103.5 30.0 0.0
vertex 98.5000000000001 -2.7 4.22994972382185e-015
endloop
endfacet
facet normal -1.56987952677226e-032 -3.66082923059827e-017 -1.0
outer loop
vertex 98.5000000000001 -2.7 4.22994972382185e-015
vertex 103.5 30.0 0.0
vertex 103.5 28.0 0.0
endloop
endfacet
facet normal -1.56987952677226e-032 -3.66082923059827e-017 -1.0
outer loop
vertex 98.5000000000001 -2.7 4.22994972382185e-015
vertex 103.5 28.0 0.0
vertex 113.5 -2.7 4.22994972382185e-015
endloop
endfacet
facet normal -1.56987952677226e-032 -3.66082923059827e-017 -1.0
outer loop
vertex 113.5 -2.7 4.22994972382185e-015
vertex 103.5 28.0 0.0
vertex 113.5 3.99999999999999 4.22994972382185e-015
endloop
endfacet
facet normal -1.56987952677226e-032 -3.66082923059827e-017 -1.0
outer loop
vertex 98.5000000000001 27.2 0.0
vertex 62.5 2.79999999999995 4.22994972382185e-015
vertex 62.5 27.2 0.0
endloop
endfacet
facet normal -1.56987952677226e-032 -3.66082923059827e-017 -1.0
outer loop
vertex 62.5 2.79999999999995 4.22994972382185e-015
vertex 98.5000000000001 27.2 0.0
vertex 98.5000000000001 2.79999999999995 4.22994972382185e-015
endloop
endfacet
facet normal -1.56987952677226e-032 -3.66082923059827e-017 -1.0
outer loop
vertex 47.5 -2.7 4.22994972382185e-015
vertex 55.7322330470336 5.73223304703362 5.63993296509579e-015
vertex 62.5 -2.7 4.22994972382185e-015
endloop
endfacet
facet normal -1.56987952677226e-032 -3.66082923059827e-017 -1.0
outer loop
vertex 55.7322330470336 5.73223304703362 5.63993296509579e-015
vertex 47.5 -2.7 4.22994972382185e-015
vertex 55.3349364905389 6.24999999999999 5.63993296509579e-015
endloop
endfacet
facet normal -1.56987952677226e-032 -3.66082923059827e-017 -1.0
outer loop
vertex 55.3349364905389 6.24999999999999 5.63993296509579e-015
vertex 47.5 -2.7 4.22994972382185e-015
vertex 55.0851854342773 6.85295238724369 4.93494134445882e-015
endloop
endfacet
facet normal -1.56987952677226e-032 -3.66082923059827e-017 -1.0
outer loop
vertex 55.0851854342773 6.85295238724369 4.93494134445882e-015
vertex 47.5 -2.7 4.22994972382185e-015
vertex 55.0 7.49999999999999 4.93494134445882e-015
endloop
endfacet
facet normal -1.56987952677226e-032 -3.66082923059827e-017 -1.0
outer loop
vertex 55.0 7.49999999999999 4.93494134445882e-015
vertex 47.5 -2.7 4.22994972382185e-015
vertex 55.0 22.5 2.11497486191092e-015
endloop
endfacet
facet normal -1.56987952677226e-032 -3.66082923059827e-017 -1.0
outer loop
vertex 62.5 -2.7 4.22994972382185e-015
vertex 55.7322330470336 5.73223304703362 5.63993296509579e-015
vertex 56.25 5.33493649053889 5.63993296509579e-015
endloop
endfacet
facet normal -1.56987952677226e-032 -3.66082923059827e-017 -1.0
outer loop
vertex 62.5 -2.7 4.22994972382185e-015
vertex 56.25 5.33493649053889 5.63993296509579e-015
vertex 56.8529523872437 5.08518543427732 5.63993296509579e-015
endloop
endfacet
facet normal -1.56987952677226e-032 -3.66082923059827e-017 -1.0
outer loop
vertex 62.5 -2.7 4.22994972382185e-015
vertex 56.8529523872437 5.08518543427732 5.63993296509579e-015
vertex 57.5 4.99999999999999 5.63993296509579e-015
endloop
endfacet
facet normal -1.56987952677226e-032 -3.66082923059827e-017 -1.0
outer loop
vertex 62.5 -2.7 4.22994972382185e-015
vertex 57.5 4.99999999999999 5.63993296509579e-015
vertex 58.1470476127563 5.08518543427732 5.63993296509579e-015
endloop
endfacet
facet normal -1.56987952677226e-032 -3.66082923059827e-017 -1.0
outer loop
vertex 62.5 -2.7 4.22994972382185e-015
vertex 58.1470476127563 5.08518543427732 5.63993296509579e-015
vertex 58.75 5.3349364905389 5.63993296509579e-015
endloop
endfacet
facet normal -1.56987952677226e-032 -3.66082923059827e-017 -1.0
outer loop
vertex 62.5 -2.7 4.22994972382185e-015
vertex 58.75 5.3349364905389 5.63993296509579e-015
vertex 59.2677669529664 5.73223304703363 5.63993296509579e-015
endloop
endfacet
facet normal -1.56987952677226e-032 -3.66082923059827e-017 -1.0
outer loop
vertex 62.5 -2.7 4.22994972382185e-015
vertex 59.2677669529664 5.73223304703363 5.63993296509579e-015
vertex 59.6650635094611 6.25 5.63993296509579e-015
endloop
endfacet
facet normal -1.56987952677226e-032 -3.66082923059827e-017 -1.0
outer loop
vertex 62.5 -2.7 4.22994972382185e-015
vertex 59.6650635094611 6.25 5.63993296509579e-015
vertex 59.9148145657227 6.85295238724369 4.93494134445882e-015
endloop
endfacet
facet normal -1.56987952677226e-032 -3.66082923059827e-017 -1.0
outer loop
vertex 62.5 -2.7 4.22994972382185e-015
vertex 59.9148145657227 6.85295238724369 4.93494134445882e-015
vertex 60.0 7.5 4.93494134445882e-015
endloop
endfacet
facet normal -1.56987952677226e-032 -3.66082923059827e-017 -1.0
outer loop
vertex 62.5 -2.7 4.22994972382185e-015
vertex 60.0 7.5 4.93494134445882e-015
vertex 62.5 30.0 0.0
endloop
endfacet
facet normal -1.56987952677226e-032 -3.66082923059827e-017 -1.0
outer loop
vertex 62.5 -2.7 4.22994972382185e-015
vertex 62.5 30.0 0.0
vertex 62.5 27.2 0.0
endloop
endfacet
facet normal -1.56987952677226e-032 -3.66082923059827e-017 -1.0
outer loop
vertex 62.5 -2.7 4.22994972382185e-015
vertex 62.5 27.2 0.0
vertex 62.5 2.79999999999995 4.22994972382185e-015
endloop
endfacet
facet normal -1.56987952677226e-032 -3.66082923059827e-017 -1.0
outer loop
vertex 10.0 28.0 0.0
vertex 0.0 7.04991620636974e-016 0.0
vertex 0.0 12.0 0.0
endloop
endfacet
facet normal -1.56987952677226e-032 -3.66082923059827e-017 -1.0
outer loop
vertex 0.0 7.04991620636974e-016 0.0
vertex 10.0 28.0 0.0
vertex 2.0 7.04991620636974e-016 0.0
endloop
endfacet
facet normal -1.56987952677226e-032 -3.66082923059827e-017 -1.0
outer loop
vertex 2.0 7.04991620636974e-016 0.0
vertex 10.0 28.0 0.0
vertex 2.69180901817811 0.603239650532307 0.0
endloop
endfacet
facet normal -1.56987952677226e-032 -3.66082923059827e-017 -1.0
outer loop
vertex 2.69180901817811 0.603239650532307 0.0
vertex 10.0 28.0 0.0
vertex 3.41921884947687 1.16303669494824 0.0
endloop
endfacet
facet normal -1.56987952677226e-032 -3.66082923059827e-017 -1.0
outer loop
vertex 3.41921884947687 1.16303669494824 0.0
vertex 10.0 28.0 0.0
vertex 4.17950575532775 1.6772950098043 0.0
endloop
endfacet
facet normal -1.56987952677226e-032 -3.66082923059827e-017 -1.0
outer loop
vertex 4.17950575532775 1.6772950098043 0.0
vertex 10.0 28.0 0.0
vertex 4.72586945155786 2.0 0.0
endloop
endfacet
facet normal -1.56987952677226e-032 -3.66082923059827e-017 -1.0
outer loop
vertex 4.72586945155786 2.0 0.0
vertex 10.0 28.0 0.0
vertex 4.96982289110548 2.14408898845334 0.0
endloop
endfacet
facet normal -1.56987952677226e-032 -3.66082923059827e-017 -1.0
outer loop
vertex 4.96982289110548 2.14408898845334 0.0
vertex 10.0 28.0 0.0
vertex 5.78721096595165 2.56167075135276 0.0
endloop
endfacet
facet normal -1.56987952677226e-032 -3.66082923059827e-017 -1.0
outer loop
vertex 5.78721096595165 2.56167075135276 0.0
vertex 10.0 28.0 0.0
vertex 6.62860932364589 2.92847669088526 0.0
endloop
endfacet
facet normal -1.56987952677226e-032 -3.66082923059827e-017 -1.0
outer loop
vertex 6.62860932364589 2.92847669088526 0.0
vertex 10.0 28.0 0.0
vertex 7.49086740303312 3.24313332618535 0.0
endloop
endfacet
facet normal -1.56987952677226e-032 -3.66082923059827e-017 -1.0
outer loop
vertex 7.49086740303312 3.24313332618535 0.0
vertex 10.0 28.0 0.0
vertex 8.37075653509373 3.50446244604864 0.0
endloop
endfacet
facet normal -1.56987952677226e-032 -3.66082923059827e-017 -1.0
outer loop
vertex 8.37075653509373 3.50446244604864 0.0
vertex 10.0 28.0 0.0
vertex 9.26498203248383 3.71148552066673 0.0
endloop
endfacet
facet normal -1.56987952677226e-032 -3.66082923059827e-017 -1.0
outer loop
vertex 9.26498203248383 3.71148552066673 0.0
vertex 10.0 28.0 0.0
vertex 10.1701955262766 3.86342736566813 0.0
endloop
endfacet
facet normal -1.56987952677226e-032 -3.66082923059827e-017 -1.0
outer loop
vertex 10.1701955262766 3.86342736566813 0.0
vertex 10.0 28.0 0.0
vertex 57.5 28.0 0.0
endloop
endfacet
facet normal -1.56987952677226e-032 -3.66082923059827e-017 -1.0
outer loop
vertex 10.1701955262766 3.86342736566813 0.0
vertex 57.5 28.0 0.0
vertex 11.0830075037108 3.95971904474538 0.0
endloop
endfacet
facet normal -1.56987952677226e-032 -3.66082923059827e-017 -1.0
outer loop
vertex 11.0830075037108 3.95971904474538 0.0
vertex 57.5 28.0 0.0
vertex 12.0 4.0 0.0
endloop
endfacet
facet normal -1.56987952677226e-032 -3.66082923059827e-017 -1.0
outer loop
vertex 12.0 4.0 0.0
vertex 57.5 28.0 0.0
vertex 55.3349364905389 23.75 1.40998324127395e-015
endloop
endfacet
facet normal -1.56987952677226e-032 -3.66082923059827e-017 -1.0
outer loop
vertex 12.0 4.0 0.0
vertex 55.3349364905389 23.75 1.40998324127395e-015
vertex 55.0851854342773 23.1470476127563 1.40998324127395e-015
endloop
endfacet
facet normal -1.56987952677226e-032 -3.66082923059827e-017 -1.0
outer loop
vertex 12.0 4.0 0.0
vertex 55.0851854342773 23.1470476127563 1.40998324127395e-015
vertex 47.5 4.0 4.22994972382185e-015
endloop
endfacet
facet normal -1.56987952677226e-032 -3.66082923059827e-017 -1.0
outer loop
vertex 47.5 4.0 4.22994972382185e-015
vertex 55.0851854342773 23.1470476127563 1.40998324127395e-015
vertex 47.5 -2.7 4.22994972382185e-015
endloop
endfacet
facet normal -1.56987952677226e-032 -3.66082923059827e-017 -1.0
outer loop
vertex 47.5 -2.7 4.22994972382185e-015
vertex 55.0851854342773 23.1470476127563 1.40998324127395e-015
vertex 55.0 22.5 2.11497486191092e-015
endloop
endfacet
facet normal -1.56987952677226e-032 -3.66082923059827e-017 -1.0
outer loop
vertex 55.3349364905389 23.75 1.40998324127395e-015
vertex 57.5 28.0 0.0
vertex 55.7322330470336 24.2677669529664 1.40998324127395e-015
endloop
endfacet
facet normal -1.56987952677226e-032 -3.66082923059827e-017 -1.0
outer loop
vertex 55.7322330470336 24.2677669529664 1.40998324127395e-015
vertex 57.5 28.0 0.0
vertex 56.25 24.6650635094611 7.04991620636974e-016
endloop
endfacet
facet normal -1.56987952677226e-032 -3.66082923059827e-017 -1.0
outer loop
vertex 56.25 24.6650635094611 7.04991620636974e-016
vertex 57.5 28.0 0.0
vertex 56.8529523872437 24.9148145657227 7.04991620636974e-016
endloop
endfacet
facet normal -1.56987952677226e-032 -3.66082923059827e-017 -1.0
outer loop
vertex 56.8529523872437 24.9148145657227 7.04991620636974e-016
vertex 57.5 28.0 0.0
vertex 57.5 25.0 7.04991620636974e-016
endloop
endfacet
facet normal 0.0 -1.0 0.0
outer loop
vertex 62.5 -2.7 2.0
vertex 47.5 -2.7 4.22994972382185e-015
vertex 62.5 -2.7 4.22994972382185e-015
endloop
endfacet
facet normal 0.0 -1.0 0.0
outer loop
vertex 47.5 -2.7 4.22994972382185e-015
vertex 62.5 -2.7 2.0
vertex 47.5 -2.7 2.0
endloop
endfacet
facet normal -1.0 0.0 0.0
outer loop
vertex 47.5 4.0 2.0
vertex 47.5 -2.7 4.22994972382185e-015
vertex 47.5 -2.7 2.0
endloop
endfacet
facet normal -1.0 0.0 0.0
outer loop
vertex 47.5 -2.7 4.22994972382185e-015
vertex 47.5 4.0 2.0
vertex 47.5 4.0 4.22994972382185e-015
endloop
endfacet
facet normal 0.0438849264792812 -0.999036592536984 2.65829039045295e-017
outer loop
vertex 12.0 4.0 2.0
vertex 11.0830075037108 3.95971904474538 0.0
vertex 12.0 4.0 0.0
endloop
endfacet
facet normal 0.0744307976831095 -0.997226181142601 2.65347315027536e-017
outer loop
vertex 11.0830075037108 3.95971904474538 0.0
vertex 12.0 4.0 2.0
vertex 11.0830075037108 3.95971904474538 2.0
endloop
endfacet
facet normal 0.0744307976831095 -0.997226181142601 2.65347315027536e-017
outer loop
vertex 11.0830075037108 3.95971904474538 2.0
vertex 10.1701955262766 3.86342736566813 0.0
vertex 11.0830075037108 3.95971904474538 0.0
endloop
endfacet
facet normal 0.135284929512059 -0.990806735870784 2.63639194443607e-017
outer loop
vertex 10.1701955262766 3.86342736566813 0.0
vertex 11.0830075037108 3.95971904474538 2.0
vertex 10.1701955262766 3.86342736566813 2.0
endloop
endfacet
facet normal 0.135284929512059 -0.990806735870784 2.63639194443607e-017
outer loop
vertex 10.1701955262766 3.86342736566813 2.0
vertex 9.26498203248383 3.71148552066673 0.0
vertex 10.1701955262766 3.86342736566813 0.0
endloop
endfacet
facet normal 0.195632495764908 -0.980677279537358 2.60943894128002e-017
outer loop
vertex 9.26498203248383 3.71148552066673 0.0
vertex 10.1701955262766 3.86342736566813 2.0
vertex 9.26498203248383 3.71148552066673 2.0
endloop
endfacet
facet normal 0.195632495764908 -0.980677279537358 2.60943894128002e-017
outer loop
vertex 9.26498203248383 3.71148552066673 2.0
vertex 8.37075653509373 3.50446244604864 0.0
vertex 9.26498203248383 3.71148552066673 0.0
endloop
endfacet
facet normal 0.255247528924246 -0.966875741229485 2.57271506456583e-017
outer loop
vertex 8.37075653509373 3.50446244604864 0.0
vertex 9.26498203248383 3.71148552066673 2.0
vertex 8.37075653509373 3.50446244604864 2.0
endloop
endfacet
facet normal 0.255247528924246 -0.966875741229485 2.57271506456583e-017
outer loop
vertex 8.37075653509373 3.50446244604864 2.0
vertex 7.49086740303312 3.24313332618535 0.0
vertex 8.37075653509373 3.50446244604864 0.0
endloop
endfacet
facet normal 0.313906804394955 -0.949453799905265 2.52635782444953e-017
outer loop
vertex 7.49086740303312 3.24313332618535 0.0
vertex 8.37075653509373 3.50446244604864 2.0
vertex 7.49086740303312 3.24313332618535 2.0
endloop
endfacet
facet normal 0.313906804394955 -0.949453799905265 2.52635782444953e-017
outer loop
vertex 7.49086740303312 3.24313332618535 2.0
vertex 6.62860932364589 2.92847669088526 0.0
vertex 7.49086740303312 3.24313332618535 0.0
endloop
endfacet
facet normal 0.371390676354105 -0.928476690885259 2.47054080258674e-017
outer loop
vertex 6.62860932364589 2.92847669088526 0.0
vertex 7.49086740303312 3.24313332618535 2.0
vertex 6.62860932364589 2.92847669088526 2.0
endloop
endfacet
facet normal 0.371390676354105 -0.928476690885259 2.47054080258674e-017
outer loop
vertex 6.62860932364589 2.92847669088526 2.0
vertex 5.78721096595165 2.56167075135276 0.0
vertex 6.62860932364589 2.92847669088526 0.0
endloop
endfacet
facet normal 0.427483900200387 -0.904022961583092 2.40547300216753e-017
outer loop
vertex 5.78721096595165 2.56167075135276 0.0
vertex 6.62860932364589 2.92847669088526 2.0
vertex 5.78721096595165 2.56167075135276 2.0
endloop
endfacet
facet normal 0.427483900200387 -0.904022961583092 2.40547300216753e-017
outer loop
vertex 5.78721096595165 2.56167075135276 2.0
vertex 4.96982289110548 2.14408898845334 0.0
vertex 5.78721096595165 2.56167075135276 0.0
endloop
endfacet
facet normal 0.481976438523465 -0.876184177389798 2.33139806531761e-017
outer loop
vertex 4.96982289110548 2.14408898845334 0.0
vertex 5.78721096595165 2.56167075135276 2.0
vertex 4.96982289110548 2.14408898845334 2.0
endloop
endfacet
facet normal 0.481976438523465 -0.876184177389798 2.33139806531761e-017
outer loop
vertex 4.96982289110548 2.14408898845334 2.0
vertex 4.72586945155786 2.0 0.0
vertex 4.96982289110548 2.14408898845334 0.0
endloop
endfacet
facet normal 0.508558431757593 -0.861027480100524 2.2910683085739e-017
outer loop
vertex 4.72586945155786 2.0 0.0
vertex 4.96982289110548 2.14408898845334 2.0
vertex 4.72586945155786 2.0 2.0
endloop
endfacet
facet normal 0.508558431757591 -0.861027480100525 2.2910683085739e-017
outer loop
vertex 4.72586945155786 2.0 2.0
vertex 4.17950575532775 1.6772950098043 0.0
vertex 4.72586945155786 2.0 0.0
endloop
endfacet
facet normal 0.534664247575314 -0.845064578813196 2.24859336079637e-017
outer loop
vertex 4.17950575532775 1.6772950098043 0.0
vertex 4.72586945155786 2.0 2.0
vertex 4.17950575532775 1.6772950098043 2.0
endloop
endfacet
facet normal 0.534664247575314 -0.845064578813196 2.24859336079637e-017
outer loop
vertex 4.17950575532775 1.6772950098043 2.0
vertex 3.41921884947687 1.16303669494824 0.0
vertex 4.17950575532775 1.6772950098043 0.0
endloop
endfacet
facet normal 0.585350041298706 -0.810780691156124 2.15736894540761e-017
outer loop
vertex 3.41921884947687 1.16303669494824 0.0
vertex 4.17950575532775 1.6772950098043 2.0
vertex 3.41921884947687 1.16303669494824 2.0
endloop
endfacet
facet normal 0.585350041298706 -0.810780691156124 2.15736894540761e-017
outer loop
vertex 3.41921884947687 1.16303669494824 2.0
vertex 2.69180901817811 0.603239650532307 0.0
vertex 3.41921884947687 1.16303669494824 0.0
endloop
endfacet
facet normal 0.633844030051956 -0.773460888195063 2.05806640301218e-017
outer loop
vertex 2.69180901817811 0.603239650532307 0.0
vertex 3.41921884947687 1.16303669494824 2.0
vertex 2.69180901817811 0.603239650532307 2.0
endloop
endfacet
facet normal 0.633844030051956 -0.773460888195063 2.05806640301218e-017
outer loop
vertex 2.69180901817811 0.603239650532307 2.0
vertex 2.0 7.04991620636974e-016 0.0
vertex 2.69180901817811 0.603239650532307 0.0
endloop
endfacet
facet normal 0.657212013609474 -0.753705757684907 2.00550088740486e-017
outer loop
vertex 2.0 7.04991620636974e-016 0.0
vertex 2.69180901817811 0.603239650532307 2.0
vertex 2.0 7.04991620636974e-016 2.0
endloop
endfacet
facet normal 0.0 -1.0 2.66085387693599e-017
outer loop
vertex 2.0 7.04991620636974e-016 2.0
vertex 0.0 7.04991620636974e-016 0.0
vertex 2.0 7.04991620636974e-016 0.0
endloop
endfacet
facet normal 0.0 -1.0 2.66085387693599e-017
outer loop
vertex 0.0 7.04991620636974e-016 0.0
vertex 2.0 7.04991620636974e-016 2.0
vertex 0.0 7.04991620636974e-016 2.0
endloop
endfacet
facet normal -1.0 0.0 1.3864878934897e-032
outer loop
vertex 0.0 12.0 2.0
vertex 0.0 7.04991620636974e-016 0.0
vertex 0.0 7.04991620636974e-016 2.0
endloop
endfacet
facet normal -1.0 0.0 1.3864878934897e-032
outer loop
vertex 0.0 7.04991620636974e-016 0.0
vertex 0.0 12.0 2.0
vertex 0.0 12.0 0.0
endloop
endfacet
facet normal -0.847998304005088 0.52999894000318 -1.41024973427942e-017
outer loop
vertex 10.0 28.0 2.0
vertex 0.0 12.0 0.0
vertex 0.0 12.0 2.0
endloop
endfacet
facet normal -0.847998304005088 0.52999894000318 -1.41024973427942e-017
outer loop
vertex 0.0 12.0 0.0
vertex 10.0 28.0 2.0
vertex 10.0 28.0 0.0
endloop
endfacet
facet normal -1.25575821356192e-016 1.0 -6.01876892853292e-032
outer loop
vertex 10.0 28.0 2.0
vertex 57.5 28.0 0.0
vertex 10.0 28.0 0.0
endloop
endfacet
facet normal -1.25575821356192e-016 1.0 -6.01876892853292e-032
outer loop
vertex 57.5 28.0 0.0
vertex 10.0 28.0 2.0
vertex 57.5 28.0 2.0
endloop
endfacet
facet normal -1.0 0.0 0.0
outer loop
vertex 57.5 30.0 2.0
vertex 57.5 28.0 0.0
vertex 57.5 28.0 2.0
endloop
endfacet
facet normal -1.0 0.0 0.0
outer loop
vertex 57.5 28.0 0.0
vertex 57.5 30.0 2.0
vertex 57.5 30.0 0.0
endloop
endfacet
facet normal 0.0 1.0 0.0
outer loop
vertex 57.5 30.0 2.0
vertex 62.5 30.0 0.0
vertex 57.5 30.0 0.0
endloop
endfacet
facet normal 0.0 1.0 0.0
outer loop
vertex 62.5 30.0 0.0
vertex 57.5 30.0 2.0
vertex 62.5 30.0 2.0
endloop
endfacet
facet normal 1.0 0.0 0.0
outer loop
vertex 62.5 30.0 0.0
vertex 62.5 27.2 2.0
vertex 62.5 27.2 0.0
endloop
endfacet
facet normal 1.0 0.0 0.0
outer loop
vertex 62.5 27.2 2.0
vertex 62.5 30.0 0.0
vertex 62.5 30.0 2.0
endloop
endfacet
facet normal -1.56664804585994e-016 1.0 3.11457894124246e-046
outer loop
vertex 62.5 27.2 2.0
vertex 98.5000000000001 27.2 0.0
vertex 62.5 27.2 0.0
endloop
endfacet
facet normal -1.56664804585994e-016 1.0 3.11457894124246e-046
outer loop
vertex 98.5000000000001 27.2 0.0
vertex 62.5 27.2 2.0
vertex 98.5000000000001 27.2 2.0
endloop
endfacet
facet normal -1.0 0.0 0.0
outer loop
vertex 98.5000000000001 30.0 2.0
vertex 98.5000000000001 27.2 0.0
vertex 98.5000000000001 27.2 2.0
endloop
endfacet
facet normal -1.0 0.0 0.0
outer loop
vertex 98.5000000000001 27.2 0.0
vertex 98.5000000000001 30.0 2.0
vertex 98.5000000000001 30.0 0.0
endloop
endfacet
facet normal 0.0 1.0 0.0
outer loop
vertex 98.5000000000001 30.0 2.0
vertex 103.5 30.0 0.0
vertex 98.5000000000001 30.0 0.0
endloop
endfacet
facet normal 0.0 1.0 0.0
outer loop
vertex 103.5 30.0 0.0
vertex 98.5000000000001 30.0 2.0
vertex 103.5 30.0 2.0
endloop
endfacet
facet normal 1.0 0.0 0.0
outer loop
vertex 103.5 30.0 0.0
vertex 103.5 28.0 2.0
vertex 103.5 28.0 0.0
endloop
endfacet
facet normal 1.0 0.0 0.0
outer loop
vertex 103.5 28.0 2.0
vertex 103.5 30.0 0.0
vertex 103.5 30.0 2.0
endloop
endfacet
facet normal -3.91299257635934e-016 1.0 1.17553368435434e-030
outer loop
vertex 103.5 28.0 2.0
vertex 151.0 28.0 0.0
vertex 103.5 28.0 0.0
endloop
endfacet
facet normal -3.91299257635934e-016 1.0 1.17553368435434e-030
outer loop
vertex 151.0 28.0 0.0
vertex 103.5 28.0 2.0
vertex 151.0 28.0 2.0
endloop
endfacet
facet normal 0.847998304005077 0.529998940003198 0.0
outer loop
vertex 151.0 28.0 0.0
vertex 161.000000000001 12.0 2.0
vertex 161.000000000001 12.0 0.0
endloop
endfacet
facet normal 0.847998304005077 0.529998940003198 0.0
outer loop
vertex 161.000000000001 12.0 2.0
vertex 151.0 28.0 0.0
vertex 151.0 28.0 2.0
endloop
endfacet
facet normal 1.0 0.0 0.0
outer loop
vertex 161.000000000001 12.0 0.0
vertex 161.000000000001 1.69197988952874e-014 2.0
vertex 161.000000000001 1.69197988952874e-014 0.0
endloop
endfacet
facet normal 1.0 0.0 0.0
outer loop
vertex 161.000000000001 1.69197988952874e-014 2.0
vertex 161.000000000001 12.0 0.0
vertex 161.000000000001 12.0 2.0
endloop
endfacet
facet normal 0.0 -1.0 0.0
outer loop
vertex 161.000000000001 1.69197988952874e-014 2.0
vertex 159.0 1.69197988952874e-014 0.0
vertex 161.000000000001 1.69197988952874e-014 0.0
endloop
endfacet
facet normal 0.0 -1.0 0.0
outer loop
vertex 159.0 1.69197988952874e-014 0.0
vertex 161.000000000001 1.69197988952874e-014 2.0
vertex 159.0 1.69197988952874e-014 2.0
endloop
endfacet
facet normal -0.657212013610049 -0.753705757684407 0.0
outer loop
vertex 159.0 1.69197988952874e-014 2.0
vertex 158.308190981823 0.603239650532321 0.0
vertex 159.0 1.69197988952874e-014 0.0
endloop
endfacet
facet normal -0.633844030052094 -0.77346088819495 0.0
outer loop
vertex 158.308190981823 0.603239650532321 0.0
vertex 159.0 1.69197988952874e-014 2.0
vertex 158.308190981823 0.603239650532321 2.0
endloop
endfacet
facet normal -0.633844030052094 -0.77346088819495 0.0
outer loop
vertex 158.308190981823 0.603239650532321 2.0
vertex 157.580781150524 1.16303669494827 0.0
vertex 158.308190981823 0.603239650532321 0.0
endloop
endfacet
facet normal -0.585350041298501 -0.810780691156273 0.0
outer loop
vertex 157.580781150524 1.16303669494827 0.0
vertex 158.308190981823 0.603239650532321 2.0
vertex 157.580781150524 1.16303669494827 2.0
endloop
endfacet
facet normal -0.585350041298501 -0.810780691156273 0.0
outer loop
vertex 157.580781150524 1.16303669494827 2.0
vertex 156.820494244672 1.67729500980433 0.0
vertex 157.580781150524 1.16303669494827 0.0
endloop
endfacet
facet normal -0.534664247575398 -0.845064578813142 0.0
outer loop
vertex 156.820494244672 1.67729500980433 0.0
vertex 157.580781150524 1.16303669494827 2.0
vertex 156.820494244672 1.67729500980433 2.0
endloop
endfacet
facet normal -0.534664247575398 -0.845064578813142 0.0
outer loop
vertex 156.820494244672 1.67729500980433 2.0
vertex 156.274130548443 1.99999999999999 0.0
vertex 156.820494244672 1.67729500980433 0.0
endloop
endfacet
facet normal -0.508558431757851 -0.861027480100371 0.0
outer loop
vertex 156.274130548443 1.99999999999999 0.0
vertex 156.820494244672 1.67729500980433 2.0
vertex 156.274130548443 1.99999999999999 2.0
endloop
endfacet
facet normal -0.508558431757527 -0.861027480100563 0.0
outer loop
vertex 156.274130548443 1.99999999999999 2.0
vertex 156.030177108895 2.14408898845334 0.0
vertex 156.274130548443 1.99999999999999 0.0
endloop
endfacet
facet normal -0.48197643852339 -0.876184177389839 0.0
outer loop
vertex 156.030177108895 2.14408898845334 0.0
vertex 156.274130548443 1.99999999999999 2.0
vertex 156.030177108895 2.14408898845334 2.0
endloop
endfacet
facet normal -0.48197643852339 -0.876184177389839 0.0
outer loop
vertex 156.030177108895 2.14408898845334 2.0
vertex 155.212789034049 2.56167075135278 0.0
vertex 156.030177108895 2.14408898845334 0.0
endloop
endfacet
facet normal -0.427483900200261 -0.904022961583152 0.0
outer loop
vertex 155.212789034049 2.56167075135278 0.0
vertex 156.030177108895 2.14408898845334 2.0
vertex 155.212789034049 2.56167075135278 2.0
endloop
endfacet
facet normal -0.427483900200261 -0.904022961583152 0.0
outer loop
vertex 155.212789034049 2.56167075135278 2.0
vertex 154.371390676354 2.9284766908853 0.0
vertex 155.212789034049 2.56167075135278 0.0
endloop
endfacet
facet normal -0.371390676354115 -0.928476690885255 0.0
outer loop
vertex 154.371390676354 2.9284766908853 0.0
vertex 155.212789034049 2.56167075135278 2.0
vertex 154.371390676354 2.9284766908853 2.0
endloop
endfacet
facet normal -0.371390676354115 -0.928476690885255 0.0
outer loop
vertex 154.371390676354 2.9284766908853 2.0
vertex 153.509132596967 3.24313332618536 0.0
vertex 154.371390676354 2.9284766908853 0.0
endloop
endfacet
facet normal -0.313906804395029 -0.949453799905241 0.0
outer loop
vertex 153.509132596967 3.24313332618536 0.0
vertex 154.371390676354 2.9284766908853 2.0
vertex 153.509132596967 3.24313332618536 2.0
endloop
endfacet
facet normal -0.313906804395029 -0.949453799905241 0.0
outer loop
vertex 153.509132596967 3.24313332618536 2.0
vertex 152.629243464907 3.50446244604866 0.0
vertex 153.509132596967 3.24313332618536 0.0
endloop
endfacet
facet normal -0.255247528924169 -0.966875741229505 0.0
outer loop
vertex 152.629243464907 3.50446244604866 0.0
vertex 153.509132596967 3.24313332618536 2.0
vertex 152.629243464907 3.50446244604866 2.0
endloop
endfacet
facet normal -0.255247528924169 -0.966875741229505 0.0
outer loop
vertex 152.629243464907 3.50446244604866 2.0
vertex 151.735017967516 3.71148552066677 0.0
vertex 152.629243464907 3.50446244604866 0.0
endloop
endfacet
facet normal -0.195632495764874 -0.980677279537365 0.0
outer loop
vertex 151.735017967516 3.71148552066677 0.0
vertex 152.629243464907 3.50446244604866 2.0
vertex 151.735017967516 3.71148552066677 2.0
endloop
endfacet
facet normal -0.195632495764874 -0.980677279537365 0.0
outer loop
vertex 151.735017967516 3.71148552066677 2.0
vertex 150.829804473724 3.86342736566812 0.0
vertex 151.735017967516 3.71148552066677 0.0
endloop
endfacet
facet normal -0.135284929512105 -0.990806735870778 0.0
outer loop
vertex 150.829804473724 3.86342736566812 0.0
vertex 151.735017967516 3.71148552066677 2.0
vertex 150.829804473724 3.86342736566812 2.0
endloop
endfacet
facet normal -0.135284929512105 -0.990806735870778 0.0
outer loop
vertex 150.829804473724 3.86342736566812 2.0
vertex 149.91699249629 3.95971904474542 0.0
vertex 150.829804473724 3.86342736566812 0.0
endloop
endfacet
facet normal -0.0744307976831092 -0.997226181142601 0.0
outer loop
vertex 149.91699249629 3.95971904474542 0.0
vertex 150.829804473724 3.86342736566812 2.0
vertex 149.91699249629 3.95971904474542 2.0
endloop
endfacet
facet normal -0.0744307976831092 -0.997226181142601 0.0
outer loop
vertex 149.91699249629 3.95971904474542 2.0
vertex 149.0 3.99999999999999 0.0
vertex 149.91699249629 3.95971904474542 0.0
endloop
endfacet
facet normal -0.0438849264792241 -0.999036592536987 0.0
outer loop
vertex 149.0 3.99999999999999 0.0
vertex 149.91699249629 3.95971904474542 2.0
vertex 149.0 3.99999999999999 2.0
endloop
endfacet
facet normal -1.03832912989036e-016 -1.0 2.57845509100136e-030
outer loop
vertex 149.0 3.99999999999999 2.0
vertex 113.5 3.99999999999999 4.22994972382185e-015
vertex 149.0 3.99999999999999 0.0
endloop
endfacet
facet normal -1.03832912989036e-016 -1.0 2.57845509100136e-030
outer loop
vertex 113.5 3.99999999999999 4.22994972382185e-015
vertex 149.0 3.99999999999999 2.0
vertex 113.5 3.99999999999999 2.0
endloop
endfacet
facet normal 1.0 0.0 0.0
outer loop
vertex 113.5 3.99999999999999 4.22994972382185e-015
vertex 113.5 -2.7 2.0
vertex 113.5 -2.7 4.22994972382185e-015
endloop
endfacet
facet normal 1.0 0.0 0.0
outer loop
vertex 113.5 -2.7 2.0
vertex 113.5 3.99999999999999 4.22994972382185e-015
vertex 113.5 3.99999999999999 2.0
endloop
endfacet
facet normal 0.0 -1.0 0.0
outer loop
vertex 113.5 -2.7 2.0
vertex 98.5000000000001 -2.7 4.22994972382185e-015
vertex 113.5 -2.7 4.22994972382185e-015
endloop
endfacet
facet normal 0.0 -1.0 0.0
outer loop
vertex 98.5000000000001 -2.7 4.22994972382185e-015
vertex 113.5 -2.7 2.0
vertex 98.5000000000001 -2.7 2.0
endloop
endfacet
facet normal -1.0 0.0 0.0
outer loop
vertex 98.5000000000001 2.79999999999995 2.0
vertex 98.5000000000001 -2.7 4.22994972382185e-015
vertex 98.5000000000001 -2.7 2.0
endloop
endfacet
facet normal -1.0 0.0 0.0
outer loop
vertex 98.5000000000001 -2.7 4.22994972382185e-015
vertex 98.5000000000001 2.79999999999995 2.0
vertex 98.5000000000001 2.79999999999995 4.22994972382185e-015
endloop
endfacet
facet normal 0.0 -1.0 0.0
outer loop
vertex 98.5000000000001 2.79999999999995 2.0
vertex 62.5 2.79999999999995 4.22994972382185e-015
vertex 98.5000000000001 2.79999999999995 4.22994972382185e-015
endloop
endfacet
facet normal 0.0 -1.0 0.0
outer loop
vertex 62.5 2.79999999999995 4.22994972382185e-015
vertex 98.5000000000001 2.79999999999995 2.0
vertex 62.5 2.79999999999995 2.0
endloop
endfacet
facet normal 1.0 0.0 0.0
outer loop
vertex 62.5 2.79999999999995 4.22994972382185e-015
vertex 62.5 -2.7 2.0
vertex 62.5 -2.7 4.22994972382185e-015
endloop
endfacet
facet normal 1.0 0.0 0.0
outer loop
vertex 62.5 -2.7 2.0
vertex 62.5 2.79999999999995 4.22994972382185e-015
vertex 62.5 2.79999999999995 2.0
endloop
endfacet
facet normal -1.0 0.0 0.0
outer loop
vertex 60.0 22.5 2.0
vertex 60.0 7.5 4.93494134445882e-015
vertex 60.0 7.5 2.00000000000001
endloop
endfacet
facet normal -1.0 0.0 0.0
outer loop
vertex 60.0 7.5 4.93494134445882e-015
vertex 60.0 22.5 2.0
vertex 60.0 22.5 2.11497486191092e-015
endloop
endfacet
facet normal -0.965925826289067 -0.258819045102524 1.66238919207745e-018
outer loop
vertex 59.9148145657227 23.1470476127563 2.0
vertex 60.0 22.5 2.11497486191092e-015
vertex 60.0 22.5 2.0
endloop
endfacet
facet normal -0.99144486137381 -0.130526192220056 3.2963344441771e-018
outer loop
vertex 60.0 22.5 2.11497486191092e-015
vertex 59.9148145657227 23.1470476127563 2.0
vertex 59.9148145657227 23.1470476127563 1.40998324127395e-015
endloop
endfacet
facet normal -0.866025403784442 -0.499999999999994 0.0
outer loop
vertex 59.6650635094611 23.75 2.0
vertex 59.9148145657227 23.1470476127563 1.40998324127395e-015
vertex 59.9148145657227 23.1470476127563 2.0
endloop
endfacet
facet normal -0.965925826289068 -0.258819045102524 1.66238919207745e-018
outer loop
vertex 59.9148145657227 23.1470476127563 1.40998324127395e-015
vertex 59.6650635094611 23.75 2.0
vertex 59.6650635094611 23.75 1.40998324127395e-015
endloop
endfacet
facet normal -0.707106781186557 -0.707106781186538 9.69837268376005e-019
outer loop
vertex 59.2677669529664 24.2677669529664 2.0
vertex 59.6650635094611 23.75 1.40998324127395e-015
vertex 59.6650635094611 23.75 2.0
endloop
endfacet
facet normal -0.866025403784442 -0.499999999999994 0.0
outer loop
vertex 59.6650635094611 23.75 1.40998324127395e-015
vertex 59.2677669529664 24.2677669529664 2.0
vertex 59.2677669529664 24.2677669529664 1.40998324127395e-015
endloop
endfacet
facet normal -0.707106781186557 -0.707106781186538 9.69837268376006e-019
outer loop
vertex 59.2677669529664 24.2677669529664 1.40998324127395e-015
vertex 58.75 24.6650635094611 2.0
vertex 58.75 24.6650635094611 7.04991620636974e-016
endloop
endfacet
facet normal -0.500000000000001 -0.866025403784438 9.69837268376007e-019
outer loop
vertex 58.75 24.6650635094611 2.0
vertex 59.2677669529664 24.2677669529664 1.40998324127395e-015
vertex 59.2677669529664 24.2677669529664 2.0
endloop
endfacet
facet normal -0.500000000000001 -0.866025403784438 9.69837268376007e-019
outer loop
vertex 58.75 24.6650635094611 2.0
vertex 58.1470476127563 24.9148145657227 7.04991620636974e-016
vertex 58.75 24.6650635094611 7.04991620636974e-016
endloop
endfacet
facet normal -0.258819045102518 -0.965925826289069 0.0
outer loop
vertex 58.1470476127563 24.9148145657227 7.04991620636974e-016
vertex 58.75 24.6650635094611 2.0
vertex 58.1470476127563 24.9148145657227 2.0
endloop
endfacet
facet normal -0.258819045102518 -0.965925826289069 0.0
outer loop
vertex 58.1470476127563 24.9148145657227 2.0
vertex 57.5 25.0 7.04991620636974e-016
vertex 58.1470476127563 24.9148145657227 7.04991620636974e-016
endloop
endfacet
facet normal -8.56357660971667e-015 -1.0 0.0
outer loop
vertex 57.5 25.0 7.04991620636974e-016
vertex 58.1470476127563 24.9148145657227 2.0
vertex 57.5 25.0 2.0
endloop
endfacet
facet normal -8.56357660971667e-015 -1.0 0.0
outer loop
vertex 57.5 25.0 2.0
vertex 56.8529523872437 24.9148145657227 7.04991620636974e-016
vertex 57.5 25.0 7.04991620636974e-016
endloop
endfacet
facet normal 0.258819045102518 -0.965925826289069 0.0
outer loop
vertex 56.8529523872437 24.9148145657227 7.04991620636974e-016
vertex 57.5 25.0 2.0
vertex 56.8529523872437 24.9148145657227 2.0
endloop
endfacet
facet normal 0.258819045102518 -0.965925826289069 0.0
outer loop
vertex 56.8529523872437 24.9148145657227 2.0
vertex 56.25 24.6650635094611 7.04991620636974e-016
vertex 56.8529523872437 24.9148145657227 7.04991620636974e-016
endloop
endfacet
facet normal 0.500000000000003 -0.866025403784437 9.69837268374795e-019
outer loop
vertex 56.25 24.6650635094611 7.04991620636974e-016
vertex 56.8529523872437 24.9148145657227 2.0
vertex 56.25 24.6650635094611 2.0
endloop
endfacet
facet normal 0.500000000000003 -0.866025403784437 9.69837268374796e-019
outer loop
vertex 56.25 24.6650635094611 2.0
vertex 55.7322330470336 24.2677669529664 1.40998324127395e-015
vertex 56.25 24.6650635094611 7.04991620636974e-016
endloop
endfacet
facet normal 0.707106781186551 -0.707106781186544 9.69837268374002e-019
outer loop
vertex 55.7322330470336 24.2677669529664 1.40998324127395e-015
vertex 56.25 24.6650635094611 2.0
vertex 55.7322330470336 24.2677669529664 2.0
endloop
endfacet
facet normal 0.707106781186551 -0.707106781186544 9.69837268374002e-019
outer loop
vertex 55.7322330470336 24.2677669529664 1.40998324127395e-015
vertex 55.3349364905389 23.75 2.0
vertex 55.3349364905389 23.75 1.40998324127395e-015
endloop
endfacet
facet normal 0.86602540378444 -0.499999999999998 -7.95419061581944e-031
outer loop
vertex 55.3349364905389 23.75 2.0
vertex 55.7322330470336 24.2677669529664 1.40998324127395e-015
vertex 55.7322330470336 24.2677669529664 2.0
endloop
endfacet
facet normal 0.86602540378444 -0.499999999999998 -7.95419061581944e-031
outer loop
vertex 55.3349364905389 23.75 1.40998324127395e-015
vertex 55.0851854342773 23.1470476127563 2.0
vertex 55.0851854342773 23.1470476127563 1.40998324127395e-015
endloop
endfacet
facet normal 0.965925826289069 -0.258819045102519 5.69445639576168e-019
outer loop
vertex 55.0851854342773 23.1470476127563 2.0
vertex 55.3349364905389 23.75 1.40998324127395e-015
vertex 55.3349364905389 23.75 2.0
endloop
endfacet
facet normal 0.965925826289069 -0.258819045102519 5.69445639576168e-019
outer loop
vertex 55.0851854342773 23.1470476127563 1.40998324127395e-015
vertex 55.0 22.5 2.0
vertex 55.0 22.5 2.11497486191092e-015
endloop
endfacet
facet normal 0.991444861373812 -0.130526192220039 1.12914790637903e-018
outer loop
vertex 55.0 22.5 2.0
vertex 55.0851854342773 23.1470476127563 1.40998324127395e-015
vertex 55.0851854342773 23.1470476127563 2.0
endloop
endfacet
facet normal 1.0 0.0 0.0
outer loop
vertex 55.0 22.5 2.11497486191092e-015
vertex 55.0 7.49999999999999 2.00000000000001
vertex 55.0 7.49999999999999 4.93494134445882e-015
endloop
endfacet
facet normal 1.0 0.0 0.0
outer loop
vertex 55.0 7.49999999999999 2.00000000000001
vertex 55.0 22.5 2.11497486191092e-015
vertex 55.0 22.5 2.0
endloop
endfacet
facet normal 0.991444861373812 0.130526192220039 0.0
outer loop
vertex 55.0 7.49999999999999 4.93494134445882e-015
vertex 55.0851854342773 6.85295238724369 2.00000000000001
vertex 55.0851854342773 6.85295238724369 4.93494134445882e-015
endloop
endfacet
facet normal 0.965925826289069 0.258819045102518 -5.99614002929256e-020
outer loop
vertex 55.0851854342773 6.85295238724369 2.00000000000001
vertex 55.0 7.49999999999999 4.93494134445882e-015
vertex 55.0 7.49999999999999 2.00000000000001
endloop
endfacet
facet normal 0.965925826289069 0.258819045102518 -5.99614002929256e-020
outer loop
vertex 55.0851854342773 6.85295238724369 4.93494134445882e-015
vertex 55.3349364905389 6.24999999999999 2.00000000000001
vertex 55.3349364905389 6.24999999999999 5.63993296509579e-015
endloop
endfacet
facet normal 0.866025403784438 0.5 -5.99614002937209e-020
outer loop
vertex 55.3349364905389 6.24999999999999 2.00000000000001
vertex 55.0851854342773 6.85295238724369 4.93494134445882e-015
vertex 55.0851854342773 6.85295238724369 2.00000000000001
endloop
endfacet
facet normal 0.866025403784438 0.5 -5.99614002937209e-020
outer loop
vertex 55.3349364905389 6.24999999999999 5.63993296509579e-015
vertex 55.7322330470336 5.73223304703362 2.00000000000001
vertex 55.7322330470336 5.73223304703362 5.63993296509579e-015
endloop
endfacet
facet normal 0.707106781186551 0.707106781186544 -7.9541906158194e-031
outer loop
vertex 55.7322330470336 5.73223304703362 2.00000000000001
vertex 55.3349364905389 6.24999999999999 5.63993296509579e-015
vertex 55.3349364905389 6.24999999999999 2.00000000000001
endloop
endfacet
facet normal 0.707106781186551 0.707106781186544 -7.9541906158194e-031
outer loop
vertex 55.7322330470336 5.73223304703362 2.00000000000001
vertex 56.25 5.33493649053889 5.63993296509579e-015
vertex 55.7322330470336 5.73223304703362 5.63993296509579e-015
endloop
endfacet
facet normal 0.500000000000002 0.866025403784437 0.0
outer loop
vertex 56.25 5.33493649053889 5.63993296509579e-015
vertex 55.7322330470336 5.73223304703362 2.00000000000001
vertex 56.25 5.33493649053889 2.00000000000001
endloop
endfacet
facet normal 0.500000000000002 0.866025403784437 0.0
outer loop
vertex 56.25 5.33493649053889 2.00000000000001
vertex 56.8529523872437 5.08518543427732 5.63993296509579e-015
vertex 56.25 5.33493649053889 5.63993296509579e-015
endloop
endfacet
facet normal 0.258819045102518 0.965925826289069 0.0
outer loop
vertex 56.8529523872437 5.08518543427732 5.63993296509579e-015
vertex 56.25 5.33493649053889 2.00000000000001
vertex 56.8529523872437 5.08518543427732 2.00000000000001
endloop
endfacet
facet normal 0.258819045102518 0.965925826289069 0.0
outer loop
vertex 56.8529523872437 5.08518543427732 2.00000000000001
vertex 57.5 4.99999999999999 5.63993296509579e-015
vertex 56.8529523872437 5.08518543427732 5.63993296509579e-015
endloop
endfacet
facet normal -2.13866637495526e-015 1.0 1.09294355250092e-018
outer loop
vertex 57.5 4.99999999999999 5.63993296509579e-015
vertex 56.8529523872437 5.08518543427732 2.00000000000001
vertex 57.5 4.99999999999999 2.00000000000001
endloop
endfacet
facet normal -2.13866637495526e-015 1.0 1.09294355250092e-018
outer loop
vertex 57.5 4.99999999999999 2.00000000000001
vertex 58.1470476127563 5.08518543427732 5.63993296509579e-015
vertex 57.5 4.99999999999999 5.63993296509579e-015
endloop
endfacet
facet normal -0.258819045102522 0.965925826289068 1.09294355250092e-018
outer loop
vertex 58.1470476127563 5.08518543427732 5.63993296509579e-015
vertex 57.5 4.99999999999999 2.00000000000001
vertex 58.1470476127563 5.08518543427732 2.00000000000001
endloop
endfacet
facet normal -0.258819045102522 0.965925826289068 1.09294355250092e-018
outer loop
vertex 58.1470476127563 5.08518543427732 2.00000000000001
vertex 58.75 5.3349364905389 5.63993296509579e-015
vertex 58.1470476127563 5.08518543427732 5.63993296509579e-015
endloop
endfacet
facet normal -0.500000000000005 0.866025403784436 1.98854765395483e-031
outer loop
vertex 58.75 5.3349364905389 5.63993296509579e-015
vertex 58.1470476127563 5.08518543427732 2.00000000000001
vertex 58.75 5.3349364905389 2.00000000000001
endloop
endfacet
facet normal -0.500000000000005 0.866025403784436 1.98854765395483e-031
outer loop
vertex 58.75 5.3349364905389 2.00000000000001
vertex 59.2677669529664 5.73223304703363 5.63993296509579e-015
vertex 58.75 5.3349364905389 5.63993296509579e-015
endloop
endfacet
facet normal -0.707106781186558 0.707106781186537 1.98854765395483e-031
outer loop
vertex 59.2677669529664 5.73223304703363 5.63993296509579e-015
vertex 58.75 5.3349364905389 2.00000000000001
vertex 59.2677669529664 5.73223304703363 2.00000000000001
endloop
endfacet
facet normal -0.866025403784442 0.499999999999994 -5.9961400292926e-020
outer loop
vertex 59.6650635094611 6.25 2.00000000000001
vertex 59.2677669529664 5.73223304703363 5.63993296509579e-015
vertex 59.2677669529664 5.73223304703363 2.00000000000001
endloop
endfacet
facet normal -0.707106781186558 0.707106781186537 1.98854765395483e-031
outer loop
vertex 59.2677669529664 5.73223304703363 5.63993296509579e-015
vertex 59.6650635094611 6.25 2.00000000000001
vertex 59.6650635094611 6.25 5.63993296509579e-015
endloop
endfacet
facet normal -0.965925826289067 0.258819045102527 -5.99614002929261e-020
outer loop
vertex 59.9148145657227 6.85295238724369 2.00000000000001
vertex 59.6650635094611 6.25 5.63993296509579e-015
vertex 59.6650635094611 6.25 2.00000000000001
endloop
endfacet
facet normal -0.866025403784442 0.499999999999994 -5.9961400292926e-020
outer loop
vertex 59.6650635094611 6.25 5.63993296509579e-015
vertex 59.9148145657227 6.85295238724369 2.00000000000001
vertex 59.9148145657227 6.85295238724369 4.93494134445882e-015
endloop
endfacet
facet normal -0.99144486137381 0.130526192220056 0.0
outer loop
vertex 60.0 7.5 2.00000000000001
vertex 59.9148145657227 6.85295238724369 4.93494134445882e-015
vertex 59.9148145657227 6.85295238724369 2.00000000000001
endloop
endfacet
facet normal -0.965925826289067 0.258819045102527 -5.99614002929261e-020
outer loop
vertex 59.9148145657227 6.85295238724369 4.93494134445882e-015
vertex 60.0 7.5 2.00000000000001
vertex 60.0 7.5 4.93494134445882e-015
endloop
endfacet
facet normal 6.67094781594956e-033 3.66082923059826e-017 1.0
outer loop
vertex 62.5 -2.7 2.0
vertex 47.5 4.0 2.0
vertex 47.5 -2.7 2.0
endloop
endfacet
facet normal 6.67094781594956e-033 3.66082923059826e-017 1.0
outer loop
vertex 47.5 4.0 2.0
vertex 62.5 -2.7 2.0
vertex 55.7322330470336 5.73223304703362 2.00000000000001
endloop
endfacet
facet normal 6.67094781594956e-033 3.66082923059826e-017 1.0
outer loop
vertex 47.5 4.0 2.0
vertex 55.7322330470336 5.73223304703362 2.00000000000001
vertex 55.3349364905389 6.24999999999999 2.00000000000001
endloop
endfacet
facet normal 6.67094781594956e-033 3.66082923059826e-017 1.0
outer loop
vertex 47.5 4.0 2.0
vertex 55.3349364905389 6.24999999999999 2.00000000000001
vertex 55.0851854342773 6.85295238724369 2.00000000000001
endloop
endfacet
facet normal 6.67094781594956e-033 3.66082923059826e-017 1.0
outer loop
vertex 47.5 4.0 2.0
vertex 55.0851854342773 6.85295238724369 2.00000000000001
vertex 55.0 7.49999999999999 2.00000000000001
endloop
endfacet
facet normal 6.67094781594956e-033 3.66082923059826e-017 1.0
outer loop
vertex 55.7322330470336 5.73223304703362 2.00000000000001
vertex 62.5 -2.7 2.0
vertex 56.25 5.33493649053889 2.00000000000001
endloop
endfacet
facet normal 6.67094781594956e-033 3.66082923059826e-017 1.0
outer loop
vertex 56.25 5.33493649053889 2.00000000000001
vertex 62.5 -2.7 2.0
vertex 56.8529523872437 5.08518543427732 2.00000000000001
endloop
endfacet
facet normal 6.67094781594956e-033 3.66082923059826e-017 1.0
outer loop
vertex 56.8529523872437 5.08518543427732 2.00000000000001
vertex 62.5 -2.7 2.0
vertex 57.5 4.99999999999999 2.00000000000001
endloop
endfacet
facet normal 6.67094781594956e-033 3.66082923059826e-017 1.0
outer loop
vertex 57.5 4.99999999999999 2.00000000000001
vertex 62.5 -2.7 2.0
vertex 58.1470476127563 5.08518543427732 2.00000000000001
endloop
endfacet
facet normal 6.67094781594956e-033 3.66082923059826e-017 1.0
outer loop
vertex 58.1470476127563 5.08518543427732 2.00000000000001
vertex 62.5 -2.7 2.0
vertex 58.75 5.3349364905389 2.00000000000001
endloop
endfacet
facet normal 6.67094781594956e-033 3.66082923059826e-017 1.0
outer loop
vertex 58.75 5.3349364905389 2.00000000000001
vertex 62.5 -2.7 2.0
vertex 59.2677669529664 5.73223304703363 2.00000000000001
endloop
endfacet
facet normal 6.67094781594956e-033 3.66082923059826e-017 1.0
outer loop
vertex 59.2677669529664 5.73223304703363 2.00000000000001
vertex 62.5 -2.7 2.0
vertex 59.6650635094611 6.25 2.00000000000001
endloop
endfacet
facet normal 6.67094781594956e-033 3.66082923059826e-017 1.0
outer loop
vertex 59.6650635094611 6.25 2.00000000000001
vertex 62.5 -2.7 2.0
vertex 59.9148145657227 6.85295238724369 2.00000000000001
endloop
endfacet
facet normal 6.67094781594956e-033 3.66082923059826e-017 1.0
outer loop
vertex 59.9148145657227 6.85295238724369 2.00000000000001
vertex 62.5 -2.7 2.0
vertex 60.0 7.5 2.00000000000001
endloop
endfacet
facet normal 6.67094781594956e-033 3.66082923059826e-017 1.0
outer loop
vertex 60.0 7.5 2.00000000000001
vertex 62.5 -2.7 2.0
vertex 60.0 22.5 2.0
endloop
endfacet
facet normal 6.67094781594956e-033 3.66082923059826e-017 1.0
outer loop
vertex 98.5000000000001 2.79999999999995 2.0
vertex 62.5 27.2 2.0
vertex 62.5 2.79999999999995 2.0
endloop
endfacet
facet normal 6.67094781594956e-033 3.66082923059826e-017 1.0
outer loop
vertex 62.5 27.2 2.0
vertex 98.5000000000001 2.79999999999995 2.0
vertex 98.5000000000001 27.2 2.0
endloop
endfacet
facet normal 6.67094781594956e-033 3.66082923059826e-017 1.0
outer loop
vertex 2.0 7.04991620636974e-016 2.0
vertex 0.0 12.0 2.0
vertex 0.0 7.04991620636974e-016 2.0
endloop
endfacet
facet normal 6.67094781594956e-033 3.66082923059826e-017 1.0
outer loop
vertex 0.0 12.0 2.0
vertex 2.0 7.04991620636974e-016 2.0
vertex 10.0 28.0 2.0
endloop
endfacet
facet normal 6.67094781594956e-033 3.66082923059826e-017 1.0
outer loop
vertex 10.0 28.0 2.0
vertex 2.0 7.04991620636974e-016 2.0
vertex 2.69180901817811 0.603239650532307 2.0
endloop
endfacet
facet normal 6.67094781594956e-033 3.66082923059826e-017 1.0
outer loop
vertex 10.0 28.0 2.0
vertex 2.69180901817811 0.603239650532307 2.0
vertex 3.41921884947687 1.16303669494824 2.0
endloop
endfacet
facet normal 6.67094781594956e-033 3.66082923059826e-017 1.0
outer loop
vertex 10.0 28.0 2.0
vertex 3.41921884947687 1.16303669494824 2.0
vertex 4.17950575532775 1.6772950098043 2.0
endloop
endfacet
facet normal 6.67094781594956e-033 3.66082923059826e-017 1.0
outer loop
vertex 10.0 28.0 2.0
vertex 4.17950575532775 1.6772950098043 2.0
vertex 4.72586945155786 2.0 2.0
endloop
endfacet
facet normal 6.67094781594956e-033 3.66082923059826e-017 1.0
outer loop
vertex 10.0 28.0 2.0
vertex 4.72586945155786 2.0 2.0
vertex 4.96982289110548 2.14408898845334 2.0
endloop
endfacet
facet normal 6.67094781594956e-033 3.66082923059826e-017 1.0
outer loop
vertex 10.0 28.0 2.0
vertex 4.96982289110548 2.14408898845334 2.0
vertex 5.78721096595165 2.56167075135276 2.0
endloop
endfacet
facet normal 6.67094781594956e-033 3.66082923059826e-017 1.0
outer loop
vertex 10.0 28.0 2.0
vertex 5.78721096595165 2.56167075135276 2.0
vertex 6.62860932364589 2.92847669088526 2.0
endloop
endfacet
facet normal 6.67094781594956e-033 3.66082923059826e-017 1.0
outer loop
vertex 10.0 28.0 2.0
vertex 6.62860932364589 2.92847669088526 2.0
vertex 7.49086740303312 3.24313332618535 2.0
endloop
endfacet
facet normal 6.67094781594956e-033 3.66082923059826e-017 1.0
outer loop
vertex 10.0 28.0 2.0
vertex 7.49086740303312 3.24313332618535 2.0
vertex 8.37075653509373 3.50446244604864 2.0
endloop
endfacet
facet normal 6.67094781594956e-033 3.66082923059826e-017 1.0
outer loop
vertex 10.0 28.0 2.0
vertex 8.37075653509373 3.50446244604864 2.0
vertex 9.26498203248383 3.71148552066673 2.0
endloop
endfacet
facet normal 6.67094781594956e-033 3.66082923059826e-017 1.0
outer loop
vertex 10.0 28.0 2.0
vertex 9.26498203248383 3.71148552066673 2.0
vertex 10.1701955262766 3.86342736566813 2.0
endloop
endfacet
facet normal 6.67094781594956e-033 3.66082923059826e-017 1.0
outer loop
vertex 10.0 28.0 2.0
vertex 10.1701955262766 3.86342736566813 2.0
vertex 57.5 28.0 2.0
endloop
endfacet
facet normal 6.67094781594956e-033 3.66082923059826e-017 1.0
outer loop
vertex 57.5 28.0 2.0
vertex 10.1701955262766 3.86342736566813 2.0
vertex 11.0830075037108 3.95971904474538 2.0
endloop
endfacet
facet normal 6.67094781594956e-033 3.66082923059826e-017 1.0
outer loop
vertex 57.5 28.0 2.0
vertex 11.0830075037108 3.95971904474538 2.0
vertex 12.0 4.0 2.0
endloop
endfacet
facet normal 6.67094781594956e-033 3.66082923059826e-017 1.0
outer loop
vertex 57.5 28.0 2.0
vertex 12.0 4.0 2.0
vertex 55.3349364905389 23.75 2.0
endloop
endfacet
facet normal 6.67094781594956e-033 3.66082923059826e-017 1.0
outer loop
vertex 55.3349364905389 23.75 2.0
vertex 12.0 4.0 2.0
vertex 55.0851854342773 23.1470476127563 2.0
endloop
endfacet
facet normal 6.67094781594956e-033 3.66082923059826e-017 1.0
outer loop
vertex 55.0851854342773 23.1470476127563 2.0
vertex 12.0 4.0 2.0
vertex 47.5 4.0 2.0
endloop
endfacet
facet normal 6.67094781594956e-033 3.66082923059826e-017 1.0
outer loop
vertex 55.0851854342773 23.1470476127563 2.0
vertex 47.5 4.0 2.0
vertex 55.0 22.5 2.0
endloop
endfacet
facet normal 6.67094781594956e-033 3.66082923059826e-017 1.0
outer loop
vertex 55.0 22.5 2.0
vertex 47.5 4.0 2.0
vertex 55.0 7.49999999999999 2.00000000000001
endloop
endfacet
facet normal 6.67094781594956e-033 3.66082923059826e-017 1.0
outer loop
vertex 57.5 28.0 2.0
vertex 55.3349364905389 23.75 2.0
vertex 55.7322330470336 24.2677669529664 2.0
endloop
endfacet
facet normal 6.67094781594956e-033 3.66082923059826e-017 1.0
outer loop
vertex 57.5 28.0 2.0
vertex 55.7322330470336 24.2677669529664 2.0
vertex 56.25 24.6650635094611 2.0
endloop
endfacet
facet normal 6.67094781594956e-033 3.66082923059826e-017 1.0
outer loop
vertex 57.5 28.0 2.0
vertex 56.25 24.6650635094611 2.0
vertex 56.8529523872437 24.9148145657227 2.0
endloop
endfacet
facet normal 6.67094781594956e-033 3.66082923059826e-017 1.0
outer loop
vertex 57.5 28.0 2.0
vertex 56.8529523872437 24.9148145657227 2.0
vertex 57.5 25.0 2.0
endloop
endfacet
facet normal 6.67094781594956e-033 3.66082923059826e-017 1.0
outer loop
vertex 57.5 28.0 2.0
vertex 57.5 25.0 2.0
vertex 58.1470476127563 24.9148145657227 2.0
endloop
endfacet
facet normal 6.67094781594956e-033 3.66082923059826e-017 1.0
outer loop
vertex 57.5 28.0 2.0
vertex 58.1470476127563 24.9148145657227 2.0
vertex 57.5 30.0 2.0
endloop
endfacet
facet normal 6.67094781594956e-033 3.66082923059826e-017 1.0
outer loop
vertex 57.5 30.0 2.0
vertex 58.1470476127563 24.9148145657227 2.0
vertex 62.5 30.0 2.0
endloop
endfacet
facet normal 6.67094781594956e-033 3.66082923059826e-017 1.0
outer loop
vertex 62.5 30.0 2.0
vertex 58.1470476127563 24.9148145657227 2.0
vertex 58.75 24.6650635094611 2.0
endloop
endfacet
facet normal 6.67094781594956e-033 3.66082923059826e-017 1.0
outer loop
vertex 62.5 30.0 2.0
vertex 58.75 24.6650635094611 2.0
vertex 59.2677669529664 24.2677669529664 2.0
endloop
endfacet
facet normal 6.67094781594956e-033 3.66082923059826e-017 1.0
outer loop
vertex 62.5 30.0 2.0
vertex 59.2677669529664 24.2677669529664 2.0
vertex 59.6650635094611 23.75 2.0
endloop
endfacet
facet normal 6.67094781594956e-033 3.66082923059826e-017 1.0
outer loop
vertex 62.5 30.0 2.0
vertex 59.6650635094611 23.75 2.0
vertex 59.9148145657227 23.1470476127563 2.0
endloop
endfacet
facet normal 6.67094781594956e-033 3.66082923059826e-017 1.0
outer loop
vertex 62.5 30.0 2.0
vertex 59.9148145657227 23.1470476127563 2.0
vertex 60.0 22.5 2.0
endloop
endfacet
facet normal 6.67094781594956e-033 3.66082923059826e-017 1.0
outer loop
vertex 62.5 30.0 2.0
vertex 60.0 22.5 2.0
vertex 62.5 -2.7 2.0
endloop
endfacet
facet normal 6.67094781594956e-033 3.66082923059826e-017 1.0
outer loop
vertex 62.5 30.0 2.0
vertex 62.5 -2.7 2.0
vertex 62.5 2.79999999999995 2.0
endloop
endfacet
facet normal 6.67094781594956e-033 3.66082923059826e-017 1.0
outer loop
vertex 62.5 30.0 2.0
vertex 62.5 2.79999999999995 2.0
vertex 62.5 27.2 2.0
endloop
endfacet
facet normal 6.67094781594956e-033 3.66082923059826e-017 1.0
outer loop
vertex 113.5 -2.7 2.0
vertex 98.5000000000001 2.79999999999995 2.0
vertex 98.5000000000001 -2.7 2.0
endloop
endfacet
facet normal 6.67094781594956e-033 3.66082923059826e-017 1.0
outer loop
vertex 98.5000000000001 2.79999999999995 2.0
vertex 113.5 -2.7 2.0
vertex 98.5000000000001 27.2 2.0
endloop
endfacet
facet normal 6.67094781594956e-033 3.66082923059826e-017 1.0
outer loop
vertex 98.5000000000001 27.2 2.0
vertex 113.5 -2.7 2.0
vertex 98.5000000000001 30.0 2.0
endloop
endfacet
facet normal 6.67094781594956e-033 3.66082923059826e-017 1.0
outer loop
vertex 98.5000000000001 30.0 2.0
vertex 113.5 -2.7 2.0
vertex 103.5 28.0 2.0
endloop
endfacet
facet normal 6.67094781594956e-033 3.66082923059826e-017 1.0
outer loop
vertex 103.5 28.0 2.0
vertex 113.5 -2.7 2.0
vertex 113.5 3.99999999999999 2.0
endloop
endfacet
facet normal 6.67094781594956e-033 3.66082923059826e-017 1.0
outer loop
vertex 103.5 28.0 2.0
vertex 113.5 3.99999999999999 2.0
vertex 151.0 28.0 2.0
endloop
endfacet
facet normal 6.67094781594956e-033 3.66082923059826e-017 1.0
outer loop
vertex 151.0 28.0 2.0
vertex 113.5 3.99999999999999 2.0
vertex 149.0 3.99999999999999 2.0
endloop
endfacet
facet normal 6.67094781594956e-033 3.66082923059826e-017 1.0
outer loop
vertex 151.0 28.0 2.0
vertex 149.0 3.99999999999999 2.0
vertex 149.91699249629 3.95971904474542 2.0
endloop
endfacet
facet normal 6.67094781594956e-033 3.66082923059826e-017 1.0
outer loop
vertex 151.0 28.0 2.0
vertex 149.91699249629 3.95971904474542 2.0
vertex 150.829804473724 3.86342736566812 2.0
endloop
endfacet
facet normal 6.67094781594956e-033 3.66082923059826e-017 1.0
outer loop
vertex 151.0 28.0 2.0
vertex 150.829804473724 3.86342736566812 2.0
vertex 151.735017967516 3.71148552066677 2.0
endloop
endfacet
facet normal 6.67094781594956e-033 3.66082923059826e-017 1.0
outer loop
vertex 151.0 28.0 2.0
vertex 151.735017967516 3.71148552066677 2.0
vertex 161.000000000001 12.0 2.0
endloop
endfacet
facet normal 6.67094781594956e-033 3.66082923059826e-017 1.0
outer loop
vertex 161.000000000001 12.0 2.0
vertex 151.735017967516 3.71148552066677 2.0
vertex 152.629243464907 3.50446244604866 2.0
endloop
endfacet
facet normal 6.67094781594956e-033 3.66082923059826e-017 1.0
outer loop
vertex 161.000000000001 12.0 2.0
vertex 152.629243464907 3.50446244604866 2.0
vertex 153.509132596967 3.24313332618536 2.0
endloop
endfacet
facet normal 6.67094781594956e-033 3.66082923059826e-017 1.0
outer loop
vertex 161.000000000001 12.0 2.0
vertex 153.509132596967 3.24313332618536 2.0
vertex 154.371390676354 2.9284766908853 2.0
endloop
endfacet
facet normal 6.67094781594956e-033 3.66082923059826e-017 1.0
outer loop
vertex 161.000000000001 12.0 2.0
vertex 154.371390676354 2.9284766908853 2.0
vertex 155.212789034049 2.56167075135278 2.0
endloop
endfacet
facet normal 6.67094781594956e-033 3.66082923059826e-017 1.0
outer loop
vertex 161.000000000001 12.0 2.0
vertex 155.212789034049 2.56167075135278 2.0
vertex 156.030177108895 2.14408898845334 2.0
endloop
endfacet
facet normal 6.67094781594956e-033 3.66082923059826e-017 1.0
outer loop
vertex 161.000000000001 12.0 2.0
vertex 156.030177108895 2.14408898845334 2.0
vertex 156.274130548443 1.99999999999999 2.0
endloop
endfacet
facet normal 6.67094781594956e-033 3.66082923059826e-017 1.0
outer loop
vertex 161.000000000001 12.0 2.0
vertex 156.274130548443 1.99999999999999 2.0
vertex 156.820494244672 1.67729500980433 2.0
endloop
endfacet
facet normal 6.67094781594956e-033 3.66082923059826e-017 1.0
outer loop
vertex 161.000000000001 12.0 2.0
vertex 156.820494244672 1.67729500980433 2.0
vertex 157.580781150524 1.16303669494827 2.0
endloop
endfacet
facet normal 6.67094781594956e-033 3.66082923059826e-017 1.0
outer loop
vertex 161.000000000001 12.0 2.0
vertex 157.580781150524 1.16303669494827 2.0
vertex 158.308190981823 0.603239650532321 2.0
endloop
endfacet
facet normal 6.67094781594956e-033 3.66082923059826e-017 1.0
outer loop
vertex 161.000000000001 12.0 2.0
vertex 158.308190981823 0.603239650532321 2.0
vertex 159.0 1.69197988952874e-014 2.0
endloop
endfacet
facet normal 6.67094781594956e-033 3.66082923059826e-017 1.0
outer loop
vertex 161.000000000001 12.0 2.0
vertex 159.0 1.69197988952874e-014 2.0
vertex 161.000000000001 1.69197988952874e-014 2.0
endloop
endfacet
facet normal 6.67094781594956e-033 3.66082923059826e-017 1.0
outer loop
vertex 103.5 30.0 2.0
vertex 98.5000000000001 30.0 2.0
vertex 103.5 28.0 2.0
endloop
endfacet
facet normal 0.0 -1.0 0.0
outer loop
vertex 47.5 4.0 4.22994972382185e-015
vertex 12.0 4.0 2.0
vertex 12.0 4.0 0.0
endloop
endfacet
facet normal 0.0 -1.0 0.0
outer loop
vertex 12.0 4.0 2.0
vertex 47.5 4.0 4.22994972382185e-015
vertex 47.5 4.0 2.0
endloop
endfacet
endsolid Deslizador
