solid Rueda interna
facet normal 0.0 0.0 1.0
outer loop
vertex 6.40541520302723 14.2673390414672 2.0
vertex 8.2555998935266 28.7436125478672 2.0
vertex 5.14797099254268 26.3611724576049 2.0
endloop
endfacet
facet normal 0.0 0.0 1.0
outer loop
vertex 8.2555998935266 28.7436125478672 2.0
vertex 6.40541520302723 14.2673390414672 2.0
vertex 6.48548951124792 14.8755637974581 2.0
endloop
endfacet
facet normal 0.0 0.0 1.0
outer loop
vertex 8.2555998935266 28.7436125478672 2.0
vertex 6.48548951124792 14.8755637974581 2.0
vertex 6.7202555041338 15.4423390414672 2.0
endloop
endfacet
facet normal 0.0 0.0 1.0
outer loop
vertex 8.2555998935266 28.7436125478672 2.0
vertex 6.7202555041338 15.4423390414672 2.0
vertex 7.09371426723884 15.9290399772555 2.0
endloop
endfacet
facet normal 0.0 0.0 1.0
outer loop
vertex 8.2555998935266 28.7436125478672 2.0
vertex 7.09371426723884 15.9290399772555 2.0
vertex 7.58041520302723 16.3024987403606 2.0
endloop
endfacet
facet normal 0.0 0.0 1.0
outer loop
vertex 8.2555998935266 28.7436125478672 2.0
vertex 7.58041520302723 16.3024987403606 2.0
vertex 8.14719044703631 16.5372647332465 2.0
endloop
endfacet
facet normal 0.0 0.0 1.0
outer loop
vertex 8.2555998935266 28.7436125478672 2.0
vertex 8.14719044703631 16.5372647332465 2.0
vertex 8.69958332961716 16.6099886358877 2.0
endloop
endfacet
facet normal 0.0 0.0 1.0
outer loop
vertex 8.2555998935266 28.7436125478672 2.0
vertex 8.69958332961716 16.6099886358877 2.0
vertex 11.8739597766849 30.2405594159523 2.0
endloop
endfacet
facet normal 0.0 0.0 1.0
outer loop
vertex 11.8739597766849 30.2405594159523 2.0
vertex 8.69958332961716 16.6099886358877 2.0
vertex 8.75541520302723 16.6173390414672 2.0
endloop
endfacet
facet normal 0.0 0.0 1.0
outer loop
vertex 11.8739597766849 30.2405594159523 2.0
vertex 8.75541520302723 16.6173390414672 2.0
vertex 9.36363995901815 16.5372647332465 2.0
endloop
endfacet
facet normal 0.0 0.0 1.0
outer loop
vertex 11.8739597766849 30.2405594159523 2.0
vertex 9.36363995901815 16.5372647332465 2.0
vertex 9.93041520302723 16.3024987403606 2.0
endloop
endfacet
facet normal 0.0 0.0 1.0
outer loop
vertex 11.8739597766849 30.2405594159523 2.0
vertex 9.93041520302723 16.3024987403606 2.0
vertex 10.4171161388156 15.9290399772556 2.0
endloop
endfacet
facet normal 0.0 0.0 1.0
outer loop
vertex 11.8739597766849 30.2405594159523 2.0
vertex 10.4171161388156 15.9290399772556 2.0
vertex 10.7905749019207 15.4423390414672 2.0
endloop
endfacet
facet normal 0.0 0.0 1.0
outer loop
vertex 11.8739597766849 30.2405594159523 2.0
vertex 10.7905749019207 15.4423390414672 2.0
vertex 11.0253408948065 14.8755637974581 2.0
endloop
endfacet
facet normal 0.0 0.0 1.0
outer loop
vertex 11.8739597766849 30.2405594159523 2.0
vertex 11.0253408948065 14.8755637974581 2.0
vertex 11.1054152030272 14.2673390414672 2.0
endloop
endfacet
facet normal 0.0 0.0 1.0
outer loop
vertex 11.8739597766849 30.2405594159523 2.0
vertex 11.1054152030272 14.2673390414672 2.0
vertex 11.861469591505 1.26278731907997 2.0
endloop
endfacet
facet normal 0.0 0.0 1.0
outer loop
vertex 11.8739597766849 30.2405594159523 2.0
vertex 11.861469591505 1.26278731907997 2.0
vertex 15.7435346043972 0.75000139337807 2.0
endloop
endfacet
facet normal 0.0 0.0 1.0
outer loop
vertex 11.8739597766849 30.2405594159523 2.0
vertex 15.7435346043972 0.75000139337807 2.0
vertex 15.2554544990077 15.6763471151392 2.0
endloop
endfacet
facet normal 0.0 0.0 1.0
outer loop
vertex 11.8739597766849 30.2405594159523 2.0
vertex 15.2554544990077 15.6763471151392 2.0
vertex 15.2532429589878 15.8068545706589 2.0
endloop
endfacet
facet normal 0.0 0.0 1.0
outer loop
vertex 15.2554544990077 15.6763471151392 2.0
vertex 15.7435346043972 0.75000139337807 2.0
vertex 15.2913684976452 15.5508589820057 2.0
endloop
endfacet
facet normal 0.0 0.0 1.0
outer loop
vertex 15.2913684976452 15.5508589820057 2.0
vertex 15.7435346043972 0.75000139337807 2.0
vertex 15.3585374752438 15.4389419801524 2.0
endloop
endfacet
facet normal 0.0 0.0 1.0
outer loop
vertex 15.3585374752438 15.4389419801524 2.0
vertex 15.7435346043972 0.75000139337807 2.0
vertex 15.4523839769821 15.3482230683041 2.0
endloop
endfacet
facet normal 0.0 0.0 1.0
outer loop
vertex 15.4523839769821 15.3482230683041 2.0
vertex 15.7435346043972 0.75000139337807 2.0
vertex 15.5665125188553 15.284884590383 2.0
endloop
endfacet
facet normal 0.0 0.0 1.0
outer loop
vertex 15.5665125188553 15.284884590383 2.0
vertex 15.7435346043972 0.75000139337807 2.0
vertex 15.6931454293411 15.2532429589878 2.0
endloop
endfacet
facet normal 0.0 0.0 1.0
outer loop
vertex 15.6931454293411 15.2532429589878 2.0
vertex 15.7435346043972 0.75000139337807 2.0
vertex 15.8236528848607 15.2554544990077 2.0
endloop
endfacet
facet normal 0.0 0.0 1.0
outer loop
vertex 15.8236528848607 15.2554544990077 2.0
vertex 15.7435346043972 0.75000139337807 2.0
vertex 19.6260402233151 1.2594405840477 2.0
endloop
endfacet
facet normal 0.0 0.0 1.0
outer loop
vertex 15.8236528848607 15.2554544990077 2.0
vertex 19.6260402233151 1.2594405840477 2.0
vertex 15.9491410179943 15.2913684976452 2.0
endloop
endfacet
facet normal 0.0 0.0 1.0
outer loop
vertex 15.9491410179943 15.2913684976452 2.0
vertex 19.6260402233151 1.2594405840477 2.0
vertex 16.0610580198475 15.3585374752438 2.0
endloop
endfacet
facet normal 0.0 0.0 1.0
outer loop
vertex 16.0610580198475 15.3585374752438 2.0
vertex 19.6260402233151 1.2594405840477 2.0
vertex 16.1517769316959 15.4523839769821 2.0
endloop
endfacet
facet normal 0.0 0.0 1.0
outer loop
vertex 16.1517769316959 15.4523839769821 2.0
vertex 19.6260402233151 1.2594405840477 2.0
vertex 16.215115409617 15.5665125188553 2.0
endloop
endfacet
facet normal 0.0 0.0 1.0
outer loop
vertex 16.215115409617 15.5665125188553 2.0
vertex 19.6260402233151 1.2594405840477 2.0
vertex 16.2467570410122 15.6931454293411 2.0
endloop
endfacet
facet normal 0.0 0.0 1.0
outer loop
vertex 15.2532429589878 15.8068545706589 2.0
vertex 15.7564653956028 30.7499986066219 2.0
vertex 11.8739597766849 30.2405594159523 2.0
endloop
endfacet
facet normal 0.0 0.0 1.0
outer loop
vertex 15.7564653956028 30.7499986066219 2.0
vertex 15.2532429589878 15.8068545706589 2.0
vertex 15.284884590383 15.9334874811447 2.0
endloop
endfacet
facet normal 0.0 0.0 1.0
outer loop
vertex 15.7564653956028 30.7499986066219 2.0
vertex 15.284884590383 15.9334874811447 2.0
vertex 15.3482230683041 16.0476160230179 2.0
endloop
endfacet
facet normal 0.0 0.0 1.0
outer loop
vertex 15.7564653956028 30.7499986066219 2.0
vertex 15.3482230683041 16.0476160230179 2.0
vertex 15.4389419801524 16.1414625247562 2.0
endloop
endfacet
facet normal 0.0 0.0 1.0
outer loop
vertex 15.7564653956028 30.7499986066219 2.0
vertex 15.4389419801524 16.1414625247562 2.0
vertex 15.5508589820057 16.2086315023548 2.0
endloop
endfacet
facet normal 0.0 0.0 1.0
outer loop
vertex 15.7564653956028 30.7499986066219 2.0
vertex 15.5508589820057 16.2086315023548 2.0
vertex 15.6763471151392 16.2445455009923 2.0
endloop
endfacet
facet normal 0.0 0.0 1.0
outer loop
vertex 15.7564653956028 30.7499986066219 2.0
vertex 15.6763471151392 16.2445455009923 2.0
vertex 15.8068545706589 16.2467570410122 2.0
endloop
endfacet
facet normal 0.0 0.0 1.0
outer loop
vertex 15.7564653956028 30.7499986066219 2.0
vertex 15.8068545706589 16.2467570410122 2.0
vertex 19.638530408495 30.23721268092 2.0
endloop
endfacet
facet normal 0.0 0.0 1.0
outer loop
vertex 19.638530408495 30.23721268092 2.0
vertex 15.8068545706589 16.2467570410122 2.0
vertex 15.9334874811447 16.215115409617 2.0
endloop
endfacet
facet normal 0.0 0.0 1.0
outer loop
vertex 19.638530408495 30.23721268092 2.0
vertex 15.9334874811447 16.215115409617 2.0
vertex 16.0476160230179 16.1517769316959 2.0
endloop
endfacet
facet normal 0.0 0.0 1.0
outer loop
vertex 19.638530408495 30.23721268092 2.0
vertex 16.0476160230179 16.1517769316959 2.0
vertex 16.1414625247562 16.0610580198475 2.0
endloop
endfacet
facet normal 0.0 0.0 1.0
outer loop
vertex 19.638530408495 30.23721268092 2.0
vertex 16.1414625247562 16.0610580198475 2.0
vertex 16.2086315023548 15.9491410179943 2.0
endloop
endfacet
facet normal 0.0 0.0 1.0
outer loop
vertex 19.638530408495 30.23721268092 2.0
vertex 16.2086315023548 15.9491410179943 2.0
vertex 16.2445455009923 15.8236528848607 2.0
endloop
endfacet
facet normal 0.0 0.0 1.0
outer loop
vertex 19.638530408495 30.23721268092 2.0
vertex 16.2445455009923 15.8236528848607 2.0
vertex 16.2467570410122 15.6931454293411 2.0
endloop
endfacet
facet normal 0.0 0.0 1.0
outer loop
vertex 19.638530408495 30.23721268092 2.0
vertex 16.2467570410122 15.6931454293411 2.0
vertex 19.6260402233151 1.2594405840477 2.0
endloop
endfacet
facet normal 0.0 0.0 1.0
outer loop
vertex 19.638530408495 30.23721268092 2.0
vertex 19.6260402233151 1.2594405840477 2.0
vertex 23.2444001064734 2.75638745213281 2.0
endloop
endfacet
facet normal 0.0 0.0 1.0
outer loop
vertex 19.638530408495 30.23721268092 2.0
vertex 23.2444001064734 2.75638745213281 2.0
vertex 23.2555985001485 28.7371471522643 2.0
endloop
endfacet
facet normal 0.0 0.0 1.0
outer loop
vertex 23.2555985001485 28.7371471522643 2.0
vertex 23.2444001064734 2.75638745213281 2.0
vertex 26.3520290074573 5.13882754239506 2.0
endloop
endfacet
facet normal 0.0 0.0 1.0
outer loop
vertex 23.2555985001485 28.7371471522643 2.0
vertex 26.3520290074573 5.13882754239506 2.0
vertex 26.3611724576049 26.3520290074573 2.0
endloop
endfacet
facet normal 0.0 0.0 1.0
outer loop
vertex 26.3611724576049 26.3520290074573 2.0
vertex 26.3520290074573 5.13882754239506 2.0
vertex 28.7371471522643 8.24440149985147 2.0
endloop
endfacet
facet normal 0.0 0.0 1.0
outer loop
vertex 26.3611724576049 26.3520290074573 2.0
vertex 28.7371471522643 8.24440149985147 2.0
vertex 28.7436125478672 23.2444001064734 2.0
endloop
endfacet
facet normal 0.0 0.0 1.0
outer loop
vertex 28.7436125478672 23.2444001064734 2.0
vertex 28.7371471522643 8.24440149985147 2.0
vertex 30.23721268092 11.861469591505 2.0
endloop
endfacet
facet normal 0.0 0.0 1.0
outer loop
vertex 28.7436125478672 23.2444001064734 2.0
vertex 30.23721268092 11.861469591505 2.0
vertex 30.2405594159523 19.6260402233151 2.0
endloop
endfacet
facet normal 0.0 0.0 1.0
outer loop
vertex 30.2405594159523 19.6260402233151 2.0
vertex 30.23721268092 11.861469591505 2.0
vertex 30.7499986066219 15.7435346043972 2.0
endloop
endfacet
facet normal 0.0 0.0 1.0
outer loop
vertex 1.2594405840477 11.8739597766849 2.0
vertex 1.26278731907997 19.638530408495 2.0
vertex 0.75000139337807 15.7564653956028 2.0
endloop
endfacet
facet normal 0.0 0.0 1.0
outer loop
vertex 1.26278731907997 19.638530408495 2.0
vertex 1.2594405840477 11.8739597766849 2.0
vertex 2.75638745213281 8.2555998935266 2.0
endloop
endfacet
facet normal 0.0 0.0 1.0
outer loop
vertex 1.26278731907997 19.638530408495 2.0
vertex 2.75638745213281 8.2555998935266 2.0
vertex 2.76285284773564 23.2555985001485 2.0
endloop
endfacet
facet normal 0.0 0.0 1.0
outer loop
vertex 2.76285284773564 23.2555985001485 2.0
vertex 2.75638745213281 8.2555998935266 2.0
vertex 5.13882754239506 5.14797099254268 2.0
endloop
endfacet
facet normal 0.0 0.0 1.0
outer loop
vertex 2.76285284773564 23.2555985001485 2.0
vertex 5.13882754239506 5.14797099254268 2.0
vertex 5.14797099254268 26.3611724576049 2.0
endloop
endfacet
facet normal 0.0 0.0 1.0
outer loop
vertex 5.14797099254268 26.3611724576049 2.0
vertex 5.13882754239506 5.14797099254268 2.0
vertex 6.40541520302723 14.2673390414672 2.0
endloop
endfacet
facet normal 0.0 0.0 1.0
outer loop
vertex 6.40541520302723 14.2673390414672 2.0
vertex 5.13882754239506 5.14797099254268 2.0
vertex 6.48548951124792 13.6591142854762 2.0
endloop
endfacet
facet normal 0.0 0.0 1.0
outer loop
vertex 6.48548951124792 13.6591142854762 2.0
vertex 5.13882754239506 5.14797099254268 2.0
vertex 8.24440149985147 2.76285284773564 2.0
endloop
endfacet
facet normal 0.0 0.0 1.0
outer loop
vertex 6.48548951124792 13.6591142854762 2.0
vertex 8.24440149985147 2.76285284773564 2.0
vertex 6.7202555041338 13.0923390414672 2.0
endloop
endfacet
facet normal 0.0 0.0 1.0
outer loop
vertex 6.7202555041338 13.0923390414672 2.0
vertex 8.24440149985147 2.76285284773564 2.0
vertex 7.09371426723884 12.6056381056788 2.0
endloop
endfacet
facet normal 0.0 0.0 1.0
outer loop
vertex 7.09371426723884 12.6056381056788 2.0
vertex 8.24440149985147 2.76285284773564 2.0
vertex 7.58041520302723 12.2321793425737 2.0
endloop
endfacet
facet normal 0.0 0.0 1.0
outer loop
vertex 7.58041520302723 12.2321793425737 2.0
vertex 8.24440149985147 2.76285284773564 2.0
vertex 8.14719044703631 11.9974133496878 2.0
endloop
endfacet
facet normal 0.0 0.0 1.0
outer loop
vertex 8.14719044703631 11.9974133496878 2.0
vertex 8.24440149985147 2.76285284773564 2.0
vertex 8.75541520302723 11.9173390414672 2.0
endloop
endfacet
facet normal 0.0 0.0 1.0
outer loop
vertex 8.75541520302723 11.9173390414672 2.0
vertex 8.24440149985147 2.76285284773564 2.0
vertex 11.861469591505 1.26278731907997 2.0
endloop
endfacet
facet normal 0.0 0.0 1.0
outer loop
vertex 8.75541520302723 11.9173390414672 2.0
vertex 11.861469591505 1.26278731907997 2.0
vertex 9.36363995901816 11.9974133496878 2.0
endloop
endfacet
facet normal 0.0 0.0 1.0
outer loop
vertex 9.36363995901816 11.9974133496878 2.0
vertex 11.861469591505 1.26278731907997 2.0
vertex 9.64707202209354 12.1148147542251 2.0
endloop
endfacet
facet normal 0.0 0.0 1.0
outer loop
vertex 9.64707202209354 12.1148147542251 2.0
vertex 11.861469591505 1.26278731907997 2.0
vertex 9.93041520302723 12.2321793425737 2.0
endloop
endfacet
facet normal 0.0 0.0 1.0
outer loop
vertex 9.93041520302723 12.2321793425737 2.0
vertex 11.861469591505 1.26278731907997 2.0
vertex 10.4171161388156 12.6056381056788 2.0
endloop
endfacet
facet normal 0.0 0.0 1.0
outer loop
vertex 10.4171161388156 12.6056381056788 2.0
vertex 11.861469591505 1.26278731907997 2.0
vertex 10.7905749019207 13.0923390414672 2.0
endloop
endfacet
facet normal 0.0 0.0 1.0
outer loop
vertex 10.7905749019207 13.0923390414672 2.0
vertex 11.861469591505 1.26278731907997 2.0
vertex 11.0253408948065 13.6591142854762 2.0
endloop
endfacet
facet normal 0.0 0.0 1.0
outer loop
vertex 11.0253408948065 13.6591142854762 2.0
vertex 11.861469591505 1.26278731907997 2.0
vertex 11.1054152030272 14.2673390414672 2.0
endloop
endfacet
facet normal -0.0 -0.0 -1.0
outer loop
vertex 15.7564653956028 30.7499986066219 7.04991620636974e-16
vertex 15.2532429589878 15.8068545706589 4.0537018186626e-15
vertex 11.8739597766849 30.2405594159523 7.04991620636974e-16
endloop
endfacet
facet normal -0.0 -0.0 -1.0
outer loop
vertex 15.2532429589878 15.8068545706589 4.0537018186626e-15
vertex 15.7564653956028 30.7499986066219 7.04991620636974e-16
vertex 15.284884590383 15.9334874811447 4.0537018186626e-15
endloop
endfacet
facet normal -0.0 -0.0 -1.0
outer loop
vertex 15.284884590383 15.9334874811447 4.0537018186626e-15
vertex 15.7564653956028 30.7499986066219 7.04991620636974e-16
vertex 15.3482230683041 16.0476160230179 4.0537018186626e-15
endloop
endfacet
facet normal -0.0 -0.0 -1.0
outer loop
vertex 15.3482230683041 16.0476160230179 4.0537018186626e-15
vertex 15.7564653956028 30.7499986066219 7.04991620636974e-16
vertex 15.4389419801524 16.1414625247562 4.0537018186626e-15
endloop
endfacet
facet normal -0.0 -0.0 -1.0
outer loop
vertex 15.4389419801524 16.1414625247562 4.0537018186626e-15
vertex 15.7564653956028 30.7499986066219 7.04991620636974e-16
vertex 15.5508589820057 16.2086315023548 4.0537018186626e-15
endloop
endfacet
facet normal -0.0 -0.0 -1.0
outer loop
vertex 15.5508589820057 16.2086315023548 4.0537018186626e-15
vertex 15.7564653956028 30.7499986066219 7.04991620636974e-16
vertex 15.6763471151392 16.2445455009923 4.0537018186626e-15
endloop
endfacet
facet normal -0.0 -0.0 -1.0
outer loop
vertex 15.6763471151392 16.2445455009923 4.0537018186626e-15
vertex 15.7564653956028 30.7499986066219 7.04991620636974e-16
vertex 15.8068545706589 16.2467570410122 4.0537018186626e-15
endloop
endfacet
facet normal -0.0 -0.0 -1.0
outer loop
vertex 15.8068545706589 16.2467570410122 4.0537018186626e-15
vertex 15.7564653956028 30.7499986066219 7.04991620636974e-16
vertex 19.638530408495 30.23721268092 7.04991620636974e-16
endloop
endfacet
facet normal -0.0 -0.0 -1.0
outer loop
vertex 15.8068545706589 16.2467570410122 4.0537018186626e-15
vertex 19.638530408495 30.23721268092 7.04991620636974e-16
vertex 15.9334874811447 16.215115409617 4.0537018186626e-15
endloop
endfacet
facet normal -0.0 -0.0 -1.0
outer loop
vertex 15.9334874811447 16.215115409617 4.0537018186626e-15
vertex 19.638530408495 30.23721268092 7.04991620636974e-16
vertex 16.0476160230179 16.1517769316959 4.0537018186626e-15
endloop
endfacet
facet normal -0.0 -0.0 -1.0
outer loop
vertex 16.0476160230179 16.1517769316959 4.0537018186626e-15
vertex 19.638530408495 30.23721268092 7.04991620636974e-16
vertex 16.1414625247562 16.0610580198475 4.0537018186626e-15
endloop
endfacet
facet normal -0.0 -0.0 -1.0
outer loop
vertex 16.1414625247562 16.0610580198475 4.0537018186626e-15
vertex 19.638530408495 30.23721268092 7.04991620636974e-16
vertex 16.2086315023548 15.9491410179943 4.0537018186626e-15
endloop
endfacet
facet normal -0.0 -0.0 -1.0
outer loop
vertex 16.2086315023548 15.9491410179943 4.0537018186626e-15
vertex 19.638530408495 30.23721268092 7.04991620636974e-16
vertex 16.2445455009923 15.8236528848607 4.0537018186626e-15
endloop
endfacet
facet normal -0.0 -0.0 -1.0
outer loop
vertex 16.2445455009923 15.8236528848607 4.0537018186626e-15
vertex 19.638530408495 30.23721268092 7.04991620636974e-16
vertex 16.2467570410122 15.6931454293411 4.0537018186626e-15
endloop
endfacet
facet normal -0.0 -0.0 -1.0
outer loop
vertex 16.2467570410122 15.6931454293411 4.0537018186626e-15
vertex 19.638530408495 30.23721268092 7.04991620636974e-16
vertex 19.6260402233151 1.2594405840477 7.04991620636974e-16
endloop
endfacet
facet normal -0.0 -0.0 -1.0
outer loop
vertex 19.6260402233151 1.2594405840477 7.04991620636974e-16
vertex 19.638530408495 30.23721268092 7.04991620636974e-16
vertex 23.2444001064734 2.75638745213281 7.04991620636974e-16
endloop
endfacet
facet normal -0.0 -0.0 -1.0
outer loop
vertex 23.2444001064734 2.75638745213281 7.04991620636974e-16
vertex 19.638530408495 30.23721268092 7.04991620636974e-16
vertex 23.2555985001485 28.7371471522643 7.04991620636974e-16
endloop
endfacet
facet normal -0.0 -0.0 -1.0
outer loop
vertex 23.2444001064734 2.75638745213281 7.04991620636974e-16
vertex 23.2555985001485 28.7371471522643 7.04991620636974e-16
vertex 26.3520290074573 5.13882754239506 7.04991620636974e-16
endloop
endfacet
facet normal -0.0 -0.0 -1.0
outer loop
vertex 26.3520290074573 5.13882754239506 7.04991620636974e-16
vertex 23.2555985001485 28.7371471522643 7.04991620636974e-16
vertex 26.3611724576049 26.3520290074573 7.04991620636974e-16
endloop
endfacet
facet normal -0.0 -0.0 -1.0
outer loop
vertex 26.3520290074573 5.13882754239506 7.04991620636974e-16
vertex 26.3611724576049 26.3520290074573 7.04991620636974e-16
vertex 28.7371471522643 8.24440149985147 7.04991620636974e-16
endloop
endfacet
facet normal -0.0 -0.0 -1.0
outer loop
vertex 28.7371471522643 8.24440149985147 7.04991620636974e-16
vertex 26.3611724576049 26.3520290074573 7.04991620636974e-16
vertex 28.7436125478672 23.2444001064734 7.04991620636974e-16
endloop
endfacet
facet normal -0.0 -0.0 -1.0
outer loop
vertex 28.7371471522643 8.24440149985147 7.04991620636974e-16
vertex 28.7436125478672 23.2444001064734 7.04991620636974e-16
vertex 30.23721268092 11.861469591505 7.04991620636974e-16
endloop
endfacet
facet normal -0.0 -0.0 -1.0
outer loop
vertex 30.23721268092 11.861469591505 7.04991620636974e-16
vertex 28.7436125478672 23.2444001064734 7.04991620636974e-16
vertex 30.2405594159523 19.6260402233151 7.04991620636974e-16
endloop
endfacet
facet normal -0.0 -0.0 -1.0
outer loop
vertex 30.23721268092 11.861469591505 7.04991620636974e-16
vertex 30.2405594159523 19.6260402233151 7.04991620636974e-16
vertex 30.7499986066219 15.7435346043972 7.04991620636974e-16
endloop
endfacet
facet normal -0.0 -0.0 -1.0
outer loop
vertex 1.26278731907997 19.638530408495 7.04991620636974e-16
vertex 1.2594405840477 11.8739597766849 7.04991620636974e-16
vertex 0.75000139337807 15.7564653956028 7.04991620636974e-16
endloop
endfacet
facet normal -0.0 -0.0 -1.0
outer loop
vertex 1.2594405840477 11.8739597766849 7.04991620636974e-16
vertex 1.26278731907997 19.638530408495 7.04991620636974e-16
vertex 2.75638745213281 8.2555998935266 7.04991620636974e-16
endloop
endfacet
facet normal -0.0 -0.0 -1.0
outer loop
vertex 2.75638745213281 8.2555998935266 7.04991620636974e-16
vertex 1.26278731907997 19.638530408495 7.04991620636974e-16
vertex 2.76285284773564 23.2555985001485 7.04991620636974e-16
endloop
endfacet
facet normal -0.0 -0.0 -1.0
outer loop
vertex 2.75638745213281 8.2555998935266 7.04991620636974e-16
vertex 2.76285284773564 23.2555985001485 7.04991620636974e-16
vertex 5.13882754239506 5.14797099254268 7.04991620636974e-16
endloop
endfacet
facet normal -0.0 -0.0 -1.0
outer loop
vertex 5.13882754239506 5.14797099254268 7.04991620636974e-16
vertex 2.76285284773564 23.2555985001485 7.04991620636974e-16
vertex 5.14797099254268 26.3611724576049 7.04991620636974e-16
endloop
endfacet
facet normal -0.0 -0.0 -1.0
outer loop
vertex 5.13882754239506 5.14797099254268 7.04991620636974e-16
vertex 5.14797099254268 26.3611724576049 7.04991620636974e-16
vertex 8.24440149985147 2.76285284773564 7.04991620636974e-16
endloop
endfacet
facet normal -0.0 -0.0 -1.0
outer loop
vertex 8.24440149985147 2.76285284773564 7.04991620636974e-16
vertex 5.14797099254268 26.3611724576049 7.04991620636974e-16
vertex 8.2555998935266 28.7436125478672 7.04991620636974e-16
endloop
endfacet
facet normal -0.0 -0.0 -1.0
outer loop
vertex 8.24440149985147 2.76285284773564 7.04991620636974e-16
vertex 8.2555998935266 28.7436125478672 7.04991620636974e-16
vertex 11.861469591505 1.26278731907997 7.04991620636974e-16
endloop
endfacet
facet normal -0.0 -0.0 -1.0
outer loop
vertex 11.861469591505 1.26278731907997 7.04991620636974e-16
vertex 8.2555998935266 28.7436125478672 7.04991620636974e-16
vertex 11.8739597766849 30.2405594159523 7.04991620636974e-16
endloop
endfacet
facet normal -0.0 -0.0 -1.0
outer loop
vertex 11.861469591505 1.26278731907997 7.04991620636974e-16
vertex 11.8739597766849 30.2405594159523 7.04991620636974e-16
vertex 15.7435346043972 0.75000139337807 7.04991620636974e-16
endloop
endfacet
facet normal -0.0 -0.0 -1.0
outer loop
vertex 15.7435346043972 0.75000139337807 7.04991620636974e-16
vertex 11.8739597766849 30.2405594159523 7.04991620636974e-16
vertex 15.2554544990077 15.6763471151392 4.0537018186626e-15
endloop
endfacet
facet normal -0.0 -0.0 -1.0
outer loop
vertex 15.2554544990077 15.6763471151392 4.0537018186626e-15
vertex 11.8739597766849 30.2405594159523 7.04991620636974e-16
vertex 15.2532429589878 15.8068545706589 4.0537018186626e-15
endloop
endfacet
facet normal -0.0 -0.0 -1.0
outer loop
vertex 15.7435346043972 0.75000139337807 7.04991620636974e-16
vertex 15.2554544990077 15.6763471151392 4.0537018186626e-15
vertex 15.2913684976452 15.5508589820057 4.0537018186626e-15
endloop
endfacet
facet normal -0.0 -0.0 -1.0
outer loop
vertex 15.7435346043972 0.75000139337807 7.04991620636974e-16
vertex 15.2913684976452 15.5508589820057 4.0537018186626e-15
vertex 15.3585374752438 15.4389419801524 4.0537018186626e-15
endloop
endfacet
facet normal -0.0 -0.0 -1.0
outer loop
vertex 15.7435346043972 0.75000139337807 7.04991620636974e-16
vertex 15.3585374752438 15.4389419801524 4.0537018186626e-15
vertex 15.4523839769821 15.3482230683041 4.0537018186626e-15
endloop
endfacet
facet normal -0.0 -0.0 -1.0
outer loop
vertex 15.7435346043972 0.75000139337807 7.04991620636974e-16
vertex 15.4523839769821 15.3482230683041 4.0537018186626e-15
vertex 15.5665125188553 15.284884590383 4.0537018186626e-15
endloop
endfacet
facet normal -0.0 -0.0 -1.0
outer loop
vertex 15.7435346043972 0.75000139337807 7.04991620636974e-16
vertex 15.5665125188553 15.284884590383 4.0537018186626e-15
vertex 15.6931454293411 15.2532429589878 4.0537018186626e-15
endloop
endfacet
facet normal -0.0 -0.0 -1.0
outer loop
vertex 15.7435346043972 0.75000139337807 7.04991620636974e-16
vertex 15.6931454293411 15.2532429589878 4.0537018186626e-15
vertex 15.8236528848607 15.2554544990077 4.0537018186626e-15
endloop
endfacet
facet normal -0.0 -0.0 -1.0
outer loop
vertex 15.7435346043972 0.75000139337807 7.04991620636974e-16
vertex 15.8236528848607 15.2554544990077 4.0537018186626e-15
vertex 19.6260402233151 1.2594405840477 7.04991620636974e-16
endloop
endfacet
facet normal -0.0 -0.0 -1.0
outer loop
vertex 19.6260402233151 1.2594405840477 7.04991620636974e-16
vertex 15.8236528848607 15.2554544990077 4.0537018186626e-15
vertex 15.9491410179943 15.2913684976452 4.0537018186626e-15
endloop
endfacet
facet normal -0.0 -0.0 -1.0
outer loop
vertex 19.6260402233151 1.2594405840477 7.04991620636974e-16
vertex 15.9491410179943 15.2913684976452 4.0537018186626e-15
vertex 16.0610580198475 15.3585374752438 4.0537018186626e-15
endloop
endfacet
facet normal -0.0 -0.0 -1.0
outer loop
vertex 19.6260402233151 1.2594405840477 7.04991620636974e-16
vertex 16.0610580198475 15.3585374752438 4.0537018186626e-15
vertex 16.1517769316959 15.4523839769821 4.0537018186626e-15
endloop
endfacet
facet normal -0.0 -0.0 -1.0
outer loop
vertex 19.6260402233151 1.2594405840477 7.04991620636974e-16
vertex 16.1517769316959 15.4523839769821 4.0537018186626e-15
vertex 16.215115409617 15.5665125188553 4.0537018186626e-15
endloop
endfacet
facet normal -0.0 -0.0 -1.0
outer loop
vertex 19.6260402233151 1.2594405840477 7.04991620636974e-16
vertex 16.215115409617 15.5665125188553 4.0537018186626e-15
vertex 16.2467570410122 15.6931454293411 4.0537018186626e-15
endloop
endfacet
facet normal 0.866240836524479 0.499626673764893 0.0
outer loop
vertex 28.7436125478672 23.2444001064734 7.04991620636974e-16
vertex 30.2405594159523 19.6260402233151 2.0
vertex 30.2405594159523 19.6260402233151 7.04991620636974e-16
endloop
endfacet
facet normal 0.966037294396819 0.258402681554339 0.0
outer loop
vertex 30.2405594159523 19.6260402233151 2.0
vertex 28.7436125478672 23.2444001064734 7.04991620636974e-16
vertex 28.7436125478672 23.2444001064734 2.0
endloop
endfacet
facet normal 0.707411497173663 0.706801933830488 0.0
outer loop
vertex 26.3611724576049 26.3520290074573 7.04991620636974e-16
vertex 28.7436125478672 23.2444001064734 2.0
vertex 28.7436125478672 23.2444001064734 7.04991620636974e-16
endloop
endfacet
facet normal 0.866240836524479 0.499626673764893 0.0
outer loop
vertex 28.7436125478672 23.2444001064734 2.0
vertex 26.3611724576049 26.3520290074573 7.04991620636974e-16
vertex 26.3611724576049 26.3520290074573 2.0
endloop
endfacet
facet normal 0.500373233343235 0.865809810150957 0.0
outer loop
vertex 23.2555985001485 28.7371471522643 2.0
vertex 26.3611724576049 26.3520290074573 7.04991620636974e-16
vertex 23.2555985001485 28.7371471522643 7.04991620636974e-16
endloop
endfacet
facet normal 0.707411497173663 0.706801933830488 0.0
outer loop
vertex 26.3611724576049 26.3520290074573 7.04991620636974e-16
vertex 23.2555985001485 28.7371471522643 2.0
vertex 26.3611724576049 26.3520290074573 2.0
endloop
endfacet
facet normal 0.259235360566332 0.965814178728001 0.0
outer loop
vertex 19.638530408495 30.23721268092 2.0
vertex 23.2555985001485 28.7371471522643 7.04991620636974e-16
vertex 19.638530408495 30.23721268092 7.04991620636974e-16
endloop
endfacet
facet normal 0.500373233343235 0.865809810150957 0.0
outer loop
vertex 23.2555985001485 28.7371471522643 7.04991620636974e-16
vertex 19.638530408495 30.23721268092 2.0
vertex 23.2555985001485 28.7371471522643 2.0
endloop
endfacet
facet normal 0.000431026373521183 0.999999907108128 0.0
outer loop
vertex 15.7564653956028 30.7499986066219 2.0
vertex 19.638530408495 30.23721268092 7.04991620636974e-16
vertex 15.7564653956028 30.7499986066219 7.04991620636974e-16
endloop
endfacet
facet normal 0.259235360566332 0.965814178728001 0.0
outer loop
vertex 19.638530408495 30.23721268092 7.04991620636974e-16
vertex 15.7564653956028 30.7499986066219 2.0
vertex 19.638530408495 30.23721268092 2.0
endloop
endfacet
facet normal -0.258402681554339 0.966037294396819 0.0
outer loop
vertex 11.8739597766849 30.2405594159523 2.0
vertex 15.7564653956028 30.7499986066219 7.04991620636974e-16
vertex 11.8739597766849 30.2405594159523 7.04991620636974e-16
endloop
endfacet
facet normal 0.000431026373521183 0.999999907108128 0.0
outer loop
vertex 15.7564653956028 30.7499986066219 7.04991620636974e-16
vertex 11.8739597766849 30.2405594159523 2.0
vertex 15.7564653956028 30.7499986066219 2.0
endloop
endfacet
facet normal -0.499626673764893 0.866240836524479 0.0
outer loop
vertex 8.2555998935266 28.7436125478672 2.0
vertex 11.8739597766849 30.2405594159523 7.04991620636974e-16
vertex 8.2555998935266 28.7436125478672 7.04991620636974e-16
endloop
endfacet
facet normal -0.258402681554339 0.966037294396819 0.0
outer loop
vertex 11.8739597766849 30.2405594159523 7.04991620636974e-16
vertex 8.2555998935266 28.7436125478672 2.0
vertex 11.8739597766849 30.2405594159523 2.0
endloop
endfacet
facet normal -0.706801933830488 0.707411497173662 0.0
outer loop
vertex 5.14797099254268 26.3611724576049 2.0
vertex 8.2555998935266 28.7436125478672 7.04991620636974e-16
vertex 5.14797099254268 26.3611724576049 7.04991620636974e-16
endloop
endfacet
facet normal -0.499626673764893 0.866240836524479 0.0
outer loop
vertex 8.2555998935266 28.7436125478672 7.04991620636974e-16
vertex 5.14797099254268 26.3611724576049 2.0
vertex 8.2555998935266 28.7436125478672 2.0
endloop
endfacet
facet normal -0.706801933830488 0.707411497173662 0.0
outer loop
vertex 5.14797099254268 26.3611724576049 2.0
vertex 2.76285284773564 23.2555985001485 7.04991620636974e-16
vertex 2.76285284773564 23.2555985001485 2.0
endloop
endfacet
facet normal -0.865809810150957 0.500373233343235 0.0
outer loop
vertex 2.76285284773564 23.2555985001485 7.04991620636974e-16
vertex 5.14797099254268 26.3611724576049 2.0
vertex 5.14797099254268 26.3611724576049 7.04991620636974e-16
endloop
endfacet
facet normal -0.865809810150957 0.500373233343235 0.0
outer loop
vertex 2.76285284773564 23.2555985001485 2.0
vertex 1.26278731907997 19.638530408495 7.04991620636974e-16
vertex 1.26278731907997 19.638530408495 2.0
endloop
endfacet
facet normal -0.965814178728001 0.259235360566332 0.0
outer loop
vertex 1.26278731907997 19.638530408495 7.04991620636974e-16
vertex 2.76285284773564 23.2555985001485 2.0
vertex 2.76285284773564 23.2555985001485 7.04991620636974e-16
endloop
endfacet
facet normal -0.965814178728001 0.259235360566332 0.0
outer loop
vertex 1.26278731907997 19.638530408495 2.0
vertex 0.75000139337807 15.7564653956028 7.04991620636974e-16
vertex 0.75000139337807 15.7564653956028 2.0
endloop
endfacet
facet normal -0.999999907108128 0.0004310263735217 0.0
outer loop
vertex 0.75000139337807 15.7564653956028 7.04991620636974e-16
vertex 1.26278731907997 19.638530408495 2.0
vertex 1.26278731907997 19.638530408495 7.04991620636974e-16
endloop
endfacet
facet normal -0.999999907108128 0.0004310263735217 0.0
outer loop
vertex 0.75000139337807 15.7564653956028 2.0
vertex 1.2594405840477 11.8739597766849 7.04991620636974e-16
vertex 1.2594405840477 11.8739597766849 2.0
endloop
endfacet
facet normal -0.96603729439682 -0.258402681554338 0.0
outer loop
vertex 1.2594405840477 11.8739597766849 7.04991620636974e-16
vertex 0.75000139337807 15.7564653956028 2.0
vertex 0.75000139337807 15.7564653956028 7.04991620636974e-16
endloop
endfacet
facet normal -0.96603729439682 -0.258402681554338 0.0
outer loop
vertex 1.2594405840477 11.8739597766849 2.0
vertex 2.75638745213281 8.2555998935266 7.04991620636974e-16
vertex 2.75638745213281 8.2555998935266 2.0
endloop
endfacet
facet normal -0.866240836524479 -0.499626673764894 0.0
outer loop
vertex 2.75638745213281 8.2555998935266 7.04991620636974e-16
vertex 1.2594405840477 11.8739597766849 2.0
vertex 1.2594405840477 11.8739597766849 7.04991620636974e-16
endloop
endfacet
facet normal -0.866240836524479 -0.499626673764894 0.0
outer loop
vertex 2.75638745213281 8.2555998935266 2.0
vertex 5.13882754239506 5.14797099254268 7.04991620636974e-16
vertex 5.13882754239506 5.14797099254268 2.0
endloop
endfacet
facet normal -0.707411497173662 -0.706801933830488 0.0
outer loop
vertex 5.13882754239506 5.14797099254268 7.04991620636974e-16
vertex 2.75638745213281 8.2555998935266 2.0
vertex 2.75638745213281 8.2555998935266 7.04991620636974e-16
endloop
endfacet
facet normal -0.500373233343235 -0.865809810150957 0.0
outer loop
vertex 8.24440149985147 2.76285284773564 2.0
vertex 5.13882754239506 5.14797099254268 7.04991620636974e-16
vertex 8.24440149985147 2.76285284773564 7.04991620636974e-16
endloop
endfacet
facet normal -0.707411497173662 -0.706801933830488 0.0
outer loop
vertex 5.13882754239506 5.14797099254268 7.04991620636974e-16
vertex 8.24440149985147 2.76285284773564 2.0
vertex 5.13882754239506 5.14797099254268 2.0
endloop
endfacet
facet normal -0.259235360566332 -0.965814178728001 0.0
outer loop
vertex 11.861469591505 1.26278731907997 2.0
vertex 8.24440149985147 2.76285284773564 7.04991620636974e-16
vertex 11.861469591505 1.26278731907997 7.04991620636974e-16
endloop
endfacet
facet normal -0.500373233343235 -0.865809810150957 0.0
outer loop
vertex 8.24440149985147 2.76285284773564 7.04991620636974e-16
vertex 11.861469591505 1.26278731907997 2.0
vertex 8.24440149985147 2.76285284773564 2.0
endloop
endfacet
facet normal -0.000431026373522796 -0.999999907108128 0.0
outer loop
vertex 15.7435346043972 0.75000139337807 2.0
vertex 11.861469591505 1.26278731907997 7.04991620636974e-16
vertex 15.7435346043972 0.75000139337807 7.04991620636974e-16
endloop
endfacet
facet normal -0.259235360566332 -0.965814178728001 0.0
outer loop
vertex 11.861469591505 1.26278731907997 7.04991620636974e-16
vertex 15.7435346043972 0.75000139337807 2.0
vertex 11.861469591505 1.26278731907997 2.0
endloop
endfacet
facet normal 0.258402681554339 -0.966037294396819 0.0
outer loop
vertex 19.6260402233151 1.2594405840477 2.0
vertex 15.7435346043972 0.75000139337807 7.04991620636974e-16
vertex 19.6260402233151 1.2594405840477 7.04991620636974e-16
endloop
endfacet
facet normal -0.000431026373522796 -0.999999907108128 0.0
outer loop
vertex 15.7435346043972 0.75000139337807 7.04991620636974e-16
vertex 19.6260402233151 1.2594405840477 2.0
vertex 15.7435346043972 0.75000139337807 2.0
endloop
endfacet
facet normal 0.499626673764894 -0.866240836524479 0.0
outer loop
vertex 23.2444001064734 2.75638745213281 2.0
vertex 19.6260402233151 1.2594405840477 7.04991620636974e-16
vertex 23.2444001064734 2.75638745213281 7.04991620636974e-16
endloop
endfacet
facet normal 0.258402681554339 -0.966037294396819 0.0
outer loop
vertex 19.6260402233151 1.2594405840477 7.04991620636974e-16
vertex 23.2444001064734 2.75638745213281 2.0
vertex 19.6260402233151 1.2594405840477 2.0
endloop
endfacet
facet normal 0.706801933830488 -0.707411497173663 0.0
outer loop
vertex 26.3520290074573 5.13882754239506 2.0
vertex 23.2444001064734 2.75638745213281 7.04991620636974e-16
vertex 26.3520290074573 5.13882754239506 7.04991620636974e-16
endloop
endfacet
facet normal 0.499626673764894 -0.866240836524479 0.0
outer loop
vertex 23.2444001064734 2.75638745213281 7.04991620636974e-16
vertex 26.3520290074573 5.13882754239506 2.0
vertex 23.2444001064734 2.75638745213281 2.0
endloop
endfacet
facet normal 0.865809810150957 -0.500373233343236 0.0
outer loop
vertex 28.7371471522643 8.24440149985147 7.04991620636974e-16
vertex 26.3520290074573 5.13882754239506 2.0
vertex 26.3520290074573 5.13882754239506 7.04991620636974e-16
endloop
endfacet
facet normal 0.706801933830488 -0.707411497173663 0.0
outer loop
vertex 26.3520290074573 5.13882754239506 2.0
vertex 28.7371471522643 8.24440149985147 7.04991620636974e-16
vertex 28.7371471522643 8.24440149985147 2.0
endloop
endfacet
facet normal 0.965814178728001 -0.259235360566332 0.0
outer loop
vertex 30.23721268092 11.861469591505 7.04991620636974e-16
vertex 28.7371471522643 8.24440149985147 2.0
vertex 28.7371471522643 8.24440149985147 7.04991620636974e-16
endloop
endfacet
facet normal 0.865809810150957 -0.500373233343236 0.0
outer loop
vertex 28.7371471522643 8.24440149985147 2.0
vertex 30.23721268092 11.861469591505 7.04991620636974e-16
vertex 30.23721268092 11.861469591505 2.0
endloop
endfacet
facet normal 0.999999907108128 -0.000431026373521183 0.0
outer loop
vertex 30.7499986066219 15.7435346043972 7.04991620636974e-16
vertex 30.23721268092 11.861469591505 2.0
vertex 30.23721268092 11.861469591505 7.04991620636974e-16
endloop
endfacet
facet normal 0.965814178728001 -0.259235360566332 0.0
outer loop
vertex 30.23721268092 11.861469591505 2.0
vertex 30.7499986066219 15.7435346043972 7.04991620636974e-16
vertex 30.7499986066219 15.7435346043972 2.0
endloop
endfacet
facet normal 0.966037294396819 0.258402681554339 0.0
outer loop
vertex 30.2405594159523 19.6260402233151 7.04991620636974e-16
vertex 30.7499986066219 15.7435346043972 2.0
vertex 30.7499986066219 15.7435346043972 7.04991620636974e-16
endloop
endfacet
facet normal 0.999999907108128 -0.000431026373521183 0.0
outer loop
vertex 30.7499986066219 15.7435346043972 2.0
vertex 30.2405594159523 19.6260402233151 7.04991620636974e-16
vertex 30.2405594159523 19.6260402233151 2.0
endloop
endfacet
facet normal 2.96786518947252e-32 7.9887209412063e-34 1.0
outer loop
vertex 6.48548951124792 13.6591142854762 4.0
vertex 6.48548951124792 14.8755637974581 4.0
vertex 6.40541520302723 14.2673390414672 4.0
endloop
endfacet
facet normal 2.96786518947252e-32 7.9887209412063e-34 1.0
outer loop
vertex 6.48548951124792 14.8755637974581 4.0
vertex 6.48548951124792 13.6591142854762 4.0
vertex 6.7202555041338 13.0923390414672 4.0
endloop
endfacet
facet normal 2.96786518947252e-32 7.9887209412063e-34 1.0
outer loop
vertex 6.48548951124792 14.8755637974581 4.0
vertex 6.7202555041338 13.0923390414672 4.0
vertex 6.7202555041338 15.4423390414672 4.0
endloop
endfacet
facet normal 2.96786518947252e-32 7.9887209412063e-34 1.0
outer loop
vertex 6.7202555041338 15.4423390414672 4.0
vertex 6.7202555041338 13.0923390414672 4.0
vertex 7.09371426723884 12.6056381056788 4.0
endloop
endfacet
facet normal 2.96786518947252e-32 7.9887209412063e-34 1.0
outer loop
vertex 6.7202555041338 15.4423390414672 4.0
vertex 7.09371426723884 12.6056381056788 4.0
vertex 7.09371426723884 15.9290399772555 4.0
endloop
endfacet
facet normal 2.96786518947252e-32 7.9887209412063e-34 1.0
outer loop
vertex 7.09371426723884 15.9290399772555 4.0
vertex 7.09371426723884 12.6056381056788 4.0
vertex 7.58041520302723 12.2321793425737 4.0
endloop
endfacet
facet normal 2.96786518947252e-32 7.9887209412063e-34 1.0
outer loop
vertex 7.09371426723884 15.9290399772555 4.0
vertex 7.58041520302723 12.2321793425737 4.0
vertex 7.58041520302723 16.3024987403606 4.0
endloop
endfacet
facet normal 2.96786518947252e-32 7.9887209412063e-34 1.0
outer loop
vertex 7.58041520302723 16.3024987403606 4.0
vertex 7.58041520302723 12.2321793425737 4.0
vertex 8.14719044703631 16.5372647332465 4.0
endloop
endfacet
facet normal 2.96786518947252e-32 7.9887209412063e-34 1.0
outer loop
vertex 8.14719044703631 16.5372647332465 4.0
vertex 7.58041520302723 12.2321793425737 4.0
vertex 8.14719044703631 11.9974133496878 4.0
endloop
endfacet
facet normal 2.96786518947252e-32 7.9887209412063e-34 1.0
outer loop
vertex 8.14719044703631 16.5372647332465 4.0
vertex 8.14719044703631 11.9974133496878 4.0
vertex 8.69958332961716 16.6099886358877 4.0
endloop
endfacet
facet normal 2.96786518947252e-32 7.9887209412063e-34 1.0
outer loop
vertex 8.69958332961716 16.6099886358877 4.0
vertex 8.14719044703631 11.9974133496878 4.0
vertex 8.75541520302723 11.9173390414672 4.0
endloop
endfacet
facet normal 2.96786518947252e-32 7.9887209412063e-34 1.0
outer loop
vertex 8.69958332961716 16.6099886358877 4.0
vertex 8.75541520302723 11.9173390414672 4.0
vertex 8.75541520302723 16.6173390414672 4.0
endloop
endfacet
facet normal 2.96786518947252e-32 7.9887209412063e-34 1.0
outer loop
vertex 8.75541520302723 16.6173390414672 4.0
vertex 8.75541520302723 11.9173390414672 4.0
vertex 9.36363995901816 11.9974133496878 4.0
endloop
endfacet
facet normal 2.96786518947252e-32 7.9887209412063e-34 1.0
outer loop
vertex 8.75541520302723 16.6173390414672 4.0
vertex 9.36363995901816 11.9974133496878 4.0
vertex 9.36363995901815 16.5372647332465 4.0
endloop
endfacet
facet normal 2.96786518947252e-32 7.9887209412063e-34 1.0
outer loop
vertex 9.36363995901815 16.5372647332465 4.0
vertex 9.36363995901816 11.9974133496878 4.0
vertex 9.93041520302723 16.3024987403606 4.0
endloop
endfacet
facet normal 2.96786518947252e-32 7.9887209412063e-34 1.0
outer loop
vertex 9.93041520302723 16.3024987403606 4.0
vertex 9.36363995901816 11.9974133496878 4.0
vertex 9.64707202209354 12.1148147542251 4.0
endloop
endfacet
facet normal 2.96786518947252e-32 7.9887209412063e-34 1.0
outer loop
vertex 9.93041520302723 16.3024987403606 4.0
vertex 9.64707202209354 12.1148147542251 4.0
vertex 9.93041520302723 12.2321793425737 4.0
endloop
endfacet
facet normal 2.96786518947252e-32 7.9887209412063e-34 1.0
outer loop
vertex 9.93041520302723 16.3024987403606 4.0
vertex 9.93041520302723 12.2321793425737 4.0
vertex 10.4171161388156 15.9290399772556 4.0
endloop
endfacet
facet normal 2.96786518947252e-32 7.9887209412063e-34 1.0
outer loop
vertex 10.4171161388156 15.9290399772556 4.0
vertex 9.93041520302723 12.2321793425737 4.0
vertex 10.4171161388156 12.6056381056788 4.0
endloop
endfacet
facet normal 2.96786518947252e-32 7.9887209412063e-34 1.0
outer loop
vertex 10.4171161388156 15.9290399772556 4.0
vertex 10.4171161388156 12.6056381056788 4.0
vertex 10.7905749019207 13.0923390414672 4.0
endloop
endfacet
facet normal 2.96786518947252e-32 7.9887209412063e-34 1.0
outer loop
vertex 10.4171161388156 15.9290399772556 4.0
vertex 10.7905749019207 13.0923390414672 4.0
vertex 10.7905749019207 15.4423390414672 4.0
endloop
endfacet
facet normal 2.96786518947252e-32 7.9887209412063e-34 1.0
outer loop
vertex 10.7905749019207 15.4423390414672 4.0
vertex 10.7905749019207 13.0923390414672 4.0
vertex 11.0253408948065 13.6591142854762 4.0
endloop
endfacet
facet normal 2.96786518947252e-32 7.9887209412063e-34 1.0
outer loop
vertex 10.7905749019207 15.4423390414672 4.0
vertex 11.0253408948065 13.6591142854762 4.0
vertex 11.0253408948065 14.8755637974581 4.0
endloop
endfacet
facet normal 2.96786518947252e-32 7.9887209412063e-34 1.0
outer loop
vertex 11.0253408948065 14.8755637974581 4.0
vertex 11.0253408948065 13.6591142854762 4.0
vertex 11.1054152030272 14.2673390414672 4.0
endloop
endfacet
facet normal -0.130526192220093 0.991444861373805 3.0818037894333e-33
outer loop
vertex 8.69958332961716 16.6099886358877 4.0
vertex 8.75541520302723 16.6173390414672 2.0
vertex 8.69958332961716 16.6099886358877 2.0
endloop
endfacet
facet normal -2.72234407312013e-14 1.0 -7.98872094119822e-34
outer loop
vertex 8.75541520302723 16.6173390414672 2.0
vertex 8.69958332961716 16.6099886358877 4.0
vertex 8.75541520302723 16.6173390414672 4.0
endloop
endfacet
facet normal -0.258819045102513 0.96592582628907 6.9097491557099e-33
outer loop
vertex 8.14719044703631 16.5372647332465 4.0
vertex 8.69958332961716 16.6099886358877 2.0
vertex 8.14719044703631 16.5372647332465 2.0
endloop
endfacet
facet normal -0.130526192220032 0.991444861373813 3.08180378943149e-33
outer loop
vertex 8.69958332961716 16.6099886358877 2.0
vertex 8.14719044703631 16.5372647332465 4.0
vertex 8.69958332961716 16.6099886358877 4.0
endloop
endfacet
facet normal -0.500000000000006 0.866025403784435 1.41474824194798e-32
outer loop
vertex 7.58041520302723 16.3024987403606 4.0
vertex 8.14719044703631 16.5372647332465 2.0
vertex 7.58041520302723 16.3024987403606 2.0
endloop
endfacet
facet normal -0.258819045102513 0.96592582628907 6.9097491557099e-33
outer loop
vertex 8.14719044703631 16.5372647332465 2.0
vertex 7.58041520302723 16.3024987403606 4.0
vertex 8.14719044703631 16.5372647332465 4.0
endloop
endfacet
facet normal -0.707106781186548 0.707106781186547 2.04210881361818e-32
outer loop
vertex 7.09371426723884 15.9290399772555 4.0
vertex 7.58041520302723 16.3024987403606 2.0
vertex 7.09371426723884 15.9290399772555 2.0
endloop
endfacet
facet normal -0.500000000000006 0.866025403784435 1.41474824194798e-32
outer loop
vertex 7.58041520302723 16.3024987403606 2.0
vertex 7.09371426723884 15.9290399772555 4.0
vertex 7.58041520302723 16.3024987403606 4.0
endloop
endfacet
facet normal -0.707106781186548 0.707106781186547 2.04210881361818e-32
outer loop
vertex 7.09371426723884 15.9290399772555 4.0
vertex 6.7202555041338 15.4423390414672 2.0
vertex 6.7202555041338 15.4423390414672 4.0
endloop
endfacet
facet normal -0.866025403784436 0.500000000000004 2.53030304438468e-32
outer loop
vertex 6.7202555041338 15.4423390414672 2.0
vertex 7.09371426723884 15.9290399772555 4.0
vertex 7.09371426723884 15.9290399772555 2.0
endloop
endfacet
facet normal -0.866025403784436 0.500000000000004 2.53030304438468e-32
outer loop
vertex 6.7202555041338 15.4423390414672 4.0
vertex 6.48548951124792 14.8755637974581 2.0
vertex 6.48548951124792 14.8755637974581 4.0
endloop
endfacet
facet normal -0.965925826289069 0.258819045102519 2.84606130419987e-32
outer loop
vertex 6.48548951124792 14.8755637974581 2.0
vertex 6.7202555041338 15.4423390414672 4.0
vertex 6.7202555041338 15.4423390414672 2.0
endloop
endfacet
facet normal -0.965925826289069 0.258819045102519 2.84606130419987e-32
outer loop
vertex 6.48548951124792 14.8755637974581 4.0
vertex 6.40541520302723 14.2673390414672 2.0
vertex 6.40541520302723 14.2673390414672 4.0
endloop
endfacet
facet normal -1.0 0.0 2.96786518947252e-32
outer loop
vertex 6.40541520302723 14.2673390414672 2.0
vertex 6.48548951124792 14.8755637974581 4.0
vertex 6.48548951124792 14.8755637974581 2.0
endloop
endfacet
facet normal -1.0 0.0 2.96786518947252e-32
outer loop
vertex 6.40541520302723 14.2673390414672 4.0
vertex 6.48548951124792 13.6591142854762 2.0
vertex 6.48548951124792 13.6591142854762 4.0
endloop
endfacet
facet normal -0.965925826289069 -0.258819045102519 2.88741396671174e-32
outer loop
vertex 6.48548951124792 13.6591142854762 2.0
vertex 6.40541520302723 14.2673390414672 4.0
vertex 6.40541520302723 14.2673390414672 2.0
endloop
endfacet
facet normal -0.965925826289069 -0.258819045102519 2.88741396671174e-32
outer loop
vertex 6.48548951124792 13.6591142854762 4.0
vertex 6.7202555041338 13.0923390414672 2.0
vertex 6.7202555041338 13.0923390414672 4.0
endloop
endfacet
facet normal -0.866025403784439 -0.499999999999999 2.61019025379675e-32
outer loop
vertex 6.7202555041338 13.0923390414672 2.0
vertex 6.48548951124792 13.6591142854762 4.0
vertex 6.48548951124792 13.6591142854762 2.0
endloop
endfacet
facet normal -0.866025403784439 -0.499999999999999 2.61019025379675e-32
outer loop
vertex 6.7202555041338 13.0923390414672 4.0
vertex 7.09371426723884 12.6056381056788 2.0
vertex 7.09371426723884 12.6056381056788 4.0
endloop
endfacet
facet normal -0.707106781186545 -0.70710678118655 2.15508638862885e-32
outer loop
vertex 7.09371426723884 12.6056381056788 2.0
vertex 6.7202555041338 13.0923390414672 4.0
vertex 6.7202555041338 13.0923390414672 2.0
endloop
endfacet
facet normal -0.499999999999997 -0.86602540378444 1.55311694752454e-32
outer loop
vertex 7.58041520302723 12.2321793425737 4.0
vertex 7.09371426723884 12.6056381056788 2.0
vertex 7.58041520302723 12.2321793425737 2.0
endloop
endfacet
facet normal -0.707106781186545 -0.70710678118655 2.15508638862885e-32
outer loop
vertex 7.09371426723884 12.6056381056788 2.0
vertex 7.58041520302723 12.2321793425737 4.0
vertex 7.09371426723884 12.6056381056788 4.0
endloop
endfacet
facet normal -0.258819045102516 -0.96592582628907 8.4530515309355e-33
outer loop
vertex 8.14719044703631 11.9974133496878 4.0
vertex 7.58041520302723 12.2321793425737 2.0
vertex 8.14719044703631 11.9974133496878 2.0
endloop
endfacet
facet normal -0.499999999999997 -0.86602540378444 1.55311694752454e-32
outer loop
vertex 7.58041520302723 12.2321793425737 2.0
vertex 8.14719044703631 11.9974133496878 4.0
vertex 7.58041520302723 12.2321793425737 4.0
endloop
endfacet
facet normal -6.05955472903988e-16 -1.0 7.98872094120648e-34
outer loop
vertex 8.75541520302723 11.9173390414672 4.0
vertex 8.14719044703631 11.9974133496878 2.0
vertex 8.75541520302723 11.9173390414672 2.0
endloop
endfacet
facet normal -0.258819045102516 -0.96592582628907 8.4530515309355e-33
outer loop
vertex 8.14719044703631 11.9974133496878 2.0
vertex 8.75541520302723 11.9173390414672 4.0
vertex 8.14719044703631 11.9974133496878 4.0
endloop
endfacet
facet normal 0.258819045102523 -0.965925826289068 -6.9097491557102e-33
outer loop
vertex 9.36363995901816 11.9974133496878 4.0
vertex 8.75541520302723 11.9173390414672 2.0
vertex 9.36363995901816 11.9974133496878 2.0
endloop
endfacet
facet normal -6.05955472903988e-16 -1.0 7.98872094120648e-34
outer loop
vertex 8.75541520302723 11.9173390414672 2.0
vertex 9.36363995901816 11.9974133496878 4.0
vertex 8.75541520302723 11.9173390414672 4.0
endloop
endfacet
facet normal 0.382683432365107 -0.92387953251128 -1.06194667981901e-32
outer loop
vertex 9.64707202209354 12.1148147542251 4.0
vertex 9.36363995901816 11.9974133496878 2.0
vertex 9.64707202209354 12.1148147542251 2.0
endloop
endfacet
facet normal 0.258819045102523 -0.965925826289068 -6.9097491557102e-33
outer loop
vertex 9.36363995901816 11.9974133496878 2.0
vertex 9.64707202209354 12.1148147542251 4.0
vertex 9.36363995901816 11.9974133496878 4.0
endloop
endfacet
facet normal 0.5 -0.866025403784439 -1.41474824194796e-32
outer loop
vertex 9.93041520302723 12.2321793425737 4.0
vertex 9.64707202209354 12.1148147542251 2.0
vertex 9.93041520302723 12.2321793425737 2.0
endloop
endfacet
facet normal 0.382683432365079 -0.923879532511291 -1.06194667981893e-32
outer loop
vertex 9.64707202209354 12.1148147542251 2.0
vertex 9.93041520302723 12.2321793425737 4.0
vertex 9.64707202209354 12.1148147542251 4.0
endloop
endfacet
facet normal 0.707106781186548 -0.707106781186547 -2.04210881361818e-32
outer loop
vertex 10.4171161388156 12.6056381056788 4.0
vertex 9.93041520302723 12.2321793425737 2.0
vertex 10.4171161388156 12.6056381056788 2.0
endloop
endfacet
facet normal 0.5 -0.866025403784439 -1.41474824194796e-32
outer loop
vertex 9.93041520302723 12.2321793425737 2.0
vertex 10.4171161388156 12.6056381056788 4.0
vertex 9.93041520302723 12.2321793425737 4.0
endloop
endfacet
facet normal 0.866025403784436 -0.500000000000004 -2.53030304438468e-32
outer loop
vertex 10.7905749019207 13.0923390414672 2.0
vertex 10.4171161388156 12.6056381056788 4.0
vertex 10.4171161388156 12.6056381056788 2.0
endloop
endfacet
facet normal 0.707106781186548 -0.707106781186547 -2.04210881361818e-32
outer loop
vertex 10.4171161388156 12.6056381056788 4.0
vertex 10.7905749019207 13.0923390414672 2.0
vertex 10.7905749019207 13.0923390414672 4.0
endloop
endfacet
facet normal 0.965925826289068 -0.258819045102523 -2.84606130419986e-32
outer loop
vertex 11.0253408948065 13.6591142854762 2.0
vertex 10.7905749019207 13.0923390414672 4.0
vertex 10.7905749019207 13.0923390414672 2.0
endloop
endfacet
facet normal 0.866025403784436 -0.500000000000004 -2.53030304438468e-32
outer loop
vertex 10.7905749019207 13.0923390414672 4.0
vertex 11.0253408948065 13.6591142854762 2.0
vertex 11.0253408948065 13.6591142854762 4.0
endloop
endfacet
facet normal 1.0 0.0 -2.96786518947252e-32
outer loop
vertex 11.1054152030272 14.2673390414672 2.0
vertex 11.0253408948065 13.6591142854762 4.0
vertex 11.0253408948065 13.6591142854762 2.0
endloop
endfacet
facet normal 0.965925826289068 -0.258819045102523 -2.84606130419986e-32
outer loop
vertex 11.0253408948065 13.6591142854762 4.0
vertex 11.1054152030272 14.2673390414672 2.0
vertex 11.1054152030272 14.2673390414672 4.0
endloop
endfacet
facet normal 0.965925826289068 0.258819045102523 -2.88741396671174e-32
outer loop
vertex 11.0253408948065 14.8755637974581 2.0
vertex 11.1054152030272 14.2673390414672 4.0
vertex 11.1054152030272 14.2673390414672 2.0
endloop
endfacet
facet normal 1.0 0.0 -2.96786518947252e-32
outer loop
vertex 11.1054152030272 14.2673390414672 4.0
vertex 11.0253408948065 14.8755637974581 2.0
vertex 11.0253408948065 14.8755637974581 4.0
endloop
endfacet
facet normal 0.707106781186545 0.70710678118655 -2.15508638862885e-32
outer loop
vertex 10.4171161388156 15.9290399772556 2.0
vertex 10.7905749019207 15.4423390414672 4.0
vertex 10.7905749019207 15.4423390414672 2.0
endloop
endfacet
facet normal 0.866025403784439 0.499999999999999 -2.61019025379675e-32
outer loop
vertex 10.7905749019207 15.4423390414672 4.0
vertex 10.4171161388156 15.9290399772556 2.0
vertex 10.4171161388156 15.9290399772556 4.0
endloop
endfacet
facet normal 0.499999999999997 0.86602540378444 -1.55311694752454e-32
outer loop
vertex 9.93041520302723 16.3024987403606 4.0
vertex 10.4171161388156 15.9290399772556 2.0
vertex 9.93041520302723 16.3024987403606 2.0
endloop
endfacet
facet normal 0.707106781186545 0.70710678118655 -2.15508638862885e-32
outer loop
vertex 10.4171161388156 15.9290399772556 2.0
vertex 9.93041520302723 16.3024987403606 4.0
vertex 10.4171161388156 15.9290399772556 4.0
endloop
endfacet
facet normal 0.258819045102516 0.96592582628907 -8.4530515309355e-33
outer loop
vertex 9.36363995901815 16.5372647332465 4.0
vertex 9.93041520302723 16.3024987403606 2.0
vertex 9.36363995901815 16.5372647332465 2.0
endloop
endfacet
facet normal 0.499999999999997 0.86602540378444 -1.55311694752454e-32
outer loop
vertex 9.93041520302723 16.3024987403606 2.0
vertex 9.36363995901815 16.5372647332465 4.0
vertex 9.93041520302723 16.3024987403606 4.0
endloop
endfacet
facet normal -2.72234407312013e-14 1.0 -7.98872094119822e-34
outer loop
vertex 8.75541520302723 16.6173390414672 4.0
vertex 9.36363995901815 16.5372647332465 2.0
vertex 8.75541520302723 16.6173390414672 2.0
endloop
endfacet
facet normal 0.258819045102516 0.96592582628907 -8.4530515309355e-33
outer loop
vertex 9.36363995901815 16.5372647332465 2.0
vertex 8.75541520302723 16.6173390414672 4.0
vertex 9.36363995901815 16.5372647332465 4.0
endloop
endfacet
facet normal 0.595232046035876 0.803553863391836 0.0
outer loop
vertex 15.4523839769821 15.3482230683041 2.0
vertex 15.5665125188553 15.284884590383 4.0537018186626e-15
vertex 15.4523839769821 15.3482230683041 4.0537018186626e-15
endloop
endfacet
facet normal 0.366974962289431 0.930230819233953 0.0
outer loop
vertex 15.5665125188553 15.284884590383 4.0537018186626e-15
vertex 15.4523839769821 15.3482230683041 2.0
vertex 15.5665125188553 15.284884590383 2.0
endloop
endfacet
facet normal 0.366974962289431 0.930230819233953 0.0
outer loop
vertex 15.5665125188553 15.284884590383 2.0
vertex 15.6931454293411 15.2532429589878 4.0537018186626e-15
vertex 15.5665125188553 15.284884590383 4.0537018186626e-15
endloop
endfacet
facet normal 0.113709141317721 0.9935140820244 0.0
outer loop
vertex 15.6931454293411 15.2532429589878 4.0537018186626e-15
vertex 15.5665125188553 15.284884590383 2.0
vertex 15.6931454293411 15.2532429589878 2.0
endloop
endfacet
facet normal 0.113709141317721 0.9935140820244 0.0
outer loop
vertex 15.6931454293411 15.2532429589878 2.0
vertex 15.8236528848607 15.2554544990077 4.0537018186626e-15
vertex 15.6931454293411 15.2532429589878 4.0537018186626e-15
endloop
endfacet
facet normal -0.147305769721532 0.989091001984523 0.0
outer loop
vertex 15.8236528848607 15.2554544990077 4.0537018186626e-15
vertex 15.6931454293411 15.2532429589878 2.0
vertex 15.8236528848607 15.2554544990077 2.0
endloop
endfacet
facet normal -0.147305769721532 0.989091001984523 0.0
outer loop
vertex 15.8236528848607 15.2554544990077 2.0
vertex 15.9491410179943 15.2913684976452 4.0537018186626e-15
vertex 15.8236528848607 15.2554544990077 4.0537018186626e-15
endloop
endfacet
facet normal -0.398282035988529 0.917263004709572 0.0
outer loop
vertex 15.9491410179943 15.2913684976452 4.0537018186626e-15
vertex 15.8236528848607 15.2554544990077 2.0
vertex 15.9491410179943 15.2913684976452 2.0
endloop
endfacet
facet normal -0.398282035988529 0.917263004709572 0.0
outer loop
vertex 15.9491410179943 15.2913684976452 2.0
vertex 16.0610580198475 15.3585374752438 4.0537018186626e-15
vertex 15.9491410179943 15.2913684976452 4.0537018186626e-15
endloop
endfacet
facet normal -0.622116039695103 0.782925049512456 0.0
outer loop
vertex 16.0610580198475 15.3585374752438 4.0537018186626e-15
vertex 15.9491410179943 15.2913684976452 2.0
vertex 16.0610580198475 15.3585374752438 2.0
endloop
endfacet
facet normal -0.803553863391835 0.595232046035877 0.0
outer loop
vertex 16.1517769316959 15.4523839769821 2.0
vertex 16.0610580198475 15.3585374752438 4.0537018186626e-15
vertex 16.0610580198475 15.3585374752438 2.0
endloop
endfacet
facet normal -0.622116039695103 0.782925049512456 0.0
outer loop
vertex 16.0610580198475 15.3585374752438 4.0537018186626e-15
vertex 16.1517769316959 15.4523839769821 2.0
vertex 16.1517769316959 15.4523839769821 4.0537018186626e-15
endloop
endfacet
facet normal -0.930230819233959 0.366974962289416 0.0
outer loop
vertex 16.215115409617 15.5665125188553 2.0
vertex 16.1517769316959 15.4523839769821 4.0537018186626e-15
vertex 16.1517769316959 15.4523839769821 2.0
endloop
endfacet
facet normal -0.803553863391835 0.595232046035877 0.0
outer loop
vertex 16.1517769316959 15.4523839769821 4.0537018186626e-15
vertex 16.215115409617 15.5665125188553 2.0
vertex 16.215115409617 15.5665125188553 4.0537018186626e-15
endloop
endfacet
facet normal -0.993514082024399 0.113709141317729 0.0
outer loop
vertex 16.2467570410122 15.6931454293411 2.0
vertex 16.215115409617 15.5665125188553 4.0537018186626e-15
vertex 16.215115409617 15.5665125188553 2.0
endloop
endfacet
facet normal -0.930230819233959 0.366974962289416 0.0
outer loop
vertex 16.215115409617 15.5665125188553 4.0537018186626e-15
vertex 16.2467570410122 15.6931454293411 2.0
vertex 16.2467570410122 15.6931454293411 4.0537018186626e-15
endloop
endfacet
facet normal -0.989091001984526 -0.147305769721511 0.0
outer loop
vertex 16.2445455009923 15.8236528848607 2.0
vertex 16.2467570410122 15.6931454293411 4.0537018186626e-15
vertex 16.2467570410122 15.6931454293411 2.0
endloop
endfacet
facet normal -0.993514082024399 0.113709141317729 0.0
outer loop
vertex 16.2467570410122 15.6931454293411 4.0537018186626e-15
vertex 16.2445455009923 15.8236528848607 2.0
vertex 16.2445455009923 15.8236528848607 4.0537018186626e-15
endloop
endfacet
facet normal -0.917263004709572 -0.398282035988528 0.0
outer loop
vertex 16.2086315023548 15.9491410179943 2.0
vertex 16.2445455009923 15.8236528848607 4.0537018186626e-15
vertex 16.2445455009923 15.8236528848607 2.0
endloop
endfacet
facet normal -0.989091001984526 -0.147305769721511 0.0
outer loop
vertex 16.2445455009923 15.8236528848607 4.0537018186626e-15
vertex 16.2086315023548 15.9491410179943 2.0
vertex 16.2086315023548 15.9491410179943 4.0537018186626e-15
endloop
endfacet
facet normal -0.78292504951245 -0.62211603969511 0.0
outer loop
vertex 16.1414625247562 16.0610580198475 2.0
vertex 16.2086315023548 15.9491410179943 4.0537018186626e-15
vertex 16.2086315023548 15.9491410179943 2.0
endloop
endfacet
facet normal -0.917263004709572 -0.398282035988528 0.0
outer loop
vertex 16.2086315023548 15.9491410179943 4.0537018186626e-15
vertex 16.1414625247562 16.0610580198475 2.0
vertex 16.1414625247562 16.0610580198475 4.0537018186626e-15
endloop
endfacet
facet normal -0.78292504951245 -0.62211603969511 0.0
outer loop
vertex 16.1414625247562 16.0610580198475 2.0
vertex 16.0476160230179 16.1517769316959 4.0537018186626e-15
vertex 16.1414625247562 16.0610580198475 4.0537018186626e-15
endloop
endfacet
facet normal -0.595232046035873 -0.803553863391838 0.0
outer loop
vertex 16.0476160230179 16.1517769316959 4.0537018186626e-15
vertex 16.1414625247562 16.0610580198475 2.0
vertex 16.0476160230179 16.1517769316959 2.0
endloop
endfacet
facet normal -0.595232046035873 -0.803553863391838 0.0
outer loop
vertex 16.0476160230179 16.1517769316959 2.0
vertex 15.9334874811447 16.215115409617 4.0537018186626e-15
vertex 16.0476160230179 16.1517769316959 4.0537018186626e-15
endloop
endfacet
facet normal -0.366974962289414 -0.930230819233959 0.0
outer loop
vertex 15.9334874811447 16.215115409617 4.0537018186626e-15
vertex 16.0476160230179 16.1517769316959 2.0
vertex 15.9334874811447 16.215115409617 2.0
endloop
endfacet
facet normal -0.366974962289414 -0.930230819233959 0.0
outer loop
vertex 15.9334874811447 16.215115409617 2.0
vertex 15.8068545706589 16.2467570410122 4.0537018186626e-15
vertex 15.9334874811447 16.215115409617 4.0537018186626e-15
endloop
endfacet
facet normal -0.113709141317731 -0.993514082024399 0.0
outer loop
vertex 15.8068545706589 16.2467570410122 4.0537018186626e-15
vertex 15.9334874811447 16.215115409617 2.0
vertex 15.8068545706589 16.2467570410122 2.0
endloop
endfacet
facet normal -0.113709141317731 -0.993514082024399 0.0
outer loop
vertex 15.8068545706589 16.2467570410122 2.0
vertex 15.6763471151392 16.2445455009923 4.0537018186626e-15
vertex 15.8068545706589 16.2467570410122 4.0537018186626e-15
endloop
endfacet
facet normal 0.147305769721511 -0.989091001984526 0.0
outer loop
vertex 15.6763471151392 16.2445455009923 4.0537018186626e-15
vertex 15.8068545706589 16.2467570410122 2.0
vertex 15.6763471151392 16.2445455009923 2.0
endloop
endfacet
facet normal 0.147305769721511 -0.989091001984526 0.0
outer loop
vertex 15.6763471151392 16.2445455009923 2.0
vertex 15.5508589820057 16.2086315023548 4.0537018186626e-15
vertex 15.6763471151392 16.2445455009923 4.0537018186626e-15
endloop
endfacet
facet normal 0.398282035988528 -0.917263004709572 0.0
outer loop
vertex 15.5508589820057 16.2086315023548 4.0537018186626e-15
vertex 15.6763471151392 16.2445455009923 2.0
vertex 15.5508589820057 16.2086315023548 2.0
endloop
endfacet
facet normal 0.398282035988528 -0.917263004709572 0.0
outer loop
vertex 15.5508589820057 16.2086315023548 2.0
vertex 15.4389419801524 16.1414625247562 4.0537018186626e-15
vertex 15.5508589820057 16.2086315023548 4.0537018186626e-15
endloop
endfacet
facet normal 0.62211603969511 -0.78292504951245 0.0
outer loop
vertex 15.4389419801524 16.1414625247562 4.0537018186626e-15
vertex 15.5508589820057 16.2086315023548 2.0
vertex 15.4389419801524 16.1414625247562 2.0
endloop
endfacet
facet normal 0.62211603969511 -0.78292504951245 0.0
outer loop
vertex 15.4389419801524 16.1414625247562 4.0537018186626e-15
vertex 15.3482230683041 16.0476160230179 2.0
vertex 15.3482230683041 16.0476160230179 4.0537018186626e-15
endloop
endfacet
facet normal 0.803553863391838 -0.595232046035873 0.0
outer loop
vertex 15.3482230683041 16.0476160230179 2.0
vertex 15.4389419801524 16.1414625247562 4.0537018186626e-15
vertex 15.4389419801524 16.1414625247562 2.0
endloop
endfacet
facet normal 0.803553863391838 -0.595232046035873 0.0
outer loop
vertex 15.3482230683041 16.0476160230179 4.0537018186626e-15
vertex 15.284884590383 15.9334874811447 2.0
vertex 15.284884590383 15.9334874811447 4.0537018186626e-15
endloop
endfacet
facet normal 0.930230819233959 -0.366974962289414 0.0
outer loop
vertex 15.284884590383 15.9334874811447 2.0
vertex 15.3482230683041 16.0476160230179 4.0537018186626e-15
vertex 15.3482230683041 16.0476160230179 2.0
endloop
endfacet
facet normal 0.930230819233959 -0.366974962289414 0.0
outer loop
vertex 15.284884590383 15.9334874811447 4.0537018186626e-15
vertex 15.2532429589878 15.8068545706589 2.0
vertex 15.2532429589878 15.8068545706589 4.0537018186626e-15
endloop
endfacet
facet normal 0.993514082024399 -0.113709141317731 0.0
outer loop
vertex 15.2532429589878 15.8068545706589 2.0
vertex 15.284884590383 15.9334874811447 4.0537018186626e-15
vertex 15.284884590383 15.9334874811447 2.0
endloop
endfacet
facet normal 0.993514082024399 -0.113709141317731 0.0
outer loop
vertex 15.2532429589878 15.8068545706589 4.0537018186626e-15
vertex 15.2554544990077 15.6763471151392 2.0
vertex 15.2554544990077 15.6763471151392 4.0537018186626e-15
endloop
endfacet
facet normal 0.989091001984526 0.147305769721508 0.0
outer loop
vertex 15.2554544990077 15.6763471151392 2.0
vertex 15.2532429589878 15.8068545706589 4.0537018186626e-15
vertex 15.2532429589878 15.8068545706589 2.0
endloop
endfacet
facet normal 0.989091001984526 0.147305769721508 0.0
outer loop
vertex 15.2554544990077 15.6763471151392 4.0537018186626e-15
vertex 15.2913684976452 15.5508589820057 2.0
vertex 15.2913684976452 15.5508589820057 4.0537018186626e-15
endloop
endfacet
facet normal 0.917263004709574 0.398282035988525 0.0
outer loop
vertex 15.2913684976452 15.5508589820057 2.0
vertex 15.2554544990077 15.6763471151392 4.0537018186626e-15
vertex 15.2554544990077 15.6763471151392 2.0
endloop
endfacet
facet normal 0.917263004709574 0.398282035988525 0.0
outer loop
vertex 15.2913684976452 15.5508589820057 4.0537018186626e-15
vertex 15.3585374752438 15.4389419801524 2.0
vertex 15.3585374752438 15.4389419801524 4.0537018186626e-15
endloop
endfacet
facet normal 0.78292504951244 0.622116039695122 0.0
outer loop
vertex 15.3585374752438 15.4389419801524 2.0
vertex 15.2913684976452 15.5508589820057 4.0537018186626e-15
vertex 15.2913684976452 15.5508589820057 2.0
endloop
endfacet
facet normal 0.78292504951244 0.622116039695122 0.0
outer loop
vertex 15.3585374752438 15.4389419801524 2.0
vertex 15.4523839769821 15.3482230683041 4.0537018186626e-15
vertex 15.3585374752438 15.4389419801524 4.0537018186626e-15
endloop
endfacet
facet normal 0.595232046035876 0.803553863391836 0.0
outer loop
vertex 15.4523839769821 15.3482230683041 4.0537018186626e-15
vertex 15.3585374752438 15.4389419801524 2.0
vertex 15.4523839769821 15.3482230683041 2.0
endloop
endfacet
endsolid Rueda interna
