solid Rueda interna
facet normal -0.485207075740767 -0.874399275875211 0.0
outer loop
vertex 6.7597633720092 12.9451617016932 4.0
vertex 6.26678470673509 13.3102935740651 2.0
vertex 6.7597633720092 12.9451617016932 2.0
endloop
endfacet
facet normal -0.69498523117656 -0.719024011036115 0.0
outer loop
vertex 6.26678470673509 13.3102935740651 2.0
vertex 6.7597633720092 12.9451617016932 4.0
vertex 6.26678470673509 13.3102935740651 4.0
endloop
endfacet
facet normal 0.275200443899978 -0.96138687097196 0.0
outer loop
vertex 8.54672104316495 12.7407408532159 4.0
vertex 7.93994526298783 12.6503395190018 2.0
vertex 8.54672104316495 12.7407408532159 2.0
endloop
endfacet
facet normal 0.016997984250142 -0.999855523829034 0.0
outer loop
vertex 7.93994526298783 12.6503395190018 2.0
vertex 8.54672104316495 12.7407408532159 4.0
vertex 7.93994526298783 12.6503395190018 4.0
endloop
endfacet
facet normal -0.275200443899978 0.961386870971959 0.0
outer loop
vertex 7.25327895683505 17.2592591467841 4.0
vertex 7.86005473701217 17.3496604809982 2.0
vertex 7.25327895683505 17.2592591467841 2.0
endloop
endfacet
facet normal -0.016997984250142 0.999855523829034 0.0
outer loop
vertex 7.86005473701217 17.3496604809982 2.0
vertex 7.25327895683505 17.2592591467841 4.0
vertex 7.86005473701217 17.3496604809982 4.0
endloop
endfacet
facet normal 0.874399275875211 -0.485207075740767 0.0
outer loop
vertex 9.95483829830675 13.8597633720092 2.0
vertex 9.58970642593487 13.3667847067351 4.0
vertex 9.58970642593487 13.3667847067351 2.0
endloop
endfacet
facet normal 0.719024011036115 -0.69498523117656 0.0
outer loop
vertex 9.58970642593487 13.3667847067351 4.0
vertex 9.95483829830675 13.8597633720092 2.0
vertex 9.95483829830675 13.8597633720092 4.0
endloop
endfacet
facet normal 0.485207075740767 0.874399275875211 0.0
outer loop
vertex 9.0402366279908 17.0548382983067 4.0
vertex 9.53321529326492 16.6897064259349 2.0
vertex 9.0402366279908 17.0548382983067 2.0
endloop
endfacet
facet normal 0.69498523117656 0.719024011036115 0.0
outer loop
vertex 9.53321529326492 16.6897064259349 2.0
vertex 9.0402366279908 17.0548382983067 4.0
vertex 9.53321529326492 16.6897064259349 4.0
endloop
endfacet
facet normal 0.970185675076538 -0.242362859935844 0.0
outer loop
vertex 10.1799363364299 14.4304472791508 2.0
vertex 9.95483829830675 13.8597633720092 4.0
vertex 9.95483829830675 13.8597633720092 2.0
endloop
endfacet
facet normal 0.874399275875211 -0.485207075740767 0.0
outer loop
vertex 9.95483829830675 13.8597633720092 4.0
vertex 10.1799363364299 14.4304472791508 2.0
vertex 10.1799363364299 14.4304472791508 4.0
endloop
endfacet
facet normal -0.719024011036115 0.69498523117656 0.0
outer loop
vertex 6.21029357406513 16.6332152932649 4.0
vertex 6.69057614699257 17.0148930353189 2.0
vertex 6.21029357406513 16.6332152932649 2.0
endloop
endfacet
facet normal -0.514648448088268 0.85740129162507 0.0
outer loop
vertex 6.69057614699257 17.0148930353189 2.0
vertex 6.21029357406513 16.6332152932649 4.0
vertex 6.69057614699257 17.0148930353189 4.0
endloop
endfacet
facet normal 0.85740129162507 0.514648448088268 0.0
outer loop
vertex 9.91489303531892 16.2094238530074 2.0
vertex 10.1592591467841 15.6467210431649 4.0
vertex 10.1592591467841 15.6467210431649 2.0
endloop
endfacet
facet normal 0.96138687097196 0.275200443899977 0.0
outer loop
vertex 10.1592591467841 15.6467210431649 4.0
vertex 9.91489303531892 16.2094238530074 2.0
vertex 9.91489303531892 16.2094238530074 4.0
endloop
endfacet
facet normal -0.999855523829034 -0.016997984250142 0.0
outer loop
vertex 5.55033951900177 14.9600547370122 4.0
vertex 5.6407408532159 14.353278956835 2.0
vertex 5.6407408532159 14.353278956835 4.0
endloop
endfacet
facet normal -0.961386870971959 -0.275200443899979 0.0
outer loop
vertex 5.6407408532159 14.353278956835 2.0
vertex 5.55033951900177 14.9600547370122 4.0
vertex 5.55033951900177 14.9600547370122 2.0
endloop
endfacet
facet normal 0.242362859935845 0.970185675076538 0.0
outer loop
vertex 8.46955272084924 17.2799363364299 4.0
vertex 9.0402366279908 17.0548382983067 2.0
vertex 8.46955272084924 17.2799363364299 2.0
endloop
endfacet
facet normal 0.485207075740767 0.874399275875211 0.0
outer loop
vertex 9.0402366279908 17.0548382983067 2.0
vertex 8.46955272084924 17.2799363364299 4.0
vertex 9.0402366279908 17.0548382983067 4.0
endloop
endfacet
facet normal 0.719024011036115 -0.69498523117656 0.0
outer loop
vertex 9.58970642593487 13.3667847067351 4.0
vertex 9.10942385300743 12.9851069646811 2.0
vertex 9.58970642593487 13.3667847067351 2.0
endloop
endfacet
facet normal 0.514648448088267 -0.85740129162507 0.0
outer loop
vertex 9.10942385300743 12.9851069646811 2.0
vertex 9.58970642593487 13.3667847067351 4.0
vertex 9.10942385300743 12.9851069646811 4.0
endloop
endfacet
facet normal 0.96138687097196 0.275200443899977 0.0
outer loop
vertex 10.1592591467841 15.6467210431649 2.0
vertex 10.2496604809982 15.0399452629878 4.0
vertex 10.2496604809982 15.0399452629878 2.0
endloop
endfacet
facet normal 0.999855523829034 0.0169979842501419 0.0
outer loop
vertex 10.2496604809982 15.0399452629878 4.0
vertex 10.1592591467841 15.6467210431649 2.0
vertex 10.1592591467841 15.6467210431649 4.0
endloop
endfacet
facet normal 0.0 0.0 1.0
outer loop
vertex 5.6407408532159 14.353278956835 4.0
vertex 5.62006366357014 15.5695527208492 4.0
vertex 5.55033951900177 14.9600547370122 4.0
endloop
endfacet
facet normal 0.0 0.0 1.0
outer loop
vertex 5.62006366357014 15.5695527208492 4.0
vertex 5.6407408532159 14.353278956835 4.0
vertex 5.84516170169325 16.1402366279908 4.0
endloop
endfacet
facet normal 0.0 0.0 1.0
outer loop
vertex 5.84516170169325 16.1402366279908 4.0
vertex 5.6407408532159 14.353278956835 4.0
vertex 5.88510696468109 13.7905761469926 4.0
endloop
endfacet
facet normal 0.0 0.0 1.0
outer loop
vertex 5.84516170169325 16.1402366279908 4.0
vertex 5.88510696468109 13.7905761469926 4.0
vertex 6.21029357406513 16.6332152932649 4.0
endloop
endfacet
facet normal 0.0 0.0 1.0
outer loop
vertex 6.21029357406513 16.6332152932649 4.0
vertex 5.88510696468109 13.7905761469926 4.0
vertex 6.26678470673509 13.3102935740651 4.0
endloop
endfacet
facet normal 0.0 0.0 1.0
outer loop
vertex 6.21029357406513 16.6332152932649 4.0
vertex 6.26678470673509 13.3102935740651 4.0
vertex 6.69057614699257 17.0148930353189 4.0
endloop
endfacet
facet normal 0.0 0.0 1.0
outer loop
vertex 6.69057614699257 17.0148930353189 4.0
vertex 6.26678470673509 13.3102935740651 4.0
vertex 6.7597633720092 12.9451617016932 4.0
endloop
endfacet
facet normal 0.0 0.0 1.0
outer loop
vertex 6.69057614699257 17.0148930353189 4.0
vertex 6.7597633720092 12.9451617016932 4.0
vertex 7.25327895683505 17.2592591467841 4.0
endloop
endfacet
facet normal 0.0 0.0 1.0
outer loop
vertex 7.25327895683505 17.2592591467841 4.0
vertex 6.7597633720092 12.9451617016932 4.0
vertex 7.33044727915077 12.7200636635701 4.0
endloop
endfacet
facet normal 0.0 0.0 1.0
outer loop
vertex 7.25327895683505 17.2592591467841 4.0
vertex 7.33044727915077 12.7200636635701 4.0
vertex 7.86005473701217 17.3496604809982 4.0
endloop
endfacet
facet normal 0.0 0.0 1.0
outer loop
vertex 7.86005473701217 17.3496604809982 4.0
vertex 7.33044727915077 12.7200636635701 4.0
vertex 7.93994526298783 12.6503395190018 4.0
endloop
endfacet
facet normal 0.0 0.0 1.0
outer loop
vertex 7.86005473701217 17.3496604809982 4.0
vertex 7.93994526298783 12.6503395190018 4.0
vertex 8.46955272084924 17.2799363364299 4.0
endloop
endfacet
facet normal 0.0 0.0 1.0
outer loop
vertex 8.46955272084924 17.2799363364299 4.0
vertex 7.93994526298783 12.6503395190018 4.0
vertex 8.54672104316495 12.7407408532159 4.0
endloop
endfacet
facet normal 0.0 0.0 1.0
outer loop
vertex 8.46955272084924 17.2799363364299 4.0
vertex 8.54672104316495 12.7407408532159 4.0
vertex 9.0402366279908 17.0548382983067 4.0
endloop
endfacet
facet normal 0.0 0.0 1.0
outer loop
vertex 9.0402366279908 17.0548382983067 4.0
vertex 8.54672104316495 12.7407408532159 4.0
vertex 9.10942385300743 12.9851069646811 4.0
endloop
endfacet
facet normal 0.0 0.0 1.0
outer loop
vertex 9.0402366279908 17.0548382983067 4.0
vertex 9.10942385300743 12.9851069646811 4.0
vertex 9.53321529326492 16.6897064259349 4.0
endloop
endfacet
facet normal 0.0 0.0 1.0
outer loop
vertex 9.53321529326492 16.6897064259349 4.0
vertex 9.10942385300743 12.9851069646811 4.0
vertex 9.58970642593487 13.3667847067351 4.0
endloop
endfacet
facet normal 0.0 0.0 1.0
outer loop
vertex 9.53321529326492 16.6897064259349 4.0
vertex 9.58970642593487 13.3667847067351 4.0
vertex 9.91489303531892 16.2094238530074 4.0
endloop
endfacet
facet normal 0.0 0.0 1.0
outer loop
vertex 9.91489303531892 16.2094238530074 4.0
vertex 9.58970642593487 13.3667847067351 4.0
vertex 9.95483829830675 13.8597633720092 4.0
endloop
endfacet
facet normal 0.0 0.0 1.0
outer loop
vertex 9.91489303531892 16.2094238530074 4.0
vertex 9.95483829830675 13.8597633720092 4.0
vertex 10.1592591467841 15.6467210431649 4.0
endloop
endfacet
facet normal 0.0 0.0 1.0
outer loop
vertex 10.1592591467841 15.6467210431649 4.0
vertex 9.95483829830675 13.8597633720092 4.0
vertex 10.1799363364299 14.4304472791508 4.0
endloop
endfacet
facet normal 0.0 0.0 1.0
outer loop
vertex 10.1592591467841 15.6467210431649 4.0
vertex 10.1799363364299 14.4304472791508 4.0
vertex 10.2496604809982 15.0399452629878 4.0
endloop
endfacet
facet normal -0.514648448088268 0.85740129162507 0.0
outer loop
vertex 6.69057614699257 17.0148930353189 4.0
vertex 7.25327895683505 17.2592591467841 2.0
vertex 6.69057614699257 17.0148930353189 2.0
endloop
endfacet
facet normal -0.275200443899978 0.961386870971959 0.0
outer loop
vertex 7.25327895683505 17.2592591467841 2.0
vertex 6.69057614699257 17.0148930353189 4.0
vertex 7.25327895683505 17.2592591467841 4.0
endloop
endfacet
facet normal -0.866025403784439 -0.499999999999999 0.0
outer loop
vertex 2.00961894323342 7.50000000000001 2.0
vertex 4.39339828220179 4.39339828220179 0.0
vertex 4.39339828220179 4.39339828220179 2.0
endloop
endfacet
facet normal -0.707106781186548 -0.707106781186547 0.0
outer loop
vertex 4.39339828220179 4.39339828220179 0.0
vertex 2.00961894323342 7.50000000000001 2.0
vertex 2.00961894323342 7.50000000000001 0.0
endloop
endfacet
facet normal -0.965925826289068 -0.258819045102521 0.0
outer loop
vertex 0.511112605663976 11.1177143234622 2.0
vertex 2.00961894323342 7.50000000000001 0.0
vertex 2.00961894323342 7.50000000000001 2.0
endloop
endfacet
facet normal -0.866025403784439 -0.499999999999999 0.0
outer loop
vertex 2.00961894323342 7.50000000000001 0.0
vertex 0.511112605663976 11.1177143234622 2.0
vertex 0.511112605663976 11.1177143234622 0.0
endloop
endfacet
facet normal -0.258819045102521 -0.965925826289068 0.0
outer loop
vertex 11.1177143234622 0.511112605663982 2.0
vertex 7.49999999999999 2.00961894323342 0.0
vertex 11.1177143234622 0.511112605663982 0.0
endloop
endfacet
facet normal -0.5 -0.866025403784439 0.0
outer loop
vertex 7.49999999999999 2.00961894323342 0.0
vertex 11.1177143234622 0.511112605663982 2.0
vertex 7.49999999999999 2.00961894323342 2.0
endloop
endfacet
facet normal -0.242362859935844 -0.970185675076538 0.0
outer loop
vertex 7.33044727915077 12.7200636635701 4.0
vertex 6.7597633720092 12.9451617016932 2.0
vertex 7.33044727915077 12.7200636635701 2.0
endloop
endfacet
facet normal -0.485207075740767 -0.874399275875211 0.0
outer loop
vertex 6.7597633720092 12.9451617016932 2.0
vertex 7.33044727915077 12.7200636635701 4.0
vertex 6.7597633720092 12.9451617016932 4.0
endloop
endfacet
facet normal -0.016997984250142 0.999855523829034 0.0
outer loop
vertex 7.86005473701217 17.3496604809982 4.0
vertex 8.46955272084924 17.2799363364299 2.0
vertex 7.86005473701217 17.3496604809982 2.0
endloop
endfacet
facet normal 0.242362859935845 0.970185675076538 0.0
outer loop
vertex 8.46955272084924 17.2799363364299 2.0
vertex 7.86005473701217 17.3496604809982 4.0
vertex 8.46955272084924 17.2799363364299 4.0
endloop
endfacet
facet normal -0.961386870971959 -0.275200443899979 0.0
outer loop
vertex 5.6407408532159 14.353278956835 4.0
vertex 5.88510696468109 13.7905761469926 2.0
vertex 5.88510696468109 13.7905761469926 4.0
endloop
endfacet
facet normal -0.857401291625069 -0.514648448088268 0.0
outer loop
vertex 5.88510696468109 13.7905761469926 2.0
vertex 5.6407408532159 14.353278956835 4.0
vertex 5.6407408532159 14.353278956835 2.0
endloop
endfacet
facet normal 0.999855523829034 0.0169979842501419 0.0
outer loop
vertex 10.2496604809982 15.0399452629878 2.0
vertex 10.1799363364299 14.4304472791508 4.0
vertex 10.1799363364299 14.4304472791508 2.0
endloop
endfacet
facet normal 0.970185675076538 -0.242362859935844 0.0
outer loop
vertex 10.1799363364299 14.4304472791508 4.0
vertex 10.2496604809982 15.0399452629878 2.0
vertex 10.2496604809982 15.0399452629878 4.0
endloop
endfacet
facet normal -0.719024011036115 0.69498523117656 0.0
outer loop
vertex 6.21029357406513 16.6332152932649 4.0
vertex 5.84516170169325 16.1402366279908 2.0
vertex 5.84516170169325 16.1402366279908 4.0
endloop
endfacet
facet normal -0.874399275875211 0.485207075740766 0.0
outer loop
vertex 5.84516170169325 16.1402366279908 2.0
vertex 6.21029357406513 16.6332152932649 4.0
vertex 6.21029357406513 16.6332152932649 2.0
endloop
endfacet
facet normal 0.69498523117656 0.719024011036115 0.0
outer loop
vertex 9.53321529326492 16.6897064259349 2.0
vertex 9.91489303531892 16.2094238530074 4.0
vertex 9.91489303531892 16.2094238530074 2.0
endloop
endfacet
facet normal 0.85740129162507 0.514648448088268 0.0
outer loop
vertex 9.91489303531892 16.2094238530074 4.0
vertex 9.53321529326492 16.6897064259349 2.0
vertex 9.53321529326492 16.6897064259349 4.0
endloop
endfacet
facet normal 0.514648448088267 -0.85740129162507 0.0
outer loop
vertex 9.10942385300743 12.9851069646811 4.0
vertex 8.54672104316495 12.7407408532159 2.0
vertex 9.10942385300743 12.9851069646811 2.0
endloop
endfacet
facet normal 0.275200443899978 -0.96138687097196 0.0
outer loop
vertex 8.54672104316495 12.7407408532159 2.0
vertex 9.10942385300743 12.9851069646811 4.0
vertex 8.54672104316495 12.7407408532159 4.0
endloop
endfacet
facet normal -0.857401291625069 -0.514648448088268 0.0
outer loop
vertex 5.88510696468109 13.7905761469926 4.0
vertex 6.26678470673509 13.3102935740651 2.0
vertex 6.26678470673509 13.3102935740651 4.0
endloop
endfacet
facet normal -0.69498523117656 -0.719024011036115 0.0
outer loop
vertex 6.26678470673509 13.3102935740651 2.0
vertex 5.88510696468109 13.7905761469926 4.0
vertex 5.88510696468109 13.7905761469926 2.0
endloop
endfacet
facet normal -0.874399275875211 0.485207075740766 0.0
outer loop
vertex 5.84516170169325 16.1402366279908 4.0
vertex 5.62006366357014 15.5695527208492 2.0
vertex 5.62006366357014 15.5695527208492 4.0
endloop
endfacet
facet normal -0.970185675076538 0.242362859935845 0.0
outer loop
vertex 5.62006366357014 15.5695527208492 2.0
vertex 5.84516170169325 16.1402366279908 4.0
vertex 5.84516170169325 16.1402366279908 2.0
endloop
endfacet
facet normal 0.016997984250142 -0.999855523829034 0.0
outer loop
vertex 7.93994526298783 12.6503395190018 4.0
vertex 7.33044727915077 12.7200636635701 2.0
vertex 7.93994526298783 12.6503395190018 2.0
endloop
endfacet
facet normal -0.242362859935844 -0.970185675076538 0.0
outer loop
vertex 7.33044727915077 12.7200636635701 2.0
vertex 7.93994526298783 12.6503395190018 4.0
vertex 7.33044727915077 12.7200636635701 4.0
endloop
endfacet
facet normal -0.970185675076538 0.242362859935845 0.0
outer loop
vertex 5.62006366357014 15.5695527208492 4.0
vertex 5.55033951900177 14.9600547370122 2.0
vertex 5.55033951900177 14.9600547370122 4.0
endloop
endfacet
facet normal -0.999855523829034 -0.016997984250142 0.0
outer loop
vertex 5.55033951900177 14.9600547370122 2.0
vertex 5.62006366357014 15.5695527208492 4.0
vertex 5.62006366357014 15.5695527208492 2.0
endloop
endfacet
facet normal -0.5 -0.866025403784439 0.0
outer loop
vertex 7.49999999999999 2.00961894323342 2.0
vertex 4.39339828220179 4.39339828220179 0.0
vertex 7.49999999999999 2.00961894323342 0.0
endloop
endfacet
facet normal -0.707106781186548 -0.707106781186547 0.0
outer loop
vertex 4.39339828220179 4.39339828220179 0.0
vertex 7.49999999999999 2.00961894323342 2.0
vertex 4.39339828220179 4.39339828220179 2.0
endloop
endfacet
facet normal -0.5 0.866025403784439 0.0
outer loop
vertex 7.5 27.9903810567666 2.0
vertex 11.1177143234622 29.488887394336 0.0
vertex 7.5 27.9903810567666 0.0
endloop
endfacet
facet normal -0.258819045102521 0.965925826289068 0.0
outer loop
vertex 11.1177143234622 29.488887394336 0.0
vertex 7.5 27.9903810567666 2.0
vertex 11.1177143234622 29.488887394336 2.0
endloop
endfacet
facet normal 5.34666593738814e-16 1.0 0.0
outer loop
vertex 15.0 30.0 2.0
vertex 18.8822856765378 29.488887394336 0.0
vertex 15.0 30.0 0.0
endloop
endfacet
facet normal 0.258819045102521 0.965925826289068 0.0
outer loop
vertex 18.8822856765378 29.488887394336 0.0
vertex 15.0 30.0 2.0
vertex 18.8822856765378 29.488887394336 2.0
endloop
endfacet
facet normal -0.258819045102521 0.965925826289068 0.0
outer loop
vertex 11.1177143234622 29.488887394336 2.0
vertex 15.0 30.0 0.0
vertex 11.1177143234622 29.488887394336 0.0
endloop
endfacet
facet normal 5.34666593738814e-16 1.0 0.0
outer loop
vertex 15.0 30.0 0.0
vertex 11.1177143234622 29.488887394336 2.0
vertex 15.0 30.0 2.0
endloop
endfacet
facet normal 0.707106781186547 -0.707106781186548 0.0
outer loop
vertex 25.6066017177982 4.39339828220179 2.0
vertex 22.5 2.00961894323342 0.0
vertex 25.6066017177982 4.39339828220179 0.0
endloop
endfacet
facet normal 0.500000000000001 -0.866025403784438 0.0
outer loop
vertex 22.5 2.00961894323342 0.0
vertex 25.6066017177982 4.39339828220179 2.0
vertex 22.5 2.00961894323342 2.0
endloop
endfacet
facet normal 0.233213890401473 0.972425463119827 0.0
outer loop
vertex 14.8833930547993 14.5137872684401 2.0
vertex 15.013207455005 14.5001744673065 0.0
vertex 14.8833930547993 14.5137872684401 0.0
endloop
endfacet
facet normal -0.0264149100099357 0.999651065386901 0.0
outer loop
vertex 15.013207455005 14.5001744673065 0.0
vertex 14.8833930547993 14.5137872684401 2.0
vertex 15.013207455005 14.5001744673065 2.0
endloop
endfacet
facet normal 0.476949549586188 0.878930672550192 0.0
outer loop
vertex 14.7615252252069 14.5605346637249 2.0
vertex 14.8833930547993 14.5137872684401 0.0
vertex 14.7615252252069 14.5605346637249 0.0
endloop
endfacet
facet normal 0.233213890401473 0.972425463119827 0.0
outer loop
vertex 14.8833930547993 14.5137872684401 0.0
vertex 14.7615252252069 14.5605346637249 2.0
vertex 14.8833930547993 14.5137872684401 2.0
endloop
endfacet
facet normal -0.233213890401493 -0.972425463119822 0.0
outer loop
vertex 15.1166069452007 15.4862127315599 2.0
vertex 14.986792544995 15.4998255326934 0.0
vertex 15.1166069452007 15.4862127315599 0.0
endloop
endfacet
facet normal 0.0264149100099144 -0.999651065386902 0.0
outer loop
vertex 14.986792544995 15.4998255326934 0.0
vertex 15.1166069452007 15.4862127315599 2.0
vertex 14.986792544995 15.4998255326934 2.0
endloop
endfacet
facet normal 0.965925826289068 0.25881904510252 0.0
outer loop
vertex 29.488887394336 18.8822856765378 0.0
vertex 30.0 15.0 2.0
vertex 30.0 15.0 0.0
endloop
endfacet
facet normal 1.0 -6.59422132277871e-16 0.0
outer loop
vertex 30.0 15.0 2.0
vertex 29.488887394336 18.8822856765378 0.0
vertex 29.488887394336 18.8822856765378 2.0
endloop
endfacet
facet normal 0.688181885163004 0.725538209147867 0.0
outer loop
vertex 14.6559090574185 14.6372308954261 2.0
vertex 14.7615252252069 14.5605346637249 0.0
vertex 14.6559090574185 14.6372308954261 0.0
endloop
endfacet
facet normal 0.476949549586188 0.878930672550192 0.0
outer loop
vertex 14.7615252252069 14.5605346637249 0.0
vertex 14.6559090574185 14.6372308954261 2.0
vertex 14.7615252252069 14.5605346637249 2.0
endloop
endfacet
facet normal 0.999651065386902 0.0264149100099086 0.0
outer loop
vertex 14.5001744673066 14.986792544995 0.0
vertex 14.5206239502253 14.8578782110216 2.0
vertex 14.5206239502253 14.8578782110216 0.0
endloop
endfacet
facet normal 0.958752099549357 0.284243577956831 0.0
outer loop
vertex 14.5206239502253 14.8578782110216 2.0
vertex 14.5001744673066 14.986792544995 0.0
vertex 14.5001744673066 14.986792544995 2.0
endloop
endfacet
facet normal 0.0 0.0 1.0
outer loop
vertex 0.511112605663976 11.1177143234622 2.0
vertex 0.511112605663976 18.8822856765378 2.0
vertex 0.0 15.0 2.0
endloop
endfacet
facet normal 0.0 0.0 1.0
outer loop
vertex 0.511112605663976 18.8822856765378 2.0
vertex 0.511112605663976 11.1177143234622 2.0
vertex 2.00961894323342 7.50000000000001 2.0
endloop
endfacet
facet normal 0.0 0.0 1.0
outer loop
vertex 0.511112605663976 18.8822856765378 2.0
vertex 2.00961894323342 7.50000000000001 2.0
vertex 2.00961894323342 22.5 2.0
endloop
endfacet
facet normal 0.0 0.0 1.0
outer loop
vertex 2.00961894323342 22.5 2.0
vertex 2.00961894323342 7.50000000000001 2.0
vertex 4.39339828220179 4.39339828220179 2.0
endloop
endfacet
facet normal 0.0 0.0 1.0
outer loop
vertex 2.00961894323342 22.5 2.0
vertex 4.39339828220179 4.39339828220179 2.0
vertex 4.39339828220179 25.6066017177982 2.0
endloop
endfacet
facet normal 0.0 0.0 1.0
outer loop
vertex 4.39339828220179 25.6066017177982 2.0
vertex 4.39339828220179 4.39339828220179 2.0
vertex 5.55033951900177 14.9600547370122 2.0
endloop
endfacet
facet normal 0.0 0.0 1.0
outer loop
vertex 5.55033951900177 14.9600547370122 2.0
vertex 4.39339828220179 4.39339828220179 2.0
vertex 5.6407408532159 14.353278956835 2.0
endloop
endfacet
facet normal 0.0 0.0 1.0
outer loop
vertex 5.6407408532159 14.353278956835 2.0
vertex 4.39339828220179 4.39339828220179 2.0
vertex 7.49999999999999 2.00961894323342 2.0
endloop
endfacet
facet normal 0.0 0.0 1.0
outer loop
vertex 5.6407408532159 14.353278956835 2.0
vertex 7.49999999999999 2.00961894323342 2.0
vertex 5.88510696468109 13.7905761469926 2.0
endloop
endfacet
facet normal 0.0 0.0 1.0
outer loop
vertex 5.88510696468109 13.7905761469926 2.0
vertex 7.49999999999999 2.00961894323342 2.0
vertex 6.26678470673509 13.3102935740651 2.0
endloop
endfacet
facet normal 0.0 0.0 1.0
outer loop
vertex 6.26678470673509 13.3102935740651 2.0
vertex 7.49999999999999 2.00961894323342 2.0
vertex 6.7597633720092 12.9451617016932 2.0
endloop
endfacet
facet normal 0.0 0.0 1.0
outer loop
vertex 6.7597633720092 12.9451617016932 2.0
vertex 7.49999999999999 2.00961894323342 2.0
vertex 7.33044727915077 12.7200636635701 2.0
endloop
endfacet
facet normal 0.0 0.0 1.0
outer loop
vertex 7.33044727915077 12.7200636635701 2.0
vertex 7.49999999999999 2.00961894323342 2.0
vertex 7.93994526298783 12.6503395190018 2.0
endloop
endfacet
facet normal 0.0 0.0 1.0
outer loop
vertex 7.93994526298783 12.6503395190018 2.0
vertex 7.49999999999999 2.00961894323342 2.0
vertex 11.1177143234622 0.511112605663982 2.0
endloop
endfacet
facet normal 0.0 0.0 1.0
outer loop
vertex 7.93994526298783 12.6503395190018 2.0
vertex 11.1177143234622 0.511112605663982 2.0
vertex 8.54672104316495 12.7407408532159 2.0
endloop
endfacet
facet normal 0.0 0.0 1.0
outer loop
vertex 8.54672104316495 12.7407408532159 2.0
vertex 11.1177143234622 0.511112605663982 2.0
vertex 9.10942385300743 12.9851069646811 2.0
endloop
endfacet
facet normal 0.0 0.0 1.0
outer loop
vertex 9.10942385300743 12.9851069646811 2.0
vertex 11.1177143234622 0.511112605663982 2.0
vertex 9.58970642593487 13.3667847067351 2.0
endloop
endfacet
facet normal 0.0 0.0 1.0
outer loop
vertex 9.58970642593487 13.3667847067351 2.0
vertex 11.1177143234622 0.511112605663982 2.0
vertex 9.95483829830675 13.8597633720092 2.0
endloop
endfacet
facet normal 0.0 0.0 1.0
outer loop
vertex 9.95483829830675 13.8597633720092 2.0
vertex 11.1177143234622 0.511112605663982 2.0
vertex 10.1799363364299 14.4304472791508 2.0
endloop
endfacet
facet normal 0.0 0.0 1.0
outer loop
vertex 10.1799363364299 14.4304472791508 2.0
vertex 11.1177143234622 0.511112605663982 2.0
vertex 10.2496604809982 15.0399452629878 2.0
endloop
endfacet
facet normal 0.0 0.0 1.0
outer loop
vertex 4.39339828220179 25.6066017177982 2.0
vertex 5.62006366357014 15.5695527208492 2.0
vertex 7.5 27.9903810567666 2.0
endloop
endfacet
facet normal 0.0 0.0 1.0
outer loop
vertex 5.62006366357014 15.5695527208492 2.0
vertex 4.39339828220179 25.6066017177982 2.0
vertex 5.55033951900177 14.9600547370122 2.0
endloop
endfacet
facet normal 0.0 0.0 1.0
outer loop
vertex 7.5 27.9903810567666 2.0
vertex 5.62006366357014 15.5695527208492 2.0
vertex 5.84516170169325 16.1402366279908 2.0
endloop
endfacet
facet normal 0.0 0.0 1.0
outer loop
vertex 7.5 27.9903810567666 2.0
vertex 5.84516170169325 16.1402366279908 2.0
vertex 6.21029357406513 16.6332152932649 2.0
endloop
endfacet
facet normal 0.0 0.0 1.0
outer loop
vertex 7.5 27.9903810567666 2.0
vertex 6.21029357406513 16.6332152932649 2.0
vertex 6.69057614699257 17.0148930353189 2.0
endloop
endfacet
facet normal 0.0 0.0 1.0
outer loop
vertex 7.5 27.9903810567666 2.0
vertex 6.69057614699257 17.0148930353189 2.0
vertex 7.25327895683505 17.2592591467841 2.0
endloop
endfacet
facet normal 0.0 0.0 1.0
outer loop
vertex 7.5 27.9903810567666 2.0
vertex 7.25327895683505 17.2592591467841 2.0
vertex 7.86005473701217 17.3496604809982 2.0
endloop
endfacet
facet normal 0.0 0.0 1.0
outer loop
vertex 7.5 27.9903810567666 2.0
vertex 7.86005473701217 17.3496604809982 2.0
vertex 11.1177143234622 29.488887394336 2.0
endloop
endfacet
facet normal 0.0 0.0 1.0
outer loop
vertex 11.1177143234622 29.488887394336 2.0
vertex 7.86005473701217 17.3496604809982 2.0
vertex 8.46955272084924 17.2799363364299 2.0
endloop
endfacet
facet normal 0.0 0.0 1.0
outer loop
vertex 11.1177143234622 29.488887394336 2.0
vertex 8.46955272084924 17.2799363364299 2.0
vertex 9.0402366279908 17.0548382983067 2.0
endloop
endfacet
facet normal 0.0 0.0 1.0
outer loop
vertex 11.1177143234622 29.488887394336 2.0
vertex 9.0402366279908 17.0548382983067 2.0
vertex 9.53321529326492 16.6897064259349 2.0
endloop
endfacet
facet normal 0.0 0.0 1.0
outer loop
vertex 11.1177143234622 29.488887394336 2.0
vertex 9.53321529326492 16.6897064259349 2.0
vertex 9.91489303531892 16.2094238530074 2.0
endloop
endfacet
facet normal 0.0 0.0 1.0
outer loop
vertex 11.1177143234622 29.488887394336 2.0
vertex 9.91489303531892 16.2094238530074 2.0
vertex 10.1592591467841 15.6467210431649 2.0
endloop
endfacet
facet normal 0.0 0.0 1.0
outer loop
vertex 11.1177143234622 29.488887394336 2.0
vertex 10.1592591467841 15.6467210431649 2.0
vertex 10.2496604809982 15.0399452629878 2.0
endloop
endfacet
facet normal 0.0 0.0 1.0
outer loop
vertex 11.1177143234622 29.488887394336 2.0
vertex 10.2496604809982 15.0399452629878 2.0
vertex 11.1177143234622 0.511112605663982 2.0
endloop
endfacet
facet normal 0.0 0.0 1.0
outer loop
vertex 11.1177143234622 29.488887394336 2.0
vertex 11.1177143234622 0.511112605663982 2.0
vertex 15.0 0.0 2.0
endloop
endfacet
facet normal 0.0 0.0 1.0
outer loop
vertex 11.1177143234622 29.488887394336 2.0
vertex 15.0 0.0 2.0
vertex 14.5001744673066 14.986792544995 2.0
endloop
endfacet
facet normal 0.0 0.0 1.0
outer loop
vertex 14.5001744673066 14.986792544995 2.0
vertex 15.0 0.0 2.0
vertex 14.5206239502253 14.8578782110216 2.0
endloop
endfacet
facet normal 0.0 0.0 1.0
outer loop
vertex 14.5206239502253 14.8578782110216 2.0
vertex 15.0 0.0 2.0
vertex 14.5737421187299 14.7386492420996 2.0
endloop
endfacet
facet normal 0.0 0.0 1.0
outer loop
vertex 14.5737421187299 14.7386492420996 2.0
vertex 15.0 0.0 2.0
vertex 14.6559090574185 14.6372308954261 2.0
endloop
endfacet
facet normal 0.0 0.0 1.0
outer loop
vertex 14.6559090574185 14.6372308954261 2.0
vertex 15.0 0.0 2.0
vertex 14.7615252252069 14.5605346637249 2.0
endloop
endfacet
facet normal 0.0 0.0 1.0
outer loop
vertex 14.7615252252069 14.5605346637249 2.0
vertex 15.0 0.0 2.0
vertex 14.8833930547993 14.5137872684401 2.0
endloop
endfacet
facet normal 0.0 0.0 1.0
outer loop
vertex 14.8833930547993 14.5137872684401 2.0
vertex 15.0 0.0 2.0
vertex 15.013207455005 14.5001744673065 2.0
endloop
endfacet
facet normal 0.0 0.0 1.0
outer loop
vertex 15.013207455005 14.5001744673065 2.0
vertex 15.0 0.0 2.0
vertex 18.8822856765378 0.511112605663971 2.0
endloop
endfacet
facet normal 0.0 0.0 1.0
outer loop
vertex 15.013207455005 14.5001744673065 2.0
vertex 18.8822856765378 0.511112605663971 2.0
vertex 15.1421217889784 14.5206239502253 2.0
endloop
endfacet
facet normal 0.0 0.0 1.0
outer loop
vertex 15.1421217889784 14.5206239502253 2.0
vertex 18.8822856765378 0.511112605663971 2.0
vertex 15.2613507579004 14.5737421187299 2.0
endloop
endfacet
facet normal 0.0 0.0 1.0
outer loop
vertex 15.2613507579004 14.5737421187299 2.0
vertex 18.8822856765378 0.511112605663971 2.0
vertex 15.3627691045739 14.6559090574185 2.0
endloop
endfacet
facet normal 0.0 0.0 1.0
outer loop
vertex 15.3627691045739 14.6559090574185 2.0
vertex 18.8822856765378 0.511112605663971 2.0
vertex 15.4394653362751 14.7615252252069 2.0
endloop
endfacet
facet normal 0.0 0.0 1.0
outer loop
vertex 15.4394653362751 14.7615252252069 2.0
vertex 18.8822856765378 0.511112605663971 2.0
vertex 15.4862127315599 14.8833930547993 2.0
endloop
endfacet
facet normal 0.0 0.0 1.0
outer loop
vertex 15.4862127315599 14.8833930547993 2.0
vertex 18.8822856765378 0.511112605663971 2.0
vertex 15.4998255326935 15.013207455005 2.0
endloop
endfacet
facet normal 0.0 0.0 1.0
outer loop
vertex 14.5001744673066 14.986792544995 2.0
vertex 15.0 30.0 2.0
vertex 11.1177143234622 29.488887394336 2.0
endloop
endfacet
facet normal 0.0 0.0 1.0
outer loop
vertex 15.0 30.0 2.0
vertex 14.5001744673066 14.986792544995 2.0
vertex 14.5137872684401 15.1166069452007 2.0
endloop
endfacet
facet normal 0.0 0.0 1.0
outer loop
vertex 15.0 30.0 2.0
vertex 14.5137872684401 15.1166069452007 2.0
vertex 14.5605346637249 15.2384747747931 2.0
endloop
endfacet
facet normal 0.0 0.0 1.0
outer loop
vertex 15.0 30.0 2.0
vertex 14.5605346637249 15.2384747747931 2.0
vertex 14.6372308954261 15.3440909425815 2.0
endloop
endfacet
facet normal 0.0 0.0 1.0
outer loop
vertex 15.0 30.0 2.0
vertex 14.6372308954261 15.3440909425815 2.0
vertex 14.7386492420996 15.4262578812701 2.0
endloop
endfacet
facet normal 0.0 0.0 1.0
outer loop
vertex 15.0 30.0 2.0
vertex 14.7386492420996 15.4262578812701 2.0
vertex 14.8578782110216 15.4793760497747 2.0
endloop
endfacet
facet normal 0.0 0.0 1.0
outer loop
vertex 15.0 30.0 2.0
vertex 14.8578782110216 15.4793760497747 2.0
vertex 14.986792544995 15.4998255326934 2.0
endloop
endfacet
facet normal 0.0 0.0 1.0
outer loop
vertex 15.0 30.0 2.0
vertex 14.986792544995 15.4998255326934 2.0
vertex 15.1166069452007 15.4862127315599 2.0
endloop
endfacet
facet normal 0.0 0.0 1.0
outer loop
vertex 15.0 30.0 2.0
vertex 15.1166069452007 15.4862127315599 2.0
vertex 18.8822856765378 29.488887394336 2.0
endloop
endfacet
facet normal 0.0 0.0 1.0
outer loop
vertex 18.8822856765378 29.488887394336 2.0
vertex 15.1166069452007 15.4862127315599 2.0
vertex 15.2384747747931 15.4394653362751 2.0
endloop
endfacet
facet normal 0.0 0.0 1.0
outer loop
vertex 18.8822856765378 29.488887394336 2.0
vertex 15.2384747747931 15.4394653362751 2.0
vertex 15.3440909425815 15.3627691045739 2.0
endloop
endfacet
facet normal 0.0 0.0 1.0
outer loop
vertex 18.8822856765378 29.488887394336 2.0
vertex 15.3440909425815 15.3627691045739 2.0
vertex 15.4262578812701 15.2613507579003 2.0
endloop
endfacet
facet normal 0.0 0.0 1.0
outer loop
vertex 18.8822856765378 29.488887394336 2.0
vertex 15.4262578812701 15.2613507579003 2.0
vertex 15.4793760497747 15.1421217889784 2.0
endloop
endfacet
facet normal 0.0 0.0 1.0
outer loop
vertex 18.8822856765378 29.488887394336 2.0
vertex 15.4793760497747 15.1421217889784 2.0
vertex 15.4998255326935 15.013207455005 2.0
endloop
endfacet
facet normal 0.0 0.0 1.0
outer loop
vertex 18.8822856765378 29.488887394336 2.0
vertex 15.4998255326935 15.013207455005 2.0
vertex 18.8822856765378 0.511112605663971 2.0
endloop
endfacet
facet normal 0.0 0.0 1.0
outer loop
vertex 18.8822856765378 29.488887394336 2.0
vertex 18.8822856765378 0.511112605663971 2.0
vertex 22.5 2.00961894323342 2.0
endloop
endfacet
facet normal 0.0 0.0 1.0
outer loop
vertex 18.8822856765378 29.488887394336 2.0
vertex 22.5 2.00961894323342 2.0
vertex 22.5 27.9903810567666 2.0
endloop
endfacet
facet normal 0.0 0.0 1.0
outer loop
vertex 22.5 27.9903810567666 2.0
vertex 22.5 2.00961894323342 2.0
vertex 25.6066017177982 4.39339828220179 2.0
endloop
endfacet
facet normal 0.0 0.0 1.0
outer loop
vertex 22.5 27.9903810567666 2.0
vertex 25.6066017177982 4.39339828220179 2.0
vertex 25.6066017177982 25.6066017177982 2.0
endloop
endfacet
facet normal 0.0 0.0 1.0
outer loop
vertex 25.6066017177982 25.6066017177982 2.0
vertex 25.6066017177982 4.39339828220179 2.0
vertex 27.9903810567666 7.5 2.0
endloop
endfacet
facet normal 0.0 0.0 1.0
outer loop
vertex 25.6066017177982 25.6066017177982 2.0
vertex 27.9903810567666 7.5 2.0
vertex 27.9903810567666 22.5 2.0
endloop
endfacet
facet normal 0.0 0.0 1.0
outer loop
vertex 27.9903810567666 22.5 2.0
vertex 27.9903810567666 7.5 2.0
vertex 29.488887394336 11.1177143234622 2.0
endloop
endfacet
facet normal 0.0 0.0 1.0
outer loop
vertex 27.9903810567666 22.5 2.0
vertex 29.488887394336 11.1177143234622 2.0
vertex 29.488887394336 18.8822856765378 2.0
endloop
endfacet
facet normal 0.0 0.0 1.0
outer loop
vertex 29.488887394336 18.8822856765378 2.0
vertex 29.488887394336 11.1177143234622 2.0
vertex 30.0 15.0 2.0
endloop
endfacet
facet normal 0.866025403784439 0.5 0.0
outer loop
vertex 27.9903810567666 22.5 0.0
vertex 29.488887394336 18.8822856765378 2.0
vertex 29.488887394336 18.8822856765378 0.0
endloop
endfacet
facet normal 0.965925826289068 0.25881904510252 0.0
outer loop
vertex 29.488887394336 18.8822856765378 2.0
vertex 27.9903810567666 22.5 0.0
vertex 27.9903810567666 22.5 2.0
endloop
endfacet
facet normal -0.707106781186548 0.707106781186547 0.0
outer loop
vertex 4.39339828220179 25.6066017177982 2.0
vertex 7.5 27.9903810567666 0.0
vertex 4.39339828220179 25.6066017177982 0.0
endloop
endfacet
facet normal -0.5 0.866025403784439 0.0
outer loop
vertex 7.5 27.9903810567666 0.0
vertex 4.39339828220179 25.6066017177982 2.0
vertex 7.5 27.9903810567666 2.0
endloop
endfacet
facet normal -0.707106781186548 0.707106781186547 0.0
outer loop
vertex 4.39339828220179 25.6066017177982 2.0
vertex 2.00961894323342 22.5 0.0
vertex 2.00961894323342 22.5 2.0
endloop
endfacet
facet normal -0.866025403784439 0.5 0.0
outer loop
vertex 2.00961894323342 22.5 0.0
vertex 4.39339828220179 25.6066017177982 2.0
vertex 4.39339828220179 25.6066017177982 0.0
endloop
endfacet
facet normal -0.522701515800692 0.852515762540294 0.0
outer loop
vertex 15.2613507579004 14.5737421187299 2.0
vertex 15.3627691045739 14.6559090574185 0.0
vertex 15.2613507579004 14.5737421187299 0.0
endloop
endfacet
facet normal -0.725538209147864 0.688181885163007 0.0
outer loop
vertex 15.3627691045739 14.6559090574185 0.0
vertex 15.2613507579004 14.5737421187299 2.0
vertex 15.3627691045739 14.6559090574185 2.0
endloop
endfacet
facet normal -0.965925826289068 0.258819045102521 0.0
outer loop
vertex 0.511112605663976 18.8822856765378 2.0
vertex 0.0 15.0 0.0
vertex 0.0 15.0 2.0
endloop
endfacet
facet normal -1.0 -2.76244406765054e-16 0.0
outer loop
vertex 0.0 15.0 0.0
vertex 0.511112605663976 18.8822856765378 2.0
vertex 0.511112605663976 18.8822856765378 0.0
endloop
endfacet
facet normal -0.866025403784439 0.5 0.0
outer loop
vertex 2.00961894323342 22.5 2.0
vertex 0.511112605663976 18.8822856765378 0.0
vertex 0.511112605663976 18.8822856765378 2.0
endloop
endfacet
facet normal -0.965925826289068 0.258819045102521 0.0
outer loop
vertex 0.511112605663976 18.8822856765378 0.0
vertex 2.00961894323342 22.5 2.0
vertex 2.00961894323342 22.5 0.0
endloop
endfacet
facet normal -1.0 -2.76244406765054e-16 0.0
outer loop
vertex 0.0 15.0 2.0
vertex 0.511112605663976 11.1177143234622 0.0
vertex 0.511112605663976 11.1177143234622 2.0
endloop
endfacet
facet normal -0.965925826289068 -0.258819045102521 0.0
outer loop
vertex 0.511112605663976 11.1177143234622 0.0
vertex 0.0 15.0 2.0
vertex 0.0 15.0 0.0
endloop
endfacet
facet normal -1.28319982497315e-15 -1.0 0.0
outer loop
vertex 15.0 0.0 2.0
vertex 11.1177143234622 0.511112605663982 0.0
vertex 15.0 0.0 0.0
endloop
endfacet
facet normal -0.258819045102521 -0.965925826289068 0.0
outer loop
vertex 11.1177143234622 0.511112605663982 0.0
vertex 15.0 0.0 2.0
vertex 11.1177143234622 0.511112605663982 2.0
endloop
endfacet
facet normal 0.258819045102521 -0.965925826289068 0.0
outer loop
vertex 18.8822856765378 0.511112605663971 2.0
vertex 15.0 0.0 0.0
vertex 18.8822856765378 0.511112605663971 0.0
endloop
endfacet
facet normal -1.28319982497315e-15 -1.0 0.0
outer loop
vertex 15.0 0.0 0.0
vertex 18.8822856765378 0.511112605663971 2.0
vertex 15.0 0.0 2.0
endloop
endfacet
facet normal 0.500000000000001 -0.866025403784438 0.0
outer loop
vertex 22.5 2.00961894323342 2.0
vertex 18.8822856765378 0.511112605663971 0.0
vertex 22.5 2.00961894323342 0.0
endloop
endfacet
facet normal 0.258819045102521 -0.965925826289068 0.0
outer loop
vertex 18.8822856765378 0.511112605663971 0.0
vertex 22.5 2.00961894323342 2.0
vertex 18.8822856765378 0.511112605663971 2.0
endloop
endfacet
facet normal -0.999651065386902 -0.0264149100099139 0.0
outer loop
vertex 15.4998255326935 15.013207455005 2.0
vertex 15.4862127315599 14.8833930547993 0.0
vertex 15.4862127315599 14.8833930547993 2.0
endloop
endfacet
facet normal -0.972425463119827 0.233213890401475 0.0
outer loop
vertex 15.4862127315599 14.8833930547993 0.0
vertex 15.4998255326935 15.013207455005 2.0
vertex 15.4998255326935 15.013207455005 0.0
endloop
endfacet
facet normal -0.972425463119827 0.233213890401475 0.0
outer loop
vertex 15.4862127315599 14.8833930547993 2.0
vertex 15.4394653362751 14.7615252252069 0.0
vertex 15.4394653362751 14.7615252252069 2.0
endloop
endfacet
facet normal -0.87893067255019 0.47694954958619 0.0
outer loop
vertex 15.4394653362751 14.7615252252069 0.0
vertex 15.4862127315599 14.8833930547993 2.0
vertex 15.4862127315599 14.8833930547993 0.0
endloop
endfacet
facet normal -0.87893067255019 0.47694954958619 0.0
outer loop
vertex 15.4394653362751 14.7615252252069 2.0
vertex 15.3627691045739 14.6559090574185 0.0
vertex 15.3627691045739 14.6559090574185 2.0
endloop
endfacet
facet normal -0.725538209147864 0.688181885163007 0.0
outer loop
vertex 15.3627691045739 14.6559090574185 0.0
vertex 15.4394653362751 14.7615252252069 2.0
vertex 15.4394653362751 14.7615252252069 0.0
endloop
endfacet
facet normal -0.68818188516299 -0.72553820914788 0.0
outer loop
vertex 15.3440909425815 15.3627691045739 2.0
vertex 15.4262578812701 15.2613507579003 0.0
vertex 15.4262578812701 15.2613507579003 2.0
endloop
endfacet
facet normal -0.852515762540283 -0.52270151580071 0.0
outer loop
vertex 15.4262578812701 15.2613507579003 0.0
vertex 15.3440909425815 15.3627691045739 2.0
vertex 15.3440909425815 15.3627691045739 0.0
endloop
endfacet
facet normal -0.852515762540283 -0.52270151580071 0.0
outer loop
vertex 15.4262578812701 15.2613507579003 2.0
vertex 15.4793760497747 15.1421217889784 0.0
vertex 15.4793760497747 15.1421217889784 2.0
endloop
endfacet
facet normal -0.958752099549357 -0.284243577956828 0.0
outer loop
vertex 15.4793760497747 15.1421217889784 0.0
vertex 15.4262578812701 15.2613507579003 2.0
vertex 15.4262578812701 15.2613507579003 0.0
endloop
endfacet
facet normal -0.958752099549357 -0.284243577956828 0.0
outer loop
vertex 15.4793760497747 15.1421217889784 2.0
vertex 15.4998255326935 15.013207455005 0.0
vertex 15.4998255326935 15.013207455005 2.0
endloop
endfacet
facet normal -0.999651065386902 -0.0264149100099139 0.0
outer loop
vertex 15.4998255326935 15.013207455005 0.0
vertex 15.4793760497747 15.1421217889784 2.0
vertex 15.4793760497747 15.1421217889784 0.0
endloop
endfacet
facet normal 0.866025403784438 -0.500000000000002 0.0
outer loop
vertex 27.9903810567666 7.5 0.0
vertex 25.6066017177982 4.39339828220179 2.0
vertex 25.6066017177982 4.39339828220179 0.0
endloop
endfacet
facet normal 0.707106781186547 -0.707106781186548 0.0
outer loop
vertex 25.6066017177982 4.39339828220179 2.0
vertex 27.9903810567666 7.5 0.0
vertex 27.9903810567666 7.5 2.0
endloop
endfacet
facet normal 0.965925826289068 -0.258819045102522 0.0
outer loop
vertex 29.488887394336 11.1177143234622 0.0
vertex 27.9903810567666 7.5 2.0
vertex 27.9903810567666 7.5 0.0
endloop
endfacet
facet normal 0.866025403784438 -0.500000000000002 0.0
outer loop
vertex 27.9903810567666 7.5 2.0
vertex 29.488887394336 11.1177143234622 0.0
vertex 29.488887394336 11.1177143234622 2.0
endloop
endfacet
facet normal 1.0 -6.59422132277871e-16 0.0
outer loop
vertex 30.0 15.0 0.0
vertex 29.488887394336 11.1177143234622 2.0
vertex 29.488887394336 11.1177143234622 0.0
endloop
endfacet
facet normal 0.965925826289068 -0.258819045102522 0.0
outer loop
vertex 29.488887394336 11.1177143234622 2.0
vertex 30.0 15.0 0.0
vertex 30.0 15.0 2.0
endloop
endfacet
facet normal -0.284243577956842 0.958752099549353 0.0
outer loop
vertex 15.1421217889784 14.5206239502253 2.0
vertex 15.2613507579004 14.5737421187299 0.0
vertex 15.1421217889784 14.5206239502253 0.0
endloop
endfacet
facet normal -0.522701515800692 0.852515762540294 0.0
outer loop
vertex 15.2613507579004 14.5737421187299 0.0
vertex 15.1421217889784 14.5206239502253 2.0
vertex 15.2613507579004 14.5737421187299 2.0
endloop
endfacet
facet normal -0.0264149100099357 0.999651065386901 0.0
outer loop
vertex 15.013207455005 14.5001744673065 2.0
vertex 15.1421217889784 14.5206239502253 0.0
vertex 15.013207455005 14.5001744673065 0.0
endloop
endfacet
facet normal -0.284243577956842 0.958752099549353 0.0
outer loop
vertex 15.1421217889784 14.5206239502253 0.0
vertex 15.013207455005 14.5001744673065 2.0
vertex 15.1421217889784 14.5206239502253 2.0
endloop
endfacet
facet normal 0.958752099549357 0.284243577956831 0.0
outer loop
vertex 14.5206239502253 14.8578782110216 0.0
vertex 14.5737421187299 14.7386492420996 2.0
vertex 14.5737421187299 14.7386492420996 0.0
endloop
endfacet
facet normal 0.852515762540281 0.522701515800714 0.0
outer loop
vertex 14.5737421187299 14.7386492420996 2.0
vertex 14.5206239502253 14.8578782110216 0.0
vertex 14.5206239502253 14.8578782110216 2.0
endloop
endfacet
facet normal -0.476949549586189 -0.878930672550191 0.0
outer loop
vertex 15.2384747747931 15.4394653362751 2.0
vertex 15.1166069452007 15.4862127315599 0.0
vertex 15.2384747747931 15.4394653362751 0.0
endloop
endfacet
facet normal -0.233213890401493 -0.972425463119822 0.0
outer loop
vertex 15.1166069452007 15.4862127315599 0.0
vertex 15.2384747747931 15.4394653362751 2.0
vertex 15.1166069452007 15.4862127315599 2.0
endloop
endfacet
facet normal -0.68818188516299 -0.72553820914788 0.0
outer loop
vertex 15.3440909425815 15.3627691045739 2.0
vertex 15.2384747747931 15.4394653362751 0.0
vertex 15.3440909425815 15.3627691045739 0.0
endloop
endfacet
facet normal -0.476949549586189 -0.878930672550191 0.0
outer loop
vertex 15.2384747747931 15.4394653362751 0.0
vertex 15.3440909425815 15.3627691045739 2.0
vertex 15.2384747747931 15.4394653362751 2.0
endloop
endfacet
facet normal 0.5 0.866025403784439 0.0
outer loop
vertex 22.5 27.9903810567666 2.0
vertex 25.6066017177982 25.6066017177982 0.0
vertex 22.5 27.9903810567666 0.0
endloop
endfacet
facet normal 0.707106781186548 0.707106781186547 0.0
outer loop
vertex 25.6066017177982 25.6066017177982 0.0
vertex 22.5 27.9903810567666 2.0
vertex 25.6066017177982 25.6066017177982 2.0
endloop
endfacet
facet normal 0.707106781186548 0.707106781186547 0.0
outer loop
vertex 25.6066017177982 25.6066017177982 0.0
vertex 27.9903810567666 22.5 2.0
vertex 27.9903810567666 22.5 0.0
endloop
endfacet
facet normal 0.866025403784439 0.5 0.0
outer loop
vertex 27.9903810567666 22.5 2.0
vertex 25.6066017177982 25.6066017177982 0.0
vertex 25.6066017177982 25.6066017177982 2.0
endloop
endfacet
facet normal 0.258819045102521 0.965925826289068 0.0
outer loop
vertex 18.8822856765378 29.488887394336 2.0
vertex 22.5 27.9903810567666 0.0
vertex 18.8822856765378 29.488887394336 0.0
endloop
endfacet
facet normal 0.5 0.866025403784439 0.0
outer loop
vertex 22.5 27.9903810567666 0.0
vertex 18.8822856765378 29.488887394336 2.0
vertex 22.5 27.9903810567666 2.0
endloop
endfacet
facet normal 0.852515762540281 0.522701515800714 0.0
outer loop
vertex 14.5737421187299 14.7386492420996 0.0
vertex 14.6559090574185 14.6372308954261 2.0
vertex 14.6559090574185 14.6372308954261 0.0
endloop
endfacet
facet normal 0.688181885163004 0.725538209147867 0.0
outer loop
vertex 14.6559090574185 14.6372308954261 2.0
vertex 14.5737421187299 14.7386492420996 0.0
vertex 14.5737421187299 14.7386492420996 2.0
endloop
endfacet
facet normal 0.0264149100099144 -0.999651065386902 0.0
outer loop
vertex 14.986792544995 15.4998255326934 2.0
vertex 14.8578782110216 15.4793760497747 0.0
vertex 14.986792544995 15.4998255326934 0.0
endloop
endfacet
facet normal 0.284243577956821 -0.958752099549359 0.0
outer loop
vertex 14.8578782110216 15.4793760497747 0.0
vertex 14.986792544995 15.4998255326934 2.0
vertex 14.8578782110216 15.4793760497747 2.0
endloop
endfacet
facet normal 0.284243577956821 -0.958752099549359 0.0
outer loop
vertex 14.8578782110216 15.4793760497747 2.0
vertex 14.7386492420996 15.4262578812701 0.0
vertex 14.8578782110216 15.4793760497747 0.0
endloop
endfacet
facet normal 0.522701515800709 -0.852515762540284 0.0
outer loop
vertex 14.7386492420996 15.4262578812701 0.0
vertex 14.8578782110216 15.4793760497747 2.0
vertex 14.7386492420996 15.4262578812701 2.0
endloop
endfacet
facet normal 0.522701515800709 -0.852515762540284 0.0
outer loop
vertex 14.7386492420996 15.4262578812701 2.0
vertex 14.6372308954261 15.3440909425815 0.0
vertex 14.7386492420996 15.4262578812701 0.0
endloop
endfacet
facet normal 0.725538209147878 -0.688181885162993 0.0
outer loop
vertex 14.6372308954261 15.3440909425815 0.0
vertex 14.7386492420996 15.4262578812701 2.0
vertex 14.6372308954261 15.3440909425815 2.0
endloop
endfacet
facet normal 0.725538209147878 -0.688181885162993 0.0
outer loop
vertex 14.6372308954261 15.3440909425815 0.0
vertex 14.5605346637249 15.2384747747931 2.0
vertex 14.5605346637249 15.2384747747931 0.0
endloop
endfacet
facet normal 0.87893067255019 -0.47694954958619 0.0
outer loop
vertex 14.5605346637249 15.2384747747931 2.0
vertex 14.6372308954261 15.3440909425815 0.0
vertex 14.6372308954261 15.3440909425815 2.0
endloop
endfacet
facet normal 0.87893067255019 -0.47694954958619 0.0
outer loop
vertex 14.5605346637249 15.2384747747931 0.0
vertex 14.5137872684401 15.1166069452007 2.0
vertex 14.5137872684401 15.1166069452007 0.0
endloop
endfacet
facet normal 0.972425463119826 -0.233213890401477 0.0
outer loop
vertex 14.5137872684401 15.1166069452007 2.0
vertex 14.5605346637249 15.2384747747931 0.0
vertex 14.5605346637249 15.2384747747931 2.0
endloop
endfacet
facet normal 0.972425463119826 -0.233213890401477 0.0
outer loop
vertex 14.5137872684401 15.1166069452007 0.0
vertex 14.5001744673066 14.986792544995 2.0
vertex 14.5001744673066 14.986792544995 0.0
endloop
endfacet
facet normal 0.999651065386902 0.0264149100099086 0.0
outer loop
vertex 14.5001744673066 14.986792544995 2.0
vertex 14.5137872684401 15.1166069452007 0.0
vertex 14.5137872684401 15.1166069452007 2.0
endloop
endfacet
endsolid Rueda interna
