solid Rueda externa
facet normal 0.0 0.0 -1.0
outer loop
vertex 0.579260953085843 21.3999237667429 0.0
vertex 0.579260953085837 12.6000762332572 0.0
vertex 0.0 17.0 0.0
endloop
endfacet
facet normal 0.0 0.0 -1.0
outer loop
vertex 0.579260953085837 12.6000762332572 0.0
vertex 0.579260953085843 21.3999237667429 0.0
vertex 2.27756813566454 8.50000000000002 0.0
endloop
endfacet
facet normal 0.0 0.0 -1.0
outer loop
vertex 2.27756813566454 8.50000000000002 0.0
vertex 0.579260953085843 21.3999237667429 0.0
vertex 2.27756813566455 25.5 0.0
endloop
endfacet
facet normal 0.0 0.0 -1.0
outer loop
vertex 2.27756813566454 8.50000000000002 0.0
vertex 2.27756813566455 25.5 0.0
vertex 4.97918471982869 4.9791847198287 0.0
endloop
endfacet
facet normal 0.0 0.0 -1.0
outer loop
vertex 4.97918471982869 4.9791847198287 0.0
vertex 2.27756813566455 25.5 0.0
vertex 4.9791847198287 29.0208152801713 0.0
endloop
endfacet
facet normal 0.0 0.0 -1.0
outer loop
vertex 4.97918471982869 4.9791847198287 0.0
vertex 4.9791847198287 29.0208152801713 0.0
vertex 8.49999999999999 2.27756813566455 0.0
endloop
endfacet
facet normal 0.0 0.0 -1.0
outer loop
vertex 8.49999999999999 2.27756813566455 0.0
vertex 4.9791847198287 29.0208152801713 0.0
vertex 8.50000000000001 31.7224318643355 0.0
endloop
endfacet
facet normal 0.0 0.0 -1.0
outer loop
vertex 8.49999999999999 2.27756813566455 0.0
vertex 8.50000000000001 31.7224318643355 0.0
vertex 12.6000762332571 0.579260953085845 0.0
endloop
endfacet
facet normal 0.0 0.0 -1.0
outer loop
vertex 12.6000762332571 0.579260953085845 0.0
vertex 8.50000000000001 31.7224318643355 0.0
vertex 12.6000762332572 33.4207390469142 0.0
endloop
endfacet
facet normal 0.0 0.0 -1.0
outer loop
vertex 12.6000762332571 0.579260953085845 0.0
vertex 12.6000762332572 33.4207390469142 0.0
vertex 17.0 0.0 0.0
endloop
endfacet
facet normal 0.0 0.0 -1.0
outer loop
vertex 17.0 0.0 0.0
vertex 12.6000762332572 33.4207390469142 0.0
vertex 17.0 34.0 0.0
endloop
endfacet
facet normal 0.0 0.0 -1.0
outer loop
vertex 17.0 0.0 0.0
vertex 17.0 34.0 0.0
vertex 21.3999237667429 0.579260953085845 0.0
endloop
endfacet
facet normal 0.0 0.0 -1.0
outer loop
vertex 21.3999237667429 0.579260953085845 0.0
vertex 17.0 34.0 0.0
vertex 21.3999237667429 33.4207390469142 0.0
endloop
endfacet
facet normal 0.0 0.0 -1.0
outer loop
vertex 21.3999237667429 0.579260953085845 0.0
vertex 21.3999237667429 33.4207390469142 0.0
vertex 25.5 2.27756813566454 0.0
endloop
endfacet
facet normal 0.0 0.0 -1.0
outer loop
vertex 25.5 2.27756813566454 0.0
vertex 21.3999237667429 33.4207390469142 0.0
vertex 25.5 31.7224318643355 0.0
endloop
endfacet
facet normal 0.0 0.0 -1.0
outer loop
vertex 25.5 2.27756813566454 0.0
vertex 25.5 31.7224318643355 0.0
vertex 29.0208152801713 4.9791847198287 0.0
endloop
endfacet
facet normal 0.0 0.0 -1.0
outer loop
vertex 29.0208152801713 4.9791847198287 0.0
vertex 25.5 31.7224318643355 0.0
vertex 29.0208152801713 29.0208152801713 0.0
endloop
endfacet
facet normal 0.0 0.0 -1.0
outer loop
vertex 29.0208152801713 4.9791847198287 0.0
vertex 29.0208152801713 29.0208152801713 0.0
vertex 31.7224318643355 8.50000000000001 0.0
endloop
endfacet
facet normal 0.0 0.0 -1.0
outer loop
vertex 31.7224318643355 8.50000000000001 0.0
vertex 29.0208152801713 29.0208152801713 0.0
vertex 31.7224318643355 25.5 0.0
endloop
endfacet
facet normal 0.0 0.0 -1.0
outer loop
vertex 31.7224318643355 8.50000000000001 0.0
vertex 31.7224318643355 25.5 0.0
vertex 33.4207390469142 21.3999237667429 0.0
endloop
endfacet
facet normal 0.0 0.0 -1.0
outer loop
vertex 31.7224318643355 8.50000000000001 0.0
vertex 33.4207390469142 21.3999237667429 0.0
vertex 33.4207390469142 12.6000762332572 0.0
endloop
endfacet
facet normal 0.0 0.0 -1.0
outer loop
vertex 33.4207390469142 12.6000762332572 0.0
vertex 33.4207390469142 21.3999237667429 0.0
vertex 34.0 17.0 0.0
endloop
endfacet
facet normal 0.707106781186548 -0.707106781186547 0.0
outer loop
vertex 29.0208152801713 4.9791847198287 1.0
vertex 25.5 2.27756813566454 0.0
vertex 29.0208152801713 4.9791847198287 0.0
endloop
endfacet
facet normal 0.5 -0.866025403784439 0.0
outer loop
vertex 25.5 2.27756813566454 0.0
vertex 29.0208152801713 4.9791847198287 1.0
vertex 25.5 2.27756813566454 1.0
endloop
endfacet
facet normal -0.707106781186547 0.707106781186548 0.0
outer loop
vertex 4.9791847198287 29.0208152801713 1.0
vertex 8.50000000000001 31.7224318643355 0.0
vertex 4.9791847198287 29.0208152801713 0.0
endloop
endfacet
facet normal -0.499999999999999 0.866025403784439 0.0
outer loop
vertex 8.50000000000001 31.7224318643355 0.0
vertex 4.9791847198287 29.0208152801713 1.0
vertex 8.50000000000001 31.7224318643355 1.0
endloop
endfacet
facet normal -0.707106781186547 0.707106781186548 0.0
outer loop
vertex 4.9791847198287 29.0208152801713 1.0
vertex 2.27756813566455 25.5 0.0
vertex 2.27756813566455 25.5 1.0
endloop
endfacet
facet normal -0.866025403784438 0.500000000000001 0.0
outer loop
vertex 2.27756813566455 25.5 0.0
vertex 4.9791847198287 29.0208152801713 1.0
vertex 4.9791847198287 29.0208152801713 0.0
endloop
endfacet
facet normal 0.258819045102522 0.965925826289068 0.0
outer loop
vertex 21.3999237667429 33.4207390469142 1.0
vertex 25.5 31.7224318643355 0.0
vertex 21.3999237667429 33.4207390469142 0.0
endloop
endfacet
facet normal 0.5 0.866025403784439 0.0
outer loop
vertex 25.5 31.7224318643355 0.0
vertex 21.3999237667429 33.4207390469142 1.0
vertex 25.5 31.7224318643355 1.0
endloop
endfacet
facet normal -0.866025403784438 0.500000000000001 0.0
outer loop
vertex 2.27756813566455 25.5 1.0
vertex 0.579260953085843 21.3999237667429 0.0
vertex 0.579260953085843 21.3999237667429 1.0
endloop
endfacet
facet normal -0.965925826289068 0.258819045102521 0.0
outer loop
vertex 0.579260953085843 21.3999237667429 0.0
vertex 2.27756813566455 25.5 1.0
vertex 2.27756813566455 25.5 0.0
endloop
endfacet
facet normal -0.258819045102521 0.965925826289068 0.0
outer loop
vertex 12.6000762332572 33.4207390469142 1.0
vertex 17.0 34.0 0.0
vertex 12.6000762332572 33.4207390469142 0.0
endloop
endfacet
facet normal -7.12888791651753e-017 1.0 0.0
outer loop
vertex 17.0 34.0 0.0
vertex 12.6000762332572 33.4207390469142 1.0
vertex 17.0 34.0 1.0
endloop
endfacet
facet normal 0.965925826289068 0.258819045102521 0.0
outer loop
vertex 33.4207390469142 21.3999237667429 0.0
vertex 34.0 17.0 1.0
vertex 34.0 17.0 0.0
endloop
endfacet
facet normal 1.0 0.0 0.0
outer loop
vertex 34.0 17.0 1.0
vertex 33.4207390469142 21.3999237667429 0.0
vertex 33.4207390469142 21.3999237667429 1.0
endloop
endfacet
facet normal 0.866025403784439 0.5 0.0
outer loop
vertex 31.7224318643355 25.5 0.0
vertex 33.4207390469142 21.3999237667429 1.0
vertex 33.4207390469142 21.3999237667429 0.0
endloop
endfacet
facet normal 0.965925826289068 0.258819045102521 0.0
outer loop
vertex 33.4207390469142 21.3999237667429 1.0
vertex 31.7224318643355 25.5 0.0
vertex 31.7224318643355 25.5 1.0
endloop
endfacet
facet normal -0.965925826289068 0.258819045102521 0.0
outer loop
vertex 0.579260953085843 21.3999237667429 1.0
vertex 0.0 17.0 0.0
vertex 0.0 17.0 1.0
endloop
endfacet
facet normal -1.0 2.94066626556348e-016 0.0
outer loop
vertex 0.0 17.0 0.0
vertex 0.579260953085843 21.3999237667429 1.0
vertex 0.579260953085843 21.3999237667429 0.0
endloop
endfacet
facet normal -1.0 2.94066626556348e-016 0.0
outer loop
vertex 0.0 17.0 1.0
vertex 0.579260953085837 12.6000762332572 0.0
vertex 0.579260953085837 12.6000762332572 1.0
endloop
endfacet
facet normal -0.965925826289068 -0.25881904510252 0.0
outer loop
vertex 0.579260953085837 12.6000762332572 0.0
vertex 0.0 17.0 1.0
vertex 0.0 17.0 0.0
endloop
endfacet
facet normal -0.499999999999999 0.866025403784439 0.0
outer loop
vertex 8.50000000000001 31.7224318643355 1.0
vertex 12.6000762332572 33.4207390469142 0.0
vertex 8.50000000000001 31.7224318643355 0.0
endloop
endfacet
facet normal -0.258819045102521 0.965925826289068 0.0
outer loop
vertex 12.6000762332572 33.4207390469142 0.0
vertex 8.50000000000001 31.7224318643355 1.0
vertex 12.6000762332572 33.4207390469142 1.0
endloop
endfacet
facet normal -7.12888791651753e-017 1.0 0.0
outer loop
vertex 17.0 34.0 1.0
vertex 21.3999237667429 33.4207390469142 0.0
vertex 17.0 34.0 0.0
endloop
endfacet
facet normal 0.258819045102522 0.965925826289068 0.0
outer loop
vertex 21.3999237667429 33.4207390469142 0.0
vertex 17.0 34.0 1.0
vertex 21.3999237667429 33.4207390469142 1.0
endloop
endfacet
facet normal -0.965925826289068 -0.25881904510252 0.0
outer loop
vertex 0.579260953085837 12.6000762332572 1.0
vertex 2.27756813566454 8.50000000000002 0.0
vertex 2.27756813566454 8.50000000000002 1.0
endloop
endfacet
facet normal -0.866025403784439 -0.499999999999999 0.0
outer loop
vertex 2.27756813566454 8.50000000000002 0.0
vertex 0.579260953085837 12.6000762332572 1.0
vertex 0.579260953085837 12.6000762332572 0.0
endloop
endfacet
facet normal -0.866025403784439 -0.499999999999999 0.0
outer loop
vertex 2.27756813566454 8.50000000000002 1.0
vertex 4.97918471982869 4.9791847198287 0.0
vertex 4.97918471982869 4.9791847198287 1.0
endloop
endfacet
facet normal -0.707106781186548 -0.707106781186547 0.0
outer loop
vertex 4.97918471982869 4.9791847198287 0.0
vertex 2.27756813566454 8.50000000000002 1.0
vertex 2.27756813566454 8.50000000000002 0.0
endloop
endfacet
facet normal 0.5 0.866025403784439 0.0
outer loop
vertex 25.5 31.7224318643355 1.0
vertex 29.0208152801713 29.0208152801713 0.0
vertex 25.5 31.7224318643355 0.0
endloop
endfacet
facet normal 0.707106781186547 0.707106781186548 0.0
outer loop
vertex 29.0208152801713 29.0208152801713 0.0
vertex 25.5 31.7224318643355 1.0
vertex 29.0208152801713 29.0208152801713 1.0
endloop
endfacet
facet normal 0.707106781186547 0.707106781186548 0.0
outer loop
vertex 29.0208152801713 29.0208152801713 0.0
vertex 31.7224318643355 25.5 1.0
vertex 31.7224318643355 25.5 0.0
endloop
endfacet
facet normal 0.866025403784439 0.5 0.0
outer loop
vertex 31.7224318643355 25.5 1.0
vertex 29.0208152801713 29.0208152801713 0.0
vertex 29.0208152801713 29.0208152801713 1.0
endloop
endfacet
facet normal -0.5 -0.866025403784438 0.0
outer loop
vertex 8.49999999999999 2.27756813566455 1.0
vertex 4.97918471982869 4.9791847198287 0.0
vertex 8.49999999999999 2.27756813566455 0.0
endloop
endfacet
facet normal -0.707106781186548 -0.707106781186547 0.0
outer loop
vertex 4.97918471982869 4.9791847198287 0.0
vertex 8.49999999999999 2.27756813566455 1.0
vertex 4.97918471982869 4.9791847198287 1.0
endloop
endfacet
facet normal -0.258819045102522 -0.965925826289068 0.0
outer loop
vertex 12.6000762332571 0.579260953085845 1.0
vertex 8.49999999999999 2.27756813566455 0.0
vertex 12.6000762332571 0.579260953085845 0.0
endloop
endfacet
facet normal -0.5 -0.866025403784438 0.0
outer loop
vertex 8.49999999999999 2.27756813566455 0.0
vertex 12.6000762332571 0.579260953085845 1.0
vertex 8.49999999999999 2.27756813566455 1.0
endloop
endfacet
facet normal 1.0 0.0 0.0
outer loop
vertex 34.0 17.0 0.0
vertex 33.4207390469142 12.6000762332572 1.0
vertex 33.4207390469142 12.6000762332572 0.0
endloop
endfacet
facet normal 0.965925826289068 -0.258819045102521 0.0
outer loop
vertex 33.4207390469142 12.6000762332572 1.0
vertex 34.0 17.0 0.0
vertex 34.0 17.0 1.0
endloop
endfacet
facet normal 2.13866637495526e-016 -1.0 0.0
outer loop
vertex 17.0 0.0 1.0
vertex 12.6000762332571 0.579260953085845 0.0
vertex 17.0 0.0 0.0
endloop
endfacet
facet normal -0.258819045102522 -0.965925826289068 0.0
outer loop
vertex 12.6000762332571 0.579260953085845 0.0
vertex 17.0 0.0 1.0
vertex 12.6000762332571 0.579260953085845 1.0
endloop
endfacet
facet normal 0.258819045102521 -0.965925826289068 0.0
outer loop
vertex 21.3999237667429 0.579260953085845 1.0
vertex 17.0 0.0 0.0
vertex 21.3999237667429 0.579260953085845 0.0
endloop
endfacet
facet normal 2.13866637495526e-016 -1.0 0.0
outer loop
vertex 17.0 0.0 0.0
vertex 21.3999237667429 0.579260953085845 1.0
vertex 17.0 0.0 1.0
endloop
endfacet
facet normal 0.5 -0.866025403784439 0.0
outer loop
vertex 25.5 2.27756813566454 1.0
vertex 21.3999237667429 0.579260953085845 0.0
vertex 25.5 2.27756813566454 0.0
endloop
endfacet
facet normal 0.258819045102521 -0.965925826289068 0.0
outer loop
vertex 21.3999237667429 0.579260953085845 0.0
vertex 25.5 2.27756813566454 1.0
vertex 21.3999237667429 0.579260953085845 1.0
endloop
endfacet
facet normal 0.965925826289068 -0.258819045102521 0.0
outer loop
vertex 33.4207390469142 12.6000762332572 0.0
vertex 31.7224318643355 8.50000000000001 1.0
vertex 31.7224318643355 8.50000000000001 0.0
endloop
endfacet
facet normal 0.866025403784439 -0.5 0.0
outer loop
vertex 31.7224318643355 8.50000000000001 1.0
vertex 33.4207390469142 12.6000762332572 0.0
vertex 33.4207390469142 12.6000762332572 1.0
endloop
endfacet
facet normal 0.0 0.0 1.0
outer loop
vertex 0.579260953085837 12.6000762332572 1.0
vertex 0.579260953085843 21.3999237667429 1.0
vertex 0.0 17.0 1.0
endloop
endfacet
facet normal 0.0 0.0 1.0
outer loop
vertex 0.579260953085843 21.3999237667429 1.0
vertex 0.579260953085837 12.6000762332572 1.0
vertex 2.27756813566454 8.50000000000002 1.0
endloop
endfacet
facet normal 0.0 0.0 1.0
outer loop
vertex 0.579260953085843 21.3999237667429 1.0
vertex 2.27756813566454 8.50000000000002 1.0
vertex 2.27756813566455 25.5 1.0
endloop
endfacet
facet normal 0.0 0.0 1.0
outer loop
vertex 2.27756813566455 25.5 1.0
vertex 2.27756813566454 8.50000000000002 1.0
vertex 4.97918471982869 4.9791847198287 1.0
endloop
endfacet
facet normal 0.0 0.0 1.0
outer loop
vertex 2.27756813566455 25.5 1.0
vertex 4.97918471982869 4.9791847198287 1.0
vertex 4.9791847198287 29.0208152801713 1.0
endloop
endfacet
facet normal 0.0 0.0 1.0
outer loop
vertex 4.9791847198287 29.0208152801713 1.0
vertex 4.97918471982869 4.9791847198287 1.0
vertex 8.49999999999999 2.27756813566455 1.0
endloop
endfacet
facet normal 0.0 0.0 1.0
outer loop
vertex 4.9791847198287 29.0208152801713 1.0
vertex 8.49999999999999 2.27756813566455 1.0
vertex 8.50000000000001 31.7224318643355 1.0
endloop
endfacet
facet normal 0.0 0.0 1.0
outer loop
vertex 8.50000000000001 31.7224318643355 1.0
vertex 8.49999999999999 2.27756813566455 1.0
vertex 9.20000000000001 17.0 1.0
endloop
endfacet
facet normal 0.0 0.0 1.0
outer loop
vertex 9.20000000000001 17.0 1.0
vertex 8.49999999999999 2.27756813566455 1.0
vertex 9.46577855494527 14.9812114482003 1.0
endloop
endfacet
facet normal 0.0 0.0 1.0
outer loop
vertex 9.46577855494527 14.9812114482003 1.0
vertex 8.49999999999999 2.27756813566455 1.0
vertex 12.6000762332571 0.579260953085845 1.0
endloop
endfacet
facet normal 0.0 0.0 1.0
outer loop
vertex 9.46577855494527 14.9812114482003 1.0
vertex 12.6000762332571 0.579260953085845 1.0
vertex 10.2450018504814 13.1 1.0
endloop
endfacet
facet normal 0.0 0.0 1.0
outer loop
vertex 10.2450018504814 13.1 1.0
vertex 12.6000762332571 0.579260953085845 1.0
vertex 11.4845671067449 11.4845671067449 1.0
endloop
endfacet
facet normal 0.0 0.0 1.0
outer loop
vertex 11.4845671067449 11.4845671067449 1.0
vertex 12.6000762332571 0.579260953085845 1.0
vertex 13.1 10.2450018504814 1.0
endloop
endfacet
facet normal 0.0 0.0 1.0
outer loop
vertex 13.1 10.2450018504814 1.0
vertex 12.6000762332571 0.579260953085845 1.0
vertex 17.0 0.0 1.0
endloop
endfacet
facet normal 0.0 0.0 1.0
outer loop
vertex 13.1 10.2450018504814 1.0
vertex 17.0 0.0 1.0
vertex 14.9812114482003 9.46577855494527 1.0
endloop
endfacet
facet normal 0.0 0.0 1.0
outer loop
vertex 14.9812114482003 9.46577855494527 1.0
vertex 17.0 0.0 1.0
vertex 17.0 9.20000000000001 1.0
endloop
endfacet
facet normal 0.0 0.0 1.0
outer loop
vertex 17.0 9.20000000000001 1.0
vertex 17.0 0.0 1.0
vertex 21.3999237667429 0.579260953085845 1.0
endloop
endfacet
facet normal 0.0 0.0 1.0
outer loop
vertex 17.0 9.20000000000001 1.0
vertex 21.3999237667429 0.579260953085845 1.0
vertex 19.0187885517997 9.46577855494528 1.0
endloop
endfacet
facet normal 0.0 0.0 1.0
outer loop
vertex 19.0187885517997 9.46577855494528 1.0
vertex 21.3999237667429 0.579260953085845 1.0
vertex 20.9 10.2450018504814 1.0
endloop
endfacet
facet normal 0.0 0.0 1.0
outer loop
vertex 20.9 10.2450018504814 1.0
vertex 21.3999237667429 0.579260953085845 1.0
vertex 22.5154328932551 11.4845671067449 1.0
endloop
endfacet
facet normal 0.0 0.0 1.0
outer loop
vertex 22.5154328932551 11.4845671067449 1.0
vertex 21.3999237667429 0.579260953085845 1.0
vertex 25.5 2.27756813566454 1.0
endloop
endfacet
facet normal 0.0 0.0 1.0
outer loop
vertex 22.5154328932551 11.4845671067449 1.0
vertex 25.5 2.27756813566454 1.0
vertex 23.7549981495186 13.1 1.0
endloop
endfacet
facet normal 0.0 0.0 1.0
outer loop
vertex 23.7549981495186 13.1 1.0
vertex 25.5 2.27756813566454 1.0
vertex 24.5342214450547 14.9812114482004 1.0
endloop
endfacet
facet normal 0.0 0.0 1.0
outer loop
vertex 24.5342214450547 14.9812114482004 1.0
vertex 25.5 2.27756813566454 1.0
vertex 24.8 17.0 1.0
endloop
endfacet
facet normal 0.0 0.0 1.0
outer loop
vertex 8.50000000000001 31.7224318643355 1.0
vertex 9.46577855494527 19.0187885517997 1.0
vertex 12.6000762332572 33.4207390469142 1.0
endloop
endfacet
facet normal 0.0 0.0 1.0
outer loop
vertex 9.46577855494527 19.0187885517997 1.0
vertex 8.50000000000001 31.7224318643355 1.0
vertex 9.20000000000001 17.0 1.0
endloop
endfacet
facet normal 0.0 0.0 1.0
outer loop
vertex 12.6000762332572 33.4207390469142 1.0
vertex 9.46577855494527 19.0187885517997 1.0
vertex 10.2450018504814 20.9 1.0
endloop
endfacet
facet normal 0.0 0.0 1.0
outer loop
vertex 12.6000762332572 33.4207390469142 1.0
vertex 10.2450018504814 20.9 1.0
vertex 11.4845671067449 22.5154328932551 1.0
endloop
endfacet
facet normal 0.0 0.0 1.0
outer loop
vertex 12.6000762332572 33.4207390469142 1.0
vertex 11.4845671067449 22.5154328932551 1.0
vertex 13.1 23.7549981495186 1.0
endloop
endfacet
facet normal 0.0 0.0 1.0
outer loop
vertex 12.6000762332572 33.4207390469142 1.0
vertex 13.1 23.7549981495186 1.0
vertex 17.0 34.0 1.0
endloop
endfacet
facet normal 0.0 0.0 1.0
outer loop
vertex 17.0 34.0 1.0
vertex 13.1 23.7549981495186 1.0
vertex 14.9812114482003 24.5342214450547 1.0
endloop
endfacet
facet normal 0.0 0.0 1.0
outer loop
vertex 17.0 34.0 1.0
vertex 14.9812114482003 24.5342214450547 1.0
vertex 17.0 24.8 1.0
endloop
endfacet
facet normal 0.0 0.0 1.0
outer loop
vertex 17.0 34.0 1.0
vertex 17.0 24.8 1.0
vertex 19.0187885517997 24.5342214450547 1.0
endloop
endfacet
facet normal 0.0 0.0 1.0
outer loop
vertex 17.0 34.0 1.0
vertex 19.0187885517997 24.5342214450547 1.0
vertex 21.3999237667429 33.4207390469142 1.0
endloop
endfacet
facet normal 0.0 0.0 1.0
outer loop
vertex 21.3999237667429 33.4207390469142 1.0
vertex 19.0187885517997 24.5342214450547 1.0
vertex 20.9 23.7549981495186 1.0
endloop
endfacet
facet normal 0.0 0.0 1.0
outer loop
vertex 21.3999237667429 33.4207390469142 1.0
vertex 20.9 23.7549981495186 1.0
vertex 22.5154328932551 22.5154328932551 1.0
endloop
endfacet
facet normal 0.0 0.0 1.0
outer loop
vertex 21.3999237667429 33.4207390469142 1.0
vertex 22.5154328932551 22.5154328932551 1.0
vertex 25.5 31.7224318643355 1.0
endloop
endfacet
facet normal 0.0 0.0 1.0
outer loop
vertex 25.5 31.7224318643355 1.0
vertex 22.5154328932551 22.5154328932551 1.0
vertex 23.7549981495186 20.9 1.0
endloop
endfacet
facet normal 0.0 0.0 1.0
outer loop
vertex 25.5 31.7224318643355 1.0
vertex 23.7549981495186 20.9 1.0
vertex 24.5342214450547 19.0187885517997 1.0
endloop
endfacet
facet normal 0.0 0.0 1.0
outer loop
vertex 25.5 31.7224318643355 1.0
vertex 24.5342214450547 19.0187885517997 1.0
vertex 24.8 17.0 1.0
endloop
endfacet
facet normal 0.0 0.0 1.0
outer loop
vertex 25.5 31.7224318643355 1.0
vertex 24.8 17.0 1.0
vertex 25.5 2.27756813566454 1.0
endloop
endfacet
facet normal 0.0 0.0 1.0
outer loop
vertex 25.5 31.7224318643355 1.0
vertex 25.5 2.27756813566454 1.0
vertex 29.0208152801713 4.9791847198287 1.0
endloop
endfacet
facet normal 0.0 0.0 1.0
outer loop
vertex 25.5 31.7224318643355 1.0
vertex 29.0208152801713 4.9791847198287 1.0
vertex 29.0208152801713 29.0208152801713 1.0
endloop
endfacet
facet normal 0.0 0.0 1.0
outer loop
vertex 29.0208152801713 29.0208152801713 1.0
vertex 29.0208152801713 4.9791847198287 1.0
vertex 31.7224318643355 8.50000000000001 1.0
endloop
endfacet
facet normal 0.0 0.0 1.0
outer loop
vertex 29.0208152801713 29.0208152801713 1.0
vertex 31.7224318643355 8.50000000000001 1.0
vertex 31.7224318643355 25.5 1.0
endloop
endfacet
facet normal 0.0 0.0 1.0
outer loop
vertex 31.7224318643355 25.5 1.0
vertex 31.7224318643355 8.50000000000001 1.0
vertex 33.4207390469142 12.6000762332572 1.0
endloop
endfacet
facet normal 0.0 0.0 1.0
outer loop
vertex 31.7224318643355 25.5 1.0
vertex 33.4207390469142 12.6000762332572 1.0
vertex 33.4207390469142 21.3999237667429 1.0
endloop
endfacet
facet normal 0.0 0.0 1.0
outer loop
vertex 33.4207390469142 21.3999237667429 1.0
vertex 33.4207390469142 12.6000762332572 1.0
vertex 34.0 17.0 1.0
endloop
endfacet
facet normal 0.866025403784439 -0.5 0.0
outer loop
vertex 31.7224318643355 8.50000000000001 0.0
vertex 29.0208152801713 4.9791847198287 1.0
vertex 29.0208152801713 4.9791847198287 0.0
endloop
endfacet
facet normal 0.707106781186548 -0.707106781186547 0.0
outer loop
vertex 29.0208152801713 4.9791847198287 1.0
vertex 31.7224318643355 8.50000000000001 0.0
vertex 31.7224318643355 8.50000000000001 1.0
endloop
endfacet
facet normal -0.5 -0.866025403784438 0.0
outer loop
vertex 13.1 10.2450018504814 2.1
vertex 11.4845671067449 11.4845671067449 1.0
vertex 13.1 10.2450018504814 1.0
endloop
endfacet
facet normal -0.707106781186548 -0.707106781186548 0.0
outer loop
vertex 11.4845671067449 11.4845671067449 1.0
vertex 13.1 10.2450018504814 2.1
vertex 11.4845671067449 11.4845671067449 2.1
endloop
endfacet
facet normal -0.866025403784439 -0.5 0.0
outer loop
vertex 10.2450018504814 13.1 2.1
vertex 11.4845671067449 11.4845671067449 1.0
vertex 11.4845671067449 11.4845671067449 2.1
endloop
endfacet
facet normal -0.707106781186548 -0.707106781186548 0.0
outer loop
vertex 11.4845671067449 11.4845671067449 1.0
vertex 10.2450018504814 13.1 2.1
vertex 10.2450018504814 13.1 1.0
endloop
endfacet
facet normal -0.965925826289068 -0.258819045102521 0.0
outer loop
vertex 9.46577855494527 14.9812114482003 2.1
vertex 10.2450018504814 13.1 1.0
vertex 10.2450018504814 13.1 2.1
endloop
endfacet
facet normal -0.866025403784439 -0.5 0.0
outer loop
vertex 10.2450018504814 13.1 1.0
vertex 9.46577855494527 14.9812114482003 2.1
vertex 9.46577855494527 14.9812114482003 1.0
endloop
endfacet
facet normal -1.0 -3.56444395825876e-016 0.0
outer loop
vertex 9.20000000000001 17.0 2.1
vertex 9.46577855494527 14.9812114482003 1.0
vertex 9.46577855494527 14.9812114482003 2.1
endloop
endfacet
facet normal -0.965925826289068 -0.258819045102521 0.0
outer loop
vertex 9.46577855494527 14.9812114482003 1.0
vertex 9.20000000000001 17.0 2.1
vertex 9.20000000000001 17.0 1.0
endloop
endfacet
facet normal -0.965925826289068 0.258819045102521 0.0
outer loop
vertex 9.46577855494527 19.0187885517997 2.1
vertex 9.20000000000001 17.0 1.0
vertex 9.20000000000001 17.0 2.1
endloop
endfacet
facet normal -1.0 -3.56444395825876e-016 0.0
outer loop
vertex 9.20000000000001 17.0 1.0
vertex 9.46577855494527 19.0187885517997 2.1
vertex 9.46577855494527 19.0187885517997 1.0
endloop
endfacet
facet normal -0.866025403784439 0.5 0.0
outer loop
vertex 10.2450018504814 20.9 2.1
vertex 9.46577855494527 19.0187885517997 1.0
vertex 9.46577855494527 19.0187885517997 2.1
endloop
endfacet
facet normal -0.965925826289068 0.258819045102521 0.0
outer loop
vertex 9.46577855494527 19.0187885517997 1.0
vertex 10.2450018504814 20.9 2.1
vertex 10.2450018504814 20.9 1.0
endloop
endfacet
facet normal -0.707106781186547 0.707106781186548 0.0
outer loop
vertex 11.4845671067449 22.5154328932551 2.1
vertex 10.2450018504814 20.9 1.0
vertex 10.2450018504814 20.9 2.1
endloop
endfacet
facet normal -0.866025403784439 0.5 0.0
outer loop
vertex 10.2450018504814 20.9 1.0
vertex 11.4845671067449 22.5154328932551 2.1
vertex 11.4845671067449 22.5154328932551 1.0
endloop
endfacet
facet normal -0.707106781186547 0.707106781186548 0.0
outer loop
vertex 11.4845671067449 22.5154328932551 2.1
vertex 13.1 23.7549981495186 1.0
vertex 11.4845671067449 22.5154328932551 1.0
endloop
endfacet
facet normal -0.499999999999999 0.866025403784439 0.0
outer loop
vertex 13.1 23.7549981495186 1.0
vertex 11.4845671067449 22.5154328932551 2.1
vertex 13.1 23.7549981495186 2.1
endloop
endfacet
facet normal -0.499999999999999 0.866025403784439 0.0
outer loop
vertex 13.1 23.7549981495186 2.1
vertex 14.9812114482003 24.5342214450547 1.0
vertex 13.1 23.7549981495186 1.0
endloop
endfacet
facet normal -0.258819045102523 0.965925826289068 0.0
outer loop
vertex 14.9812114482003 24.5342214450547 1.0
vertex 13.1 23.7549981495186 2.1
vertex 14.9812114482003 24.5342214450547 2.1
endloop
endfacet
facet normal -0.258819045102523 0.965925826289068 0.0
outer loop
vertex 14.9812114482003 24.5342214450547 2.1
vertex 17.0 24.8 1.0
vertex 14.9812114482003 24.5342214450547 1.0
endloop
endfacet
facet normal -2.56639964994631e-015 1.0 0.0
outer loop
vertex 17.0 24.8 1.0
vertex 14.9812114482003 24.5342214450547 2.1
vertex 17.0 24.8 2.1
endloop
endfacet
facet normal -2.56639964994631e-015 1.0 0.0
outer loop
vertex 17.0 24.8 2.1
vertex 19.0187885517997 24.5342214450547 1.0
vertex 17.0 24.8 1.0
endloop
endfacet
facet normal 0.25881904510252 0.965925826289068 0.0
outer loop
vertex 19.0187885517997 24.5342214450547 1.0
vertex 17.0 24.8 2.1
vertex 19.0187885517997 24.5342214450547 2.1
endloop
endfacet
facet normal 0.25881904510252 0.965925826289068 0.0
outer loop
vertex 19.0187885517997 24.5342214450547 2.1
vertex 20.9 23.7549981495186 1.0
vertex 19.0187885517997 24.5342214450547 1.0
endloop
endfacet
facet normal 0.5 0.866025403784438 0.0
outer loop
vertex 20.9 23.7549981495186 1.0
vertex 19.0187885517997 24.5342214450547 2.1
vertex 20.9 23.7549981495186 2.1
endloop
endfacet
facet normal 0.5 0.866025403784438 0.0
outer loop
vertex 20.9 23.7549981495186 2.1
vertex 22.5154328932551 22.5154328932551 1.0
vertex 20.9 23.7549981495186 1.0
endloop
endfacet
facet normal 0.707106781186547 0.707106781186548 0.0
outer loop
vertex 22.5154328932551 22.5154328932551 1.0
vertex 20.9 23.7549981495186 2.1
vertex 22.5154328932551 22.5154328932551 2.1
endloop
endfacet
facet normal 0.707106781186547 0.707106781186548 0.0
outer loop
vertex 22.5154328932551 22.5154328932551 1.0
vertex 23.7549981495186 20.9 2.1
vertex 23.7549981495186 20.9 1.0
endloop
endfacet
facet normal 0.866025403784438 0.500000000000001 0.0
outer loop
vertex 23.7549981495186 20.9 2.1
vertex 22.5154328932551 22.5154328932551 1.0
vertex 22.5154328932551 22.5154328932551 2.1
endloop
endfacet
facet normal 0.866025403784438 0.500000000000001 0.0
outer loop
vertex 23.7549981495186 20.9 1.0
vertex 24.5342214450547 19.0187885517997 2.1
vertex 24.5342214450547 19.0187885517997 1.0
endloop
endfacet
facet normal 0.965925826289068 0.258819045102521 0.0
outer loop
vertex 24.5342214450547 19.0187885517997 2.1
vertex 23.7549981495186 20.9 1.0
vertex 23.7549981495186 20.9 2.1
endloop
endfacet
facet normal 0.965925826289068 0.258819045102521 0.0
outer loop
vertex 24.5342214450547 19.0187885517997 1.0
vertex 24.8 17.0 2.1
vertex 24.8 17.0 1.0
endloop
endfacet
facet normal 1.0 -3.65355505721523e-016 0.0
outer loop
vertex 24.8 17.0 2.1
vertex 24.5342214450547 19.0187885517997 1.0
vertex 24.5342214450547 19.0187885517997 2.1
endloop
endfacet
facet normal 1.0 -3.65355505721523e-016 0.0
outer loop
vertex 24.8 17.0 1.0
vertex 24.5342214450547 14.9812114482004 2.1
vertex 24.5342214450547 14.9812114482004 1.0
endloop
endfacet
facet normal 0.965925826289069 -0.25881904510252 0.0
outer loop
vertex 24.5342214450547 14.9812114482004 2.1
vertex 24.8 17.0 1.0
vertex 24.8 17.0 2.1
endloop
endfacet
facet normal 0.965925826289069 -0.25881904510252 0.0
outer loop
vertex 24.5342214450547 14.9812114482004 1.0
vertex 23.7549981495186 13.1 2.1
vertex 23.7549981495186 13.1 1.0
endloop
endfacet
facet normal 0.86602540378444 -0.499999999999999 0.0
outer loop
vertex 23.7549981495186 13.1 2.1
vertex 24.5342214450547 14.9812114482004 1.0
vertex 24.5342214450547 14.9812114482004 2.1
endloop
endfacet
facet normal 0.86602540378444 -0.499999999999999 0.0
outer loop
vertex 23.7549981495186 13.1 1.0
vertex 22.5154328932551 11.4845671067449 2.1
vertex 22.5154328932551 11.4845671067449 1.0
endloop
endfacet
facet normal 0.707106781186547 -0.707106781186548 0.0
outer loop
vertex 22.5154328932551 11.4845671067449 2.1
vertex 23.7549981495186 13.1 1.0
vertex 23.7549981495186 13.1 2.1
endloop
endfacet
facet normal 0.707106781186547 -0.707106781186548 0.0
outer loop
vertex 22.5154328932551 11.4845671067449 2.1
vertex 20.9 10.2450018504814 1.0
vertex 22.5154328932551 11.4845671067449 1.0
endloop
endfacet
facet normal 0.499999999999999 -0.866025403784439 0.0
outer loop
vertex 20.9 10.2450018504814 1.0
vertex 22.5154328932551 11.4845671067449 2.1
vertex 20.9 10.2450018504814 2.1
endloop
endfacet
facet normal 0.499999999999999 -0.866025403784439 0.0
outer loop
vertex 20.9 10.2450018504814 2.1
vertex 19.0187885517997 9.46577855494528 1.0
vertex 20.9 10.2450018504814 1.0
endloop
endfacet
facet normal 0.258819045102523 -0.965925826289068 0.0
outer loop
vertex 19.0187885517997 9.46577855494528 1.0
vertex 20.9 10.2450018504814 2.1
vertex 19.0187885517997 9.46577855494528 2.1
endloop
endfacet
facet normal 0.258819045102523 -0.965925826289068 0.0
outer loop
vertex 19.0187885517997 9.46577855494528 2.1
vertex 17.0 9.20000000000001 1.0
vertex 19.0187885517997 9.46577855494528 1.0
endloop
endfacet
facet normal 2.56639964994631e-015 -1.0 0.0
outer loop
vertex 17.0 9.20000000000001 1.0
vertex 19.0187885517997 9.46577855494528 2.1
vertex 17.0 9.20000000000001 2.1
endloop
endfacet
facet normal 2.56639964994631e-015 -1.0 0.0
outer loop
vertex 17.0 9.20000000000001 2.1
vertex 14.9812114482003 9.46577855494527 1.0
vertex 17.0 9.20000000000001 1.0
endloop
endfacet
facet normal -0.25881904510252 -0.965925826289068 0.0
outer loop
vertex 14.9812114482003 9.46577855494527 1.0
vertex 17.0 9.20000000000001 2.1
vertex 14.9812114482003 9.46577855494527 2.1
endloop
endfacet
facet normal -0.25881904510252 -0.965925826289068 0.0
outer loop
vertex 14.9812114482003 9.46577855494527 2.1
vertex 13.1 10.2450018504814 1.0
vertex 14.9812114482003 9.46577855494527 1.0
endloop
endfacet
facet normal -0.5 -0.866025403784438 0.0
outer loop
vertex 13.1 10.2450018504814 1.0
vertex 14.9812114482003 9.46577855494527 2.1
vertex 13.1 10.2450018504814 2.1
endloop
endfacet
facet normal 0.0 0.0 1.0
outer loop
vertex 9.46577855494527 14.9812114482003 2.1
vertex 9.46577855494527 19.0187885517997 2.1
vertex 9.20000000000001 17.0 2.1
endloop
endfacet
facet normal 0.0 0.0 1.0
outer loop
vertex 9.46577855494527 19.0187885517997 2.1
vertex 9.46577855494527 14.9812114482003 2.1
vertex 10.2450018504814 20.9 2.1
endloop
endfacet
facet normal 0.0 0.0 1.0
outer loop
vertex 10.2450018504814 20.9 2.1
vertex 9.46577855494527 14.9812114482003 2.1
vertex 10.2450018504814 13.1 2.1
endloop
endfacet
facet normal 0.0 0.0 1.0
outer loop
vertex 10.2450018504814 20.9 2.1
vertex 10.2450018504814 13.1 2.1
vertex 11.4845671067449 22.5154328932551 2.1
endloop
endfacet
facet normal 0.0 0.0 1.0
outer loop
vertex 11.4845671067449 22.5154328932551 2.1
vertex 10.2450018504814 13.1 2.1
vertex 11.4845671067449 11.4845671067449 2.1
endloop
endfacet
facet normal 0.0 0.0 1.0
outer loop
vertex 11.4845671067449 22.5154328932551 2.1
vertex 11.4845671067449 11.4845671067449 2.1
vertex 13.1 10.2450018504814 2.1
endloop
endfacet
facet normal 0.0 0.0 1.0
outer loop
vertex 11.4845671067449 22.5154328932551 2.1
vertex 13.1 10.2450018504814 2.1
vertex 13.1 23.7549981495186 2.1
endloop
endfacet
facet normal 0.0 0.0 1.0
outer loop
vertex 13.1 23.7549981495186 2.1
vertex 13.1 10.2450018504814 2.1
vertex 14.9812114482003 24.5342214450547 2.1
endloop
endfacet
facet normal 0.0 0.0 1.0
outer loop
vertex 14.9812114482003 24.5342214450547 2.1
vertex 13.1 10.2450018504814 2.1
vertex 14.9812114482003 9.46577855494527 2.1
endloop
endfacet
facet normal 0.0 0.0 1.0
outer loop
vertex 14.9812114482003 24.5342214450547 2.1
vertex 14.9812114482003 9.46577855494527 2.1
vertex 17.0 24.8 2.1
endloop
endfacet
facet normal 0.0 0.0 1.0
outer loop
vertex 17.0 24.8 2.1
vertex 14.9812114482003 9.46577855494527 2.1
vertex 17.0 9.20000000000001 2.1
endloop
endfacet
facet normal 0.0 0.0 1.0
outer loop
vertex 17.0 24.8 2.1
vertex 17.0 9.20000000000001 2.1
vertex 19.0187885517997 9.46577855494528 2.1
endloop
endfacet
facet normal 0.0 0.0 1.0
outer loop
vertex 17.0 24.8 2.1
vertex 19.0187885517997 9.46577855494528 2.1
vertex 19.0187885517997 24.5342214450547 2.1
endloop
endfacet
facet normal 0.0 0.0 1.0
outer loop
vertex 19.0187885517997 24.5342214450547 2.1
vertex 19.0187885517997 9.46577855494528 2.1
vertex 20.9 23.7549981495186 2.1
endloop
endfacet
facet normal 0.0 0.0 1.0
outer loop
vertex 20.9 23.7549981495186 2.1
vertex 19.0187885517997 9.46577855494528 2.1
vertex 20.9 10.2450018504814 2.1
endloop
endfacet
facet normal 0.0 0.0 1.0
outer loop
vertex 20.9 23.7549981495186 2.1
vertex 20.9 10.2450018504814 2.1
vertex 22.5154328932551 22.5154328932551 2.1
endloop
endfacet
facet normal 0.0 0.0 1.0
outer loop
vertex 22.5154328932551 22.5154328932551 2.1
vertex 20.9 10.2450018504814 2.1
vertex 22.5154328932551 11.4845671067449 2.1
endloop
endfacet
facet normal 0.0 0.0 1.0
outer loop
vertex 22.5154328932551 22.5154328932551 2.1
vertex 22.5154328932551 11.4845671067449 2.1
vertex 23.7549981495186 20.9 2.1
endloop
endfacet
facet normal 0.0 0.0 1.0
outer loop
vertex 23.7549981495186 20.9 2.1
vertex 22.5154328932551 11.4845671067449 2.1
vertex 23.7549981495186 13.1 2.1
endloop
endfacet
facet normal 0.0 0.0 1.0
outer loop
vertex 23.7549981495186 20.9 2.1
vertex 23.7549981495186 13.1 2.1
vertex 24.5342214450547 19.0187885517997 2.1
endloop
endfacet
facet normal 0.0 0.0 1.0
outer loop
vertex 24.5342214450547 19.0187885517997 2.1
vertex 23.7549981495186 13.1 2.1
vertex 24.5342214450547 14.9812114482004 2.1
endloop
endfacet
facet normal 0.0 0.0 1.0
outer loop
vertex 24.5342214450547 19.0187885517997 2.1
vertex 24.5342214450547 14.9812114482004 2.1
vertex 24.8 17.0 2.1
endloop
endfacet
endsolid Rueda externa
