solid Rueda superior
facet normal 0.0 0.0 -1.0
outer loop
vertex 0.579260953085843 21.3999237667428 0.0
vertex 0.579260953085837 12.6000762332571 0.0
vertex 0.0 17.0 0.0
endloop
endfacet
facet normal 0.0 0.0 -1.0
outer loop
vertex 0.579260953085837 12.6000762332571 0.0
vertex 0.579260953085843 21.3999237667428 0.0
vertex 2.27756813566453 8.50000000000001 0.0
endloop
endfacet
facet normal 0.0 0.0 -1.0
outer loop
vertex 2.27756813566453 8.50000000000001 0.0
vertex 0.579260953085843 21.3999237667428 0.0
vertex 2.27756813566455 25.5 0.0
endloop
endfacet
facet normal 0.0 0.0 -1.0
outer loop
vertex 2.27756813566453 8.50000000000001 0.0
vertex 2.27756813566455 25.5 0.0
vertex 4.97918471982869 4.9791847198287 0.0
endloop
endfacet
facet normal 0.0 0.0 -1.0
outer loop
vertex 4.97918471982869 4.9791847198287 0.0
vertex 2.27756813566455 25.5 0.0
vertex 4.9791847198287 29.0208152801713 0.0
endloop
endfacet
facet normal 0.0 0.0 -1.0
outer loop
vertex 4.97918471982869 4.9791847198287 0.0
vertex 4.9791847198287 29.0208152801713 0.0
vertex 8.49999999999999 2.27756813566455 0.0
endloop
endfacet
facet normal 0.0 0.0 -1.0
outer loop
vertex 8.49999999999999 2.27756813566455 0.0
vertex 4.9791847198287 29.0208152801713 0.0
vertex 8.5 31.7224318643355 0.0
endloop
endfacet
facet normal 0.0 0.0 -1.0
outer loop
vertex 8.49999999999999 2.27756813566455 0.0
vertex 8.5 31.7224318643355 0.0
vertex 12.6000762332571 0.579260953085845 0.0
endloop
endfacet
facet normal 0.0 0.0 -1.0
outer loop
vertex 12.6000762332571 0.579260953085845 0.0
vertex 8.5 31.7224318643355 0.0
vertex 12.6000762332571 33.4207390469141 0.0
endloop
endfacet
facet normal 0.0 0.0 -1.0
outer loop
vertex 12.6000762332571 0.579260953085845 0.0
vertex 12.6000762332571 33.4207390469141 0.0
vertex 17.0 0.0 0.0
endloop
endfacet
facet normal 0.0 0.0 -1.0
outer loop
vertex 17.0 0.0 0.0
vertex 12.6000762332571 33.4207390469141 0.0
vertex 17.0 34.0 0.0
endloop
endfacet
facet normal 0.0 0.0 -1.0
outer loop
vertex 17.0 0.0 0.0
vertex 17.0 34.0 0.0
vertex 21.3999237667428 0.579260953085845 0.0
endloop
endfacet
facet normal 0.0 0.0 -1.0
outer loop
vertex 21.3999237667428 0.579260953085845 0.0
vertex 17.0 34.0 0.0
vertex 21.3999237667428 33.4207390469141 0.0
endloop
endfacet
facet normal 0.0 0.0 -1.0
outer loop
vertex 21.3999237667428 0.579260953085845 0.0
vertex 21.3999237667428 33.4207390469141 0.0
vertex 25.5 2.27756813566453 0.0
endloop
endfacet
facet normal 0.0 0.0 -1.0
outer loop
vertex 25.5 2.27756813566453 0.0
vertex 21.3999237667428 33.4207390469141 0.0
vertex 25.5 31.7224318643354 0.0
endloop
endfacet
facet normal 0.0 0.0 -1.0
outer loop
vertex 25.5 2.27756813566453 0.0
vertex 25.5 31.7224318643354 0.0
vertex 29.0208152801713 29.0208152801713 0.0
endloop
endfacet
facet normal 0.0 0.0 -1.0
outer loop
vertex 25.5 2.27756813566453 0.0
vertex 29.0208152801713 29.0208152801713 0.0
vertex 29.0208152801713 4.9791847198287 0.0
endloop
endfacet
facet normal 0.0 0.0 -1.0
outer loop
vertex 29.0208152801713 4.9791847198287 0.0
vertex 29.0208152801713 29.0208152801713 0.0
vertex 31.7224318643354 25.5 0.0
endloop
endfacet
facet normal 0.0 0.0 -1.0
outer loop
vertex 29.0208152801713 4.9791847198287 0.0
vertex 31.7224318643354 25.5 0.0
vertex 31.7224318643354 8.49999999999998 0.0
endloop
endfacet
facet normal 0.0 0.0 -1.0
outer loop
vertex 31.7224318643354 8.49999999999998 0.0
vertex 31.7224318643354 25.5 0.0
vertex 33.4207390469141 21.3999237667428 0.0
endloop
endfacet
facet normal 0.0 0.0 -1.0
outer loop
vertex 31.7224318643354 8.49999999999998 0.0
vertex 33.4207390469141 21.3999237667428 0.0
vertex 33.4207390469141 12.6000762332571 0.0
endloop
endfacet
facet normal 0.0 0.0 -1.0
outer loop
vertex 33.4207390469141 12.6000762332571 0.0
vertex 33.4207390469141 21.3999237667428 0.0
vertex 34.0 17.0 0.0
endloop
endfacet
facet normal -0.258819045102522 -0.965925826289068 0.0
outer loop
vertex 12.6000762332571 0.579260953085845 1.0
vertex 8.49999999999999 2.27756813566455 0.0
vertex 12.6000762332571 0.579260953085845 0.0
endloop
endfacet
facet normal -0.500000000000001 -0.866025403784438 0.0
outer loop
vertex 8.49999999999999 2.27756813566455 0.0
vertex 12.6000762332571 0.579260953085845 1.0
vertex 8.49999999999999 2.27756813566455 1.0
endloop
endfacet
facet normal 1.87133307808585e-016 -1.0 0.0
outer loop
vertex 17.0 0.0 1.0
vertex 12.6000762332571 0.579260953085845 0.0
vertex 17.0 0.0 0.0
endloop
endfacet
facet normal -0.258819045102522 -0.965925826289068 0.0
outer loop
vertex 12.6000762332571 0.579260953085845 0.0
vertex 17.0 0.0 1.0
vertex 12.6000762332571 0.579260953085845 1.0
endloop
endfacet
facet normal 0.25881904510252 -0.965925826289069 0.0
outer loop
vertex 21.3999237667428 0.579260953085845 1.0
vertex 17.0 0.0 0.0
vertex 21.3999237667428 0.579260953085845 0.0
endloop
endfacet
facet normal 1.87133307808585e-016 -1.0 0.0
outer loop
vertex 17.0 0.0 0.0
vertex 21.3999237667428 0.579260953085845 1.0
vertex 17.0 0.0 1.0
endloop
endfacet
facet normal 0.5 -0.866025403784439 0.0
outer loop
vertex 25.5 2.27756813566453 1.0
vertex 21.3999237667428 0.579260953085845 0.0
vertex 25.5 2.27756813566453 0.0
endloop
endfacet
facet normal 0.25881904510252 -0.965925826289069 0.0
outer loop
vertex 21.3999237667428 0.579260953085845 0.0
vertex 25.5 2.27756813566453 1.0
vertex 21.3999237667428 0.579260953085845 1.0
endloop
endfacet
facet normal 0.707106781186548 -0.707106781186548 0.0
outer loop
vertex 29.0208152801713 4.9791847198287 1.0
vertex 25.5 2.27756813566453 0.0
vertex 29.0208152801713 4.9791847198287 0.0
endloop
endfacet
facet normal 0.5 -0.866025403784439 0.0
outer loop
vertex 25.5 2.27756813566453 0.0
vertex 29.0208152801713 4.9791847198287 1.0
vertex 25.5 2.27756813566453 1.0
endloop
endfacet
facet normal 0.866025403784438 -0.500000000000001 0.0
outer loop
vertex 31.7224318643354 8.49999999999998 0.0
vertex 29.0208152801713 4.9791847198287 1.0
vertex 29.0208152801713 4.9791847198287 0.0
endloop
endfacet
facet normal 0.707106781186548 -0.707106781186548 0.0
outer loop
vertex 29.0208152801713 4.9791847198287 1.0
vertex 31.7224318643354 8.49999999999998 0.0
vertex 31.7224318643354 8.49999999999998 1.0
endloop
endfacet
facet normal -0.965925826289068 -0.25881904510252 0.0
outer loop
vertex 0.579260953085837 12.6000762332571 1.0
vertex 2.27756813566453 8.50000000000001 0.0
vertex 2.27756813566453 8.50000000000001 1.0
endloop
endfacet
facet normal -0.866025403784438 -0.5 0.0
outer loop
vertex 2.27756813566453 8.50000000000001 0.0
vertex 0.579260953085837 12.6000762332571 1.0
vertex 0.579260953085837 12.6000762332571 0.0
endloop
endfacet
facet normal -1.0 6.23777692695283e-016 0.0
outer loop
vertex 0.0 17.0 1.0
vertex 0.579260953085837 12.6000762332571 0.0
vertex 0.579260953085837 12.6000762332571 1.0
endloop
endfacet
facet normal -0.965925826289068 -0.25881904510252 0.0
outer loop
vertex 0.579260953085837 12.6000762332571 0.0
vertex 0.0 17.0 1.0
vertex 0.0 17.0 0.0
endloop
endfacet
facet normal -0.965925826289068 0.258819045102521 0.0
outer loop
vertex 0.579260953085843 21.3999237667428 1.0
vertex 0.0 17.0 0.0
vertex 0.0 17.0 1.0
endloop
endfacet
facet normal -1.0 6.23777692695283e-016 0.0
outer loop
vertex 0.0 17.0 0.0
vertex 0.579260953085843 21.3999237667428 1.0
vertex 0.579260953085843 21.3999237667428 0.0
endloop
endfacet
facet normal -0.866025403784439 0.5 0.0
outer loop
vertex 2.27756813566455 25.5 1.0
vertex 0.579260953085843 21.3999237667428 0.0
vertex 0.579260953085843 21.3999237667428 1.0
endloop
endfacet
facet normal -0.965925826289068 0.258819045102521 0.0
outer loop
vertex 0.579260953085843 21.3999237667428 0.0
vertex 2.27756813566455 25.5 1.0
vertex 2.27756813566455 25.5 0.0
endloop
endfacet
facet normal 0.965925826289068 -0.25881904510252 0.0
outer loop
vertex 33.4207390469141 12.6000762332571 0.0
vertex 31.7224318643354 8.49999999999998 1.0
vertex 31.7224318643354 8.49999999999998 0.0
endloop
endfacet
facet normal 0.866025403784438 -0.500000000000001 0.0
outer loop
vertex 31.7224318643354 8.49999999999998 1.0
vertex 33.4207390469141 12.6000762332571 0.0
vertex 33.4207390469141 12.6000762332571 1.0
endloop
endfacet
facet normal 1.0 0.0 0.0
outer loop
vertex 34.0 17.0 0.0
vertex 33.4207390469141 12.6000762332571 1.0
vertex 33.4207390469141 12.6000762332571 0.0
endloop
endfacet
facet normal 0.965925826289068 -0.25881904510252 0.0
outer loop
vertex 33.4207390469141 12.6000762332571 1.0
vertex 34.0 17.0 0.0
vertex 34.0 17.0 1.0
endloop
endfacet
facet normal 0.965925826289068 0.258819045102521 0.0
outer loop
vertex 33.4207390469141 21.3999237667428 0.0
vertex 34.0 17.0 1.0
vertex 34.0 17.0 0.0
endloop
endfacet
facet normal 1.0 0.0 0.0
outer loop
vertex 34.0 17.0 1.0
vertex 33.4207390469141 21.3999237667428 0.0
vertex 33.4207390469141 21.3999237667428 1.0
endloop
endfacet
facet normal 0.866025403784439 0.5 0.0
outer loop
vertex 31.7224318643354 25.5 0.0
vertex 33.4207390469141 21.3999237667428 1.0
vertex 33.4207390469141 21.3999237667428 0.0
endloop
endfacet
facet normal 0.965925826289068 0.258819045102521 0.0
outer loop
vertex 33.4207390469141 21.3999237667428 1.0
vertex 31.7224318643354 25.5 0.0
vertex 31.7224318643354 25.5 1.0
endloop
endfacet
facet normal -0.866025403784438 -0.5 0.0
outer loop
vertex 2.27756813566453 8.50000000000001 1.0
vertex 4.97918471982869 4.9791847198287 0.0
vertex 4.97918471982869 4.9791847198287 1.0
endloop
endfacet
facet normal -0.707106781186547 -0.707106781186548 0.0
outer loop
vertex 4.97918471982869 4.9791847198287 0.0
vertex 2.27756813566453 8.50000000000001 1.0
vertex 2.27756813566453 8.50000000000001 0.0
endloop
endfacet
facet normal -0.500000000000001 -0.866025403784438 0.0
outer loop
vertex 8.49999999999999 2.27756813566455 1.0
vertex 4.97918471982869 4.9791847198287 0.0
vertex 8.49999999999999 2.27756813566455 0.0
endloop
endfacet
facet normal -0.707106781186547 -0.707106781186548 0.0
outer loop
vertex 4.97918471982869 4.9791847198287 0.0
vertex 8.49999999999999 2.27756813566455 1.0
vertex 4.97918471982869 4.9791847198287 1.0
endloop
endfacet
facet normal 0.707106781186547 0.707106781186548 0.0
outer loop
vertex 29.0208152801713 29.0208152801713 0.0
vertex 31.7224318643354 25.5 1.0
vertex 31.7224318643354 25.5 0.0
endloop
endfacet
facet normal 0.866025403784439 0.5 0.0
outer loop
vertex 31.7224318643354 25.5 1.0
vertex 29.0208152801713 29.0208152801713 0.0
vertex 29.0208152801713 29.0208152801713 1.0
endloop
endfacet
facet normal 0.500000000000001 0.866025403784438 0.0
outer loop
vertex 25.5 31.7224318643354 1.0
vertex 29.0208152801713 29.0208152801713 0.0
vertex 25.5 31.7224318643354 0.0
endloop
endfacet
facet normal 0.707106781186547 0.707106781186548 0.0
outer loop
vertex 29.0208152801713 29.0208152801713 0.0
vertex 25.5 31.7224318643354 1.0
vertex 29.0208152801713 29.0208152801713 1.0
endloop
endfacet
facet normal 0.258819045102522 0.965925826289068 0.0
outer loop
vertex 21.3999237667428 33.4207390469141 1.0
vertex 25.5 31.7224318643354 0.0
vertex 21.3999237667428 33.4207390469141 0.0
endloop
endfacet
facet normal 0.500000000000001 0.866025403784438 0.0
outer loop
vertex 25.5 31.7224318643354 0.0
vertex 21.3999237667428 33.4207390469141 1.0
vertex 25.5 31.7224318643354 1.0
endloop
endfacet
facet normal -8.01999890608221e-017 1.0 0.0
outer loop
vertex 17.0 34.0 1.0
vertex 21.3999237667428 33.4207390469141 0.0
vertex 17.0 34.0 0.0
endloop
endfacet
facet normal 0.258819045102522 0.965925826289068 0.0
outer loop
vertex 21.3999237667428 33.4207390469141 0.0
vertex 17.0 34.0 1.0
vertex 21.3999237667428 33.4207390469141 1.0
endloop
endfacet
facet normal -0.25881904510252 0.965925826289069 0.0
outer loop
vertex 12.6000762332571 33.4207390469141 1.0
vertex 17.0 34.0 0.0
vertex 12.6000762332571 33.4207390469141 0.0
endloop
endfacet
facet normal -8.01999890608221e-017 1.0 0.0
outer loop
vertex 17.0 34.0 0.0
vertex 12.6000762332571 33.4207390469141 1.0
vertex 17.0 34.0 1.0
endloop
endfacet
facet normal -0.499999999999998 0.866025403784439 0.0
outer loop
vertex 8.5 31.7224318643355 1.0
vertex 12.6000762332571 33.4207390469141 0.0
vertex 8.5 31.7224318643355 0.0
endloop
endfacet
facet normal -0.25881904510252 0.965925826289069 0.0
outer loop
vertex 12.6000762332571 33.4207390469141 0.0
vertex 8.5 31.7224318643355 1.0
vertex 12.6000762332571 33.4207390469141 1.0
endloop
endfacet
facet normal -0.707106781186547 0.707106781186548 0.0
outer loop
vertex 4.9791847198287 29.0208152801713 1.0
vertex 8.5 31.7224318643355 0.0
vertex 4.9791847198287 29.0208152801713 0.0
endloop
endfacet
facet normal -0.499999999999998 0.866025403784439 0.0
outer loop
vertex 8.5 31.7224318643355 0.0
vertex 4.9791847198287 29.0208152801713 1.0
vertex 8.5 31.7224318643355 1.0
endloop
endfacet
facet normal -0.707106781186547 0.707106781186548 0.0
outer loop
vertex 4.9791847198287 29.0208152801713 1.0
vertex 2.27756813566455 25.5 0.0
vertex 2.27756813566455 25.5 1.0
endloop
endfacet
facet normal -0.866025403784439 0.5 0.0
outer loop
vertex 2.27756813566455 25.5 0.0
vertex 4.9791847198287 29.0208152801713 1.0
vertex 4.9791847198287 29.0208152801713 0.0
endloop
endfacet
facet normal 4.82428552257683e-017 -7.46483489695666e-018 1.0
outer loop
vertex 21.3999237667428 0.579260953085845 1.0
vertex 17.0 1.5 1.0
vertex 17.0 0.0 1.0
endloop
endfacet
facet normal 4.82428552257683e-017 -7.46483489695666e-018 1.0
outer loop
vertex 17.0 1.5 1.0
vertex 21.3999237667428 0.579260953085845 1.0
vertex 20.7528761539866 1.99407551880851 1.0
endloop
endfacet
facet normal 4.82428552257683e-017 -7.46483489695666e-018 1.0
outer loop
vertex 20.7528761539866 1.99407551880851 1.0
vertex 21.3999237667428 0.579260953085845 1.0
vertex 24.25 3.44263164512564 1.0
endloop
endfacet
facet normal 4.82428552257683e-017 -7.46483489695666e-018 1.0
outer loop
vertex 24.25 3.44263164512564 1.0
vertex 21.3999237667428 0.579260953085845 1.0
vertex 25.5 2.27756813566453 1.0
endloop
endfacet
facet normal 4.82428552257683e-017 -7.46483489695666e-018 1.0
outer loop
vertex 24.25 3.44263164512564 1.0
vertex 25.5 2.27756813566453 1.0
vertex 27.2530483272049 5.74695167279505 1.0
endloop
endfacet
facet normal 4.82428552257683e-017 -7.46483489695666e-018 1.0
outer loop
vertex 27.2530483272049 5.74695167279505 1.0
vertex 25.5 2.27756813566453 1.0
vertex 29.0208152801713 4.9791847198287 1.0
endloop
endfacet
facet normal 4.82428552257683e-017 -7.46483489695666e-018 1.0
outer loop
vertex 27.2530483272049 5.74695167279505 1.0
vertex 29.0208152801713 4.9791847198287 1.0
vertex 29.5573683548744 8.74999999999999 1.0
endloop
endfacet
facet normal 4.82428552257683e-017 -7.46483489695666e-018 1.0
outer loop
vertex 29.5573683548744 8.74999999999999 1.0
vertex 29.0208152801713 4.9791847198287 1.0
vertex 31.7224318643354 8.49999999999998 1.0
endloop
endfacet
facet normal 4.82428552257683e-017 -7.46483489695666e-018 1.0
outer loop
vertex 29.5573683548744 8.74999999999999 1.0
vertex 31.7224318643354 8.49999999999998 1.0
vertex 31.0059244811915 12.2471238460135 1.0
endloop
endfacet
facet normal 4.82428552257683e-017 -7.46483489695666e-018 1.0
outer loop
vertex 31.0059244811915 12.2471238460135 1.0
vertex 31.7224318643354 8.49999999999998 1.0
vertex 31.5 16.0 1.0
endloop
endfacet
facet normal 4.82428552257683e-017 -7.46483489695666e-018 1.0
outer loop
vertex 20.7528761539865 30.0059244811915 1.0
vertex 17.0 32.5 1.0
vertex 17.0 30.5 1.0
endloop
endfacet
facet normal 4.82428552257683e-017 -7.46483489695666e-018 1.0
outer loop
vertex 17.0 32.5 1.0
vertex 20.7528761539865 30.0059244811915 1.0
vertex 17.0 34.0 1.0
endloop
endfacet
facet normal 4.82428552257683e-017 -7.46483489695666e-018 1.0
outer loop
vertex 17.0 34.0 1.0
vertex 20.7528761539865 30.0059244811915 1.0
vertex 21.3999237667428 33.4207390469141 1.0
endloop
endfacet
facet normal 4.82428552257683e-017 -7.46483489695666e-018 1.0
outer loop
vertex 21.3999237667428 33.4207390469141 1.0
vertex 20.7528761539865 30.0059244811915 1.0
vertex 24.25 28.5573683548743 1.0
endloop
endfacet
facet normal 4.82428552257683e-017 -7.46483489695666e-018 1.0
outer loop
vertex 21.3999237667428 33.4207390469141 1.0
vertex 24.25 28.5573683548743 1.0
vertex 25.5 31.7224318643354 1.0
endloop
endfacet
facet normal 4.82428552257683e-017 -7.46483489695666e-018 1.0
outer loop
vertex 25.5 31.7224318643354 1.0
vertex 24.25 28.5573683548743 1.0
vertex 27.2530483272049 26.2530483272049 1.0
endloop
endfacet
facet normal 4.82428552257683e-017 -7.46483489695666e-018 1.0
outer loop
vertex 25.5 31.7224318643354 1.0
vertex 27.2530483272049 26.2530483272049 1.0
vertex 29.0208152801713 29.0208152801713 1.0
endloop
endfacet
facet normal 4.82428552257683e-017 -7.46483489695666e-018 1.0
outer loop
vertex 29.0208152801713 29.0208152801713 1.0
vertex 27.2530483272049 26.2530483272049 1.0
vertex 29.5573683548743 23.25 1.0
endloop
endfacet
facet normal 4.82428552257683e-017 -7.46483489695666e-018 1.0
outer loop
vertex 29.0208152801713 29.0208152801713 1.0
vertex 29.5573683548743 23.25 1.0
vertex 31.7224318643354 25.5 1.0
endloop
endfacet
facet normal 4.82428552257683e-017 -7.46483489695666e-018 1.0
outer loop
vertex 31.7224318643354 25.5 1.0
vertex 29.5573683548743 23.25 1.0
vertex 31.0059244811915 19.7528761539866 1.0
endloop
endfacet
facet normal 4.82428552257683e-017 -7.46483489695666e-018 1.0
outer loop
vertex 31.7224318643354 25.5 1.0
vertex 31.0059244811915 19.7528761539866 1.0
vertex 31.3683475024126 17.0 1.0
endloop
endfacet
facet normal 4.82428552257683e-017 -7.46483489695666e-018 1.0
outer loop
vertex 31.7224318643354 25.5 1.0
vertex 31.3683475024126 17.0 1.0
vertex 31.5 16.0 1.0
endloop
endfacet
facet normal 4.82428552257683e-017 -7.46483489695666e-018 1.0
outer loop
vertex 31.7224318643354 25.5 1.0
vertex 31.5 16.0 1.0
vertex 31.7224318643354 8.49999999999998 1.0
endloop
endfacet
facet normal 4.82428552257683e-017 -7.46483489695666e-018 1.0
outer loop
vertex 31.7224318643354 25.5 1.0
vertex 31.7224318643354 8.49999999999998 1.0
vertex 33.4207390469141 12.6000762332571 1.0
endloop
endfacet
facet normal 4.82428552257683e-017 -7.46483489695666e-018 1.0
outer loop
vertex 31.7224318643354 25.5 1.0
vertex 33.4207390469141 12.6000762332571 1.0
vertex 33.4207390469141 21.3999237667428 1.0
endloop
endfacet
facet normal 4.82428552257683e-017 -7.46483489695666e-018 1.0
outer loop
vertex 33.4207390469141 21.3999237667428 1.0
vertex 33.4207390469141 12.6000762332571 1.0
vertex 34.0 17.0 1.0
endloop
endfacet
facet normal 4.82428552257683e-017 -7.46483489695666e-018 1.0
outer loop
vertex 2.27756813566455 25.5 1.0
vertex 2.9940755188085 21.7528761539865 1.0
vertex 4.9791847198287 29.0208152801713 1.0
endloop
endfacet
facet normal 4.82428552257683e-017 -7.46483489695666e-018 1.0
outer loop
vertex 2.9940755188085 21.7528761539865 1.0
vertex 2.27756813566455 25.5 1.0
vertex 2.5 18.0 1.0
endloop
endfacet
facet normal 4.82428552257683e-017 -7.46483489695666e-018 1.0
outer loop
vertex 4.9791847198287 29.0208152801713 1.0
vertex 2.9940755188085 21.7528761539865 1.0
vertex 4.44263164512563 25.25 1.0
endloop
endfacet
facet normal 4.82428552257683e-017 -7.46483489695666e-018 1.0
outer loop
vertex 4.9791847198287 29.0208152801713 1.0
vertex 4.44263164512563 25.25 1.0
vertex 6.74695167279505 28.2530483272049 1.0
endloop
endfacet
facet normal 4.82428552257683e-017 -7.46483489695666e-018 1.0
outer loop
vertex 4.9791847198287 29.0208152801713 1.0
vertex 6.74695167279505 28.2530483272049 1.0
vertex 8.5 31.7224318643355 1.0
endloop
endfacet
facet normal 4.82428552257683e-017 -7.46483489695666e-018 1.0
outer loop
vertex 8.5 31.7224318643355 1.0
vertex 6.74695167279505 28.2530483272049 1.0
vertex 9.74999999999999 30.5573683548743 1.0
endloop
endfacet
facet normal 4.82428552257683e-017 -7.46483489695666e-018 1.0
outer loop
vertex 8.5 31.7224318643355 1.0
vertex 9.74999999999999 30.5573683548743 1.0
vertex 12.6000762332571 33.4207390469141 1.0
endloop
endfacet
facet normal 4.82428552257683e-017 -7.46483489695666e-018 1.0
outer loop
vertex 12.6000762332571 33.4207390469141 1.0
vertex 9.74999999999999 30.5573683548743 1.0
vertex 13.2471238460134 32.0059244811915 1.0
endloop
endfacet
facet normal 4.82428552257683e-017 -7.46483489695666e-018 1.0
outer loop
vertex 12.6000762332571 33.4207390469141 1.0
vertex 13.2471238460134 32.0059244811915 1.0
vertex 17.0 34.0 1.0
endloop
endfacet
facet normal 4.82428552257683e-017 -7.46483489695666e-018 1.0
outer loop
vertex 17.0 34.0 1.0
vertex 13.2471238460134 32.0059244811915 1.0
vertex 17.0 32.5 1.0
endloop
endfacet
facet normal 4.82428552257683e-017 -7.46483489695666e-018 1.0
outer loop
vertex 0.579260953085837 12.6000762332571 1.0
vertex 0.579260953085843 21.3999237667428 1.0
vertex 0.0 17.0 1.0
endloop
endfacet
facet normal 4.82428552257683e-017 -7.46483489695666e-018 1.0
outer loop
vertex 0.579260953085843 21.3999237667428 1.0
vertex 0.579260953085837 12.6000762332571 1.0
vertex 2.27756813566453 8.50000000000001 1.0
endloop
endfacet
facet normal 4.82428552257683e-017 -7.46483489695666e-018 1.0
outer loop
vertex 0.579260953085843 21.3999237667428 1.0
vertex 2.27756813566453 8.50000000000001 1.0
vertex 2.27756813566455 25.5 1.0
endloop
endfacet
facet normal 4.82428552257683e-017 -7.46483489695666e-018 1.0
outer loop
vertex 2.27756813566455 25.5 1.0
vertex 2.27756813566453 8.50000000000001 1.0
vertex 2.5 18.0 1.0
endloop
endfacet
facet normal 4.82428552257683e-017 -7.46483489695666e-018 1.0
outer loop
vertex 2.5 18.0 1.0
vertex 2.27756813566453 8.50000000000001 1.0
vertex 2.63165249758739 17.0 1.0
endloop
endfacet
facet normal 4.82428552257683e-017 -7.46483489695666e-018 1.0
outer loop
vertex 2.63165249758739 17.0 1.0
vertex 2.27756813566453 8.50000000000001 1.0
vertex 2.99407551880851 14.2471238460134 1.0
endloop
endfacet
facet normal 4.82428552257683e-017 -7.46483489695666e-018 1.0
outer loop
vertex 2.99407551880851 14.2471238460134 1.0
vertex 2.27756813566453 8.50000000000001 1.0
vertex 4.97918471982869 4.9791847198287 1.0
endloop
endfacet
facet normal 4.82428552257683e-017 -7.46483489695666e-018 1.0
outer loop
vertex 2.99407551880851 14.2471238460134 1.0
vertex 4.97918471982869 4.9791847198287 1.0
vertex 4.44263164512564 10.75 1.0
endloop
endfacet
facet normal 4.82428552257683e-017 -7.46483489695666e-018 1.0
outer loop
vertex 4.44263164512564 10.75 1.0
vertex 4.97918471982869 4.9791847198287 1.0
vertex 6.74695167279506 7.74695167279505 1.0
endloop
endfacet
facet normal 4.82428552257683e-017 -7.46483489695666e-018 1.0
outer loop
vertex 6.74695167279506 7.74695167279505 1.0
vertex 4.97918471982869 4.9791847198287 1.0
vertex 8.49999999999999 2.27756813566455 1.0
endloop
endfacet
facet normal 4.82428552257683e-017 -7.46483489695666e-018 1.0
outer loop
vertex 6.74695167279506 7.74695167279505 1.0
vertex 8.49999999999999 2.27756813566455 1.0
vertex 9.75 5.44263164512564 1.0
endloop
endfacet
facet normal 4.82428552257683e-017 -7.46483489695666e-018 1.0
outer loop
vertex 9.75 5.44263164512564 1.0
vertex 8.49999999999999 2.27756813566455 1.0
vertex 12.6000762332571 0.579260953085845 1.0
endloop
endfacet
facet normal 4.82428552257683e-017 -7.46483489695666e-018 1.0
outer loop
vertex 9.75 5.44263164512564 1.0
vertex 12.6000762332571 0.579260953085845 1.0
vertex 13.2471238460134 3.99407551880851 1.0
endloop
endfacet
facet normal 4.82428552257683e-017 -7.46483489695666e-018 1.0
outer loop
vertex 13.2471238460134 3.99407551880851 1.0
vertex 12.6000762332571 0.579260953085845 1.0
vertex 17.0 0.0 1.0
endloop
endfacet
facet normal 4.82428552257683e-017 -7.46483489695666e-018 1.0
outer loop
vertex 13.2471238460134 3.99407551880851 1.0
vertex 17.0 0.0 1.0
vertex 17.0 1.5 1.0
endloop
endfacet
facet normal 4.82428552257683e-017 -7.46483489695666e-018 1.0
outer loop
vertex 13.2471238460134 3.99407551880851 1.0
vertex 17.0 1.5 1.0
vertex 17.0 3.49999999999999 1.0
endloop
endfacet
facet normal -0.258819045102521 -0.965925826289068 2.29234622120673e-017
outer loop
vertex 13.2471238460134 3.99407551880851 3.0
vertex 9.75 5.44263164512564 1.0
vertex 13.2471238460134 3.99407551880851 1.0
endloop
endfacet
facet normal -0.499999999999999 -0.866025403784439 4.88078404705241e-017
outer loop
vertex 9.75 5.44263164512564 1.0
vertex 13.2471238460134 3.99407551880851 3.0
vertex 9.75 5.44263164512564 3.0
endloop
endfacet
facet normal -0.130526192220053 -0.99144486137381 9.27956299720054e-018
outer loop
vertex 17.0 3.49999999999999 3.0
vertex 13.2471238460134 3.99407551880851 1.0
vertex 17.0 3.49999999999999 1.0
endloop
endfacet
facet normal -0.258819045102521 -0.965925826289068 2.29234622120673e-017
outer loop
vertex 13.2471238460134 3.99407551880851 1.0
vertex 17.0 3.49999999999999 3.0
vertex 13.2471238460134 3.99407551880851 3.0
endloop
endfacet
facet normal -1.0 1.40998324127395e-015 1.05449940929665e-016
outer loop
vertex 17.0 3.49999999999999 3.0
vertex 17.0 1.5 1.0
vertex 17.0 1.5 3.0
endloop
endfacet
facet normal -1.0 1.40998324127395e-015 1.05449940929665e-016
outer loop
vertex 17.0 1.5 1.0
vertex 17.0 3.49999999999999 3.0
vertex 17.0 3.49999999999999 1.0
endloop
endfacet
facet normal 0.258819045102521 -0.965925826289068 -3.1661443822999e-017
outer loop
vertex 20.7528761539866 1.99407551880851 3.0
vertex 17.0 1.5 1.0
vertex 20.7528761539866 1.99407551880851 1.0
endloop
endfacet
facet normal 0.130526192220052 -0.99144486137381 -1.82483955215568e-017
outer loop
vertex 17.0 1.5 1.0
vertex 20.7528761539866 1.99407551880851 3.0
vertex 17.0 1.5 3.0
endloop
endfacet
facet normal 0.5 -0.866025403784439 -5.6642100459141e-017
outer loop
vertex 24.25 3.44263164512564 3.0
vertex 20.7528761539866 1.99407551880851 1.0
vertex 24.25 3.44263164512564 1.0
endloop
endfacet
facet normal 0.258819045102521 -0.965925826289068 -3.1661443822999e-017
outer loop
vertex 20.7528761539866 1.99407551880851 1.0
vertex 24.25 3.44263164512564 3.0
vertex 20.7528761539866 1.99407551880851 3.0
endloop
endfacet
facet normal 0.707106781186547 -0.707106781186548 -7.77626915544894e-017
outer loop
vertex 27.2530483272049 5.74695167279505 3.0
vertex 24.25 3.44263164512564 1.0
vertex 27.2530483272049 5.74695167279505 1.0
endloop
endfacet
facet normal 0.5 -0.866025403784439 -5.6642100459141e-017
outer loop
vertex 24.25 3.44263164512564 1.0
vertex 27.2530483272049 5.74695167279505 3.0
vertex 24.25 3.44263164512564 3.0
endloop
endfacet
facet normal 0.866025403784439 -0.499999999999999 -9.35838837293233e-017
outer loop
vertex 29.5573683548744 8.74999999999999 1.0
vertex 27.2530483272049 5.74695167279505 3.0
vertex 27.2530483272049 5.74695167279505 1.0
endloop
endfacet
facet normal 0.707106781186547 -0.707106781186548 -7.77626915544894e-017
outer loop
vertex 27.2530483272049 5.74695167279505 3.0
vertex 29.5573683548744 8.74999999999999 1.0
vertex 29.5573683548744 8.74999999999999 3.0
endloop
endfacet
facet normal 0.965925826289069 -0.25881904510252 -1.03027488882684e-016
outer loop
vertex 31.0059244811915 12.2471238460135 1.0
vertex 29.5573683548744 8.74999999999999 3.0
vertex 29.5573683548744 8.74999999999999 1.0
endloop
endfacet
facet normal 0.866025403784439 -0.499999999999999 -9.35838837293233e-017
outer loop
vertex 29.5573683548744 8.74999999999999 3.0
vertex 31.0059244811915 12.2471238460135 1.0
vertex 31.0059244811915 12.2471238460135 3.0
endloop
endfacet
facet normal 1.0 -1.78222197912938e-016 -1.05449940929665e-016
outer loop
vertex 31.5 16.0 1.0
vertex 31.0059244811915 12.2471238460135 3.0
vertex 31.0059244811915 12.2471238460135 1.0
endloop
endfacet
facet normal 0.965925826289069 -0.25881904510252 -1.03027488882684e-016
outer loop
vertex 31.0059244811915 12.2471238460135 3.0
vertex 31.5 16.0 1.0
vertex 31.5 16.0 3.0
endloop
endfacet
facet normal 0.99144486137381 0.130526192220053 -1.03957417465751e-016
outer loop
vertex 31.3683475024126 17.0 1.0
vertex 31.5 16.0 3.0
vertex 31.5 16.0 1.0
endloop
endfacet
facet normal 1.0 -6.23777692695283e-017 -1.05449940929665e-016
outer loop
vertex 31.5 16.0 3.0
vertex 31.3683475024126 17.0 1.0
vertex 31.3683475024126 17.0 3.0
endloop
endfacet
facet normal -0.499999999999999 -0.866025403784439 4.88078404705241e-017
outer loop
vertex 9.75 5.44263164512564 3.0
vertex 6.74695167279506 7.74695167279505 1.0
vertex 9.75 5.44263164512564 1.0
endloop
endfacet
facet normal -0.707106781186547 -0.707106781186548 7.13660450596848e-017
outer loop
vertex 6.74695167279506 7.74695167279505 1.0
vertex 9.75 5.44263164512564 3.0
vertex 6.74695167279506 7.74695167279505 3.0
endloop
endfacet
facet normal -0.866025403784439 -0.5 8.90607716159937e-017
outer loop
vertex 4.44263164512564 10.75 3.0
vertex 6.74695167279506 7.74695167279505 1.0
vertex 6.74695167279506 7.74695167279505 3.0
endloop
endfacet
facet normal -0.707106781186547 -0.707106781186548 7.13660450596848e-017
outer loop
vertex 6.74695167279506 7.74695167279505 1.0
vertex 4.44263164512564 10.75 3.0
vertex 4.44263164512564 10.75 1.0
endloop
endfacet
facet normal -0.965925826289068 -0.258819045102522 1.00686153766557e-016
outer loop
vertex 2.99407551880851 14.2471238460134 3.0
vertex 4.44263164512564 10.75 1.0
vertex 4.44263164512564 10.75 3.0
endloop
endfacet
facet normal -0.866025403784439 -0.5 8.90607716159937e-017
outer loop
vertex 4.44263164512564 10.75 1.0
vertex 2.99407551880851 14.2471238460134 3.0
vertex 2.99407551880851 14.2471238460134 1.0
endloop
endfacet
facet normal -0.99144486137381 -0.130526192220052 1.03957417465751e-016
outer loop
vertex 2.63165249758739 17.0 3.0
vertex 2.99407551880851 14.2471238460134 1.0
vertex 2.99407551880851 14.2471238460134 3.0
endloop
endfacet
facet normal -0.965925826289068 -0.258819045102522 1.00686153766557e-016
outer loop
vertex 2.99407551880851 14.2471238460134 1.0
vertex 2.63165249758739 17.0 3.0
vertex 2.63165249758739 17.0 1.0
endloop
endfacet
facet normal -1.0 -2.22777747391173e-016 1.05449940929665e-016
outer loop
vertex 2.5 18.0 3.0
vertex 2.63165249758739 17.0 1.0
vertex 2.63165249758739 17.0 3.0
endloop
endfacet
facet normal -0.99144486137381 -0.130526192220052 1.03957417465751e-016
outer loop
vertex 2.63165249758739 17.0 1.0
vertex 2.5 18.0 3.0
vertex 2.5 18.0 1.0
endloop
endfacet
facet normal -0.965925826289069 0.25881904510252 1.03027488882684e-016
outer loop
vertex 2.9940755188085 21.7528761539865 3.0
vertex 2.5 18.0 1.0
vertex 2.5 18.0 3.0
endloop
endfacet
facet normal -1.0 -3.38622176034582e-016 1.05449940929665e-016
outer loop
vertex 2.5 18.0 1.0
vertex 2.9940755188085 21.7528761539865 3.0
vertex 2.9940755188085 21.7528761539865 1.0
endloop
endfacet
facet normal -0.866025403784439 0.499999999999999 9.35838837293233e-017
outer loop
vertex 4.44263164512563 25.25 3.0
vertex 2.9940755188085 21.7528761539865 1.0
vertex 2.9940755188085 21.7528761539865 3.0
endloop
endfacet
facet normal -0.965925826289069 0.25881904510252 1.03027488882684e-016
outer loop
vertex 2.9940755188085 21.7528761539865 1.0
vertex 4.44263164512563 25.25 3.0
vertex 4.44263164512563 25.25 1.0
endloop
endfacet
facet normal -0.707106781186547 0.707106781186548 7.77626915544893e-017
outer loop
vertex 6.74695167279505 28.2530483272049 3.0
vertex 4.44263164512563 25.25 1.0
vertex 4.44263164512563 25.25 3.0
endloop
endfacet
facet normal -0.866025403784439 0.499999999999999 9.35838837293233e-017
outer loop
vertex 4.44263164512563 25.25 1.0
vertex 6.74695167279505 28.2530483272049 3.0
vertex 6.74695167279505 28.2530483272049 1.0
endloop
endfacet
facet normal -0.707106781186547 0.707106781186548 7.77626915544893e-017
outer loop
vertex 6.74695167279505 28.2530483272049 3.0
vertex 9.74999999999999 30.5573683548743 1.0
vertex 6.74695167279505 28.2530483272049 1.0
endloop
endfacet
facet normal -0.5 0.866025403784439 5.6642100459141e-017
outer loop
vertex 9.74999999999999 30.5573683548743 1.0
vertex 6.74695167279505 28.2530483272049 3.0
vertex 9.74999999999999 30.5573683548743 3.0
endloop
endfacet
facet normal -0.5 0.866025403784439 5.6642100459141e-017
outer loop
vertex 9.74999999999999 30.5573683548743 3.0
vertex 13.2471238460134 32.0059244811915 1.0
vertex 9.74999999999999 30.5573683548743 1.0
endloop
endfacet
facet normal -0.258819045102521 0.965925826289068 3.1661443822999e-017
outer loop
vertex 13.2471238460134 32.0059244811915 1.0
vertex 9.74999999999999 30.5573683548743 3.0
vertex 13.2471238460134 32.0059244811915 3.0
endloop
endfacet
facet normal -0.258819045102521 0.965925826289068 3.1661443822999e-017
outer loop
vertex 13.2471238460134 32.0059244811915 3.0
vertex 17.0 32.5 1.0
vertex 13.2471238460134 32.0059244811915 1.0
endloop
endfacet
facet normal -0.130526192220052 0.99144486137381 1.82483955215568e-017
outer loop
vertex 17.0 32.5 1.0
vertex 13.2471238460134 32.0059244811915 3.0
vertex 17.0 32.5 3.0
endloop
endfacet
facet normal 1.0 -1.40998324127395e-015 -1.05449940929665e-016
outer loop
vertex 17.0 32.5 1.0
vertex 17.0 30.5 3.0
vertex 17.0 30.5 1.0
endloop
endfacet
facet normal 1.0 -1.40998324127395e-015 -1.05449940929665e-016
outer loop
vertex 17.0 30.5 3.0
vertex 17.0 32.5 1.0
vertex 17.0 32.5 3.0
endloop
endfacet
facet normal 0.130526192220053 0.99144486137381 -9.27956299720054e-018
outer loop
vertex 17.0 30.5 3.0
vertex 20.7528761539865 30.0059244811915 1.0
vertex 17.0 30.5 1.0
endloop
endfacet
facet normal 0.258819045102521 0.965925826289068 -2.29234622120673e-017
outer loop
vertex 20.7528761539865 30.0059244811915 1.0
vertex 17.0 30.5 3.0
vertex 20.7528761539865 30.0059244811915 3.0
endloop
endfacet
facet normal 1.05449940929665e-016 -4.52311211332946e-018 1.0
outer loop
vertex 20.7528761539866 1.99407551880851 3.0
vertex 17.0 3.49999999999999 3.0
vertex 17.0 1.5 3.0
endloop
endfacet
facet normal 1.05449940929665e-016 -4.52311211332946e-018 1.0
outer loop
vertex 17.0 3.49999999999999 3.0
vertex 20.7528761539866 1.99407551880851 3.0
vertex 20.7528761539865 30.0059244811915 3.0
endloop
endfacet
facet normal 1.05449940929665e-016 -4.52311211332946e-018 1.0
outer loop
vertex 20.7528761539865 30.0059244811915 3.0
vertex 20.7528761539866 1.99407551880851 3.0
vertex 24.25 28.5573683548743 3.0
endloop
endfacet
facet normal 1.05449940929665e-016 -4.52311211332946e-018 1.0
outer loop
vertex 24.25 28.5573683548743 3.0
vertex 20.7528761539866 1.99407551880851 3.0
vertex 24.25 3.44263164512564 3.0
endloop
endfacet
facet normal 1.05449940929665e-016 -4.52311211332946e-018 1.0
outer loop
vertex 24.25 28.5573683548743 3.0
vertex 24.25 3.44263164512564 3.0
vertex 27.2530483272049 26.2530483272049 3.0
endloop
endfacet
facet normal 1.05449940929665e-016 -4.52311211332946e-018 1.0
outer loop
vertex 27.2530483272049 26.2530483272049 3.0
vertex 24.25 3.44263164512564 3.0
vertex 27.2530483272049 5.74695167279505 3.0
endloop
endfacet
facet normal 1.05449940929665e-016 -4.52311211332946e-018 1.0
outer loop
vertex 27.2530483272049 26.2530483272049 3.0
vertex 27.2530483272049 5.74695167279505 3.0
vertex 29.5573683548743 23.25 3.0
endloop
endfacet
facet normal 1.05449940929665e-016 -4.52311211332946e-018 1.0
outer loop
vertex 29.5573683548743 23.25 3.0
vertex 27.2530483272049 5.74695167279505 3.0
vertex 29.5573683548744 8.74999999999999 3.0
endloop
endfacet
facet normal 1.05449940929665e-016 -4.52311211332946e-018 1.0
outer loop
vertex 29.5573683548743 23.25 3.0
vertex 29.5573683548744 8.74999999999999 3.0
vertex 31.0059244811915 19.7528761539866 3.0
endloop
endfacet
facet normal 1.05449940929665e-016 -4.52311211332946e-018 1.0
outer loop
vertex 31.0059244811915 19.7528761539866 3.0
vertex 29.5573683548744 8.74999999999999 3.0
vertex 31.0059244811915 12.2471238460135 3.0
endloop
endfacet
facet normal 1.05449940929665e-016 -4.52311211332946e-018 1.0
outer loop
vertex 31.0059244811915 19.7528761539866 3.0
vertex 31.0059244811915 12.2471238460135 3.0
vertex 31.5 16.0 3.0
endloop
endfacet
facet normal 1.05449940929665e-016 -4.52311211332946e-018 1.0
outer loop
vertex 31.0059244811915 19.7528761539866 3.0
vertex 31.5 16.0 3.0
vertex 31.3683475024126 17.0 3.0
endloop
endfacet
facet normal 1.05449940929665e-016 -4.52311211332946e-018 1.0
outer loop
vertex 17.0 3.49999999999999 3.0
vertex 17.0 30.5 3.0
vertex 13.2471238460134 3.99407551880851 3.0
endloop
endfacet
facet normal 1.05449940929665e-016 -4.52311211332946e-018 1.0
outer loop
vertex 17.0 30.5 3.0
vertex 17.0 3.49999999999999 3.0
vertex 20.7528761539865 30.0059244811915 3.0
endloop
endfacet
facet normal 1.05449940929665e-016 -4.52311211332946e-018 1.0
outer loop
vertex 2.63165249758739 17.0 3.0
vertex 2.9940755188085 21.7528761539865 3.0
vertex 2.5 18.0 3.0
endloop
endfacet
facet normal 1.05449940929665e-016 -4.52311211332946e-018 1.0
outer loop
vertex 2.9940755188085 21.7528761539865 3.0
vertex 2.63165249758739 17.0 3.0
vertex 2.99407551880851 14.2471238460134 3.0
endloop
endfacet
facet normal 1.05449940929665e-016 -4.52311211332946e-018 1.0
outer loop
vertex 2.9940755188085 21.7528761539865 3.0
vertex 2.99407551880851 14.2471238460134 3.0
vertex 4.44263164512563 25.25 3.0
endloop
endfacet
facet normal 1.05449940929665e-016 -4.52311211332946e-018 1.0
outer loop
vertex 4.44263164512563 25.25 3.0
vertex 2.99407551880851 14.2471238460134 3.0
vertex 4.44263164512564 10.75 3.0
endloop
endfacet
facet normal 1.05449940929665e-016 -4.52311211332946e-018 1.0
outer loop
vertex 4.44263164512563 25.25 3.0
vertex 4.44263164512564 10.75 3.0
vertex 6.74695167279505 28.2530483272049 3.0
endloop
endfacet
facet normal 1.05449940929665e-016 -4.52311211332946e-018 1.0
outer loop
vertex 6.74695167279505 28.2530483272049 3.0
vertex 4.44263164512564 10.75 3.0
vertex 6.74695167279506 7.74695167279505 3.0
endloop
endfacet
facet normal 1.05449940929665e-016 -4.52311211332946e-018 1.0
outer loop
vertex 6.74695167279505 28.2530483272049 3.0
vertex 6.74695167279506 7.74695167279505 3.0
vertex 9.74999999999999 30.5573683548743 3.0
endloop
endfacet
facet normal 1.05449940929665e-016 -4.52311211332946e-018 1.0
outer loop
vertex 9.74999999999999 30.5573683548743 3.0
vertex 6.74695167279506 7.74695167279505 3.0
vertex 9.75 5.44263164512564 3.0
endloop
endfacet
facet normal 1.05449940929665e-016 -4.52311211332946e-018 1.0
outer loop
vertex 9.74999999999999 30.5573683548743 3.0
vertex 9.75 5.44263164512564 3.0
vertex 13.2471238460134 32.0059244811915 3.0
endloop
endfacet
facet normal 1.05449940929665e-016 -4.52311211332946e-018 1.0
outer loop
vertex 13.2471238460134 32.0059244811915 3.0
vertex 9.75 5.44263164512564 3.0
vertex 13.2471238460134 3.99407551880851 3.0
endloop
endfacet
facet normal 1.05449940929665e-016 -4.52311211332946e-018 1.0
outer loop
vertex 13.2471238460134 32.0059244811915 3.0
vertex 13.2471238460134 3.99407551880851 3.0
vertex 17.0 32.5 3.0
endloop
endfacet
facet normal 1.05449940929665e-016 -4.52311211332946e-018 1.0
outer loop
vertex 17.0 32.5 3.0
vertex 13.2471238460134 3.99407551880851 3.0
vertex 17.0 30.5 3.0
endloop
endfacet
facet normal 0.258819045102521 0.965925826289068 -2.29234622120673e-017
outer loop
vertex 20.7528761539865 30.0059244811915 3.0
vertex 24.25 28.5573683548743 1.0
vertex 20.7528761539865 30.0059244811915 1.0
endloop
endfacet
facet normal 0.499999999999999 0.866025403784439 -4.8807840470524e-017
outer loop
vertex 24.25 28.5573683548743 1.0
vertex 20.7528761539865 30.0059244811915 3.0
vertex 24.25 28.5573683548743 3.0
endloop
endfacet
facet normal 0.499999999999999 0.866025403784439 -4.8807840470524e-017
outer loop
vertex 24.25 28.5573683548743 3.0
vertex 27.2530483272049 26.2530483272049 1.0
vertex 24.25 28.5573683548743 1.0
endloop
endfacet
facet normal 0.707106781186547 0.707106781186548 -7.13660450596848e-017
outer loop
vertex 27.2530483272049 26.2530483272049 1.0
vertex 24.25 28.5573683548743 3.0
vertex 27.2530483272049 26.2530483272049 3.0
endloop
endfacet
facet normal 0.707106781186547 0.707106781186548 -7.13660450596848e-017
outer loop
vertex 27.2530483272049 26.2530483272049 1.0
vertex 29.5573683548743 23.25 3.0
vertex 29.5573683548743 23.25 1.0
endloop
endfacet
facet normal 0.866025403784438 0.5 -8.90607716159937e-017
outer loop
vertex 29.5573683548743 23.25 3.0
vertex 27.2530483272049 26.2530483272049 1.0
vertex 27.2530483272049 26.2530483272049 3.0
endloop
endfacet
facet normal 0.866025403784438 0.5 -8.90607716159937e-017
outer loop
vertex 29.5573683548743 23.25 1.0
vertex 31.0059244811915 19.7528761539866 3.0
vertex 31.0059244811915 19.7528761539866 1.0
endloop
endfacet
facet normal 0.965925826289068 0.258819045102522 -1.00686153766557e-016
outer loop
vertex 31.0059244811915 19.7528761539866 3.0
vertex 29.5573683548743 23.25 1.0
vertex 29.5573683548743 23.25 3.0
endloop
endfacet
facet normal 0.965925826289068 0.258819045102522 -1.00686153766557e-016
outer loop
vertex 31.0059244811915 19.7528761539866 1.0
vertex 31.3683475024126 17.0 3.0
vertex 31.3683475024126 17.0 1.0
endloop
endfacet
facet normal 0.99144486137381 0.130526192220052 -1.03957417465751e-016
outer loop
vertex 31.3683475024126 17.0 3.0
vertex 31.0059244811915 19.7528761539866 1.0
vertex 31.0059244811915 19.7528761539866 3.0
endloop
endfacet
endsolid Rueda superior
