solid Rueda superior
facet normal 0.0 0.0 -1.0
outer loop
vertex 17.0 34.0 0.0
vertex 16.5014476183493 16.9619799690895 0.0
vertex 12.6000762332571 33.4207390469141 0.0
endloop
endfacet
facet normal 0.0 0.0 -1.0
outer loop
vertex 16.5014476183493 16.9619799690895 0.0
vertex 17.0 34.0 0.0
vertex 16.5085950707107 17.0923103215797 0.0
endloop
endfacet
facet normal 0.0 0.0 -1.0
outer loop
vertex 16.5085950707107 17.0923103215797 0.0
vertex 17.0 34.0 0.0
vertex 16.549230956918 17.2163498782042 0.0
endloop
endfacet
facet normal 0.0 0.0 -1.0
outer loop
vertex 16.549230956918 17.2163498782042 0.0
vertex 17.0 34.0 0.0
vertex 16.6205860084804 17.3256455481642 0.0
endloop
endfacet
facet normal 0.0 0.0 -1.0
outer loop
vertex 16.6205860084804 17.3256455481642 0.0
vertex 17.0 34.0 0.0
vertex 16.7177974965535 17.4127490121715 0.0
endloop
endfacet
facet normal 0.0 0.0 -1.0
outer loop
vertex 16.7177974965535 17.4127490121715 0.0
vertex 17.0 34.0 0.0
vertex 16.8342406188748 17.4717243130993 0.0
endloop
endfacet
facet normal 0.0 0.0 -1.0
outer loop
vertex 16.8342406188748 17.4717243130993 0.0
vertex 17.0 34.0 0.0
vertex 16.9619799690895 17.4985523816507 0.0
endloop
endfacet
facet normal 0.0 0.0 -1.0
outer loop
vertex 16.9619799690895 17.4985523816507 0.0
vertex 17.0 34.0 0.0
vertex 17.0923103215797 17.4914049292893 0.0
endloop
endfacet
facet normal 0.0 0.0 -1.0
outer loop
vertex 17.0923103215797 17.4914049292893 0.0
vertex 17.0 34.0 0.0
vertex 21.3999237667428 33.4207390469141 0.0
endloop
endfacet
facet normal 0.0 0.0 -1.0
outer loop
vertex 17.0923103215797 17.4914049292893 0.0
vertex 21.3999237667428 33.4207390469141 0.0
vertex 17.2163498782042 17.450769043082 0.0
endloop
endfacet
facet normal 0.0 0.0 -1.0
outer loop
vertex 17.2163498782042 17.450769043082 0.0
vertex 21.3999237667428 33.4207390469141 0.0
vertex 17.3256455481642 17.3794139915196 0.0
endloop
endfacet
facet normal 0.0 0.0 -1.0
outer loop
vertex 17.3256455481642 17.3794139915196 0.0
vertex 21.3999237667428 33.4207390469141 0.0
vertex 17.4127490121715 17.2822025034465 0.0
endloop
endfacet
facet normal 0.0 0.0 -1.0
outer loop
vertex 17.4127490121715 17.2822025034465 0.0
vertex 21.3999237667428 33.4207390469141 0.0
vertex 17.4717243130993 17.1657593811251 0.0
endloop
endfacet
facet normal 0.0 0.0 -1.0
outer loop
vertex 17.4717243130993 17.1657593811251 0.0
vertex 21.3999237667428 33.4207390469141 0.0
vertex 17.4985523816507 17.0380200309105 0.0
endloop
endfacet
facet normal 0.0 0.0 -1.0
outer loop
vertex 17.4985523816507 17.0380200309105 0.0
vertex 21.3999237667428 33.4207390469141 0.0
vertex 21.3999237667428 0.579260953085845 0.0
endloop
endfacet
facet normal 0.0 0.0 -1.0
outer loop
vertex 21.3999237667428 0.579260953085845 0.0
vertex 21.3999237667428 33.4207390469141 0.0
vertex 25.5 2.27756813566453 0.0
endloop
endfacet
facet normal 0.0 0.0 -1.0
outer loop
vertex 25.5 2.27756813566453 0.0
vertex 21.3999237667428 33.4207390469141 0.0
vertex 25.5 31.7224318643354 0.0
endloop
endfacet
facet normal 0.0 0.0 -1.0
outer loop
vertex 25.5 2.27756813566453 0.0
vertex 25.5 31.7224318643354 0.0
vertex 29.0208152801713 29.0208152801713 0.0
endloop
endfacet
facet normal 0.0 0.0 -1.0
outer loop
vertex 25.5 2.27756813566453 0.0
vertex 29.0208152801713 29.0208152801713 0.0
vertex 29.0208152801713 4.9791847198287 0.0
endloop
endfacet
facet normal 0.0 0.0 -1.0
outer loop
vertex 29.0208152801713 4.9791847198287 0.0
vertex 29.0208152801713 29.0208152801713 0.0
vertex 31.7224318643354 25.5 0.0
endloop
endfacet
facet normal 0.0 0.0 -1.0
outer loop
vertex 29.0208152801713 4.9791847198287 0.0
vertex 31.7224318643354 25.5 0.0
vertex 31.7224318643354 8.49999999999998 0.0
endloop
endfacet
facet normal 0.0 0.0 -1.0
outer loop
vertex 31.7224318643354 8.49999999999998 0.0
vertex 31.7224318643354 25.5 0.0
vertex 33.4207390469141 21.3999237667428 0.0
endloop
endfacet
facet normal 0.0 0.0 -1.0
outer loop
vertex 31.7224318643354 8.49999999999998 0.0
vertex 33.4207390469141 21.3999237667428 0.0
vertex 33.4207390469141 12.6000762332571 0.0
endloop
endfacet
facet normal 0.0 0.0 -1.0
outer loop
vertex 33.4207390469141 12.6000762332571 0.0
vertex 33.4207390469141 21.3999237667428 0.0
vertex 34.0 17.0 0.0
endloop
endfacet
facet normal 0.0 0.0 -1.0
outer loop
vertex 0.579260953085843 21.3999237667428 0.0
vertex 0.579260953085837 12.6000762332571 0.0
vertex 0.0 17.0 0.0
endloop
endfacet
facet normal 0.0 0.0 -1.0
outer loop
vertex 0.579260953085837 12.6000762332571 0.0
vertex 0.579260953085843 21.3999237667428 0.0
vertex 2.27756813566453 8.50000000000001 0.0
endloop
endfacet
facet normal 0.0 0.0 -1.0
outer loop
vertex 2.27756813566453 8.50000000000001 0.0
vertex 0.579260953085843 21.3999237667428 0.0
vertex 2.27756813566455 25.5 0.0
endloop
endfacet
facet normal 0.0 0.0 -1.0
outer loop
vertex 2.27756813566453 8.50000000000001 0.0
vertex 2.27756813566455 25.5 0.0
vertex 4.97918471982869 4.9791847198287 0.0
endloop
endfacet
facet normal 0.0 0.0 -1.0
outer loop
vertex 4.97918471982869 4.9791847198287 0.0
vertex 2.27756813566455 25.5 0.0
vertex 4.9791847198287 29.0208152801713 0.0
endloop
endfacet
facet normal 0.0 0.0 -1.0
outer loop
vertex 4.97918471982869 4.9791847198287 0.0
vertex 4.9791847198287 29.0208152801713 0.0
vertex 8.49999999999999 2.27756813566455 0.0
endloop
endfacet
facet normal 0.0 0.0 -1.0
outer loop
vertex 8.49999999999999 2.27756813566455 0.0
vertex 4.9791847198287 29.0208152801713 0.0
vertex 8.5 31.7224318643355 0.0
endloop
endfacet
facet normal 0.0 0.0 -1.0
outer loop
vertex 8.49999999999999 2.27756813566455 0.0
vertex 8.5 31.7224318643355 0.0
vertex 12.6000762332571 0.579260953085845 0.0
endloop
endfacet
facet normal 0.0 0.0 -1.0
outer loop
vertex 12.6000762332571 0.579260953085845 0.0
vertex 8.5 31.7224318643355 0.0
vertex 12.6000762332571 33.4207390469141 0.0
endloop
endfacet
facet normal 0.0 0.0 -1.0
outer loop
vertex 12.6000762332571 0.579260953085845 0.0
vertex 12.6000762332571 33.4207390469141 0.0
vertex 17.0 0.0 0.0
endloop
endfacet
facet normal 0.0 0.0 -1.0
outer loop
vertex 17.0 0.0 0.0
vertex 12.6000762332571 33.4207390469141 0.0
vertex 16.5014476183493 16.9619799690895 0.0
endloop
endfacet
facet normal 0.0 0.0 -1.0
outer loop
vertex 17.0 0.0 0.0
vertex 16.5014476183493 16.9619799690895 0.0
vertex 16.5282756869007 16.8342406188748 0.0
endloop
endfacet
facet normal 0.0 0.0 -1.0
outer loop
vertex 17.0 0.0 0.0
vertex 16.5282756869007 16.8342406188748 0.0
vertex 16.5872509878285 16.7177974965535 0.0
endloop
endfacet
facet normal 0.0 0.0 -1.0
outer loop
vertex 17.0 0.0 0.0
vertex 16.5872509878285 16.7177974965535 0.0
vertex 16.6743544518358 16.6205860084804 0.0
endloop
endfacet
facet normal 0.0 0.0 -1.0
outer loop
vertex 17.0 0.0 0.0
vertex 16.6743544518358 16.6205860084804 0.0
vertex 16.7836501217958 16.549230956918 0.0
endloop
endfacet
facet normal 0.0 0.0 -1.0
outer loop
vertex 17.0 0.0 0.0
vertex 16.7836501217958 16.549230956918 0.0
vertex 16.9076896784203 16.5085950707107 0.0
endloop
endfacet
facet normal 0.0 0.0 -1.0
outer loop
vertex 17.0 0.0 0.0
vertex 16.9076896784203 16.5085950707107 0.0
vertex 17.0380200309105 16.5014476183493 0.0
endloop
endfacet
facet normal 0.0 0.0 -1.0
outer loop
vertex 17.0 0.0 0.0
vertex 17.0380200309105 16.5014476183493 0.0
vertex 21.3999237667428 0.579260953085845 0.0
endloop
endfacet
facet normal 0.0 0.0 -1.0
outer loop
vertex 21.3999237667428 0.579260953085845 0.0
vertex 17.0380200309105 16.5014476183493 0.0
vertex 17.1657593811251 16.5282756869007 0.0
endloop
endfacet
facet normal 0.0 0.0 -1.0
outer loop
vertex 21.3999237667428 0.579260953085845 0.0
vertex 17.1657593811251 16.5282756869007 0.0
vertex 17.2822025034465 16.5872509878285 0.0
endloop
endfacet
facet normal 0.0 0.0 -1.0
outer loop
vertex 21.3999237667428 0.579260953085845 0.0
vertex 17.2822025034465 16.5872509878285 0.0
vertex 17.3794139915196 16.6743544518358 0.0
endloop
endfacet
facet normal 0.0 0.0 -1.0
outer loop
vertex 21.3999237667428 0.579260953085845 0.0
vertex 17.3794139915196 16.6743544518358 0.0
vertex 17.450769043082 16.7836501217958 0.0
endloop
endfacet
facet normal 0.0 0.0 -1.0
outer loop
vertex 21.3999237667428 0.579260953085845 0.0
vertex 17.450769043082 16.7836501217958 0.0
vertex 17.4914049292893 16.9076896784203 0.0
endloop
endfacet
facet normal 0.0 0.0 -1.0
outer loop
vertex 21.3999237667428 0.579260953085845 0.0
vertex 17.4914049292893 16.9076896784203 0.0
vertex 17.4985523816507 17.0380200309105 0.0
endloop
endfacet
facet normal -0.258819045102522 -0.965925826289068 0.0
outer loop
vertex 12.6000762332571 0.579260953085845 1.0
vertex 8.49999999999999 2.27756813566455 0.0
vertex 12.6000762332571 0.579260953085845 0.0
endloop
endfacet
facet normal -0.500000000000001 -0.866025403784438 0.0
outer loop
vertex 8.49999999999999 2.27756813566455 0.0
vertex 12.6000762332571 0.579260953085845 1.0
vertex 8.49999999999999 2.27756813566455 1.0
endloop
endfacet
facet normal 1.87133307808585e-16 -1.0 0.0
outer loop
vertex 17.0 0.0 1.0
vertex 12.6000762332571 0.579260953085845 0.0
vertex 17.0 0.0 0.0
endloop
endfacet
facet normal -0.258819045102522 -0.965925826289068 0.0
outer loop
vertex 12.6000762332571 0.579260953085845 0.0
vertex 17.0 0.0 1.0
vertex 12.6000762332571 0.579260953085845 1.0
endloop
endfacet
facet normal 0.25881904510252 -0.965925826289069 0.0
outer loop
vertex 21.3999237667428 0.579260953085845 1.0
vertex 17.0 0.0 0.0
vertex 21.3999237667428 0.579260953085845 0.0
endloop
endfacet
facet normal 1.87133307808585e-16 -1.0 0.0
outer loop
vertex 17.0 0.0 0.0
vertex 21.3999237667428 0.579260953085845 1.0
vertex 17.0 0.0 1.0
endloop
endfacet
facet normal 0.5 -0.866025403784439 0.0
outer loop
vertex 25.5 2.27756813566453 1.0
vertex 21.3999237667428 0.579260953085845 0.0
vertex 25.5 2.27756813566453 0.0
endloop
endfacet
facet normal 0.25881904510252 -0.965925826289069 0.0
outer loop
vertex 21.3999237667428 0.579260953085845 0.0
vertex 25.5 2.27756813566453 1.0
vertex 21.3999237667428 0.579260953085845 1.0
endloop
endfacet
facet normal 0.707106781186548 -0.707106781186548 0.0
outer loop
vertex 29.0208152801713 4.9791847198287 1.0
vertex 25.5 2.27756813566453 0.0
vertex 29.0208152801713 4.9791847198287 0.0
endloop
endfacet
facet normal 0.5 -0.866025403784439 0.0
outer loop
vertex 25.5 2.27756813566453 0.0
vertex 29.0208152801713 4.9791847198287 1.0
vertex 25.5 2.27756813566453 1.0
endloop
endfacet
facet normal 0.866025403784438 -0.500000000000001 0.0
outer loop
vertex 31.7224318643354 8.49999999999998 0.0
vertex 29.0208152801713 4.9791847198287 1.0
vertex 29.0208152801713 4.9791847198287 0.0
endloop
endfacet
facet normal 0.707106781186548 -0.707106781186548 0.0
outer loop
vertex 29.0208152801713 4.9791847198287 1.0
vertex 31.7224318643354 8.49999999999998 0.0
vertex 31.7224318643354 8.49999999999998 1.0
endloop
endfacet
facet normal -0.965925826289068 -0.25881904510252 0.0
outer loop
vertex 0.579260953085837 12.6000762332571 1.0
vertex 2.27756813566453 8.50000000000001 0.0
vertex 2.27756813566453 8.50000000000001 1.0
endloop
endfacet
facet normal -0.866025403784438 -0.5 0.0
outer loop
vertex 2.27756813566453 8.50000000000001 0.0
vertex 0.579260953085837 12.6000762332571 1.0
vertex 0.579260953085837 12.6000762332571 0.0
endloop
endfacet
facet normal -1.0 6.23777692695283e-16 0.0
outer loop
vertex 0.0 17.0 1.0
vertex 0.579260953085837 12.6000762332571 0.0
vertex 0.579260953085837 12.6000762332571 1.0
endloop
endfacet
facet normal -0.965925826289068 -0.25881904510252 0.0
outer loop
vertex 0.579260953085837 12.6000762332571 0.0
vertex 0.0 17.0 1.0
vertex 0.0 17.0 0.0
endloop
endfacet
facet normal -0.965925826289068 0.258819045102521 0.0
outer loop
vertex 0.579260953085843 21.3999237667428 1.0
vertex 0.0 17.0 0.0
vertex 0.0 17.0 1.0
endloop
endfacet
facet normal -1.0 6.23777692695283e-16 0.0
outer loop
vertex 0.0 17.0 0.0
vertex 0.579260953085843 21.3999237667428 1.0
vertex 0.579260953085843 21.3999237667428 0.0
endloop
endfacet
facet normal -0.866025403784439 0.5 0.0
outer loop
vertex 2.27756813566455 25.5 1.0
vertex 0.579260953085843 21.3999237667428 0.0
vertex 0.579260953085843 21.3999237667428 1.0
endloop
endfacet
facet normal -0.965925826289068 0.258819045102521 0.0
outer loop
vertex 0.579260953085843 21.3999237667428 0.0
vertex 2.27756813566455 25.5 1.0
vertex 2.27756813566455 25.5 0.0
endloop
endfacet
facet normal 0.965925826289068 -0.25881904510252 0.0
outer loop
vertex 33.4207390469141 12.6000762332571 0.0
vertex 31.7224318643354 8.49999999999998 1.0
vertex 31.7224318643354 8.49999999999998 0.0
endloop
endfacet
facet normal 0.866025403784438 -0.500000000000001 0.0
outer loop
vertex 31.7224318643354 8.49999999999998 1.0
vertex 33.4207390469141 12.6000762332571 0.0
vertex 33.4207390469141 12.6000762332571 1.0
endloop
endfacet
facet normal 1.0 0.0 0.0
outer loop
vertex 34.0 17.0 0.0
vertex 33.4207390469141 12.6000762332571 1.0
vertex 33.4207390469141 12.6000762332571 0.0
endloop
endfacet
facet normal 0.965925826289068 -0.25881904510252 0.0
outer loop
vertex 33.4207390469141 12.6000762332571 1.0
vertex 34.0 17.0 0.0
vertex 34.0 17.0 1.0
endloop
endfacet
facet normal 0.965925826289068 0.258819045102521 0.0
outer loop
vertex 33.4207390469141 21.3999237667428 0.0
vertex 34.0 17.0 1.0
vertex 34.0 17.0 0.0
endloop
endfacet
facet normal 1.0 0.0 0.0
outer loop
vertex 34.0 17.0 1.0
vertex 33.4207390469141 21.3999237667428 0.0
vertex 33.4207390469141 21.3999237667428 1.0
endloop
endfacet
facet normal 0.866025403784439 0.5 0.0
outer loop
vertex 31.7224318643354 25.5 0.0
vertex 33.4207390469141 21.3999237667428 1.0
vertex 33.4207390469141 21.3999237667428 0.0
endloop
endfacet
facet normal 0.965925826289068 0.258819045102521 0.0
outer loop
vertex 33.4207390469141 21.3999237667428 1.0
vertex 31.7224318643354 25.5 0.0
vertex 31.7224318643354 25.5 1.0
endloop
endfacet
facet normal -0.866025403784438 -0.5 0.0
outer loop
vertex 2.27756813566453 8.50000000000001 1.0
vertex 4.97918471982869 4.9791847198287 0.0
vertex 4.97918471982869 4.9791847198287 1.0
endloop
endfacet
facet normal -0.707106781186547 -0.707106781186548 0.0
outer loop
vertex 4.97918471982869 4.9791847198287 0.0
vertex 2.27756813566453 8.50000000000001 1.0
vertex 2.27756813566453 8.50000000000001 0.0
endloop
endfacet
facet normal -0.500000000000001 -0.866025403784438 0.0
outer loop
vertex 8.49999999999999 2.27756813566455 1.0
vertex 4.97918471982869 4.9791847198287 0.0
vertex 8.49999999999999 2.27756813566455 0.0
endloop
endfacet
facet normal -0.707106781186547 -0.707106781186548 0.0
outer loop
vertex 4.97918471982869 4.9791847198287 0.0
vertex 8.49999999999999 2.27756813566455 1.0
vertex 4.97918471982869 4.9791847198287 1.0
endloop
endfacet
facet normal 0.707106781186547 0.707106781186548 0.0
outer loop
vertex 29.0208152801713 29.0208152801713 0.0
vertex 31.7224318643354 25.5 1.0
vertex 31.7224318643354 25.5 0.0
endloop
endfacet
facet normal 0.866025403784439 0.5 0.0
outer loop
vertex 31.7224318643354 25.5 1.0
vertex 29.0208152801713 29.0208152801713 0.0
vertex 29.0208152801713 29.0208152801713 1.0
endloop
endfacet
facet normal 0.500000000000001 0.866025403784438 0.0
outer loop
vertex 25.5 31.7224318643354 1.0
vertex 29.0208152801713 29.0208152801713 0.0
vertex 25.5 31.7224318643354 0.0
endloop
endfacet
facet normal 0.707106781186547 0.707106781186548 0.0
outer loop
vertex 29.0208152801713 29.0208152801713 0.0
vertex 25.5 31.7224318643354 1.0
vertex 29.0208152801713 29.0208152801713 1.0
endloop
endfacet
facet normal 0.258819045102522 0.965925826289068 0.0
outer loop
vertex 21.3999237667428 33.4207390469141 1.0
vertex 25.5 31.7224318643354 0.0
vertex 21.3999237667428 33.4207390469141 0.0
endloop
endfacet
facet normal 0.500000000000001 0.866025403784438 0.0
outer loop
vertex 25.5 31.7224318643354 0.0
vertex 21.3999237667428 33.4207390469141 1.0
vertex 25.5 31.7224318643354 1.0
endloop
endfacet
facet normal -8.01999890608221e-17 1.0 0.0
outer loop
vertex 17.0 34.0 1.0
vertex 21.3999237667428 33.4207390469141 0.0
vertex 17.0 34.0 0.0
endloop
endfacet
facet normal 0.258819045102522 0.965925826289068 0.0
outer loop
vertex 21.3999237667428 33.4207390469141 0.0
vertex 17.0 34.0 1.0
vertex 21.3999237667428 33.4207390469141 1.0
endloop
endfacet
facet normal -0.25881904510252 0.965925826289069 0.0
outer loop
vertex 12.6000762332571 33.4207390469141 1.0
vertex 17.0 34.0 0.0
vertex 12.6000762332571 33.4207390469141 0.0
endloop
endfacet
facet normal -8.01999890608221e-17 1.0 0.0
outer loop
vertex 17.0 34.0 0.0
vertex 12.6000762332571 33.4207390469141 1.0
vertex 17.0 34.0 1.0
endloop
endfacet
facet normal -0.499999999999998 0.866025403784439 0.0
outer loop
vertex 8.5 31.7224318643355 1.0
vertex 12.6000762332571 33.4207390469141 0.0
vertex 8.5 31.7224318643355 0.0
endloop
endfacet
facet normal -0.25881904510252 0.965925826289069 0.0
outer loop
vertex 12.6000762332571 33.4207390469141 0.0
vertex 8.5 31.7224318643355 1.0
vertex 12.6000762332571 33.4207390469141 1.0
endloop
endfacet
facet normal -0.707106781186547 0.707106781186548 0.0
outer loop
vertex 4.9791847198287 29.0208152801713 1.0
vertex 8.5 31.7224318643355 0.0
vertex 4.9791847198287 29.0208152801713 0.0
endloop
endfacet
facet normal -0.499999999999998 0.866025403784439 0.0
outer loop
vertex 8.5 31.7224318643355 0.0
vertex 4.9791847198287 29.0208152801713 1.0
vertex 8.5 31.7224318643355 1.0
endloop
endfacet
facet normal -0.707106781186547 0.707106781186548 0.0
outer loop
vertex 4.9791847198287 29.0208152801713 1.0
vertex 2.27756813566455 25.5 0.0
vertex 2.27756813566455 25.5 1.0
endloop
endfacet
facet normal -0.866025403784439 0.5 0.0
outer loop
vertex 2.27756813566455 25.5 0.0
vertex 4.9791847198287 29.0208152801713 1.0
vertex 4.9791847198287 29.0208152801713 0.0
endloop
endfacet
facet normal 4.82428552257683e-17 -7.46483489695666e-18 1.0
outer loop
vertex 21.3999237667428 0.579260953085845 1.0
vertex 17.0 1.5 1.0
vertex 17.0 0.0 1.0
endloop
endfacet
facet normal 4.82428552257683e-17 -7.46483489695666e-18 1.0
outer loop
vertex 17.0 1.5 1.0
vertex 21.3999237667428 0.579260953085845 1.0
vertex 20.7528761539866 1.99407551880851 1.0
endloop
endfacet
facet normal 4.82428552257683e-17 -7.46483489695666e-18 1.0
outer loop
vertex 20.7528761539866 1.99407551880851 1.0
vertex 21.3999237667428 0.579260953085845 1.0
vertex 24.25 3.44263164512564 1.0
endloop
endfacet
facet normal 4.82428552257683e-17 -7.46483489695666e-18 1.0
outer loop
vertex 24.25 3.44263164512564 1.0
vertex 21.3999237667428 0.579260953085845 1.0
vertex 25.5 2.27756813566453 1.0
endloop
endfacet
facet normal 4.82428552257683e-17 -7.46483489695666e-18 1.0
outer loop
vertex 24.25 3.44263164512564 1.0
vertex 25.5 2.27756813566453 1.0
vertex 27.2530483272049 5.74695167279505 1.0
endloop
endfacet
facet normal 4.82428552257683e-17 -7.46483489695666e-18 1.0
outer loop
vertex 27.2530483272049 5.74695167279505 1.0
vertex 25.5 2.27756813566453 1.0
vertex 29.0208152801713 4.9791847198287 1.0
endloop
endfacet
facet normal 4.82428552257683e-17 -7.46483489695666e-18 1.0
outer loop
vertex 27.2530483272049 5.74695167279505 1.0
vertex 29.0208152801713 4.9791847198287 1.0
vertex 29.5573683548744 8.74999999999999 1.0
endloop
endfacet
facet normal 4.82428552257683e-17 -7.46483489695666e-18 1.0
outer loop
vertex 29.5573683548744 8.74999999999999 1.0
vertex 29.0208152801713 4.9791847198287 1.0
vertex 31.7224318643354 8.49999999999998 1.0
endloop
endfacet
facet normal 4.82428552257683e-17 -7.46483489695666e-18 1.0
outer loop
vertex 29.5573683548744 8.74999999999999 1.0
vertex 31.7224318643354 8.49999999999998 1.0
vertex 31.0059244811915 12.2471238460135 1.0
endloop
endfacet
facet normal 4.82428552257683e-17 -7.46483489695666e-18 1.0
outer loop
vertex 31.0059244811915 12.2471238460135 1.0
vertex 31.7224318643354 8.49999999999998 1.0
vertex 31.5 16.0 1.0
endloop
endfacet
facet normal 4.82428552257683e-17 -7.46483489695666e-18 1.0
outer loop
vertex 20.7528761539865 30.0059244811915 1.0
vertex 17.0 32.5 1.0
vertex 17.0 30.5 1.0
endloop
endfacet
facet normal 4.82428552257683e-17 -7.46483489695666e-18 1.0
outer loop
vertex 17.0 32.5 1.0
vertex 20.7528761539865 30.0059244811915 1.0
vertex 17.0 34.0 1.0
endloop
endfacet
facet normal 4.82428552257683e-17 -7.46483489695666e-18 1.0
outer loop
vertex 17.0 34.0 1.0
vertex 20.7528761539865 30.0059244811915 1.0
vertex 21.3999237667428 33.4207390469141 1.0
endloop
endfacet
facet normal 4.82428552257683e-17 -7.46483489695666e-18 1.0
outer loop
vertex 21.3999237667428 33.4207390469141 1.0
vertex 20.7528761539865 30.0059244811915 1.0
vertex 24.25 28.5573683548743 1.0
endloop
endfacet
facet normal 4.82428552257683e-17 -7.46483489695666e-18 1.0
outer loop
vertex 21.3999237667428 33.4207390469141 1.0
vertex 24.25 28.5573683548743 1.0
vertex 25.5 31.7224318643354 1.0
endloop
endfacet
facet normal 4.82428552257683e-17 -7.46483489695666e-18 1.0
outer loop
vertex 25.5 31.7224318643354 1.0
vertex 24.25 28.5573683548743 1.0
vertex 27.2530483272049 26.2530483272049 1.0
endloop
endfacet
facet normal 4.82428552257683e-17 -7.46483489695666e-18 1.0
outer loop
vertex 25.5 31.7224318643354 1.0
vertex 27.2530483272049 26.2530483272049 1.0
vertex 29.0208152801713 29.0208152801713 1.0
endloop
endfacet
facet normal 4.82428552257683e-17 -7.46483489695666e-18 1.0
outer loop
vertex 29.0208152801713 29.0208152801713 1.0
vertex 27.2530483272049 26.2530483272049 1.0
vertex 29.5573683548743 23.25 1.0
endloop
endfacet
facet normal 4.82428552257683e-17 -7.46483489695666e-18 1.0
outer loop
vertex 29.0208152801713 29.0208152801713 1.0
vertex 29.5573683548743 23.25 1.0
vertex 31.7224318643354 25.5 1.0
endloop
endfacet
facet normal 4.82428552257683e-17 -7.46483489695666e-18 1.0
outer loop
vertex 31.7224318643354 25.5 1.0
vertex 29.5573683548743 23.25 1.0
vertex 31.0059244811915 19.7528761539866 1.0
endloop
endfacet
facet normal 4.82428552257683e-17 -7.46483489695666e-18 1.0
outer loop
vertex 31.7224318643354 25.5 1.0
vertex 31.0059244811915 19.7528761539866 1.0
vertex 31.3683475024126 17.0 1.0
endloop
endfacet
facet normal 4.82428552257683e-17 -7.46483489695666e-18 1.0
outer loop
vertex 31.7224318643354 25.5 1.0
vertex 31.3683475024126 17.0 1.0
vertex 31.5 16.0 1.0
endloop
endfacet
facet normal 4.82428552257683e-17 -7.46483489695666e-18 1.0
outer loop
vertex 31.7224318643354 25.5 1.0
vertex 31.5 16.0 1.0
vertex 31.7224318643354 8.49999999999998 1.0
endloop
endfacet
facet normal 4.82428552257683e-17 -7.46483489695666e-18 1.0
outer loop
vertex 31.7224318643354 25.5 1.0
vertex 31.7224318643354 8.49999999999998 1.0
vertex 33.4207390469141 12.6000762332571 1.0
endloop
endfacet
facet normal 4.82428552257683e-17 -7.46483489695666e-18 1.0
outer loop
vertex 31.7224318643354 25.5 1.0
vertex 33.4207390469141 12.6000762332571 1.0
vertex 33.4207390469141 21.3999237667428 1.0
endloop
endfacet
facet normal 4.82428552257683e-17 -7.46483489695666e-18 1.0
outer loop
vertex 33.4207390469141 21.3999237667428 1.0
vertex 33.4207390469141 12.6000762332571 1.0
vertex 34.0 17.0 1.0
endloop
endfacet
facet normal 4.82428552257683e-17 -7.46483489695666e-18 1.0
outer loop
vertex 2.27756813566455 25.5 1.0
vertex 2.9940755188085 21.7528761539865 1.0
vertex 4.9791847198287 29.0208152801713 1.0
endloop
endfacet
facet normal 4.82428552257683e-17 -7.46483489695666e-18 1.0
outer loop
vertex 2.9940755188085 21.7528761539865 1.0
vertex 2.27756813566455 25.5 1.0
vertex 2.5 18.0 1.0
endloop
endfacet
facet normal 4.82428552257683e-17 -7.46483489695666e-18 1.0
outer loop
vertex 4.9791847198287 29.0208152801713 1.0
vertex 2.9940755188085 21.7528761539865 1.0
vertex 4.44263164512563 25.25 1.0
endloop
endfacet
facet normal 4.82428552257683e-17 -7.46483489695666e-18 1.0
outer loop
vertex 4.9791847198287 29.0208152801713 1.0
vertex 4.44263164512563 25.25 1.0
vertex 6.74695167279505 28.2530483272049 1.0
endloop
endfacet
facet normal 4.82428552257683e-17 -7.46483489695666e-18 1.0
outer loop
vertex 4.9791847198287 29.0208152801713 1.0
vertex 6.74695167279505 28.2530483272049 1.0
vertex 8.5 31.7224318643355 1.0
endloop
endfacet
facet normal 4.82428552257683e-17 -7.46483489695666e-18 1.0
outer loop
vertex 8.5 31.7224318643355 1.0
vertex 6.74695167279505 28.2530483272049 1.0
vertex 9.74999999999999 30.5573683548743 1.0
endloop
endfacet
facet normal 4.82428552257683e-17 -7.46483489695666e-18 1.0
outer loop
vertex 8.5 31.7224318643355 1.0
vertex 9.74999999999999 30.5573683548743 1.0
vertex 12.6000762332571 33.4207390469141 1.0
endloop
endfacet
facet normal 4.82428552257683e-17 -7.46483489695666e-18 1.0
outer loop
vertex 12.6000762332571 33.4207390469141 1.0
vertex 9.74999999999999 30.5573683548743 1.0
vertex 13.2471238460134 32.0059244811915 1.0
endloop
endfacet
facet normal 4.82428552257683e-17 -7.46483489695666e-18 1.0
outer loop
vertex 12.6000762332571 33.4207390469141 1.0
vertex 13.2471238460134 32.0059244811915 1.0
vertex 17.0 34.0 1.0
endloop
endfacet
facet normal 4.82428552257683e-17 -7.46483489695666e-18 1.0
outer loop
vertex 17.0 34.0 1.0
vertex 13.2471238460134 32.0059244811915 1.0
vertex 17.0 32.5 1.0
endloop
endfacet
facet normal 4.82428552257683e-17 -7.46483489695666e-18 1.0
outer loop
vertex 0.579260953085837 12.6000762332571 1.0
vertex 0.579260953085843 21.3999237667428 1.0
vertex 0.0 17.0 1.0
endloop
endfacet
facet normal 4.82428552257683e-17 -7.46483489695666e-18 1.0
outer loop
vertex 0.579260953085843 21.3999237667428 1.0
vertex 0.579260953085837 12.6000762332571 1.0
vertex 2.27756813566453 8.50000000000001 1.0
endloop
endfacet
facet normal 4.82428552257683e-17 -7.46483489695666e-18 1.0
outer loop
vertex 0.579260953085843 21.3999237667428 1.0
vertex 2.27756813566453 8.50000000000001 1.0
vertex 2.27756813566455 25.5 1.0
endloop
endfacet
facet normal 4.82428552257683e-17 -7.46483489695666e-18 1.0
outer loop
vertex 2.27756813566455 25.5 1.0
vertex 2.27756813566453 8.50000000000001 1.0
vertex 2.5 18.0 1.0
endloop
endfacet
facet normal 4.82428552257683e-17 -7.46483489695666e-18 1.0
outer loop
vertex 2.5 18.0 1.0
vertex 2.27756813566453 8.50000000000001 1.0
vertex 2.63165249758739 17.0 1.0
endloop
endfacet
facet normal 4.82428552257683e-17 -7.46483489695666e-18 1.0
outer loop
vertex 2.63165249758739 17.0 1.0
vertex 2.27756813566453 8.50000000000001 1.0
vertex 2.99407551880851 14.2471238460134 1.0
endloop
endfacet
facet normal 4.82428552257683e-17 -7.46483489695666e-18 1.0
outer loop
vertex 2.99407551880851 14.2471238460134 1.0
vertex 2.27756813566453 8.50000000000001 1.0
vertex 4.97918471982869 4.9791847198287 1.0
endloop
endfacet
facet normal 4.82428552257683e-17 -7.46483489695666e-18 1.0
outer loop
vertex 2.99407551880851 14.2471238460134 1.0
vertex 4.97918471982869 4.9791847198287 1.0
vertex 4.44263164512564 10.75 1.0
endloop
endfacet
facet normal 4.82428552257683e-17 -7.46483489695666e-18 1.0
outer loop
vertex 4.44263164512564 10.75 1.0
vertex 4.97918471982869 4.9791847198287 1.0
vertex 6.74695167279506 7.74695167279505 1.0
endloop
endfacet
facet normal 4.82428552257683e-17 -7.46483489695666e-18 1.0
outer loop
vertex 6.74695167279506 7.74695167279505 1.0
vertex 4.97918471982869 4.9791847198287 1.0
vertex 8.49999999999999 2.27756813566455 1.0
endloop
endfacet
facet normal 4.82428552257683e-17 -7.46483489695666e-18 1.0
outer loop
vertex 6.74695167279506 7.74695167279505 1.0
vertex 8.49999999999999 2.27756813566455 1.0
vertex 9.75 5.44263164512564 1.0
endloop
endfacet
facet normal 4.82428552257683e-17 -7.46483489695666e-18 1.0
outer loop
vertex 9.75 5.44263164512564 1.0
vertex 8.49999999999999 2.27756813566455 1.0
vertex 12.6000762332571 0.579260953085845 1.0
endloop
endfacet
facet normal 4.82428552257683e-17 -7.46483489695666e-18 1.0
outer loop
vertex 9.75 5.44263164512564 1.0
vertex 12.6000762332571 0.579260953085845 1.0
vertex 13.2471238460134 3.99407551880851 1.0
endloop
endfacet
facet normal 4.82428552257683e-17 -7.46483489695666e-18 1.0
outer loop
vertex 13.2471238460134 3.99407551880851 1.0
vertex 12.6000762332571 0.579260953085845 1.0
vertex 17.0 0.0 1.0
endloop
endfacet
facet normal 4.82428552257683e-17 -7.46483489695666e-18 1.0
outer loop
vertex 13.2471238460134 3.99407551880851 1.0
vertex 17.0 0.0 1.0
vertex 17.0 1.5 1.0
endloop
endfacet
facet normal 4.82428552257683e-17 -7.46483489695666e-18 1.0
outer loop
vertex 13.2471238460134 3.99407551880851 1.0
vertex 17.0 1.5 1.0
vertex 17.0 3.49999999999999 1.0
endloop
endfacet
facet normal -0.258819045102521 -0.965925826289068 2.29234622120673e-17
outer loop
vertex 13.2471238460134 3.99407551880851 3.0
vertex 9.75 5.44263164512564 1.0
vertex 13.2471238460134 3.99407551880851 1.0
endloop
endfacet
facet normal -0.499999999999999 -0.866025403784439 4.88078404705241e-17
outer loop
vertex 9.75 5.44263164512564 1.0
vertex 13.2471238460134 3.99407551880851 3.0
vertex 9.75 5.44263164512564 3.0
endloop
endfacet
facet normal -0.130526192220053 -0.99144486137381 9.27956299720054e-18
outer loop
vertex 17.0 3.49999999999999 3.0
vertex 13.2471238460134 3.99407551880851 1.0
vertex 17.0 3.49999999999999 1.0
endloop
endfacet
facet normal -0.258819045102521 -0.965925826289068 2.29234622120673e-17
outer loop
vertex 13.2471238460134 3.99407551880851 1.0
vertex 17.0 3.49999999999999 3.0
vertex 13.2471238460134 3.99407551880851 3.0
endloop
endfacet
facet normal -1.0 1.40998324127395e-15 1.05449940929665e-16
outer loop
vertex 17.0 3.49999999999999 3.0
vertex 17.0 1.5 1.0
vertex 17.0 1.5 3.0
endloop
endfacet
facet normal -1.0 1.40998324127395e-15 1.05449940929665e-16
outer loop
vertex 17.0 1.5 1.0
vertex 17.0 3.49999999999999 3.0
vertex 17.0 3.49999999999999 1.0
endloop
endfacet
facet normal 0.258819045102521 -0.965925826289068 -3.1661443822999e-17
outer loop
vertex 20.7528761539866 1.99407551880851 3.0
vertex 17.0 1.5 1.0
vertex 20.7528761539866 1.99407551880851 1.0
endloop
endfacet
facet normal 0.130526192220052 -0.99144486137381 -1.82483955215567e-17
outer loop
vertex 17.0 1.5 1.0
vertex 20.7528761539866 1.99407551880851 3.0
vertex 17.0 1.5 3.0
endloop
endfacet
facet normal 0.5 -0.866025403784439 -5.6642100459141e-17
outer loop
vertex 24.25 3.44263164512564 3.0
vertex 20.7528761539866 1.99407551880851 1.0
vertex 24.25 3.44263164512564 1.0
endloop
endfacet
facet normal 0.258819045102521 -0.965925826289068 -3.1661443822999e-17
outer loop
vertex 20.7528761539866 1.99407551880851 1.0
vertex 24.25 3.44263164512564 3.0
vertex 20.7528761539866 1.99407551880851 3.0
endloop
endfacet
facet normal 0.707106781186547 -0.707106781186548 -7.77626915544894e-17
outer loop
vertex 27.2530483272049 5.74695167279505 3.0
vertex 24.25 3.44263164512564 1.0
vertex 27.2530483272049 5.74695167279505 1.0
endloop
endfacet
facet normal 0.5 -0.866025403784439 -5.6642100459141e-17
outer loop
vertex 24.25 3.44263164512564 1.0
vertex 27.2530483272049 5.74695167279505 3.0
vertex 24.25 3.44263164512564 3.0
endloop
endfacet
facet normal 0.866025403784439 -0.499999999999999 -9.35838837293233e-17
outer loop
vertex 29.5573683548744 8.74999999999999 1.0
vertex 27.2530483272049 5.74695167279505 3.0
vertex 27.2530483272049 5.74695167279505 1.0
endloop
endfacet
facet normal 0.707106781186547 -0.707106781186548 -7.77626915544894e-17
outer loop
vertex 27.2530483272049 5.74695167279505 3.0
vertex 29.5573683548744 8.74999999999999 1.0
vertex 29.5573683548744 8.74999999999999 3.0
endloop
endfacet
facet normal 0.965925826289069 -0.25881904510252 -1.03027488882684e-16
outer loop
vertex 31.0059244811915 12.2471238460135 1.0
vertex 29.5573683548744 8.74999999999999 3.0
vertex 29.5573683548744 8.74999999999999 1.0
endloop
endfacet
facet normal 0.866025403784439 -0.499999999999999 -9.35838837293233e-17
outer loop
vertex 29.5573683548744 8.74999999999999 3.0
vertex 31.0059244811915 12.2471238460135 1.0
vertex 31.0059244811915 12.2471238460135 3.0
endloop
endfacet
facet normal 1.0 -1.78222197912938e-16 -1.05449940929665e-16
outer loop
vertex 31.5 16.0 1.0
vertex 31.0059244811915 12.2471238460135 3.0
vertex 31.0059244811915 12.2471238460135 1.0
endloop
endfacet
facet normal 0.965925826289069 -0.25881904510252 -1.03027488882684e-16
outer loop
vertex 31.0059244811915 12.2471238460135 3.0
vertex 31.5 16.0 1.0
vertex 31.5 16.0 3.0
endloop
endfacet
facet normal 0.99144486137381 0.130526192220053 -1.03957417465751e-16
outer loop
vertex 31.3683475024126 17.0 1.0
vertex 31.5 16.0 3.0
vertex 31.5 16.0 1.0
endloop
endfacet
facet normal 1.0 -7.12888791651752e-17 -1.05449940929665e-16
outer loop
vertex 31.5 16.0 3.0
vertex 31.3683475024126 17.0 1.0
vertex 31.3683475024126 17.0 3.0
endloop
endfacet
facet normal -0.499999999999999 -0.866025403784439 4.88078404705241e-17
outer loop
vertex 9.75 5.44263164512564 3.0
vertex 6.74695167279506 7.74695167279505 1.0
vertex 9.75 5.44263164512564 1.0
endloop
endfacet
facet normal -0.707106781186547 -0.707106781186548 7.13660450596848e-17
outer loop
vertex 6.74695167279506 7.74695167279505 1.0
vertex 9.75 5.44263164512564 3.0
vertex 6.74695167279506 7.74695167279505 3.0
endloop
endfacet
facet normal -0.866025403784439 -0.5 8.90607716159937e-17
outer loop
vertex 4.44263164512564 10.75 3.0
vertex 6.74695167279506 7.74695167279505 1.0
vertex 6.74695167279506 7.74695167279505 3.0
endloop
endfacet
facet normal -0.707106781186547 -0.707106781186548 7.13660450596848e-17
outer loop
vertex 6.74695167279506 7.74695167279505 1.0
vertex 4.44263164512564 10.75 3.0
vertex 4.44263164512564 10.75 1.0
endloop
endfacet
facet normal -0.965925826289068 -0.258819045102522 1.00686153766557e-16
outer loop
vertex 2.99407551880851 14.2471238460134 3.0
vertex 4.44263164512564 10.75 1.0
vertex 4.44263164512564 10.75 3.0
endloop
endfacet
facet normal -0.866025403784439 -0.5 8.90607716159937e-17
outer loop
vertex 4.44263164512564 10.75 1.0
vertex 2.99407551880851 14.2471238460134 3.0
vertex 2.99407551880851 14.2471238460134 1.0
endloop
endfacet
facet normal -0.99144486137381 -0.130526192220052 1.03957417465751e-16
outer loop
vertex 2.63165249758739 17.0 3.0
vertex 2.99407551880851 14.2471238460134 1.0
vertex 2.99407551880851 14.2471238460134 3.0
endloop
endfacet
facet normal -0.965925826289068 -0.258819045102522 1.00686153766557e-16
outer loop
vertex 2.99407551880851 14.2471238460134 1.0
vertex 2.63165249758739 17.0 3.0
vertex 2.63165249758739 17.0 1.0
endloop
endfacet
facet normal -1.0 -2.22777747391173e-16 1.05449940929665e-16
outer loop
vertex 2.5 18.0 3.0
vertex 2.63165249758739 17.0 1.0
vertex 2.63165249758739 17.0 3.0
endloop
endfacet
facet normal -0.99144486137381 -0.130526192220052 1.03957417465751e-16
outer loop
vertex 2.63165249758739 17.0 1.0
vertex 2.5 18.0 3.0
vertex 2.5 18.0 1.0
endloop
endfacet
facet normal -0.965925826289069 0.25881904510252 1.03027488882684e-16
outer loop
vertex 2.9940755188085 21.7528761539865 3.0
vertex 2.5 18.0 1.0
vertex 2.5 18.0 3.0
endloop
endfacet
facet normal -1.0 -3.38622176034582e-16 1.05449940929665e-16
outer loop
vertex 2.5 18.0 1.0
vertex 2.9940755188085 21.7528761539865 3.0
vertex 2.9940755188085 21.7528761539865 1.0
endloop
endfacet
facet normal -0.866025403784439 0.499999999999999 9.35838837293233e-17
outer loop
vertex 4.44263164512563 25.25 3.0
vertex 2.9940755188085 21.7528761539865 1.0
vertex 2.9940755188085 21.7528761539865 3.0
endloop
endfacet
facet normal -0.965925826289069 0.25881904510252 1.03027488882684e-16
outer loop
vertex 2.9940755188085 21.7528761539865 1.0
vertex 4.44263164512563 25.25 3.0
vertex 4.44263164512563 25.25 1.0
endloop
endfacet
facet normal -0.707106781186547 0.707106781186548 7.77626915544893e-17
outer loop
vertex 6.74695167279505 28.2530483272049 3.0
vertex 4.44263164512563 25.25 1.0
vertex 4.44263164512563 25.25 3.0
endloop
endfacet
facet normal -0.866025403784439 0.499999999999999 9.35838837293233e-17
outer loop
vertex 4.44263164512563 25.25 1.0
vertex 6.74695167279505 28.2530483272049 3.0
vertex 6.74695167279505 28.2530483272049 1.0
endloop
endfacet
facet normal -0.707106781186547 0.707106781186548 7.77626915544893e-17
outer loop
vertex 6.74695167279505 28.2530483272049 3.0
vertex 9.74999999999999 30.5573683548743 1.0
vertex 6.74695167279505 28.2530483272049 1.0
endloop
endfacet
facet normal -0.5 0.866025403784439 5.6642100459141e-17
outer loop
vertex 9.74999999999999 30.5573683548743 1.0
vertex 6.74695167279505 28.2530483272049 3.0
vertex 9.74999999999999 30.5573683548743 3.0
endloop
endfacet
facet normal -0.5 0.866025403784439 5.6642100459141e-17
outer loop
vertex 9.74999999999999 30.5573683548743 3.0
vertex 13.2471238460134 32.0059244811915 1.0
vertex 9.74999999999999 30.5573683548743 1.0
endloop
endfacet
facet normal -0.258819045102521 0.965925826289068 3.1661443822999e-17
outer loop
vertex 13.2471238460134 32.0059244811915 1.0
vertex 9.74999999999999 30.5573683548743 3.0
vertex 13.2471238460134 32.0059244811915 3.0
endloop
endfacet
facet normal -0.258819045102521 0.965925826289068 3.1661443822999e-17
outer loop
vertex 13.2471238460134 32.0059244811915 3.0
vertex 17.0 32.5 1.0
vertex 13.2471238460134 32.0059244811915 1.0
endloop
endfacet
facet normal -0.130526192220052 0.99144486137381 1.82483955215567e-17
outer loop
vertex 17.0 32.5 1.0
vertex 13.2471238460134 32.0059244811915 3.0
vertex 17.0 32.5 3.0
endloop
endfacet
facet normal 1.0 -1.40998324127395e-15 -1.05449940929665e-16
outer loop
vertex 17.0 32.5 1.0
vertex 17.0 30.5 3.0
vertex 17.0 30.5 1.0
endloop
endfacet
facet normal 1.0 -1.40998324127395e-15 -1.05449940929665e-16
outer loop
vertex 17.0 30.5 3.0
vertex 17.0 32.5 1.0
vertex 17.0 32.5 3.0
endloop
endfacet
facet normal 0.130526192220053 0.99144486137381 -9.27956299720054e-18
outer loop
vertex 17.0 30.5 3.0
vertex 20.7528761539865 30.0059244811915 1.0
vertex 17.0 30.5 1.0
endloop
endfacet
facet normal 0.258819045102521 0.965925826289068 -2.29234622120673e-17
outer loop
vertex 20.7528761539865 30.0059244811915 1.0
vertex 17.0 30.5 3.0
vertex 20.7528761539865 30.0059244811915 3.0
endloop
endfacet
facet normal 1.05449940929665e-16 -4.52311211332946e-18 1.0
outer loop
vertex 20.7528761539866 1.99407551880851 3.0
vertex 17.0 3.49999999999999 3.0
vertex 17.0 1.5 3.0
endloop
endfacet
facet normal 1.05449940929665e-16 -4.52311211332946e-18 1.0
outer loop
vertex 17.0 3.49999999999999 3.0
vertex 20.7528761539866 1.99407551880851 3.0
vertex 17.0380200309105 16.5014476183493 2.99999999999997
endloop
endfacet
facet normal 1.05449940929665e-16 -4.52311211332946e-18 1.0
outer loop
vertex 17.0380200309105 16.5014476183493 2.99999999999997
vertex 20.7528761539866 1.99407551880851 3.0
vertex 17.1657593811251 16.5282756869007 2.99999999999997
endloop
endfacet
facet normal 1.05449940929665e-16 -4.52311211332946e-18 1.0
outer loop
vertex 17.1657593811251 16.5282756869007 2.99999999999997
vertex 20.7528761539866 1.99407551880851 3.0
vertex 17.2822025034465 16.5872509878285 2.99999999999997
endloop
endfacet
facet normal 1.05449940929665e-16 -4.52311211332946e-18 1.0
outer loop
vertex 17.2822025034465 16.5872509878285 2.99999999999997
vertex 20.7528761539866 1.99407551880851 3.0
vertex 17.3794139915196 16.6743544518358 2.99999999999997
endloop
endfacet
facet normal 1.05449940929665e-16 -4.52311211332946e-18 1.0
outer loop
vertex 17.3794139915196 16.6743544518358 2.99999999999997
vertex 20.7528761539866 1.99407551880851 3.0
vertex 17.450769043082 16.7836501217958 2.99999999999997
endloop
endfacet
facet normal 1.05449940929665e-16 -4.52311211332946e-18 1.0
outer loop
vertex 17.450769043082 16.7836501217958 2.99999999999997
vertex 20.7528761539866 1.99407551880851 3.0
vertex 17.4914049292893 16.9076896784203 2.99999999999997
endloop
endfacet
facet normal 1.05449940929665e-16 -4.52311211332946e-18 1.0
outer loop
vertex 17.4914049292893 16.9076896784203 2.99999999999997
vertex 20.7528761539866 1.99407551880851 3.0
vertex 17.4985523816507 17.0380200309105 2.99999999999997
endloop
endfacet
facet normal 1.05449940929665e-16 -4.52311211332946e-18 1.0
outer loop
vertex 17.4985523816507 17.0380200309105 2.99999999999997
vertex 20.7528761539866 1.99407551880851 3.0
vertex 20.7528761539865 30.0059244811915 3.0
endloop
endfacet
facet normal 1.05449940929665e-16 -4.52311211332946e-18 1.0
outer loop
vertex 20.7528761539865 30.0059244811915 3.0
vertex 20.7528761539866 1.99407551880851 3.0
vertex 24.25 28.5573683548743 3.0
endloop
endfacet
facet normal 1.05449940929665e-16 -4.52311211332946e-18 1.0
outer loop
vertex 24.25 28.5573683548743 3.0
vertex 20.7528761539866 1.99407551880851 3.0
vertex 24.25 3.44263164512564 3.0
endloop
endfacet
facet normal 1.05449940929665e-16 -4.52311211332946e-18 1.0
outer loop
vertex 24.25 28.5573683548743 3.0
vertex 24.25 3.44263164512564 3.0
vertex 27.2530483272049 26.2530483272049 3.0
endloop
endfacet
facet normal 1.05449940929665e-16 -4.52311211332946e-18 1.0
outer loop
vertex 27.2530483272049 26.2530483272049 3.0
vertex 24.25 3.44263164512564 3.0
vertex 27.2530483272049 5.74695167279505 3.0
endloop
endfacet
facet normal 1.05449940929665e-16 -4.52311211332946e-18 1.0
outer loop
vertex 27.2530483272049 26.2530483272049 3.0
vertex 27.2530483272049 5.74695167279505 3.0
vertex 29.5573683548743 23.25 3.0
endloop
endfacet
facet normal 1.05449940929665e-16 -4.52311211332946e-18 1.0
outer loop
vertex 29.5573683548743 23.25 3.0
vertex 27.2530483272049 5.74695167279505 3.0
vertex 29.5573683548744 8.74999999999999 3.0
endloop
endfacet
facet normal 1.05449940929665e-16 -4.52311211332946e-18 1.0
outer loop
vertex 29.5573683548743 23.25 3.0
vertex 29.5573683548744 8.74999999999999 3.0
vertex 31.0059244811915 19.7528761539866 3.0
endloop
endfacet
facet normal 1.05449940929665e-16 -4.52311211332946e-18 1.0
outer loop
vertex 31.0059244811915 19.7528761539866 3.0
vertex 29.5573683548744 8.74999999999999 3.0
vertex 31.0059244811915 12.2471238460135 3.0
endloop
endfacet
facet normal 1.05449940929665e-16 -4.52311211332946e-18 1.0
outer loop
vertex 31.0059244811915 19.7528761539866 3.0
vertex 31.0059244811915 12.2471238460135 3.0
vertex 31.5 16.0 3.0
endloop
endfacet
facet normal 1.05449940929665e-16 -4.52311211332946e-18 1.0
outer loop
vertex 31.0059244811915 19.7528761539866 3.0
vertex 31.5 16.0 3.0
vertex 31.3683475024126 17.0 3.0
endloop
endfacet
facet normal 1.05449940929665e-16 -4.52311211332946e-18 1.0
outer loop
vertex 17.0923103215797 17.4914049292893 2.99999999999997
vertex 17.0 30.5 3.0
vertex 16.9619799690895 17.4985523816507 2.99999999999997
endloop
endfacet
facet normal 1.05449940929665e-16 -4.52311211332946e-18 1.0
outer loop
vertex 17.0 30.5 3.0
vertex 17.0923103215797 17.4914049292893 2.99999999999997
vertex 20.7528761539865 30.0059244811915 3.0
endloop
endfacet
facet normal 1.05449940929665e-16 -4.52311211332946e-18 1.0
outer loop
vertex 20.7528761539865 30.0059244811915 3.0
vertex 17.0923103215797 17.4914049292893 2.99999999999997
vertex 17.2163498782042 17.450769043082 2.99999999999997
endloop
endfacet
facet normal 1.05449940929665e-16 -4.52311211332946e-18 1.0
outer loop
vertex 20.7528761539865 30.0059244811915 3.0
vertex 17.2163498782042 17.450769043082 2.99999999999997
vertex 17.3256455481642 17.3794139915196 2.99999999999997
endloop
endfacet
facet normal 1.05449940929665e-16 -4.52311211332946e-18 1.0
outer loop
vertex 20.7528761539865 30.0059244811915 3.0
vertex 17.3256455481642 17.3794139915196 2.99999999999997
vertex 17.4127490121715 17.2822025034465 2.99999999999997
endloop
endfacet
facet normal 1.05449940929665e-16 -4.52311211332946e-18 1.0
outer loop
vertex 20.7528761539865 30.0059244811915 3.0
vertex 17.4127490121715 17.2822025034465 2.99999999999997
vertex 17.4717243130993 17.1657593811251 2.99999999999997
endloop
endfacet
facet normal 1.05449940929665e-16 -4.52311211332946e-18 1.0
outer loop
vertex 20.7528761539865 30.0059244811915 3.0
vertex 17.4717243130993 17.1657593811251 2.99999999999997
vertex 17.4985523816507 17.0380200309105 2.99999999999997
endloop
endfacet
facet normal 1.05449940929665e-16 -4.52311211332946e-18 1.0
outer loop
vertex 17.0 3.49999999999999 3.0
vertex 16.5014476183493 16.9619799690895 2.99999999999997
vertex 13.2471238460134 3.99407551880851 3.0
endloop
endfacet
facet normal 1.05449940929665e-16 -4.52311211332946e-18 1.0
outer loop
vertex 16.5014476183493 16.9619799690895 2.99999999999997
vertex 17.0 3.49999999999999 3.0
vertex 16.5282756869007 16.8342406188748 2.99999999999997
endloop
endfacet
facet normal 1.05449940929665e-16 -4.52311211332946e-18 1.0
outer loop
vertex 16.5282756869007 16.8342406188748 2.99999999999997
vertex 17.0 3.49999999999999 3.0
vertex 16.5872509878285 16.7177974965535 2.99999999999997
endloop
endfacet
facet normal 1.05449940929665e-16 -4.52311211332946e-18 1.0
outer loop
vertex 16.5872509878285 16.7177974965535 2.99999999999997
vertex 17.0 3.49999999999999 3.0
vertex 16.6743544518358 16.6205860084804 2.99999999999997
endloop
endfacet
facet normal 1.05449940929665e-16 -4.52311211332946e-18 1.0
outer loop
vertex 16.6743544518358 16.6205860084804 2.99999999999997
vertex 17.0 3.49999999999999 3.0
vertex 16.7836501217958 16.549230956918 2.99999999999997
endloop
endfacet
facet normal 1.05449940929665e-16 -4.52311211332946e-18 1.0
outer loop
vertex 16.7836501217958 16.549230956918 2.99999999999997
vertex 17.0 3.49999999999999 3.0
vertex 16.9076896784203 16.5085950707107 2.99999999999997
endloop
endfacet
facet normal 1.05449940929665e-16 -4.52311211332946e-18 1.0
outer loop
vertex 16.9076896784203 16.5085950707107 2.99999999999997
vertex 17.0 3.49999999999999 3.0
vertex 17.0380200309105 16.5014476183493 2.99999999999997
endloop
endfacet
facet normal 1.05449940929665e-16 -4.52311211332946e-18 1.0
outer loop
vertex 2.63165249758739 17.0 3.0
vertex 2.9940755188085 21.7528761539865 3.0
vertex 2.5 18.0 3.0
endloop
endfacet
facet normal 1.05449940929665e-16 -4.52311211332946e-18 1.0
outer loop
vertex 2.9940755188085 21.7528761539865 3.0
vertex 2.63165249758739 17.0 3.0
vertex 2.99407551880851 14.2471238460134 3.0
endloop
endfacet
facet normal 1.05449940929665e-16 -4.52311211332946e-18 1.0
outer loop
vertex 2.9940755188085 21.7528761539865 3.0
vertex 2.99407551880851 14.2471238460134 3.0
vertex 4.44263164512563 25.25 3.0
endloop
endfacet
facet normal 1.05449940929665e-16 -4.52311211332946e-18 1.0
outer loop
vertex 4.44263164512563 25.25 3.0
vertex 2.99407551880851 14.2471238460134 3.0
vertex 4.44263164512564 10.75 3.0
endloop
endfacet
facet normal 1.05449940929665e-16 -4.52311211332946e-18 1.0
outer loop
vertex 4.44263164512563 25.25 3.0
vertex 4.44263164512564 10.75 3.0
vertex 6.74695167279505 28.2530483272049 3.0
endloop
endfacet
facet normal 1.05449940929665e-16 -4.52311211332946e-18 1.0
outer loop
vertex 6.74695167279505 28.2530483272049 3.0
vertex 4.44263164512564 10.75 3.0
vertex 6.74695167279506 7.74695167279505 3.0
endloop
endfacet
facet normal 1.05449940929665e-16 -4.52311211332946e-18 1.0
outer loop
vertex 6.74695167279505 28.2530483272049 3.0
vertex 6.74695167279506 7.74695167279505 3.0
vertex 9.74999999999999 30.5573683548743 3.0
endloop
endfacet
facet normal 1.05449940929665e-16 -4.52311211332946e-18 1.0
outer loop
vertex 9.74999999999999 30.5573683548743 3.0
vertex 6.74695167279506 7.74695167279505 3.0
vertex 9.75 5.44263164512564 3.0
endloop
endfacet
facet normal 1.05449940929665e-16 -4.52311211332946e-18 1.0
outer loop
vertex 9.74999999999999 30.5573683548743 3.0
vertex 9.75 5.44263164512564 3.0
vertex 13.2471238460134 32.0059244811915 3.0
endloop
endfacet
facet normal 1.05449940929665e-16 -4.52311211332946e-18 1.0
outer loop
vertex 13.2471238460134 32.0059244811915 3.0
vertex 9.75 5.44263164512564 3.0
vertex 13.2471238460134 3.99407551880851 3.0
endloop
endfacet
facet normal 1.05449940929665e-16 -4.52311211332946e-18 1.0
outer loop
vertex 13.2471238460134 32.0059244811915 3.0
vertex 13.2471238460134 3.99407551880851 3.0
vertex 17.0 32.5 3.0
endloop
endfacet
facet normal 1.05449940929665e-16 -4.52311211332946e-18 1.0
outer loop
vertex 17.0 32.5 3.0
vertex 13.2471238460134 3.99407551880851 3.0
vertex 16.5014476183493 16.9619799690895 2.99999999999997
endloop
endfacet
facet normal 1.05449940929665e-16 -4.52311211332946e-18 1.0
outer loop
vertex 17.0 32.5 3.0
vertex 16.5014476183493 16.9619799690895 2.99999999999997
vertex 16.5085950707107 17.0923103215797 2.99999999999997
endloop
endfacet
facet normal 1.05449940929665e-16 -4.52311211332946e-18 1.0
outer loop
vertex 17.0 32.5 3.0
vertex 16.5085950707107 17.0923103215797 2.99999999999997
vertex 16.549230956918 17.2163498782042 2.99999999999997
endloop
endfacet
facet normal 1.05449940929665e-16 -4.52311211332946e-18 1.0
outer loop
vertex 17.0 32.5 3.0
vertex 16.549230956918 17.2163498782042 2.99999999999997
vertex 16.6205860084804 17.3256455481642 2.99999999999997
endloop
endfacet
facet normal 1.05449940929665e-16 -4.52311211332946e-18 1.0
outer loop
vertex 17.0 32.5 3.0
vertex 16.6205860084804 17.3256455481642 2.99999999999997
vertex 16.7177974965535 17.4127490121715 2.99999999999997
endloop
endfacet
facet normal 1.05449940929665e-16 -4.52311211332946e-18 1.0
outer loop
vertex 17.0 32.5 3.0
vertex 16.7177974965535 17.4127490121715 2.99999999999997
vertex 16.8342406188748 17.4717243130993 2.99999999999997
endloop
endfacet
facet normal 1.05449940929665e-16 -4.52311211332946e-18 1.0
outer loop
vertex 17.0 32.5 3.0
vertex 16.8342406188748 17.4717243130993 2.99999999999997
vertex 16.9619799690895 17.4985523816507 2.99999999999997
endloop
endfacet
facet normal 1.05449940929665e-16 -4.52311211332946e-18 1.0
outer loop
vertex 17.0 32.5 3.0
vertex 16.9619799690895 17.4985523816507 2.99999999999997
vertex 17.0 30.5 3.0
endloop
endfacet
facet normal 0.258819045102521 0.965925826289068 -2.29234622120673e-17
outer loop
vertex 20.7528761539865 30.0059244811915 3.0
vertex 24.25 28.5573683548743 1.0
vertex 20.7528761539865 30.0059244811915 1.0
endloop
endfacet
facet normal 0.499999999999999 0.866025403784439 -4.8807840470524e-17
outer loop
vertex 24.25 28.5573683548743 1.0
vertex 20.7528761539865 30.0059244811915 3.0
vertex 24.25 28.5573683548743 3.0
endloop
endfacet
facet normal 0.499999999999999 0.866025403784439 -4.8807840470524e-17
outer loop
vertex 24.25 28.5573683548743 3.0
vertex 27.2530483272049 26.2530483272049 1.0
vertex 24.25 28.5573683548743 1.0
endloop
endfacet
facet normal 0.707106781186547 0.707106781186548 -7.13660450596848e-17
outer loop
vertex 27.2530483272049 26.2530483272049 1.0
vertex 24.25 28.5573683548743 3.0
vertex 27.2530483272049 26.2530483272049 3.0
endloop
endfacet
facet normal 0.707106781186547 0.707106781186548 -7.13660450596848e-17
outer loop
vertex 27.2530483272049 26.2530483272049 1.0
vertex 29.5573683548743 23.25 3.0
vertex 29.5573683548743 23.25 1.0
endloop
endfacet
facet normal 0.866025403784438 0.5 -8.90607716159937e-17
outer loop
vertex 29.5573683548743 23.25 3.0
vertex 27.2530483272049 26.2530483272049 1.0
vertex 27.2530483272049 26.2530483272049 3.0
endloop
endfacet
facet normal 0.866025403784438 0.5 -8.90607716159937e-17
outer loop
vertex 29.5573683548743 23.25 1.0
vertex 31.0059244811915 19.7528761539866 3.0
vertex 31.0059244811915 19.7528761539866 1.0
endloop
endfacet
facet normal 0.965925826289068 0.258819045102522 -1.00686153766557e-16
outer loop
vertex 31.0059244811915 19.7528761539866 3.0
vertex 29.5573683548743 23.25 1.0
vertex 29.5573683548743 23.25 3.0
endloop
endfacet
facet normal 0.965925826289068 0.258819045102522 -1.00686153766557e-16
outer loop
vertex 31.0059244811915 19.7528761539866 1.0
vertex 31.3683475024126 17.0 3.0
vertex 31.3683475024126 17.0 1.0
endloop
endfacet
facet normal 0.99144486137381 0.130526192220052 -1.03957417465751e-16
outer loop
vertex 31.3683475024126 17.0 3.0
vertex 31.0059244811915 19.7528761539866 1.0
vertex 31.0059244811915 19.7528761539866 3.0
endloop
endfacet
facet normal -0.901538086163914 0.43269975640842 0.0
outer loop
vertex 17.450769043082 16.7836501217958 2.99999999999997
vertex 17.3794139915196 16.6743544518358 0.0
vertex 17.3794139915196 16.6743544518358 2.99999999999997
endloop
endfacet
facet normal -0.758827983039219 0.651291096328386 0.0
outer loop
vertex 17.3794139915196 16.6743544518358 0.0
vertex 17.450769043082 16.7836501217958 2.99999999999997
vertex 17.450769043082 16.7836501217958 0.0
endloop
endfacet
facet normal -0.564405006892946 0.825498024342986 0.0
outer loop
vertex 17.2822025034465 16.5872509878285 2.99999999999997
vertex 17.3794139915196 16.6743544518358 0.0
vertex 17.2822025034465 16.5872509878285 0.0
endloop
endfacet
facet normal -0.758827983039219 0.651291096328386 0.0
outer loop
vertex 17.3794139915196 16.6743544518358 0.0
vertex 17.2822025034465 16.5872509878285 2.99999999999997
vertex 17.3794139915196 16.6743544518358 2.99999999999997
endloop
endfacet
facet normal -0.331518762250305 0.9434486261986 0.0
outer loop
vertex 17.1657593811251 16.5282756869007 2.99999999999997
vertex 17.2822025034465 16.5872509878285 0.0
vertex 17.1657593811251 16.5282756869007 0.0
endloop
endfacet
facet normal -0.564405006892946 0.825498024342986 0.0
outer loop
vertex 17.2822025034465 16.5872509878285 0.0
vertex 17.1657593811251 16.5282756869007 2.99999999999997
vertex 17.2822025034465 16.5872509878285 2.99999999999997
endloop
endfacet
facet normal -0.0760400618209423 0.997104763301363 0.0
outer loop
vertex 17.0380200309105 16.5014476183493 2.99999999999997
vertex 17.1657593811251 16.5282756869007 0.0
vertex 17.0380200309105 16.5014476183493 0.0
endloop
endfacet
facet normal -0.331518762250305 0.9434486261986 0.0
outer loop
vertex 17.1657593811251 16.5282756869007 0.0
vertex 17.0380200309105 16.5014476183493 2.99999999999997
vertex 17.1657593811251 16.5282756869007 2.99999999999997
endloop
endfacet
facet normal 0.184620643159383 0.982809858578665 0.0
outer loop
vertex 16.9076896784203 16.5085950707107 2.99999999999997
vertex 17.0380200309105 16.5014476183493 0.0
vertex 16.9076896784203 16.5085950707107 0.0
endloop
endfacet
facet normal -0.0760400618209423 0.997104763301363 0.0
outer loop
vertex 17.0380200309105 16.5014476183493 0.0
vertex 16.9076896784203 16.5085950707107 2.99999999999997
vertex 17.0380200309105 16.5014476183493 2.99999999999997
endloop
endfacet
facet normal 0.43269975640841 0.90153808616392 0.0
outer loop
vertex 16.7836501217958 16.549230956918 2.99999999999997
vertex 16.9076896784203 16.5085950707107 0.0
vertex 16.7836501217958 16.549230956918 0.0
endloop
endfacet
facet normal 0.184620643159383 0.982809858578665 0.0
outer loop
vertex 16.9076896784203 16.5085950707107 0.0
vertex 16.7836501217958 16.549230956918 2.99999999999997
vertex 16.9076896784203 16.5085950707107 2.99999999999997
endloop
endfacet
facet normal 0.651291096328374 0.758827983039229 0.0
outer loop
vertex 16.6743544518358 16.6205860084804 2.99999999999997
vertex 16.7836501217958 16.549230956918 0.0
vertex 16.6743544518358 16.6205860084804 0.0
endloop
endfacet
facet normal 0.43269975640841 0.90153808616392 0.0
outer loop
vertex 16.7836501217958 16.549230956918 0.0
vertex 16.6743544518358 16.6205860084804 2.99999999999997
vertex 16.7836501217958 16.549230956918 2.99999999999997
endloop
endfacet
facet normal 0.825498024342986 0.564405006892947 0.0
outer loop
vertex 16.5872509878285 16.7177974965535 0.0
vertex 16.6743544518358 16.6205860084804 2.99999999999997
vertex 16.6743544518358 16.6205860084804 0.0
endloop
endfacet
facet normal 0.651291096328374 0.758827983039229 0.0
outer loop
vertex 16.6743544518358 16.6205860084804 2.99999999999997
vertex 16.5872509878285 16.7177974965535 0.0
vertex 16.5872509878285 16.7177974965535 2.99999999999997
endloop
endfacet
facet normal 0.943448626198603 0.331518762250296 0.0
outer loop
vertex 16.5282756869007 16.8342406188748 0.0
vertex 16.5872509878285 16.7177974965535 2.99999999999997
vertex 16.5872509878285 16.7177974965535 0.0
endloop
endfacet
facet normal 0.825498024342986 0.564405006892947 0.0
outer loop
vertex 16.5872509878285 16.7177974965535 2.99999999999997
vertex 16.5282756869007 16.8342406188748 0.0
vertex 16.5282756869007 16.8342406188748 2.99999999999997
endloop
endfacet
facet normal 0.997104763301364 0.0760400618209317 0.0
outer loop
vertex 16.5014476183493 16.9619799690895 0.0
vertex 16.5282756869007 16.8342406188748 2.99999999999997
vertex 16.5282756869007 16.8342406188748 0.0
endloop
endfacet
facet normal 0.943448626198603 0.331518762250296 0.0
outer loop
vertex 16.5282756869007 16.8342406188748 2.99999999999997
vertex 16.5014476183493 16.9619799690895 0.0
vertex 16.5014476183493 16.9619799690895 2.99999999999997
endloop
endfacet
facet normal 0.982809858578665 -0.184620643159383 0.0
outer loop
vertex 16.5085950707107 17.0923103215797 0.0
vertex 16.5014476183493 16.9619799690895 2.99999999999997
vertex 16.5014476183493 16.9619799690895 0.0
endloop
endfacet
facet normal 0.997104763301364 0.0760400618209317 0.0
outer loop
vertex 16.5014476183493 16.9619799690895 2.99999999999997
vertex 16.5085950707107 17.0923103215797 0.0
vertex 16.5085950707107 17.0923103215797 2.99999999999997
endloop
endfacet
facet normal 0.901538086163916 -0.432699756408418 0.0
outer loop
vertex 16.549230956918 17.2163498782042 0.0
vertex 16.5085950707107 17.0923103215797 2.99999999999997
vertex 16.5085950707107 17.0923103215797 0.0
endloop
endfacet
facet normal 0.982809858578665 -0.184620643159383 0.0
outer loop
vertex 16.5085950707107 17.0923103215797 2.99999999999997
vertex 16.549230956918 17.2163498782042 0.0
vertex 16.549230956918 17.2163498782042 2.99999999999997
endloop
endfacet
facet normal 0.758827983039228 -0.651291096328375 0.0
outer loop
vertex 16.6205860084804 17.3256455481642 0.0
vertex 16.549230956918 17.2163498782042 2.99999999999997
vertex 16.549230956918 17.2163498782042 0.0
endloop
endfacet
facet normal 0.901538086163916 -0.432699756408418 0.0
outer loop
vertex 16.549230956918 17.2163498782042 2.99999999999997
vertex 16.6205860084804 17.3256455481642 0.0
vertex 16.6205860084804 17.3256455481642 2.99999999999997
endloop
endfacet
facet normal 0.564405006892953 -0.825498024342982 0.0
outer loop
vertex 16.7177974965535 17.4127490121715 2.99999999999997
vertex 16.6205860084804 17.3256455481642 0.0
vertex 16.7177974965535 17.4127490121715 0.0
endloop
endfacet
facet normal 0.758827983039228 -0.651291096328375 0.0
outer loop
vertex 16.6205860084804 17.3256455481642 0.0
vertex 16.7177974965535 17.4127490121715 2.99999999999997
vertex 16.6205860084804 17.3256455481642 2.99999999999997
endloop
endfacet
facet normal 0.331518762250296 -0.943448626198603 0.0
outer loop
vertex 16.8342406188748 17.4717243130993 2.99999999999997
vertex 16.7177974965535 17.4127490121715 0.0
vertex 16.8342406188748 17.4717243130993 0.0
endloop
endfacet
facet normal 0.564405006892953 -0.825498024342982 0.0
outer loop
vertex 16.7177974965535 17.4127490121715 0.0
vertex 16.8342406188748 17.4717243130993 2.99999999999997
vertex 16.7177974965535 17.4127490121715 2.99999999999997
endloop
endfacet
facet normal 0.0760400618209317 -0.997104763301364 0.0
outer loop
vertex 16.9619799690895 17.4985523816507 2.99999999999997
vertex 16.8342406188748 17.4717243130993 0.0
vertex 16.9619799690895 17.4985523816507 0.0
endloop
endfacet
facet normal 0.331518762250296 -0.943448626198603 0.0
outer loop
vertex 16.8342406188748 17.4717243130993 0.0
vertex 16.9619799690895 17.4985523816507 2.99999999999997
vertex 16.8342406188748 17.4717243130993 2.99999999999997
endloop
endfacet
facet normal -0.184620643159383 -0.982809858578665 0.0
outer loop
vertex 17.0923103215797 17.4914049292893 2.99999999999997
vertex 16.9619799690895 17.4985523816507 0.0
vertex 17.0923103215797 17.4914049292893 0.0
endloop
endfacet
facet normal 0.0760400618209317 -0.997104763301364 0.0
outer loop
vertex 16.9619799690895 17.4985523816507 0.0
vertex 17.0923103215797 17.4914049292893 2.99999999999997
vertex 16.9619799690895 17.4985523816507 2.99999999999997
endloop
endfacet
facet normal -0.432699756408418 -0.901538086163916 0.0
outer loop
vertex 17.2163498782042 17.450769043082 2.99999999999997
vertex 17.0923103215797 17.4914049292893 0.0
vertex 17.2163498782042 17.450769043082 0.0
endloop
endfacet
facet normal -0.184620643159383 -0.982809858578665 0.0
outer loop
vertex 17.0923103215797 17.4914049292893 0.0
vertex 17.2163498782042 17.450769043082 2.99999999999997
vertex 17.0923103215797 17.4914049292893 2.99999999999997
endloop
endfacet
facet normal -0.651291096328375 -0.758827983039228 0.0
outer loop
vertex 17.3256455481642 17.3794139915196 2.99999999999997
vertex 17.2163498782042 17.450769043082 0.0
vertex 17.3256455481642 17.3794139915196 0.0
endloop
endfacet
facet normal -0.432699756408418 -0.901538086163916 0.0
outer loop
vertex 17.2163498782042 17.450769043082 0.0
vertex 17.3256455481642 17.3794139915196 2.99999999999997
vertex 17.2163498782042 17.450769043082 2.99999999999997
endloop
endfacet
facet normal -0.651291096328375 -0.758827983039228 0.0
outer loop
vertex 17.3256455481642 17.3794139915196 2.99999999999997
vertex 17.4127490121715 17.2822025034465 0.0
vertex 17.4127490121715 17.2822025034465 2.99999999999997
endloop
endfacet
facet normal -0.825498024342982 -0.564405006892953 0.0
outer loop
vertex 17.4127490121715 17.2822025034465 0.0
vertex 17.3256455481642 17.3794139915196 2.99999999999997
vertex 17.3256455481642 17.3794139915196 0.0
endloop
endfacet
facet normal -0.825498024342982 -0.564405006892953 0.0
outer loop
vertex 17.4127490121715 17.2822025034465 2.99999999999997
vertex 17.4717243130993 17.1657593811251 0.0
vertex 17.4717243130993 17.1657593811251 2.99999999999997
endloop
endfacet
facet normal -0.943448626198603 -0.331518762250296 0.0
outer loop
vertex 17.4717243130993 17.1657593811251 0.0
vertex 17.4127490121715 17.2822025034465 2.99999999999997
vertex 17.4127490121715 17.2822025034465 0.0
endloop
endfacet
facet normal -0.943448626198603 -0.331518762250296 0.0
outer loop
vertex 17.4717243130993 17.1657593811251 2.99999999999997
vertex 17.4985523816507 17.0380200309105 0.0
vertex 17.4985523816507 17.0380200309105 2.99999999999997
endloop
endfacet
facet normal -0.997104763301364 -0.0760400618209317 0.0
outer loop
vertex 17.4985523816507 17.0380200309105 0.0
vertex 17.4717243130993 17.1657593811251 2.99999999999997
vertex 17.4717243130993 17.1657593811251 0.0
endloop
endfacet
facet normal -0.997104763301364 -0.0760400618209317 0.0
outer loop
vertex 17.4985523816507 17.0380200309105 2.99999999999997
vertex 17.4914049292893 16.9076896784203 0.0
vertex 17.4914049292893 16.9076896784203 2.99999999999997
endloop
endfacet
facet normal -0.982809858578666 0.18462064315938 0.0
outer loop
vertex 17.4914049292893 16.9076896784203 0.0
vertex 17.4985523816507 17.0380200309105 2.99999999999997
vertex 17.4985523816507 17.0380200309105 0.0
endloop
endfacet
facet normal -0.982809858578666 0.18462064315938 0.0
outer loop
vertex 17.4914049292893 16.9076896784203 2.99999999999997
vertex 17.450769043082 16.7836501217958 0.0
vertex 17.450769043082 16.7836501217958 2.99999999999997
endloop
endfacet
facet normal -0.901538086163914 0.43269975640842 0.0
outer loop
vertex 17.450769043082 16.7836501217958 0.0
vertex 17.4914049292893 16.9076896784203 2.99999999999997
vertex 17.4914049292893 16.9076896784203 0.0
endloop
endfacet
endsolid Rueda superior
