solid Tapa
facet normal 0.0 -1.0 0.0
outer loop
vertex 200.0 0.0 1.0
vertex 0.0 0.0 0.0
vertex 200.0 0.0 0.0
endloop
endfacet
facet normal 0.0 -1.0 0.0
outer loop
vertex 0.0 0.0 0.0
vertex 200.0 0.0 1.0
vertex 0.0 0.0 1.0
endloop
endfacet
facet normal 1.0 0.0 0.0
outer loop
vertex 200.0 40.0000000000001 0.0
vertex 200.0 0.0 1.0
vertex 200.0 0.0 0.0
endloop
endfacet
facet normal 1.0 0.0 0.0
outer loop
vertex 200.0 0.0 1.0
vertex 200.0 40.0000000000001 0.0
vertex 200.0 40.0000000000001 1.0
endloop
endfacet
facet normal 0.0 1.0 0.0
outer loop
vertex 0.0 40.0000000000001 1.0
vertex 200.0 40.0000000000001 0.0
vertex 0.0 40.0000000000001 0.0
endloop
endfacet
facet normal 0.0 1.0 0.0
outer loop
vertex 200.0 40.0000000000001 0.0
vertex 0.0 40.0000000000001 1.0
vertex 200.0 40.0000000000001 1.0
endloop
endfacet
facet normal -1.0 0.0 0.0
outer loop
vertex 0.0 40.0000000000001 1.0
vertex 0.0 0.0 0.0
vertex 0.0 0.0 1.0
endloop
endfacet
facet normal -1.0 0.0 0.0
outer loop
vertex 0.0 0.0 0.0
vertex 0.0 40.0000000000001 1.0
vertex 0.0 40.0000000000001 0.0
endloop
endfacet
facet normal 0.0 0.0 1.0
outer loop
vertex 0.0 0.0 1.0
vertex 2.1 2.1 1.0
vertex 0.0 40.0000000000001 1.0
endloop
endfacet
facet normal 0.0 0.0 1.0
outer loop
vertex 2.1 2.1 1.0
vertex 0.0 0.0 1.0
vertex 200.0 0.0 1.0
endloop
endfacet
facet normal 0.0 0.0 1.0
outer loop
vertex 2.1 2.1 1.0
vertex 200.0 0.0 1.0
vertex 197.9 2.1 1.0
endloop
endfacet
facet normal 0.0 0.0 1.0
outer loop
vertex 197.9 2.1 1.0
vertex 200.0 0.0 1.0
vertex 197.9 37.9000000000001 1.0
endloop
endfacet
facet normal 0.0 0.0 1.0
outer loop
vertex 0.0 40.0000000000001 1.0
vertex 2.1 37.9000000000001 1.0
vertex 200.0 40.0000000000001 1.0
endloop
endfacet
facet normal 0.0 0.0 1.0
outer loop
vertex 2.1 37.9000000000001 1.0
vertex 0.0 40.0000000000001 1.0
vertex 2.1 2.1 1.0
endloop
endfacet
facet normal 0.0 0.0 1.0
outer loop
vertex 200.0 40.0000000000001 1.0
vertex 2.1 37.9000000000001 1.0
vertex 197.9 37.9000000000001 1.0
endloop
endfacet
facet normal 0.0 0.0 1.0
outer loop
vertex 200.0 40.0000000000001 1.0
vertex 197.9 37.9000000000001 1.0
vertex 200.0 0.0 1.0
endloop
endfacet
facet normal -1.0 0.0 0.0
outer loop
vertex 2.1 37.9000000000001 3.0
vertex 2.1 2.1 1.0
vertex 2.1 2.1 3.0
endloop
endfacet
facet normal -1.0 0.0 0.0
outer loop
vertex 2.1 2.1 1.0
vertex 2.1 37.9000000000001 3.0
vertex 2.1 37.9000000000001 1.0
endloop
endfacet
facet normal -0.965925826289068 -0.258819045102521 -2.87346863084316e-017
outer loop
vertex 92.3802733152635 24.1411047216404 3.0
vertex 92.9254600946384 20.0000000000001 1.0
vertex 92.9254600946384 20.0000000000001 3.0
endloop
endfacet
facet normal -1.0 1.78222197912938e-016 5.14206310624344e-019
outer loop
vertex 92.9254600946384 20.0000000000001 1.0
vertex 92.3802733152635 24.1411047216404 3.0
vertex 92.3802733152635 24.1411047216404 1.0
endloop
endfacet
facet normal -0.707106781186548 -0.707106781186548 -7.72575862103123e-017
outer loop
vertex 88.2391685936231 31.3137084989848 3.0
vertex 90.7818665551894 28.0000000000001 1.0
vertex 90.7818665551894 28.0000000000001 3.0
endloop
endfacet
facet normal -0.866025403784438 -0.500000000000001 -5.55111512312579e-017
outer loop
vertex 90.7818665551894 28.0000000000001 1.0
vertex 88.2391685936231 31.3137084989848 3.0
vertex 88.2391685936231 31.3137084989848 1.0
endloop
endfacet
facet normal -0.866025403784438 -0.500000000000001 -5.55111512312579e-017
outer loop
vertex 90.7818665551894 28.0000000000001 3.0
vertex 92.3802733152635 24.1411047216404 1.0
vertex 92.3802733152635 24.1411047216404 3.0
endloop
endfacet
facet normal -0.965925826289068 -0.258819045102521 -2.87346863084316e-017
outer loop
vertex 92.3802733152635 24.1411047216404 1.0
vertex 90.7818665551894 28.0000000000001 3.0
vertex 90.7818665551894 28.0000000000001 1.0
endloop
endfacet
facet normal 0.0 -1.0 0.0
outer loop
vertex 197.9 2.1 3.0
vertex 2.1 2.1 1.0
vertex 197.9 2.1 1.0
endloop
endfacet
facet normal 0.0 -1.0 0.0
outer loop
vertex 2.1 2.1 1.0
vertex 197.9 2.1 3.0
vertex 2.1 2.1 3.0
endloop
endfacet
facet normal 0.0 -1.0 0.0
outer loop
vertex 2.1 2.1 3.0
vertex 197.9 2.1 3.0
vertex 50.7850355059051 2.1 3.0
endloop
endfacet
facet normal 0.0 -1.0 0.0
outer loop
vertex 2.1 2.1 3.0
vertex 50.7850355059051 2.1 3.0
vertex 49.2658846833716 2.1 3.0
endloop
endfacet
facet normal 0.63938026570197 0.768890678725447 8.53640134940655e-017
outer loop
vertex 71.8104179690226 13.8488745701965 1.0
vertex 73.5767372129971 12.7345987679983 5.63993296509579e-015
vertex 71.8104179690226 13.8488745701965 5.63993296509579e-015
endloop
endfacet
facet normal 0.418590360205149 0.90817515400022 1.00827696636354e-016
outer loop
vertex 73.5767372129971 12.7345987679983 5.63993296509579e-015
vertex 71.8104179690226 13.8488745701965 1.0
vertex 73.5767372129971 12.7345987679983 1.0
endloop
endfacet
facet normal 0.866025403784439 -0.499999999999999 -5.55111512312577e-017
outer loop
vertex 63.0690536340873 28.0000000000001 1.0
vertex 61.4706468740133 24.1411047216404 3.0
vertex 61.4706468740133 24.1411047216404 1.0
endloop
endfacet
facet normal 0.965925826289069 -0.25881904510252 -2.87346863084315e-017
outer loop
vertex 61.4706468740133 24.1411047216404 3.0
vertex 63.0690536340873 28.0000000000001 1.0
vertex 63.0690536340873 28.0000000000001 3.0
endloop
endfacet
facet normal 0.965925826289069 -0.25881904510252 -2.87346863084315e-017
outer loop
vertex 61.4706468740133 24.1411047216404 1.0
vertex 60.9254600946384 20.0000000000001 3.0
vertex 60.9254600946384 20.0000000000001 1.0
endloop
endfacet
facet normal 1.0 0.0 5.14206310624066e-019
outer loop
vertex 60.9254600946384 20.0000000000001 3.0
vertex 61.4706468740133 24.1411047216404 1.0
vertex 61.4706468740133 24.1411047216404 3.0
endloop
endfacet
facet normal 1.0 0.0 5.14206310624067e-019
outer loop
vertex 60.9254600946384 20.0000000000001 1.0
vertex 61.4706468740133 15.8588952783597 3.0
vertex 61.4706468740133 15.8588952783597 1.0
endloop
endfacet
facet normal 0.965925826289068 0.258819045102522 2.92488926190557e-017
outer loop
vertex 61.4706468740133 15.8588952783597 3.0
vertex 60.9254600946384 20.0000000000001 1.0
vertex 60.9254600946384 20.0000000000001 3.0
endloop
endfacet
facet normal 0.965925826289068 0.258819045102522 2.92488926190557e-017
outer loop
vertex 61.4706468740133 15.8588952783597 1.0
vertex 63.0690536340873 12.0000000000001 3.0
vertex 63.0690536340873 12.0000000000001 1.0
endloop
endfacet
facet normal 0.866025403784439 0.5 5.55111512312578e-017
outer loop
vertex 63.0690536340873 12.0000000000001 3.0
vertex 61.4706468740133 15.8588952783597 1.0
vertex 61.4706468740133 15.8588952783597 3.0
endloop
endfacet
facet normal 0.866025403784439 0.5 5.55111512312578e-017
outer loop
vertex 63.0690536340873 12.0000000000001 1.0
vertex 65.6117515956536 8.68629150101529 3.0
vertex 65.6117515956536 8.68629150101529 1.0
endloop
endfacet
facet normal 0.707106781186547 0.707106781186548 7.72575862103174e-017
outer loop
vertex 65.6117515956536 8.68629150101529 3.0
vertex 63.0690536340873 12.0000000000001 1.0
vertex 63.0690536340873 12.0000000000001 3.0
endloop
endfacet
facet normal 0.707106781186547 0.707106781186548 7.72575862103174e-017
outer loop
vertex 65.6117515956536 8.68629150101529 3.0
vertex 68.9254600946384 6.14359353944903 1.0
vertex 65.6117515956536 8.68629150101529 1.0
endloop
endfacet
facet normal 0.499999999999998 0.86602540378444 9.49010975953069e-017
outer loop
vertex 68.9254600946384 6.14359353944903 1.0
vertex 65.6117515956536 8.68629150101529 3.0
vertex 68.9254600946384 6.14359353944903 3.0
endloop
endfacet
facet normal -0.866025403784439 0.5 5.55111512312578e-017
outer loop
vertex 90.7818665551894 12.0000000000001 3.0
vertex 88.2391685936231 8.6862915010153 1.0
vertex 88.2391685936231 8.6862915010153 3.0
endloop
endfacet
facet normal -0.707106781186549 0.707106781186546 7.72575862103122e-017
outer loop
vertex 88.2391685936231 8.6862915010153 1.0
vertex 90.7818665551894 12.0000000000001 3.0
vertex 90.7818665551894 12.0000000000001 1.0
endloop
endfacet
facet normal -0.965925826289068 0.258819045102522 2.9248892619056e-017
outer loop
vertex 92.3802733152635 15.8588952783597 3.0
vertex 90.7818665551894 12.0000000000001 1.0
vertex 90.7818665551894 12.0000000000001 3.0
endloop
endfacet
facet normal -0.866025403784439 0.5 5.55111512312578e-017
outer loop
vertex 90.7818665551894 12.0000000000001 1.0
vertex 92.3802733152635 15.8588952783597 3.0
vertex 92.3802733152635 15.8588952783597 1.0
endloop
endfacet
facet normal -1.0 1.78222197912938e-016 5.14206310624344e-019
outer loop
vertex 92.9254600946384 20.0000000000001 3.0
vertex 92.3802733152635 15.8588952783597 1.0
vertex 92.3802733152635 15.8588952783597 3.0
endloop
endfacet
facet normal -0.965925826289068 0.258819045102522 2.9248892619056e-017
outer loop
vertex 92.3802733152635 15.8588952783597 1.0
vertex 92.9254600946384 20.0000000000001 3.0
vertex 92.9254600946384 20.0000000000001 1.0
endloop
endfacet
facet normal -0.0915776912831697 0.99579793455261 1.10555779481448e-016
outer loop
vertex 77.6580816249037 12.0336165235792 1.0
vertex 79.6949699159048 12.4946808628875 5.63993296509579e-015
vertex 77.6580816249037 12.0336165235792 5.63993296509579e-015
endloop
endfacet
facet normal -0.346188727658308 0.938164892139075 1.04157226414778e-016
outer loop
vertex 79.6949699159048 12.4946808628875 5.63993296509579e-015
vertex 77.6580816249037 12.0336165235792 1.0
vertex 79.6949699159048 12.4946808628875 1.0
endloop
endfacet
facet normal -0.346188727658308 0.938164892139075 1.04157226414778e-016
outer loop
vertex 79.6949699159048 12.4946808628875 1.0
vertex 81.543120689418 13.4672202982637 5.63993296509579e-015
vertex 79.6949699159048 12.4946808628875 5.63993296509579e-015
endloop
endfacet
facet normal -0.577207574347458 0.81659746271705 9.06605304958952e-017
outer loop
vertex 81.543120689418 13.4672202982637 5.63993296509579e-015
vertex 79.6949699159048 12.4946808628875 1.0
vertex 81.543120689418 13.4672202982637 1.0
endloop
endfacet
facet normal 0.81659746271705 0.577207574347458 6.40829139028585e-017
outer loop
vertex 70.392680392902 15.3823394052204 5.63993296509579e-015
vertex 71.8104179690226 13.8488745701965 1.0
vertex 71.8104179690226 13.8488745701965 5.63993296509579e-015
endloop
endfacet
facet normal 0.63938026570197 0.768890678725447 8.53640134940655e-017
outer loop
vertex 71.8104179690226 13.8488745701965 1.0
vertex 70.392680392902 15.3823394052204 5.63993296509579e-015
vertex 70.392680392902 15.3823394052204 1.0
endloop
endfacet
facet normal 0.938164892139074 0.346188727658311 3.9489041341434e-017
outer loop
vertex 69.4201409575258 17.2304901787336 5.63993296509579e-015
vertex 70.392680392902 15.3823394052204 1.0
vertex 70.392680392902 15.3823394052204 5.63993296509579e-015
endloop
endfacet
facet normal 0.81659746271705 0.577207574347458 6.40829139028585e-017
outer loop
vertex 70.392680392902 15.3823394052204 1.0
vertex 69.4201409575258 17.2304901787336 5.63993296509579e-015
vertex 69.4201409575258 17.2304901787336 1.0
endloop
endfacet
facet normal 0.99579793455261 0.0915776912831703 1.12215378506986e-017
outer loop
vertex 68.9590766182175 19.2673784697347 4.22994972382185e-015
vertex 69.4201409575258 17.2304901787336 1.0
vertex 69.4201409575258 17.2304901787336 5.63993296509579e-015
endloop
endfacet
facet normal 0.938164892139074 0.346188727658311 3.9489041341434e-017
outer loop
vertex 69.4201409575258 17.2304901787336 1.0
vertex 68.9590766182175 19.2673784697347 4.22994972382185e-015
vertex 68.9590766182175 19.2673784697347 1.0
endloop
endfacet
facet normal 0.985568993360281 -0.169274213413627 -1.87932129207121e-017
outer loop
vertex 69.0409081477561 21.3541937073091 5.63993296509579e-015
vertex 68.9590766182175 19.2673784697347 1.0
vertex 68.9590766182175 19.2673784697347 4.22994972382185e-015
endloop
endfacet
facet normal 0.99579793455261 0.0915776912831703 1.12215378506986e-017
outer loop
vertex 68.9590766182175 19.2673784697347 1.0
vertex 69.0409081477561 21.3541937073091 5.63993296509579e-015
vertex 69.0409081477561 21.3541937073091 1.0
endloop
endfacet
facet normal 0.908175154000219 -0.418590360205152 -4.64728655785898e-017
outer loop
vertex 69.6600588626366 23.3487228816413 5.63993296509579e-015
vertex 69.0409081477561 21.3541937073091 1.0
vertex 69.0409081477561 21.3541937073091 5.63993296509579e-015
endloop
endfacet
facet normal 0.985568993360281 -0.169274213413627 -1.87932129207121e-017
outer loop
vertex 69.0409081477561 21.3541937073091 1.0
vertex 69.6600588626366 23.3487228816413 5.63993296509579e-015
vertex 69.6600588626366 23.3487228816413 1.0
endloop
endfacet
facet normal 0.768890678725446 -0.639380265701971 -7.09854692473278e-017
outer loop
vertex 70.7743346648348 25.1150421256158 5.63993296509579e-015
vertex 69.6600588626366 23.3487228816413 1.0
vertex 69.6600588626366 23.3487228816413 5.63993296509579e-015
endloop
endfacet
facet normal 0.908175154000219 -0.418590360205152 -4.64728655785898e-017
outer loop
vertex 69.6600588626366 23.3487228816413 1.0
vertex 70.7743346648348 25.1150421256158 5.63993296509579e-015
vertex 70.7743346648348 25.1150421256158 1.0
endloop
endfacet
facet normal 0.577207574347459 -0.816597462717049 -9.06605304958951e-017
outer loop
vertex 72.3077994998587 26.5327797017365 1.0
vertex 70.7743346648348 25.1150421256158 5.63993296509579e-015
vertex 72.3077994998587 26.5327797017365 5.63993296509579e-015
endloop
endfacet
facet normal 0.768890678725446 -0.639380265701971 -7.09854692473278e-017
outer loop
vertex 70.7743346648348 25.1150421256158 5.63993296509579e-015
vertex 72.3077994998587 26.5327797017365 1.0
vertex 70.7743346648348 25.1150421256158 1.0
endloop
endfacet
facet normal 0.346188727658309 -0.938164892139075 -1.04157226414778e-016
outer loop
vertex 74.1559502733719 27.5053191371127 1.0
vertex 72.3077994998587 26.5327797017365 5.63993296509579e-015
vertex 74.1559502733719 27.5053191371127 5.63993296509579e-015
endloop
endfacet
facet normal 0.577207574347459 -0.816597462717049 -9.06605304958951e-017
outer loop
vertex 72.3077994998587 26.5327797017365 5.63993296509579e-015
vertex 74.1559502733719 27.5053191371127 1.0
vertex 72.3077994998587 26.5327797017365 1.0
endloop
endfacet
facet normal 0.0915776912831711 -0.99579793455261 -1.10555779481448e-016
outer loop
vertex 76.192838564373 27.9663834764209 1.0
vertex 74.1559502733719 27.5053191371127 5.63993296509579e-015
vertex 76.192838564373 27.9663834764209 5.63993296509579e-015
endloop
endfacet
facet normal 0.346188727658309 -0.938164892139075 -1.04157226414778e-016
outer loop
vertex 74.1559502733719 27.5053191371127 5.63993296509579e-015
vertex 76.192838564373 27.9663834764209 1.0
vertex 74.1559502733719 27.5053191371127 1.0
endloop
endfacet
facet normal -0.169274213413633 -0.98556899336028 -1.09420138878522e-016
outer loop
vertex 78.2796538019474 27.8845519468823 1.0
vertex 76.192838564373 27.9663834764209 5.63993296509579e-015
vertex 78.2796538019474 27.8845519468823 5.63993296509579e-015
endloop
endfacet
facet normal 0.0915776912831711 -0.99579793455261 -1.10555779481448e-016
outer loop
vertex 76.192838564373 27.9663834764209 5.63993296509579e-015
vertex 78.2796538019474 27.8845519468823 1.0
vertex 76.192838564373 27.9663834764209 1.0
endloop
endfacet
facet normal -0.418590360205154 -0.908175154000218 -1.00827696636354e-016
outer loop
vertex 80.2741829762796 27.2654012320018 1.0
vertex 78.2796538019474 27.8845519468823 5.63993296509579e-015
vertex 80.2741829762796 27.2654012320018 5.63993296509579e-015
endloop
endfacet
facet normal -0.169274213413633 -0.98556899336028 -1.09420138878522e-016
outer loop
vertex 78.2796538019474 27.8845519468823 5.63993296509579e-015
vertex 80.2741829762796 27.2654012320018 1.0
vertex 78.2796538019474 27.8845519468823 1.0
endloop
endfacet
facet normal -0.63938026570197 -0.768890678725447 -8.53640134940655e-017
outer loop
vertex 82.0405022202541 26.1511254298036 1.0
vertex 80.2741829762796 27.2654012320018 5.63993296509579e-015
vertex 82.0405022202541 26.1511254298036 5.63993296509579e-015
endloop
endfacet
facet normal -0.418590360205154 -0.908175154000218 -1.00827696636354e-016
outer loop
vertex 80.2741829762796 27.2654012320018 5.63993296509579e-015
vertex 82.0405022202541 26.1511254298036 1.0
vertex 80.2741829762796 27.2654012320018 1.0
endloop
endfacet
facet normal -0.63938026570197 -0.768890678725447 -8.53640134940655e-017
outer loop
vertex 82.0405022202541 26.1511254298036 1.0
vertex 83.4582397963748 24.6176605947797 5.63993296509579e-015
vertex 83.4582397963748 24.6176605947797 1.0
endloop
endfacet
facet normal -0.816597462717049 -0.577207574347459 -6.40829139028585e-017
outer loop
vertex 83.4582397963748 24.6176605947797 5.63993296509579e-015
vertex 82.0405022202541 26.1511254298036 1.0
vertex 82.0405022202541 26.1511254298036 5.63993296509579e-015
endloop
endfacet
facet normal -0.816597462717049 -0.577207574347459 -6.40829139028585e-017
outer loop
vertex 83.4582397963748 24.6176605947797 1.0
vertex 84.430779231751 22.7695098212665 5.63993296509579e-015
vertex 84.430779231751 22.7695098212665 1.0
endloop
endfacet
facet normal -0.938164892139074 -0.346188727658312 -3.84346696311945e-017
outer loop
vertex 84.430779231751 22.7695098212665 5.63993296509579e-015
vertex 83.4582397963748 24.6176605947797 1.0
vertex 83.4582397963748 24.6176605947797 5.63993296509579e-015
endloop
endfacet
facet normal -0.938164892139073 -0.346188727658312 -3.84346696311945e-017
outer loop
vertex 84.430779231751 22.7695098212665 1.0
vertex 84.8918435710593 20.7326215302654 4.22994972382185e-015
vertex 84.8918435710593 20.7326215302654 1.0
endloop
endfacet
facet normal -0.99579793455261 -0.0915776912831703 -9.77993889406681e-018
outer loop
vertex 84.8918435710593 20.7326215302654 4.22994972382185e-015
vertex 84.430779231751 22.7695098212665 1.0
vertex 84.430779231751 22.7695098212665 5.63993296509579e-015
endloop
endfacet
facet normal -0.99579793455261 -0.0915776912831703 -9.77993889406682e-018
outer loop
vertex 84.8918435710593 20.7326215302654 1.0
vertex 84.8100120415206 18.645806292691 5.63993296509579e-015
vertex 84.8100120415206 18.645806292691 1.0
endloop
endfacet
facet normal -0.98556899336028 0.169274213413631 1.77819631520467e-017
outer loop
vertex 84.8100120415206 18.645806292691 5.63993296509579e-015
vertex 84.8918435710593 20.7326215302654 1.0
vertex 84.8918435710593 20.7326215302654 4.22994972382185e-015
endloop
endfacet
facet normal -0.98556899336028 0.169274213413631 1.77819631520467e-017
outer loop
vertex 84.8100120415206 18.645806292691 1.0
vertex 84.1908613266401 16.6512771183588 5.63993296509579e-015
vertex 84.1908613266401 16.6512771183588 1.0
endloop
endfacet
facet normal -0.908175154000218 0.418590360205153 4.50743885635318e-017
outer loop
vertex 84.1908613266401 16.6512771183588 5.63993296509579e-015
vertex 84.8100120415206 18.645806292691 1.0
vertex 84.8100120415206 18.645806292691 5.63993296509579e-015
endloop
endfacet
facet normal -0.908175154000218 0.418590360205153 4.50743885635318e-017
outer loop
vertex 84.1908613266401 16.6512771183588 1.0
vertex 83.0765855244419 14.8849578743843 5.63993296509579e-015
vertex 83.0765855244419 14.8849578743843 1.0
endloop
endfacet
facet normal -0.768890678725446 0.639380265701971 7.09854692473279e-017
outer loop
vertex 83.0765855244419 14.8849578743843 5.63993296509579e-015
vertex 84.1908613266401 16.6512771183588 1.0
vertex 84.1908613266401 16.6512771183588 5.63993296509579e-015
endloop
endfacet
facet normal -0.577207574347458 0.81659746271705 9.06605304958952e-017
outer loop
vertex 81.543120689418 13.4672202982637 1.0
vertex 83.0765855244419 14.8849578743843 5.63993296509579e-015
vertex 81.543120689418 13.4672202982637 5.63993296509579e-015
endloop
endfacet
facet normal -0.768890678725446 0.639380265701971 7.09854692473279e-017
outer loop
vertex 83.0765855244419 14.8849578743843 5.63993296509579e-015
vertex 81.543120689418 13.4672202982637 1.0
vertex 83.0765855244419 14.8849578743843 1.0
endloop
endfacet
facet normal 0.169274213413626 0.985568993360281 1.09420138878522e-016
outer loop
vertex 75.5712663873293 12.1154480531178 1.0
vertex 77.6580816249037 12.0336165235792 5.63993296509579e-015
vertex 75.5712663873293 12.1154480531178 5.63993296509579e-015
endloop
endfacet
facet normal -0.0915776912831697 0.99579793455261 1.10555779481448e-016
outer loop
vertex 77.6580816249037 12.0336165235792 5.63993296509579e-015
vertex 75.5712663873293 12.1154480531178 1.0
vertex 77.6580816249037 12.0336165235792 1.0
endloop
endfacet
facet normal 0.418590360205149 0.90817515400022 1.00827696636354e-016
outer loop
vertex 73.5767372129971 12.7345987679983 1.0
vertex 75.5712663873293 12.1154480531178 5.63993296509579e-015
vertex 73.5767372129971 12.7345987679983 5.63993296509579e-015
endloop
endfacet
facet normal 0.169274213413626 0.985568993360281 1.09420138878522e-016
outer loop
vertex 75.5712663873293 12.1154480531178 5.63993296509579e-015
vertex 73.5767372129971 12.7345987679983 1.0
vertex 75.5712663873293 12.1154480531178 1.0
endloop
endfacet
facet normal 1.0 0.0 0.0
outer loop
vertex 197.9 37.9000000000001 1.0
vertex 197.9 2.1 3.0
vertex 197.9 2.1 1.0
endloop
endfacet
facet normal 1.0 0.0 0.0
outer loop
vertex 197.9 2.1 3.0
vertex 197.9 37.9000000000001 1.0
vertex 197.9 37.9000000000001 3.0
endloop
endfacet
facet normal 0.0 1.0 0.0
outer loop
vertex 2.1 37.9000000000001 3.0
vertex 197.9 37.9000000000001 1.0
vertex 2.1 37.9000000000001 1.0
endloop
endfacet
facet normal 0.0 1.0 0.0
outer loop
vertex 197.9 37.9000000000001 1.0
vertex 2.1 37.9000000000001 3.0
vertex 197.9 37.9000000000001 3.0
endloop
endfacet
facet normal 0.0 1.0 0.0
outer loop
vertex 197.9 37.9000000000001 3.0
vertex 2.1 37.9000000000001 3.0
vertex 49.2658846833715 37.9000000000001 3.0
endloop
endfacet
facet normal 0.0 1.0 0.0
outer loop
vertex 197.9 37.9000000000001 3.0
vertex 49.2658846833715 37.9000000000001 3.0
vertex 50.7850355059052 37.9000000000001 3.0
endloop
endfacet
facet normal -2.48490270470688e-018 3.68686212131888e-017 -1.0
outer loop
vertex 0.0 40.0000000000001 0.0
vertex 74.1559502733719 27.5053191371127 5.63993296509579e-015
vertex 0.0 0.0 0.0
endloop
endfacet
facet normal -2.48490270470688e-018 3.68686212131888e-017 -1.0
outer loop
vertex 74.1559502733719 27.5053191371127 5.63993296509579e-015
vertex 0.0 40.0000000000001 0.0
vertex 76.192838564373 27.9663834764209 5.63993296509579e-015
endloop
endfacet
facet normal -2.48490270470688e-018 3.68686212131888e-017 -1.0
outer loop
vertex 76.192838564373 27.9663834764209 5.63993296509579e-015
vertex 0.0 40.0000000000001 0.0
vertex 200.0 40.0000000000001 0.0
endloop
endfacet
facet normal -2.48490270470688e-018 3.68686212131888e-017 -1.0
outer loop
vertex 0.0 0.0 0.0
vertex 74.1559502733719 27.5053191371127 5.63993296509579e-015
vertex 72.3077994998587 26.5327797017365 5.63993296509579e-015
endloop
endfacet
facet normal -2.48490270470688e-018 3.68686212131888e-017 -1.0
outer loop
vertex 0.0 0.0 0.0
vertex 72.3077994998587 26.5327797017365 5.63993296509579e-015
vertex 70.7743346648348 25.1150421256158 5.63993296509579e-015
endloop
endfacet
facet normal -2.48490270470688e-018 3.68686212131888e-017 -1.0
outer loop
vertex 0.0 0.0 0.0
vertex 70.7743346648348 25.1150421256158 5.63993296509579e-015
vertex 69.6600588626366 23.3487228816413 5.63993296509579e-015
endloop
endfacet
facet normal -2.48490270470688e-018 3.68686212131888e-017 -1.0
outer loop
vertex 0.0 0.0 0.0
vertex 69.6600588626366 23.3487228816413 5.63993296509579e-015
vertex 69.0409081477561 21.3541937073091 5.63993296509579e-015
endloop
endfacet
facet normal -2.48490270470688e-018 3.68686212131888e-017 -1.0
outer loop
vertex 0.0 0.0 0.0
vertex 69.0409081477561 21.3541937073091 5.63993296509579e-015
vertex 68.9590766182175 19.2673784697347 4.22994972382185e-015
endloop
endfacet
facet normal -2.48490270470688e-018 3.68686212131888e-017 -1.0
outer loop
vertex 76.192838564373 27.9663834764209 5.63993296509579e-015
vertex 200.0 40.0000000000001 0.0
vertex 78.2796538019474 27.8845519468823 5.63993296509579e-015
endloop
endfacet
facet normal -2.48490270470688e-018 3.68686212131888e-017 -1.0
outer loop
vertex 78.2796538019474 27.8845519468823 5.63993296509579e-015
vertex 200.0 40.0000000000001 0.0
vertex 80.2741829762796 27.2654012320018 5.63993296509579e-015
endloop
endfacet
facet normal -2.48490270470688e-018 3.68686212131888e-017 -1.0
outer loop
vertex 80.2741829762796 27.2654012320018 5.63993296509579e-015
vertex 200.0 40.0000000000001 0.0
vertex 82.0405022202541 26.1511254298036 5.63993296509579e-015
endloop
endfacet
facet normal -2.48490270470688e-018 3.68686212131888e-017 -1.0
outer loop
vertex 82.0405022202541 26.1511254298036 5.63993296509579e-015
vertex 200.0 40.0000000000001 0.0
vertex 83.4582397963748 24.6176605947797 5.63993296509579e-015
endloop
endfacet
facet normal -2.48490270470688e-018 3.68686212131888e-017 -1.0
outer loop
vertex 83.4582397963748 24.6176605947797 5.63993296509579e-015
vertex 200.0 40.0000000000001 0.0
vertex 84.430779231751 22.7695098212665 5.63993296509579e-015
endloop
endfacet
facet normal -2.48490270470688e-018 3.68686212131888e-017 -1.0
outer loop
vertex 84.430779231751 22.7695098212665 5.63993296509579e-015
vertex 200.0 40.0000000000001 0.0
vertex 84.8918435710593 20.7326215302654 4.22994972382185e-015
endloop
endfacet
facet normal -2.48490270470688e-018 3.68686212131888e-017 -1.0
outer loop
vertex 0.0 0.0 0.0
vertex 75.5712663873293 12.1154480531178 5.63993296509579e-015
vertex 200.0 0.0 0.0
endloop
endfacet
facet normal -2.48490270470688e-018 3.68686212131888e-017 -1.0
outer loop
vertex 75.5712663873293 12.1154480531178 5.63993296509579e-015
vertex 0.0 0.0 0.0
vertex 73.5767372129971 12.7345987679983 5.63993296509579e-015
endloop
endfacet
facet normal -2.48490270470688e-018 3.68686212131888e-017 -1.0
outer loop
vertex 73.5767372129971 12.7345987679983 5.63993296509579e-015
vertex 0.0 0.0 0.0
vertex 71.8104179690226 13.8488745701965 5.63993296509579e-015
endloop
endfacet
facet normal -2.48490270470688e-018 3.68686212131888e-017 -1.0
outer loop
vertex 71.8104179690226 13.8488745701965 5.63993296509579e-015
vertex 0.0 0.0 0.0
vertex 70.392680392902 15.3823394052204 5.63993296509579e-015
endloop
endfacet
facet normal -2.48490270470688e-018 3.68686212131888e-017 -1.0
outer loop
vertex 70.392680392902 15.3823394052204 5.63993296509579e-015
vertex 0.0 0.0 0.0
vertex 69.4201409575258 17.2304901787336 5.63993296509579e-015
endloop
endfacet
facet normal -2.48490270470688e-018 3.68686212131888e-017 -1.0
outer loop
vertex 69.4201409575258 17.2304901787336 5.63993296509579e-015
vertex 0.0 0.0 0.0
vertex 68.9590766182175 19.2673784697347 4.22994972382185e-015
endloop
endfacet
facet normal -2.48490270470688e-018 3.68686212131888e-017 -1.0
outer loop
vertex 200.0 0.0 0.0
vertex 75.5712663873293 12.1154480531178 5.63993296509579e-015
vertex 77.6580816249037 12.0336165235792 5.63993296509579e-015
endloop
endfacet
facet normal -2.48490270470688e-018 3.68686212131888e-017 -1.0
outer loop
vertex 200.0 0.0 0.0
vertex 77.6580816249037 12.0336165235792 5.63993296509579e-015
vertex 79.6949699159048 12.4946808628875 5.63993296509579e-015
endloop
endfacet
facet normal -2.48490270470688e-018 3.68686212131888e-017 -1.0
outer loop
vertex 200.0 0.0 0.0
vertex 79.6949699159048 12.4946808628875 5.63993296509579e-015
vertex 81.543120689418 13.4672202982637 5.63993296509579e-015
endloop
endfacet
facet normal -2.48490270470688e-018 3.68686212131888e-017 -1.0
outer loop
vertex 200.0 0.0 0.0
vertex 81.543120689418 13.4672202982637 5.63993296509579e-015
vertex 83.0765855244419 14.8849578743843 5.63993296509579e-015
endloop
endfacet
facet normal -2.48490270470688e-018 3.68686212131888e-017 -1.0
outer loop
vertex 200.0 0.0 0.0
vertex 83.0765855244419 14.8849578743843 5.63993296509579e-015
vertex 84.1908613266401 16.6512771183588 5.63993296509579e-015
endloop
endfacet
facet normal -2.48490270470688e-018 3.68686212131888e-017 -1.0
outer loop
vertex 200.0 0.0 0.0
vertex 84.1908613266401 16.6512771183588 5.63993296509579e-015
vertex 84.8100120415206 18.645806292691 5.63993296509579e-015
endloop
endfacet
facet normal -2.48490270470688e-018 3.68686212131888e-017 -1.0
outer loop
vertex 200.0 0.0 0.0
vertex 84.8100120415206 18.645806292691 5.63993296509579e-015
vertex 84.8918435710593 20.7326215302654 4.22994972382185e-015
endloop
endfacet
facet normal -2.48490270470688e-018 3.68686212131888e-017 -1.0
outer loop
vertex 200.0 0.0 0.0
vertex 84.8918435710593 20.7326215302654 4.22994972382185e-015
vertex 200.0 40.0000000000001 0.0
endloop
endfacet
facet normal -0.707106781186548 -0.707106781186548 -7.72575862103123e-017
outer loop
vertex 88.2391685936231 31.3137084989848 3.0
vertex 84.9254600946384 33.8564064605511 1.0
vertex 88.2391685936231 31.3137084989848 1.0
endloop
endfacet
facet normal -0.499999999999999 -0.866025403784439 -9.49010975953018e-017
outer loop
vertex 84.9254600946384 33.8564064605511 1.0
vertex 88.2391685936231 31.3137084989848 3.0
vertex 84.9254600946384 33.8564064605511 3.0
endloop
endfacet
facet normal -0.499999999999999 -0.866025403784439 -9.49010975953018e-017
outer loop
vertex 84.9254600946384 33.8564064605511 3.0
vertex 81.0665648162787 35.4548132206251 1.0
vertex 84.9254600946384 33.8564064605511 1.0
endloop
endfacet
facet normal -0.258819045102519 -0.965925826289069 -1.0723930924262e-016
outer loop
vertex 81.0665648162787 35.4548132206251 1.0
vertex 84.9254600946384 33.8564064605511 3.0
vertex 81.0665648162787 35.4548132206251 3.0
endloop
endfacet
facet normal 3.14284744476632e-020 1.04179558218681e-017 1.0
outer loop
vertex 68.9254600946384 6.14359353944903 1.0
vertex 69.4201409575258 17.2304901787336 1.0
vertex 68.9590766182175 19.2673784697347 1.0
endloop
endfacet
facet normal 3.14284744476632e-020 1.04179558218681e-017 1.0
outer loop
vertex 69.4201409575258 17.2304901787336 1.0
vertex 68.9254600946384 6.14359353944903 1.0
vertex 72.784355372998 4.54518677937496 1.0
endloop
endfacet
facet normal 3.14284744476632e-020 1.04179558218681e-017 1.0
outer loop
vertex 69.4201409575258 17.2304901787336 1.0
vertex 72.784355372998 4.54518677937496 1.0
vertex 70.392680392902 15.3823394052204 1.0
endloop
endfacet
facet normal 3.14284744476632e-020 1.04179558218681e-017 1.0
outer loop
vertex 70.392680392902 15.3823394052204 1.0
vertex 72.784355372998 4.54518677937496 1.0
vertex 71.8104179690226 13.8488745701965 1.0
endloop
endfacet
facet normal 3.14284744476632e-020 1.04179558218681e-017 1.0
outer loop
vertex 71.8104179690226 13.8488745701965 1.0
vertex 72.784355372998 4.54518677937496 1.0
vertex 73.5767372129971 12.7345987679983 1.0
endloop
endfacet
facet normal 3.14284744476632e-020 1.04179558218681e-017 1.0
outer loop
vertex 73.5767372129971 12.7345987679983 1.0
vertex 72.784355372998 4.54518677937496 1.0
vertex 76.9254600946384 4.00000000000007 1.0
endloop
endfacet
facet normal 3.14284744476632e-020 1.04179558218681e-017 1.0
outer loop
vertex 73.5767372129971 12.7345987679983 1.0
vertex 76.9254600946384 4.00000000000007 1.0
vertex 75.5712663873293 12.1154480531178 1.0
endloop
endfacet
facet normal 3.14284744476632e-020 1.04179558218681e-017 1.0
outer loop
vertex 75.5712663873293 12.1154480531178 1.0
vertex 76.9254600946384 4.00000000000007 1.0
vertex 77.6580816249037 12.0336165235792 1.0
endloop
endfacet
facet normal 3.14284744476632e-020 1.04179558218681e-017 1.0
outer loop
vertex 77.6580816249037 12.0336165235792 1.0
vertex 76.9254600946384 4.00000000000007 1.0
vertex 81.0665648162787 4.54518677937497 1.0
endloop
endfacet
facet normal 3.14284744476632e-020 1.04179558218681e-017 1.0
outer loop
vertex 77.6580816249037 12.0336165235792 1.0
vertex 81.0665648162787 4.54518677937497 1.0
vertex 79.6949699159048 12.4946808628875 1.0
endloop
endfacet
facet normal 3.14284744476632e-020 1.04179558218681e-017 1.0
outer loop
vertex 79.6949699159048 12.4946808628875 1.0
vertex 81.0665648162787 4.54518677937497 1.0
vertex 81.543120689418 13.4672202982637 1.0
endloop
endfacet
facet normal 3.14284744476632e-020 1.04179558218681e-017 1.0
outer loop
vertex 81.543120689418 13.4672202982637 1.0
vertex 81.0665648162787 4.54518677937497 1.0
vertex 84.9254600946384 6.14359353944904 1.0
endloop
endfacet
facet normal 3.14284744476632e-020 1.04179558218681e-017 1.0
outer loop
vertex 81.543120689418 13.4672202982637 1.0
vertex 84.9254600946384 6.14359353944904 1.0
vertex 83.0765855244419 14.8849578743843 1.0
endloop
endfacet
facet normal 3.14284744476632e-020 1.04179558218681e-017 1.0
outer loop
vertex 83.0765855244419 14.8849578743843 1.0
vertex 84.9254600946384 6.14359353944904 1.0
vertex 84.1908613266401 16.6512771183588 1.0
endloop
endfacet
facet normal 3.14284744476632e-020 1.04179558218681e-017 1.0
outer loop
vertex 84.1908613266401 16.6512771183588 1.0
vertex 84.9254600946384 6.14359353944904 1.0
vertex 84.8100120415206 18.645806292691 1.0
endloop
endfacet
facet normal 3.14284744476632e-020 1.04179558218681e-017 1.0
outer loop
vertex 84.8100120415206 18.645806292691 1.0
vertex 84.9254600946384 6.14359353944904 1.0
vertex 84.8918435710593 20.7326215302654 1.0
endloop
endfacet
facet normal 3.14284744476632e-020 1.04179558218681e-017 1.0
outer loop
vertex 84.8918435710593 20.7326215302654 1.0
vertex 84.9254600946384 6.14359353944904 1.0
vertex 84.9254600946384 33.8564064605511 1.0
endloop
endfacet
facet normal 3.14284744476632e-020 1.04179558218681e-017 1.0
outer loop
vertex 84.9254600946384 33.8564064605511 1.0
vertex 84.9254600946384 6.14359353944904 1.0
vertex 88.2391685936231 31.3137084989848 1.0
endloop
endfacet
facet normal 3.14284744476632e-020 1.04179558218681e-017 1.0
outer loop
vertex 88.2391685936231 31.3137084989848 1.0
vertex 84.9254600946384 6.14359353944904 1.0
vertex 88.2391685936231 8.6862915010153 1.0
endloop
endfacet
facet normal 3.14284744476632e-020 1.04179558218681e-017 1.0
outer loop
vertex 88.2391685936231 31.3137084989848 1.0
vertex 88.2391685936231 8.6862915010153 1.0
vertex 90.7818665551894 28.0000000000001 1.0
endloop
endfacet
facet normal 3.14284744476632e-020 1.04179558218681e-017 1.0
outer loop
vertex 90.7818665551894 28.0000000000001 1.0
vertex 88.2391685936231 8.6862915010153 1.0
vertex 90.7818665551894 12.0000000000001 1.0
endloop
endfacet
facet normal 3.14284744476632e-020 1.04179558218681e-017 1.0
outer loop
vertex 90.7818665551894 28.0000000000001 1.0
vertex 90.7818665551894 12.0000000000001 1.0
vertex 92.3802733152635 15.8588952783597 1.0
endloop
endfacet
facet normal 3.14284744476632e-020 1.04179558218681e-017 1.0
outer loop
vertex 90.7818665551894 28.0000000000001 1.0
vertex 92.3802733152635 15.8588952783597 1.0
vertex 92.3802733152635 24.1411047216404 1.0
endloop
endfacet
facet normal 3.14284744476632e-020 1.04179558218681e-017 1.0
outer loop
vertex 92.3802733152635 24.1411047216404 1.0
vertex 92.3802733152635 15.8588952783597 1.0
vertex 92.9254600946384 20.0000000000001 1.0
endloop
endfacet
facet normal 3.14284744476632e-020 1.04179558218681e-017 1.0
outer loop
vertex 61.4706468740133 15.8588952783597 1.0
vertex 61.4706468740133 24.1411047216404 1.0
vertex 60.9254600946384 20.0000000000001 1.0
endloop
endfacet
facet normal 3.14284744476632e-020 1.04179558218681e-017 1.0
outer loop
vertex 61.4706468740133 24.1411047216404 1.0
vertex 61.4706468740133 15.8588952783597 1.0
vertex 63.0690536340873 12.0000000000001 1.0
endloop
endfacet
facet normal 3.14284744476632e-020 1.04179558218681e-017 1.0
outer loop
vertex 61.4706468740133 24.1411047216404 1.0
vertex 63.0690536340873 12.0000000000001 1.0
vertex 63.0690536340873 28.0000000000001 1.0
endloop
endfacet
facet normal 3.14284744476632e-020 1.04179558218681e-017 1.0
outer loop
vertex 63.0690536340873 28.0000000000001 1.0
vertex 63.0690536340873 12.0000000000001 1.0
vertex 65.6117515956536 31.3137084989848 1.0
endloop
endfacet
facet normal 3.14284744476632e-020 1.04179558218681e-017 1.0
outer loop
vertex 65.6117515956536 31.3137084989848 1.0
vertex 63.0690536340873 12.0000000000001 1.0
vertex 65.6117515956536 8.68629150101529 1.0
endloop
endfacet
facet normal 3.14284744476632e-020 1.04179558218681e-017 1.0
outer loop
vertex 65.6117515956536 31.3137084989848 1.0
vertex 65.6117515956536 8.68629150101529 1.0
vertex 68.9254600946384 6.14359353944903 1.0
endloop
endfacet
facet normal 3.14284744476632e-020 1.04179558218681e-017 1.0
outer loop
vertex 65.6117515956536 31.3137084989848 1.0
vertex 68.9254600946384 6.14359353944903 1.0
vertex 68.9254600946384 33.8564064605511 1.0
endloop
endfacet
facet normal 3.14284744476632e-020 1.04179558218681e-017 1.0
outer loop
vertex 68.9254600946384 33.8564064605511 1.0
vertex 68.9254600946384 6.14359353944903 1.0
vertex 68.9590766182175 19.2673784697347 1.0
endloop
endfacet
facet normal 3.14284744476632e-020 1.04179558218681e-017 1.0
outer loop
vertex 68.9254600946384 33.8564064605511 1.0
vertex 68.9590766182175 19.2673784697347 1.0
vertex 69.0409081477561 21.3541937073091 1.0
endloop
endfacet
facet normal 3.14284744476632e-020 1.04179558218681e-017 1.0
outer loop
vertex 68.9254600946384 33.8564064605511 1.0
vertex 69.0409081477561 21.3541937073091 1.0
vertex 72.784355372998 35.4548132206251 1.0
endloop
endfacet
facet normal 3.14284744476632e-020 1.04179558218681e-017 1.0
outer loop
vertex 72.784355372998 35.4548132206251 1.0
vertex 69.0409081477561 21.3541937073091 1.0
vertex 69.6600588626366 23.3487228816413 1.0
endloop
endfacet
facet normal 3.14284744476632e-020 1.04179558218681e-017 1.0
outer loop
vertex 72.784355372998 35.4548132206251 1.0
vertex 69.6600588626366 23.3487228816413 1.0
vertex 70.7743346648348 25.1150421256158 1.0
endloop
endfacet
facet normal 3.14284744476632e-020 1.04179558218681e-017 1.0
outer loop
vertex 72.784355372998 35.4548132206251 1.0
vertex 70.7743346648348 25.1150421256158 1.0
vertex 72.3077994998587 26.5327797017365 1.0
endloop
endfacet
facet normal 3.14284744476632e-020 1.04179558218681e-017 1.0
outer loop
vertex 72.784355372998 35.4548132206251 1.0
vertex 72.3077994998587 26.5327797017365 1.0
vertex 74.1559502733719 27.5053191371127 1.0
endloop
endfacet
facet normal 3.14284744476632e-020 1.04179558218681e-017 1.0
outer loop
vertex 72.784355372998 35.4548132206251 1.0
vertex 74.1559502733719 27.5053191371127 1.0
vertex 76.9254600946384 36.0000000000001 1.0
endloop
endfacet
facet normal 3.14284744476632e-020 1.04179558218681e-017 1.0
outer loop
vertex 76.9254600946384 36.0000000000001 1.0
vertex 74.1559502733719 27.5053191371127 1.0
vertex 76.192838564373 27.9663834764209 1.0
endloop
endfacet
facet normal 3.14284744476632e-020 1.04179558218681e-017 1.0
outer loop
vertex 76.9254600946384 36.0000000000001 1.0
vertex 76.192838564373 27.9663834764209 1.0
vertex 78.2796538019474 27.8845519468823 1.0
endloop
endfacet
facet normal 3.14284744476632e-020 1.04179558218681e-017 1.0
outer loop
vertex 76.9254600946384 36.0000000000001 1.0
vertex 78.2796538019474 27.8845519468823 1.0
vertex 81.0665648162787 35.4548132206251 1.0
endloop
endfacet
facet normal 3.14284744476632e-020 1.04179558218681e-017 1.0
outer loop
vertex 81.0665648162787 35.4548132206251 1.0
vertex 78.2796538019474 27.8845519468823 1.0
vertex 80.2741829762796 27.2654012320018 1.0
endloop
endfacet
facet normal 3.14284744476632e-020 1.04179558218681e-017 1.0
outer loop
vertex 81.0665648162787 35.4548132206251 1.0
vertex 80.2741829762796 27.2654012320018 1.0
vertex 82.0405022202541 26.1511254298036 1.0
endloop
endfacet
facet normal 3.14284744476632e-020 1.04179558218681e-017 1.0
outer loop
vertex 81.0665648162787 35.4548132206251 1.0
vertex 82.0405022202541 26.1511254298036 1.0
vertex 84.9254600946384 33.8564064605511 1.0
endloop
endfacet
facet normal 3.14284744476632e-020 1.04179558218681e-017 1.0
outer loop
vertex 84.9254600946384 33.8564064605511 1.0
vertex 82.0405022202541 26.1511254298036 1.0
vertex 83.4582397963748 24.6176605947797 1.0
endloop
endfacet
facet normal 3.14284744476632e-020 1.04179558218681e-017 1.0
outer loop
vertex 84.9254600946384 33.8564064605511 1.0
vertex 83.4582397963748 24.6176605947797 1.0
vertex 84.430779231751 22.7695098212665 1.0
endloop
endfacet
facet normal 3.14284744476632e-020 1.04179558218681e-017 1.0
outer loop
vertex 84.9254600946384 33.8564064605511 1.0
vertex 84.430779231751 22.7695098212665 1.0
vertex 84.8918435710593 20.7326215302654 1.0
endloop
endfacet
facet normal -5.25755483843167e-016 -1.0 -1.11022302462516e-016
outer loop
vertex 76.9254600946384 36.0000000000001 3.0
vertex 72.784355372998 35.4548132206251 1.0
vertex 76.9254600946384 36.0000000000001 1.0
endloop
endfacet
facet normal 0.258819045102521 -0.965925826289068 -1.0723930924262e-016
outer loop
vertex 72.784355372998 35.4548132206251 1.0
vertex 76.9254600946384 36.0000000000001 3.0
vertex 72.784355372998 35.4548132206251 3.0
endloop
endfacet
facet normal -0.258819045102519 -0.965925826289069 -1.0723930924262e-016
outer loop
vertex 81.0665648162787 35.4548132206251 3.0
vertex 76.9254600946384 36.0000000000001 1.0
vertex 81.0665648162787 35.4548132206251 1.0
endloop
endfacet
facet normal -5.25755483843167e-016 -1.0 -1.11022302462516e-016
outer loop
vertex 76.9254600946384 36.0000000000001 1.0
vertex 81.0665648162787 35.4548132206251 3.0
vertex 76.9254600946384 36.0000000000001 3.0
endloop
endfacet
facet normal 0.258819045102521 -0.965925826289068 -1.0723930924262e-016
outer loop
vertex 72.784355372998 35.4548132206251 3.0
vertex 68.9254600946384 33.8564064605511 1.0
vertex 72.784355372998 35.4548132206251 1.0
endloop
endfacet
facet normal 0.499999999999999 -0.866025403784439 -9.49010975953075e-017
outer loop
vertex 68.9254600946384 33.8564064605511 1.0
vertex 72.784355372998 35.4548132206251 3.0
vertex 68.9254600946384 33.8564064605511 3.0
endloop
endfacet
facet normal 0.499999999999999 -0.866025403784439 -9.49010975953075e-017
outer loop
vertex 68.9254600946384 33.8564064605511 3.0
vertex 65.6117515956536 31.3137084989848 1.0
vertex 68.9254600946384 33.8564064605511 1.0
endloop
endfacet
facet normal 0.707106781186546 -0.707106781186549 -7.72575862103181e-017
outer loop
vertex 65.6117515956536 31.3137084989848 1.0
vertex 68.9254600946384 33.8564064605511 3.0
vertex 65.6117515956536 31.3137084989848 3.0
endloop
endfacet
facet normal 0.707106781186546 -0.707106781186549 -7.72575862103181e-017
outer loop
vertex 65.6117515956536 31.3137084989848 1.0
vertex 63.0690536340873 28.0000000000001 3.0
vertex 63.0690536340873 28.0000000000001 1.0
endloop
endfacet
facet normal 0.866025403784439 -0.499999999999999 -5.55111512312577e-017
outer loop
vertex 63.0690536340873 28.0000000000001 3.0
vertex 65.6117515956536 31.3137084989848 1.0
vertex 65.6117515956536 31.3137084989848 3.0
endloop
endfacet
facet normal 0.499999999999998 0.86602540378444 9.49010975953069e-017
outer loop
vertex 68.9254600946384 6.14359353944903 3.0
vertex 72.784355372998 4.54518677937496 1.0
vertex 68.9254600946384 6.14359353944903 1.0
endloop
endfacet
facet normal 0.258819045102519 0.965925826289069 1.0723930924262e-016
outer loop
vertex 72.784355372998 4.54518677937496 1.0
vertex 68.9254600946384 6.14359353944903 3.0
vertex 72.784355372998 4.54518677937496 3.0
endloop
endfacet
facet normal 0.258819045102519 0.965925826289069 1.0723930924262e-016
outer loop
vertex 72.784355372998 4.54518677937496 3.0
vertex 76.9254600946384 4.00000000000007 1.0
vertex 72.784355372998 4.54518677937496 1.0
endloop
endfacet
facet normal -1.16735539632974e-015 1.0 1.11022302462516e-016
outer loop
vertex 76.9254600946384 4.00000000000007 1.0
vertex 72.784355372998 4.54518677937496 3.0
vertex 76.9254600946384 4.00000000000007 3.0
endloop
endfacet
facet normal -1.16735539632974e-015 1.0 1.11022302462516e-016
outer loop
vertex 76.9254600946384 4.00000000000007 3.0
vertex 81.0665648162787 4.54518677937497 1.0
vertex 76.9254600946384 4.00000000000007 1.0
endloop
endfacet
facet normal -0.25881904510252 0.965925826289068 1.0723930924262e-016
outer loop
vertex 81.0665648162787 4.54518677937497 1.0
vertex 76.9254600946384 4.00000000000007 3.0
vertex 81.0665648162787 4.54518677937497 3.0
endloop
endfacet
facet normal -0.25881904510252 0.965925826289068 1.0723930924262e-016
outer loop
vertex 81.0665648162787 4.54518677937497 3.0
vertex 84.9254600946384 6.14359353944904 1.0
vertex 81.0665648162787 4.54518677937497 1.0
endloop
endfacet
facet normal -0.5 0.866025403784439 9.49010975953018e-017
outer loop
vertex 84.9254600946384 6.14359353944904 1.0
vertex 81.0665648162787 4.54518677937497 3.0
vertex 84.9254600946384 6.14359353944904 3.0
endloop
endfacet
facet normal -0.5 0.866025403784439 9.49010975953018e-017
outer loop
vertex 84.9254600946384 6.14359353944904 3.0
vertex 88.2391685936231 8.6862915010153 1.0
vertex 84.9254600946384 6.14359353944904 1.0
endloop
endfacet
facet normal -0.707106781186549 0.707106781186546 7.72575862103122e-017
outer loop
vertex 88.2391685936231 8.6862915010153 1.0
vertex 84.9254600946384 6.14359353944904 3.0
vertex 88.2391685936231 8.6862915010153 3.0
endloop
endfacet
facet normal 6.89342739610395e-020 1.01834829280372e-017 1.0
outer loop
vertex 49.2658846833716 2.1 3.0
vertex 2.1 37.9000000000001 3.0
vertex 2.1 2.1 3.0
endloop
endfacet
facet normal 6.89342739610395e-020 1.01834829280372e-017 1.0
outer loop
vertex 2.1 37.9000000000001 3.0
vertex 49.2658846833716 2.1 3.0
vertex 49.2658846833715 37.9000000000001 3.0
endloop
endfacet
facet normal 6.89342739610395e-020 1.01834829280372e-017 1.0
outer loop
vertex 49.2658846833715 37.9000000000001 3.0
vertex 49.2658846833716 2.1 3.0
vertex 50.7850355059052 37.9000000000001 3.0
endloop
endfacet
facet normal 6.89342739610395e-020 1.01834829280372e-017 1.0
outer loop
vertex 50.7850355059052 37.9000000000001 3.0
vertex 49.2658846833716 2.1 3.0
vertex 50.7850355059051 2.1 3.0
endloop
endfacet
facet normal 6.89342739610395e-020 1.01834829280372e-017 1.0
outer loop
vertex 50.7850355059052 37.9000000000001 3.0
vertex 50.7850355059051 2.1 3.0
vertex 63.0690536340873 12.0000000000001 3.0
endloop
endfacet
facet normal 6.89342739610395e-020 1.01834829280372e-017 1.0
outer loop
vertex 63.0690536340873 12.0000000000001 3.0
vertex 50.7850355059051 2.1 3.0
vertex 65.6117515956536 8.68629150101529 3.0
endloop
endfacet
facet normal 6.89342739610395e-020 1.01834829280372e-017 1.0
outer loop
vertex 65.6117515956536 8.68629150101529 3.0
vertex 50.7850355059051 2.1 3.0
vertex 68.9254600946384 6.14359353944903 3.0
endloop
endfacet
facet normal 6.89342739610395e-020 1.01834829280372e-017 1.0
outer loop
vertex 68.9254600946384 6.14359353944903 3.0
vertex 50.7850355059051 2.1 3.0
vertex 72.784355372998 4.54518677937496 3.0
endloop
endfacet
facet normal 6.89342739610395e-020 1.01834829280372e-017 1.0
outer loop
vertex 72.784355372998 4.54518677937496 3.0
vertex 50.7850355059051 2.1 3.0
vertex 76.9254600946384 4.00000000000007 3.0
endloop
endfacet
facet normal 6.89342739610395e-020 1.01834829280372e-017 1.0
outer loop
vertex 76.9254600946384 4.00000000000007 3.0
vertex 50.7850355059051 2.1 3.0
vertex 197.9 2.1 3.0
endloop
endfacet
facet normal 6.89342739610395e-020 1.01834829280372e-017 1.0
outer loop
vertex 50.7850355059052 37.9000000000001 3.0
vertex 63.0690536340873 12.0000000000001 3.0
vertex 61.4706468740133 15.8588952783597 3.0
endloop
endfacet
facet normal 6.89342739610395e-020 1.01834829280372e-017 1.0
outer loop
vertex 50.7850355059052 37.9000000000001 3.0
vertex 61.4706468740133 15.8588952783597 3.0
vertex 60.9254600946384 20.0000000000001 3.0
endloop
endfacet
facet normal 6.89342739610395e-020 1.01834829280372e-017 1.0
outer loop
vertex 76.9254600946384 4.00000000000007 3.0
vertex 197.9 2.1 3.0
vertex 81.0665648162787 4.54518677937497 3.0
endloop
endfacet
facet normal 6.89342739610395e-020 1.01834829280372e-017 1.0
outer loop
vertex 81.0665648162787 4.54518677937497 3.0
vertex 197.9 2.1 3.0
vertex 84.9254600946384 6.14359353944904 3.0
endloop
endfacet
facet normal 6.89342739610395e-020 1.01834829280372e-017 1.0
outer loop
vertex 84.9254600946384 6.14359353944904 3.0
vertex 197.9 2.1 3.0
vertex 88.2391685936231 8.6862915010153 3.0
endloop
endfacet
facet normal 6.89342739610395e-020 1.01834829280372e-017 1.0
outer loop
vertex 88.2391685936231 8.6862915010153 3.0
vertex 197.9 2.1 3.0
vertex 90.7818665551894 12.0000000000001 3.0
endloop
endfacet
facet normal 6.89342739610395e-020 1.01834829280372e-017 1.0
outer loop
vertex 90.7818665551894 12.0000000000001 3.0
vertex 197.9 2.1 3.0
vertex 92.3802733152635 15.8588952783597 3.0
endloop
endfacet
facet normal 6.89342739610395e-020 1.01834829280372e-017 1.0
outer loop
vertex 92.3802733152635 15.8588952783597 3.0
vertex 197.9 2.1 3.0
vertex 92.9254600946384 20.0000000000001 3.0
endloop
endfacet
facet normal 6.89342739610395e-020 1.01834829280372e-017 1.0
outer loop
vertex 50.7850355059052 37.9000000000001 3.0
vertex 76.9254600946384 36.0000000000001 3.0
vertex 197.9 37.9000000000001 3.0
endloop
endfacet
facet normal 6.89342739610395e-020 1.01834829280372e-017 1.0
outer loop
vertex 76.9254600946384 36.0000000000001 3.0
vertex 50.7850355059052 37.9000000000001 3.0
vertex 72.784355372998 35.4548132206251 3.0
endloop
endfacet
facet normal 6.89342739610395e-020 1.01834829280372e-017 1.0
outer loop
vertex 72.784355372998 35.4548132206251 3.0
vertex 50.7850355059052 37.9000000000001 3.0
vertex 68.9254600946384 33.8564064605511 3.0
endloop
endfacet
facet normal 6.89342739610395e-020 1.01834829280372e-017 1.0
outer loop
vertex 68.9254600946384 33.8564064605511 3.0
vertex 50.7850355059052 37.9000000000001 3.0
vertex 65.6117515956536 31.3137084989848 3.0
endloop
endfacet
facet normal 6.89342739610395e-020 1.01834829280372e-017 1.0
outer loop
vertex 65.6117515956536 31.3137084989848 3.0
vertex 50.7850355059052 37.9000000000001 3.0
vertex 63.0690536340873 28.0000000000001 3.0
endloop
endfacet
facet normal 6.89342739610395e-020 1.01834829280372e-017 1.0
outer loop
vertex 63.0690536340873 28.0000000000001 3.0
vertex 50.7850355059052 37.9000000000001 3.0
vertex 61.4706468740133 24.1411047216404 3.0
endloop
endfacet
facet normal 6.89342739610395e-020 1.01834829280372e-017 1.0
outer loop
vertex 61.4706468740133 24.1411047216404 3.0
vertex 50.7850355059052 37.9000000000001 3.0
vertex 60.9254600946384 20.0000000000001 3.0
endloop
endfacet
facet normal 6.89342739610395e-020 1.01834829280372e-017 1.0
outer loop
vertex 197.9 37.9000000000001 3.0
vertex 76.9254600946384 36.0000000000001 3.0
vertex 81.0665648162787 35.4548132206251 3.0
endloop
endfacet
facet normal 6.89342739610395e-020 1.01834829280372e-017 1.0
outer loop
vertex 197.9 37.9000000000001 3.0
vertex 81.0665648162787 35.4548132206251 3.0
vertex 84.9254600946384 33.8564064605511 3.0
endloop
endfacet
facet normal 6.89342739610395e-020 1.01834829280372e-017 1.0
outer loop
vertex 197.9 37.9000000000001 3.0
vertex 84.9254600946384 33.8564064605511 3.0
vertex 88.2391685936231 31.3137084989848 3.0
endloop
endfacet
facet normal 6.89342739610395e-020 1.01834829280372e-017 1.0
outer loop
vertex 197.9 37.9000000000001 3.0
vertex 88.2391685936231 31.3137084989848 3.0
vertex 90.7818665551894 28.0000000000001 3.0
endloop
endfacet
facet normal 6.89342739610395e-020 1.01834829280372e-017 1.0
outer loop
vertex 197.9 37.9000000000001 3.0
vertex 90.7818665551894 28.0000000000001 3.0
vertex 92.3802733152635 24.1411047216404 3.0
endloop
endfacet
facet normal 6.89342739610395e-020 1.01834829280372e-017 1.0
outer loop
vertex 197.9 37.9000000000001 3.0
vertex 92.3802733152635 24.1411047216404 3.0
vertex 92.9254600946384 20.0000000000001 3.0
endloop
endfacet
facet normal 6.89342739610395e-020 1.01834829280372e-017 1.0
outer loop
vertex 197.9 37.9000000000001 3.0
vertex 92.9254600946384 20.0000000000001 3.0
vertex 197.9 2.1 3.0
endloop
endfacet
endsolid Tapa
