solid Tirador Invertido
facet normal 0.0 -1.0 2.45214476743296e-015
outer loop
vertex 9.99999999999999 23.3000000000002 4.09999999999999
vertex 0.0 23.3000000000002 1.8
vertex 9.99999999999999 23.3000000000002 1.8
endloop
endfacet
facet normal 0.0 -1.0 2.45214476743296e-015
outer loop
vertex 0.0 23.3000000000002 1.8
vertex 9.99999999999999 23.3000000000002 4.09999999999999
vertex 0.0 23.3000000000002 4.09999999999999
endloop
endfacet
facet normal 4.22994972382185e-016 8.35545624458652e-015 1.0
outer loop
vertex 9.99999999999999 1.85060300417206e-013 4.10000000000001
vertex 0.0 2.70000000000011 4.09999999999999
vertex 0.0 1.85060300417206e-013 4.10000000000001
endloop
endfacet
facet normal 4.22994972382185e-016 8.35545624458652e-015 1.0
outer loop
vertex 0.0 2.70000000000011 4.09999999999999
vertex 9.99999999999999 1.85060300417206e-013 4.10000000000001
vertex 9.99999999999999 2.70000000000011 4.09999999999998
endloop
endfacet
facet normal 1.0 0.0 0.0
outer loop
vertex 9.99999999999999 26.0000000000002 1.8
vertex 9.99999999999999 23.3000000000002 4.09999999999999
vertex 9.99999999999999 23.3000000000002 1.8
endloop
endfacet
facet normal 1.0 0.0 0.0
outer loop
vertex 9.99999999999999 23.3000000000002 4.09999999999999
vertex 9.99999999999999 26.0000000000002 1.8
vertex 9.99999999999999 26.0000000000002 4.10000000000001
endloop
endfacet
facet normal -1.50891583315673e-016 2.62172669207106e-016 1.0
outer loop
vertex 9.99999999999999 23.3000000000002 4.09999999999999
vertex 0.0 30.7000000000001 4.09999999999999
vertex 0.0 23.3000000000002 4.09999999999999
endloop
endfacet
facet normal -1.50891583315673e-016 2.62172669207106e-016 1.0
outer loop
vertex 0.0 30.7000000000001 4.09999999999999
vertex 9.99999999999999 23.3000000000002 4.09999999999999
vertex 9.99999999999999 26.0000000000002 4.10000000000001
endloop
endfacet
facet normal -1.50891583315673e-016 2.62172669207106e-016 1.0
outer loop
vertex 0.0 30.7000000000001 4.09999999999999
vertex 9.99999999999999 26.0000000000002 4.10000000000001
vertex 45.0 30.7000000000001 4.09999999999999
endloop
endfacet
facet normal -1.50891583315673e-016 2.62172669207106e-016 1.0
outer loop
vertex 45.0 30.7000000000001 4.09999999999999
vertex 9.99999999999999 26.0000000000002 4.10000000000001
vertex 45.0 26.0000000000002 4.10000000000001
endloop
endfacet
facet normal -1.0 0.0 0.0
outer loop
vertex 0.0 30.7000000000001 4.09999999999999
vertex 0.0 23.3000000000002 1.8
vertex 0.0 23.3000000000002 4.09999999999999
endloop
endfacet
facet normal -1.0 0.0 0.0
outer loop
vertex 0.0 2.70000000000011 4.09999999999999
vertex 0.0 1.85060300417206e-013 6.34492458573277e-015
vertex 0.0 1.85060300417206e-013 4.10000000000001
endloop
endfacet
facet normal -1.0 0.0 0.0
outer loop
vertex 0.0 1.85060300417206e-013 6.34492458573277e-015
vertex 0.0 2.70000000000011 4.09999999999999
vertex 0.0 2.70000000000018 1.8
endloop
endfacet
facet normal -1.0 0.0 0.0
outer loop
vertex 0.0 1.85060300417206e-013 6.34492458573277e-015
vertex 0.0 2.70000000000018 1.8
vertex 0.0 30.7000000000001 -7.04991620636974e-016
endloop
endfacet
facet normal -1.0 0.0 0.0
outer loop
vertex 0.0 30.7000000000001 -7.04991620636974e-016
vertex 0.0 2.70000000000018 1.8
vertex 0.0 23.3000000000002 1.8
endloop
endfacet
facet normal -1.0 0.0 0.0
outer loop
vertex 0.0 30.7000000000001 -7.04991620636974e-016
vertex 0.0 23.3000000000002 1.8
vertex 0.0 30.7000000000001 4.09999999999999
endloop
endfacet
facet normal 1.0 2.5507459043994e-016 2.14117054482516e-016
outer loop
vertex 9.99999999999999 1.85060300417206e-013 6.34492458573277e-015
vertex 9.99999999999999 2.70000000000011 1.8
vertex 9.99999999999999 1.85060300417206e-013 4.10000000000001
endloop
endfacet
facet normal 1.0 2.5507459043994e-016 2.14117054482516e-016
outer loop
vertex 9.99999999999999 2.70000000000011 1.8
vertex 9.99999999999999 1.85060300417206e-013 6.34492458573277e-015
vertex 9.99999999999999 10.0000000000001 2.8199664825479e-015
endloop
endfacet
facet normal 1.0 2.5507459043994e-016 2.14117054482516e-016
outer loop
vertex 9.99999999999999 2.70000000000011 1.8
vertex 9.99999999999999 10.0000000000001 2.8199664825479e-015
vertex 9.99999999999999 10.0000000000001 1.79999999999999
endloop
endfacet
facet normal 1.0 2.5507459043994e-016 2.14117054482516e-016
outer loop
vertex 9.99999999999999 2.70000000000011 4.09999999999998
vertex 9.99999999999999 1.85060300417206e-013 4.10000000000001
vertex 9.99999999999999 2.70000000000011 1.8
endloop
endfacet
facet normal 1.12798659301916e-015 1.0 7.35643430229893e-015
outer loop
vertex 0.0 2.70000000000018 1.8
vertex 9.99999999999999 2.70000000000011 4.09999999999998
vertex 9.99999999999999 2.70000000000011 1.8
endloop
endfacet
facet normal 1.12798659301916e-015 1.0 7.35643430229893e-015
outer loop
vertex 9.99999999999999 2.70000000000011 4.09999999999998
vertex 0.0 2.70000000000018 1.8
vertex 0.0 2.70000000000011 4.09999999999999
endloop
endfacet
facet normal 0.0 1.0 -9.99454584134737e-016
outer loop
vertex 0.0 30.7000000000001 4.09999999999999
vertex 45.0 30.7000000000001 -7.04991620636974e-016
vertex 0.0 30.7000000000001 -7.04991620636974e-016
endloop
endfacet
facet normal 0.0 1.0 -9.99454584134737e-016
outer loop
vertex 45.0 30.7000000000001 -7.04991620636974e-016
vertex 0.0 30.7000000000001 4.09999999999999
vertex 45.0 30.7000000000001 4.09999999999999
endloop
endfacet
facet normal 0.0 -1.0 6.87796703060462e-015
outer loop
vertex 9.99999999999999 1.85060300417206e-013 4.10000000000001
vertex 0.0 1.85060300417206e-013 6.34492458573277e-015
vertex 9.99999999999999 1.85060300417206e-013 6.34492458573277e-015
endloop
endfacet
facet normal 0.0 -1.0 6.87796703060462e-015
outer loop
vertex 0.0 1.85060300417206e-013 6.34492458573277e-015
vertex 9.99999999999999 1.85060300417206e-013 4.10000000000001
vertex 0.0 1.85060300417206e-013 4.10000000000001
endloop
endfacet
facet normal -3.94222858476396e-017 1.55739823319698e-016 1.0
outer loop
vertex 9.99999999999999 2.70000000000011 1.8
vertex 0.0 23.3000000000002 1.8
vertex 0.0 2.70000000000018 1.8
endloop
endfacet
facet normal -3.94222858476396e-017 1.55739823319698e-016 1.0
outer loop
vertex 0.0 23.3000000000002 1.8
vertex 9.99999999999999 2.70000000000011 1.8
vertex 9.99999999999999 23.3000000000002 1.8
endloop
endfacet
facet normal -3.94222858476396e-017 1.55739823319698e-016 1.0
outer loop
vertex 9.99999999999999 23.3000000000002 1.8
vertex 9.99999999999999 2.70000000000011 1.8
vertex 9.99999999999999 10.0000000000001 1.79999999999999
endloop
endfacet
facet normal -3.94222858476396e-017 1.55739823319698e-016 1.0
outer loop
vertex 9.99999999999999 23.3000000000002 1.8
vertex 9.99999999999999 10.0000000000001 1.79999999999999
vertex 20.0 26.0000000000002 1.8
endloop
endfacet
facet normal -3.94222858476396e-017 1.55739823319698e-016 1.0
outer loop
vertex 9.99999999999999 23.3000000000002 1.8
vertex 20.0 26.0000000000002 1.8
vertex 9.99999999999999 26.0000000000002 1.8
endloop
endfacet
facet normal 0.847998304005087 -0.529998940003181 7.32297701842639e-017
outer loop
vertex 20.0 26.0000000000002 2.8199664825479e-015
vertex 9.99999999999999 10.0000000000001 1.79999999999999
vertex 9.99999999999999 10.0000000000001 2.8199664825479e-015
endloop
endfacet
facet normal 0.847998304005087 -0.529998940003181 7.32297701842639e-017
outer loop
vertex 9.99999999999999 10.0000000000001 1.79999999999999
vertex 20.0 26.0000000000002 2.8199664825479e-015
vertex 20.0 26.0000000000002 1.8
endloop
endfacet
facet normal 3.72027896994757e-017 -1.0 3.34765062661312e-015
outer loop
vertex 45.0 26.0000000000002 4.10000000000001
vertex 20.0 26.0000000000002 2.8199664825479e-015
vertex 45.0 26.0000000000002 2.8199664825479e-015
endloop
endfacet
facet normal 3.72027896994757e-017 -1.0 3.34765062661312e-015
outer loop
vertex 20.0 26.0000000000002 2.8199664825479e-015
vertex 45.0 26.0000000000002 4.10000000000001
vertex 20.0 26.0000000000002 1.8
endloop
endfacet
facet normal 3.72027896994757e-017 -1.0 3.34765062661312e-015
outer loop
vertex 20.0 26.0000000000002 1.8
vertex 45.0 26.0000000000002 4.10000000000001
vertex 9.99999999999999 26.0000000000002 1.8
endloop
endfacet
facet normal 3.72027896994757e-017 -1.0 3.34765062661312e-015
outer loop
vertex 9.99999999999999 26.0000000000002 1.8
vertex 45.0 26.0000000000002 4.10000000000001
vertex 9.99999999999999 26.0000000000002 4.10000000000001
endloop
endfacet
facet normal 1.0 0.0 0.0
outer loop
vertex 45.0 30.7000000000001 -7.04991620636974e-016
vertex 45.0 26.0000000000002 4.10000000000001
vertex 45.0 26.0000000000002 2.8199664825479e-015
endloop
endfacet
facet normal 1.0 0.0 0.0
outer loop
vertex 45.0 26.0000000000002 4.10000000000001
vertex 45.0 30.7000000000001 -7.04991620636974e-016
vertex 45.0 30.7000000000001 4.09999999999999
endloop
endfacet
facet normal 1.79623295936965e-017 -1.93318121094918e-016 -1.0
outer loop
vertex 0.0 30.7000000000001 -7.04991620636974e-016
vertex 20.0 26.0000000000002 2.8199664825479e-015
vertex 0.0 1.85060300417206e-013 6.34492458573277e-015
endloop
endfacet
facet normal 1.79623295936965e-017 -1.93318121094918e-016 -1.0
outer loop
vertex 20.0 26.0000000000002 2.8199664825479e-015
vertex 0.0 30.7000000000001 -7.04991620636974e-016
vertex 45.0 30.7000000000001 -7.04991620636974e-016
endloop
endfacet
facet normal 1.79623295936965e-017 -1.93318121094918e-016 -1.0
outer loop
vertex 0.0 1.85060300417206e-013 6.34492458573277e-015
vertex 20.0 26.0000000000002 2.8199664825479e-015
vertex 9.99999999999999 10.0000000000001 2.8199664825479e-015
endloop
endfacet
facet normal 1.79623295936965e-017 -1.93318121094918e-016 -1.0
outer loop
vertex 20.0 26.0000000000002 2.8199664825479e-015
vertex 45.0 30.7000000000001 -7.04991620636974e-016
vertex 45.0 26.0000000000002 2.8199664825479e-015
endloop
endfacet
facet normal 1.79623295936965e-017 -1.93318121094918e-016 -1.0
outer loop
vertex 9.99999999999999 1.85060300417206e-013 6.34492458573277e-015
vertex 0.0 1.85060300417206e-013 6.34492458573277e-015
vertex 9.99999999999999 10.0000000000001 2.8199664825479e-015
endloop
endfacet
endsolid Tirador Invertido
