solid Tirador
facet normal 0.0 1.0 2.45214476743296e-015
outer loop
vertex 0.0 7.39999999999998 4.09999999999999
vertex 10.0 7.39999999999998 1.8
vertex 0.0 7.39999999999998 1.8
endloop
endfacet
facet normal 0.0 1.0 2.45214476743296e-015
outer loop
vertex 10.0 7.39999999999998 1.8
vertex 0.0 7.39999999999998 4.09999999999999
vertex 10.0 7.39999999999998 4.09999999999999
endloop
endfacet
facet normal 4.22994972382185e-016 -8.35545624458652e-015 1.0
outer loop
vertex 10.0 28.0 4.09999999999998
vertex 0.0 30.6999999999999 4.10000000000001
vertex 0.0 28.0 4.09999999999999
endloop
endfacet
facet normal 4.22994972382185e-016 -8.35545624458652e-015 1.0
outer loop
vertex 0.0 30.6999999999999 4.10000000000001
vertex 10.0 28.0 4.09999999999998
vertex 10.0 30.6999999999999 4.10000000000001
endloop
endfacet
facet normal 1.0 0.0 0.0
outer loop
vertex 10.0 4.7 1.8
vertex 10.0 7.39999999999998 4.09999999999999
vertex 10.0 4.69999999999999 4.10000000000001
endloop
endfacet
facet normal 1.0 0.0 0.0
outer loop
vertex 10.0 7.39999999999998 4.09999999999999
vertex 10.0 4.7 1.8
vertex 10.0 7.39999999999998 1.8
endloop
endfacet
facet normal -1.50891583315673e-016 -2.62172669207106e-016 1.0
outer loop
vertex 0.0 -4.09776379495241e-015 4.09999999999999
vertex 10.0 4.69999999999999 4.10000000000001
vertex 0.0 7.39999999999998 4.09999999999999
endloop
endfacet
facet normal -1.50891583315673e-016 -2.62172669207106e-016 1.0
outer loop
vertex 10.0 4.69999999999999 4.10000000000001
vertex 0.0 -4.09776379495241e-015 4.09999999999999
vertex 45.0 -4.09776379495241e-015 4.09999999999999
endloop
endfacet
facet normal -1.50891583315673e-016 -2.62172669207106e-016 1.0
outer loop
vertex 10.0 4.69999999999999 4.10000000000001
vertex 45.0 -4.09776379495241e-015 4.09999999999999
vertex 45.0 4.69999999999999 4.10000000000001
endloop
endfacet
facet normal -1.50891583315673e-016 -2.62172669207106e-016 1.0
outer loop
vertex 10.0 7.39999999999998 4.09999999999999
vertex 0.0 7.39999999999998 4.09999999999999
vertex 10.0 4.69999999999999 4.10000000000001
endloop
endfacet
facet normal -1.0 0.0 0.0
outer loop
vertex 0.0 7.39999999999998 4.09999999999999
vertex 0.0 0.0 0.0
vertex 0.0 -4.09776379495241e-015 4.09999999999999
endloop
endfacet
facet normal -1.0 0.0 0.0
outer loop
vertex 0.0 0.0 0.0
vertex 0.0 7.39999999999998 4.09999999999999
vertex 0.0 7.39999999999998 1.8
endloop
endfacet
facet normal -1.0 0.0 0.0
outer loop
vertex 0.0 0.0 0.0
vertex 0.0 7.39999999999998 1.8
vertex 0.0 30.7 6.34492458573277e-015
endloop
endfacet
facet normal -1.0 0.0 0.0
outer loop
vertex 0.0 30.7 6.34492458573277e-015
vertex 0.0 7.39999999999998 1.8
vertex 0.0 28.0 1.80000000000001
endloop
endfacet
facet normal -1.0 0.0 0.0
outer loop
vertex 0.0 30.7 6.34492458573277e-015
vertex 0.0 28.0 1.80000000000001
vertex 0.0 28.0 4.09999999999999
endloop
endfacet
facet normal -1.0 0.0 0.0
outer loop
vertex 0.0 30.7 6.34492458573277e-015
vertex 0.0 28.0 4.09999999999999
vertex 0.0 30.6999999999999 4.10000000000001
endloop
endfacet
facet normal 1.0 -2.55074590439939e-016 2.14117054482516e-016
outer loop
vertex 10.0 30.7 6.34492458573277e-015
vertex 10.0 20.7 1.79999999999999
vertex 10.0 20.7 4.22994972382185e-015
endloop
endfacet
facet normal 1.0 -2.55074590439939e-016 2.14117054482516e-016
outer loop
vertex 10.0 20.7 1.79999999999999
vertex 10.0 30.7 6.34492458573277e-015
vertex 10.0 28.0 1.80000000000001
endloop
endfacet
facet normal 1.0 -2.55074590439939e-016 2.14117054482516e-016
outer loop
vertex 10.0 28.0 1.80000000000001
vertex 10.0 30.7 6.34492458573277e-015
vertex 10.0 28.0 4.09999999999998
endloop
endfacet
facet normal 1.0 -2.55074590439939e-016 2.14117054482516e-016
outer loop
vertex 10.0 28.0 4.09999999999998
vertex 10.0 30.7 6.34492458573277e-015
vertex 10.0 30.6999999999999 4.10000000000001
endloop
endfacet
facet normal 1.12798659301916e-015 -1.0 7.35643430229893e-015
outer loop
vertex 10.0 28.0 4.09999999999998
vertex 0.0 28.0 1.80000000000001
vertex 10.0 28.0 1.80000000000001
endloop
endfacet
facet normal 1.12798659301916e-015 -1.0 7.35643430229893e-015
outer loop
vertex 0.0 28.0 1.80000000000001
vertex 10.0 28.0 4.09999999999998
vertex 0.0 28.0 4.09999999999999
endloop
endfacet
facet normal 0.0 -1.0 -9.99454584134737e-016
outer loop
vertex 45.0 -4.09776379495241e-015 4.09999999999999
vertex 0.0 0.0 0.0
vertex 45.0 0.0 0.0
endloop
endfacet
facet normal 0.0 -1.0 -9.99454584134737e-016
outer loop
vertex 0.0 0.0 0.0
vertex 45.0 -4.09776379495241e-015 4.09999999999999
vertex 0.0 -4.09776379495241e-015 4.09999999999999
endloop
endfacet
facet normal 0.0 1.0 6.87796703060463e-015
outer loop
vertex 0.0 30.6999999999999 4.10000000000001
vertex 10.0 30.7 6.34492458573277e-015
vertex 0.0 30.7 6.34492458573277e-015
endloop
endfacet
facet normal 0.0 1.0 6.87796703060463e-015
outer loop
vertex 10.0 30.7 6.34492458573277e-015
vertex 0.0 30.6999999999999 4.10000000000001
vertex 10.0 30.6999999999999 4.10000000000001
endloop
endfacet
facet normal -3.94222858476396e-017 -1.55739823319698e-016 1.0
outer loop
vertex 20.0 4.7 1.8
vertex 10.0 7.39999999999998 1.8
vertex 10.0 4.7 1.8
endloop
endfacet
facet normal -3.94222858476396e-017 -1.55739823319698e-016 1.0
outer loop
vertex 10.0 7.39999999999998 1.8
vertex 0.0 28.0 1.80000000000001
vertex 0.0 7.39999999999998 1.8
endloop
endfacet
facet normal -3.94222858476396e-017 -1.55739823319698e-016 1.0
outer loop
vertex 0.0 28.0 1.80000000000001
vertex 10.0 7.39999999999998 1.8
vertex 10.0 20.7 1.79999999999999
endloop
endfacet
facet normal -3.94222858476396e-017 -1.55739823319698e-016 1.0
outer loop
vertex 10.0 20.7 1.79999999999999
vertex 10.0 7.39999999999998 1.8
vertex 20.0 4.7 1.8
endloop
endfacet
facet normal -3.94222858476396e-017 -1.55739823319698e-016 1.0
outer loop
vertex 10.0 28.0 1.80000000000001
vertex 0.0 28.0 1.80000000000001
vertex 10.0 20.7 1.79999999999999
endloop
endfacet
facet normal 0.847998304005087 0.529998940003181 7.32297701842639e-017
outer loop
vertex 20.0 4.7 2.8199664825479e-015
vertex 10.0 20.7 1.79999999999999
vertex 20.0 4.7 1.8
endloop
endfacet
facet normal 0.847998304005087 0.529998940003181 7.32297701842639e-017
outer loop
vertex 10.0 20.7 1.79999999999999
vertex 20.0 4.7 2.8199664825479e-015
vertex 10.0 20.7 4.22994972382185e-015
endloop
endfacet
facet normal 3.72027896994757e-017 1.0 3.34765062661312e-015
outer loop
vertex 10.0 4.69999999999999 4.10000000000001
vertex 20.0 4.7 1.8
vertex 10.0 4.7 1.8
endloop
endfacet
facet normal 3.72027896994757e-017 1.0 3.34765062661312e-015
outer loop
vertex 20.0 4.7 1.8
vertex 45.0 4.7 2.8199664825479e-015
vertex 20.0 4.7 2.8199664825479e-015
endloop
endfacet
facet normal 3.72027896994757e-017 1.0 3.34765062661312e-015
outer loop
vertex 45.0 4.7 2.8199664825479e-015
vertex 20.0 4.7 1.8
vertex 45.0 4.69999999999999 4.10000000000001
endloop
endfacet
facet normal 3.72027896994757e-017 1.0 3.34765062661312e-015
outer loop
vertex 45.0 4.69999999999999 4.10000000000001
vertex 20.0 4.7 1.8
vertex 10.0 4.69999999999999 4.10000000000001
endloop
endfacet
facet normal 1.0 0.0 0.0
outer loop
vertex 45.0 0.0 0.0
vertex 45.0 4.69999999999999 4.10000000000001
vertex 45.0 -4.09776379495241e-015 4.09999999999999
endloop
endfacet
facet normal 1.0 0.0 0.0
outer loop
vertex 45.0 4.69999999999999 4.10000000000001
vertex 45.0 0.0 0.0
vertex 45.0 4.7 2.8199664825479e-015
endloop
endfacet
facet normal 1.79623295936965e-017 1.93318121094918e-016 -1.0
outer loop
vertex 10.0 30.7 6.34492458573277e-015
vertex 0.0 0.0 0.0
vertex 0.0 30.7 6.34492458573277e-015
endloop
endfacet
facet normal 1.79623295936965e-017 1.93318121094918e-016 -1.0
outer loop
vertex 0.0 0.0 0.0
vertex 10.0 30.7 6.34492458573277e-015
vertex 10.0 20.7 4.22994972382185e-015
endloop
endfacet
facet normal 1.79623295936965e-017 1.93318121094918e-016 -1.0
outer loop
vertex 0.0 0.0 0.0
vertex 20.0 4.7 2.8199664825479e-015
vertex 45.0 0.0 0.0
endloop
endfacet
facet normal 1.79623295936965e-017 1.93318121094918e-016 -1.0
outer loop
vertex 20.0 4.7 2.8199664825479e-015
vertex 0.0 0.0 0.0
vertex 10.0 20.7 4.22994972382185e-015
endloop
endfacet
facet normal 1.79623295936965e-017 1.93318121094918e-016 -1.0
outer loop
vertex 45.0 0.0 0.0
vertex 20.0 4.7 2.8199664825479e-015
vertex 45.0 4.7 2.8199664825479e-015
endloop
endfacet
endsolid Tirador
