solid Traba
facet normal -0.231441660053107 -0.972848784751187 0.0
outer loop
vertex 28.3471624900797 3.45927317712677 1.90000000000001
vertex 27.9576455248392 3.49940191357548 -7.04991620636974e-016
vertex 28.3471624900797 3.45927317712677 -7.04991620636974e-016
endloop
endfacet
facet normal 0.0282363167739293 -0.999601275716994 0.0
outer loop
vertex 27.9576455248392 3.49940191357548 -7.04991620636974e-016
vertex 28.3471624900797 3.45927317712677 1.90000000000001
vertex 27.9576455248392 3.49940191357548 1.90000000000001
endloop
endfacet
facet normal 0.0282363167739293 -0.999601275716994 0.0
outer loop
vertex 27.9576455248392 3.49940191357548 1.90000000000001
vertex 27.5710149470867 3.43734888749285 -7.04991620636974e-016
vertex 27.9576455248392 3.49940191357548 -7.04991620636974e-016
endloop
endfacet
facet normal 0.285990035275546 -0.958232591661906 0.0
outer loop
vertex 27.5710149470867 3.43734888749285 -7.04991620636974e-016
vertex 27.9576455248392 3.49940191357548 1.90000000000001
vertex 27.5710149470867 3.43734888749285 1.90000000000001
endloop
endfacet
facet normal 5.18225112619714e-017 -4.33103852080694e-017 1.0
outer loop
vertex 30.0000000000001 1.40998324127395e-015 1.90000000000001
vertex 18.433412288021 0.0340741737109332 1.90000000000001
vertex 18.1745932429185 6.34492458573277e-015 1.90000000000001
endloop
endfacet
facet normal 5.18225112619714e-017 -4.33103852080694e-017 1.0
outer loop
vertex 18.433412288021 0.0340741737109332 1.90000000000001
vertex 30.0000000000001 1.40998324127395e-015 1.90000000000001
vertex 18.6745932429185 0.133974596215566 1.90000000000001
endloop
endfacet
facet normal 5.18225112619714e-017 -4.33103852080694e-017 1.0
outer loop
vertex 18.6745932429185 0.133974596215566 1.90000000000001
vertex 30.0000000000001 1.40998324127395e-015 1.90000000000001
vertex 18.8817000241051 0.292893218813455 1.90000000000001
endloop
endfacet
facet normal 5.18225112619714e-017 -4.33103852080694e-017 1.0
outer loop
vertex 18.8817000241051 0.292893218813455 1.90000000000001
vertex 30.0000000000001 1.40998324127395e-015 1.90000000000001
vertex 19.040618646703 0.50000000000001 1.90000000000001
endloop
endfacet
facet normal 5.18225112619714e-017 -4.33103852080694e-017 1.0
outer loop
vertex 19.040618646703 0.50000000000001 1.90000000000001
vertex 30.0000000000001 1.40998324127395e-015 1.90000000000001
vertex 19.1405190692075 0.741180954897481 1.90000000000001
endloop
endfacet
facet normal 5.18225112619714e-017 -4.33103852080694e-017 1.0
outer loop
vertex 19.1405190692075 0.741180954897481 1.90000000000001
vertex 30.0000000000001 1.40998324127395e-015 1.90000000000001
vertex 19.1745932429185 1.0 1.90000000000001
endloop
endfacet
facet normal 5.18225112619714e-017 -4.33103852080694e-017 1.0
outer loop
vertex 19.1745932429185 1.0 1.90000000000001
vertex 30.0000000000001 1.40998324127395e-015 1.90000000000001
vertex 27.6528375099204 0.540726822873213 1.90000000000001
endloop
endfacet
facet normal 5.18225112619714e-017 -4.33103852080694e-017 1.0
outer loop
vertex 19.1745932429185 1.0 1.90000000000001
vertex 27.6528375099204 0.540726822873213 1.90000000000001
vertex 27.2869790946656 0.680302614780171 1.90000000000001
endloop
endfacet
facet normal 5.18225112619714e-017 -4.33103852080694e-017 1.0
outer loop
vertex 19.1745932429185 1.0 1.90000000000001
vertex 27.2869790946656 0.680302614780171 1.90000000000001
vertex 26.9697118757866 0.909813602586812 1.90000000000001
endloop
endfacet
facet normal 5.18225112619714e-017 -4.33103852080694e-017 1.0
outer loop
vertex 19.1745932429185 1.0 1.90000000000001
vertex 26.9697118757866 0.909813602586812 1.90000000000001
vertex 26.0000000000001 2.0 1.90000000000001
endloop
endfacet
facet normal 5.18225112619714e-017 -4.33103852080694e-017 1.0
outer loop
vertex 26.0000000000001 2.0 1.90000000000001
vertex 26.9697118757866 0.909813602586812 1.90000000000001
vertex 26.7226570899411 1.21361899175895 1.90000000000001
endloop
endfacet
facet normal 5.18225112619714e-017 -4.33103852080694e-017 1.0
outer loop
vertex 26.0000000000001 2.0 1.90000000000001
vertex 26.7226570899411 1.21361899175895 1.90000000000001
vertex 26.5626511125072 1.57101494708666 1.90000000000001
endloop
endfacet
facet normal 5.18225112619714e-017 -4.33103852080694e-017 1.0
outer loop
vertex 26.0000000000001 2.0 1.90000000000001
vertex 26.5626511125072 1.57101494708666 1.90000000000001
vertex 26.5005980864246 1.9576455248391 1.90000000000001
endloop
endfacet
facet normal 5.18225112619714e-017 -4.33103852080694e-017 1.0
outer loop
vertex 27.6528375099204 0.540726822873213 1.90000000000001
vertex 30.0000000000001 1.40998324127395e-015 1.90000000000001
vertex 28.042354475161 0.500598086424502 1.90000000000001
endloop
endfacet
facet normal 5.18225112619714e-017 -4.33103852080694e-017 1.0
outer loop
vertex 28.042354475161 0.500598086424502 1.90000000000001
vertex 30.0000000000001 1.40998324127395e-015 1.90000000000001
vertex 28.4289850529134 0.562651112507136 1.90000000000001
endloop
endfacet
facet normal 5.18225112619714e-017 -4.33103852080694e-017 1.0
outer loop
vertex 28.4289850529134 0.562651112507136 1.90000000000001
vertex 30.0000000000001 1.40998324127395e-015 1.90000000000001
vertex 28.7863810082411 0.722657089941063 1.90000000000001
endloop
endfacet
facet normal 5.18225112619714e-017 -4.33103852080694e-017 1.0
outer loop
vertex 28.7863810082411 0.722657089941063 1.90000000000001
vertex 30.0000000000001 1.40998324127395e-015 1.90000000000001
vertex 29.0901863974133 0.969711875786542 1.90000000000001
endloop
endfacet
facet normal 5.18225112619714e-017 -4.33103852080694e-017 1.0
outer loop
vertex 29.0901863974133 0.969711875786542 1.90000000000001
vertex 30.0000000000001 1.40998324127395e-015 1.90000000000001
vertex 29.3196973852199 1.28697909466554 1.90000000000001
endloop
endfacet
facet normal 5.18225112619714e-017 -4.33103852080694e-017 1.0
outer loop
vertex 29.3196973852199 1.28697909466554 1.90000000000001
vertex 30.0000000000001 1.40998324127395e-015 1.90000000000001
vertex 29.4592731771268 1.65283750992032 1.90000000000001
endloop
endfacet
facet normal 5.18225112619714e-017 -4.33103852080694e-017 1.0
outer loop
vertex 29.4592731771268 1.65283750992032 1.90000000000001
vertex 30.0000000000001 1.40998324127395e-015 1.90000000000001
vertex 29.4994019135756 2.04235447516089 1.90000000000001
endloop
endfacet
facet normal 5.18225112619714e-017 -4.33103852080694e-017 1.0
outer loop
vertex 29.4994019135756 2.04235447516089 1.90000000000001
vertex 30.0000000000001 1.40998324127395e-015 1.90000000000001
vertex 30.0 3.99999999999999 1.90000000000001
endloop
endfacet
facet normal 5.18225112619714e-017 -4.33103852080694e-017 1.0
outer loop
vertex 26.0000000000001 4.0 1.90000000000001
vertex 27.5710149470867 3.43734888749285 1.90000000000001
vertex 30.0 3.99999999999999 1.90000000000001
endloop
endfacet
facet normal 5.18225112619714e-017 -4.33103852080694e-017 1.0
outer loop
vertex 27.5710149470867 3.43734888749285 1.90000000000001
vertex 26.0000000000001 4.0 1.90000000000001
vertex 27.213618991759 3.27734291005892 1.90000000000001
endloop
endfacet
facet normal 5.18225112619714e-017 -4.33103852080694e-017 1.0
outer loop
vertex 27.213618991759 3.27734291005892 1.90000000000001
vertex 26.0000000000001 4.0 1.90000000000001
vertex 26.9098136025869 3.03028812421344 1.90000000000001
endloop
endfacet
facet normal 5.18225112619714e-017 -4.33103852080694e-017 1.0
outer loop
vertex 26.9098136025869 3.03028812421344 1.90000000000001
vertex 26.0000000000001 4.0 1.90000000000001
vertex 26.0000000000001 2.0 1.90000000000001
endloop
endfacet
facet normal 5.18225112619714e-017 -4.33103852080694e-017 1.0
outer loop
vertex 26.9098136025869 3.03028812421344 1.90000000000001
vertex 26.0000000000001 2.0 1.90000000000001
vertex 26.6803026147803 2.71302090533444 1.90000000000001
endloop
endfacet
facet normal 5.18225112619714e-017 -4.33103852080694e-017 1.0
outer loop
vertex 26.6803026147803 2.71302090533444 1.90000000000001
vertex 26.0000000000001 2.0 1.90000000000001
vertex 26.5407268228733 2.34716249007967 1.90000000000001
endloop
endfacet
facet normal 5.18225112619714e-017 -4.33103852080694e-017 1.0
outer loop
vertex 26.5407268228733 2.34716249007967 1.90000000000001
vertex 26.0000000000001 2.0 1.90000000000001
vertex 26.5005980864246 1.9576455248391 1.90000000000001
endloop
endfacet
facet normal 5.18225112619714e-017 -4.33103852080694e-017 1.0
outer loop
vertex 30.0 3.99999999999999 1.90000000000001
vertex 27.5710149470867 3.43734888749285 1.90000000000001
vertex 27.9576455248392 3.49940191357548 1.90000000000001
endloop
endfacet
facet normal 5.18225112619714e-017 -4.33103852080694e-017 1.0
outer loop
vertex 30.0 3.99999999999999 1.90000000000001
vertex 27.9576455248392 3.49940191357548 1.90000000000001
vertex 28.3471624900797 3.45927317712677 1.90000000000001
endloop
endfacet
facet normal 5.18225112619714e-017 -4.33103852080694e-017 1.0
outer loop
vertex 30.0 3.99999999999999 1.90000000000001
vertex 28.3471624900797 3.45927317712677 1.90000000000001
vertex 28.7130209053345 3.31969738521982 1.90000000000001
endloop
endfacet
facet normal 5.18225112619714e-017 -4.33103852080694e-017 1.0
outer loop
vertex 30.0 3.99999999999999 1.90000000000001
vertex 28.7130209053345 3.31969738521982 1.90000000000001
vertex 29.0302881242136 3.09018639741318 1.90000000000001
endloop
endfacet
facet normal 5.18225112619714e-017 -4.33103852080694e-017 1.0
outer loop
vertex 30.0 3.99999999999999 1.90000000000001
vertex 29.0302881242136 3.09018639741318 1.90000000000001
vertex 29.277342910059 2.78638100824102 1.90000000000001
endloop
endfacet
facet normal 5.18225112619714e-017 -4.33103852080694e-017 1.0
outer loop
vertex 30.0 3.99999999999999 1.90000000000001
vertex 29.277342910059 2.78638100824102 1.90000000000001
vertex 29.4373488874929 2.42898505291332 1.90000000000001
endloop
endfacet
facet normal 5.18225112619714e-017 -4.33103852080694e-017 1.0
outer loop
vertex 30.0 3.99999999999999 1.90000000000001
vertex 29.4373488874929 2.42898505291332 1.90000000000001
vertex 29.4994019135756 2.04235447516089 1.90000000000001
endloop
endfacet
facet normal 5.18225112619714e-017 -4.33103852080694e-017 1.0
outer loop
vertex 18.433412288021 1.96592582628907 1.90000000000001
vertex 26.0000000000001 2.0 1.90000000000001
vertex 18.1745932429185 2.0 1.90000000000001
endloop
endfacet
facet normal 5.18225112619714e-017 -4.33103852080694e-017 1.0
outer loop
vertex 26.0000000000001 2.0 1.90000000000001
vertex 18.433412288021 1.96592582628907 1.90000000000001
vertex 18.6745932429185 1.86602540378444 1.90000000000001
endloop
endfacet
facet normal 5.18225112619714e-017 -4.33103852080694e-017 1.0
outer loop
vertex 26.0000000000001 2.0 1.90000000000001
vertex 18.6745932429185 1.86602540378444 1.90000000000001
vertex 18.8817000241051 1.70710678118655 1.90000000000001
endloop
endfacet
facet normal 5.18225112619714e-017 -4.33103852080694e-017 1.0
outer loop
vertex 26.0000000000001 2.0 1.90000000000001
vertex 18.8817000241051 1.70710678118655 1.90000000000001
vertex 19.0406186467029 1.5 1.90000000000001
endloop
endfacet
facet normal 5.18225112619714e-017 -4.33103852080694e-017 1.0
outer loop
vertex 26.0000000000001 2.0 1.90000000000001
vertex 19.0406186467029 1.5 1.90000000000001
vertex 19.1405190692076 1.25881904510252 1.90000000000001
endloop
endfacet
facet normal 5.18225112619714e-017 -4.33103852080694e-017 1.0
outer loop
vertex 26.0000000000001 2.0 1.90000000000001
vertex 19.1405190692076 1.25881904510252 1.90000000000001
vertex 19.1745932429185 1.0 1.90000000000001
endloop
endfacet
facet normal 0.285990035275546 -0.958232591661906 0.0
outer loop
vertex 27.5710149470867 3.43734888749285 1.90000000000001
vertex 27.213618991759 3.27734291005892 -7.04991620636974e-016
vertex 27.5710149470867 3.43734888749285 -7.04991620636974e-016
endloop
endfacet
facet normal 0.524254005494024 -0.851561940039285 0.0
outer loop
vertex 27.213618991759 3.27734291005892 -7.04991620636974e-016
vertex 27.5710149470867 3.43734888749285 1.90000000000001
vertex 27.213618991759 3.27734291005892 1.90000000000001
endloop
endfacet
facet normal -1.97470195287535e-014 1.0 2.61732108645141e-031
outer loop
vertex 18.1745932429185 2.0 3.90000000000001
vertex 18.433412288021 1.96592582628907 1.90000000000001
vertex 18.1745932429185 2.0 1.90000000000001
endloop
endfacet
facet normal 0.258819045102507 0.965925826289072 0.0
outer loop
vertex 18.433412288021 1.96592582628907 1.90000000000001
vertex 18.1745932429185 2.0 3.90000000000001
vertex 18.433412288021 1.96592582628907 3.90000000000001
endloop
endfacet
facet normal 0.258819045102507 0.965925826289072 0.0
outer loop
vertex 18.433412288021 1.96592582628907 3.90000000000001
vertex 18.6745932429185 1.86602540378444 1.90000000000001
vertex 18.433412288021 1.96592582628907 1.90000000000001
endloop
endfacet
facet normal 0.500000000000007 0.866025403784434 1.22069302540946e-030
outer loop
vertex 18.6745932429185 1.86602540378444 1.90000000000001
vertex 18.433412288021 1.96592582628907 3.90000000000001
vertex 18.6745932429185 1.86602540378444 3.90000000000001
endloop
endfacet
facet normal 0.500000000000007 0.866025403784434 1.22069302540946e-030
outer loop
vertex 18.6745932429185 1.86602540378444 3.90000000000001
vertex 18.8817000241051 1.70710678118655 1.90000000000001
vertex 18.6745932429185 1.86602540378444 1.90000000000001
endloop
endfacet
facet normal 0.707106781186575 0.70710678118652 1.22069302540947e-030
outer loop
vertex 18.8817000241051 1.70710678118655 1.90000000000001
vertex 18.6745932429185 1.86602540378444 3.90000000000001
vertex 18.8817000241051 1.70710678118655 3.90000000000001
endloop
endfacet
facet normal 0.707106781186575 0.70710678118652 1.22069302540947e-030
outer loop
vertex 18.8817000241051 1.70710678118655 1.90000000000001
vertex 19.0406186467029 1.5 3.90000000000001
vertex 19.0406186467029 1.5 1.90000000000001
endloop
endfacet
facet normal 0.866025403784445 0.499999999999989 -1.85257023180895e-030
outer loop
vertex 19.0406186467029 1.5 3.90000000000001
vertex 18.8817000241051 1.70710678118655 1.90000000000001
vertex 18.8817000241051 1.70710678118655 3.90000000000001
endloop
endfacet
facet normal 0.866025403784445 0.499999999999989 -1.85257023180895e-030
outer loop
vertex 19.0406186467029 1.5 1.90000000000001
vertex 19.1405190692076 1.25881904510252 3.90000000000001
vertex 19.1405190692076 1.25881904510252 1.90000000000001
endloop
endfacet
facet normal 0.965925826289055 0.258819045102569 -1.85257023180896e-030
outer loop
vertex 19.1405190692076 1.25881904510252 3.90000000000001
vertex 19.0406186467029 1.5 1.90000000000001
vertex 19.0406186467029 1.5 3.90000000000001
endloop
endfacet
facet normal 0.965925826289055 0.258819045102569 -1.85257023180896e-030
outer loop
vertex 19.1405190692076 1.25881904510252 1.90000000000001
vertex 19.1745932429185 1.0 3.90000000000001
vertex 19.1745932429185 1.0 1.90000000000001
endloop
endfacet
facet normal 1.0 -2.10747749032052e-014 0.0
outer loop
vertex 19.1745932429185 1.0 3.90000000000001
vertex 19.1405190692076 1.25881904510252 1.90000000000001
vertex 19.1405190692076 1.25881904510252 3.90000000000001
endloop
endfacet
facet normal -0.499999999999987 0.866025403784446 -1.5066856972346e-018
outer loop
vertex 17.6745932429185 1.86602540378443 3.90000000000001
vertex 17.915774197816 1.96592582628907 1.90000000000001
vertex 17.6745932429185 1.86602540378443 1.90000000000001
endloop
endfacet
facet normal -0.258819045102518 0.965925826289069 2.6173210864514e-031
outer loop
vertex 17.915774197816 1.96592582628907 1.90000000000001
vertex 17.6745932429185 1.86602540378443 3.90000000000001
vertex 17.915774197816 1.96592582628907 3.90000000000001
endloop
endfacet
facet normal 1.0 -2.10747749032052e-014 0.0
outer loop
vertex 19.1745932429185 1.0 1.90000000000001
vertex 19.1405190692075 0.741180954897481 3.90000000000001
vertex 19.1405190692075 0.741180954897481 1.90000000000001
endloop
endfacet
facet normal 0.965925826289069 -0.258819045102516 -1.85257023180905e-030
outer loop
vertex 19.1405190692075 0.741180954897481 3.90000000000001
vertex 19.1745932429185 1.0 1.90000000000001
vertex 19.1745932429185 1.0 3.90000000000001
endloop
endfacet
facet normal -0.866025403784439 0.499999999999999 0.0
outer loop
vertex 17.3085678391341 1.49999999999999 3.90000000000001
vertex 17.2086674166294 1.25881904510252 1.90000000000001
vertex 17.2086674166294 1.25881904510252 3.90000000000001
endloop
endfacet
facet normal -0.965925826289072 0.258819045102506 0.0
outer loop
vertex 17.2086674166294 1.25881904510252 1.90000000000001
vertex 17.3085678391341 1.49999999999999 3.90000000000001
vertex 17.3085678391341 1.49999999999999 1.90000000000001
endloop
endfacet
facet normal 0.965925826289069 -0.258819045102516 -1.85257023180905e-030
outer loop
vertex 19.1405190692075 0.741180954897481 1.90000000000001
vertex 19.040618646703 0.50000000000001 3.90000000000001
vertex 19.040618646703 0.50000000000001 1.90000000000001
endloop
endfacet
facet normal 0.86602540378446 -0.499999999999962 -1.92886354589719e-030
outer loop
vertex 19.040618646703 0.50000000000001 3.90000000000001
vertex 19.1405190692075 0.741180954897481 1.90000000000001
vertex 19.1405190692075 0.741180954897481 3.90000000000001
endloop
endfacet
facet normal 0.86602540378446 -0.499999999999962 -1.92886354589719e-030
outer loop
vertex 19.040618646703 0.50000000000001 1.90000000000001
vertex 18.8817000241051 0.292893218813455 3.90000000000001
vertex 18.8817000241051 0.292893218813455 1.90000000000001
endloop
endfacet
facet normal 0.707106781186532 -0.707106781186563 -7.62933140880927e-032
outer loop
vertex 18.8817000241051 0.292893218813455 3.90000000000001
vertex 19.040618646703 0.50000000000001 1.90000000000001
vertex 19.040618646703 0.50000000000001 3.90000000000001
endloop
endfacet
facet normal 0.707106781186532 -0.707106781186563 -7.62933140880927e-032
outer loop
vertex 18.8817000241051 0.292893218813455 3.90000000000001
vertex 18.6745932429185 0.133974596215566 1.90000000000001
vertex 18.8817000241051 0.292893218813455 1.90000000000001
endloop
endfacet
facet normal 0.500000000000001 -0.866025403784438 0.0
outer loop
vertex 18.6745932429185 0.133974596215566 1.90000000000001
vertex 18.8817000241051 0.292893218813455 3.90000000000001
vertex 18.6745932429185 0.133974596215566 3.90000000000001
endloop
endfacet
facet normal -0.258819045102518 0.965925826289069 2.6173210864514e-031
outer loop
vertex 17.915774197816 1.96592582628907 3.90000000000001
vertex 18.1745932429185 2.0 1.90000000000001
vertex 17.915774197816 1.96592582628907 1.90000000000001
endloop
endfacet
facet normal -1.97470195287535e-014 1.0 2.61732108645141e-031
outer loop
vertex 18.1745932429185 2.0 1.90000000000001
vertex 17.915774197816 1.96592582628907 3.90000000000001
vertex 18.1745932429185 2.0 3.90000000000001
endloop
endfacet
facet normal 0.500000000000001 -0.866025403784438 0.0
outer loop
vertex 18.6745932429185 0.133974596215566 3.90000000000001
vertex 18.433412288021 0.0340741737109332 1.90000000000001
vertex 18.6745932429185 0.133974596215566 1.90000000000001
endloop
endfacet
facet normal 0.258819045102522 -0.965925826289068 0.0
outer loop
vertex 18.433412288021 0.0340741737109332 1.90000000000001
vertex 18.6745932429185 0.133974596215566 3.90000000000001
vertex 18.433412288021 0.0340741737109332 3.90000000000001
endloop
endfacet
facet normal 0.258819045102522 -0.965925826289068 0.0
outer loop
vertex 18.433412288021 0.0340741737109332 3.90000000000001
vertex 18.1745932429185 6.34492458573277e-015 1.90000000000001
vertex 18.433412288021 0.0340741737109332 1.90000000000001
endloop
endfacet
facet normal 2.93175515566782e-015 -1.0 1.5995769561534e-019
outer loop
vertex 18.1745932429185 6.34492458573277e-015 1.90000000000001
vertex 18.433412288021 0.0340741737109332 3.90000000000001
vertex 18.1745932429185 6.34492458573277e-015 3.90000000000001
endloop
endfacet
facet normal -0.707106781186541 0.707106781186554 -1.5066856972346e-018
outer loop
vertex 17.467486461732 1.70710678118655 3.90000000000001
vertex 17.6745932429185 1.86602540378443 1.90000000000001
vertex 17.467486461732 1.70710678118655 1.90000000000001
endloop
endfacet
facet normal -0.499999999999987 0.866025403784446 -1.5066856972346e-018
outer loop
vertex 17.6745932429185 1.86602540378443 1.90000000000001
vertex 17.467486461732 1.70710678118655 3.90000000000001
vertex 17.6745932429185 1.86602540378443 3.90000000000001
endloop
endfacet
facet normal 3.154532903059e-015 -1.0 1.59957695615339e-019
outer loop
vertex 18.1745932429185 6.34492458573277e-015 3.90000000000001
vertex 17.915774197816 0.0340741737109346 1.90000000000001
vertex 18.1745932429185 6.34492458573277e-015 1.90000000000001
endloop
endfacet
facet normal -0.258819045102495 -0.965925826289075 1.5995769561534e-019
outer loop
vertex 17.915774197816 0.0340741737109346 1.90000000000001
vertex 18.1745932429185 6.34492458573277e-015 3.90000000000001
vertex 17.915774197816 0.0340741737109346 3.90000000000001
endloop
endfacet
facet normal -8.03330322252176e-016 -2.15251711102905e-016 1.0
outer loop
vertex 17.2086674166294 0.741180954897476 3.90000000000001
vertex 17.2086674166294 1.25881904510252 3.90000000000001
vertex 17.1745932429185 0.999999999999994 3.90000000000001
endloop
endfacet
facet normal -8.03330322252176e-016 -2.15251711102905e-016 1.0
outer loop
vertex 17.2086674166294 1.25881904510252 3.90000000000001
vertex 17.2086674166294 0.741180954897476 3.90000000000001
vertex 17.3085678391341 1.49999999999999 3.90000000000001
endloop
endfacet
facet normal -8.03330322252176e-016 -2.15251711102905e-016 1.0
outer loop
vertex 17.3085678391341 1.49999999999999 3.90000000000001
vertex 17.2086674166294 0.741180954897476 3.90000000000001
vertex 17.3085678391341 0.5 3.90000000000001
endloop
endfacet
facet normal -8.03330322252176e-016 -2.15251711102905e-016 1.0
outer loop
vertex 17.3085678391341 1.49999999999999 3.90000000000001
vertex 17.3085678391341 0.5 3.90000000000001
vertex 17.467486461732 1.70710678118655 3.90000000000001
endloop
endfacet
facet normal -8.03330322252176e-016 -2.15251711102905e-016 1.0
outer loop
vertex 17.467486461732 1.70710678118655 3.90000000000001
vertex 17.3085678391341 0.5 3.90000000000001
vertex 17.467486461732 0.292893218813452 3.90000000000001
endloop
endfacet
facet normal -8.03330322252176e-016 -2.15251711102905e-016 1.0
outer loop
vertex 17.467486461732 1.70710678118655 3.90000000000001
vertex 17.467486461732 0.292893218813452 3.90000000000001
vertex 17.6745932429185 1.86602540378443 3.90000000000001
endloop
endfacet
facet normal -8.03330322252176e-016 -2.15251711102905e-016 1.0
outer loop
vertex 17.6745932429185 1.86602540378443 3.90000000000001
vertex 17.467486461732 0.292893218813452 3.90000000000001
vertex 17.6745932429185 0.133974596215558 3.90000000000001
endloop
endfacet
facet normal -8.03330322252176e-016 -2.15251711102905e-016 1.0
outer loop
vertex 17.6745932429185 1.86602540378443 3.90000000000001
vertex 17.6745932429185 0.133974596215558 3.90000000000001
vertex 17.915774197816 0.0340741737109346 3.90000000000001
endloop
endfacet
facet normal -8.03330322252176e-016 -2.15251711102905e-016 1.0
outer loop
vertex 17.6745932429185 1.86602540378443 3.90000000000001
vertex 17.915774197816 0.0340741737109346 3.90000000000001
vertex 17.915774197816 1.96592582628907 3.90000000000001
endloop
endfacet
facet normal -8.03330322252176e-016 -2.15251711102905e-016 1.0
outer loop
vertex 17.915774197816 1.96592582628907 3.90000000000001
vertex 17.915774197816 0.0340741737109346 3.90000000000001
vertex 18.1745932429185 6.34492458573277e-015 3.90000000000001
endloop
endfacet
facet normal -8.03330322252176e-016 -2.15251711102905e-016 1.0
outer loop
vertex 17.915774197816 1.96592582628907 3.90000000000001
vertex 18.1745932429185 6.34492458573277e-015 3.90000000000001
vertex 18.1745932429185 2.0 3.90000000000001
endloop
endfacet
facet normal -8.03330322252176e-016 -2.15251711102905e-016 1.0
outer loop
vertex 18.1745932429185 2.0 3.90000000000001
vertex 18.1745932429185 6.34492458573277e-015 3.90000000000001
vertex 18.433412288021 1.96592582628907 3.90000000000001
endloop
endfacet
facet normal -8.03330322252176e-016 -2.15251711102905e-016 1.0
outer loop
vertex 18.433412288021 1.96592582628907 3.90000000000001
vertex 18.1745932429185 6.34492458573277e-015 3.90000000000001
vertex 18.433412288021 0.0340741737109332 3.90000000000001
endloop
endfacet
facet normal -8.03330322252176e-016 -2.15251711102905e-016 1.0
outer loop
vertex 18.433412288021 1.96592582628907 3.90000000000001
vertex 18.433412288021 0.0340741737109332 3.90000000000001
vertex 18.6745932429185 0.133974596215566 3.90000000000001
endloop
endfacet
facet normal -8.03330322252176e-016 -2.15251711102905e-016 1.0
outer loop
vertex 18.433412288021 1.96592582628907 3.90000000000001
vertex 18.6745932429185 0.133974596215566 3.90000000000001
vertex 18.6745932429185 1.86602540378444 3.90000000000001
endloop
endfacet
facet normal -8.03330322252176e-016 -2.15251711102905e-016 1.0
outer loop
vertex 18.6745932429185 1.86602540378444 3.90000000000001
vertex 18.6745932429185 0.133974596215566 3.90000000000001
vertex 18.8817000241051 0.292893218813455 3.90000000000001
endloop
endfacet
facet normal -8.03330322252176e-016 -2.15251711102905e-016 1.0
outer loop
vertex 18.6745932429185 1.86602540378444 3.90000000000001
vertex 18.8817000241051 0.292893218813455 3.90000000000001
vertex 18.8817000241051 1.70710678118655 3.90000000000001
endloop
endfacet
facet normal -8.03330322252176e-016 -2.15251711102905e-016 1.0
outer loop
vertex 18.8817000241051 1.70710678118655 3.90000000000001
vertex 18.8817000241051 0.292893218813455 3.90000000000001
vertex 19.040618646703 0.50000000000001 3.90000000000001
endloop
endfacet
facet normal -8.03330322252176e-016 -2.15251711102905e-016 1.0
outer loop
vertex 18.8817000241051 1.70710678118655 3.90000000000001
vertex 19.040618646703 0.50000000000001 3.90000000000001
vertex 19.0406186467029 1.5 3.90000000000001
endloop
endfacet
facet normal -8.03330322252176e-016 -2.15251711102905e-016 1.0
outer loop
vertex 19.0406186467029 1.5 3.90000000000001
vertex 19.040618646703 0.50000000000001 3.90000000000001
vertex 19.1405190692076 1.25881904510252 3.90000000000001
endloop
endfacet
facet normal -8.03330322252176e-016 -2.15251711102905e-016 1.0
outer loop
vertex 19.1405190692076 1.25881904510252 3.90000000000001
vertex 19.040618646703 0.50000000000001 3.90000000000001
vertex 19.1405190692075 0.741180954897481 3.90000000000001
endloop
endfacet
facet normal -8.03330322252176e-016 -2.15251711102905e-016 1.0
outer loop
vertex 19.1405190692076 1.25881904510252 3.90000000000001
vertex 19.1405190692075 0.741180954897481 3.90000000000001
vertex 19.1745932429185 1.0 3.90000000000001
endloop
endfacet
facet normal -0.707106781186541 0.707106781186554 -1.5066856972346e-018
outer loop
vertex 17.467486461732 1.70710678118655 3.90000000000001
vertex 17.3085678391341 1.49999999999999 1.90000000000001
vertex 17.3085678391341 1.49999999999999 3.90000000000001
endloop
endfacet
facet normal -0.866025403784439 0.499999999999999 0.0
outer loop
vertex 17.3085678391341 1.49999999999999 1.90000000000001
vertex 17.467486461732 1.70710678118655 3.90000000000001
vertex 17.467486461732 1.70710678118655 1.90000000000001
endloop
endfacet
facet normal -1.0 1.40998324127395e-014 0.0
outer loop
vertex 2.8199664825479e-014 2.0 1.90000000000001
vertex 0.0 0.0 0.0
vertex 0.0 0.0 1.90000000000001
endloop
endfacet
facet normal -1.0 1.40998324127395e-014 0.0
outer loop
vertex 0.0 0.0 0.0
vertex 2.8199664825479e-014 2.0 1.90000000000001
vertex 2.8199664825479e-014 2.0 0.0
endloop
endfacet
facet normal 3.59200062699857e-016 1.0 -1.25371076703155e-015
outer loop
vertex 2.8199664825479e-014 2.0 0.0
vertex 26.0000000000001 2.0 1.90000000000001
vertex 26.0000000000001 1.99999999999999 -1.40998324127395e-015
endloop
endfacet
facet normal 3.59200062699857e-016 1.0 -1.25371076703155e-015
outer loop
vertex 26.0000000000001 2.0 1.90000000000001
vertex 2.8199664825479e-014 2.0 0.0
vertex 2.8199664825479e-014 2.0 1.90000000000001
endloop
endfacet
facet normal 3.59200062699857e-016 1.0 -1.25371076703155e-015
outer loop
vertex 26.0000000000001 2.0 1.90000000000001
vertex 2.8199664825479e-014 2.0 1.90000000000001
vertex 18.1745932429185 2.0 1.90000000000001
endloop
endfacet
facet normal -1.1988612989097e-016 2.96159737627634e-031 1.0
outer loop
vertex 18.1745932429185 6.34492458573277e-015 1.90000000000001
vertex 2.8199664825479e-014 2.0 1.90000000000001
vertex 0.0 0.0 1.90000000000001
endloop
endfacet
facet normal -1.1988612989097e-016 2.96159737627634e-031 1.0
outer loop
vertex 2.8199664825479e-014 2.0 1.90000000000001
vertex 18.1745932429185 6.34492458573277e-015 1.90000000000001
vertex 17.915774197816 0.0340741737109346 1.90000000000001
endloop
endfacet
facet normal -1.1988612989097e-016 2.96159737627634e-031 1.0
outer loop
vertex 2.8199664825479e-014 2.0 1.90000000000001
vertex 17.915774197816 0.0340741737109346 1.90000000000001
vertex 17.6745932429185 0.133974596215558 1.90000000000001
endloop
endfacet
facet normal -1.1988612989097e-016 2.96159737627634e-031 1.0
outer loop
vertex 2.8199664825479e-014 2.0 1.90000000000001
vertex 17.6745932429185 0.133974596215558 1.90000000000001
vertex 17.467486461732 0.292893218813452 1.90000000000001
endloop
endfacet
facet normal -1.1988612989097e-016 2.96159737627634e-031 1.0
outer loop
vertex 2.8199664825479e-014 2.0 1.90000000000001
vertex 17.467486461732 0.292893218813452 1.90000000000001
vertex 17.3085678391341 0.5 1.90000000000001
endloop
endfacet
facet normal -1.1988612989097e-016 2.96159737627634e-031 1.0
outer loop
vertex 2.8199664825479e-014 2.0 1.90000000000001
vertex 17.3085678391341 0.5 1.90000000000001
vertex 17.2086674166294 0.741180954897476 1.90000000000001
endloop
endfacet
facet normal -1.1988612989097e-016 2.96159737627634e-031 1.0
outer loop
vertex 2.8199664825479e-014 2.0 1.90000000000001
vertex 17.2086674166294 0.741180954897476 1.90000000000001
vertex 17.1745932429185 0.999999999999994 1.90000000000001
endloop
endfacet
facet normal -1.1988612989097e-016 2.96159737627634e-031 1.0
outer loop
vertex 2.8199664825479e-014 2.0 1.90000000000001
vertex 17.915774197816 1.96592582628907 1.90000000000001
vertex 18.1745932429185 2.0 1.90000000000001
endloop
endfacet
facet normal -1.1988612989097e-016 2.96159737627634e-031 1.0
outer loop
vertex 17.915774197816 1.96592582628907 1.90000000000001
vertex 2.8199664825479e-014 2.0 1.90000000000001
vertex 17.6745932429185 1.86602540378443 1.90000000000001
endloop
endfacet
facet normal -1.1988612989097e-016 2.96159737627634e-031 1.0
outer loop
vertex 17.6745932429185 1.86602540378443 1.90000000000001
vertex 2.8199664825479e-014 2.0 1.90000000000001
vertex 17.467486461732 1.70710678118655 1.90000000000001
endloop
endfacet
facet normal -1.1988612989097e-016 2.96159737627634e-031 1.0
outer loop
vertex 17.467486461732 1.70710678118655 1.90000000000001
vertex 2.8199664825479e-014 2.0 1.90000000000001
vertex 17.3085678391341 1.49999999999999 1.90000000000001
endloop
endfacet
facet normal -1.1988612989097e-016 2.96159737627634e-031 1.0
outer loop
vertex 17.3085678391341 1.49999999999999 1.90000000000001
vertex 2.8199664825479e-014 2.0 1.90000000000001
vertex 17.2086674166294 1.25881904510252 1.90000000000001
endloop
endfacet
facet normal -1.1988612989097e-016 2.96159737627634e-031 1.0
outer loop
vertex 17.2086674166294 1.25881904510252 1.90000000000001
vertex 2.8199664825479e-014 2.0 1.90000000000001
vertex 17.1745932429185 0.999999999999994 1.90000000000001
endloop
endfacet
facet normal 5.98154932372637e-017 -1.0 9.56147913060163e-016
outer loop
vertex 30.0000000000001 1.40998324127395e-015 1.90000000000001
vertex 0.0 0.0 0.0
vertex 30.0000000000001 1.40998324127395e-015 -1.40998324127395e-015
endloop
endfacet
facet normal 5.98154932372637e-017 -1.0 9.56147913060163e-016
outer loop
vertex 0.0 0.0 0.0
vertex 30.0000000000001 1.40998324127395e-015 1.90000000000001
vertex 0.0 0.0 1.90000000000001
endloop
endfacet
facet normal 5.98154932372637e-017 -1.0 9.56147913060163e-016
outer loop
vertex 0.0 0.0 1.90000000000001
vertex 30.0000000000001 1.40998324127395e-015 1.90000000000001
vertex 18.1745932429185 6.34492458573277e-015 1.90000000000001
endloop
endfacet
facet normal 1.0 2.8199664825479e-014 -8.60479891219232e-032
outer loop
vertex 30.0 3.99999999999999 -2.11497486191092e-015
vertex 30.0000000000001 1.40998324127395e-015 1.90000000000001
vertex 30.0000000000001 1.40998324127395e-015 -1.40998324127395e-015
endloop
endfacet
facet normal 1.0 2.8199664825479e-014 -8.60479891219232e-032
outer loop
vertex 30.0000000000001 1.40998324127395e-015 1.90000000000001
vertex 30.0 3.99999999999999 -2.11497486191092e-015
vertex 30.0 3.99999999999999 1.90000000000001
endloop
endfacet
facet normal -5.3196976977463e-017 -1.79605635141733e-016 -1.0
outer loop
vertex 26.0000000000001 3.99999999999999 -2.11497486191092e-015
vertex 26.9098136025869 3.03028812421344 -7.04991620636974e-016
vertex 26.0000000000001 1.99999999999999 -1.40998324127395e-015
endloop
endfacet
facet normal -5.3196976977463e-017 -1.79605635141733e-016 -1.0
outer loop
vertex 26.9098136025869 3.03028812421344 -7.04991620636974e-016
vertex 26.0000000000001 3.99999999999999 -2.11497486191092e-015
vertex 27.213618991759 3.27734291005892 -7.04991620636974e-016
endloop
endfacet
facet normal -5.3196976977463e-017 -1.79605635141733e-016 -1.0
outer loop
vertex 27.213618991759 3.27734291005892 -7.04991620636974e-016
vertex 26.0000000000001 3.99999999999999 -2.11497486191092e-015
vertex 27.5710149470867 3.43734888749285 -7.04991620636974e-016
endloop
endfacet
facet normal -5.3196976977463e-017 -1.79605635141733e-016 -1.0
outer loop
vertex 27.5710149470867 3.43734888749285 -7.04991620636974e-016
vertex 26.0000000000001 3.99999999999999 -2.11497486191092e-015
vertex 30.0 3.99999999999999 -2.11497486191092e-015
endloop
endfacet
facet normal -5.3196976977463e-017 -1.79605635141733e-016 -1.0
outer loop
vertex 26.0000000000001 1.99999999999999 -1.40998324127395e-015
vertex 26.9098136025869 3.03028812421344 -7.04991620636974e-016
vertex 26.6803026147803 2.71302090533444 -7.04991620636974e-016
endloop
endfacet
facet normal -5.3196976977463e-017 -1.79605635141733e-016 -1.0
outer loop
vertex 26.0000000000001 1.99999999999999 -1.40998324127395e-015
vertex 26.6803026147803 2.71302090533444 -7.04991620636974e-016
vertex 26.5407268228733 2.34716249007967 -7.04991620636974e-016
endloop
endfacet
facet normal -5.3196976977463e-017 -1.79605635141733e-016 -1.0
outer loop
vertex 26.0000000000001 1.99999999999999 -1.40998324127395e-015
vertex 26.5407268228733 2.34716249007967 -7.04991620636974e-016
vertex 26.5005980864246 1.9576455248391 -7.04991620636974e-016
endloop
endfacet
facet normal -5.3196976977463e-017 -1.79605635141733e-016 -1.0
outer loop
vertex 27.5710149470867 3.43734888749285 -7.04991620636974e-016
vertex 30.0 3.99999999999999 -2.11497486191092e-015
vertex 27.9576455248392 3.49940191357548 -7.04991620636974e-016
endloop
endfacet
facet normal -5.3196976977463e-017 -1.79605635141733e-016 -1.0
outer loop
vertex 27.9576455248392 3.49940191357548 -7.04991620636974e-016
vertex 30.0 3.99999999999999 -2.11497486191092e-015
vertex 28.3471624900797 3.45927317712677 -7.04991620636974e-016
endloop
endfacet
facet normal -5.3196976977463e-017 -1.79605635141733e-016 -1.0
outer loop
vertex 28.3471624900797 3.45927317712677 -7.04991620636974e-016
vertex 30.0 3.99999999999999 -2.11497486191092e-015
vertex 28.7130209053345 3.31969738521982 -7.04991620636974e-016
endloop
endfacet
facet normal -5.3196976977463e-017 -1.79605635141733e-016 -1.0
outer loop
vertex 28.7130209053345 3.31969738521982 -7.04991620636974e-016
vertex 30.0 3.99999999999999 -2.11497486191092e-015
vertex 29.0302881242136 3.09018639741318 -7.04991620636974e-016
endloop
endfacet
facet normal -5.3196976977463e-017 -1.79605635141733e-016 -1.0
outer loop
vertex 29.0302881242136 3.09018639741318 -7.04991620636974e-016
vertex 30.0 3.99999999999999 -2.11497486191092e-015
vertex 29.277342910059 2.78638100824102 -7.04991620636974e-016
endloop
endfacet
facet normal -5.3196976977463e-017 -1.79605635141733e-016 -1.0
outer loop
vertex 29.277342910059 2.78638100824102 -7.04991620636974e-016
vertex 30.0 3.99999999999999 -2.11497486191092e-015
vertex 29.4373488874929 2.42898505291332 -7.04991620636974e-016
endloop
endfacet
facet normal -5.3196976977463e-017 -1.79605635141733e-016 -1.0
outer loop
vertex 29.4373488874929 2.42898505291332 -7.04991620636974e-016
vertex 30.0 3.99999999999999 -2.11497486191092e-015
vertex 29.4994019135756 2.04235447516089 -7.04991620636974e-016
endloop
endfacet
facet normal -5.3196976977463e-017 -1.79605635141733e-016 -1.0
outer loop
vertex 2.8199664825479e-014 2.0 0.0
vertex 30.0000000000001 1.40998324127395e-015 -1.40998324127395e-015
vertex 0.0 0.0 0.0
endloop
endfacet
facet normal -5.3196976977463e-017 -1.79605635141733e-016 -1.0
outer loop
vertex 30.0000000000001 1.40998324127395e-015 -1.40998324127395e-015
vertex 2.8199664825479e-014 2.0 0.0
vertex 27.6528375099204 0.540726822873213 -7.04991620636974e-016
endloop
endfacet
facet normal -5.3196976977463e-017 -1.79605635141733e-016 -1.0
outer loop
vertex 27.6528375099204 0.540726822873213 -7.04991620636974e-016
vertex 2.8199664825479e-014 2.0 0.0
vertex 27.2869790946656 0.680302614780171 -7.04991620636974e-016
endloop
endfacet
facet normal -5.3196976977463e-017 -1.79605635141733e-016 -1.0
outer loop
vertex 27.2869790946656 0.680302614780171 -7.04991620636974e-016
vertex 2.8199664825479e-014 2.0 0.0
vertex 26.9697118757866 0.909813602586812 -7.04991620636974e-016
endloop
endfacet
facet normal -5.3196976977463e-017 -1.79605635141733e-016 -1.0
outer loop
vertex 26.9697118757866 0.909813602586812 -7.04991620636974e-016
vertex 2.8199664825479e-014 2.0 0.0
vertex 26.0000000000001 1.99999999999999 -1.40998324127395e-015
endloop
endfacet
facet normal -5.3196976977463e-017 -1.79605635141733e-016 -1.0
outer loop
vertex 26.9697118757866 0.909813602586812 -7.04991620636974e-016
vertex 26.0000000000001 1.99999999999999 -1.40998324127395e-015
vertex 26.7226570899411 1.21361899175895 -7.04991620636974e-016
endloop
endfacet
facet normal -5.3196976977463e-017 -1.79605635141733e-016 -1.0
outer loop
vertex 26.7226570899411 1.21361899175895 -7.04991620636974e-016
vertex 26.0000000000001 1.99999999999999 -1.40998324127395e-015
vertex 26.5626511125072 1.57101494708666 -7.04991620636974e-016
endloop
endfacet
facet normal -5.3196976977463e-017 -1.79605635141733e-016 -1.0
outer loop
vertex 26.5626511125072 1.57101494708666 -7.04991620636974e-016
vertex 26.0000000000001 1.99999999999999 -1.40998324127395e-015
vertex 26.5005980864246 1.9576455248391 -7.04991620636974e-016
endloop
endfacet
facet normal -5.3196976977463e-017 -1.79605635141733e-016 -1.0
outer loop
vertex 30.0000000000001 1.40998324127395e-015 -1.40998324127395e-015
vertex 27.6528375099204 0.540726822873213 -7.04991620636974e-016
vertex 28.042354475161 0.500598086424502 -7.04991620636974e-016
endloop
endfacet
facet normal -5.3196976977463e-017 -1.79605635141733e-016 -1.0
outer loop
vertex 30.0000000000001 1.40998324127395e-015 -1.40998324127395e-015
vertex 28.042354475161 0.500598086424502 -7.04991620636974e-016
vertex 28.4289850529134 0.562651112507136 -7.04991620636974e-016
endloop
endfacet
facet normal -5.3196976977463e-017 -1.79605635141733e-016 -1.0
outer loop
vertex 30.0000000000001 1.40998324127395e-015 -1.40998324127395e-015
vertex 28.4289850529134 0.562651112507136 -7.04991620636974e-016
vertex 28.7863810082411 0.722657089941063 -7.04991620636974e-016
endloop
endfacet
facet normal -5.3196976977463e-017 -1.79605635141733e-016 -1.0
outer loop
vertex 30.0000000000001 1.40998324127395e-015 -1.40998324127395e-015
vertex 28.7863810082411 0.722657089941063 -7.04991620636974e-016
vertex 29.0901863974133 0.969711875786542 -7.04991620636974e-016
endloop
endfacet
facet normal -5.3196976977463e-017 -1.79605635141733e-016 -1.0
outer loop
vertex 30.0000000000001 1.40998324127395e-015 -1.40998324127395e-015
vertex 29.0901863974133 0.969711875786542 -7.04991620636974e-016
vertex 29.3196973852199 1.28697909466554 -7.04991620636974e-016
endloop
endfacet
facet normal -5.3196976977463e-017 -1.79605635141733e-016 -1.0
outer loop
vertex 30.0000000000001 1.40998324127395e-015 -1.40998324127395e-015
vertex 29.3196973852199 1.28697909466554 -7.04991620636974e-016
vertex 29.4592731771268 1.65283750992032 -7.04991620636974e-016
endloop
endfacet
facet normal -5.3196976977463e-017 -1.79605635141733e-016 -1.0
outer loop
vertex 30.0000000000001 1.40998324127395e-015 -1.40998324127395e-015
vertex 29.4592731771268 1.65283750992032 -7.04991620636974e-016
vertex 29.4994019135756 2.04235447516089 -7.04991620636974e-016
endloop
endfacet
facet normal -5.3196976977463e-017 -1.79605635141733e-016 -1.0
outer loop
vertex 30.0000000000001 1.40998324127395e-015 -1.40998324127395e-015
vertex 29.4994019135756 2.04235447516089 -7.04991620636974e-016
vertex 30.0 3.99999999999999 -2.11497486191092e-015
endloop
endfacet
facet normal -1.0 -2.8199664825479e-015 2.96838577110304e-015
outer loop
vertex 26.0000000000001 2.0 1.90000000000001
vertex 26.0000000000001 3.99999999999999 -2.11497486191092e-015
vertex 26.0000000000001 1.99999999999999 -1.40998324127395e-015
endloop
endfacet
facet normal -1.0 -2.8199664825479e-015 2.96838577110304e-015
outer loop
vertex 26.0000000000001 3.99999999999999 -2.11497486191092e-015
vertex 26.0000000000001 2.0 1.90000000000001
vertex 26.0000000000001 4.0 1.90000000000001
endloop
endfacet
facet normal -1.29771123594534e-031 1.0 -1.48419288555152e-015
outer loop
vertex 26.0000000000001 4.0 1.90000000000001
vertex 30.0 3.99999999999999 -2.11497486191092e-015
vertex 26.0000000000001 3.99999999999999 -2.11497486191092e-015
endloop
endfacet
facet normal -1.29771123594534e-031 1.0 -1.48419288555152e-015
outer loop
vertex 30.0 3.99999999999999 -2.11497486191092e-015
vertex 26.0000000000001 4.0 1.90000000000001
vertex 30.0 3.99999999999999 1.90000000000001
endloop
endfacet
facet normal -0.0282363167739341 0.999601275716994 0.0
outer loop
vertex 28.042354475161 0.500598086424502 1.90000000000001
vertex 28.4289850529134 0.562651112507136 -7.04991620636974e-016
vertex 28.042354475161 0.500598086424502 -7.04991620636974e-016
endloop
endfacet
facet normal -0.285990035275558 0.958232591661902 0.0
outer loop
vertex 28.4289850529134 0.562651112507136 -7.04991620636974e-016
vertex 28.042354475161 0.500598086424502 1.90000000000001
vertex 28.4289850529134 0.562651112507136 1.90000000000001
endloop
endfacet
facet normal -0.965925826289072 0.258819045102506 0.0
outer loop
vertex 17.2086674166294 1.25881904510252 3.90000000000001
vertex 17.1745932429185 0.999999999999994 1.90000000000001
vertex 17.1745932429185 0.999999999999994 3.90000000000001
endloop
endfacet
facet normal -1.0 -2.22777747391173e-014 0.0
outer loop
vertex 17.1745932429185 0.999999999999994 1.90000000000001
vertex 17.2086674166294 1.25881904510252 3.90000000000001
vertex 17.2086674166294 1.25881904510252 1.90000000000001
endloop
endfacet
facet normal -1.0 -2.22777747391173e-014 0.0
outer loop
vertex 17.1745932429185 0.999999999999994 3.90000000000001
vertex 17.2086674166294 0.741180954897476 1.90000000000001
vertex 17.2086674166294 0.741180954897476 3.90000000000001
endloop
endfacet
facet normal -0.965925826289066 -0.25881904510253 0.0
outer loop
vertex 17.2086674166294 0.741180954897476 1.90000000000001
vertex 17.1745932429185 0.999999999999994 3.90000000000001
vertex 17.1745932429185 0.999999999999994 1.90000000000001
endloop
endfacet
facet normal -0.965925826289066 -0.25881904510253 0.0
outer loop
vertex 17.2086674166294 0.741180954897476 3.90000000000001
vertex 17.3085678391341 0.5 1.90000000000001
vertex 17.3085678391341 0.5 3.90000000000001
endloop
endfacet
facet normal -0.866025403784436 -0.500000000000004 0.0
outer loop
vertex 17.3085678391341 0.5 1.90000000000001
vertex 17.2086674166294 0.741180954897476 3.90000000000001
vertex 17.2086674166294 0.741180954897476 1.90000000000001
endloop
endfacet
facet normal -0.866025403784436 -0.500000000000004 0.0
outer loop
vertex 17.3085678391341 0.5 3.90000000000001
vertex 17.467486461732 0.292893218813452 1.90000000000001
vertex 17.467486461732 0.292893218813452 3.90000000000001
endloop
endfacet
facet normal -0.707106781186563 -0.707106781186532 0.0
outer loop
vertex 17.467486461732 0.292893218813452 1.90000000000001
vertex 17.3085678391341 0.5 3.90000000000001
vertex 17.3085678391341 0.5 1.90000000000001
endloop
endfacet
facet normal -0.50000000000001 -0.866025403784433 0.0
outer loop
vertex 17.6745932429185 0.133974596215558 3.90000000000001
vertex 17.467486461732 0.292893218813452 1.90000000000001
vertex 17.6745932429185 0.133974596215558 1.90000000000001
endloop
endfacet
facet normal -0.707106781186563 -0.707106781186532 0.0
outer loop
vertex 17.467486461732 0.292893218813452 1.90000000000001
vertex 17.6745932429185 0.133974596215558 3.90000000000001
vertex 17.467486461732 0.292893218813452 3.90000000000001
endloop
endfacet
facet normal -0.258819045102495 -0.965925826289075 1.5995769561534e-019
outer loop
vertex 17.915774197816 0.0340741737109346 3.90000000000001
vertex 17.6745932429185 0.133974596215558 1.90000000000001
vertex 17.915774197816 0.0340741737109346 1.90000000000001
endloop
endfacet
facet normal -0.50000000000001 -0.866025403784433 0.0
outer loop
vertex 17.6745932429185 0.133974596215558 1.90000000000001
vertex 17.915774197816 0.0340741737109346 3.90000000000001
vertex 17.6745932429185 0.133974596215558 3.90000000000001
endloop
endfacet
facet normal 0.231441660053116 0.972848784751185 0.0
outer loop
vertex 27.6528375099204 0.540726822873213 1.90000000000001
vertex 28.042354475161 0.500598086424502 -7.04991620636974e-016
vertex 27.6528375099204 0.540726822873213 -7.04991620636974e-016
endloop
endfacet
facet normal -0.0282363167739341 0.999601275716994 0.0
outer loop
vertex 28.042354475161 0.500598086424502 -7.04991620636974e-016
vertex 27.6528375099204 0.540726822873213 1.90000000000001
vertex 28.042354475161 0.500598086424502 1.90000000000001
endloop
endfacet
facet normal 0.524254005494024 -0.851561940039285 0.0
outer loop
vertex 27.213618991759 3.27734291005892 1.90000000000001
vertex 26.9098136025869 3.03028812421344 -7.04991620636974e-016
vertex 27.213618991759 3.27734291005892 -7.04991620636974e-016
endloop
endfacet
facet normal 0.726790931608802 -0.686858749475618 0.0
outer loop
vertex 26.9098136025869 3.03028812421344 -7.04991620636974e-016
vertex 27.213618991759 3.27734291005892 1.90000000000001
vertex 26.9098136025869 3.03028812421344 1.90000000000001
endloop
endfacet
facet normal 0.686858749475604 0.726790931608815 0.0
outer loop
vertex 26.9697118757866 0.909813602586812 1.90000000000001
vertex 27.2869790946656 0.680302614780171 -7.04991620636974e-016
vertex 26.9697118757866 0.909813602586812 -7.04991620636974e-016
endloop
endfacet
facet normal 0.475347270222982 0.879798256813208 0.0
outer loop
vertex 27.2869790946656 0.680302614780171 -7.04991620636974e-016
vertex 26.9697118757866 0.909813602586812 1.90000000000001
vertex 27.2869790946656 0.680302614780171 1.90000000000001
endloop
endfacet
facet normal 0.726790931608802 -0.686858749475618 0.0
outer loop
vertex 26.9098136025869 3.03028812421344 -7.04991620636974e-016
vertex 26.6803026147803 2.71302090533444 1.90000000000001
vertex 26.6803026147803 2.71302090533444 -7.04991620636974e-016
endloop
endfacet
facet normal 0.879798256813227 -0.475347270222946 0.0
outer loop
vertex 26.6803026147803 2.71302090533444 1.90000000000001
vertex 26.9098136025869 3.03028812421344 -7.04991620636974e-016
vertex 26.9098136025869 3.03028812421344 1.90000000000001
endloop
endfacet
facet normal 0.475347270222982 0.879798256813208 0.0
outer loop
vertex 27.2869790946656 0.680302614780171 1.90000000000001
vertex 27.6528375099204 0.540726822873213 -7.04991620636974e-016
vertex 27.2869790946656 0.680302614780171 -7.04991620636974e-016
endloop
endfacet
facet normal 0.231441660053116 0.972848784751185 0.0
outer loop
vertex 27.6528375099204 0.540726822873213 -7.04991620636974e-016
vertex 27.2869790946656 0.680302614780171 1.90000000000001
vertex 27.6528375099204 0.540726822873213 1.90000000000001
endloop
endfacet
facet normal 0.958232591661921 0.285990035275494 0.0
outer loop
vertex 26.5626511125072 1.57101494708666 -7.04991620636974e-016
vertex 26.7226570899411 1.21361899175895 1.90000000000001
vertex 26.7226570899411 1.21361899175895 -7.04991620636974e-016
endloop
endfacet
facet normal 0.851561940039285 0.524254005494025 0.0
outer loop
vertex 26.7226570899411 1.21361899175895 1.90000000000001
vertex 26.5626511125072 1.57101494708666 -7.04991620636974e-016
vertex 26.5626511125072 1.57101494708666 1.90000000000001
endloop
endfacet
facet normal -0.285990035275558 0.958232591661902 0.0
outer loop
vertex 28.4289850529134 0.562651112507136 1.90000000000001
vertex 28.7863810082411 0.722657089941063 -7.04991620636974e-016
vertex 28.4289850529134 0.562651112507136 -7.04991620636974e-016
endloop
endfacet
facet normal -0.524254005494022 0.851561940039287 0.0
outer loop
vertex 28.7863810082411 0.722657089941063 -7.04991620636974e-016
vertex 28.4289850529134 0.562651112507136 1.90000000000001
vertex 28.7863810082411 0.722657089941063 1.90000000000001
endloop
endfacet
facet normal 0.879798256813227 -0.475347270222946 0.0
outer loop
vertex 26.6803026147803 2.71302090533444 -7.04991620636974e-016
vertex 26.5407268228733 2.34716249007967 1.90000000000001
vertex 26.5407268228733 2.34716249007967 -7.04991620636974e-016
endloop
endfacet
facet normal 0.972848784751189 -0.2314416600531 0.0
outer loop
vertex 26.5407268228733 2.34716249007967 1.90000000000001
vertex 26.6803026147803 2.71302090533444 -7.04991620636974e-016
vertex 26.6803026147803 2.71302090533444 1.90000000000001
endloop
endfacet
facet normal 0.972848784751189 -0.2314416600531 0.0
outer loop
vertex 26.5407268228733 2.34716249007967 -7.04991620636974e-016
vertex 26.5005980864246 1.9576455248391 1.90000000000001
vertex 26.5005980864246 1.9576455248391 -7.04991620636974e-016
endloop
endfacet
facet normal 0.999601275716994 0.0282363167739231 0.0
outer loop
vertex 26.5005980864246 1.9576455248391 1.90000000000001
vertex 26.5407268228733 2.34716249007967 -7.04991620636974e-016
vertex 26.5407268228733 2.34716249007967 1.90000000000001
endloop
endfacet
facet normal 0.999601275716994 0.0282363167739231 0.0
outer loop
vertex 26.5005980864246 1.9576455248391 -7.04991620636974e-016
vertex 26.5626511125072 1.57101494708666 1.90000000000001
vertex 26.5626511125072 1.57101494708666 -7.04991620636974e-016
endloop
endfacet
facet normal 0.958232591661921 0.285990035275494 0.0
outer loop
vertex 26.5626511125072 1.57101494708666 1.90000000000001
vertex 26.5005980864246 1.9576455248391 -7.04991620636974e-016
vertex 26.5005980864246 1.9576455248391 1.90000000000001
endloop
endfacet
facet normal 0.851561940039285 0.524254005494025 0.0
outer loop
vertex 26.7226570899411 1.21361899175895 -7.04991620636974e-016
vertex 26.9697118757866 0.909813602586812 1.90000000000001
vertex 26.9697118757866 0.909813602586812 -7.04991620636974e-016
endloop
endfacet
facet normal 0.686858749475604 0.726790931608815 0.0
outer loop
vertex 26.9697118757866 0.909813602586812 1.90000000000001
vertex 26.7226570899411 1.21361899175895 -7.04991620636974e-016
vertex 26.7226570899411 1.21361899175895 1.90000000000001
endloop
endfacet
facet normal -0.524254005494022 0.851561940039287 0.0
outer loop
vertex 28.7863810082411 0.722657089941063 1.90000000000001
vertex 29.0901863974133 0.969711875786542 -7.04991620636974e-016
vertex 28.7863810082411 0.722657089941063 -7.04991620636974e-016
endloop
endfacet
facet normal -0.726790931608791 0.68685874947563 0.0
outer loop
vertex 29.0901863974133 0.969711875786542 -7.04991620636974e-016
vertex 28.7863810082411 0.722657089941063 1.90000000000001
vertex 29.0901863974133 0.969711875786542 1.90000000000001
endloop
endfacet
facet normal -0.879798256813236 0.475347270222931 1.25996658873819e-018
outer loop
vertex 29.3196973852199 1.28697909466554 1.90000000000001
vertex 29.0901863974133 0.969711875786542 -7.04991620636974e-016
vertex 29.0901863974133 0.969711875786542 1.90000000000001
endloop
endfacet
facet normal -0.726790931608791 0.68685874947563 0.0
outer loop
vertex 29.0901863974133 0.969711875786542 -7.04991620636974e-016
vertex 29.3196973852199 1.28697909466554 1.90000000000001
vertex 29.3196973852199 1.28697909466554 -7.04991620636974e-016
endloop
endfacet
facet normal -0.972848784751183 0.231441660053126 1.25996658873818e-018
outer loop
vertex 29.4592731771268 1.65283750992032 1.90000000000001
vertex 29.3196973852199 1.28697909466554 -7.04991620636974e-016
vertex 29.3196973852199 1.28697909466554 1.90000000000001
endloop
endfacet
facet normal -0.879798256813236 0.475347270222931 1.25996658873819e-018
outer loop
vertex 29.3196973852199 1.28697909466554 -7.04991620636974e-016
vertex 29.4592731771268 1.65283750992032 1.90000000000001
vertex 29.4592731771268 1.65283750992032 -7.04991620636974e-016
endloop
endfacet
facet normal -0.999601275716995 -0.028236316773897 0.0
outer loop
vertex 29.4994019135756 2.04235447516089 1.90000000000001
vertex 29.4592731771268 1.65283750992032 -7.04991620636974e-016
vertex 29.4592731771268 1.65283750992032 1.90000000000001
endloop
endfacet
facet normal -0.972848784751183 0.231441660053126 1.25996658873818e-018
outer loop
vertex 29.4592731771268 1.65283750992032 -7.04991620636974e-016
vertex 29.4994019135756 2.04235447516089 1.90000000000001
vertex 29.4994019135756 2.04235447516089 -7.04991620636974e-016
endloop
endfacet
facet normal -0.958232591661892 -0.285990035275592 0.0
outer loop
vertex 29.4373488874929 2.42898505291332 1.90000000000001
vertex 29.4994019135756 2.04235447516089 -7.04991620636974e-016
vertex 29.4994019135756 2.04235447516089 1.90000000000001
endloop
endfacet
facet normal -0.999601275716995 -0.028236316773897 0.0
outer loop
vertex 29.4994019135756 2.04235447516089 -7.04991620636974e-016
vertex 29.4373488874929 2.42898505291332 1.90000000000001
vertex 29.4373488874929 2.42898505291332 -7.04991620636974e-016
endloop
endfacet
facet normal -0.851561940039303 -0.524254005493997 0.0
outer loop
vertex 29.277342910059 2.78638100824102 1.90000000000001
vertex 29.4373488874929 2.42898505291332 -7.04991620636974e-016
vertex 29.4373488874929 2.42898505291332 1.90000000000001
endloop
endfacet
facet normal -0.958232591661892 -0.285990035275592 0.0
outer loop
vertex 29.4373488874929 2.42898505291332 -7.04991620636974e-016
vertex 29.277342910059 2.78638100824102 1.90000000000001
vertex 29.277342910059 2.78638100824102 -7.04991620636974e-016
endloop
endfacet
facet normal -0.686858749475664 -0.726790931608759 1.30557056461748e-018
outer loop
vertex 29.0302881242136 3.09018639741318 1.90000000000001
vertex 29.277342910059 2.78638100824102 -7.04991620636974e-016
vertex 29.277342910059 2.78638100824102 1.90000000000001
endloop
endfacet
facet normal -0.851561940039303 -0.524254005493997 0.0
outer loop
vertex 29.277342910059 2.78638100824102 -7.04991620636974e-016
vertex 29.0302881242136 3.09018639741318 1.90000000000001
vertex 29.0302881242136 3.09018639741318 -7.04991620636974e-016
endloop
endfacet
facet normal -0.686858749475664 -0.726790931608759 1.30557056461748e-018
outer loop
vertex 29.0302881242136 3.09018639741318 1.90000000000001
vertex 28.7130209053345 3.31969738521982 -7.04991620636974e-016
vertex 29.0302881242136 3.09018639741318 -7.04991620636974e-016
endloop
endfacet
facet normal -0.475347270222935 -0.879798256813233 1.30557056461746e-018
outer loop
vertex 28.7130209053345 3.31969738521982 -7.04991620636974e-016
vertex 29.0302881242136 3.09018639741318 1.90000000000001
vertex 28.7130209053345 3.31969738521982 1.90000000000001
endloop
endfacet
facet normal -0.475347270222935 -0.879798256813233 1.30557056461746e-018
outer loop
vertex 28.7130209053345 3.31969738521982 1.90000000000001
vertex 28.3471624900797 3.45927317712677 -7.04991620636974e-016
vertex 28.7130209053345 3.31969738521982 -7.04991620636974e-016
endloop
endfacet
facet normal -0.231441660053107 -0.972848784751187 0.0
outer loop
vertex 28.3471624900797 3.45927317712677 -7.04991620636974e-016
vertex 28.7130209053345 3.31969738521982 1.90000000000001
vertex 28.3471624900797 3.45927317712677 1.90000000000001
endloop
endfacet
endsolid Traba
