solid Traba Invertida
facet normal 0.866025403784541 0.499999999999822 0.0
outer loop
vertex 12.6914321608661 1.49999999999999 1.90000000000001
vertex 12.7913325833706 1.25881904510252 3.90000000000001
vertex 12.7913325833706 1.25881904510252 1.90000000000001
endloop
endfacet
facet normal 0.965925826289108 0.258819045102374 0.0
outer loop
vertex 12.7913325833706 1.25881904510252 3.90000000000001
vertex 12.6914321608661 1.49999999999999 1.90000000000001
vertex 12.6914321608661 1.49999999999999 3.90000000000001
endloop
endfacet
facet normal 0.851561940039317 -0.524254005493973 0.0
outer loop
vertex 0.722657089941183 2.78638100824102 7.04991620636974e-016
vertex 0.562651112507226 2.42898505291332 1.90000000000001
vertex 0.562651112507226 2.42898505291332 7.04991620636974e-016
endloop
endfacet
facet normal 0.958232591661886 -0.285990035275613 0.0
outer loop
vertex 0.562651112507226 2.42898505291332 1.90000000000001
vertex 0.722657089941183 2.78638100824102 7.04991620636974e-016
vertex 0.722657089941183 2.78638100824102 1.90000000000001
endloop
endfacet
facet normal 8.03330322252197e-016 -2.15251711102902e-016 1.0
outer loop
vertex 10.8594809307926 0.74118095489748 3.90000000000001
vertex 10.8594809307926 1.25881904510252 3.90000000000001
vertex 10.8254067570816 1.0 3.90000000000001
endloop
endfacet
facet normal 8.03330322252197e-016 -2.15251711102902e-016 1.0
outer loop
vertex 10.8594809307926 1.25881904510252 3.90000000000001
vertex 10.8594809307926 0.74118095489748 3.90000000000001
vertex 10.9593813532972 0.500000000000008 3.90000000000001
endloop
endfacet
facet normal 8.03330322252197e-016 -2.15251711102902e-016 1.0
outer loop
vertex 10.8594809307926 1.25881904510252 3.90000000000001
vertex 10.9593813532972 0.500000000000008 3.90000000000001
vertex 10.9593813532972 1.5 3.90000000000001
endloop
endfacet
facet normal 8.03330322252197e-016 -2.15251711102902e-016 1.0
outer loop
vertex 10.9593813532972 1.5 3.90000000000001
vertex 10.9593813532972 0.500000000000008 3.90000000000001
vertex 11.1182999758951 0.292893218813453 3.90000000000001
endloop
endfacet
facet normal 8.03330322252197e-016 -2.15251711102902e-016 1.0
outer loop
vertex 10.9593813532972 1.5 3.90000000000001
vertex 11.1182999758951 0.292893218813453 3.90000000000001
vertex 11.1182999758951 1.70710678118655 3.90000000000001
endloop
endfacet
facet normal 8.03330322252197e-016 -2.15251711102902e-016 1.0
outer loop
vertex 11.1182999758951 1.70710678118655 3.90000000000001
vertex 11.1182999758951 0.292893218813453 3.90000000000001
vertex 11.3254067570816 0.133974596215565 3.90000000000001
endloop
endfacet
facet normal 8.03330322252197e-016 -2.15251711102902e-016 1.0
outer loop
vertex 11.1182999758951 1.70710678118655 3.90000000000001
vertex 11.3254067570816 0.133974596215565 3.90000000000001
vertex 11.3254067570816 1.86602540378444 3.90000000000001
endloop
endfacet
facet normal 8.03330322252197e-016 -2.15251711102902e-016 1.0
outer loop
vertex 11.3254067570816 1.86602540378444 3.90000000000001
vertex 11.3254067570816 0.133974596215565 3.90000000000001
vertex 11.5665877119791 0.0340741737109318 3.90000000000001
endloop
endfacet
facet normal 8.03330322252197e-016 -2.15251711102902e-016 1.0
outer loop
vertex 11.3254067570816 1.86602540378444 3.90000000000001
vertex 11.5665877119791 0.0340741737109318 3.90000000000001
vertex 11.5665877119791 1.96592582628907 3.90000000000001
endloop
endfacet
facet normal 8.03330322252197e-016 -2.15251711102902e-016 1.0
outer loop
vertex 11.5665877119791 1.96592582628907 3.90000000000001
vertex 11.5665877119791 0.0340741737109318 3.90000000000001
vertex 11.8254067570816 4.93494134445882e-015 3.90000000000001
endloop
endfacet
facet normal 8.03330322252197e-016 -2.15251711102902e-016 1.0
outer loop
vertex 11.5665877119791 1.96592582628907 3.90000000000001
vertex 11.8254067570816 4.93494134445882e-015 3.90000000000001
vertex 11.8254067570816 2.0 3.90000000000001
endloop
endfacet
facet normal 8.03330322252197e-016 -2.15251711102902e-016 1.0
outer loop
vertex 11.8254067570816 2.0 3.90000000000001
vertex 11.8254067570816 4.93494134445882e-015 3.90000000000001
vertex 12.0842258021842 0.0340741737109332 3.90000000000001
endloop
endfacet
facet normal 8.03330322252197e-016 -2.15251711102902e-016 1.0
outer loop
vertex 11.8254067570816 2.0 3.90000000000001
vertex 12.0842258021842 0.0340741737109332 3.90000000000001
vertex 12.0842258021841 1.96592582628907 3.90000000000001
endloop
endfacet
facet normal 8.03330322252197e-016 -2.15251711102902e-016 1.0
outer loop
vertex 12.0842258021841 1.96592582628907 3.90000000000001
vertex 12.0842258021842 0.0340741737109332 3.90000000000001
vertex 12.3254067570816 1.86602540378443 3.90000000000001
endloop
endfacet
facet normal 8.03330322252197e-016 -2.15251711102902e-016 1.0
outer loop
vertex 12.3254067570816 1.86602540378443 3.90000000000001
vertex 12.0842258021842 0.0340741737109332 3.90000000000001
vertex 12.3254067570817 0.133974596215557 3.90000000000001
endloop
endfacet
facet normal 8.03330322252197e-016 -2.15251711102902e-016 1.0
outer loop
vertex 12.3254067570816 1.86602540378443 3.90000000000001
vertex 12.3254067570817 0.133974596215557 3.90000000000001
vertex 12.5325135382682 1.70710678118655 3.90000000000001
endloop
endfacet
facet normal 8.03330322252197e-016 -2.15251711102902e-016 1.0
outer loop
vertex 12.5325135382682 1.70710678118655 3.90000000000001
vertex 12.3254067570817 0.133974596215557 3.90000000000001
vertex 12.5325135382681 0.292893218813451 3.90000000000001
endloop
endfacet
facet normal 8.03330322252197e-016 -2.15251711102902e-016 1.0
outer loop
vertex 12.5325135382682 1.70710678118655 3.90000000000001
vertex 12.5325135382681 0.292893218813451 3.90000000000001
vertex 12.6914321608661 0.5 3.90000000000001
endloop
endfacet
facet normal 8.03330322252197e-016 -2.15251711102902e-016 1.0
outer loop
vertex 12.5325135382682 1.70710678118655 3.90000000000001
vertex 12.6914321608661 0.5 3.90000000000001
vertex 12.6914321608661 1.49999999999999 3.90000000000001
endloop
endfacet
facet normal 8.03330322252197e-016 -2.15251711102902e-016 1.0
outer loop
vertex 12.6914321608661 1.49999999999999 3.90000000000001
vertex 12.6914321608661 0.5 3.90000000000001
vertex 12.7913325833706 0.741180954897474 3.90000000000001
endloop
endfacet
facet normal 8.03330322252197e-016 -2.15251711102902e-016 1.0
outer loop
vertex 12.6914321608661 1.49999999999999 3.90000000000001
vertex 12.7913325833706 0.741180954897474 3.90000000000001
vertex 12.7913325833706 1.25881904510252 3.90000000000001
endloop
endfacet
facet normal 8.03330322252197e-016 -2.15251711102902e-016 1.0
outer loop
vertex 12.7913325833706 1.25881904510252 3.90000000000001
vertex 12.7913325833706 0.741180954897474 3.90000000000001
vertex 12.8254067570816 0.999999999999994 3.90000000000001
endloop
endfacet
facet normal -0.258819045102521 0.965925826289068 0.0
outer loop
vertex 11.5665877119791 1.96592582628907 3.90000000000001
vertex 11.8254067570816 2.0 1.90000000000001
vertex 11.5665877119791 1.96592582628907 1.90000000000001
endloop
endfacet
facet normal 1.40884647450178e-014 1.0 0.0
outer loop
vertex 11.8254067570816 2.0 1.90000000000001
vertex 11.5665877119791 1.96592582628907 3.90000000000001
vertex 11.8254067570816 2.0 3.90000000000001
endloop
endfacet
facet normal -3.87370085784597e-016 1.0 -1.21744280225764e-015
outer loop
vertex 4.00000000000001 2.0 1.90000000000001
vertex 30.0000000000001 2.0 1.40998324127395e-015
vertex 4.00000000000009 1.99999999999999 0.0
endloop
endfacet
facet normal -3.87370085784597e-016 1.0 -1.21744280225764e-015
outer loop
vertex 30.0000000000001 2.0 1.40998324127395e-015
vertex 4.00000000000001 2.0 1.90000000000001
vertex 30.0000000000001 2.0 1.90000000000001
endloop
endfacet
facet normal -3.87370085784597e-016 1.0 -1.21744280225764e-015
outer loop
vertex 30.0000000000001 2.0 1.90000000000001
vertex 4.00000000000001 2.0 1.90000000000001
vertex 11.8254067570816 2.0 1.90000000000001
endloop
endfacet
facet normal -0.500000000000031 -0.866025403784421 0.0
outer loop
vertex 11.3254067570816 0.133974596215565 3.90000000000001
vertex 11.1182999758951 0.292893218813453 1.90000000000001
vertex 11.3254067570816 0.133974596215565 1.90000000000001
endloop
endfacet
facet normal -0.707106781186514 -0.707106781186581 0.0
outer loop
vertex 11.1182999758951 0.292893218813453 1.90000000000001
vertex 11.3254067570816 0.133974596215565 3.90000000000001
vertex 11.1182999758951 0.292893218813453 3.90000000000001
endloop
endfacet
facet normal -0.879798256813202 -0.475347270222993 0.0
outer loop
vertex 3.31969738521982 2.71302090533444 1.90000000000001
vertex 3.45927317712683 2.34716249007967 7.04991620636974e-016
vertex 3.45927317712683 2.34716249007967 1.90000000000001
endloop
endfacet
facet normal -0.972848784751172 -0.231441660053171 0.0
outer loop
vertex 3.45927317712683 2.34716249007967 7.04991620636974e-016
vertex 3.31969738521982 2.71302090533444 1.90000000000001
vertex 3.31969738521982 2.71302090533444 7.04991620636974e-016
endloop
endfacet
facet normal 0.972848784751186 0.231441660053113 1.25996658873708e-018
outer loop
vertex 0.540726822873325 1.65283750992032 7.04991620636974e-016
vertex 0.680302614780234 1.28697909466554 1.90000000000001
vertex 0.680302614780234 1.28697909466554 7.04991620636974e-016
endloop
endfacet
facet normal 0.879798256813256 0.475347270222893 1.2599665887371e-018
outer loop
vertex 0.680302614780234 1.28697909466554 1.90000000000001
vertex 0.540726822873325 1.65283750992032 7.04991620636974e-016
vertex 0.540726822873325 1.65283750992032 1.90000000000001
endloop
endfacet
facet normal 0.726790931608791 0.68685874947563 0.0
outer loop
vertex 0.909813602586844 0.969711875786543 1.90000000000001
vertex 1.21361899175903 0.722657089941062 7.04991620636974e-016
vertex 0.909813602586844 0.969711875786543 7.04991620636974e-016
endloop
endfacet
facet normal 0.524254005494045 0.851561940039273 0.0
outer loop
vertex 1.21361899175903 0.722657089941062 7.04991620636974e-016
vertex 0.909813602586844 0.969711875786543 1.90000000000001
vertex 1.21361899175903 0.722657089941062 1.90000000000001
endloop
endfacet
facet normal -0.866025403784438 0.500000000000001 0.0
outer loop
vertex 10.9593813532972 1.5 3.90000000000001
vertex 10.8594809307926 1.25881904510252 1.90000000000001
vertex 10.8594809307926 1.25881904510252 3.90000000000001
endloop
endfacet
facet normal -0.965925826289076 0.258819045102493 0.0
outer loop
vertex 10.8594809307926 1.25881904510252 1.90000000000001
vertex 10.9593813532972 1.5 3.90000000000001
vertex 10.9593813532972 1.5 1.90000000000001
endloop
endfacet
facet normal -0.86602540378444 -0.499999999999998 0.0
outer loop
vertex 10.9593813532972 0.500000000000008 3.90000000000001
vertex 11.1182999758951 0.292893218813453 1.90000000000001
vertex 11.1182999758951 0.292893218813453 3.90000000000001
endloop
endfacet
facet normal -0.707106781186514 -0.707106781186581 0.0
outer loop
vertex 11.1182999758951 0.292893218813453 1.90000000000001
vertex 10.9593813532972 0.500000000000008 3.90000000000001
vertex 10.9593813532972 0.500000000000008 1.90000000000001
endloop
endfacet
facet normal 1.0 0.0 0.0
outer loop
vertex 30.0000000000001 2.0 1.40998324127395e-015
vertex 30.0000000000001 -1.40998324127395e-015 1.90000000000001
vertex 30.0000000000001 -1.40998324127395e-015 1.40998324127395e-015
endloop
endfacet
facet normal 1.0 0.0 0.0
outer loop
vertex 30.0000000000001 -1.40998324127395e-015 1.90000000000001
vertex 30.0000000000001 2.0 1.40998324127395e-015
vertex 30.0000000000001 2.0 1.90000000000001
endloop
endfacet
facet normal 0.879798256813256 0.475347270222893 1.2599665887371e-018
outer loop
vertex 0.680302614780234 1.28697909466554 7.04991620636974e-016
vertex 0.909813602586844 0.969711875786543 1.90000000000001
vertex 0.909813602586844 0.969711875786543 7.04991620636974e-016
endloop
endfacet
facet normal 0.726790931608791 0.68685874947563 0.0
outer loop
vertex 0.909813602586844 0.969711875786543 1.90000000000001
vertex 0.680302614780234 1.28697909466554 7.04991620636974e-016
vertex 0.680302614780234 1.28697909466554 1.90000000000001
endloop
endfacet
facet normal 0.707106781186514 0.707106781186581 -1.50668569723796e-018
outer loop
vertex 12.5325135382682 1.70710678118655 1.90000000000001
vertex 12.6914321608661 1.49999999999999 3.90000000000001
vertex 12.6914321608661 1.49999999999999 1.90000000000001
endloop
endfacet
facet normal 0.866025403784541 0.499999999999822 0.0
outer loop
vertex 12.6914321608661 1.49999999999999 3.90000000000001
vertex 12.5325135382682 1.70710678118655 1.90000000000001
vertex 12.5325135382682 1.70710678118655 3.90000000000001
endloop
endfacet
facet normal 1.1988612989097e-016 6.1918481340034e-031 1.0
outer loop
vertex 30.0000000000001 -1.40998324127395e-015 1.90000000000001
vertex 12.0842258021842 0.0340741737109332 1.90000000000001
vertex 11.8254067570816 4.93494134445882e-015 1.90000000000001
endloop
endfacet
facet normal 1.1988612989097e-016 6.1918481340034e-031 1.0
outer loop
vertex 12.0842258021842 0.0340741737109332 1.90000000000001
vertex 30.0000000000001 -1.40998324127395e-015 1.90000000000001
vertex 12.3254067570817 0.133974596215557 1.90000000000001
endloop
endfacet
facet normal 1.1988612989097e-016 6.1918481340034e-031 1.0
outer loop
vertex 12.3254067570817 0.133974596215557 1.90000000000001
vertex 30.0000000000001 -1.40998324127395e-015 1.90000000000001
vertex 12.5325135382681 0.292893218813451 1.90000000000001
endloop
endfacet
facet normal 1.1988612989097e-016 6.1918481340034e-031 1.0
outer loop
vertex 12.5325135382681 0.292893218813451 1.90000000000001
vertex 30.0000000000001 -1.40998324127395e-015 1.90000000000001
vertex 12.6914321608661 0.5 1.90000000000001
endloop
endfacet
facet normal 1.1988612989097e-016 6.1918481340034e-031 1.0
outer loop
vertex 12.6914321608661 0.5 1.90000000000001
vertex 30.0000000000001 -1.40998324127395e-015 1.90000000000001
vertex 12.7913325833706 0.741180954897474 1.90000000000001
endloop
endfacet
facet normal 1.1988612989097e-016 6.1918481340034e-031 1.0
outer loop
vertex 12.7913325833706 0.741180954897474 1.90000000000001
vertex 30.0000000000001 -1.40998324127395e-015 1.90000000000001
vertex 12.8254067570816 0.999999999999994 1.90000000000001
endloop
endfacet
facet normal 1.1988612989097e-016 6.1918481340034e-031 1.0
outer loop
vertex 12.0842258021841 1.96592582628907 1.90000000000001
vertex 30.0000000000001 2.0 1.90000000000001
vertex 11.8254067570816 2.0 1.90000000000001
endloop
endfacet
facet normal 1.1988612989097e-016 6.1918481340034e-031 1.0
outer loop
vertex 30.0000000000001 2.0 1.90000000000001
vertex 12.0842258021841 1.96592582628907 1.90000000000001
vertex 12.3254067570816 1.86602540378443 1.90000000000001
endloop
endfacet
facet normal 1.1988612989097e-016 6.1918481340034e-031 1.0
outer loop
vertex 30.0000000000001 2.0 1.90000000000001
vertex 12.3254067570816 1.86602540378443 1.90000000000001
vertex 12.5325135382682 1.70710678118655 1.90000000000001
endloop
endfacet
facet normal 1.1988612989097e-016 6.1918481340034e-031 1.0
outer loop
vertex 30.0000000000001 2.0 1.90000000000001
vertex 12.5325135382682 1.70710678118655 1.90000000000001
vertex 12.6914321608661 1.49999999999999 1.90000000000001
endloop
endfacet
facet normal 1.1988612989097e-016 6.1918481340034e-031 1.0
outer loop
vertex 30.0000000000001 2.0 1.90000000000001
vertex 12.6914321608661 1.49999999999999 1.90000000000001
vertex 12.7913325833706 1.25881904510252 1.90000000000001
endloop
endfacet
facet normal 1.1988612989097e-016 6.1918481340034e-031 1.0
outer loop
vertex 30.0000000000001 2.0 1.90000000000001
vertex 12.7913325833706 1.25881904510252 1.90000000000001
vertex 12.8254067570816 0.999999999999994 1.90000000000001
endloop
endfacet
facet normal 1.1988612989097e-016 6.1918481340034e-031 1.0
outer loop
vertex 30.0000000000001 2.0 1.90000000000001
vertex 12.8254067570816 0.999999999999994 1.90000000000001
vertex 30.0000000000001 -1.40998324127395e-015 1.90000000000001
endloop
endfacet
facet normal -0.500000000000027 0.866025403784423 0.0
outer loop
vertex 11.3254067570816 1.86602540378444 3.90000000000001
vertex 11.5665877119791 1.96592582628907 1.90000000000001
vertex 11.3254067570816 1.86602540378444 1.90000000000001
endloop
endfacet
facet normal -0.258819045102521 0.965925826289068 0.0
outer loop
vertex 11.5665877119791 1.96592582628907 1.90000000000001
vertex 11.3254067570816 1.86602540378444 3.90000000000001
vertex 11.5665877119791 1.96592582628907 3.90000000000001
endloop
endfacet
facet normal -0.707106781186512 0.707106781186583 0.0
outer loop
vertex 11.1182999758951 1.70710678118655 3.90000000000001
vertex 11.3254067570816 1.86602540378444 1.90000000000001
vertex 11.1182999758951 1.70710678118655 1.90000000000001
endloop
endfacet
facet normal -0.500000000000027 0.866025403784423 0.0
outer loop
vertex 11.3254067570816 1.86602540378444 1.90000000000001
vertex 11.1182999758951 1.70710678118655 3.90000000000001
vertex 11.3254067570816 1.86602540378444 3.90000000000001
endloop
endfacet
facet normal -5.98154932372637e-017 -1.0 9.56147913060164e-016
outer loop
vertex 30.0000000000001 -1.40998324127395e-015 1.40998324127395e-015
vertex 0.0 0.0 1.90000000000001
vertex 0.0 0.0 0.0
endloop
endfacet
facet normal -5.98154932372637e-017 -1.0 9.56147913060164e-016
outer loop
vertex 0.0 0.0 1.90000000000001
vertex 30.0000000000001 -1.40998324127395e-015 1.40998324127395e-015
vertex 30.0000000000001 -1.40998324127395e-015 1.90000000000001
endloop
endfacet
facet normal -5.98154932372637e-017 -1.0 9.56147913060164e-016
outer loop
vertex 0.0 0.0 1.90000000000001
vertex 30.0000000000001 -1.40998324127395e-015 1.90000000000001
vertex 11.8254067570816 4.93494134445882e-015 1.90000000000001
endloop
endfacet
facet normal -0.726790931608857 -0.68685874947556 0.0
outer loop
vertex 3.09018639741322 3.03028812421344 1.90000000000001
vertex 3.31969738521982 2.71302090533444 7.04991620636974e-016
vertex 3.31969738521982 2.71302090533444 1.90000000000001
endloop
endfacet
facet normal -0.879798256813202 -0.475347270222993 0.0
outer loop
vertex 3.31969738521982 2.71302090533444 7.04991620636974e-016
vertex 3.09018639741322 3.03028812421344 1.90000000000001
vertex 3.09018639741322 3.03028812421344 7.04991620636974e-016
endloop
endfacet
facet normal -1.0 1.40998324127395e-014 -4.30239945609647e-032
outer loop
vertex 5.6399329650958e-014 3.99999999999999 1.90000000000001
vertex 0.0 0.0 0.0
vertex 0.0 0.0 1.90000000000001
endloop
endfacet
facet normal -1.0 1.40998324127395e-014 -4.30239945609647e-032
outer loop
vertex 0.0 0.0 0.0
vertex 5.6399329650958e-014 3.99999999999999 1.90000000000001
vertex 5.6399329650958e-014 3.99999999999999 -7.04991620636974e-016
endloop
endfacet
facet normal -0.475347270222943 0.879798256813229 0.0
outer loop
vertex 2.71302090533444 0.68030261478017 1.90000000000001
vertex 3.03028812421353 0.909813602586811 7.04991620636974e-016
vertex 2.71302090533444 0.68030261478017 7.04991620636974e-016
endloop
endfacet
facet normal -0.686858749475595 0.726790931608824 0.0
outer loop
vertex 3.03028812421353 0.909813602586811 7.04991620636974e-016
vertex 2.71302090533444 0.68030261478017 1.90000000000001
vertex 3.03028812421353 0.909813602586811 1.90000000000001
endloop
endfacet
facet normal -0.0282363167739143 -0.999601275716995 0.0
outer loop
vertex 2.04235447516092 3.49940191357548 1.90000000000001
vertex 1.65283750992041 3.45927317712677 7.04991620636974e-016
vertex 2.04235447516092 3.49940191357548 7.04991620636974e-016
endloop
endfacet
facet normal 0.231441660053111 -0.972848784751186 0.0
outer loop
vertex 1.65283750992041 3.45927317712677 7.04991620636974e-016
vertex 2.04235447516092 3.49940191357548 1.90000000000001
vertex 1.65283750992041 3.45927317712677 1.90000000000001
endloop
endfacet
facet normal -0.285990035275529 -0.958232591661911 0.0
outer loop
vertex 2.4289850529134 3.43734888749285 1.90000000000001
vertex 2.04235447516092 3.49940191357548 7.04991620636974e-016
vertex 2.4289850529134 3.43734888749285 7.04991620636974e-016
endloop
endfacet
facet normal -0.0282363167739143 -0.999601275716995 0.0
outer loop
vertex 2.04235447516092 3.49940191357548 7.04991620636974e-016
vertex 2.4289850529134 3.43734888749285 1.90000000000001
vertex 2.04235447516092 3.49940191357548 1.90000000000001
endloop
endfacet
facet normal -5.18225112619714e-017 -4.33103852080696e-017 1.0
outer loop
vertex 0.0 0.0 1.90000000000001
vertex 0.540726822873325 1.65283750992032 1.90000000000001
vertex 5.6399329650958e-014 3.99999999999999 1.90000000000001
endloop
endfacet
facet normal -5.18225112619714e-017 -4.33103852080696e-017 1.0
outer loop
vertex 0.540726822873325 1.65283750992032 1.90000000000001
vertex 0.0 0.0 1.90000000000001
vertex 0.680302614780234 1.28697909466554 1.90000000000001
endloop
endfacet
facet normal -5.18225112619714e-017 -4.33103852080696e-017 1.0
outer loop
vertex 0.680302614780234 1.28697909466554 1.90000000000001
vertex 0.0 0.0 1.90000000000001
vertex 0.909813602586844 0.969711875786543 1.90000000000001
endloop
endfacet
facet normal -5.18225112619714e-017 -4.33103852080696e-017 1.0
outer loop
vertex 0.909813602586844 0.969711875786543 1.90000000000001
vertex 0.0 0.0 1.90000000000001
vertex 1.21361899175903 0.722657089941062 1.90000000000001
endloop
endfacet
facet normal -5.18225112619714e-017 -4.33103852080696e-017 1.0
outer loop
vertex 1.21361899175903 0.722657089941062 1.90000000000001
vertex 0.0 0.0 1.90000000000001
vertex 1.57101494708664 0.562651112507136 1.90000000000001
endloop
endfacet
facet normal -5.18225112619714e-017 -4.33103852080696e-017 1.0
outer loop
vertex 1.57101494708664 0.562651112507136 1.90000000000001
vertex 0.0 0.0 1.90000000000001
vertex 1.95764552483911 0.5005980864245 1.90000000000001
endloop
endfacet
facet normal -5.18225112619714e-017 -4.33103852080696e-017 1.0
outer loop
vertex 1.95764552483911 0.5005980864245 1.90000000000001
vertex 0.0 0.0 1.90000000000001
vertex 11.8254067570816 4.93494134445882e-015 1.90000000000001
endloop
endfacet
facet normal -5.18225112619714e-017 -4.33103852080696e-017 1.0
outer loop
vertex 5.6399329650958e-014 3.99999999999999 1.90000000000001
vertex 0.540726822873325 1.65283750992032 1.90000000000001
vertex 0.50059808642457 2.04235447516089 1.90000000000001
endloop
endfacet
facet normal -5.18225112619714e-017 -4.33103852080696e-017 1.0
outer loop
vertex 1.95764552483911 0.5005980864245 1.90000000000001
vertex 11.8254067570816 4.93494134445882e-015 1.90000000000001
vertex 2.34716249007974 0.540726822873212 1.90000000000001
endloop
endfacet
facet normal -5.18225112619714e-017 -4.33103852080696e-017 1.0
outer loop
vertex 2.34716249007974 0.540726822873212 1.90000000000001
vertex 11.8254067570816 4.93494134445882e-015 1.90000000000001
vertex 2.71302090533444 0.68030261478017 1.90000000000001
endloop
endfacet
facet normal -5.18225112619714e-017 -4.33103852080696e-017 1.0
outer loop
vertex 2.71302090533444 0.68030261478017 1.90000000000001
vertex 11.8254067570816 4.93494134445882e-015 1.90000000000001
vertex 3.03028812421353 0.909813602586811 1.90000000000001
endloop
endfacet
facet normal -5.18225112619714e-017 -4.33103852080696e-017 1.0
outer loop
vertex 3.03028812421353 0.909813602586811 1.90000000000001
vertex 11.8254067570816 4.93494134445882e-015 1.90000000000001
vertex 11.5665877119791 0.0340741737109318 1.90000000000001
endloop
endfacet
facet normal -5.18225112619714e-017 -4.33103852080696e-017 1.0
outer loop
vertex 3.03028812421353 0.909813602586811 1.90000000000001
vertex 11.5665877119791 0.0340741737109318 1.90000000000001
vertex 3.27734291005898 1.21361899175895 1.90000000000001
endloop
endfacet
facet normal -5.18225112619714e-017 -4.33103852080696e-017 1.0
outer loop
vertex 3.27734291005898 1.21361899175895 1.90000000000001
vertex 11.5665877119791 0.0340741737109318 1.90000000000001
vertex 3.4373488874929 1.57101494708666 1.90000000000001
endloop
endfacet
facet normal -5.18225112619714e-017 -4.33103852080696e-017 1.0
outer loop
vertex 3.4373488874929 1.57101494708666 1.90000000000001
vertex 11.5665877119791 0.0340741737109318 1.90000000000001
vertex 3.49940191357553 1.9576455248391 1.90000000000001
endloop
endfacet
facet normal -5.18225112619714e-017 -4.33103852080696e-017 1.0
outer loop
vertex 3.49940191357553 1.9576455248391 1.90000000000001
vertex 11.5665877119791 0.0340741737109318 1.90000000000001
vertex 4.00000000000001 2.0 1.90000000000001
endloop
endfacet
facet normal -5.18225112619714e-017 -4.33103852080696e-017 1.0
outer loop
vertex 4.00000000000001 2.0 1.90000000000001
vertex 11.5665877119791 0.0340741737109318 1.90000000000001
vertex 11.3254067570816 0.133974596215565 1.90000000000001
endloop
endfacet
facet normal -5.18225112619714e-017 -4.33103852080696e-017 1.0
outer loop
vertex 4.00000000000001 2.0 1.90000000000001
vertex 11.3254067570816 0.133974596215565 1.90000000000001
vertex 11.1182999758951 0.292893218813453 1.90000000000001
endloop
endfacet
facet normal -5.18225112619714e-017 -4.33103852080696e-017 1.0
outer loop
vertex 4.00000000000001 2.0 1.90000000000001
vertex 11.1182999758951 0.292893218813453 1.90000000000001
vertex 10.9593813532972 0.500000000000008 1.90000000000001
endloop
endfacet
facet normal -5.18225112619714e-017 -4.33103852080696e-017 1.0
outer loop
vertex 4.00000000000001 2.0 1.90000000000001
vertex 10.9593813532972 0.500000000000008 1.90000000000001
vertex 10.8594809307926 0.74118095489748 1.90000000000001
endloop
endfacet
facet normal -5.18225112619714e-017 -4.33103852080696e-017 1.0
outer loop
vertex 4.00000000000001 2.0 1.90000000000001
vertex 10.8594809307926 0.74118095489748 1.90000000000001
vertex 10.8254067570816 1.0 1.90000000000001
endloop
endfacet
facet normal -5.18225112619714e-017 -4.33103852080696e-017 1.0
outer loop
vertex 4.00000000000001 2.0 1.90000000000001
vertex 11.5665877119791 1.96592582628907 1.90000000000001
vertex 11.8254067570816 2.0 1.90000000000001
endloop
endfacet
facet normal -5.18225112619714e-017 -4.33103852080696e-017 1.0
outer loop
vertex 11.5665877119791 1.96592582628907 1.90000000000001
vertex 4.00000000000001 2.0 1.90000000000001
vertex 11.3254067570816 1.86602540378444 1.90000000000001
endloop
endfacet
facet normal -5.18225112619714e-017 -4.33103852080696e-017 1.0
outer loop
vertex 11.3254067570816 1.86602540378444 1.90000000000001
vertex 4.00000000000001 2.0 1.90000000000001
vertex 11.1182999758951 1.70710678118655 1.90000000000001
endloop
endfacet
facet normal -5.18225112619714e-017 -4.33103852080696e-017 1.0
outer loop
vertex 11.1182999758951 1.70710678118655 1.90000000000001
vertex 4.00000000000001 2.0 1.90000000000001
vertex 10.9593813532972 1.5 1.90000000000001
endloop
endfacet
facet normal -5.18225112619714e-017 -4.33103852080696e-017 1.0
outer loop
vertex 10.9593813532972 1.5 1.90000000000001
vertex 4.00000000000001 2.0 1.90000000000001
vertex 10.8594809307926 1.25881904510252 1.90000000000001
endloop
endfacet
facet normal -5.18225112619714e-017 -4.33103852080696e-017 1.0
outer loop
vertex 10.8594809307926 1.25881904510252 1.90000000000001
vertex 4.00000000000001 2.0 1.90000000000001
vertex 10.8254067570816 1.0 1.90000000000001
endloop
endfacet
facet normal -5.18225112619714e-017 -4.33103852080696e-017 1.0
outer loop
vertex 5.6399329650958e-014 3.99999999999999 1.90000000000001
vertex 1.65283750992041 3.45927317712677 1.90000000000001
vertex 4.00000000000009 4.0 1.90000000000001
endloop
endfacet
facet normal -5.18225112619714e-017 -4.33103852080696e-017 1.0
outer loop
vertex 1.65283750992041 3.45927317712677 1.90000000000001
vertex 5.6399329650958e-014 3.99999999999999 1.90000000000001
vertex 1.28697909466561 3.31969738521982 1.90000000000001
endloop
endfacet
facet normal -5.18225112619714e-017 -4.33103852080696e-017 1.0
outer loop
vertex 1.28697909466561 3.31969738521982 1.90000000000001
vertex 5.6399329650958e-014 3.99999999999999 1.90000000000001
vertex 0.969711875786574 3.09018639741318 1.90000000000001
endloop
endfacet
facet normal -5.18225112619714e-017 -4.33103852080696e-017 1.0
outer loop
vertex 0.969711875786574 3.09018639741318 1.90000000000001
vertex 5.6399329650958e-014 3.99999999999999 1.90000000000001
vertex 0.722657089941183 2.78638100824102 1.90000000000001
endloop
endfacet
facet normal -5.18225112619714e-017 -4.33103852080696e-017 1.0
outer loop
vertex 0.722657089941183 2.78638100824102 1.90000000000001
vertex 5.6399329650958e-014 3.99999999999999 1.90000000000001
vertex 0.562651112507226 2.42898505291332 1.90000000000001
endloop
endfacet
facet normal -5.18225112619714e-017 -4.33103852080696e-017 1.0
outer loop
vertex 0.562651112507226 2.42898505291332 1.90000000000001
vertex 5.6399329650958e-014 3.99999999999999 1.90000000000001
vertex 0.50059808642457 2.04235447516089 1.90000000000001
endloop
endfacet
facet normal -5.18225112619714e-017 -4.33103852080696e-017 1.0
outer loop
vertex 4.00000000000009 4.0 1.90000000000001
vertex 1.65283750992041 3.45927317712677 1.90000000000001
vertex 2.04235447516092 3.49940191357548 1.90000000000001
endloop
endfacet
facet normal -5.18225112619714e-017 -4.33103852080696e-017 1.0
outer loop
vertex 4.00000000000009 4.0 1.90000000000001
vertex 2.04235447516092 3.49940191357548 1.90000000000001
vertex 2.4289850529134 3.43734888749285 1.90000000000001
endloop
endfacet
facet normal -5.18225112619714e-017 -4.33103852080696e-017 1.0
outer loop
vertex 4.00000000000009 4.0 1.90000000000001
vertex 2.4289850529134 3.43734888749285 1.90000000000001
vertex 2.78638100824114 3.27734291005892 1.90000000000001
endloop
endfacet
facet normal -5.18225112619714e-017 -4.33103852080696e-017 1.0
outer loop
vertex 4.00000000000009 4.0 1.90000000000001
vertex 2.78638100824114 3.27734291005892 1.90000000000001
vertex 3.09018639741322 3.03028812421344 1.90000000000001
endloop
endfacet
facet normal -5.18225112619714e-017 -4.33103852080696e-017 1.0
outer loop
vertex 4.00000000000009 4.0 1.90000000000001
vertex 3.09018639741322 3.03028812421344 1.90000000000001
vertex 3.31969738521982 2.71302090533444 1.90000000000001
endloop
endfacet
facet normal -5.18225112619714e-017 -4.33103852080696e-017 1.0
outer loop
vertex 4.00000000000009 4.0 1.90000000000001
vertex 3.31969738521982 2.71302090533444 1.90000000000001
vertex 3.45927317712683 2.34716249007967 1.90000000000001
endloop
endfacet
facet normal -5.18225112619714e-017 -4.33103852080696e-017 1.0
outer loop
vertex 4.00000000000009 4.0 1.90000000000001
vertex 3.45927317712683 2.34716249007967 1.90000000000001
vertex 3.49940191357553 1.9576455248391 1.90000000000001
endloop
endfacet
facet normal -5.18225112619714e-017 -4.33103852080696e-017 1.0
outer loop
vertex 4.00000000000009 4.0 1.90000000000001
vertex 3.49940191357553 1.9576455248391 1.90000000000001
vertex 4.00000000000001 2.0 1.90000000000001
endloop
endfacet
facet normal -0.524254005494056 -0.851561940039266 0.0
outer loop
vertex 2.78638100824114 3.27734291005892 1.90000000000001
vertex 2.4289850529134 3.43734888749285 7.04991620636974e-016
vertex 2.78638100824114 3.27734291005892 7.04991620636974e-016
endloop
endfacet
facet normal -0.285990035275529 -0.958232591661911 0.0
outer loop
vertex 2.4289850529134 3.43734888749285 7.04991620636974e-016
vertex 2.78638100824114 3.27734291005892 1.90000000000001
vertex 2.4289850529134 3.43734888749285 1.90000000000001
endloop
endfacet
facet normal 0.258819045102479 -0.96592582628908 -1.27819801202257e-019
outer loop
vertex 12.0842258021842 0.0340741737109332 3.90000000000001
vertex 11.8254067570816 4.93494134445882e-015 1.90000000000001
vertex 12.0842258021842 0.0340741737109332 1.90000000000001
endloop
endfacet
facet normal 2.69115518848536e-015 -1.0 -1.27819801202256e-019
outer loop
vertex 11.8254067570816 4.93494134445882e-015 1.90000000000001
vertex 12.0842258021842 0.0340741737109332 3.90000000000001
vertex 11.8254067570816 4.93494134445882e-015 3.90000000000001
endloop
endfacet
facet normal 0.686858749475678 -0.726790931608745 1.30557056461781e-018
outer loop
vertex 0.969711875786574 3.09018639741318 7.04991620636974e-016
vertex 0.722657089941183 2.78638100824102 1.90000000000001
vertex 0.722657089941183 2.78638100824102 7.04991620636974e-016
endloop
endfacet
facet normal 0.851561940039317 -0.524254005493973 0.0
outer loop
vertex 0.722657089941183 2.78638100824102 1.90000000000001
vertex 0.969711875786574 3.09018639741318 7.04991620636974e-016
vertex 0.969711875786574 3.09018639741318 1.90000000000001
endloop
endfacet
facet normal -1.0 5.25755483843173e-016 0.0
outer loop
vertex 10.8254067570816 1.0 3.90000000000001
vertex 10.8594809307926 0.74118095489748 1.90000000000001
vertex 10.8594809307926 0.74118095489748 3.90000000000001
endloop
endfacet
facet normal -0.965925826289075 -0.258819045102495 0.0
outer loop
vertex 10.8594809307926 0.74118095489748 1.90000000000001
vertex 10.8254067570816 1.0 3.90000000000001
vertex 10.8254067570816 1.0 1.90000000000001
endloop
endfacet
facet normal 0.958232591661886 -0.285990035275613 0.0
outer loop
vertex 0.562651112507226 2.42898505291332 7.04991620636974e-016
vertex 0.50059808642457 2.04235447516089 1.90000000000001
vertex 0.50059808642457 2.04235447516089 7.04991620636974e-016
endloop
endfacet
facet normal 0.999601275716995 -0.0282363167739043 0.0
outer loop
vertex 0.50059808642457 2.04235447516089 1.90000000000001
vertex 0.562651112507226 2.42898505291332 7.04991620636974e-016
vertex 0.562651112507226 2.42898505291332 1.90000000000001
endloop
endfacet
facet normal 0.499999999999935 0.866025403784476 -1.50668569723792e-018
outer loop
vertex 12.3254067570816 1.86602540378443 3.90000000000001
vertex 12.5325135382682 1.70710678118655 1.90000000000001
vertex 12.3254067570816 1.86602540378443 1.90000000000001
endloop
endfacet
facet normal 0.707106781186514 0.707106781186581 -1.50668569723796e-018
outer loop
vertex 12.5325135382682 1.70710678118655 1.90000000000001
vertex 12.3254067570816 1.86602540378443 3.90000000000001
vertex 12.5325135382682 1.70710678118655 3.90000000000001
endloop
endfacet
facet normal 0.475347270222926 -0.879798256813238 1.30557056461778e-018
outer loop
vertex 1.28697909466561 3.31969738521982 1.90000000000001
vertex 0.969711875786574 3.09018639741318 7.04991620636974e-016
vertex 1.28697909466561 3.31969738521982 7.04991620636974e-016
endloop
endfacet
facet normal 0.686858749475678 -0.726790931608745 1.30557056461781e-018
outer loop
vertex 0.969711875786574 3.09018639741318 7.04991620636974e-016
vertex 1.28697909466561 3.31969738521982 1.90000000000001
vertex 0.969711875786574 3.09018639741318 1.90000000000001
endloop
endfacet
facet normal -0.726790931608857 -0.68685874947556 0.0
outer loop
vertex 3.09018639741322 3.03028812421344 1.90000000000001
vertex 2.78638100824114 3.27734291005892 7.04991620636974e-016
vertex 3.09018639741322 3.03028812421344 7.04991620636974e-016
endloop
endfacet
facet normal -0.524254005494056 -0.851561940039266 0.0
outer loop
vertex 2.78638100824114 3.27734291005892 7.04991620636974e-016
vertex 3.09018639741322 3.03028812421344 1.90000000000001
vertex 2.78638100824114 3.27734291005892 1.90000000000001
endloop
endfacet
facet normal 0.0282363167739317 0.999601275716994 0.0
outer loop
vertex 1.95764552483911 0.5005980864245 1.90000000000001
vertex 2.34716249007974 0.540726822873212 7.04991620636974e-016
vertex 1.95764552483911 0.5005980864245 7.04991620636974e-016
endloop
endfacet
facet normal -0.231441660053146 0.972848784751178 0.0
outer loop
vertex 2.34716249007974 0.540726822873212 7.04991620636974e-016
vertex 1.95764552483911 0.5005980864245 1.90000000000001
vertex 2.34716249007974 0.540726822873212 1.90000000000001
endloop
endfacet
facet normal -0.972848784751172 -0.231441660053171 0.0
outer loop
vertex 3.45927317712683 2.34716249007967 1.90000000000001
vertex 3.49940191357553 1.9576455248391 7.04991620636974e-016
vertex 3.49940191357553 1.9576455248391 1.90000000000001
endloop
endfacet
facet normal -0.999601275716994 0.0282363167739446 0.0
outer loop
vertex 3.49940191357553 1.9576455248391 7.04991620636974e-016
vertex 3.45927317712683 2.34716249007967 1.90000000000001
vertex 3.45927317712683 2.34716249007967 7.04991620636974e-016
endloop
endfacet
facet normal 0.524254005494045 0.851561940039273 0.0
outer loop
vertex 1.21361899175903 0.722657089941062 1.90000000000001
vertex 1.57101494708664 0.562651112507136 7.04991620636974e-016
vertex 1.21361899175903 0.722657089941062 7.04991620636974e-016
endloop
endfacet
facet normal 0.285990035275592 0.958232591661892 0.0
outer loop
vertex 1.57101494708664 0.562651112507136 7.04991620636974e-016
vertex 1.21361899175903 0.722657089941062 1.90000000000001
vertex 1.57101494708664 0.562651112507136 1.90000000000001
endloop
endfacet
facet normal 0.500000000000126 -0.866025403784366 0.0
outer loop
vertex 12.3254067570817 0.133974596215557 3.90000000000001
vertex 12.0842258021842 0.0340741737109332 1.90000000000001
vertex 12.3254067570817 0.133974596215557 1.90000000000001
endloop
endfacet
facet normal 0.258819045102479 -0.965925826289079 -1.27819801202256e-019
outer loop
vertex 12.0842258021842 0.0340741737109332 1.90000000000001
vertex 12.3254067570817 0.133974596215557 3.90000000000001
vertex 12.0842258021842 0.0340741737109332 3.90000000000001
endloop
endfacet
facet normal 0.707106781186555 -0.70710678118654 0.0
outer loop
vertex 12.5325135382681 0.292893218813451 3.90000000000001
vertex 12.3254067570817 0.133974596215557 1.90000000000001
vertex 12.5325135382681 0.292893218813451 1.90000000000001
endloop
endfacet
facet normal 0.500000000000126 -0.866025403784366 0.0
outer loop
vertex 12.3254067570817 0.133974596215557 1.90000000000001
vertex 12.5325135382681 0.292893218813451 3.90000000000001
vertex 12.3254067570817 0.133974596215557 3.90000000000001
endloop
endfacet
facet normal 0.86602540378444 -0.499999999999997 0.0
outer loop
vertex 12.6914321608661 0.5 1.90000000000001
vertex 12.5325135382681 0.292893218813451 3.90000000000001
vertex 12.5325135382681 0.292893218813451 1.90000000000001
endloop
endfacet
facet normal 0.707106781186555 -0.70710678118654 0.0
outer loop
vertex 12.5325135382681 0.292893218813451 3.90000000000001
vertex 12.6914321608661 0.5 1.90000000000001
vertex 12.6914321608661 0.5 3.90000000000001
endloop
endfacet
facet normal 0.965925826289107 -0.258819045102377 0.0
outer loop
vertex 12.7913325833706 0.741180954897474 1.90000000000001
vertex 12.6914321608661 0.5 3.90000000000001
vertex 12.6914321608661 0.5 1.90000000000001
endloop
endfacet
facet normal 0.86602540378444 -0.499999999999997 0.0
outer loop
vertex 12.6914321608661 0.5 3.90000000000001
vertex 12.7913325833706 0.741180954897474 1.90000000000001
vertex 12.7913325833706 0.741180954897474 3.90000000000001
endloop
endfacet
facet normal 0.231441660053111 -0.972848784751186 0.0
outer loop
vertex 1.65283750992041 3.45927317712677 1.90000000000001
vertex 1.28697909466561 3.31969738521982 7.04991620636974e-016
vertex 1.65283750992041 3.45927317712677 7.04991620636974e-016
endloop
endfacet
facet normal 0.475347270222926 -0.879798256813238 1.30557056461778e-018
outer loop
vertex 1.28697909466561 3.31969738521982 7.04991620636974e-016
vertex 1.65283750992041 3.45927317712677 1.90000000000001
vertex 1.28697909466561 3.31969738521982 1.90000000000001
endloop
endfacet
facet normal -0.707106781186512 0.707106781186583 0.0
outer loop
vertex 11.1182999758951 1.70710678118655 3.90000000000001
vertex 10.9593813532972 1.5 1.90000000000001
vertex 10.9593813532972 1.5 3.90000000000001
endloop
endfacet
facet normal -0.866025403784438 0.500000000000001 0.0
outer loop
vertex 10.9593813532972 1.5 1.90000000000001
vertex 11.1182999758951 1.70710678118655 3.90000000000001
vertex 11.1182999758951 1.70710678118655 1.90000000000001
endloop
endfacet
facet normal 1.0 -5.34666593738817e-016 0.0
outer loop
vertex 12.8254067570816 0.999999999999994 1.90000000000001
vertex 12.7913325833706 0.741180954897474 3.90000000000001
vertex 12.7913325833706 0.741180954897474 1.90000000000001
endloop
endfacet
facet normal 0.965925826289107 -0.258819045102377 0.0
outer loop
vertex 12.7913325833706 0.741180954897474 3.90000000000001
vertex 12.8254067570816 0.999999999999994 1.90000000000001
vertex 12.8254067570816 0.999999999999994 3.90000000000001
endloop
endfacet
facet normal -0.231441660053146 0.972848784751178 0.0
outer loop
vertex 2.34716249007974 0.540726822873212 1.90000000000001
vertex 2.71302090533444 0.68030261478017 7.04991620636974e-016
vertex 2.34716249007974 0.540726822873212 7.04991620636974e-016
endloop
endfacet
facet normal -0.475347270222943 0.879798256813229 0.0
outer loop
vertex 2.71302090533444 0.68030261478017 7.04991620636974e-016
vertex 2.34716249007974 0.540726822873212 1.90000000000001
vertex 2.71302090533444 0.68030261478017 1.90000000000001
endloop
endfacet
facet normal 0.965925826289108 0.258819045102374 0.0
outer loop
vertex 12.7913325833706 1.25881904510252 1.90000000000001
vertex 12.8254067570816 0.999999999999994 3.90000000000001
vertex 12.8254067570816 0.999999999999994 1.90000000000001
endloop
endfacet
facet normal 1.0 -5.34666593738817e-016 0.0
outer loop
vertex 12.8254067570816 0.999999999999994 3.90000000000001
vertex 12.7913325833706 1.25881904510252 1.90000000000001
vertex 12.7913325833706 1.25881904510252 3.90000000000001
endloop
endfacet
facet normal -0.958232591661909 0.285990035275532 0.0
outer loop
vertex 3.4373488874929 1.57101494708666 1.90000000000001
vertex 3.27734291005898 1.21361899175895 7.04991620636974e-016
vertex 3.27734291005898 1.21361899175895 1.90000000000001
endloop
endfacet
facet normal -0.851561940039303 0.524254005493996 0.0
outer loop
vertex 3.27734291005898 1.21361899175895 7.04991620636974e-016
vertex 3.4373488874929 1.57101494708666 1.90000000000001
vertex 3.4373488874929 1.57101494708666 7.04991620636974e-016
endloop
endfacet
facet normal 0.285990035275592 0.958232591661892 0.0
outer loop
vertex 1.57101494708664 0.562651112507136 1.90000000000001
vertex 1.95764552483911 0.5005980864245 7.04991620636974e-016
vertex 1.57101494708664 0.562651112507136 7.04991620636974e-016
endloop
endfacet
facet normal 0.0282363167739317 0.999601275716994 0.0
outer loop
vertex 1.95764552483911 0.5005980864245 7.04991620636974e-016
vertex 1.57101494708664 0.562651112507136 1.90000000000001
vertex 1.95764552483911 0.5005980864245 1.90000000000001
endloop
endfacet
facet normal 1.29771123594529e-031 1.0 -1.48419288555152e-015
outer loop
vertex 5.6399329650958e-014 3.99999999999999 1.90000000000001
vertex 4.00000000000009 3.99999999999999 -7.04991620636974e-016
vertex 5.6399329650958e-014 3.99999999999999 -7.04991620636974e-016
endloop
endfacet
facet normal 1.29771123594529e-031 1.0 -1.48419288555152e-015
outer loop
vertex 4.00000000000009 3.99999999999999 -7.04991620636974e-016
vertex 5.6399329650958e-014 3.99999999999999 1.90000000000001
vertex 4.00000000000009 4.0 1.90000000000001
endloop
endfacet
facet normal 1.0 -2.11497486191092e-014 2.22628932832728e-014
outer loop
vertex 4.00000000000009 3.99999999999999 -7.04991620636974e-016
vertex 4.00000000000001 2.0 1.90000000000001
vertex 4.00000000000009 1.99999999999999 0.0
endloop
endfacet
facet normal 1.0 -2.11497486191092e-014 2.22628932832728e-014
outer loop
vertex 4.00000000000001 2.0 1.90000000000001
vertex 4.00000000000009 3.99999999999999 -7.04991620636974e-016
vertex 4.00000000000009 4.0 1.90000000000001
endloop
endfacet
facet normal -0.258819045102524 -0.965925826289067 0.0
outer loop
vertex 11.5665877119791 0.0340741737109318 3.90000000000001
vertex 11.3254067570816 0.133974596215565 1.90000000000001
vertex 11.5665877119791 0.0340741737109318 1.90000000000001
endloop
endfacet
facet normal -0.500000000000031 -0.866025403784421 0.0
outer loop
vertex 11.3254067570816 0.133974596215565 1.90000000000001
vertex 11.5665877119791 0.0340741737109318 3.90000000000001
vertex 11.3254067570816 0.133974596215565 3.90000000000001
endloop
endfacet
facet normal 1.40884647450178e-014 1.0 0.0
outer loop
vertex 11.8254067570816 2.0 3.90000000000001
vertex 12.0842258021841 1.96592582628907 1.90000000000001
vertex 11.8254067570816 2.0 1.90000000000001
endloop
endfacet
facet normal 0.25881904510253 0.965925826289066 0.0
outer loop
vertex 12.0842258021841 1.96592582628907 1.90000000000001
vertex 11.8254067570816 2.0 3.90000000000001
vertex 12.0842258021841 1.96592582628907 3.90000000000001
endloop
endfacet
facet normal 5.3196976977463e-017 -1.79605635141733e-016 -1.0
outer loop
vertex 5.6399329650958e-014 3.99999999999999 -7.04991620636974e-016
vertex 0.562651112507226 2.42898505291332 7.04991620636974e-016
vertex 0.50059808642457 2.04235447516089 7.04991620636974e-016
endloop
endfacet
facet normal 5.3196976977463e-017 -1.79605635141733e-016 -1.0
outer loop
vertex 0.562651112507226 2.42898505291332 7.04991620636974e-016
vertex 5.6399329650958e-014 3.99999999999999 -7.04991620636974e-016
vertex 0.722657089941183 2.78638100824102 7.04991620636974e-016
endloop
endfacet
facet normal 5.3196976977463e-017 -1.79605635141733e-016 -1.0
outer loop
vertex 0.722657089941183 2.78638100824102 7.04991620636974e-016
vertex 5.6399329650958e-014 3.99999999999999 -7.04991620636974e-016
vertex 0.969711875786574 3.09018639741318 7.04991620636974e-016
endloop
endfacet
facet normal 5.3196976977463e-017 -1.79605635141733e-016 -1.0
outer loop
vertex 0.969711875786574 3.09018639741318 7.04991620636974e-016
vertex 5.6399329650958e-014 3.99999999999999 -7.04991620636974e-016
vertex 1.28697909466561 3.31969738521982 7.04991620636974e-016
endloop
endfacet
facet normal 5.3196976977463e-017 -1.79605635141733e-016 -1.0
outer loop
vertex 1.28697909466561 3.31969738521982 7.04991620636974e-016
vertex 5.6399329650958e-014 3.99999999999999 -7.04991620636974e-016
vertex 1.65283750992041 3.45927317712677 7.04991620636974e-016
endloop
endfacet
facet normal 5.3196976977463e-017 -1.79605635141733e-016 -1.0
outer loop
vertex 1.65283750992041 3.45927317712677 7.04991620636974e-016
vertex 5.6399329650958e-014 3.99999999999999 -7.04991620636974e-016
vertex 4.00000000000009 3.99999999999999 -7.04991620636974e-016
endloop
endfacet
facet normal 5.3196976977463e-017 -1.79605635141733e-016 -1.0
outer loop
vertex 1.65283750992041 3.45927317712677 7.04991620636974e-016
vertex 4.00000000000009 3.99999999999999 -7.04991620636974e-016
vertex 2.04235447516092 3.49940191357548 7.04991620636974e-016
endloop
endfacet
facet normal 5.3196976977463e-017 -1.79605635141733e-016 -1.0
outer loop
vertex 2.04235447516092 3.49940191357548 7.04991620636974e-016
vertex 4.00000000000009 3.99999999999999 -7.04991620636974e-016
vertex 2.4289850529134 3.43734888749285 7.04991620636974e-016
endloop
endfacet
facet normal 5.3196976977463e-017 -1.79605635141733e-016 -1.0
outer loop
vertex 2.4289850529134 3.43734888749285 7.04991620636974e-016
vertex 4.00000000000009 3.99999999999999 -7.04991620636974e-016
vertex 2.78638100824114 3.27734291005892 7.04991620636974e-016
endloop
endfacet
facet normal 5.3196976977463e-017 -1.79605635141733e-016 -1.0
outer loop
vertex 2.78638100824114 3.27734291005892 7.04991620636974e-016
vertex 4.00000000000009 3.99999999999999 -7.04991620636974e-016
vertex 3.09018639741322 3.03028812421344 7.04991620636974e-016
endloop
endfacet
facet normal 5.3196976977463e-017 -1.79605635141733e-016 -1.0
outer loop
vertex 3.09018639741322 3.03028812421344 7.04991620636974e-016
vertex 4.00000000000009 3.99999999999999 -7.04991620636974e-016
vertex 3.31969738521982 2.71302090533444 7.04991620636974e-016
endloop
endfacet
facet normal 5.3196976977463e-017 -1.79605635141733e-016 -1.0
outer loop
vertex 3.31969738521982 2.71302090533444 7.04991620636974e-016
vertex 4.00000000000009 3.99999999999999 -7.04991620636974e-016
vertex 3.45927317712683 2.34716249007967 7.04991620636974e-016
endloop
endfacet
facet normal 5.3196976977463e-017 -1.79605635141733e-016 -1.0
outer loop
vertex 3.45927317712683 2.34716249007967 7.04991620636974e-016
vertex 4.00000000000009 3.99999999999999 -7.04991620636974e-016
vertex 3.49940191357553 1.9576455248391 7.04991620636974e-016
endloop
endfacet
facet normal 5.3196976977463e-017 -1.79605635141733e-016 -1.0
outer loop
vertex 0.0 0.0 0.0
vertex 1.95764552483911 0.5005980864245 7.04991620636974e-016
vertex 30.0000000000001 -1.40998324127395e-015 1.40998324127395e-015
endloop
endfacet
facet normal 5.3196976977463e-017 -1.79605635141733e-016 -1.0
outer loop
vertex 1.95764552483911 0.5005980864245 7.04991620636974e-016
vertex 0.0 0.0 0.0
vertex 1.57101494708664 0.562651112507136 7.04991620636974e-016
endloop
endfacet
facet normal 5.3196976977463e-017 -1.79605635141733e-016 -1.0
outer loop
vertex 1.57101494708664 0.562651112507136 7.04991620636974e-016
vertex 0.0 0.0 0.0
vertex 1.21361899175903 0.722657089941062 7.04991620636974e-016
endloop
endfacet
facet normal 5.3196976977463e-017 -1.79605635141733e-016 -1.0
outer loop
vertex 1.21361899175903 0.722657089941062 7.04991620636974e-016
vertex 0.0 0.0 0.0
vertex 0.909813602586844 0.969711875786543 7.04991620636974e-016
endloop
endfacet
facet normal 5.3196976977463e-017 -1.79605635141733e-016 -1.0
outer loop
vertex 0.909813602586844 0.969711875786543 7.04991620636974e-016
vertex 0.0 0.0 0.0
vertex 0.680302614780234 1.28697909466554 7.04991620636974e-016
endloop
endfacet
facet normal 5.3196976977463e-017 -1.79605635141733e-016 -1.0
outer loop
vertex 0.680302614780234 1.28697909466554 7.04991620636974e-016
vertex 0.0 0.0 0.0
vertex 0.540726822873325 1.65283750992032 7.04991620636974e-016
endloop
endfacet
facet normal 5.3196976977463e-017 -1.79605635141733e-016 -1.0
outer loop
vertex 0.540726822873325 1.65283750992032 7.04991620636974e-016
vertex 0.0 0.0 0.0
vertex 5.6399329650958e-014 3.99999999999999 -7.04991620636974e-016
endloop
endfacet
facet normal 5.3196976977463e-017 -1.79605635141733e-016 -1.0
outer loop
vertex 0.540726822873325 1.65283750992032 7.04991620636974e-016
vertex 5.6399329650958e-014 3.99999999999999 -7.04991620636974e-016
vertex 0.50059808642457 2.04235447516089 7.04991620636974e-016
endloop
endfacet
facet normal 5.3196976977463e-017 -1.79605635141733e-016 -1.0
outer loop
vertex 30.0000000000001 -1.40998324127395e-015 1.40998324127395e-015
vertex 1.95764552483911 0.5005980864245 7.04991620636974e-016
vertex 2.34716249007974 0.540726822873212 7.04991620636974e-016
endloop
endfacet
facet normal 5.3196976977463e-017 -1.79605635141733e-016 -1.0
outer loop
vertex 30.0000000000001 -1.40998324127395e-015 1.40998324127395e-015
vertex 2.34716249007974 0.540726822873212 7.04991620636974e-016
vertex 2.71302090533444 0.68030261478017 7.04991620636974e-016
endloop
endfacet
facet normal 5.3196976977463e-017 -1.79605635141733e-016 -1.0
outer loop
vertex 30.0000000000001 -1.40998324127395e-015 1.40998324127395e-015
vertex 2.71302090533444 0.68030261478017 7.04991620636974e-016
vertex 3.03028812421353 0.909813602586811 7.04991620636974e-016
endloop
endfacet
facet normal 5.3196976977463e-017 -1.79605635141733e-016 -1.0
outer loop
vertex 30.0000000000001 -1.40998324127395e-015 1.40998324127395e-015
vertex 3.03028812421353 0.909813602586811 7.04991620636974e-016
vertex 3.27734291005898 1.21361899175895 7.04991620636974e-016
endloop
endfacet
facet normal 5.3196976977463e-017 -1.79605635141733e-016 -1.0
outer loop
vertex 30.0000000000001 -1.40998324127395e-015 1.40998324127395e-015
vertex 3.27734291005898 1.21361899175895 7.04991620636974e-016
vertex 3.4373488874929 1.57101494708666 7.04991620636974e-016
endloop
endfacet
facet normal 5.3196976977463e-017 -1.79605635141733e-016 -1.0
outer loop
vertex 30.0000000000001 -1.40998324127395e-015 1.40998324127395e-015
vertex 3.4373488874929 1.57101494708666 7.04991620636974e-016
vertex 3.49940191357553 1.9576455248391 7.04991620636974e-016
endloop
endfacet
facet normal 5.3196976977463e-017 -1.79605635141733e-016 -1.0
outer loop
vertex 30.0000000000001 -1.40998324127395e-015 1.40998324127395e-015
vertex 3.49940191357553 1.9576455248391 7.04991620636974e-016
vertex 4.00000000000009 1.99999999999999 0.0
endloop
endfacet
facet normal 5.3196976977463e-017 -1.79605635141733e-016 -1.0
outer loop
vertex 4.00000000000009 1.99999999999999 0.0
vertex 3.49940191357553 1.9576455248391 7.04991620636974e-016
vertex 4.00000000000009 3.99999999999999 -7.04991620636974e-016
endloop
endfacet
facet normal 5.3196976977463e-017 -1.79605635141733e-016 -1.0
outer loop
vertex 30.0000000000001 -1.40998324127395e-015 1.40998324127395e-015
vertex 4.00000000000009 1.99999999999999 0.0
vertex 30.0000000000001 2.0 1.40998324127395e-015
endloop
endfacet
facet normal -0.999601275716994 0.0282363167739446 0.0
outer loop
vertex 3.49940191357553 1.9576455248391 1.90000000000001
vertex 3.4373488874929 1.57101494708666 7.04991620636974e-016
vertex 3.4373488874929 1.57101494708666 1.90000000000001
endloop
endfacet
facet normal -0.958232591661909 0.285990035275532 0.0
outer loop
vertex 3.4373488874929 1.57101494708666 7.04991620636974e-016
vertex 3.49940191357553 1.9576455248391 1.90000000000001
vertex 3.49940191357553 1.9576455248391 7.04991620636974e-016
endloop
endfacet
facet normal 2.46837744109419e-015 -1.0 -1.27819801202256e-019
outer loop
vertex 11.8254067570816 4.93494134445882e-015 3.90000000000001
vertex 11.5665877119791 0.0340741737109318 1.90000000000001
vertex 11.8254067570816 4.93494134445882e-015 1.90000000000001
endloop
endfacet
facet normal -0.258819045102524 -0.965925826289067 0.0
outer loop
vertex 11.5665877119791 0.0340741737109318 1.90000000000001
vertex 11.8254067570816 4.93494134445882e-015 3.90000000000001
vertex 11.5665877119791 0.0340741737109318 3.90000000000001
endloop
endfacet
facet normal -0.851561940039303 0.524254005493996 0.0
outer loop
vertex 3.27734291005898 1.21361899175895 1.90000000000001
vertex 3.03028812421353 0.909813602586811 7.04991620636974e-016
vertex 3.03028812421353 0.909813602586811 1.90000000000001
endloop
endfacet
facet normal -0.686858749475595 0.726790931608824 0.0
outer loop
vertex 3.03028812421353 0.909813602586811 7.04991620636974e-016
vertex 3.27734291005898 1.21361899175895 1.90000000000001
vertex 3.27734291005898 1.21361899175895 7.04991620636974e-016
endloop
endfacet
facet normal 0.999601275716995 -0.0282363167739043 0.0
outer loop
vertex 0.50059808642457 2.04235447516089 7.04991620636974e-016
vertex 0.540726822873325 1.65283750992032 1.90000000000001
vertex 0.540726822873325 1.65283750992032 7.04991620636974e-016
endloop
endfacet
facet normal 0.972848784751186 0.231441660053114 1.25996658873708e-018
outer loop
vertex 0.540726822873325 1.65283750992032 1.90000000000001
vertex 0.50059808642457 2.04235447516089 7.04991620636974e-016
vertex 0.50059808642457 2.04235447516089 1.90000000000001
endloop
endfacet
facet normal 0.25881904510253 0.965925826289066 0.0
outer loop
vertex 12.0842258021841 1.96592582628907 3.90000000000001
vertex 12.3254067570816 1.86602540378443 1.90000000000001
vertex 12.0842258021841 1.96592582628907 1.90000000000001
endloop
endfacet
facet normal 0.499999999999935 0.866025403784476 -1.50668569723792e-018
outer loop
vertex 12.3254067570816 1.86602540378443 1.90000000000001
vertex 12.0842258021841 1.96592582628907 3.90000000000001
vertex 12.3254067570816 1.86602540378443 3.90000000000001
endloop
endfacet
facet normal -0.965925826289075 -0.258819045102495 0.0
outer loop
vertex 10.8594809307926 0.74118095489748 3.90000000000001
vertex 10.9593813532972 0.500000000000008 1.90000000000001
vertex 10.9593813532972 0.500000000000008 3.90000000000001
endloop
endfacet
facet normal -0.86602540378444 -0.499999999999998 0.0
outer loop
vertex 10.9593813532972 0.500000000000008 1.90000000000001
vertex 10.8594809307926 0.74118095489748 3.90000000000001
vertex 10.8594809307926 0.74118095489748 1.90000000000001
endloop
endfacet
facet normal -0.965925826289076 0.258819045102493 0.0
outer loop
vertex 10.8594809307926 1.25881904510252 3.90000000000001
vertex 10.8254067570816 1.0 1.90000000000001
vertex 10.8254067570816 1.0 3.90000000000001
endloop
endfacet
facet normal -1.0 5.25755483843173e-016 0.0
outer loop
vertex 10.8254067570816 1.0 1.90000000000001
vertex 10.8594809307926 1.25881904510252 3.90000000000001
vertex 10.8594809307926 1.25881904510252 1.90000000000001
endloop
endfacet
endsolid Traba Invertida
