solid Traba
facet normal -0.815688359961618 -0.578491572473727 0.0
outer loop
vertex 0.44991066893321 1.0429026376528 1.9
vertex 0.893707027080282 0.564392487413482 2.46747067222941e-15
vertex 0.893707027080282 0.564392487413482 1.9
endloop
endfacet
facet normal -0.638169816702776 -0.769895632569471 0.0
outer loop
vertex 0.893707027080282 0.564392487413482 2.46747067222941e-15
vertex 0.44991066893321 1.0429026376528 1.9
vertex 0.44991066893321 1.0429026376528 2.46747067222941e-15
endloop
endfacet
facet normal -0.417161055061105 -0.90883257761829 0.0
outer loop
vertex 1.44622893118437 0.21705012479148 1.9
vertex 0.893707027080282 0.564392487413482 2.46747067222941e-15
vertex 1.44622893118437 0.21705012479148 1.05748743095546e-15
endloop
endfacet
facet normal -0.638169816702776 -0.769895632569471 0.0
outer loop
vertex 0.893707027080282 0.564392487413482 2.46747067222941e-15
vertex 1.44622893118437 0.21705012479148 1.9
vertex 0.893707027080282 0.564392487413482 1.9
endloop
endfacet
facet normal -0.0610155443056005 -0.998136815949142 0.0
outer loop
vertex 2.58065488529564 3.98633679276094 2.46747067222941e-15
vertex 2.48913156883723 3.97993381874876 1.9
vertex 2.48913156883723 3.97993381874876 1.05748743095546e-15
endloop
endfacet
facet normal 0.0697894500348655 -0.997561743785231 0.0
outer loop
vertex 2.48913156883723 3.97993381874876 1.9
vertex 2.58065488529564 3.98633679276094 2.46747067222941e-15
vertex 2.58065488529564 3.98633679276094 1.9
endloop
endfacet
facet normal 0.0610155443055971 0.998136815949142 0.0
outer loop
vertex 2.39760825237877 0.991926344913514 1.9
vertex 2.7882320601408 1.01925439842401 2.46747067222941e-15
vertex 2.39760825237877 0.991926344913514 1.05748743095546e-15
endloop
endfacet
facet normal -0.199400327535717 0.97991811360881 0.0
outer loop
vertex 2.7882320601408 1.01925439842401 2.46747067222941e-15
vertex 2.39760825237877 0.991926344913514 1.9
vertex 2.7882320601408 1.01925439842401 1.9
endloop
endfacet
facet normal 0.57849157247378 -0.815688359961581 0.0
outer loop
vertex 3.93536050002159 0.449910668933235 1.9
vertex 3.35829223812844 0.145083845142755 2.46747067222941e-15
vertex 3.93536050002159 0.449910668933235 2.46747067222941e-15
endloop
endfacet
facet normal 0.347664267716492 -0.937619089477787 0.0
outer loop
vertex 3.35829223812844 0.145083845142755 2.46747067222941e-15
vertex 3.93536050002159 0.449910668933235 1.9
vertex 3.35829223812844 0.145083845142755 1.9
endloop
endfacet
facet normal 0.908832577618276 -0.417161055061135 0.0
outer loop
vertex 4.76121301288296 1.44622893118441 2.46747067222941e-15
vertex 4.41387065026087 0.893707027080322 1.9
vertex 4.41387065026087 0.893707027080322 2.46747067222941e-15
endloop
endfacet
facet normal 0.769895632569455 -0.638169816702795 0.0
outer loop
vertex 4.41387065026087 0.893707027080322 1.9
vertex 4.76121301288296 1.44622893118441 2.46747067222941e-15
vertex 4.76121301288296 1.44622893118441 1.9
endloop
endfacet
facet normal 4.25340199756577e-16 -1.0 0.0
outer loop
vertex 31.4891315688374 2.48913156883722 1.9
vertex 4.96949872753282 2.48913156883721 2.11497486191092e-15
vertex 31.4891315688374 2.48913156883722 1.05748743095546e-15
endloop
endfacet
facet normal 4.25340199756577e-16 -1.0 0.0
outer loop
vertex 4.96949872753282 2.48913156883721 2.11497486191092e-15
vertex 31.4891315688374 2.48913156883722 1.9
vertex 4.96949872753282 2.48913156883721 1.9
endloop
endfacet
facet normal 0.748933816245825 0.662644805973355 0.0
outer loop
vertex 1.36573084446842 1.49516435987723 2.46747067222941e-15
vertex 1.66126743978376 1.23827546846969 1.9
vertex 1.66126743978376 1.23827546846969 1.40998324127395e-15
endloop
endfacet
facet normal 0.551909419368956 0.833904066911669 0.0
outer loop
vertex 1.66126743978376 1.23827546846969 1.9
vertex 1.36573084446842 1.49516435987723 2.46747067222941e-15
vertex 1.36573084446842 1.49516435987723 1.9
endloop
endfacet
facet normal -0.769895632569476 0.638169816702769 0.0
outer loop
vertex 0.564392487413519 4.08455611059411 1.9
vertex 1.04290263765277 4.52835246874118 2.46747067222941e-15
vertex 0.564392487413519 4.08455611059411 2.46747067222941e-15
endloop
endfacet
facet normal -0.578491572473768 0.81568835996159 0.0
outer loop
vertex 1.04290263765277 4.52835246874118 2.46747067222941e-15
vertex 0.564392487413519 4.08455611059411 1.9
vertex 1.04290263765277 4.52835246874118 1.9
endloop
endfacet
facet normal 0.500000000000042 0.866025403784414 0.0
outer loop
vertex 31.9891315688374 4.35515697262164 1.9
vertex 32.1962383500239 4.19623835002377 2.46747067222941e-15
vertex 31.9891315688374 4.35515697262164 2.46747067222941e-15
endloop
endfacet
facet normal 0.707106781186535 0.70710678118656 0.0
outer loop
vertex 32.1962383500239 4.19623835002377 2.46747067222941e-15
vertex 31.9891315688374 4.35515697262164 1.9
vertex 32.1962383500239 4.19623835002377 1.9
endloop
endfacet
facet normal -0.995652627534882 -0.0931442176567351 0.0
outer loop
vertex 0.0 2.25627102469547 1.9
vertex 0.145083845142766 1.61997089954599 0.0
vertex 0.145083845142766 1.61997089954599 1.9
endloop
endfacet
facet normal -0.937619089477796 -0.34766426771647 0.0
outer loop
vertex 0.145083845142766 1.61997089954599 0.0
vertex 0.0 2.25627102469547 1.9
vertex 0.0 2.25627102469547 1.05748743095546e-15
endloop
endfacet
facet normal -0.769895632569476 0.638169816702769 0.0
outer loop
vertex 0.564392487413519 4.08455611059411 1.9
vertex 0.217050124791478 3.53203420649002 3.17246229286638e-15
vertex 0.217050124791478 3.53203420649002 1.9
endloop
endfacet
facet normal -0.908832577618272 0.417161055061145 0.0
outer loop
vertex 0.217050124791478 3.53203420649002 3.17246229286638e-15
vertex 0.564392487413519 4.08455611059411 1.9
vertex 0.564392487413519 4.08455611059411 2.46747067222941e-15
endloop
endfacet
facet normal 0.999292441340833 -0.0376113902837845 0.0
outer loop
vertex 4.96949872753282 2.48913156883721 2.11497486191092e-15
vertex 4.95371677988529 2.06982292656643 1.9
vertex 4.95371677988529 2.06982292656643 1.40998324127395e-15
endloop
endfacet
facet normal 0.985834084419236 -0.167723456908349 0.0
outer loop
vertex 4.95371677988529 2.06982292656643 1.9
vertex 4.96949872753282 2.48913156883721 2.11497486191092e-15
vertex 4.96949872753282 2.48913156883721 1.9
endloop
endfacet
facet normal 0.0931442176566933 -0.995652627534886 0.0
outer loop
vertex 2.72199211297892 0.0 1.9
vertex 2.06982292656641 0.0245463577891127 2.46747067222941e-15
vertex 2.72199211297892 0.0 1.40998324127395e-15
endloop
endfacet
facet normal -0.167723456908285 -0.985834084419247 0.0
outer loop
vertex 2.06982292656641 0.0245463577891127 2.46747067222941e-15
vertex 2.72199211297892 0.0 1.9
vertex 2.06982292656641 0.0245463577891127 1.9
endloop
endfacet
facet normal -0.908832577618272 0.417161055061145 0.0
outer loop
vertex 0.217050124791478 3.53203420649002 1.9
vertex 0.024546357789076 2.90844021110796 2.11497486191092e-15
vertex 0.024546357789076 2.90844021110796 1.9
endloop
endfacet
facet normal -0.985834084419248 0.167723456908279 0.0
outer loop
vertex 0.024546357789076 2.90844021110796 2.11497486191092e-15
vertex 0.217050124791478 3.53203420649002 1.9
vertex 0.217050124791478 3.53203420649002 3.17246229286638e-15
endloop
endfacet
facet normal 0.769895632569455 -0.638169816702795 0.0
outer loop
vertex 4.41387065026087 0.893707027080322 1.9
vertex 3.93536050002159 0.449910668933235 2.46747067222941e-15
vertex 4.41387065026087 0.893707027080322 2.46747067222941e-15
endloop
endfacet
facet normal 0.57849157247378 -0.815688359961581 0.0
outer loop
vertex 3.93536050002159 0.449910668933235 2.46747067222941e-15
vertex 4.41387065026087 0.893707027080322 1.9
vertex 3.93536050002159 0.449910668933235 1.9
endloop
endfacet
facet normal 0.965925826289101 -0.2588190451024 0.0
outer loop
vertex 32.4550573951264 3.2303125237347 1.40998324127395e-15
vertex 32.3551569726218 2.9891315688372 1.9
vertex 32.3551569726218 2.9891315688372 2.46747067222941e-15
endloop
endfacet
facet normal 0.866025403784492 -0.499999999999907 0.0
outer loop
vertex 32.3551569726218 2.9891315688372 1.9
vertex 32.4550573951264 3.2303125237347 1.40998324127395e-15
vertex 32.4550573951264 3.2303125237347 1.9
endloop
endfacet
facet normal -0.317273307635527 -0.948334143781617 0.0
outer loop
vertex 2.96504153029039 3.91163278450965 1.9
vertex 2.58065488529564 3.98633679276094 2.46747067222941e-15
vertex 2.96504153029039 3.91163278450965 1.05748743095546e-15
endloop
endfacet
facet normal -0.0610155443056005 -0.998136815949142 0.0
outer loop
vertex 2.58065488529564 3.98633679276094 2.46747067222941e-15
vertex 2.96504153029039 3.91163278450965 1.9
vertex 2.58065488529564 3.98633679276094 1.9
endloop
endfacet
facet normal 0.347664267716492 -0.937619089477787 0.0
outer loop
vertex 3.35829223812844 0.145083845142755 2.46747067222941e-15
vertex 2.72199211297892 0.0 1.9
vertex 2.72199211297892 0.0 1.40998324127395e-15
endloop
endfacet
facet normal 0.0931442176566933 -0.995652627534886 0.0
outer loop
vertex 2.72199211297892 0.0 1.9
vertex 3.35829223812844 0.145083845142755 2.46747067222941e-15
vertex 3.35829223812844 0.145083845142755 1.9
endloop
endfacet
facet normal 0.985834084419236 -0.167723456908349 0.0
outer loop
vertex 4.95371677988529 2.06982292656643 1.40998324127395e-15
vertex 4.76121301288296 1.44622893118441 1.9
vertex 4.76121301288296 1.44622893118441 2.46747067222941e-15
endloop
endfacet
facet normal 0.908832577618276 -0.417161055061135 0.0
outer loop
vertex 4.76121301288296 1.44622893118441 1.9
vertex 4.95371677988529 2.06982292656643 1.40998324127395e-15
vertex 4.95371677988529 2.06982292656643 1.9
endloop
endfacet
facet normal -0.34766426771648 0.937619089477792 0.0
outer loop
vertex 1.61997089954605 4.83317929253169 2.46747067222941e-15
vertex 2.25627102469545 4.97826313767443 1.9
vertex 2.25627102469545 4.97826313767443 1.05748743095546e-15
endloop
endfacet
facet normal -0.0931442176566892 0.995652627534886 0.0
outer loop
vertex 2.25627102469545 4.97826313767443 1.9
vertex 1.61997089954605 4.83317929253169 2.46747067222941e-15
vertex 1.61997089954605 4.83317929253169 1.9
endloop
endfacet
facet normal -0.937619089477796 -0.347664267716471 0.0
outer loop
vertex 0.145083845142766 1.61997089954599 1.9
vertex 0.44991066893321 1.0429026376528 2.46747067222941e-15
vertex 0.44991066893321 1.0429026376528 1.9
endloop
endfacet
facet normal -0.815688359961618 -0.578491572473727 0.0
outer loop
vertex 0.44991066893321 1.0429026376528 2.46747067222941e-15
vertex 0.145083845142766 1.61997089954599 1.9
vertex 0.145083845142766 1.61997089954599 0.0
endloop
endfacet
facet normal -0.979918113608837 -0.199400327535584 0.0
outer loop
vertex 3.95900873925047 2.78823206014088 1.9
vertex 3.97993381874869 2.48913156883722 2.11497486191092e-15
vertex 3.97993381874869 2.48913156883722 1.9
endloop
endfacet
facet normal -0.997561743785265 -0.0697894500343815 -0.0
outer loop
vertex 3.97993381874869 2.48913156883722 2.11497486191092e-15
vertex 3.95900873925047 2.78823206014088 1.9
vertex 3.95900873925047 2.78823206014088 2.11497486191092e-15
endloop
endfacet
facet normal -0.894919611217187 -0.446227396580352 0.0
outer loop
vertex 3.83151098566316 3.15847266370752 1.9
vertex 3.95900873925047 2.78823206014088 2.11497486191092e-15
vertex 3.95900873925047 2.78823206014088 1.9
endloop
endfacet
facet normal -0.979918113608837 -0.199400327535584 0.0
outer loop
vertex 3.95900873925047 2.78823206014088 2.11497486191092e-15
vertex 3.83151098566316 3.15847266370752 1.9
vertex 3.83151098566316 3.15847266370752 3.17246229286638e-15
endloop
endfacet
facet normal -0.985834084419248 0.16772345690828 0.0
outer loop
vertex 0.024546357789076 2.90844021110796 1.9
vertex 0.0 2.25627102469547 1.05748743095546e-15
vertex 0.0 2.25627102469547 1.9
endloop
endfacet
facet normal -0.995652627534882 -0.0931442176567354 0.0
outer loop
vertex 0.0 2.25627102469547 1.05748743095546e-15
vertex 0.024546357789076 2.90844021110796 1.9
vertex 0.024546357789076 2.90844021110796 2.11497486191092e-15
endloop
endfacet
facet normal 0.0697894500347885 -0.997561743785236 0.0
outer loop
vertex 2.48913156883723 3.97993381874876 1.9
vertex 2.19003107753359 3.95900873925042 2.46747067222941e-15
vertex 2.48913156883723 3.97993381874876 1.05748743095546e-15
endloop
endfacet
facet normal 0.199400327535779 -0.979918113608797 0.0
outer loop
vertex 2.19003107753359 3.95900873925042 2.46747067222941e-15
vertex 2.48913156883723 3.97993381874876 1.9
vertex 2.19003107753359 3.95900873925042 1.9
endloop
endfacet
facet normal 0.446227396580217 -0.894919611217255 0.0
outer loop
vertex 1.81979047396696 3.83151098566311 3.17246229286638e-15
vertex 1.49516435987731 3.612532293206 1.9
vertex 1.49516435987731 3.612532293206 7.04991620636974e-16
endloop
endfacet
facet normal 0.662644805973314 -0.748933816245861 0.0
outer loop
vertex 1.49516435987731 3.612532293206 1.9
vertex 1.81979047396696 3.83151098566311 3.17246229286638e-15
vertex 1.81979047396696 3.83151098566311 1.9
endloop
endfacet
facet normal 0.998136815949141 -0.061015544305612 0.0
outer loop
vertex 0.991926344913492 2.58065488529558 1.76247905159244e-15
vertex 1.01925439842397 2.19003107753356 1.9
vertex 1.01925439842397 2.19003107753356 2.46747067222941e-15
endloop
endfacet
facet normal 0.979918113608814 0.1994003275357 0.0
outer loop
vertex 1.01925439842397 2.19003107753356 1.9
vertex 0.991926344913492 2.58065488529558 1.76247905159244e-15
vertex 0.991926344913492 2.58065488529558 1.9
endloop
endfacet
facet normal 0.551909419368956 0.833904066911669 0.0
outer loop
vertex 1.66126743978376 1.23827546846969 1.9
vertex 2.01322160738398 1.06663035316475 2.46747067222941e-15
vertex 1.66126743978376 1.23827546846969 1.40998324127395e-15
endloop
endfacet
facet normal 0.317273307635457 0.94833414378164 0.0
outer loop
vertex 2.01322160738398 1.06663035316475 2.46747067222941e-15
vertex 1.66126743978376 1.23827546846969 1.9
vertex 2.01322160738398 1.06663035316475 1.9
endloop
endfacet
facet normal 0.317273307635457 0.94833414378164 0.0
outer loop
vertex 2.01322160738398 1.06663035316475 2.46747067222941e-15
vertex 2.39760825237877 0.991926344913514 1.9
vertex 2.39760825237877 0.991926344913514 1.05748743095546e-15
endloop
endfacet
facet normal 0.0610155443055971 0.998136815949142 0.0
outer loop
vertex 2.39760825237877 0.991926344913514 1.9
vertex 2.01322160738398 1.06663035316475 2.46747067222941e-15
vertex 2.01322160738398 1.06663035316475 1.9
endloop
endfacet
facet normal 0.979918113608814 0.1994003275357 0.0
outer loop
vertex 1.01925439842397 2.19003107753356 2.46747067222941e-15
vertex 1.14675215201126 1.8197904739669 1.9
vertex 1.14675215201126 1.8197904739669 0.0
endloop
endfacet
facet normal 0.894919611217249 0.446227396580229 0.0
outer loop
vertex 1.14675215201126 1.8197904739669 1.9
vertex 1.01925439842397 2.19003107753356 2.46747067222941e-15
vertex 1.01925439842397 2.19003107753356 1.9
endloop
endfacet
facet normal 0.0 0.0 -1.0
outer loop
vertex 0.024546357789076 2.90844021110796 2.11497486191092e-15
vertex 0.145083845142766 1.61997089954599 0.0
vertex 0.0 2.25627102469547 1.05748743095546e-15
endloop
endfacet
facet normal 0.0 0.0 -1.0
outer loop
vertex 0.145083845142766 1.61997089954599 0.0
vertex 0.024546357789076 2.90844021110796 2.11497486191092e-15
vertex 0.217050124791478 3.53203420649002 3.17246229286638e-15
endloop
endfacet
facet normal 0.0 0.0 -1.0
outer loop
vertex 0.145083845142766 1.61997089954599 0.0
vertex 0.217050124791478 3.53203420649002 3.17246229286638e-15
vertex 0.44991066893321 1.0429026376528 2.46747067222941e-15
endloop
endfacet
facet normal 0.0 0.0 -1.0
outer loop
vertex 0.44991066893321 1.0429026376528 2.46747067222941e-15
vertex 0.217050124791478 3.53203420649002 3.17246229286638e-15
vertex 0.564392487413519 4.08455611059411 2.46747067222941e-15
endloop
endfacet
facet normal 0.0 0.0 -1.0
outer loop
vertex 0.44991066893321 1.0429026376528 2.46747067222941e-15
vertex 0.564392487413519 4.08455611059411 2.46747067222941e-15
vertex 0.893707027080282 0.564392487413482 2.46747067222941e-15
endloop
endfacet
facet normal 0.0 0.0 -1.0
outer loop
vertex 0.893707027080282 0.564392487413482 2.46747067222941e-15
vertex 0.564392487413519 4.08455611059411 2.46747067222941e-15
vertex 1.04290263765277 4.52835246874118 2.46747067222941e-15
endloop
endfacet
facet normal 0.0 0.0 -1.0
outer loop
vertex 0.893707027080282 0.564392487413482 2.46747067222941e-15
vertex 1.04290263765277 4.52835246874118 2.46747067222941e-15
vertex 0.991926344913492 2.58065488529558 1.76247905159244e-15
endloop
endfacet
facet normal 0.0 0.0 -1.0
outer loop
vertex 0.991926344913492 2.58065488529558 1.76247905159244e-15
vertex 1.04290263765277 4.52835246874118 2.46747067222941e-15
vertex 1.06663035316474 2.96504153029042 7.04991620636974e-16
endloop
endfacet
facet normal 0.0 0.0 -1.0
outer loop
vertex 1.06663035316474 2.96504153029042 7.04991620636974e-16
vertex 1.04290263765277 4.52835246874118 2.46747067222941e-15
vertex 1.61997089954605 4.83317929253169 2.46747067222941e-15
endloop
endfacet
facet normal 0.0 0.0 -1.0
outer loop
vertex 1.06663035316474 2.96504153029042 7.04991620636974e-16
vertex 1.61997089954605 4.83317929253169 2.46747067222941e-15
vertex 1.23827546846974 3.31699569789063 3.17246229286638e-15
endloop
endfacet
facet normal 0.0 0.0 -1.0
outer loop
vertex 1.23827546846974 3.31699569789063 3.17246229286638e-15
vertex 1.61997089954605 4.83317929253169 2.46747067222941e-15
vertex 1.49516435987731 3.612532293206 7.04991620636974e-16
endloop
endfacet
facet normal 0.0 0.0 -1.0
outer loop
vertex 1.49516435987731 3.612532293206 7.04991620636974e-16
vertex 1.61997089954605 4.83317929253169 2.46747067222941e-15
vertex 1.81979047396696 3.83151098566311 3.17246229286638e-15
endloop
endfacet
facet normal 0.0 0.0 -1.0
outer loop
vertex 1.81979047396696 3.83151098566311 3.17246229286638e-15
vertex 1.61997089954605 4.83317929253169 2.46747067222941e-15
vertex 2.25627102469545 4.97826313767443 1.05748743095546e-15
endloop
endfacet
facet normal 0.0 0.0 -1.0
outer loop
vertex 1.81979047396696 3.83151098566311 3.17246229286638e-15
vertex 2.25627102469545 4.97826313767443 1.05748743095546e-15
vertex 2.19003107753359 3.95900873925042 2.46747067222941e-15
endloop
endfacet
facet normal 0.0 0.0 -1.0
outer loop
vertex 2.19003107753359 3.95900873925042 2.46747067222941e-15
vertex 2.25627102469545 4.97826313767443 1.05748743095546e-15
vertex 2.48913156883723 3.97993381874876 1.05748743095546e-15
endloop
endfacet
facet normal 0.0 0.0 -1.0
outer loop
vertex 2.48913156883723 3.97993381874876 1.05748743095546e-15
vertex 2.25627102469545 4.97826313767443 1.05748743095546e-15
vertex 2.90844021110796 4.95371677988531 1.05748743095546e-15
endloop
endfacet
facet normal 0.0 0.0 -1.0
outer loop
vertex 2.48913156883723 3.97993381874876 1.05748743095546e-15
vertex 2.90844021110796 4.95371677988531 1.05748743095546e-15
vertex 2.58065488529564 3.98633679276094 2.46747067222941e-15
endloop
endfacet
facet normal 0.0 0.0 -1.0
outer loop
vertex 2.58065488529564 3.98633679276094 2.46747067222941e-15
vertex 2.90844021110796 4.95371677988531 1.05748743095546e-15
vertex 2.96504153029039 3.91163278450965 1.05748743095546e-15
endloop
endfacet
facet normal 0.0 0.0 -1.0
outer loop
vertex 2.96504153029039 3.91163278450965 1.05748743095546e-15
vertex 2.90844021110796 4.95371677988531 1.05748743095546e-15
vertex 3.53203420649012 4.76121301288293 2.46747067222941e-15
endloop
endfacet
facet normal 0.0 0.0 -1.0
outer loop
vertex 2.96504153029039 3.91163278450965 1.05748743095546e-15
vertex 3.53203420649012 4.76121301288293 2.46747067222941e-15
vertex 3.31699569789058 3.73998766920472 3.17246229286638e-15
endloop
endfacet
facet normal 0.0 0.0 -1.0
outer loop
vertex 3.31699569789058 3.73998766920472 3.17246229286638e-15
vertex 3.53203420649012 4.76121301288293 2.46747067222941e-15
vertex 3.6125322932059 3.48309877779718 1.76247905159244e-15
endloop
endfacet
facet normal 0.0 0.0 -1.0
outer loop
vertex 3.6125322932059 3.48309877779718 1.76247905159244e-15
vertex 3.53203420649012 4.76121301288293 2.46747067222941e-15
vertex 3.96483761233061 4.48913156883721 1.05748743095546e-15
endloop
endfacet
facet normal 0.0 0.0 -1.0
outer loop
vertex 3.6125322932059 3.48309877779718 1.76247905159244e-15
vertex 3.96483761233061 4.48913156883721 1.05748743095546e-15
vertex 3.83151098566316 3.15847266370752 3.17246229286638e-15
endloop
endfacet
facet normal 0.0 0.0 -1.0
outer loop
vertex 3.83151098566316 3.15847266370752 3.17246229286638e-15
vertex 3.96483761233061 4.48913156883721 1.05748743095546e-15
vertex 3.95900873925047 2.78823206014088 2.11497486191092e-15
endloop
endfacet
facet normal 0.0 0.0 -1.0
outer loop
vertex 3.95900873925047 2.78823206014088 2.11497486191092e-15
vertex 3.96483761233061 4.48913156883721 1.05748743095546e-15
vertex 3.97993381874869 2.48913156883722 2.11497486191092e-15
endloop
endfacet
facet normal 0.0 0.0 -1.0
outer loop
vertex 3.97993381874869 2.48913156883722 2.11497486191092e-15
vertex 3.96483761233061 4.48913156883721 1.05748743095546e-15
vertex 31.4891315688373 4.48913156883721 2.46747067222941e-15
endloop
endfacet
facet normal 0.0 0.0 -1.0
outer loop
vertex 3.97993381874869 2.48913156883722 2.11497486191092e-15
vertex 31.4891315688373 4.48913156883721 2.46747067222941e-15
vertex 4.96949872753282 2.48913156883721 2.11497486191092e-15
endloop
endfacet
facet normal 0.0 0.0 -1.0
outer loop
vertex 3.97993381874869 2.48913156883722 2.11497486191092e-15
vertex 4.96949872753282 2.48913156883721 2.11497486191092e-15
vertex 3.98633679276092 2.39760825237884 2.11497486191092e-15
endloop
endfacet
facet normal 0.0 0.0 -1.0
outer loop
vertex 3.98633679276092 2.39760825237884 2.11497486191092e-15
vertex 4.96949872753282 2.48913156883721 2.11497486191092e-15
vertex 4.41387065026087 0.893707027080322 2.46747067222941e-15
endloop
endfacet
facet normal 0.0 0.0 -1.0
outer loop
vertex 4.41387065026087 0.893707027080322 2.46747067222941e-15
vertex 4.96949872753282 2.48913156883721 2.11497486191092e-15
vertex 4.76121301288296 1.44622893118441 2.46747067222941e-15
endloop
endfacet
facet normal 0.0 0.0 -1.0
outer loop
vertex 4.76121301288296 1.44622893118441 2.46747067222941e-15
vertex 4.96949872753282 2.48913156883721 2.11497486191092e-15
vertex 4.95371677988529 2.06982292656643 1.40998324127395e-15
endloop
endfacet
facet normal 0.0 0.0 -1.0
outer loop
vertex 4.96949872753282 2.48913156883721 2.11497486191092e-15
vertex 31.4891315688373 4.48913156883721 2.46747067222941e-15
vertex 31.4891315688374 2.48913156883722 1.05748743095546e-15
endloop
endfacet
facet normal 0.0 0.0 -1.0
outer loop
vertex 31.4891315688374 2.48913156883722 1.05748743095546e-15
vertex 31.4891315688373 4.48913156883721 2.46747067222941e-15
vertex 31.74795061394 4.45505739512629 2.46747067222941e-15
endloop
endfacet
facet normal 0.0 0.0 -1.0
outer loop
vertex 31.4891315688374 2.48913156883722 1.05748743095546e-15
vertex 31.74795061394 4.45505739512629 2.46747067222941e-15
vertex 31.7479506139399 2.52320574254815 2.46747067222941e-15
endloop
endfacet
facet normal 0.0 0.0 -1.0
outer loop
vertex 31.7479506139399 2.52320574254815 2.46747067222941e-15
vertex 31.74795061394 4.45505739512629 2.46747067222941e-15
vertex 31.9891315688374 2.62310616505279 1.40998324127395e-15
endloop
endfacet
facet normal 0.0 0.0 -1.0
outer loop
vertex 31.9891315688374 2.62310616505279 1.40998324127395e-15
vertex 31.74795061394 4.45505739512629 2.46747067222941e-15
vertex 31.9891315688374 4.35515697262164 2.46747067222941e-15
endloop
endfacet
facet normal 0.0 0.0 -1.0
outer loop
vertex 31.9891315688374 2.62310616505279 1.40998324127395e-15
vertex 31.9891315688374 4.35515697262164 2.46747067222941e-15
vertex 32.196238350024 2.78202478765066 2.46747067222941e-15
endloop
endfacet
facet normal 0.0 0.0 -1.0
outer loop
vertex 32.196238350024 2.78202478765066 2.46747067222941e-15
vertex 31.9891315688374 4.35515697262164 2.46747067222941e-15
vertex 32.1962383500239 4.19623835002377 2.46747067222941e-15
endloop
endfacet
facet normal 0.0 0.0 -1.0
outer loop
vertex 32.196238350024 2.78202478765066 2.46747067222941e-15
vertex 32.1962383500239 4.19623835002377 2.46747067222941e-15
vertex 32.3551569726219 3.98913156883721 1.40998324127395e-15
endloop
endfacet
facet normal 0.0 0.0 -1.0
outer loop
vertex 32.196238350024 2.78202478765066 2.46747067222941e-15
vertex 32.3551569726219 3.98913156883721 1.40998324127395e-15
vertex 32.3551569726218 2.9891315688372 2.46747067222941e-15
endloop
endfacet
facet normal 0.0 0.0 -1.0
outer loop
vertex 32.3551569726218 2.9891315688372 2.46747067222941e-15
vertex 32.3551569726219 3.98913156883721 1.40998324127395e-15
vertex 32.4550573951264 3.2303125237347 1.40998324127395e-15
endloop
endfacet
facet normal 0.0 0.0 -1.0
outer loop
vertex 32.4550573951264 3.2303125237347 1.40998324127395e-15
vertex 32.3551569726219 3.98913156883721 1.40998324127395e-15
vertex 32.4550573951265 3.74795061393974 1.05748743095546e-15
endloop
endfacet
facet normal 0.0 0.0 -1.0
outer loop
vertex 32.4550573951264 3.2303125237347 1.40998324127395e-15
vertex 32.4550573951265 3.74795061393974 1.05748743095546e-15
vertex 32.4891315688373 3.48913156883719 1.05748743095546e-15
endloop
endfacet
facet normal 0.0 0.0 -1.0
outer loop
vertex 0.893707027080282 0.564392487413482 2.46747067222941e-15
vertex 1.01925439842397 2.19003107753356 2.46747067222941e-15
vertex 1.44622893118437 0.21705012479148 1.05748743095546e-15
endloop
endfacet
facet normal 0.0 0.0 -1.0
outer loop
vertex 1.01925439842397 2.19003107753356 2.46747067222941e-15
vertex 0.893707027080282 0.564392487413482 2.46747067222941e-15
vertex 0.991926344913492 2.58065488529558 1.76247905159244e-15
endloop
endfacet
facet normal 0.0 0.0 -1.0
outer loop
vertex 1.44622893118437 0.21705012479148 1.05748743095546e-15
vertex 1.01925439842397 2.19003107753356 2.46747067222941e-15
vertex 1.14675215201126 1.8197904739669 0.0
endloop
endfacet
facet normal 0.0 0.0 -1.0
outer loop
vertex 1.44622893118437 0.21705012479148 1.05748743095546e-15
vertex 1.14675215201126 1.8197904739669 0.0
vertex 1.36573084446842 1.49516435987723 2.46747067222941e-15
endloop
endfacet
facet normal 0.0 0.0 -1.0
outer loop
vertex 1.44622893118437 0.21705012479148 1.05748743095546e-15
vertex 1.36573084446842 1.49516435987723 2.46747067222941e-15
vertex 1.66126743978376 1.23827546846969 1.40998324127395e-15
endloop
endfacet
facet normal 0.0 0.0 -1.0
outer loop
vertex 1.44622893118437 0.21705012479148 1.05748743095546e-15
vertex 1.66126743978376 1.23827546846969 1.40998324127395e-15
vertex 2.06982292656641 0.0245463577891127 2.46747067222941e-15
endloop
endfacet
facet normal 0.0 0.0 -1.0
outer loop
vertex 2.06982292656641 0.0245463577891127 2.46747067222941e-15
vertex 1.66126743978376 1.23827546846969 1.40998324127395e-15
vertex 2.01322160738398 1.06663035316475 2.46747067222941e-15
endloop
endfacet
facet normal 0.0 0.0 -1.0
outer loop
vertex 2.06982292656641 0.0245463577891127 2.46747067222941e-15
vertex 2.01322160738398 1.06663035316475 2.46747067222941e-15
vertex 2.39760825237877 0.991926344913514 1.05748743095546e-15
endloop
endfacet
facet normal 0.0 0.0 -1.0
outer loop
vertex 2.06982292656641 0.0245463577891127 2.46747067222941e-15
vertex 2.39760825237877 0.991926344913514 1.05748743095546e-15
vertex 2.72199211297892 0.0 1.40998324127395e-15
endloop
endfacet
facet normal 0.0 0.0 -1.0
outer loop
vertex 2.72199211297892 0.0 1.40998324127395e-15
vertex 2.39760825237877 0.991926344913514 1.05748743095546e-15
vertex 2.7882320601408 1.01925439842401 2.46747067222941e-15
endloop
endfacet
facet normal 0.0 0.0 -1.0
outer loop
vertex 2.72199211297892 0.0 1.40998324127395e-15
vertex 2.7882320601408 1.01925439842401 2.46747067222941e-15
vertex 3.35829223812844 0.145083845142755 2.46747067222941e-15
endloop
endfacet
facet normal 0.0 0.0 -1.0
outer loop
vertex 3.35829223812844 0.145083845142755 2.46747067222941e-15
vertex 2.7882320601408 1.01925439842401 2.46747067222941e-15
vertex 3.1584726637075 1.14675215201131 1.40998324127395e-15
endloop
endfacet
facet normal 0.0 0.0 -1.0
outer loop
vertex 3.35829223812844 0.145083845142755 2.46747067222941e-15
vertex 3.1584726637075 1.14675215201131 1.40998324127395e-15
vertex 3.48309877779715 1.36573084446843 2.46747067222941e-15
endloop
endfacet
facet normal 0.0 0.0 -1.0
outer loop
vertex 3.35829223812844 0.145083845142755 2.46747067222941e-15
vertex 3.48309877779715 1.36573084446843 2.46747067222941e-15
vertex 3.93536050002159 0.449910668933235 2.46747067222941e-15
endloop
endfacet
facet normal 0.0 0.0 -1.0
outer loop
vertex 3.93536050002159 0.449910668933235 2.46747067222941e-15
vertex 3.48309877779715 1.36573084446843 2.46747067222941e-15
vertex 3.73998766920467 1.66126743978379 2.46747067222941e-15
endloop
endfacet
facet normal 0.0 0.0 -1.0
outer loop
vertex 3.93536050002159 0.449910668933235 2.46747067222941e-15
vertex 3.73998766920467 1.66126743978379 2.46747067222941e-15
vertex 3.91163278450961 2.01322160738399 2.46747067222941e-15
endloop
endfacet
facet normal 0.0 0.0 -1.0
outer loop
vertex 3.93536050002159 0.449910668933235 2.46747067222941e-15
vertex 3.91163278450961 2.01322160738399 2.46747067222941e-15
vertex 3.98633679276092 2.39760825237884 2.11497486191092e-15
endloop
endfacet
facet normal 0.0 0.0 -1.0
outer loop
vertex 3.93536050002159 0.449910668933235 2.46747067222941e-15
vertex 3.98633679276092 2.39760825237884 2.11497486191092e-15
vertex 4.41387065026087 0.893707027080322 2.46747067222941e-15
endloop
endfacet
facet normal 0.894919611217249 0.446227396580229 0.0
outer loop
vertex 1.14675215201126 1.8197904739669 0.0
vertex 1.36573084446842 1.49516435987723 1.9
vertex 1.36573084446842 1.49516435987723 2.46747067222941e-15
endloop
endfacet
facet normal 0.748933816245825 0.662644805973355 0.0
outer loop
vertex 1.36573084446842 1.49516435987723 1.9
vertex 1.14675215201126 1.8197904739669 0.0
vertex 1.14675215201126 1.8197904739669 1.9
endloop
endfacet
facet normal 0.19940032753578 -0.979918113608797 0.0
outer loop
vertex 2.19003107753359 3.95900873925042 1.9
vertex 1.81979047396696 3.83151098566311 3.17246229286638e-15
vertex 2.19003107753359 3.95900873925042 2.46747067222941e-15
endloop
endfacet
facet normal 0.446227396580217 -0.894919611217255 0.0
outer loop
vertex 1.81979047396696 3.83151098566311 3.17246229286638e-15
vertex 2.19003107753359 3.95900873925042 1.9
vertex 1.81979047396696 3.83151098566311 1.9
endloop
endfacet
facet normal 0.662644805973314 -0.748933816245861 0.0
outer loop
vertex 1.49516435987731 3.612532293206 7.04991620636974e-16
vertex 1.23827546846974 3.31699569789063 1.9
vertex 1.23827546846974 3.31699569789063 3.17246229286638e-15
endloop
endfacet
facet normal 0.833904066911624 -0.551909419369024 0.0
outer loop
vertex 1.23827546846974 3.31699569789063 1.9
vertex 1.49516435987731 3.612532293206 7.04991620636974e-16
vertex 1.49516435987731 3.612532293206 1.9
endloop
endfacet
facet normal -0.167723456908285 -0.985834084419247 0.0
outer loop
vertex 2.06982292656641 0.0245463577891127 2.46747067222941e-15
vertex 1.44622893118437 0.21705012479148 1.9
vertex 1.44622893118437 0.21705012479148 1.05748743095546e-15
endloop
endfacet
facet normal -0.417161055061105 -0.90883257761829 0.0
outer loop
vertex 1.44622893118437 0.21705012479148 1.9
vertex 2.06982292656641 0.0245463577891127 2.46747067222941e-15
vertex 2.06982292656641 0.0245463577891127 1.9
endloop
endfacet
facet normal 0.948334143781618 -0.317273307635523 0.0
outer loop
vertex 1.06663035316474 2.96504153029042 7.04991620636974e-16
vertex 0.991926344913492 2.58065488529558 1.9
vertex 0.991926344913492 2.58065488529558 1.76247905159244e-15
endloop
endfacet
facet normal 0.998136815949141 -0.0610155443056116 0.0
outer loop
vertex 0.991926344913492 2.58065488529558 1.9
vertex 1.06663035316474 2.96504153029042 7.04991620636974e-16
vertex 1.06663035316474 2.96504153029042 1.9
endloop
endfacet
facet normal 0.0 0.0 1.0
outer loop
vertex 0.893707027080282 0.564392487413482 1.9
vertex 1.01925439842397 2.19003107753356 1.9
vertex 0.991926344913492 2.58065488529558 1.9
endloop
endfacet
facet normal 0.0 0.0 1.0
outer loop
vertex 1.01925439842397 2.19003107753356 1.9
vertex 0.893707027080282 0.564392487413482 1.9
vertex 1.44622893118437 0.21705012479148 1.9
endloop
endfacet
facet normal 0.0 0.0 1.0
outer loop
vertex 1.01925439842397 2.19003107753356 1.9
vertex 1.44622893118437 0.21705012479148 1.9
vertex 1.14675215201126 1.8197904739669 1.9
endloop
endfacet
facet normal 0.0 0.0 1.0
outer loop
vertex 1.14675215201126 1.8197904739669 1.9
vertex 1.44622893118437 0.21705012479148 1.9
vertex 1.36573084446842 1.49516435987723 1.9
endloop
endfacet
facet normal 0.0 0.0 1.0
outer loop
vertex 1.36573084446842 1.49516435987723 1.9
vertex 1.44622893118437 0.21705012479148 1.9
vertex 1.66126743978376 1.23827546846969 1.9
endloop
endfacet
facet normal 0.0 0.0 1.0
outer loop
vertex 1.66126743978376 1.23827546846969 1.9
vertex 1.44622893118437 0.21705012479148 1.9
vertex 2.06982292656641 0.0245463577891127 1.9
endloop
endfacet
facet normal 0.0 0.0 1.0
outer loop
vertex 1.66126743978376 1.23827546846969 1.9
vertex 2.06982292656641 0.0245463577891127 1.9
vertex 2.01322160738398 1.06663035316475 1.9
endloop
endfacet
facet normal 0.0 0.0 1.0
outer loop
vertex 2.01322160738398 1.06663035316475 1.9
vertex 2.06982292656641 0.0245463577891127 1.9
vertex 2.39760825237877 0.991926344913514 1.9
endloop
endfacet
facet normal 0.0 0.0 1.0
outer loop
vertex 2.39760825237877 0.991926344913514 1.9
vertex 2.06982292656641 0.0245463577891127 1.9
vertex 2.72199211297892 0.0 1.9
endloop
endfacet
facet normal 0.0 0.0 1.0
outer loop
vertex 2.39760825237877 0.991926344913514 1.9
vertex 2.72199211297892 0.0 1.9
vertex 2.7882320601408 1.01925439842401 1.9
endloop
endfacet
facet normal 0.0 0.0 1.0
outer loop
vertex 2.7882320601408 1.01925439842401 1.9
vertex 2.72199211297892 0.0 1.9
vertex 3.35829223812844 0.145083845142755 1.9
endloop
endfacet
facet normal 0.0 0.0 1.0
outer loop
vertex 2.7882320601408 1.01925439842401 1.9
vertex 3.35829223812844 0.145083845142755 1.9
vertex 3.1584726637075 1.14675215201131 1.9
endloop
endfacet
facet normal 0.0 0.0 1.0
outer loop
vertex 3.1584726637075 1.14675215201131 1.9
vertex 3.35829223812844 0.145083845142755 1.9
vertex 3.48309877779715 1.36573084446843 1.9
endloop
endfacet
facet normal 0.0 0.0 1.0
outer loop
vertex 3.48309877779715 1.36573084446843 1.9
vertex 3.35829223812844 0.145083845142755 1.9
vertex 3.93536050002159 0.449910668933235 1.9
endloop
endfacet
facet normal 0.0 0.0 1.0
outer loop
vertex 3.48309877779715 1.36573084446843 1.9
vertex 3.93536050002159 0.449910668933235 1.9
vertex 3.73998766920467 1.66126743978379 1.9
endloop
endfacet
facet normal 0.0 0.0 1.0
outer loop
vertex 3.73998766920467 1.66126743978379 1.9
vertex 3.93536050002159 0.449910668933235 1.9
vertex 3.91163278450961 2.01322160738399 1.9
endloop
endfacet
facet normal 0.0 0.0 1.0
outer loop
vertex 3.91163278450961 2.01322160738399 1.9
vertex 3.93536050002159 0.449910668933235 1.9
vertex 3.98633679276092 2.39760825237884 1.9
endloop
endfacet
facet normal 0.0 0.0 1.0
outer loop
vertex 3.98633679276092 2.39760825237884 1.9
vertex 3.93536050002159 0.449910668933235 1.9
vertex 4.41387065026087 0.893707027080322 1.9
endloop
endfacet
facet normal 0.0 0.0 1.0
outer loop
vertex 0.145083845142766 1.61997089954599 1.9
vertex 0.024546357789076 2.90844021110796 1.9
vertex 0.0 2.25627102469547 1.9
endloop
endfacet
facet normal 0.0 0.0 1.0
outer loop
vertex 0.024546357789076 2.90844021110796 1.9
vertex 0.145083845142766 1.61997089954599 1.9
vertex 0.217050124791478 3.53203420649002 1.9
endloop
endfacet
facet normal 0.0 0.0 1.0
outer loop
vertex 0.217050124791478 3.53203420649002 1.9
vertex 0.145083845142766 1.61997089954599 1.9
vertex 0.44991066893321 1.0429026376528 1.9
endloop
endfacet
facet normal 0.0 0.0 1.0
outer loop
vertex 0.217050124791478 3.53203420649002 1.9
vertex 0.44991066893321 1.0429026376528 1.9
vertex 0.564392487413519 4.08455611059411 1.9
endloop
endfacet
facet normal 0.0 0.0 1.0
outer loop
vertex 0.564392487413519 4.08455611059411 1.9
vertex 0.44991066893321 1.0429026376528 1.9
vertex 0.893707027080282 0.564392487413482 1.9
endloop
endfacet
facet normal 0.0 0.0 1.0
outer loop
vertex 0.564392487413519 4.08455611059411 1.9
vertex 0.893707027080282 0.564392487413482 1.9
vertex 1.04290263765277 4.52835246874118 1.9
endloop
endfacet
facet normal 0.0 0.0 1.0
outer loop
vertex 1.04290263765277 4.52835246874118 1.9
vertex 0.893707027080282 0.564392487413482 1.9
vertex 0.991926344913492 2.58065488529558 1.9
endloop
endfacet
facet normal 0.0 0.0 1.0
outer loop
vertex 1.04290263765277 4.52835246874118 1.9
vertex 0.991926344913492 2.58065488529558 1.9
vertex 1.06663035316474 2.96504153029042 1.9
endloop
endfacet
facet normal 0.0 0.0 1.0
outer loop
vertex 1.04290263765277 4.52835246874118 1.9
vertex 1.06663035316474 2.96504153029042 1.9
vertex 1.61997089954605 4.83317929253169 1.9
endloop
endfacet
facet normal 0.0 0.0 1.0
outer loop
vertex 1.61997089954605 4.83317929253169 1.9
vertex 1.06663035316474 2.96504153029042 1.9
vertex 1.23827546846974 3.31699569789063 1.9
endloop
endfacet
facet normal 0.0 0.0 1.0
outer loop
vertex 1.61997089954605 4.83317929253169 1.9
vertex 1.23827546846974 3.31699569789063 1.9
vertex 1.49516435987731 3.612532293206 1.9
endloop
endfacet
facet normal 0.0 0.0 1.0
outer loop
vertex 1.61997089954605 4.83317929253169 1.9
vertex 1.49516435987731 3.612532293206 1.9
vertex 1.81979047396696 3.83151098566311 1.9
endloop
endfacet
facet normal 0.0 0.0 1.0
outer loop
vertex 1.61997089954605 4.83317929253169 1.9
vertex 1.81979047396696 3.83151098566311 1.9
vertex 2.25627102469545 4.97826313767443 1.9
endloop
endfacet
facet normal 0.0 0.0 1.0
outer loop
vertex 2.25627102469545 4.97826313767443 1.9
vertex 1.81979047396696 3.83151098566311 1.9
vertex 2.19003107753359 3.95900873925042 1.9
endloop
endfacet
facet normal 0.0 0.0 1.0
outer loop
vertex 2.25627102469545 4.97826313767443 1.9
vertex 2.19003107753359 3.95900873925042 1.9
vertex 2.48913156883723 3.97993381874876 1.9
endloop
endfacet
facet normal 0.0 0.0 1.0
outer loop
vertex 2.25627102469545 4.97826313767443 1.9
vertex 2.48913156883723 3.97993381874876 1.9
vertex 2.90844021110796 4.95371677988531 1.9
endloop
endfacet
facet normal 0.0 0.0 1.0
outer loop
vertex 2.90844021110796 4.95371677988531 1.9
vertex 2.48913156883723 3.97993381874876 1.9
vertex 2.58065488529564 3.98633679276094 1.9
endloop
endfacet
facet normal 0.0 0.0 1.0
outer loop
vertex 2.90844021110796 4.95371677988531 1.9
vertex 2.58065488529564 3.98633679276094 1.9
vertex 2.96504153029039 3.91163278450965 1.9
endloop
endfacet
facet normal 0.0 0.0 1.0
outer loop
vertex 2.90844021110796 4.95371677988531 1.9
vertex 2.96504153029039 3.91163278450965 1.9
vertex 3.53203420649012 4.76121301288293 1.9
endloop
endfacet
facet normal 0.0 0.0 1.0
outer loop
vertex 3.53203420649012 4.76121301288293 1.9
vertex 2.96504153029039 3.91163278450965 1.9
vertex 3.31699569789058 3.73998766920472 1.9
endloop
endfacet
facet normal 0.0 0.0 1.0
outer loop
vertex 3.53203420649012 4.76121301288293 1.9
vertex 3.31699569789058 3.73998766920472 1.9
vertex 3.6125322932059 3.48309877779718 1.9
endloop
endfacet
facet normal 0.0 0.0 1.0
outer loop
vertex 3.53203420649012 4.76121301288293 1.9
vertex 3.6125322932059 3.48309877779718 1.9
vertex 3.96483761233061 4.48913156883721 1.9
endloop
endfacet
facet normal 0.0 0.0 1.0
outer loop
vertex 3.96483761233061 4.48913156883721 1.9
vertex 3.6125322932059 3.48309877779718 1.9
vertex 3.83151098566316 3.15847266370752 1.9
endloop
endfacet
facet normal 0.0 0.0 1.0
outer loop
vertex 3.96483761233061 4.48913156883721 1.9
vertex 3.83151098566316 3.15847266370752 1.9
vertex 3.95900873925047 2.78823206014088 1.9
endloop
endfacet
facet normal 0.0 0.0 1.0
outer loop
vertex 3.96483761233061 4.48913156883721 1.9
vertex 3.95900873925047 2.78823206014088 1.9
vertex 3.97993381874869 2.48913156883722 1.9
endloop
endfacet
facet normal 0.0 0.0 1.0
outer loop
vertex 3.96483761233061 4.48913156883721 1.9
vertex 3.97993381874869 2.48913156883722 1.9
vertex 31.4891315688373 4.48913156883721 1.9
endloop
endfacet
facet normal 0.0 0.0 1.0
outer loop
vertex 31.4891315688373 4.48913156883721 1.9
vertex 3.97993381874869 2.48913156883722 1.9
vertex 4.96949872753282 2.48913156883721 1.9
endloop
endfacet
facet normal 0.0 0.0 1.0
outer loop
vertex 4.96949872753282 2.48913156883721 1.9
vertex 3.97993381874869 2.48913156883722 1.9
vertex 3.98633679276092 2.39760825237884 1.9
endloop
endfacet
facet normal 0.0 0.0 1.0
outer loop
vertex 4.96949872753282 2.48913156883721 1.9
vertex 3.98633679276092 2.39760825237884 1.9
vertex 4.41387065026087 0.893707027080322 1.9
endloop
endfacet
facet normal 0.0 0.0 1.0
outer loop
vertex 4.96949872753282 2.48913156883721 1.9
vertex 4.41387065026087 0.893707027080322 1.9
vertex 4.76121301288296 1.44622893118441 1.9
endloop
endfacet
facet normal 0.0 0.0 1.0
outer loop
vertex 4.96949872753282 2.48913156883721 1.9
vertex 4.76121301288296 1.44622893118441 1.9
vertex 4.95371677988529 2.06982292656643 1.9
endloop
endfacet
facet normal 0.0 0.0 1.0
outer loop
vertex 31.4891315688373 4.48913156883721 1.9
vertex 4.96949872753282 2.48913156883721 1.9
vertex 31.4891315688374 2.48913156883722 1.9
endloop
endfacet
facet normal 0.0 0.0 1.0
outer loop
vertex 31.4891315688373 4.48913156883721 1.9
vertex 31.4891315688374 2.48913156883722 1.9
vertex 31.74795061394 4.45505739512629 1.9
endloop
endfacet
facet normal 0.0 0.0 1.0
outer loop
vertex 31.74795061394 4.45505739512629 1.9
vertex 31.4891315688374 2.48913156883722 1.9
vertex 31.7479506139399 2.52320574254815 1.9
endloop
endfacet
facet normal 0.0 0.0 1.0
outer loop
vertex 31.74795061394 4.45505739512629 1.9
vertex 31.7479506139399 2.52320574254815 1.9
vertex 31.9891315688374 2.62310616505279 1.9
endloop
endfacet
facet normal 0.0 0.0 1.0
outer loop
vertex 31.74795061394 4.45505739512629 1.9
vertex 31.9891315688374 2.62310616505279 1.9
vertex 31.9891315688374 4.35515697262164 1.9
endloop
endfacet
facet normal 0.0 0.0 1.0
outer loop
vertex 31.9891315688374 4.35515697262164 1.9
vertex 31.9891315688374 2.62310616505279 1.9
vertex 32.196238350024 2.78202478765066 1.9
endloop
endfacet
facet normal 0.0 0.0 1.0
outer loop
vertex 31.9891315688374 4.35515697262164 1.9
vertex 32.196238350024 2.78202478765066 1.9
vertex 32.1962383500239 4.19623835002377 1.9
endloop
endfacet
facet normal 0.0 0.0 1.0
outer loop
vertex 32.1962383500239 4.19623835002377 1.9
vertex 32.196238350024 2.78202478765066 1.9
vertex 32.3551569726219 3.98913156883721 1.9
endloop
endfacet
facet normal 0.0 0.0 1.0
outer loop
vertex 32.3551569726219 3.98913156883721 1.9
vertex 32.196238350024 2.78202478765066 1.9
vertex 32.3551569726218 2.9891315688372 1.9
endloop
endfacet
facet normal 0.0 0.0 1.0
outer loop
vertex 32.3551569726219 3.98913156883721 1.9
vertex 32.3551569726218 2.9891315688372 1.9
vertex 32.4550573951264 3.2303125237347 1.9
endloop
endfacet
facet normal 0.0 0.0 1.0
outer loop
vertex 32.3551569726219 3.98913156883721 1.9
vertex 32.4550573951264 3.2303125237347 1.9
vertex 32.4550573951265 3.74795061393974 1.9
endloop
endfacet
facet normal 0.0 0.0 1.0
outer loop
vertex 32.4550573951265 3.74795061393974 1.9
vertex 32.4550573951264 3.2303125237347 1.9
vertex 32.4891315688373 3.48913156883719 1.9
endloop
endfacet
facet normal 0.833904066911624 -0.551909419369024 0.0
outer loop
vertex 1.23827546846974 3.31699569789063 3.17246229286638e-15
vertex 1.06663035316474 2.96504153029042 1.9
vertex 1.06663035316474 2.96504153029042 7.04991620636974e-16
endloop
endfacet
facet normal 0.948334143781618 -0.317273307635524 0.0
outer loop
vertex 1.06663035316474 2.96504153029042 1.9
vertex 1.23827546846974 3.31699569789063 3.17246229286638e-15
vertex 1.23827546846974 3.31699569789063 1.9
endloop
endfacet
facet normal 0.707106781186535 0.70710678118656 0.0
outer loop
vertex 32.1962383500239 4.19623835002377 2.46747067222941e-15
vertex 32.3551569726219 3.98913156883721 1.9
vertex 32.3551569726219 3.98913156883721 1.40998324127395e-15
endloop
endfacet
facet normal 0.8660254037844 0.500000000000067 0.0
outer loop
vertex 32.3551569726219 3.98913156883721 1.9
vertex 32.1962383500239 4.19623835002377 2.46747067222941e-15
vertex 32.1962383500239 4.19623835002377 1.9
endloop
endfacet
facet normal 0.130526192219979 0.99144486137382 0.0
outer loop
vertex 31.4891315688373 4.48913156883721 1.9
vertex 31.74795061394 4.45505739512629 2.46747067222941e-15
vertex 31.4891315688373 4.48913156883721 2.46747067222941e-15
endloop
endfacet
facet normal 0.258819045102516 0.96592582628907 0.0
outer loop
vertex 31.74795061394 4.45505739512629 2.46747067222941e-15
vertex 31.4891315688373 4.48913156883721 1.9
vertex 31.74795061394 4.45505739512629 1.9
endloop
endfacet
facet normal -0.578491572473768 0.81568835996159 0.0
outer loop
vertex 1.04290263765277 4.52835246874118 1.9
vertex 1.61997089954605 4.83317929253169 2.46747067222941e-15
vertex 1.04290263765277 4.52835246874118 2.46747067222941e-15
endloop
endfacet
facet normal -0.34766426771648 0.937619089477792 0.0
outer loop
vertex 1.61997089954605 4.83317929253169 2.46747067222941e-15
vertex 1.04290263765277 4.52835246874118 1.9
vertex 1.61997089954605 4.83317929253169 1.9
endloop
endfacet
facet normal -0.0931442176566892 0.995652627534886 0.0
outer loop
vertex 2.25627102469545 4.97826313767443 1.9
vertex 2.90844021110796 4.95371677988531 1.05748743095546e-15
vertex 2.25627102469545 4.97826313767443 1.05748743095546e-15
endloop
endfacet
facet normal 0.167723456908274 0.985834084419249 0.0
outer loop
vertex 2.90844021110796 4.95371677988531 1.05748743095546e-15
vertex 2.25627102469545 4.97826313767443 1.9
vertex 2.90844021110796 4.95371677988531 1.9
endloop
endfacet
facet normal 0.8660254037844 0.500000000000067 0.0
outer loop
vertex 32.3551569726219 3.98913156883721 1.40998324127395e-15
vertex 32.4550573951265 3.74795061393974 1.9
vertex 32.4550573951265 3.74795061393974 1.05748743095546e-15
endloop
endfacet
facet normal 0.965925826289111 0.25881904510236 0.0
outer loop
vertex 32.4550573951265 3.74795061393974 1.9
vertex 32.3551569726219 3.98913156883721 1.40998324127395e-15
vertex 32.3551569726219 3.98913156883721 1.9
endloop
endfacet
facet normal 0.965925826289111 0.258819045102359 0.0
outer loop
vertex 32.4550573951265 3.74795061393974 1.05748743095546e-15
vertex 32.4891315688373 3.48913156883719 1.9
vertex 32.4891315688373 3.48913156883719 1.05748743095546e-15
endloop
endfacet
facet normal 1.0 -1.84807508125815e-13 0.0
outer loop
vertex 32.4891315688373 3.48913156883719 1.9
vertex 32.4550573951265 3.74795061393974 1.05748743095546e-15
vertex 32.4550573951265 3.74795061393974 1.9
endloop
endfacet
facet normal 1.0 -1.84700574807068e-13 0.0
outer loop
vertex 32.4891315688373 3.48913156883719 1.05748743095546e-15
vertex 32.4550573951264 3.2303125237347 1.9
vertex 32.4550573951264 3.2303125237347 1.40998324127395e-15
endloop
endfacet
facet normal 0.965925826289101 -0.258819045102401 0.0
outer loop
vertex 32.4550573951264 3.2303125237347 1.9
vertex 32.4891315688373 3.48913156883719 1.05748743095546e-15
vertex 32.4891315688373 3.48913156883719 1.9
endloop
endfacet
facet normal 0.866025403784492 -0.499999999999907 0.0
outer loop
vertex 32.3551569726218 2.9891315688372 2.46747067222941e-15
vertex 32.196238350024 2.78202478765066 1.9
vertex 32.196238350024 2.78202478765066 2.46747067222941e-15
endloop
endfacet
facet normal 0.707106781186512 -0.707106781186583 0.0
outer loop
vertex 32.196238350024 2.78202478765066 1.9
vertex 32.3551569726218 2.9891315688372 2.46747067222941e-15
vertex 32.3551569726218 2.9891315688372 1.9
endloop
endfacet
facet normal -0.748933816245776 -0.66264480597341 0.0
outer loop
vertex 3.6125322932059 3.48309877779718 1.9
vertex 3.31699569789058 3.73998766920472 3.17246229286638e-15
vertex 3.6125322932059 3.48309877779718 1.76247905159244e-15
endloop
endfacet
facet normal -0.551909419368979 -0.833904066911654 0.0
outer loop
vertex 3.31699569789058 3.73998766920472 3.17246229286638e-15
vertex 3.6125322932059 3.48309877779718 1.9
vertex 3.31699569789058 3.73998766920472 1.9
endloop
endfacet
facet normal -0.551909419368979 -0.833904066911654 0.0
outer loop
vertex 3.31699569789058 3.73998766920472 3.17246229286638e-15
vertex 2.96504153029039 3.91163278450965 1.9
vertex 2.96504153029039 3.91163278450965 1.05748743095546e-15
endloop
endfacet
facet normal -0.317273307635527 -0.948334143781617 0.0
outer loop
vertex 2.96504153029039 3.91163278450965 1.9
vertex 3.31699569789058 3.73998766920472 3.17246229286638e-15
vertex 3.31699569789058 3.73998766920472 1.9
endloop
endfacet
facet normal -0.748933816245776 -0.66264480597341 0.0
outer loop
vertex 3.6125322932059 3.48309877779718 1.9
vertex 3.83151098566316 3.15847266370752 3.17246229286638e-15
vertex 3.83151098566316 3.15847266370752 1.9
endloop
endfacet
facet normal -0.894919611217187 -0.446227396580352 0.0
outer loop
vertex 3.83151098566316 3.15847266370752 3.17246229286638e-15
vertex 3.6125322932059 3.48309877779718 1.9
vertex 3.6125322932059 3.48309877779718 1.76247905159244e-15
endloop
endfacet
facet normal 0.167723456908274 0.985834084419249 0.0
outer loop
vertex 2.90844021110796 4.95371677988531 1.9
vertex 3.53203420649012 4.76121301288293 2.46747067222941e-15
vertex 2.90844021110796 4.95371677988531 1.05748743095546e-15
endloop
endfacet
facet normal 0.417161055061149 0.90883257761827 0.0
outer loop
vertex 3.53203420649012 4.76121301288293 2.46747067222941e-15
vertex 2.90844021110796 4.95371677988531 1.9
vertex 3.53203420649012 4.76121301288293 1.9
endloop
endfacet
facet normal 0.417161055061149 0.90883257761827 0.0
outer loop
vertex 3.53203420649012 4.76121301288293 2.46747067222941e-15
vertex 3.96483761233061 4.48913156883721 1.9
vertex 3.96483761233061 4.48913156883721 1.05748743095546e-15
endloop
endfacet
facet normal 0.532218640127803 0.846606944869053 0.0
outer loop
vertex 3.96483761233061 4.48913156883721 1.9
vertex 3.53203420649012 4.76121301288293 2.46747067222941e-15
vertex 3.53203420649012 4.76121301288293 1.9
endloop
endfacet
facet normal -2.049074528127e-16 1.0 0.0
outer loop
vertex 3.96483761233061 4.48913156883721 1.9
vertex 31.4891315688373 4.48913156883721 2.46747067222941e-15
vertex 3.96483761233061 4.48913156883721 1.05748743095546e-15
endloop
endfacet
facet normal -2.049074528127e-16 1.0 0.0
outer loop
vertex 31.4891315688373 4.48913156883721 2.46747067222941e-15
vertex 3.96483761233061 4.48913156883721 1.9
vertex 31.4891315688373 4.48913156883721 1.9
endloop
endfacet
facet normal 0.258819045102516 0.96592582628907 0.0
outer loop
vertex 31.74795061394 4.45505739512629 1.9
vertex 31.9891315688374 4.35515697262164 2.46747067222941e-15
vertex 31.74795061394 4.45505739512629 2.46747067222941e-15
endloop
endfacet
facet normal 0.500000000000042 0.866025403784414 0.0
outer loop
vertex 31.9891315688374 4.35515697262164 2.46747067222941e-15
vertex 31.74795061394 4.45505739512629 1.9
vertex 31.9891315688374 4.35515697262164 1.9
endloop
endfacet
facet normal 0.707106781186512 -0.707106781186583 0.0
outer loop
vertex 32.196238350024 2.78202478765066 2.46747067222941e-15
vertex 31.9891315688374 2.62310616505279 1.9
vertex 31.9891315688374 2.62310616505279 1.40998324127395e-15
endloop
endfacet
facet normal 0.499999999999988 -0.866025403784446 0.0
outer loop
vertex 31.9891315688374 2.62310616505279 1.9
vertex 32.196238350024 2.78202478765066 2.46747067222941e-15
vertex 32.196238350024 2.78202478765066 1.9
endloop
endfacet
facet normal 0.499999999999988 -0.866025403784446 0.0
outer loop
vertex 31.9891315688374 2.62310616505279 1.9
vertex 31.7479506139399 2.52320574254815 2.46747067222941e-15
vertex 31.9891315688374 2.62310616505279 1.40998324127395e-15
endloop
endfacet
facet normal 0.258819045102559 -0.965925826289058 0.0
outer loop
vertex 31.7479506139399 2.52320574254815 2.46747067222941e-15
vertex 31.9891315688374 2.62310616505279 1.9
vertex 31.7479506139399 2.52320574254815 1.9
endloop
endfacet
facet normal 0.258819045102559 -0.965925826289058 0.0
outer loop
vertex 31.7479506139399 2.52320574254815 2.46747067222941e-15
vertex 31.4891315688374 2.48913156883722 1.9
vertex 31.4891315688374 2.48913156883722 1.05748743095546e-15
endloop
endfacet
facet normal 0.130526192220046 -0.991444861373811 0.0
outer loop
vertex 31.4891315688374 2.48913156883722 1.9
vertex 31.7479506139399 2.52320574254815 2.46747067222941e-15
vertex 31.7479506139399 2.52320574254815 1.9
endloop
endfacet
facet normal -0.997561743785191 -0.0697894500354418 -0.0
outer loop
vertex 3.97993381874869 2.48913156883722 1.9
vertex 3.98633679276092 2.39760825237884 2.11497486191092e-15
vertex 3.98633679276092 2.39760825237884 1.9
endloop
endfacet
facet normal -0.998136815949159 0.0610155443053191 0.0
outer loop
vertex 3.98633679276092 2.39760825237884 2.11497486191092e-15
vertex 3.97993381874869 2.48913156883722 1.9
vertex 3.97993381874869 2.48913156883722 2.11497486191092e-15
endloop
endfacet
facet normal -0.199400327535717 0.97991811360881 0.0
outer loop
vertex 2.7882320601408 1.01925439842401 2.46747067222941e-15
vertex 3.1584726637075 1.14675215201131 1.9
vertex 3.1584726637075 1.14675215201131 1.40998324127395e-15
endloop
endfacet
facet normal -0.446227396580207 0.894919611217259 0.0
outer loop
vertex 3.1584726637075 1.14675215201131 1.9
vertex 2.7882320601408 1.01925439842401 2.46747067222941e-15
vertex 2.7882320601408 1.01925439842401 1.9
endloop
endfacet
facet normal -0.446227396580207 0.894919611217259 0.0
outer loop
vertex 3.1584726637075 1.14675215201131 1.9
vertex 3.48309877779715 1.36573084446843 2.46747067222941e-15
vertex 3.1584726637075 1.14675215201131 1.40998324127395e-15
endloop
endfacet
facet normal -0.662644805973353 0.748933816245827 0.0
outer loop
vertex 3.48309877779715 1.36573084446843 2.46747067222941e-15
vertex 3.1584726637075 1.14675215201131 1.9
vertex 3.48309877779715 1.36573084446843 1.9
endloop
endfacet
facet normal -0.833904066911682 0.551909419368937 0.0
outer loop
vertex 3.73998766920467 1.66126743978379 1.9
vertex 3.48309877779715 1.36573084446843 2.46747067222941e-15
vertex 3.48309877779715 1.36573084446843 1.9
endloop
endfacet
facet normal -0.662644805973353 0.748933816245827 0.0
outer loop
vertex 3.48309877779715 1.36573084446843 2.46747067222941e-15
vertex 3.73998766920467 1.66126743978379 1.9
vertex 3.73998766920467 1.66126743978379 2.46747067222941e-15
endloop
endfacet
facet normal -0.948334143781615 0.317273307635534 0.0
outer loop
vertex 3.91163278450961 2.01322160738399 1.9
vertex 3.73998766920467 1.66126743978379 2.46747067222941e-15
vertex 3.73998766920467 1.66126743978379 1.9
endloop
endfacet
facet normal -0.833904066911682 0.551909419368937 0.0
outer loop
vertex 3.73998766920467 1.66126743978379 2.46747067222941e-15
vertex 3.91163278450961 2.01322160738399 1.9
vertex 3.91163278450961 2.01322160738399 2.46747067222941e-15
endloop
endfacet
facet normal -0.998136815949159 0.0610155443053192 0.0
outer loop
vertex 3.98633679276092 2.39760825237884 1.9
vertex 3.91163278450961 2.01322160738399 2.46747067222941e-15
vertex 3.91163278450961 2.01322160738399 1.9
endloop
endfacet
facet normal -0.948334143781615 0.317273307635533 0.0
outer loop
vertex 3.91163278450961 2.01322160738399 2.46747067222941e-15
vertex 3.98633679276092 2.39760825237884 1.9
vertex 3.98633679276092 2.39760825237884 2.11497486191092e-15
endloop
endfacet
facet normal 0.965925826289068 -0.258819045102522 -6.43182389943173e-32
outer loop
vertex 19.9659258262891 3.23031252373467 1.9
vertex 19.8660254037844 2.98913156883719 3.9
vertex 19.8660254037844 2.98913156883719 1.9
endloop
endfacet
facet normal 0.866025403784437 -0.500000000000003 -1.24253296292088e-31
outer loop
vertex 19.8660254037844 2.98913156883719 3.9
vertex 19.9659258262891 3.23031252373467 1.9
vertex 19.9659258262891 3.23031252373467 3.9
endloop
endfacet
facet normal -1.02083062222128e-48 2.48506592584174e-31 -1.0
outer loop
vertex 18.0340741737109 3.74795061393971 1.9
vertex 18.0340741737109 3.23031252373467 1.9
vertex 18.0 3.48913156883719 1.9
endloop
endfacet
facet normal -1.02083062222128e-48 2.48506592584174e-31 -1.0
outer loop
vertex 18.0340741737109 3.23031252373467 1.9
vertex 18.0340741737109 3.74795061393971 1.9
vertex 18.1339745962155 2.98913156883719 1.9
endloop
endfacet
facet normal -1.02083062222128e-48 2.48506592584174e-31 -1.0
outer loop
vertex 18.1339745962155 2.98913156883719 1.9
vertex 18.0340741737109 3.74795061393971 1.9
vertex 18.1339745962156 3.98913156883719 1.9
endloop
endfacet
facet normal -1.02083062222128e-48 2.48506592584174e-31 -1.0
outer loop
vertex 18.1339745962155 2.98913156883719 1.9
vertex 18.1339745962156 3.98913156883719 1.9
vertex 18.2928932188134 2.78202478765064 1.9
endloop
endfacet
facet normal -1.02083062222128e-48 2.48506592584174e-31 -1.0
outer loop
vertex 18.2928932188134 2.78202478765064 1.9
vertex 18.1339745962156 3.98913156883719 1.9
vertex 18.2928932188134 4.19623835002374 1.9
endloop
endfacet
facet normal -1.02083062222128e-48 2.48506592584174e-31 -1.0
outer loop
vertex 18.2928932188134 2.78202478765064 1.9
vertex 18.2928932188134 4.19623835002374 1.9
vertex 18.5 2.62310616505275 1.9
endloop
endfacet
facet normal -1.02083062222128e-48 2.48506592584174e-31 -1.0
outer loop
vertex 18.5 2.62310616505275 1.9
vertex 18.2928932188134 4.19623835002374 1.9
vertex 18.5 4.35515697262163 1.9
endloop
endfacet
facet normal -1.02083062222128e-48 2.48506592584174e-31 -1.0
outer loop
vertex 18.5 2.62310616505275 1.9
vertex 18.5 4.35515697262163 1.9
vertex 18.7411809548975 2.52320574254812 1.9
endloop
endfacet
facet normal -1.02083062222128e-48 2.48506592584174e-31 -1.0
outer loop
vertex 18.7411809548975 2.52320574254812 1.9
vertex 18.5 4.35515697262163 1.9
vertex 18.7411809548975 4.45505739512626 1.9
endloop
endfacet
facet normal -1.02083062222128e-48 2.48506592584174e-31 -1.0
outer loop
vertex 18.7411809548975 2.52320574254812 1.9
vertex 18.7411809548975 4.45505739512626 1.9
vertex 19.0 2.48913156883719 1.9
endloop
endfacet
facet normal -1.02083062222128e-48 2.48506592584174e-31 -1.0
outer loop
vertex 19.0 2.48913156883719 1.9
vertex 18.7411809548975 4.45505739512626 1.9
vertex 19.0 4.48913156883719 1.9
endloop
endfacet
facet normal -1.02083062222128e-48 2.48506592584174e-31 -1.0
outer loop
vertex 19.0 2.48913156883719 1.9
vertex 19.0 4.48913156883719 1.9
vertex 19.2588190451025 2.52320574254812 1.9
endloop
endfacet
facet normal -1.02083062222128e-48 2.48506592584174e-31 -1.0
outer loop
vertex 19.2588190451025 2.52320574254812 1.9
vertex 19.0 4.48913156883719 1.9
vertex 19.2588190451025 4.45505739512626 1.9
endloop
endfacet
facet normal -1.02083062222128e-48 2.48506592584174e-31 -1.0
outer loop
vertex 19.2588190451025 2.52320574254812 1.9
vertex 19.2588190451025 4.45505739512626 1.9
vertex 19.5 2.62310616505275 1.9
endloop
endfacet
facet normal -1.02083062222128e-48 2.48506592584174e-31 -1.0
outer loop
vertex 19.5 2.62310616505275 1.9
vertex 19.2588190451025 4.45505739512626 1.9
vertex 19.5 4.35515697262163 1.9
endloop
endfacet
facet normal -1.02083062222128e-48 2.48506592584174e-31 -1.0
outer loop
vertex 19.5 2.62310616505275 1.9
vertex 19.5 4.35515697262163 1.9
vertex 19.7071067811865 2.78202478765064 1.9
endloop
endfacet
facet normal -1.02083062222128e-48 2.48506592584174e-31 -1.0
outer loop
vertex 19.7071067811865 2.78202478765064 1.9
vertex 19.5 4.35515697262163 1.9
vertex 19.7071067811865 4.19623835002374 1.9
endloop
endfacet
facet normal -1.02083062222128e-48 2.48506592584174e-31 -1.0
outer loop
vertex 19.7071067811865 2.78202478765064 1.9
vertex 19.7071067811865 4.19623835002374 1.9
vertex 19.8660254037844 2.98913156883719 1.9
endloop
endfacet
facet normal -1.02083062222128e-48 2.48506592584174e-31 -1.0
outer loop
vertex 19.8660254037844 2.98913156883719 1.9
vertex 19.7071067811865 4.19623835002374 1.9
vertex 19.8660254037844 3.98913156883719 1.9
endloop
endfacet
facet normal -1.02083062222128e-48 2.48506592584174e-31 -1.0
outer loop
vertex 19.8660254037844 2.98913156883719 1.9
vertex 19.8660254037844 3.98913156883719 1.9
vertex 19.9659258262891 3.23031252373467 1.9
endloop
endfacet
facet normal -1.02083062222128e-48 2.48506592584174e-31 -1.0
outer loop
vertex 19.9659258262891 3.23031252373467 1.9
vertex 19.8660254037844 3.98913156883719 1.9
vertex 19.9659258262891 3.74795061393971 1.9
endloop
endfacet
facet normal -1.02083062222128e-48 2.48506592584174e-31 -1.0
outer loop
vertex 19.9659258262891 3.23031252373467 1.9
vertex 19.9659258262891 3.74795061393971 1.9
vertex 20.0 3.48913156883719 1.9
endloop
endfacet
facet normal -0.866025403784439 -0.499999999999999 -1.24253296292087e-31
outer loop
vertex 18.1339745962155 2.98913156883719 3.9
vertex 18.2928932188134 2.78202478765064 1.9
vertex 18.2928932188134 2.78202478765064 3.9
endloop
endfacet
facet normal -0.70710678118655 -0.707106781186545 -1.75720696785831e-31
outer loop
vertex 18.2928932188134 2.78202478765064 1.9
vertex 18.1339745962155 2.98913156883719 3.9
vertex 18.1339745962155 2.98913156883719 1.9
endloop
endfacet
facet normal 0.866025403784437 -0.500000000000003 -1.24253296292088e-31
outer loop
vertex 19.8660254037844 2.98913156883719 1.9
vertex 19.7071067811865 2.78202478765064 3.9
vertex 19.7071067811865 2.78202478765064 1.9
endloop
endfacet
facet normal 0.707106781186545 -0.70710678118655 -1.75720696785832e-31
outer loop
vertex 19.7071067811865 2.78202478765064 3.9
vertex 19.8660254037844 2.98913156883719 1.9
vertex 19.8660254037844 2.98913156883719 3.9
endloop
endfacet
facet normal 0.707106781186545 -0.70710678118655 -1.75720696785832e-31
outer loop
vertex 19.7071067811865 2.78202478765064 3.9
vertex 19.5 2.62310616505275 1.9
vertex 19.7071067811865 2.78202478765064 1.9
endloop
endfacet
facet normal 0.499999999999998 -0.86602540378444 -2.15213022185804e-31
outer loop
vertex 19.5 2.62310616505275 1.9
vertex 19.7071067811865 2.78202478765064 3.9
vertex 19.5 2.62310616505275 3.9
endloop
endfacet
facet normal 0.499999999999998 -0.86602540378444 -2.15213022185804e-31
outer loop
vertex 19.5 2.62310616505275 3.9
vertex 19.2588190451025 2.52320574254812 1.9
vertex 19.5 2.62310616505275 1.9
endloop
endfacet
facet normal 0.258819045102518 -0.965925826289069 -2.40038935780149e-31
outer loop
vertex 19.2588190451025 2.52320574254812 1.9
vertex 19.5 2.62310616505275 3.9
vertex 19.2588190451025 2.52320574254812 3.9
endloop
endfacet
facet normal -0.499999999999997 0.86602540378444 2.15213022185804e-31
outer loop
vertex 18.5 4.35515697262163 3.9
vertex 18.7411809548975 4.45505739512626 1.9
vertex 18.5 4.35515697262163 1.9
endloop
endfacet
facet normal -0.258819045102519 0.965925826289069 2.40038935780149e-31
outer loop
vertex 18.7411809548975 4.45505739512626 1.9
vertex 18.5 4.35515697262163 3.9
vertex 18.7411809548975 4.45505739512626 3.9
endloop
endfacet
facet normal -0.258819045102519 0.965925826289069 2.40038935780149e-31
outer loop
vertex 18.7411809548975 4.45505739512626 3.9
vertex 19.0 4.48913156883719 1.9
vertex 18.7411809548975 4.45505739512626 1.9
endloop
endfacet
facet normal 2.68224407858972e-15 1.0 2.48506592584174e-31
outer loop
vertex 19.0 4.48913156883719 1.9
vertex 18.7411809548975 4.45505739512626 3.9
vertex 19.0 4.48913156883719 3.9
endloop
endfacet
facet normal 0.258819045102518 -0.965925826289069 -2.40038935780149e-31
outer loop
vertex 19.2588190451025 2.52320574254812 3.9
vertex 19.0 2.48913156883719 1.9
vertex 19.2588190451025 2.52320574254812 1.9
endloop
endfacet
facet normal -2.70897740827666e-15 -1.0 -2.48506592584174e-31
outer loop
vertex 19.0 2.48913156883719 1.9
vertex 19.2588190451025 2.52320574254812 3.9
vertex 19.0 2.48913156883719 3.9
endloop
endfacet
facet normal -2.70897740827666e-15 -1.0 -2.48506592584174e-31
outer loop
vertex 19.0 2.48913156883719 3.9
vertex 18.7411809548975 2.52320574254812 1.9
vertex 19.0 2.48913156883719 1.9
endloop
endfacet
facet normal -0.258819045102523 -0.965925826289068 -2.40038935780149e-31
outer loop
vertex 18.7411809548975 2.52320574254812 1.9
vertex 19.0 2.48913156883719 3.9
vertex 18.7411809548975 2.52320574254812 3.9
endloop
endfacet
facet normal 2.68224407858972e-15 1.0 2.48506592584174e-31
outer loop
vertex 19.0 4.48913156883719 3.9
vertex 19.2588190451025 4.45505739512626 1.9
vertex 19.0 4.48913156883719 1.9
endloop
endfacet
facet normal 0.258819045102524 0.965925826289068 2.40038935780149e-31
outer loop
vertex 19.2588190451025 4.45505739512626 1.9
vertex 19.0 4.48913156883719 3.9
vertex 19.2588190451025 4.45505739512626 3.9
endloop
endfacet
facet normal -0.965925826289069 -0.258819045102519 -6.43182389943165e-32
outer loop
vertex 18.0340741737109 3.23031252373467 3.9
vertex 18.1339745962155 2.98913156883719 1.9
vertex 18.1339745962155 2.98913156883719 3.9
endloop
endfacet
facet normal -0.866025403784439 -0.499999999999999 -1.24253296292087e-31
outer loop
vertex 18.1339745962155 2.98913156883719 1.9
vertex 18.0340741737109 3.23031252373467 3.9
vertex 18.0340741737109 3.23031252373467 1.9
endloop
endfacet
facet normal -1.0 2.8871996061896e-15 7.20536687427403e-46
outer loop
vertex 18.0 3.48913156883719 3.9
vertex 18.0340741737109 3.23031252373467 1.9
vertex 18.0340741737109 3.23031252373467 3.9
endloop
endfacet
facet normal -0.965925826289069 -0.258819045102519 -6.43182389943165e-32
outer loop
vertex 18.0340741737109 3.23031252373467 1.9
vertex 18.0 3.48913156883719 3.9
vertex 18.0 3.48913156883719 1.9
endloop
endfacet
facet normal -0.965925826289068 0.258819045102522 6.43182389943174e-32
outer loop
vertex 18.0340741737109 3.74795061393971 3.9
vertex 18.0 3.48913156883719 1.9
vertex 18.0 3.48913156883719 3.9
endloop
endfacet
facet normal -1.0 2.8871996061896e-15 7.20536687427403e-46
outer loop
vertex 18.0 3.48913156883719 1.9
vertex 18.0340741737109 3.74795061393971 3.9
vertex 18.0340741737109 3.74795061393971 1.9
endloop
endfacet
facet normal -0.866025403784438 0.500000000000001 1.24253296292087e-31
outer loop
vertex 18.1339745962156 3.98913156883719 3.9
vertex 18.0340741737109 3.74795061393971 1.9
vertex 18.0340741737109 3.74795061393971 3.9
endloop
endfacet
facet normal -0.965925826289068 0.258819045102522 6.43182389943174e-32
outer loop
vertex 18.0340741737109 3.74795061393971 1.9
vertex 18.1339745962156 3.98913156883719 3.9
vertex 18.1339745962156 3.98913156883719 1.9
endloop
endfacet
facet normal -0.258819045102523 -0.965925826289068 -2.40038935780149e-31
outer loop
vertex 18.7411809548975 2.52320574254812 3.9
vertex 18.5 2.62310616505275 1.9
vertex 18.7411809548975 2.52320574254812 1.9
endloop
endfacet
facet normal -0.500000000000002 -0.866025403784438 -2.15213022185804e-31
outer loop
vertex 18.5 2.62310616505275 1.9
vertex 18.7411809548975 2.52320574254812 3.9
vertex 18.5 2.62310616505275 3.9
endloop
endfacet
facet normal -0.500000000000002 -0.866025403784438 -2.15213022185804e-31
outer loop
vertex 18.5 2.62310616505275 3.9
vertex 18.2928932188134 2.78202478765064 1.9
vertex 18.5 2.62310616505275 1.9
endloop
endfacet
facet normal -0.70710678118655 -0.707106781186545 -1.75720696785831e-31
outer loop
vertex 18.2928932188134 2.78202478765064 1.9
vertex 18.5 2.62310616505275 3.9
vertex 18.2928932188134 2.78202478765064 3.9
endloop
endfacet
facet normal 1.02083062222128e-48 -2.48506592584174e-31 1.0
outer loop
vertex 18.0340741737109 3.23031252373467 3.9
vertex 18.0340741737109 3.74795061393971 3.9
vertex 18.0 3.48913156883719 3.9
endloop
endfacet
facet normal 1.02083062222128e-48 -2.48506592584174e-31 1.0
outer loop
vertex 18.0340741737109 3.74795061393971 3.9
vertex 18.0340741737109 3.23031252373467 3.9
vertex 18.1339745962155 2.98913156883719 3.9
endloop
endfacet
facet normal 1.02083062222128e-48 -2.48506592584174e-31 1.0
outer loop
vertex 18.0340741737109 3.74795061393971 3.9
vertex 18.1339745962155 2.98913156883719 3.9
vertex 18.1339745962156 3.98913156883719 3.9
endloop
endfacet
facet normal 1.02083062222128e-48 -2.48506592584174e-31 1.0
outer loop
vertex 18.1339745962156 3.98913156883719 3.9
vertex 18.1339745962155 2.98913156883719 3.9
vertex 18.2928932188134 2.78202478765064 3.9
endloop
endfacet
facet normal 1.02083062222128e-48 -2.48506592584174e-31 1.0
outer loop
vertex 18.1339745962156 3.98913156883719 3.9
vertex 18.2928932188134 2.78202478765064 3.9
vertex 18.2928932188134 4.19623835002374 3.9
endloop
endfacet
facet normal 1.02083062222128e-48 -2.48506592584174e-31 1.0
outer loop
vertex 18.2928932188134 4.19623835002374 3.9
vertex 18.2928932188134 2.78202478765064 3.9
vertex 18.5 2.62310616505275 3.9
endloop
endfacet
facet normal 1.02083062222128e-48 -2.48506592584174e-31 1.0
outer loop
vertex 18.2928932188134 4.19623835002374 3.9
vertex 18.5 2.62310616505275 3.9
vertex 18.5 4.35515697262163 3.9
endloop
endfacet
facet normal 1.02083062222128e-48 -2.48506592584174e-31 1.0
outer loop
vertex 18.5 4.35515697262163 3.9
vertex 18.5 2.62310616505275 3.9
vertex 18.7411809548975 2.52320574254812 3.9
endloop
endfacet
facet normal 1.02083062222128e-48 -2.48506592584174e-31 1.0
outer loop
vertex 18.5 4.35515697262163 3.9
vertex 18.7411809548975 2.52320574254812 3.9
vertex 18.7411809548975 4.45505739512626 3.9
endloop
endfacet
facet normal 1.02083062222128e-48 -2.48506592584174e-31 1.0
outer loop
vertex 18.7411809548975 4.45505739512626 3.9
vertex 18.7411809548975 2.52320574254812 3.9
vertex 19.0 2.48913156883719 3.9
endloop
endfacet
facet normal 1.02083062222128e-48 -2.48506592584174e-31 1.0
outer loop
vertex 18.7411809548975 4.45505739512626 3.9
vertex 19.0 2.48913156883719 3.9
vertex 19.0 4.48913156883719 3.9
endloop
endfacet
facet normal 1.02083062222128e-48 -2.48506592584174e-31 1.0
outer loop
vertex 19.0 4.48913156883719 3.9
vertex 19.0 2.48913156883719 3.9
vertex 19.2588190451025 2.52320574254812 3.9
endloop
endfacet
facet normal 1.02083062222128e-48 -2.48506592584174e-31 1.0
outer loop
vertex 19.0 4.48913156883719 3.9
vertex 19.2588190451025 2.52320574254812 3.9
vertex 19.2588190451025 4.45505739512626 3.9
endloop
endfacet
facet normal 1.02083062222128e-48 -2.48506592584174e-31 1.0
outer loop
vertex 19.2588190451025 4.45505739512626 3.9
vertex 19.2588190451025 2.52320574254812 3.9
vertex 19.5 2.62310616505275 3.9
endloop
endfacet
facet normal 1.02083062222128e-48 -2.48506592584174e-31 1.0
outer loop
vertex 19.2588190451025 4.45505739512626 3.9
vertex 19.5 2.62310616505275 3.9
vertex 19.5 4.35515697262163 3.9
endloop
endfacet
facet normal 1.02083062222128e-48 -2.48506592584174e-31 1.0
outer loop
vertex 19.5 4.35515697262163 3.9
vertex 19.5 2.62310616505275 3.9
vertex 19.7071067811865 2.78202478765064 3.9
endloop
endfacet
facet normal 1.02083062222128e-48 -2.48506592584174e-31 1.0
outer loop
vertex 19.5 4.35515697262163 3.9
vertex 19.7071067811865 2.78202478765064 3.9
vertex 19.7071067811865 4.19623835002374 3.9
endloop
endfacet
facet normal 1.02083062222128e-48 -2.48506592584174e-31 1.0
outer loop
vertex 19.7071067811865 4.19623835002374 3.9
vertex 19.7071067811865 2.78202478765064 3.9
vertex 19.8660254037844 2.98913156883719 3.9
endloop
endfacet
facet normal 1.02083062222128e-48 -2.48506592584174e-31 1.0
outer loop
vertex 19.7071067811865 4.19623835002374 3.9
vertex 19.8660254037844 2.98913156883719 3.9
vertex 19.8660254037844 3.98913156883719 3.9
endloop
endfacet
facet normal 1.02083062222128e-48 -2.48506592584174e-31 1.0
outer loop
vertex 19.8660254037844 3.98913156883719 3.9
vertex 19.8660254037844 2.98913156883719 3.9
vertex 19.9659258262891 3.23031252373467 3.9
endloop
endfacet
facet normal 1.02083062222128e-48 -2.48506592584174e-31 1.0
outer loop
vertex 19.8660254037844 3.98913156883719 3.9
vertex 19.9659258262891 3.23031252373467 3.9
vertex 19.9659258262891 3.74795061393971 3.9
endloop
endfacet
facet normal 1.02083062222128e-48 -2.48506592584174e-31 1.0
outer loop
vertex 19.9659258262891 3.74795061393971 3.9
vertex 19.9659258262891 3.23031252373467 3.9
vertex 20.0 3.48913156883719 3.9
endloop
endfacet
facet normal -0.707106781186545 0.70710678118655 1.75720696785832e-31
outer loop
vertex 18.2928932188134 4.19623835002374 3.9
vertex 18.1339745962156 3.98913156883719 1.9
vertex 18.1339745962156 3.98913156883719 3.9
endloop
endfacet
facet normal -0.866025403784438 0.500000000000001 1.24253296292087e-31
outer loop
vertex 18.1339745962156 3.98913156883719 1.9
vertex 18.2928932188134 4.19623835002374 3.9
vertex 18.2928932188134 4.19623835002374 1.9
endloop
endfacet
facet normal -0.707106781186545 0.70710678118655 1.75720696785832e-31
outer loop
vertex 18.2928932188134 4.19623835002374 3.9
vertex 18.5 4.35515697262163 1.9
vertex 18.2928932188134 4.19623835002374 1.9
endloop
endfacet
facet normal -0.499999999999997 0.86602540378444 2.15213022185804e-31
outer loop
vertex 18.5 4.35515697262163 1.9
vertex 18.2928932188134 4.19623835002374 3.9
vertex 18.5 4.35515697262163 3.9
endloop
endfacet
facet normal 0.258819045102524 0.965925826289068 2.40038935780149e-31
outer loop
vertex 19.2588190451025 4.45505739512626 3.9
vertex 19.5 4.35515697262163 1.9
vertex 19.2588190451025 4.45505739512626 1.9
endloop
endfacet
facet normal 0.500000000000003 0.866025403784437 2.15213022185804e-31
outer loop
vertex 19.5 4.35515697262163 1.9
vertex 19.2588190451025 4.45505739512626 3.9
vertex 19.5 4.35515697262163 3.9
endloop
endfacet
facet normal 0.500000000000003 0.866025403784437 2.15213022185804e-31
outer loop
vertex 19.5 4.35515697262163 3.9
vertex 19.7071067811865 4.19623835002374 1.9
vertex 19.5 4.35515697262163 1.9
endloop
endfacet
facet normal 0.707106781186549 0.707106781186546 1.75720696785832e-31
outer loop
vertex 19.7071067811865 4.19623835002374 1.9
vertex 19.5 4.35515697262163 3.9
vertex 19.7071067811865 4.19623835002374 3.9
endloop
endfacet
facet normal 0.707106781186549 0.707106781186546 1.75720696785832e-31
outer loop
vertex 19.7071067811865 4.19623835002374 1.9
vertex 19.8660254037844 3.98913156883719 3.9
vertex 19.8660254037844 3.98913156883719 1.9
endloop
endfacet
facet normal 0.86602540378444 0.499999999999998 1.24253296292086e-31
outer loop
vertex 19.8660254037844 3.98913156883719 3.9
vertex 19.7071067811865 4.19623835002374 1.9
vertex 19.7071067811865 4.19623835002374 3.9
endloop
endfacet
facet normal 0.86602540378444 0.499999999999998 1.24253296292086e-31
outer loop
vertex 19.8660254037844 3.98913156883719 1.9
vertex 19.9659258262891 3.74795061393971 3.9
vertex 19.9659258262891 3.74795061393971 1.9
endloop
endfacet
facet normal 0.965925826289069 0.258819045102516 6.4318238994316e-32
outer loop
vertex 19.9659258262891 3.74795061393971 3.9
vertex 19.8660254037844 3.98913156883719 1.9
vertex 19.8660254037844 3.98913156883719 3.9
endloop
endfacet
facet normal 0.965925826289069 0.258819045102516 6.4318238994316e-32
outer loop
vertex 19.9659258262891 3.74795061393971 1.9
vertex 20.0 3.48913156883719 3.9
vertex 20.0 3.48913156883719 1.9
endloop
endfacet
facet normal 1.0 -2.84264405671136e-15 -7.02962621880393e-46
outer loop
vertex 20.0 3.48913156883719 3.9
vertex 19.9659258262891 3.74795061393971 1.9
vertex 19.9659258262891 3.74795061393971 3.9
endloop
endfacet
facet normal 1.0 -2.84264405671136e-15 -7.02962621880393e-46
outer loop
vertex 20.0 3.48913156883719 1.9
vertex 19.9659258262891 3.23031252373467 3.9
vertex 19.9659258262891 3.23031252373467 1.9
endloop
endfacet
facet normal 0.965925826289068 -0.258819045102522 -6.43182389943173e-32
outer loop
vertex 19.9659258262891 3.23031252373467 3.9
vertex 20.0 3.48913156883719 1.9
vertex 20.0 3.48913156883719 3.9
endloop
endfacet
endsolid Traba
