solid Rueda interna
facet normal -0.48520707574076677 -0.8743992758752113 0.0
  outer loop
    vertex 6.7597633720092 12.94516170169325 4.000000000000002
    vertex 6.266784706735085 13.310293574065126 2.0000000000000018
    vertex 6.7597633720092 12.94516170169325 2.0000000000000018
  endloop
endfacet
facet normal -0.6949852311765604 -0.7190240110361149 0.0
  outer loop
    vertex 6.266784706735085 13.310293574065126 2.0000000000000018
    vertex 6.7597633720092 12.94516170169325 4.000000000000002
    vertex 6.266784706735085 13.310293574065126 4.000000000000002
  endloop
endfacet
facet normal 0.27520044389997783 -0.9613868709719595 0.0
  outer loop
    vertex 8.54672104316495 12.74074085321589 4.000000000000002
    vertex 7.939945262987834 12.650339519001767 2.0000000000000018
    vertex 8.54672104316495 12.74074085321589 2.0000000000000018
  endloop
endfacet
facet normal 0.016997984250142015 -0.9998555238290339 0.0
  outer loop
    vertex 7.939945262987834 12.650339519001767 2.0000000000000018
    vertex 8.54672104316495 12.74074085321589 4.000000000000002
    vertex 7.939945262987834 12.650339519001767 4.000000000000002
  endloop
endfacet
facet normal -0.27520044389997833 0.9613868709719594 0.0
  outer loop
    vertex 7.253278956835052 17.2592591467841 4.000000000000002
    vertex 7.860054737012167 17.349660480998224 2.0000000000000018
    vertex 7.253278956835052 17.2592591467841 2.0000000000000018
  endloop
endfacet
facet normal -0.016997984250142033 0.999855523829034 0.0
  outer loop
    vertex 7.860054737012167 17.349660480998224 2.0000000000000018
    vertex 7.253278956835052 17.2592591467841 4.000000000000002
    vertex 7.860054737012167 17.349660480998224 4.000000000000002
  endloop
endfacet
facet normal 0.8743992758752112 -0.485207075740767 0.0
  outer loop
    vertex 9.954838298306749 13.859763372009194 2.0000000000000018
    vertex 9.589706425934871 13.366784706735078 4.000000000000002
    vertex 9.589706425934871 13.366784706735078 2.0000000000000018
  endloop
endfacet
facet normal 0.719024011036115 -0.6949852311765602 0.0
  outer loop
    vertex 9.589706425934871 13.366784706735078 4.000000000000002
    vertex 9.954838298306749 13.859763372009194 2.0000000000000018
    vertex 9.954838298306749 13.859763372009194 4.000000000000002
  endloop
endfacet
facet normal 0.4852070757407668 0.8743992758752112 0.0
  outer loop
    vertex 9.040236627990803 17.05483829830674 4.000000000000002
    vertex 9.533215293264917 16.689706425934865 2.0000000000000018
    vertex 9.040236627990803 17.05483829830674 2.0000000000000018
  endloop
endfacet
facet normal 0.6949852311765602 0.7190240110361151 0.0
  outer loop
    vertex 9.533215293264917 16.689706425934865 2.0000000000000018
    vertex 9.040236627990803 17.05483829830674 4.000000000000002
    vertex 9.533215293264917 16.689706425934865 4.000000000000002
  endloop
endfacet
facet normal 0.9701856750765383 -0.24236285993584425 0.0
  outer loop
    vertex 10.179936336429867 14.43044727915076 2.0000000000000018
    vertex 9.954838298306749 13.859763372009194 4.000000000000002
    vertex 9.954838298306749 13.859763372009194 2.0000000000000018
  endloop
endfacet
facet normal 0.8743992758752112 -0.485207075740767 0.0
  outer loop
    vertex 9.954838298306749 13.859763372009194 4.000000000000002
    vertex 10.179936336429867 14.43044727915076 2.0000000000000018
    vertex 10.179936336429867 14.43044727915076 4.000000000000002
  endloop
endfacet
facet normal -0.7190240110361151 0.69498523117656 0.0
  outer loop
    vertex 6.21029357406513 16.63321529326491 4.000000000000002
    vertex 6.690576146992573 17.01489303531891 2.0000000000000018
    vertex 6.21029357406513 16.63321529326491 2.0000000000000018
  endloop
endfacet
facet normal -0.5146484480882678 0.8574012916250697 0.0
  outer loop
    vertex 6.690576146992573 17.01489303531891 2.0000000000000018
    vertex 6.21029357406513 16.63321529326491 4.000000000000002
    vertex 6.690576146992573 17.01489303531891 4.000000000000002
  endloop
endfacet
facet normal 0.8574012916250698 0.5146484480882676 0.0
  outer loop
    vertex 9.914893035318915 16.209423853007422 2.0000000000000018
    vertex 10.159259146784105 15.646721043164945 4.000000000000002
    vertex 10.159259146784105 15.646721043164945 2.0000000000000018
  endloop
endfacet
facet normal 0.9613868709719599 0.2752004438999771 0.0
  outer loop
    vertex 10.159259146784105 15.646721043164945 4.000000000000002
    vertex 9.914893035318915 16.209423853007422 2.0000000000000018
    vertex 9.914893035318915 16.209423853007422 4.000000000000002
  endloop
endfacet
facet normal -0.999855523829034 -0.016997984250142033 0.0
  outer loop
    vertex 5.550339519001771 14.96005473701216 4.000000000000002
    vertex 5.640740853215896 14.353278956835046 2.0000000000000018
    vertex 5.640740853215896 14.353278956835046 4.000000000000002
  endloop
endfacet
facet normal -0.9613868709719592 -0.2752004438999792 0.0
  outer loop
    vertex 5.640740853215896 14.353278956835046 2.0000000000000018
    vertex 5.550339519001771 14.96005473701216 4.000000000000002
    vertex 5.550339519001771 14.96005473701216 2.0000000000000018
  endloop
endfacet
facet normal 0.24236285993584472 0.9701856750765383 0.0
  outer loop
    vertex 8.469552720849236 17.27993633642986 4.000000000000002
    vertex 9.040236627990803 17.05483829830674 2.0000000000000018
    vertex 8.469552720849236 17.27993633642986 2.0000000000000018
  endloop
endfacet
facet normal 0.4852070757407668 0.8743992758752112 0.0
  outer loop
    vertex 9.040236627990803 17.05483829830674 2.0000000000000018
    vertex 8.469552720849236 17.27993633642986 4.000000000000002
    vertex 9.040236627990803 17.05483829830674 4.000000000000002
  endloop
endfacet
facet normal 0.719024011036115 -0.6949852311765602 0.0
  outer loop
    vertex 9.589706425934871 13.366784706735078 4.000000000000002
    vertex 9.10942385300743 12.985106964681082 2.0000000000000018
    vertex 9.589706425934871 13.366784706735078 2.0000000000000018
  endloop
endfacet
facet normal 0.5146484480882675 -0.85740129162507 0.0
  outer loop
    vertex 9.10942385300743 12.985106964681082 2.0000000000000018
    vertex 9.589706425934871 13.366784706735078 4.000000000000002
    vertex 9.10942385300743 12.985106964681082 4.000000000000002
  endloop
endfacet
facet normal 0.9613868709719599 0.2752004438999771 0.0
  outer loop
    vertex 10.159259146784105 15.646721043164945 2.0000000000000018
    vertex 10.24966048099823 15.039945262987828 4.000000000000002
    vertex 10.24966048099823 15.039945262987828 2.0000000000000018
  endloop
endfacet
facet normal 0.9998555238290339 0.01699798425014192 0.0
  outer loop
    vertex 10.24966048099823 15.039945262987828 4.000000000000002
    vertex 10.159259146784105 15.646721043164945 2.0000000000000018
    vertex 10.159259146784105 15.646721043164945 4.000000000000002
  endloop
endfacet
facet normal 0.0 0.0 1.0
  outer loop
    vertex 5.640740853215896 14.353278956835046 4.000000000000002
    vertex 5.620063663570136 15.56955272084923 4.000000000000002
    vertex 5.550339519001771 14.96005473701216 4.000000000000002
  endloop
endfacet
facet normal 0.0 0.0 1.0
  outer loop
    vertex 5.620063663570136 15.56955272084923 4.000000000000002
    vertex 5.640740853215896 14.353278956835046 4.000000000000002
    vertex 5.845161701693254 16.140236627990795 4.000000000000002
  endloop
endfacet
facet normal 0.0 0.0 1.0
  outer loop
    vertex 5.845161701693254 16.140236627990795 4.000000000000002
    vertex 5.640740853215896 14.353278956835046 4.000000000000002
    vertex 5.885106964681088 13.790576146992567 4.000000000000002
  endloop
endfacet
facet normal 0.0 0.0 1.0
  outer loop
    vertex 5.845161701693254 16.140236627990795 4.000000000000002
    vertex 5.885106964681088 13.790576146992567 4.000000000000002
    vertex 6.21029357406513 16.63321529326491 4.000000000000002
  endloop
endfacet
facet normal 0.0 0.0 1.0
  outer loop
    vertex 6.21029357406513 16.63321529326491 4.000000000000002
    vertex 5.885106964681088 13.790576146992567 4.000000000000002
    vertex 6.266784706735085 13.310293574065126 4.000000000000002
  endloop
endfacet
facet normal 0.0 0.0 1.0
  outer loop
    vertex 6.21029357406513 16.63321529326491 4.000000000000002
    vertex 6.266784706735085 13.310293574065126 4.000000000000002
    vertex 6.690576146992573 17.01489303531891 4.000000000000002
  endloop
endfacet
facet normal 0.0 0.0 1.0
  outer loop
    vertex 6.690576146992573 17.01489303531891 4.000000000000002
    vertex 6.266784706735085 13.310293574065126 4.000000000000002
    vertex 6.7597633720092 12.94516170169325 4.000000000000002
  endloop
endfacet
facet normal 0.0 0.0 1.0
  outer loop
    vertex 6.690576146992573 17.01489303531891 4.000000000000002
    vertex 6.7597633720092 12.94516170169325 4.000000000000002
    vertex 7.253278956835052 17.2592591467841 4.000000000000002
  endloop
endfacet
facet normal 0.0 0.0 1.0
  outer loop
    vertex 7.253278956835052 17.2592591467841 4.000000000000002
    vertex 6.7597633720092 12.94516170169325 4.000000000000002
    vertex 7.330447279150766 12.720063663570132 4.000000000000002
  endloop
endfacet
facet normal 0.0 0.0 1.0
  outer loop
    vertex 7.253278956835052 17.2592591467841 4.000000000000002
    vertex 7.330447279150766 12.720063663570132 4.000000000000002
    vertex 7.860054737012167 17.349660480998224 4.000000000000002
  endloop
endfacet
facet normal 0.0 0.0 1.0
  outer loop
    vertex 7.860054737012167 17.349660480998224 4.000000000000002
    vertex 7.330447279150766 12.720063663570132 4.000000000000002
    vertex 7.939945262987834 12.650339519001767 4.000000000000002
  endloop
endfacet
facet normal 0.0 0.0 1.0
  outer loop
    vertex 7.860054737012167 17.349660480998224 4.000000000000002
    vertex 7.939945262987834 12.650339519001767 4.000000000000002
    vertex 8.469552720849236 17.27993633642986 4.000000000000002
  endloop
endfacet
facet normal 0.0 0.0 1.0
  outer loop
    vertex 8.469552720849236 17.27993633642986 4.000000000000002
    vertex 7.939945262987834 12.650339519001767 4.000000000000002
    vertex 8.54672104316495 12.74074085321589 4.000000000000002
  endloop
endfacet
facet normal 0.0 0.0 1.0
  outer loop
    vertex 8.469552720849236 17.27993633642986 4.000000000000002
    vertex 8.54672104316495 12.74074085321589 4.000000000000002
    vertex 9.040236627990803 17.05483829830674 4.000000000000002
  endloop
endfacet
facet normal 0.0 0.0 1.0
  outer loop
    vertex 9.040236627990803 17.05483829830674 4.000000000000002
    vertex 8.54672104316495 12.74074085321589 4.000000000000002
    vertex 9.10942385300743 12.985106964681082 4.000000000000002
  endloop
endfacet
facet normal 0.0 0.0 1.0
  outer loop
    vertex 9.040236627990803 17.05483829830674 4.000000000000002
    vertex 9.10942385300743 12.985106964681082 4.000000000000002
    vertex 9.533215293264917 16.689706425934865 4.000000000000002
  endloop
endfacet
facet normal 0.0 0.0 1.0
  outer loop
    vertex 9.533215293264917 16.689706425934865 4.000000000000002
    vertex 9.10942385300743 12.985106964681082 4.000000000000002
    vertex 9.589706425934871 13.366784706735078 4.000000000000002
  endloop
endfacet
facet normal 0.0 0.0 1.0
  outer loop
    vertex 9.533215293264917 16.689706425934865 4.000000000000002
    vertex 9.589706425934871 13.366784706735078 4.000000000000002
    vertex 9.914893035318915 16.209423853007422 4.000000000000002
  endloop
endfacet
facet normal 0.0 0.0 1.0
  outer loop
    vertex 9.914893035318915 16.209423853007422 4.000000000000002
    vertex 9.589706425934871 13.366784706735078 4.000000000000002
    vertex 9.954838298306749 13.859763372009194 4.000000000000002
  endloop
endfacet
facet normal 0.0 0.0 1.0
  outer loop
    vertex 9.914893035318915 16.209423853007422 4.000000000000002
    vertex 9.954838298306749 13.859763372009194 4.000000000000002
    vertex 10.159259146784105 15.646721043164945 4.000000000000002
  endloop
endfacet
facet normal 0.0 0.0 1.0
  outer loop
    vertex 10.159259146784105 15.646721043164945 4.000000000000002
    vertex 9.954838298306749 13.859763372009194 4.000000000000002
    vertex 10.179936336429867 14.43044727915076 4.000000000000002
  endloop
endfacet
facet normal 0.0 0.0 1.0
  outer loop
    vertex 10.159259146784105 15.646721043164945 4.000000000000002
    vertex 10.179936336429867 14.43044727915076 4.000000000000002
    vertex 10.24966048099823 15.039945262987828 4.000000000000002
  endloop
endfacet
facet normal -0.5146484480882678 0.8574012916250697 0.0
  outer loop
    vertex 6.690576146992573 17.01489303531891 4.000000000000002
    vertex 7.253278956835052 17.2592591467841 2.0000000000000018
    vertex 6.690576146992573 17.01489303531891 2.0000000000000018
  endloop
endfacet
facet normal -0.27520044389997833 0.9613868709719594 0.0
  outer loop
    vertex 7.253278956835052 17.2592591467841 2.0000000000000018
    vertex 6.690576146992573 17.01489303531891 4.000000000000002
    vertex 7.253278956835052 17.2592591467841 4.000000000000002
  endloop
endfacet
facet normal -0.8660254037844392 -0.49999999999999933 0.0
  outer loop
    vertex 2.0096189432334186 7.500000000000009 2.0000000000000018
    vertex 4.393398282201787 4.393398282201789 0.0
    vertex 4.393398282201787 4.393398282201789 2.0000000000000018
  endloop
endfacet
facet normal -0.707106781186548 -0.7071067811865471 0.0
  outer loop
    vertex 4.393398282201787 4.393398282201789 0.0
    vertex 2.0096189432334186 7.500000000000009 2.0000000000000018
    vertex 2.0096189432334186 7.500000000000009 0.0
  endloop
endfacet
facet normal -0.9659258262890683 -0.25881904510252074 0.0
  outer loop
    vertex 0.5111126056639763 11.117714323462199 2.0000000000000018
    vertex 2.0096189432334186 7.500000000000009 0.0
    vertex 2.0096189432334186 7.500000000000009 2.0000000000000018
  endloop
endfacet
facet normal -0.8660254037844392 -0.49999999999999933 0.0
  outer loop
    vertex 2.0096189432334186 7.500000000000009 0.0
    vertex 0.5111126056639763 11.117714323462199 2.0000000000000018
    vertex 0.5111126056639763 11.117714323462199 0.0
  endloop
endfacet
facet normal -0.25881904510252113 -0.9659258262890683 0.0
  outer loop
    vertex 11.117714323462184 0.511112605663982 2.0000000000000018
    vertex 7.499999999999995 2.0096189432334244 0.0
    vertex 11.117714323462184 0.511112605663982 0.0
  endloop
endfacet
facet normal -0.49999999999999994 -0.8660254037844387 0.0
  outer loop
    vertex 7.499999999999995 2.0096189432334244 0.0
    vertex 11.117714323462184 0.511112605663982 2.0000000000000018
    vertex 7.499999999999995 2.0096189432334244 2.0000000000000018
  endloop
endfacet
facet normal -0.24236285993584425 -0.9701856750765384 0.0
  outer loop
    vertex 7.330447279150766 12.720063663570132 4.000000000000002
    vertex 6.7597633720092 12.94516170169325 2.0000000000000018
    vertex 7.330447279150766 12.720063663570132 2.0000000000000018
  endloop
endfacet
facet normal -0.48520707574076677 -0.8743992758752113 0.0
  outer loop
    vertex 6.7597633720092 12.94516170169325 2.0000000000000018
    vertex 7.330447279150766 12.720063663570132 4.000000000000002
    vertex 6.7597633720092 12.94516170169325 4.000000000000002
  endloop
endfacet
facet normal -0.016997984250142033 0.999855523829034 0.0
  outer loop
    vertex 7.860054737012167 17.349660480998224 4.000000000000002
    vertex 8.469552720849236 17.27993633642986 2.0000000000000018
    vertex 7.860054737012167 17.349660480998224 2.0000000000000018
  endloop
endfacet
facet normal 0.24236285993584472 0.9701856750765383 0.0
  outer loop
    vertex 8.469552720849236 17.27993633642986 2.0000000000000018
    vertex 7.860054737012167 17.349660480998224 4.000000000000002
    vertex 8.469552720849236 17.27993633642986 4.000000000000002
  endloop
endfacet
facet normal -0.9613868709719592 -0.2752004438999792 0.0
  outer loop
    vertex 5.640740853215896 14.353278956835046 4.000000000000002
    vertex 5.885106964681088 13.790576146992567 2.0000000000000018
    vertex 5.885106964681088 13.790576146992567 4.000000000000002
  endloop
endfacet
facet normal -0.8574012916250694 -0.5146484480882684 0.0
  outer loop
    vertex 5.885106964681088 13.790576146992567 2.0000000000000018
    vertex 5.640740853215896 14.353278956835046 4.000000000000002
    vertex 5.640740853215896 14.353278956835046 2.0000000000000018
  endloop
endfacet
facet normal 0.9998555238290339 0.01699798425014192 0.0
  outer loop
    vertex 10.24966048099823 15.039945262987828 2.0000000000000018
    vertex 10.179936336429867 14.43044727915076 4.000000000000002
    vertex 10.179936336429867 14.43044727915076 2.0000000000000018
  endloop
endfacet
facet normal 0.9701856750765383 -0.24236285993584425 0.0
  outer loop
    vertex 10.179936336429867 14.43044727915076 4.000000000000002
    vertex 10.24966048099823 15.039945262987828 2.0000000000000018
    vertex 10.24966048099823 15.039945262987828 4.000000000000002
  endloop
endfacet
facet normal -0.7190240110361151 0.69498523117656 0.0
  outer loop
    vertex 6.21029357406513 16.63321529326491 4.000000000000002
    vertex 5.845161701693254 16.140236627990795 2.0000000000000018
    vertex 5.845161701693254 16.140236627990795 4.000000000000002
  endloop
endfacet
facet normal -0.8743992758752115 0.4852070757407665 0.0
  outer loop
    vertex 5.845161701693254 16.140236627990795 2.0000000000000018
    vertex 6.21029357406513 16.63321529326491 4.000000000000002
    vertex 6.21029357406513 16.63321529326491 2.0000000000000018
  endloop
endfacet
facet normal 0.6949852311765602 0.7190240110361151 0.0
  outer loop
    vertex 9.533215293264917 16.689706425934865 2.0000000000000018
    vertex 9.914893035318915 16.209423853007422 4.000000000000002
    vertex 9.914893035318915 16.209423853007422 2.0000000000000018
  endloop
endfacet
facet normal 0.8574012916250698 0.5146484480882676 0.0
  outer loop
    vertex 9.914893035318915 16.209423853007422 4.000000000000002
    vertex 9.533215293264917 16.689706425934865 2.0000000000000018
    vertex 9.533215293264917 16.689706425934865 4.000000000000002
  endloop
endfacet
facet normal 0.5146484480882675 -0.85740129162507 0.0
  outer loop
    vertex 9.10942385300743 12.985106964681082 4.000000000000002
    vertex 8.54672104316495 12.74074085321589 2.0000000000000018
    vertex 9.10942385300743 12.985106964681082 2.0000000000000018
  endloop
endfacet
facet normal 0.27520044389997783 -0.9613868709719595 0.0
  outer loop
    vertex 8.54672104316495 12.74074085321589 2.0000000000000018
    vertex 9.10942385300743 12.985106964681082 4.000000000000002
    vertex 8.54672104316495 12.74074085321589 4.000000000000002
  endloop
endfacet
facet normal -0.8574012916250694 -0.5146484480882684 0.0
  outer loop
    vertex 5.885106964681088 13.790576146992567 4.000000000000002
    vertex 6.266784706735085 13.310293574065126 2.0000000000000018
    vertex 6.266784706735085 13.310293574065126 4.000000000000002
  endloop
endfacet
facet normal -0.6949852311765604 -0.7190240110361149 0.0
  outer loop
    vertex 6.266784706735085 13.310293574065126 2.0000000000000018
    vertex 5.885106964681088 13.790576146992567 4.000000000000002
    vertex 5.885106964681088 13.790576146992567 2.0000000000000018
  endloop
endfacet
facet normal -0.8743992758752115 0.4852070757407665 0.0
  outer loop
    vertex 5.845161701693254 16.140236627990795 4.000000000000002
    vertex 5.620063663570136 15.56955272084923 2.0000000000000018
    vertex 5.620063663570136 15.56955272084923 4.000000000000002
  endloop
endfacet
facet normal -0.9701856750765381 0.24236285993584492 0.0
  outer loop
    vertex 5.620063663570136 15.56955272084923 2.0000000000000018
    vertex 5.845161701693254 16.140236627990795 4.000000000000002
    vertex 5.845161701693254 16.140236627990795 2.0000000000000018
  endloop
endfacet
facet normal 0.016997984250142015 -0.9998555238290339 0.0
  outer loop
    vertex 7.939945262987834 12.650339519001767 4.000000000000002
    vertex 7.330447279150766 12.720063663570132 2.0000000000000018
    vertex 7.939945262987834 12.650339519001767 2.0000000000000018
  endloop
endfacet
facet normal -0.24236285993584425 -0.9701856750765384 0.0
  outer loop
    vertex 7.330447279150766 12.720063663570132 2.0000000000000018
    vertex 7.939945262987834 12.650339519001767 4.000000000000002
    vertex 7.330447279150766 12.720063663570132 4.000000000000002
  endloop
endfacet
facet normal -0.9701856750765381 0.24236285993584492 0.0
  outer loop
    vertex 5.620063663570136 15.56955272084923 4.000000000000002
    vertex 5.550339519001771 14.96005473701216 2.0000000000000018
    vertex 5.550339519001771 14.96005473701216 4.000000000000002
  endloop
endfacet
facet normal -0.999855523829034 -0.016997984250142033 0.0
  outer loop
    vertex 5.550339519001771 14.96005473701216 2.0000000000000018
    vertex 5.620063663570136 15.56955272084923 4.000000000000002
    vertex 5.620063663570136 15.56955272084923 2.0000000000000018
  endloop
endfacet
facet normal -0.49999999999999994 -0.8660254037844387 0.0
  outer loop
    vertex 7.499999999999995 2.0096189432334244 2.0000000000000018
    vertex 4.393398282201787 4.393398282201789 0.0
    vertex 7.499999999999995 2.0096189432334244 0.0
  endloop
endfacet
facet normal -0.707106781186548 -0.7071067811865471 0.0
  outer loop
    vertex 4.393398282201787 4.393398282201789 0.0
    vertex 7.499999999999995 2.0096189432334244 2.0000000000000018
    vertex 4.393398282201787 4.393398282201789 2.0000000000000018
  endloop
endfacet
facet normal -0.4999999999999998 0.8660254037844388 0.0
  outer loop
    vertex 7.5 27.990381056766577 2.0000000000000018
    vertex 11.11771432346219 29.488887394336018 0.0
    vertex 7.5 27.990381056766577 0.0
  endloop
endfacet
facet normal -0.2588190451025206 0.9659258262890684 0.0
  outer loop
    vertex 11.11771432346219 29.488887394336018 0.0
    vertex 7.5 27.990381056766577 2.0000000000000018
    vertex 11.11771432346219 29.488887394336018 2.0000000000000018
  endloop
endfacet
facet normal 5.346665937388143e-16 1.0 0.0
  outer loop
    vertex 15.0 29.999999999999996 2.0000000000000018
    vertex 18.882285676537826 29.488887394336015 0.0
    vertex 15.0 29.999999999999996 0.0
  endloop
endfacet
facet normal 0.25881904510252135 0.965925826289068 0.0
  outer loop
    vertex 18.882285676537826 29.488887394336015 0.0
    vertex 15.0 29.999999999999996 2.0000000000000018
    vertex 18.882285676537826 29.488887394336015 2.0000000000000018
  endloop
endfacet
facet normal -0.2588190451025206 0.9659258262890684 0.0
  outer loop
    vertex 11.11771432346219 29.488887394336018 2.0000000000000018
    vertex 15.0 29.999999999999996 0.0
    vertex 11.11771432346219 29.488887394336018 0.0
  endloop
endfacet
facet normal 5.346665937388143e-16 1.0 0.0
  outer loop
    vertex 15.0 29.999999999999996 0.0
    vertex 11.11771432346219 29.488887394336018 2.0000000000000018
    vertex 15.0 29.999999999999996 2.0000000000000018
  endloop
endfacet
facet normal 0.7071067811865472 -0.7071067811865478 0.0
  outer loop
    vertex 25.6066017177982 4.393398282201789 2.0000000000000018
    vertex 22.499999999999996 2.0096189432334244 0.0
    vertex 25.6066017177982 4.393398282201789 0.0
  endloop
endfacet
facet normal 0.5000000000000012 -0.8660254037844379 0.0
  outer loop
    vertex 22.499999999999996 2.0096189432334244 0.0
    vertex 25.6066017177982 4.393398282201789 2.0000000000000018
    vertex 22.499999999999996 2.0096189432334244 2.0000000000000018
  endloop
endfacet
facet normal 0.9659258262890684 0.2588190451025201 0.0
  outer loop
    vertex 29.488887394336025 18.8822856765378 0.0
    vertex 29.999999999999996 14.99999999999999 2.0000000000000018
    vertex 29.999999999999996 14.99999999999999 0.0
  endloop
endfacet
facet normal 1.0 -6.594221322778709e-16 0.0
  outer loop
    vertex 29.999999999999996 14.99999999999999 2.0000000000000018
    vertex 29.488887394336025 18.8822856765378 0.0
    vertex 29.488887394336025 18.8822856765378 2.0000000000000018
  endloop
endfacet
facet normal 0.0 0.0 1.0
  outer loop
    vertex 0.5111126056639763 11.117714323462199 2.0000000000000018
    vertex 0.5111126056639763 18.88228567653781 2.0000000000000018
    vertex 0.0 14.999999999999995 2.0000000000000018
  endloop
endfacet
facet normal 0.0 0.0 1.0
  outer loop
    vertex 0.5111126056639763 18.88228567653781 2.0000000000000018
    vertex 0.5111126056639763 11.117714323462199 2.0000000000000018
    vertex 2.0096189432334186 7.500000000000009 2.0000000000000018
  endloop
endfacet
facet normal 0.0 0.0 1.0
  outer loop
    vertex 0.5111126056639763 18.88228567653781 2.0000000000000018
    vertex 2.0096189432334186 7.500000000000009 2.0000000000000018
    vertex 2.0096189432334217 22.499999999999996 2.0000000000000018
  endloop
endfacet
facet normal 0.0 0.0 1.0
  outer loop
    vertex 2.0096189432334217 22.499999999999996 2.0000000000000018
    vertex 2.0096189432334186 7.500000000000009 2.0000000000000018
    vertex 4.393398282201787 4.393398282201789 2.0000000000000018
  endloop
endfacet
facet normal 0.0 0.0 1.0
  outer loop
    vertex 2.0096189432334217 22.499999999999996 2.0000000000000018
    vertex 4.393398282201787 4.393398282201789 2.0000000000000018
    vertex 4.393398282201787 25.606601717798213 2.0000000000000018
  endloop
endfacet
facet normal 0.0 0.0 1.0
  outer loop
    vertex 4.393398282201787 25.606601717798213 2.0000000000000018
    vertex 4.393398282201787 4.393398282201789 2.0000000000000018
    vertex 5.550339519001771 14.96005473701216 2.0000000000000018
  endloop
endfacet
facet normal 0.0 0.0 1.0
  outer loop
    vertex 5.550339519001771 14.96005473701216 2.0000000000000018
    vertex 4.393398282201787 4.393398282201789 2.0000000000000018
    vertex 5.640740853215896 14.353278956835046 2.0000000000000018
  endloop
endfacet
facet normal 0.0 0.0 1.0
  outer loop
    vertex 5.640740853215896 14.353278956835046 2.0000000000000018
    vertex 4.393398282201787 4.393398282201789 2.0000000000000018
    vertex 7.499999999999995 2.0096189432334244 2.0000000000000018
  endloop
endfacet
facet normal 0.0 0.0 1.0
  outer loop
    vertex 5.640740853215896 14.353278956835046 2.0000000000000018
    vertex 7.499999999999995 2.0096189432334244 2.0000000000000018
    vertex 5.885106964681088 13.790576146992567 2.0000000000000018
  endloop
endfacet
facet normal 0.0 0.0 1.0
  outer loop
    vertex 5.885106964681088 13.790576146992567 2.0000000000000018
    vertex 7.499999999999995 2.0096189432334244 2.0000000000000018
    vertex 6.266784706735085 13.310293574065126 2.0000000000000018
  endloop
endfacet
facet normal 0.0 0.0 1.0
  outer loop
    vertex 6.266784706735085 13.310293574065126 2.0000000000000018
    vertex 7.499999999999995 2.0096189432334244 2.0000000000000018
    vertex 6.7597633720092 12.94516170169325 2.0000000000000018
  endloop
endfacet
facet normal 0.0 0.0 1.0
  outer loop
    vertex 6.7597633720092 12.94516170169325 2.0000000000000018
    vertex 7.499999999999995 2.0096189432334244 2.0000000000000018
    vertex 7.330447279150766 12.720063663570132 2.0000000000000018
  endloop
endfacet
facet normal 0.0 0.0 1.0
  outer loop
    vertex 7.330447279150766 12.720063663570132 2.0000000000000018
    vertex 7.499999999999995 2.0096189432334244 2.0000000000000018
    vertex 7.939945262987834 12.650339519001767 2.0000000000000018
  endloop
endfacet
facet normal 0.0 0.0 1.0
  outer loop
    vertex 7.939945262987834 12.650339519001767 2.0000000000000018
    vertex 7.499999999999995 2.0096189432334244 2.0000000000000018
    vertex 11.117714323462184 0.511112605663982 2.0000000000000018
  endloop
endfacet
facet normal 0.0 0.0 1.0
  outer loop
    vertex 7.939945262987834 12.650339519001767 2.0000000000000018
    vertex 11.117714323462184 0.511112605663982 2.0000000000000018
    vertex 8.54672104316495 12.74074085321589 2.0000000000000018
  endloop
endfacet
facet normal 0.0 0.0 1.0
  outer loop
    vertex 8.54672104316495 12.74074085321589 2.0000000000000018
    vertex 11.117714323462184 0.511112605663982 2.0000000000000018
    vertex 9.10942385300743 12.985106964681082 2.0000000000000018
  endloop
endfacet
facet normal 0.0 0.0 1.0
  outer loop
    vertex 9.10942385300743 12.985106964681082 2.0000000000000018
    vertex 11.117714323462184 0.511112605663982 2.0000000000000018
    vertex 9.589706425934871 13.366784706735078 2.0000000000000018
  endloop
endfacet
facet normal 0.0 0.0 1.0
  outer loop
    vertex 9.589706425934871 13.366784706735078 2.0000000000000018
    vertex 11.117714323462184 0.511112605663982 2.0000000000000018
    vertex 9.954838298306749 13.859763372009194 2.0000000000000018
  endloop
endfacet
facet normal 0.0 0.0 1.0
  outer loop
    vertex 9.954838298306749 13.859763372009194 2.0000000000000018
    vertex 11.117714323462184 0.511112605663982 2.0000000000000018
    vertex 10.179936336429867 14.43044727915076 2.0000000000000018
  endloop
endfacet
facet normal 0.0 0.0 1.0
  outer loop
    vertex 10.179936336429867 14.43044727915076 2.0000000000000018
    vertex 11.117714323462184 0.511112605663982 2.0000000000000018
    vertex 10.24966048099823 15.039945262987828 2.0000000000000018
  endloop
endfacet
facet normal 0.0 0.0 1.0
  outer loop
    vertex 4.393398282201787 25.606601717798213 2.0000000000000018
    vertex 5.620063663570136 15.56955272084923 2.0000000000000018
    vertex 7.5 27.990381056766577 2.0000000000000018
  endloop
endfacet
facet normal 0.0 0.0 1.0
  outer loop
    vertex 5.620063663570136 15.56955272084923 2.0000000000000018
    vertex 4.393398282201787 25.606601717798213 2.0000000000000018
    vertex 5.550339519001771 14.96005473701216 2.0000000000000018
  endloop
endfacet
facet normal 0.0 0.0 1.0
  outer loop
    vertex 7.5 27.990381056766577 2.0000000000000018
    vertex 5.620063663570136 15.56955272084923 2.0000000000000018
    vertex 5.845161701693254 16.140236627990795 2.0000000000000018
  endloop
endfacet
facet normal 0.0 0.0 1.0
  outer loop
    vertex 7.5 27.990381056766577 2.0000000000000018
    vertex 5.845161701693254 16.140236627990795 2.0000000000000018
    vertex 6.21029357406513 16.63321529326491 2.0000000000000018
  endloop
endfacet
facet normal 0.0 0.0 1.0
  outer loop
    vertex 7.5 27.990381056766577 2.0000000000000018
    vertex 6.21029357406513 16.63321529326491 2.0000000000000018
    vertex 6.690576146992573 17.01489303531891 2.0000000000000018
  endloop
endfacet
facet normal 0.0 0.0 1.0
  outer loop
    vertex 7.5 27.990381056766577 2.0000000000000018
    vertex 6.690576146992573 17.01489303531891 2.0000000000000018
    vertex 7.253278956835052 17.2592591467841 2.0000000000000018
  endloop
endfacet
facet normal 0.0 0.0 1.0
  outer loop
    vertex 7.5 27.990381056766577 2.0000000000000018
    vertex 7.253278956835052 17.2592591467841 2.0000000000000018
    vertex 7.860054737012167 17.349660480998224 2.0000000000000018
  endloop
endfacet
facet normal 0.0 0.0 1.0
  outer loop
    vertex 7.5 27.990381056766577 2.0000000000000018
    vertex 7.860054737012167 17.349660480998224 2.0000000000000018
    vertex 11.11771432346219 29.488887394336018 2.0000000000000018
  endloop
endfacet
facet normal 0.0 0.0 1.0
  outer loop
    vertex 11.11771432346219 29.488887394336018 2.0000000000000018
    vertex 7.860054737012167 17.349660480998224 2.0000000000000018
    vertex 8.469552720849236 17.27993633642986 2.0000000000000018
  endloop
endfacet
facet normal 0.0 0.0 1.0
  outer loop
    vertex 11.11771432346219 29.488887394336018 2.0000000000000018
    vertex 8.469552720849236 17.27993633642986 2.0000000000000018
    vertex 9.040236627990803 17.05483829830674 2.0000000000000018
  endloop
endfacet
facet normal 0.0 0.0 1.0
  outer loop
    vertex 11.11771432346219 29.488887394336018 2.0000000000000018
    vertex 9.040236627990803 17.05483829830674 2.0000000000000018
    vertex 9.533215293264917 16.689706425934865 2.0000000000000018
  endloop
endfacet
facet normal 0.0 0.0 1.0
  outer loop
    vertex 11.11771432346219 29.488887394336018 2.0000000000000018
    vertex 9.533215293264917 16.689706425934865 2.0000000000000018
    vertex 9.914893035318915 16.209423853007422 2.0000000000000018
  endloop
endfacet
facet normal 0.0 0.0 1.0
  outer loop
    vertex 11.11771432346219 29.488887394336018 2.0000000000000018
    vertex 9.914893035318915 16.209423853007422 2.0000000000000018
    vertex 10.159259146784105 15.646721043164945 2.0000000000000018
  endloop
endfacet
facet normal 0.0 0.0 1.0
  outer loop
    vertex 11.11771432346219 29.488887394336018 2.0000000000000018
    vertex 10.159259146784105 15.646721043164945 2.0000000000000018
    vertex 10.24966048099823 15.039945262987828 2.0000000000000018
  endloop
endfacet
facet normal 0.0 0.0 1.0
  outer loop
    vertex 11.11771432346219 29.488887394336018 2.0000000000000018
    vertex 10.24966048099823 15.039945262987828 2.0000000000000018
    vertex 11.117714323462184 0.511112605663982 2.0000000000000018
  endloop
endfacet
facet normal 0.0 0.0 1.0
  outer loop
    vertex 11.11771432346219 29.488887394336018 2.0000000000000018
    vertex 11.117714323462184 0.511112605663982 2.0000000000000018
    vertex 15.0 0.0 2.0000000000000018
  endloop
endfacet
facet normal 0.0 0.0 1.0
  outer loop
    vertex 11.11771432346219 29.488887394336018 2.0000000000000018
    vertex 15.0 0.0 2.0000000000000018
    vertex 14.50017446730655 14.98679254499504 2.0000000000000018
  endloop
endfacet
facet normal 0.0 0.0 1.0
  outer loop
    vertex 14.50017446730655 14.98679254499504 2.0000000000000018
    vertex 15.0 0.0 2.0000000000000018
    vertex 14.520623950225321 14.85787821102158 2.0000000000000018
  endloop
endfacet
facet normal 0.0 0.0 1.0
  outer loop
    vertex 14.520623950225321 14.85787821102158 2.0000000000000018
    vertex 15.0 0.0 2.0000000000000018
    vertex 14.57374211872986 14.73864924209964 2.0000000000000018
  endloop
endfacet
facet normal 0.0 0.0 1.0
  outer loop
    vertex 14.57374211872986 14.73864924209964 2.0000000000000018
    vertex 15.0 0.0 2.0000000000000018
    vertex 14.655909057418503 14.637230895426057 2.0000000000000018
  endloop
endfacet
facet normal 0.0 0.0 1.0
  outer loop
    vertex 14.655909057418503 14.637230895426057 2.0000000000000018
    vertex 15.0 0.0 2.0000000000000018
    vertex 14.761525225206904 14.560534663724898 2.0000000000000018
  endloop
endfacet
facet normal 0.0 0.0 1.0
  outer loop
    vertex 14.761525225206904 14.560534663724898 2.0000000000000018
    vertex 15.0 0.0 2.0000000000000018
    vertex 14.883393054799262 14.513787268440083 2.0000000000000018
  endloop
endfacet
facet normal 0.0 0.0 1.0
  outer loop
    vertex 14.883393054799262 14.513787268440083 2.0000000000000018
    vertex 15.0 0.0 2.0000000000000018
    vertex 15.013207455004956 14.500174467306545 2.0000000000000018
  endloop
endfacet
facet normal 0.0 0.0 1.0
  outer loop
    vertex 15.013207455004956 14.500174467306545 2.0000000000000018
    vertex 15.0 0.0 2.0000000000000018
    vertex 18.882285676537805 0.5111126056639707 2.0000000000000018
  endloop
endfacet
facet normal 0.0 0.0 1.0
  outer loop
    vertex 15.013207455004956 14.500174467306545 2.0000000000000018
    vertex 18.882285676537805 0.5111126056639707 2.0000000000000018
    vertex 15.142121788978415 14.520623950225325 2.0000000000000018
  endloop
endfacet
facet normal 0.0 0.0 1.0
  outer loop
    vertex 15.142121788978415 14.520623950225325 2.0000000000000018
    vertex 18.882285676537805 0.5111126056639707 2.0000000000000018
    vertex 15.261350757900356 14.573742118729857 2.0000000000000018
  endloop
endfacet
facet normal 0.0 0.0 1.0
  outer loop
    vertex 15.261350757900356 14.573742118729857 2.0000000000000018
    vertex 18.882285676537805 0.5111126056639707 2.0000000000000018
    vertex 15.362769104573937 14.655909057418498 2.0000000000000018
  endloop
endfacet
facet normal 0.0 0.0 1.0
  outer loop
    vertex 15.362769104573937 14.655909057418498 2.0000000000000018
    vertex 18.882285676537805 0.5111126056639707 2.0000000000000018
    vertex 15.439465336275099 14.7615252252069 2.0000000000000018
  endloop
endfacet
facet normal 0.0 0.0 1.0
  outer loop
    vertex 15.439465336275099 14.7615252252069 2.0000000000000018
    vertex 18.882285676537805 0.5111126056639707 2.0000000000000018
    vertex 15.486212731559911 14.883393054799255 2.0000000000000018
  endloop
endfacet
facet normal 0.0 0.0 1.0
  outer loop
    vertex 15.486212731559911 14.883393054799255 2.0000000000000018
    vertex 18.882285676537805 0.5111126056639707 2.0000000000000018
    vertex 15.499825532693452 15.01320745500495 2.0000000000000018
  endloop
endfacet
facet normal 0.0 0.0 1.0
  outer loop
    vertex 14.50017446730655 14.98679254499504 2.0000000000000018
    vertex 15.0 29.999999999999996 2.0000000000000018
    vertex 11.11771432346219 29.488887394336018 2.0000000000000018
  endloop
endfacet
facet normal 0.0 0.0 1.0
  outer loop
    vertex 15.0 29.999999999999996 2.0000000000000018
    vertex 14.50017446730655 14.98679254499504 2.0000000000000018
    vertex 14.513787268440089 15.116606945200735 2.0000000000000018
  endloop
endfacet
facet normal 0.0 0.0 1.0
  outer loop
    vertex 15.0 29.999999999999996 2.0000000000000018
    vertex 14.513787268440089 15.116606945200735 2.0000000000000018
    vertex 14.560534663724907 15.238474774793092 2.0000000000000018
  endloop
endfacet
facet normal 0.0 0.0 1.0
  outer loop
    vertex 15.0 29.999999999999996 2.0000000000000018
    vertex 14.560534663724907 15.238474774793092 2.0000000000000018
    vertex 14.637230895426065 15.344090942581492 2.0000000000000018
  endloop
endfacet
facet normal 0.0 0.0 1.0
  outer loop
    vertex 15.0 29.999999999999996 2.0000000000000018
    vertex 14.637230895426065 15.344090942581492 2.0000000000000018
    vertex 14.738649242099644 15.426257881270137 2.0000000000000018
  endloop
endfacet
facet normal 0.0 0.0 1.0
  outer loop
    vertex 15.0 29.999999999999996 2.0000000000000018
    vertex 14.738649242099644 15.426257881270137 2.0000000000000018
    vertex 14.857878211021585 15.479376049774672 2.0000000000000018
  endloop
endfacet
facet normal 0.0 0.0 1.0
  outer loop
    vertex 15.0 29.999999999999996 2.0000000000000018
    vertex 14.857878211021585 15.479376049774672 2.0000000000000018
    vertex 14.986792544995046 15.499825532693446 2.0000000000000018
  endloop
endfacet
facet normal 0.0 0.0 1.0
  outer loop
    vertex 15.0 29.999999999999996 2.0000000000000018
    vertex 14.986792544995046 15.499825532693446 2.0000000000000018
    vertex 15.11660694520074 15.486212731559906 2.0000000000000018
  endloop
endfacet
facet normal 0.0 0.0 1.0
  outer loop
    vertex 15.0 29.999999999999996 2.0000000000000018
    vertex 15.11660694520074 15.486212731559906 2.0000000000000018
    vertex 18.882285676537826 29.488887394336015 2.0000000000000018
  endloop
endfacet
facet normal 0.0 0.0 1.0
  outer loop
    vertex 18.882285676537826 29.488887394336015 2.0000000000000018
    vertex 15.11660694520074 15.486212731559906 2.0000000000000018
    vertex 15.238474774793097 15.439465336275088 2.0000000000000018
  endloop
endfacet
facet normal 0.0 0.0 1.0
  outer loop
    vertex 18.882285676537826 29.488887394336015 2.0000000000000018
    vertex 15.238474774793097 15.439465336275088 2.0000000000000018
    vertex 15.344090942581497 15.362769104573932 2.0000000000000018
  endloop
endfacet
facet normal 0.0 0.0 1.0
  outer loop
    vertex 18.882285676537826 29.488887394336015 2.0000000000000018
    vertex 15.344090942581497 15.362769104573932 2.0000000000000018
    vertex 15.426257881270143 15.261350757900349 2.0000000000000018
  endloop
endfacet
facet normal 0.0 0.0 1.0
  outer loop
    vertex 18.882285676537826 29.488887394336015 2.0000000000000018
    vertex 15.426257881270143 15.261350757900349 2.0000000000000018
    vertex 15.479376049774677 15.14212178897841 2.0000000000000018
  endloop
endfacet
facet normal 0.0 0.0 1.0
  outer loop
    vertex 18.882285676537826 29.488887394336015 2.0000000000000018
    vertex 15.479376049774677 15.14212178897841 2.0000000000000018
    vertex 15.499825532693452 15.01320745500495 2.0000000000000018
  endloop
endfacet
facet normal 0.0 0.0 1.0
  outer loop
    vertex 18.882285676537826 29.488887394336015 2.0000000000000018
    vertex 15.499825532693452 15.01320745500495 2.0000000000000018
    vertex 18.882285676537805 0.5111126056639707 2.0000000000000018
  endloop
endfacet
facet normal 0.0 0.0 1.0
  outer loop
    vertex 18.882285676537826 29.488887394336015 2.0000000000000018
    vertex 18.882285676537805 0.5111126056639707 2.0000000000000018
    vertex 22.499999999999996 2.0096189432334244 2.0000000000000018
  endloop
endfacet
facet normal 0.0 0.0 1.0
  outer loop
    vertex 18.882285676537826 29.488887394336015 2.0000000000000018
    vertex 22.499999999999996 2.0096189432334244 2.0000000000000018
    vertex 22.500000000000007 27.990381056766573 2.0000000000000018
  endloop
endfacet
facet normal 0.0 0.0 1.0
  outer loop
    vertex 22.500000000000007 27.990381056766573 2.0000000000000018
    vertex 22.499999999999996 2.0096189432334244 2.0000000000000018
    vertex 25.6066017177982 4.393398282201789 2.0000000000000018
  endloop
endfacet
facet normal 0.0 0.0 1.0
  outer loop
    vertex 22.500000000000007 27.990381056766573 2.0000000000000018
    vertex 25.6066017177982 4.393398282201789 2.0000000000000018
    vertex 25.606601717798213 25.606601717798213 2.0000000000000018
  endloop
endfacet
facet normal 0.0 0.0 1.0
  outer loop
    vertex 25.606601717798213 25.606601717798213 2.0000000000000018
    vertex 25.6066017177982 4.393398282201789 2.0000000000000018
    vertex 27.990381056766573 7.499999999999997 2.0000000000000018
  endloop
endfacet
facet normal 0.0 0.0 1.0
  outer loop
    vertex 25.606601717798213 25.606601717798213 2.0000000000000018
    vertex 27.990381056766573 7.499999999999997 2.0000000000000018
    vertex 27.990381056766584 22.499999999999986 2.0000000000000018
  endloop
endfacet
facet normal 0.0 0.0 1.0
  outer loop
    vertex 27.990381056766584 22.499999999999986 2.0000000000000018
    vertex 27.990381056766573 7.499999999999997 2.0000000000000018
    vertex 29.488887394336018 11.117714323462176 2.0000000000000018
  endloop
endfacet
facet normal 0.0 0.0 1.0
  outer loop
    vertex 27.990381056766584 22.499999999999986 2.0000000000000018
    vertex 29.488887394336018 11.117714323462176 2.0000000000000018
    vertex 29.488887394336025 18.8822856765378 2.0000000000000018
  endloop
endfacet
facet normal 0.0 0.0 1.0
  outer loop
    vertex 29.488887394336025 18.8822856765378 2.0000000000000018
    vertex 29.488887394336018 11.117714323462176 2.0000000000000018
    vertex 29.999999999999996 14.99999999999999 2.0000000000000018
  endloop
endfacet
facet normal 0.8660254037844389 0.49999999999999956 0.0
  outer loop
    vertex 27.990381056766584 22.499999999999986 0.0
    vertex 29.488887394336025 18.8822856765378 2.0000000000000018
    vertex 29.488887394336025 18.8822856765378 0.0
  endloop
endfacet
facet normal 0.9659258262890684 0.2588190451025201 0.0
  outer loop
    vertex 29.488887394336025 18.8822856765378 2.0000000000000018
    vertex 27.990381056766584 22.499999999999986 0.0
    vertex 27.990381056766584 22.499999999999986 2.0000000000000018
  endloop
endfacet
facet normal -0.7071067811865477 0.7071067811865474 0.0
  outer loop
    vertex 4.393398282201787 25.606601717798213 2.0000000000000018
    vertex 7.5 27.990381056766577 0.0
    vertex 4.393398282201787 25.606601717798213 0.0
  endloop
endfacet
facet normal -0.4999999999999998 0.8660254037844388 0.0
  outer loop
    vertex 7.5 27.990381056766577 0.0
    vertex 4.393398282201787 25.606601717798213 2.0000000000000018
    vertex 7.5 27.990381056766577 2.0000000000000018
  endloop
endfacet
facet normal -0.7071067811865477 0.7071067811865474 0.0
  outer loop
    vertex 4.393398282201787 25.606601717798213 2.0000000000000018
    vertex 2.0096189432334217 22.499999999999996 0.0
    vertex 2.0096189432334217 22.499999999999996 2.0000000000000018
  endloop
endfacet
facet normal -0.8660254037844388 0.49999999999999994 0.0
  outer loop
    vertex 2.0096189432334217 22.499999999999996 0.0
    vertex 4.393398282201787 25.606601717798213 2.0000000000000018
    vertex 4.393398282201787 25.606601717798213 0.0
  endloop
endfacet
facet normal -0.9659258262890682 0.2588190451025209 0.0
  outer loop
    vertex 0.5111126056639763 18.88228567653781 2.0000000000000018
    vertex 0.0 14.999999999999995 0.0
    vertex 0.0 14.999999999999995 2.0000000000000018
  endloop
endfacet
facet normal -1.0 -2.7624440676505406e-16 0.0
  outer loop
    vertex 0.0 14.999999999999995 0.0
    vertex 0.5111126056639763 18.88228567653781 2.0000000000000018
    vertex 0.5111126056639763 18.88228567653781 0.0
  endloop
endfacet
facet normal -0.8660254037844388 0.49999999999999994 0.0
  outer loop
    vertex 2.0096189432334217 22.499999999999996 2.0000000000000018
    vertex 0.5111126056639763 18.88228567653781 0.0
    vertex 0.5111126056639763 18.88228567653781 2.0000000000000018
  endloop
endfacet
facet normal -0.9659258262890682 0.2588190451025209 0.0
  outer loop
    vertex 0.5111126056639763 18.88228567653781 0.0
    vertex 2.0096189432334217 22.499999999999996 2.0000000000000018
    vertex 2.0096189432334217 22.499999999999996 0.0
  endloop
endfacet
facet normal -1.0 -2.7624440676505406e-16 0.0
  outer loop
    vertex 0.0 14.999999999999995 2.0000000000000018
    vertex 0.5111126056639763 11.117714323462199 0.0
    vertex 0.5111126056639763 11.117714323462199 2.0000000000000018
  endloop
endfacet
facet normal -0.9659258262890683 -0.25881904510252074 0.0
  outer loop
    vertex 0.5111126056639763 11.117714323462199 0.0
    vertex 0.0 14.999999999999995 2.0000000000000018
    vertex 0.0 14.999999999999995 0.0
  endloop
endfacet
facet normal -1.2831998249731543e-15 -1.0 0.0
  outer loop
    vertex 15.0 0.0 2.0000000000000018
    vertex 11.117714323462184 0.511112605663982 0.0
    vertex 15.0 0.0 0.0
  endloop
endfacet
facet normal -0.25881904510252113 -0.9659258262890683 0.0
  outer loop
    vertex 11.117714323462184 0.511112605663982 0.0
    vertex 15.0 0.0 2.0000000000000018
    vertex 11.117714323462184 0.511112605663982 2.0000000000000018
  endloop
endfacet
facet normal 0.25881904510252113 -0.9659258262890681 0.0
  outer loop
    vertex 18.882285676537805 0.5111126056639707 2.0000000000000018
    vertex 15.0 0.0 0.0
    vertex 18.882285676537805 0.5111126056639707 0.0
  endloop
endfacet
facet normal -1.2831998249731543e-15 -1.0 0.0
  outer loop
    vertex 15.0 0.0 0.0
    vertex 18.882285676537805 0.5111126056639707 2.0000000000000018
    vertex 15.0 0.0 2.0000000000000018
  endloop
endfacet
facet normal 0.5000000000000012 -0.8660254037844379 0.0
  outer loop
    vertex 22.499999999999996 2.0096189432334244 2.0000000000000018
    vertex 18.882285676537805 0.5111126056639707 0.0
    vertex 22.499999999999996 2.0096189432334244 0.0
  endloop
endfacet
facet normal 0.25881904510252113 -0.9659258262890681 0.0
  outer loop
    vertex 18.882285676537805 0.5111126056639707 0.0
    vertex 22.499999999999996 2.0096189432334244 2.0000000000000018
    vertex 18.882285676537805 0.5111126056639707 2.0000000000000018
  endloop
endfacet
facet normal 0.8660254037844378 -0.5000000000000016 0.0
  outer loop
    vertex 27.990381056766573 7.499999999999997 0.0
    vertex 25.6066017177982 4.393398282201789 2.0000000000000018
    vertex 25.6066017177982 4.393398282201789 0.0
  endloop
endfacet
facet normal 0.7071067811865472 -0.7071067811865478 0.0
  outer loop
    vertex 25.6066017177982 4.393398282201789 2.0000000000000018
    vertex 27.990381056766573 7.499999999999997 0.0
    vertex 27.990381056766573 7.499999999999997 2.0000000000000018
  endloop
endfacet
facet normal 0.9659258262890681 -0.2588190451025216 0.0
  outer loop
    vertex 29.488887394336018 11.117714323462176 0.0
    vertex 27.990381056766573 7.499999999999997 2.0000000000000018
    vertex 27.990381056766573 7.499999999999997 0.0
  endloop
endfacet
facet normal 0.8660254037844378 -0.5000000000000016 0.0
  outer loop
    vertex 27.990381056766573 7.499999999999997 2.0000000000000018
    vertex 29.488887394336018 11.117714323462176 0.0
    vertex 29.488887394336018 11.117714323462176 2.0000000000000018
  endloop
endfacet
facet normal 1.0 -6.594221322778709e-16 0.0
  outer loop
    vertex 29.999999999999996 14.99999999999999 0.0
    vertex 29.488887394336018 11.117714323462176 2.0000000000000018
    vertex 29.488887394336018 11.117714323462176 0.0
  endloop
endfacet
facet normal 0.9659258262890681 -0.2588190451025216 0.0
  outer loop
    vertex 29.488887394336018 11.117714323462176 2.0000000000000018
    vertex 29.999999999999996 14.99999999999999 0.0
    vertex 29.999999999999996 14.99999999999999 2.0000000000000018
  endloop
endfacet
facet normal 0.5000000000000001 0.8660254037844386 0.0
  outer loop
    vertex 22.500000000000007 27.990381056766573 2.0000000000000018
    vertex 25.606601717798213 25.606601717798213 0.0
    vertex 22.500000000000007 27.990381056766573 0.0
  endloop
endfacet
facet normal 0.707106781186548 0.7071067811865471 0.0
  outer loop
    vertex 25.606601717798213 25.606601717798213 0.0
    vertex 22.500000000000007 27.990381056766573 2.0000000000000018
    vertex 25.606601717798213 25.606601717798213 2.0000000000000018
  endloop
endfacet
facet normal 0.707106781186548 0.7071067811865471 0.0
  outer loop
    vertex 25.606601717798213 25.606601717798213 0.0
    vertex 27.990381056766584 22.499999999999986 2.0000000000000018
    vertex 27.990381056766584 22.499999999999986 0.0
  endloop
endfacet
facet normal 0.8660254037844389 0.49999999999999956 0.0
  outer loop
    vertex 27.990381056766584 22.499999999999986 2.0000000000000018
    vertex 25.606601717798213 25.606601717798213 0.0
    vertex 25.606601717798213 25.606601717798213 2.0000000000000018
  endloop
endfacet
facet normal 0.25881904510252135 0.965925826289068 0.0
  outer loop
    vertex 18.882285676537826 29.488887394336015 2.0000000000000018
    vertex 22.500000000000007 27.990381056766573 0.0
    vertex 18.882285676537826 29.488887394336015 0.0
  endloop
endfacet
facet normal 0.5000000000000001 0.8660254037844386 0.0
  outer loop
    vertex 22.500000000000007 27.990381056766573 0.0
    vertex 18.882285676537826 29.488887394336015 2.0000000000000018
    vertex 22.500000000000007 27.990381056766573 2.0000000000000018
  endloop
endfacet
facet normal 0.0 0.0 -1.0
  outer loop
    vertex 15.0 29.999999999999996 0.0
    vertex 14.50017446730655 14.98679254499504 4.229949723821846e-15
    vertex 11.11771432346219 29.488887394336018 0.0
  endloop
endfacet
facet normal 0.0 0.0 -1.0
  outer loop
    vertex 14.50017446730655 14.98679254499504 4.229949723821846e-15
    vertex 15.0 29.999999999999996 0.0
    vertex 14.513787268440089 15.116606945200735 4.229949723821846e-15
  endloop
endfacet
facet normal 0.0 0.0 -1.0
  outer loop
    vertex 14.513787268440089 15.116606945200735 4.229949723821846e-15
    vertex 15.0 29.999999999999996 0.0
    vertex 14.560534663724907 15.238474774793092 4.229949723821846e-15
  endloop
endfacet
facet normal 0.0 0.0 -1.0
  outer loop
    vertex 14.560534663724907 15.238474774793092 4.229949723821846e-15
    vertex 15.0 29.999999999999996 0.0
    vertex 14.637230895426065 15.344090942581492 4.229949723821846e-15
  endloop
endfacet
facet normal 0.0 0.0 -1.0
  outer loop
    vertex 14.637230895426065 15.344090942581492 4.229949723821846e-15
    vertex 15.0 29.999999999999996 0.0
    vertex 14.738649242099644 15.426257881270137 4.229949723821846e-15
  endloop
endfacet
facet normal 0.0 0.0 -1.0
  outer loop
    vertex 14.738649242099644 15.426257881270137 4.229949723821846e-15
    vertex 15.0 29.999999999999996 0.0
    vertex 14.857878211021585 15.479376049774672 4.229949723821846e-15
  endloop
endfacet
facet normal 0.0 0.0 -1.0
  outer loop
    vertex 14.857878211021585 15.479376049774672 4.229949723821846e-15
    vertex 15.0 29.999999999999996 0.0
    vertex 14.986792544995046 15.499825532693446 4.229949723821846e-15
  endloop
endfacet
facet normal 0.0 0.0 -1.0
  outer loop
    vertex 14.986792544995046 15.499825532693446 4.229949723821846e-15
    vertex 15.0 29.999999999999996 0.0
    vertex 15.11660694520074 15.486212731559906 4.229949723821846e-15
  endloop
endfacet
facet normal 0.0 0.0 -1.0
  outer loop
    vertex 15.11660694520074 15.486212731559906 4.229949723821846e-15
    vertex 15.0 29.999999999999996 0.0
    vertex 18.882285676537826 29.488887394336015 0.0
  endloop
endfacet
facet normal 0.0 0.0 -1.0
  outer loop
    vertex 15.11660694520074 15.486212731559906 4.229949723821846e-15
    vertex 18.882285676537826 29.488887394336015 0.0
    vertex 15.238474774793097 15.439465336275088 4.229949723821846e-15
  endloop
endfacet
facet normal 0.0 0.0 -1.0
  outer loop
    vertex 15.238474774793097 15.439465336275088 4.229949723821846e-15
    vertex 18.882285676537826 29.488887394336015 0.0
    vertex 15.344090942581497 15.362769104573932 4.229949723821846e-15
  endloop
endfacet
facet normal 0.0 0.0 -1.0
  outer loop
    vertex 15.344090942581497 15.362769104573932 4.229949723821846e-15
    vertex 18.882285676537826 29.488887394336015 0.0
    vertex 15.426257881270143 15.261350757900349 4.229949723821846e-15
  endloop
endfacet
facet normal 0.0 0.0 -1.0
  outer loop
    vertex 15.426257881270143 15.261350757900349 4.229949723821846e-15
    vertex 18.882285676537826 29.488887394336015 0.0
    vertex 15.479376049774677 15.14212178897841 4.229949723821846e-15
  endloop
endfacet
facet normal 0.0 0.0 -1.0
  outer loop
    vertex 15.479376049774677 15.14212178897841 4.229949723821846e-15
    vertex 18.882285676537826 29.488887394336015 0.0
    vertex 15.499825532693452 15.01320745500495 4.229949723821846e-15
  endloop
endfacet
facet normal 0.0 0.0 -1.0
  outer loop
    vertex 15.499825532693452 15.01320745500495 4.229949723821846e-15
    vertex 18.882285676537826 29.488887394336015 0.0
    vertex 18.882285676537805 0.5111126056639707 0.0
  endloop
endfacet
facet normal 0.0 0.0 -1.0
  outer loop
    vertex 18.882285676537805 0.5111126056639707 0.0
    vertex 18.882285676537826 29.488887394336015 0.0
    vertex 22.499999999999996 2.0096189432334244 0.0
  endloop
endfacet
facet normal 0.0 0.0 -1.0
  outer loop
    vertex 22.499999999999996 2.0096189432334244 0.0
    vertex 18.882285676537826 29.488887394336015 0.0
    vertex 22.500000000000007 27.990381056766573 0.0
  endloop
endfacet
facet normal 0.0 0.0 -1.0
  outer loop
    vertex 22.499999999999996 2.0096189432334244 0.0
    vertex 22.500000000000007 27.990381056766573 0.0
    vertex 25.6066017177982 4.393398282201789 0.0
  endloop
endfacet
facet normal 0.0 0.0 -1.0
  outer loop
    vertex 25.6066017177982 4.393398282201789 0.0
    vertex 22.500000000000007 27.990381056766573 0.0
    vertex 25.606601717798213 25.606601717798213 0.0
  endloop
endfacet
facet normal 0.0 0.0 -1.0
  outer loop
    vertex 25.6066017177982 4.393398282201789 0.0
    vertex 25.606601717798213 25.606601717798213 0.0
    vertex 27.990381056766573 7.499999999999997 0.0
  endloop
endfacet
facet normal 0.0 0.0 -1.0
  outer loop
    vertex 27.990381056766573 7.499999999999997 0.0
    vertex 25.606601717798213 25.606601717798213 0.0
    vertex 27.990381056766584 22.499999999999986 0.0
  endloop
endfacet
facet normal 0.0 0.0 -1.0
  outer loop
    vertex 27.990381056766573 7.499999999999997 0.0
    vertex 27.990381056766584 22.499999999999986 0.0
    vertex 29.488887394336018 11.117714323462176 0.0
  endloop
endfacet
facet normal 0.0 0.0 -1.0
  outer loop
    vertex 29.488887394336018 11.117714323462176 0.0
    vertex 27.990381056766584 22.499999999999986 0.0
    vertex 29.488887394336025 18.8822856765378 0.0
  endloop
endfacet
facet normal 0.0 0.0 -1.0
  outer loop
    vertex 29.488887394336018 11.117714323462176 0.0
    vertex 29.488887394336025 18.8822856765378 0.0
    vertex 29.999999999999996 14.99999999999999 0.0
  endloop
endfacet
facet normal 0.0 0.0 -1.0
  outer loop
    vertex 0.5111126056639763 18.88228567653781 0.0
    vertex 0.5111126056639763 11.117714323462199 0.0
    vertex 0.0 14.999999999999995 0.0
  endloop
endfacet
facet normal 0.0 0.0 -1.0
  outer loop
    vertex 0.5111126056639763 11.117714323462199 0.0
    vertex 0.5111126056639763 18.88228567653781 0.0
    vertex 2.0096189432334217 22.499999999999996 0.0
  endloop
endfacet
facet normal 0.0 0.0 -1.0
  outer loop
    vertex 0.5111126056639763 11.117714323462199 0.0
    vertex 2.0096189432334217 22.499999999999996 0.0
    vertex 2.0096189432334186 7.500000000000009 0.0
  endloop
endfacet
facet normal 0.0 0.0 -1.0
  outer loop
    vertex 2.0096189432334186 7.500000000000009 0.0
    vertex 2.0096189432334217 22.499999999999996 0.0
    vertex 4.393398282201787 4.393398282201789 0.0
  endloop
endfacet
facet normal 0.0 0.0 -1.0
  outer loop
    vertex 4.393398282201787 4.393398282201789 0.0
    vertex 2.0096189432334217 22.499999999999996 0.0
    vertex 4.393398282201787 25.606601717798213 0.0
  endloop
endfacet
facet normal 0.0 0.0 -1.0
  outer loop
    vertex 4.393398282201787 4.393398282201789 0.0
    vertex 4.393398282201787 25.606601717798213 0.0
    vertex 7.5 27.990381056766577 0.0
  endloop
endfacet
facet normal 0.0 0.0 -1.0
  outer loop
    vertex 4.393398282201787 4.393398282201789 0.0
    vertex 7.5 27.990381056766577 0.0
    vertex 7.499999999999995 2.0096189432334244 0.0
  endloop
endfacet
facet normal 0.0 0.0 -1.0
  outer loop
    vertex 7.499999999999995 2.0096189432334244 0.0
    vertex 7.5 27.990381056766577 0.0
    vertex 11.117714323462184 0.511112605663982 0.0
  endloop
endfacet
facet normal 0.0 0.0 -1.0
  outer loop
    vertex 11.117714323462184 0.511112605663982 0.0
    vertex 7.5 27.990381056766577 0.0
    vertex 11.11771432346219 29.488887394336018 0.0
  endloop
endfacet
facet normal 0.0 0.0 -1.0
  outer loop
    vertex 11.117714323462184 0.511112605663982 0.0
    vertex 11.11771432346219 29.488887394336018 0.0
    vertex 15.0 0.0 0.0
  endloop
endfacet
facet normal 0.0 0.0 -1.0
  outer loop
    vertex 15.0 0.0 0.0
    vertex 11.11771432346219 29.488887394336018 0.0
    vertex 14.50017446730655 14.98679254499504 4.229949723821846e-15
  endloop
endfacet
facet normal 0.0 0.0 -1.0
  outer loop
    vertex 15.0 0.0 0.0
    vertex 14.50017446730655 14.98679254499504 4.229949723821846e-15
    vertex 14.520623950225321 14.85787821102158 4.229949723821846e-15
  endloop
endfacet
facet normal 0.0 0.0 -1.0
  outer loop
    vertex 15.0 0.0 0.0
    vertex 14.520623950225321 14.85787821102158 4.229949723821846e-15
    vertex 14.57374211872986 14.73864924209964 4.229949723821846e-15
  endloop
endfacet
facet normal 0.0 0.0 -1.0
  outer loop
    vertex 15.0 0.0 0.0
    vertex 14.57374211872986 14.73864924209964 4.229949723821846e-15
    vertex 14.655909057418503 14.637230895426057 4.229949723821846e-15
  endloop
endfacet
facet normal 0.0 0.0 -1.0
  outer loop
    vertex 15.0 0.0 0.0
    vertex 14.655909057418503 14.637230895426057 4.229949723821846e-15
    vertex 14.761525225206904 14.560534663724898 4.229949723821846e-15
  endloop
endfacet
facet normal 0.0 0.0 -1.0
  outer loop
    vertex 15.0 0.0 0.0
    vertex 14.761525225206904 14.560534663724898 4.229949723821846e-15
    vertex 14.883393054799262 14.513787268440083 4.229949723821846e-15
  endloop
endfacet
facet normal 0.0 0.0 -1.0
  outer loop
    vertex 15.0 0.0 0.0
    vertex 14.883393054799262 14.513787268440083 4.229949723821846e-15
    vertex 15.013207455004956 14.500174467306545 4.229949723821846e-15
  endloop
endfacet
facet normal 0.0 0.0 -1.0
  outer loop
    vertex 15.0 0.0 0.0
    vertex 15.013207455004956 14.500174467306545 4.229949723821846e-15
    vertex 18.882285676537805 0.5111126056639707 0.0
  endloop
endfacet
facet normal 0.0 0.0 -1.0
  outer loop
    vertex 18.882285676537805 0.5111126056639707 0.0
    vertex 15.013207455004956 14.500174467306545 4.229949723821846e-15
    vertex 15.142121788978415 14.520623950225325 4.229949723821846e-15
  endloop
endfacet
facet normal 0.0 0.0 -1.0
  outer loop
    vertex 18.882285676537805 0.5111126056639707 0.0
    vertex 15.142121788978415 14.520623950225325 4.229949723821846e-15
    vertex 15.261350757900356 14.573742118729857 4.229949723821846e-15
  endloop
endfacet
facet normal 0.0 0.0 -1.0
  outer loop
    vertex 18.882285676537805 0.5111126056639707 0.0
    vertex 15.261350757900356 14.573742118729857 4.229949723821846e-15
    vertex 15.362769104573937 14.655909057418498 4.229949723821846e-15
  endloop
endfacet
facet normal 0.0 0.0 -1.0
  outer loop
    vertex 18.882285676537805 0.5111126056639707 0.0
    vertex 15.362769104573937 14.655909057418498 4.229949723821846e-15
    vertex 15.439465336275099 14.7615252252069 4.229949723821846e-15
  endloop
endfacet
facet normal 0.0 0.0 -1.0
  outer loop
    vertex 18.882285676537805 0.5111126056639707 0.0
    vertex 15.439465336275099 14.7615252252069 4.229949723821846e-15
    vertex 15.486212731559911 14.883393054799255 4.229949723821846e-15
  endloop
endfacet
facet normal 0.0 0.0 -1.0
  outer loop
    vertex 18.882285676537805 0.5111126056639707 0.0
    vertex 15.486212731559911 14.883393054799255 4.229949723821846e-15
    vertex 15.499825532693452 15.01320745500495 4.229949723821846e-15
  endloop
endfacet
facet normal -0.2332138904014896 -0.9724254631198228 0.0
  outer loop
    vertex 15.11660694520074 15.486212731559906 2.0000000000000018
    vertex 14.986792544995046 15.499825532693446 4.229949723821846e-15
    vertex 15.11660694520074 15.486212731559906 4.229949723821846e-15
  endloop
endfacet
facet normal 0.026414910009913844 -0.9996510653869021 0.0
  outer loop
    vertex 14.986792544995046 15.499825532693446 4.229949723821846e-15
    vertex 15.11660694520074 15.486212731559906 2.0000000000000018
    vertex 14.986792544995046 15.499825532693446 2.0000000000000018
  endloop
endfacet
facet normal 0.026414910009913844 -0.9996510653869021 0.0
  outer loop
    vertex 14.986792544995046 15.499825532693446 2.0000000000000018
    vertex 14.857878211021585 15.479376049774672 4.229949723821846e-15
    vertex 14.986792544995046 15.499825532693446 4.229949723821846e-15
  endloop
endfacet
facet normal 0.2842435779568198 -0.9587520995493597 0.0
  outer loop
    vertex 14.857878211021585 15.479376049774672 4.229949723821846e-15
    vertex 14.986792544995046 15.499825532693446 2.0000000000000018
    vertex 14.857878211021585 15.479376049774672 2.0000000000000018
  endloop
endfacet
facet normal 0.2842435779568198 -0.9587520995493597 0.0
  outer loop
    vertex 14.857878211021585 15.479376049774672 2.0000000000000018
    vertex 14.738649242099644 15.426257881270137 4.229949723821846e-15
    vertex 14.857878211021585 15.479376049774672 4.229949723821846e-15
  endloop
endfacet
facet normal 0.5227015158007103 -0.8525157625402827 0.0
  outer loop
    vertex 14.738649242099644 15.426257881270137 4.229949723821846e-15
    vertex 14.857878211021585 15.479376049774672 2.0000000000000018
    vertex 14.738649242099644 15.426257881270137 2.0000000000000018
  endloop
endfacet
facet normal 0.5227015158007103 -0.8525157625402827 0.0
  outer loop
    vertex 14.738649242099644 15.426257881270137 2.0000000000000018
    vertex 14.637230895426065 15.344090942581492 4.229949723821846e-15
    vertex 14.738649242099644 15.426257881270137 4.229949723821846e-15
  endloop
endfacet
facet normal 0.7255382091478801 -0.6881818851629903 0.0
  outer loop
    vertex 14.637230895426065 15.344090942581492 4.229949723821846e-15
    vertex 14.738649242099644 15.426257881270137 2.0000000000000018
    vertex 14.637230895426065 15.344090942581492 2.0000000000000018
  endloop
endfacet
facet normal 0.7255382091478801 -0.6881818851629903 0.0
  outer loop
    vertex 14.637230895426065 15.344090942581492 4.229949723821846e-15
    vertex 14.560534663724907 15.238474774793092 2.0000000000000018
    vertex 14.560534663724907 15.238474774793092 4.229949723821846e-15
  endloop
endfacet
facet normal 0.8789306725501904 -0.4769495495861902 0.0
  outer loop
    vertex 14.560534663724907 15.238474774793092 2.0000000000000018
    vertex 14.637230895426065 15.344090942581492 4.229949723821846e-15
    vertex 14.637230895426065 15.344090942581492 2.0000000000000018
  endloop
endfacet
facet normal 0.8789306725501904 -0.4769495495861902 0.0
  outer loop
    vertex 14.560534663724907 15.238474774793092 4.229949723821846e-15
    vertex 14.513787268440089 15.116606945200735 2.0000000000000018
    vertex 14.513787268440089 15.116606945200735 4.229949723821846e-15
  endloop
endfacet
facet normal 0.9724254631198254 -0.23321389040147983 0.0
  outer loop
    vertex 14.513787268440089 15.116606945200735 2.0000000000000018
    vertex 14.560534663724907 15.238474774793092 4.229949723821846e-15
    vertex 14.560534663724907 15.238474774793092 2.0000000000000018
  endloop
endfacet
facet normal 0.9724254631198254 -0.23321389040147983 0.0
  outer loop
    vertex 14.513787268440089 15.116606945200735 4.229949723821846e-15
    vertex 14.50017446730655 14.98679254499504 2.0000000000000018
    vertex 14.50017446730655 14.98679254499504 4.229949723821846e-15
  endloop
endfacet
facet normal 0.9996510653869023 0.026414910009903182 0.0
  outer loop
    vertex 14.50017446730655 14.98679254499504 2.0000000000000018
    vertex 14.513787268440089 15.116606945200735 4.229949723821846e-15
    vertex 14.513787268440089 15.116606945200735 2.0000000000000018
  endloop
endfacet
facet normal 0.9996510653869023 0.026414910009903182 0.0
  outer loop
    vertex 14.50017446730655 14.98679254499504 4.229949723821846e-15
    vertex 14.520623950225321 14.85787821102158 2.0000000000000018
    vertex 14.520623950225321 14.85787821102158 4.229949723821846e-15
  endloop
endfacet
facet normal 0.9587520995493558 0.2842435779568328 0.0
  outer loop
    vertex 14.520623950225321 14.85787821102158 2.0000000000000018
    vertex 14.50017446730655 14.98679254499504 4.229949723821846e-15
    vertex 14.50017446730655 14.98679254499504 2.0000000000000018
  endloop
endfacet
facet normal 0.9587520995493558 0.2842435779568328 0.0
  outer loop
    vertex 14.520623950225321 14.85787821102158 4.229949723821846e-15
    vertex 14.57374211872986 14.73864924209964 2.0000000000000018
    vertex 14.57374211872986 14.73864924209964 4.229949723821846e-15
  endloop
endfacet
facet normal 0.8525157625402782 0.522701515800718 0.0
  outer loop
    vertex 14.57374211872986 14.73864924209964 2.0000000000000018
    vertex 14.520623950225321 14.85787821102158 4.229949723821846e-15
    vertex 14.520623950225321 14.85787821102158 2.0000000000000018
  endloop
endfacet
facet normal 0.8525157625402782 0.522701515800718 0.0
  outer loop
    vertex 14.57374211872986 14.73864924209964 4.229949723821846e-15
    vertex 14.655909057418503 14.637230895426057 2.0000000000000018
    vertex 14.655909057418503 14.637230895426057 4.229949723821846e-15
  endloop
endfacet
facet normal 0.6881818851630076 0.7255382091478636 0.0
  outer loop
    vertex 14.655909057418503 14.637230895426057 2.0000000000000018
    vertex 14.57374211872986 14.73864924209964 4.229949723821846e-15
    vertex 14.57374211872986 14.73864924209964 2.0000000000000018
  endloop
endfacet
facet normal 0.6881818851630076 0.7255382091478636 0.0
  outer loop
    vertex 14.655909057418503 14.637230895426057 2.0000000000000018
    vertex 14.761525225206904 14.560534663724898 4.229949723821846e-15
    vertex 14.655909057418503 14.637230895426057 4.229949723821846e-15
  endloop
endfacet
facet normal 0.476949549586189 0.8789306725501912 0.0
  outer loop
    vertex 14.761525225206904 14.560534663724898 4.229949723821846e-15
    vertex 14.655909057418503 14.637230895426057 2.0000000000000018
    vertex 14.761525225206904 14.560534663724898 2.0000000000000018
  endloop
endfacet
facet normal 0.476949549586189 0.8789306725501912 0.0
  outer loop
    vertex 14.761525225206904 14.560534663724898 2.0000000000000018
    vertex 14.883393054799262 14.513787268440083 4.229949723821846e-15
    vertex 14.761525225206904 14.560534663724898 4.229949723821846e-15
  endloop
endfacet
facet normal 0.23321389040146995 0.9724254631198276 0.0
  outer loop
    vertex 14.883393054799262 14.513787268440083 4.229949723821846e-15
    vertex 14.761525225206904 14.560534663724898 2.0000000000000018
    vertex 14.883393054799262 14.513787268440083 2.0000000000000018
  endloop
endfacet
facet normal 0.23321389040146995 0.9724254631198276 0.0
  outer loop
    vertex 14.883393054799262 14.513787268440083 2.0000000000000018
    vertex 15.013207455004956 14.500174467306545 4.229949723821846e-15
    vertex 14.883393054799262 14.513787268440083 4.229949723821846e-15
  endloop
endfacet
facet normal -0.026414910009935157 0.9996510653869013 0.0
  outer loop
    vertex 15.013207455004956 14.500174467306545 4.229949723821846e-15
    vertex 14.883393054799262 14.513787268440083 2.0000000000000018
    vertex 15.013207455004956 14.500174467306545 2.0000000000000018
  endloop
endfacet
facet normal -0.026414910009935157 0.9996510653869013 0.0
  outer loop
    vertex 15.013207455004956 14.500174467306545 2.0000000000000018
    vertex 15.142121788978415 14.520623950225325 4.229949723821846e-15
    vertex 15.013207455004956 14.500174467306545 4.229949723821846e-15
  endloop
endfacet
facet normal -0.28424357795684463 0.9587520995493525 0.0
  outer loop
    vertex 15.142121788978415 14.520623950225325 4.229949723821846e-15
    vertex 15.013207455004956 14.500174467306545 2.0000000000000018
    vertex 15.142121788978415 14.520623950225325 2.0000000000000018
  endloop
endfacet
facet normal -0.28424357795684463 0.9587520995493525 0.0
  outer loop
    vertex 15.142121788978415 14.520623950225325 2.0000000000000018
    vertex 15.261350757900356 14.573742118729857 4.229949723821846e-15
    vertex 15.142121788978415 14.520623950225325 4.229949723821846e-15
  endloop
endfacet
facet normal -0.5227015158006942 0.8525157625402928 0.0
  outer loop
    vertex 15.261350757900356 14.573742118729857 4.229949723821846e-15
    vertex 15.142121788978415 14.520623950225325 2.0000000000000018
    vertex 15.261350757900356 14.573742118729857 2.0000000000000018
  endloop
endfacet
facet normal -0.5227015158006942 0.8525157625402928 0.0
  outer loop
    vertex 15.261350757900356 14.573742118729857 2.0000000000000018
    vertex 15.362769104573937 14.655909057418498 4.229949723821846e-15
    vertex 15.261350757900356 14.573742118729857 4.229949723821846e-15
  endloop
endfacet
facet normal -0.7255382091478578 0.6881818851630137 0.0
  outer loop
    vertex 15.362769104573937 14.655909057418498 4.229949723821846e-15
    vertex 15.261350757900356 14.573742118729857 2.0000000000000018
    vertex 15.362769104573937 14.655909057418498 2.0000000000000018
  endloop
endfacet
facet normal -0.8789306725501912 0.476949549586189 0.0
  outer loop
    vertex 15.439465336275099 14.7615252252069 2.0000000000000018
    vertex 15.362769104573937 14.655909057418498 4.229949723821846e-15
    vertex 15.362769104573937 14.655909057418498 2.0000000000000018
  endloop
endfacet
facet normal -0.7255382091478578 0.6881818851630137 0.0
  outer loop
    vertex 15.362769104573937 14.655909057418498 4.229949723821846e-15
    vertex 15.439465336275099 14.7615252252069 2.0000000000000018
    vertex 15.439465336275099 14.7615252252069 4.229949723821846e-15
  endloop
endfacet
facet normal -0.9724254631198276 0.23321389040146995 0.0
  outer loop
    vertex 15.486212731559911 14.883393054799255 2.0000000000000018
    vertex 15.439465336275099 14.7615252252069 4.229949723821846e-15
    vertex 15.439465336275099 14.7615252252069 2.0000000000000018
  endloop
endfacet
facet normal -0.8789306725501912 0.476949549586189 0.0
  outer loop
    vertex 15.439465336275099 14.7615252252069 4.229949723821846e-15
    vertex 15.486212731559911 14.883393054799255 2.0000000000000018
    vertex 15.486212731559911 14.883393054799255 4.229949723821846e-15
  endloop
endfacet
facet normal -0.9996510653869021 -0.026414910009913844 0.0
  outer loop
    vertex 15.499825532693452 15.01320745500495 2.0000000000000018
    vertex 15.486212731559911 14.883393054799255 4.229949723821846e-15
    vertex 15.486212731559911 14.883393054799255 2.0000000000000018
  endloop
endfacet
facet normal -0.9724254631198276 0.23321389040146995 0.0
  outer loop
    vertex 15.486212731559911 14.883393054799255 4.229949723821846e-15
    vertex 15.499825532693452 15.01320745500495 2.0000000000000018
    vertex 15.499825532693452 15.01320745500495 4.229949723821846e-15
  endloop
endfacet
facet normal -0.9587520995493585 -0.2842435779568241 0.0
  outer loop
    vertex 15.479376049774677 15.14212178897841 2.0000000000000018
    vertex 15.499825532693452 15.01320745500495 4.229949723821846e-15
    vertex 15.499825532693452 15.01320745500495 2.0000000000000018
  endloop
endfacet
facet normal -0.9996510653869021 -0.026414910009913844 0.0
  outer loop
    vertex 15.499825532693452 15.01320745500495 4.229949723821846e-15
    vertex 15.479376049774677 15.14212178897841 2.0000000000000018
    vertex 15.479376049774677 15.14212178897841 4.229949723821846e-15
  endloop
endfacet
facet normal -0.8525157625402839 -0.5227015158007083 0.0
  outer loop
    vertex 15.426257881270143 15.261350757900349 2.0000000000000018
    vertex 15.479376049774677 15.14212178897841 4.229949723821846e-15
    vertex 15.479376049774677 15.14212178897841 2.0000000000000018
  endloop
endfacet
facet normal -0.9587520995493585 -0.2842435779568241 0.0
  outer loop
    vertex 15.479376049774677 15.14212178897841 4.229949723821846e-15
    vertex 15.426257881270143 15.261350757900349 2.0000000000000018
    vertex 15.426257881270143 15.261350757900349 4.229949723821846e-15
  endloop
endfacet
facet normal -0.6881818851629888 -0.7255382091478814 0.0
  outer loop
    vertex 15.344090942581497 15.362769104573932 2.0000000000000018
    vertex 15.426257881270143 15.261350757900349 4.229949723821846e-15
    vertex 15.426257881270143 15.261350757900349 2.0000000000000018
  endloop
endfacet
facet normal -0.8525157625402839 -0.5227015158007083 0.0
  outer loop
    vertex 15.426257881270143 15.261350757900349 4.229949723821846e-15
    vertex 15.344090942581497 15.362769104573932 2.0000000000000018
    vertex 15.344090942581497 15.362769104573932 4.229949723821846e-15
  endloop
endfacet
facet normal -0.6881818851629888 -0.7255382091478814 0.0
  outer loop
    vertex 15.344090942581497 15.362769104573932 2.0000000000000018
    vertex 15.238474774793097 15.439465336275088 4.229949723821846e-15
    vertex 15.344090942581497 15.362769104573932 4.229949723821846e-15
  endloop
endfacet
facet normal -0.47694954958619146 -0.8789306725501899 0.0
  outer loop
    vertex 15.238474774793097 15.439465336275088 4.229949723821846e-15
    vertex 15.344090942581497 15.362769104573932 2.0000000000000018
    vertex 15.238474774793097 15.439465336275088 2.0000000000000018
  endloop
endfacet
facet normal -0.47694954958619146 -0.8789306725501899 0.0
  outer loop
    vertex 15.238474774793097 15.439465336275088 2.0000000000000018
    vertex 15.11660694520074 15.486212731559906 4.229949723821846e-15
    vertex 15.238474774793097 15.439465336275088 4.229949723821846e-15
  endloop
endfacet
facet normal -0.2332138904014896 -0.9724254631198228 0.0
  outer loop
    vertex 15.11660694520074 15.486212731559906 4.229949723821846e-15
    vertex 15.238474774793097 15.439465336275088 2.0000000000000018
    vertex 15.11660694520074 15.486212731559906 2.0000000000000018
  endloop
endfacet
endsolid Rueda interna
