solid Base
facet normal -1.0 0.0 0.0
  outer loop
    vertex 0.0 59.99999999999999 8.8
    vertex 8.950713810480778e-18 0.0 0.0
    vertex 0.0 0.0 8.8
  endloop
endfacet
facet normal -1.0 0.0 0.0
  outer loop
    vertex 8.950713810480778e-18 0.0 0.0
    vertex 0.0 59.99999999999999 8.8
    vertex 8.950713810480778e-18 59.99999999999999 0.0
  endloop
endfacet
facet normal 1.0 0.0 0.0
  outer loop
    vertex 200.0 0.0 0.0
    vertex 200.0 15.00000000000004 1.9999999999999998
    vertex 200.0 0.0 8.8
  endloop
endfacet
facet normal 1.0 0.0 0.0
  outer loop
    vertex 200.0 15.00000000000004 1.9999999999999998
    vertex 200.0 0.0 0.0
    vertex 200.0 26.000000000000032 0.9999999999999968
  endloop
endfacet
facet normal 1.0 0.0 0.0
  outer loop
    vertex 200.0 26.000000000000032 0.9999999999999968
    vertex 200.0 0.0 0.0
    vertex 200.0 59.99999999999999 0.0
  endloop
endfacet
facet normal 1.0 0.0 0.0
  outer loop
    vertex 200.0 26.000000000000032 0.9999999999999968
    vertex 200.0 59.99999999999999 0.0
    vertex 200.0 30.000000000000053 0.9999999999999969
  endloop
endfacet
facet normal 1.0 0.0 0.0
  outer loop
    vertex 200.0 30.000000000000053 0.9999999999999969
    vertex 200.0 59.99999999999999 0.0
    vertex 200.0 30.000000000000053 1.9999999999999971
  endloop
endfacet
facet normal 1.0 0.0 0.0
  outer loop
    vertex 200.0 30.000000000000053 1.9999999999999971
    vertex 200.0 59.99999999999999 0.0
    vertex 200.0 41.00000000000003 1.999999999999998
  endloop
endfacet
facet normal 1.0 0.0 0.0
  outer loop
    vertex 200.0 41.00000000000003 1.999999999999998
    vertex 200.0 59.99999999999999 0.0
    vertex 200.0 41.00000000000003 8.799999999999997
  endloop
endfacet
facet normal 1.0 0.0 0.0
  outer loop
    vertex 200.0 41.00000000000003 8.799999999999997
    vertex 200.0 59.99999999999999 0.0
    vertex 200.0 59.99999999999999 8.8
  endloop
endfacet
facet normal 1.0 0.0 0.0
  outer loop
    vertex 200.0 26.000000000000032 1.9999999999999962
    vertex 200.0 15.00000000000004 1.9999999999999998
    vertex 200.0 26.000000000000032 0.9999999999999968
  endloop
endfacet
facet normal 1.0 0.0 0.0
  outer loop
    vertex 200.0 15.00000000000004 8.8
    vertex 200.0 0.0 8.8
    vertex 200.0 15.00000000000004 1.9999999999999998
  endloop
endfacet
facet normal 7.049916206369708e-16 -9.399888275159649e-16 1.0
  outer loop
    vertex 104.00000000000003 10.000000000000027 6.499999999999982
    vertex 96.0 13.000000000000039 6.499999999999991
    vertex 95.99999999999999 10.000000000000027 6.4999999999999885
  endloop
endfacet
facet normal 7.049916206369708e-16 -9.399888275159649e-16 1.0
  outer loop
    vertex 96.0 13.000000000000039 6.499999999999991
    vertex 104.00000000000003 10.000000000000027 6.499999999999982
    vertex 104.00000000000003 13.000000000000039 6.499999999999985
  endloop
endfacet
facet normal 0.0 0.0 -1.0
  outer loop
    vertex 200.0 59.99999999999999 0.0
    vertex 8.950713810480778e-18 0.0 0.0
    vertex 8.950713810480778e-18 59.99999999999999 0.0
  endloop
endfacet
facet normal 0.0 0.0 -1.0
  outer loop
    vertex 8.950713810480778e-18 0.0 0.0
    vertex 200.0 59.99999999999999 0.0
    vertex 49.36611152031705 7.506164269655146 2.8199664825478975e-15
  endloop
endfacet
facet normal 0.0 0.0 -1.0
  outer loop
    vertex 8.950713810480778e-18 0.0 0.0
    vertex 49.36611152031705 7.506164269655146 2.8199664825478975e-15
    vertex 49.25721915018507 7.434195258389832 2.8199664825478975e-15
  endloop
endfacet
facet normal 0.0 0.0 -1.0
  outer loop
    vertex 8.950713810480778e-18 0.0 0.0
    vertex 49.25721915018507 7.434195258389832 2.8199664825478975e-15
    vertex 49.17066414836143 7.336495112459668 2.8199664825478975e-15
  endloop
endfacet
facet normal 0.0 0.0 -1.0
  outer loop
    vertex 8.950713810480778e-18 0.0 0.0
    vertex 49.17066414836143 7.336495112459668 2.8199664825478975e-15
    vertex 49.112345095181496 7.21972193535267 2.8199664825478975e-15
  endloop
endfacet
facet normal 0.0 0.0 -1.0
  outer loop
    vertex 8.950713810480778e-18 0.0 0.0
    vertex 49.112345095181496 7.21972193535267 2.8199664825478975e-15
    vertex 49.086236337742704 7.091833626111879 2.8199664825478975e-15
  endloop
endfacet
facet normal 0.0 0.0 -1.0
  outer loop
    vertex 49.36611152031705 7.506164269655146 2.8199664825478975e-15
    vertex 200.0 59.99999999999999 0.0
    vertex 49.48992042368601 7.547497577072295 2.8199664825478975e-15
  endloop
endfacet
facet normal 0.0 0.0 -1.0
  outer loop
    vertex 49.48992042368601 7.547497577072295 2.8199664825478975e-15
    vertex 200.0 59.99999999999999 0.0
    vertex 49.62020848813126 7.555378384047319 2.8199664825478975e-15
  endloop
endfacet
facet normal 0.0 0.0 -1.0
  outer loop
    vertex 49.62020848813126 7.555378384047319 2.8199664825478975e-15
    vertex 200.0 59.99999999999999 0.0
    vertex 49.74809679737204 7.529269626608519 2.8199664825478975e-15
  endloop
endfacet
facet normal 0.0 0.0 -1.0
  outer loop
    vertex 49.74809679737204 7.529269626608519 2.8199664825478975e-15
    vertex 200.0 59.99999999999999 0.0
    vertex 49.86486997447904 7.470950573428589 2.8199664825478975e-15
  endloop
endfacet
facet normal 0.0 0.0 -1.0
  outer loop
    vertex 49.86486997447904 7.470950573428589 2.8199664825478975e-15
    vertex 200.0 59.99999999999999 0.0
    vertex 49.96257012040921 7.384395571604948 2.8199664825478975e-15
  endloop
endfacet
facet normal 0.0 0.0 -1.0
  outer loop
    vertex 49.96257012040921 7.384395571604948 2.8199664825478975e-15
    vertex 200.0 59.99999999999999 0.0
    vertex 50.03453913167453 7.275503201472973 2.8199664825478975e-15
  endloop
endfacet
facet normal 0.0 0.0 -1.0
  outer loop
    vertex 50.03453913167453 7.275503201472973 2.8199664825478975e-15
    vertex 200.0 59.99999999999999 0.0
    vertex 50.075872439091675 7.151694298104009 2.8199664825478975e-15
  endloop
endfacet
facet normal 0.0 0.0 -1.0
  outer loop
    vertex 50.075872439091675 7.151694298104009 2.8199664825478975e-15
    vertex 200.0 59.99999999999999 0.0
    vertex 50.0837532460667 7.021406233658765 2.8199664825478975e-15
  endloop
endfacet
facet normal 0.0 0.0 -1.0
  outer loop
    vertex 50.0837532460667 7.021406233658765 2.8199664825478975e-15
    vertex 200.0 59.99999999999999 0.0
    vertex 151.2135185917397 7.251574141976184 4.93494134445882e-15
  endloop
endfacet
facet normal 0.0 0.0 -1.0
  outer loop
    vertex 50.0837532460667 7.021406233658765 2.8199664825478975e-15
    vertex 151.2135185917397 7.251574141976184 4.93494134445882e-15
    vertex 151.1292395385285 7.151904045932851 4.93494134445882e-15
  endloop
endfacet
facet normal 0.0 0.0 -1.0
  outer loop
    vertex 50.0837532460667 7.021406233658765 2.8199664825478975e-15
    vertex 151.1292395385285 7.151904045932851 4.93494134445882e-15
    vertex 151.07362874349982 7.033817101981614 4.93494134445882e-15
  endloop
endfacet
facet normal 0.0 0.0 -1.0
  outer loop
    vertex 50.0837532460667 7.021406233658765 2.8199664825478975e-15
    vertex 151.07362874349982 7.033817101981614 4.93494134445882e-15
    vertex 151.05047599043365 6.905360740204846 4.93494134445882e-15
  endloop
endfacet
facet normal 0.0 0.0 -1.0
  outer loop
    vertex 151.2135185917397 7.251574141976184 4.93494134445882e-15
    vertex 200.0 59.99999999999999 0.0
    vertex 151.32072242493481 7.326035037778879 4.93494134445882e-15
  endloop
endfacet
facet normal 0.0 0.0 -1.0
  outer loop
    vertex 151.32072242493481 7.326035037778879 4.93494134445882e-15
    vertex 200.0 59.99999999999999 0.0
    vertex 151.4435452740443 7.370212346344432 4.93494134445882e-15
  endloop
endfacet
facet normal 0.0 0.0 -1.0
  outer loop
    vertex 151.4435452740443 7.370212346344432 4.93494134445882e-15
    vertex 200.0 59.99999999999999 0.0
    vertex 151.5736169648757 7.381095457100556 4.93494134445882e-15
  endloop
endfacet
facet normal 0.0 0.0 -1.0
  outer loop
    vertex 151.5736169648757 7.381095457100556 4.93494134445882e-15
    vertex 200.0 59.99999999999999 0.0
    vertex 151.70207332665245 7.357942704034409 4.93494134445882e-15
  endloop
endfacet
facet normal 0.0 0.0 -1.0
  outer loop
    vertex 151.70207332665245 7.357942704034409 4.93494134445882e-15
    vertex 200.0 59.99999999999999 0.0
    vertex 151.8201602706037 7.302331909005718 4.93494134445882e-15
  endloop
endfacet
facet normal 0.0 0.0 -1.0
  outer loop
    vertex 151.8201602706037 7.302331909005718 4.93494134445882e-15
    vertex 200.0 59.99999999999999 0.0
    vertex 151.91983036664703 7.218052855794504 4.93494134445882e-15
  endloop
endfacet
facet normal 0.0 0.0 -1.0
  outer loop
    vertex 151.91983036664703 7.218052855794504 4.93494134445882e-15
    vertex 200.0 59.99999999999999 0.0
    vertex 151.99429126244974 7.110849022599389 4.93494134445882e-15
  endloop
endfacet
facet normal 0.0 0.0 -1.0
  outer loop
    vertex 151.99429126244974 7.110849022599389 4.93494134445882e-15
    vertex 200.0 59.99999999999999 0.0
    vertex 152.03846857101527 6.988026173489911 4.93494134445882e-15
  endloop
endfacet
facet normal 0.0 0.0 -1.0
  outer loop
    vertex 152.03846857101527 6.988026173489911 4.93494134445882e-15
    vertex 200.0 59.99999999999999 0.0
    vertex 152.0493516817714 6.857954482658526 4.93494134445882e-15
  endloop
endfacet
facet normal 0.0 0.0 -1.0
  outer loop
    vertex 8.950713810480778e-18 0.0 0.0
    vertex 49.549781095678135 6.557861475723325 2.8199664825478975e-15
    vertex 200.0 0.0 0.0
  endloop
endfacet
facet normal 0.0 0.0 -1.0
  outer loop
    vertex 49.549781095678135 6.557861475723325 2.8199664825478975e-15
    vertex 8.950713810480778e-18 0.0 0.0
    vertex 49.421892786437354 6.583970233162125 2.8199664825478975e-15
  endloop
endfacet
facet normal 0.0 0.0 -1.0
  outer loop
    vertex 49.421892786437354 6.583970233162125 2.8199664825478975e-15
    vertex 8.950713810480778e-18 0.0 0.0
    vertex 49.305119609330355 6.642289286342055 2.8199664825478975e-15
  endloop
endfacet
facet normal 0.0 0.0 -1.0
  outer loop
    vertex 49.305119609330355 6.642289286342055 2.8199664825478975e-15
    vertex 8.950713810480778e-18 0.0 0.0
    vertex 49.207419463400186 6.728844288165696 2.8199664825478975e-15
  endloop
endfacet
facet normal 0.0 0.0 -1.0
  outer loop
    vertex 49.207419463400186 6.728844288165696 2.8199664825478975e-15
    vertex 8.950713810480778e-18 0.0 0.0
    vertex 49.13545045213487 6.837736658297671 2.8199664825478975e-15
  endloop
endfacet
facet normal 0.0 0.0 -1.0
  outer loop
    vertex 49.13545045213487 6.837736658297671 2.8199664825478975e-15
    vertex 8.950713810480778e-18 0.0 0.0
    vertex 49.09411714471772 6.961545561666635 2.8199664825478975e-15
  endloop
endfacet
facet normal 0.0 0.0 -1.0
  outer loop
    vertex 49.09411714471772 6.961545561666635 2.8199664825478975e-15
    vertex 8.950713810480778e-18 0.0 0.0
    vertex 49.086236337742704 7.091833626111879 2.8199664825478975e-15
  endloop
endfacet
facet normal 0.0 0.0 -1.0
  outer loop
    vertex 200.0 0.0 0.0
    vertex 49.549781095678135 6.557861475723325 2.8199664825478975e-15
    vertex 49.68006916012339 6.565742282698349 2.8199664825478975e-15
  endloop
endfacet
facet normal 0.0 0.0 -1.0
  outer loop
    vertex 200.0 0.0 0.0
    vertex 49.68006916012339 6.565742282698349 2.8199664825478975e-15
    vertex 49.803878063492355 6.607075590115498 2.8199664825478975e-15
  endloop
endfacet
facet normal 0.0 0.0 -1.0
  outer loop
    vertex 200.0 0.0 0.0
    vertex 49.803878063492355 6.607075590115498 2.8199664825478975e-15
    vertex 49.912770433624324 6.679044601380812 2.8199664825478975e-15
  endloop
endfacet
facet normal 0.0 0.0 -1.0
  outer loop
    vertex 200.0 0.0 0.0
    vertex 49.912770433624324 6.679044601380812 2.8199664825478975e-15
    vertex 49.999325435447965 6.776744747310976 2.8199664825478975e-15
  endloop
endfacet
facet normal 0.0 0.0 -1.0
  outer loop
    vertex 200.0 0.0 0.0
    vertex 49.999325435447965 6.776744747310976 2.8199664825478975e-15
    vertex 50.0576444886279 6.893517924417975 2.8199664825478975e-15
  endloop
endfacet
facet normal 0.0 0.0 -1.0
  outer loop
    vertex 200.0 0.0 0.0
    vertex 50.0576444886279 6.893517924417975 2.8199664825478975e-15
    vertex 50.0837532460667 7.021406233658765 2.8199664825478975e-15
  endloop
endfacet
facet normal 0.0 0.0 -1.0
  outer loop
    vertex 200.0 0.0 0.0
    vertex 50.0837532460667 7.021406233658765 2.8199664825478975e-15
    vertex 151.52621070732937 6.382219765762818 4.93494134445882e-15
  endloop
endfacet
facet normal 0.0 0.0 -1.0
  outer loop
    vertex 151.52621070732937 6.382219765762818 4.93494134445882e-15
    vertex 50.0837532460667 7.021406233658765 2.8199664825478975e-15
    vertex 151.3977543455526 6.405372518828963 4.93494134445882e-15
  endloop
endfacet
facet normal 0.0 0.0 -1.0
  outer loop
    vertex 151.3977543455526 6.405372518828963 4.93494134445882e-15
    vertex 50.0837532460667 7.021406233658765 2.8199664825478975e-15
    vertex 151.27966740160136 6.460983313857653 4.93494134445882e-15
  endloop
endfacet
facet normal 0.0 0.0 -1.0
  outer loop
    vertex 151.27966740160136 6.460983313857653 4.93494134445882e-15
    vertex 50.0837532460667 7.021406233658765 2.8199664825478975e-15
    vertex 151.17999730555803 6.545262367068868 4.93494134445882e-15
  endloop
endfacet
facet normal 0.0 0.0 -1.0
  outer loop
    vertex 151.17999730555803 6.545262367068868 4.93494134445882e-15
    vertex 50.0837532460667 7.021406233658765 2.8199664825478975e-15
    vertex 151.10553640975533 6.652466200263983 4.93494134445882e-15
  endloop
endfacet
facet normal 0.0 0.0 -1.0
  outer loop
    vertex 151.10553640975533 6.652466200263983 4.93494134445882e-15
    vertex 50.0837532460667 7.021406233658765 2.8199664825478975e-15
    vertex 151.0613591011898 6.775289049373461 4.93494134445882e-15
  endloop
endfacet
facet normal 0.0 0.0 -1.0
  outer loop
    vertex 151.0613591011898 6.775289049373461 4.93494134445882e-15
    vertex 50.0837532460667 7.021406233658765 2.8199664825478975e-15
    vertex 151.05047599043365 6.905360740204846 4.93494134445882e-15
  endloop
endfacet
facet normal 0.0 0.0 -1.0
  outer loop
    vertex 200.0 0.0 0.0
    vertex 151.52621070732937 6.382219765762818 4.93494134445882e-15
    vertex 151.65628239816076 6.39310287651894 4.93494134445882e-15
  endloop
endfacet
facet normal 0.0 0.0 -1.0
  outer loop
    vertex 200.0 0.0 0.0
    vertex 151.65628239816076 6.39310287651894 4.93494134445882e-15
    vertex 151.77910524727025 6.437280185084493 4.93494134445882e-15
  endloop
endfacet
facet normal 0.0 0.0 -1.0
  outer loop
    vertex 200.0 0.0 0.0
    vertex 151.77910524727025 6.437280185084493 4.93494134445882e-15
    vertex 151.88630908046537 6.511741080887187 4.93494134445882e-15
  endloop
endfacet
facet normal 0.0 0.0 -1.0
  outer loop
    vertex 200.0 0.0 0.0
    vertex 151.88630908046537 6.511741080887187 4.93494134445882e-15
    vertex 151.97058813367656 6.61141117693052 4.93494134445882e-15
  endloop
endfacet
facet normal 0.0 0.0 -1.0
  outer loop
    vertex 200.0 0.0 0.0
    vertex 151.97058813367656 6.61141117693052 4.93494134445882e-15
    vertex 152.02619892870524 6.7294981208817575 4.93494134445882e-15
  endloop
endfacet
facet normal 0.0 0.0 -1.0
  outer loop
    vertex 200.0 0.0 0.0
    vertex 152.02619892870524 6.7294981208817575 4.93494134445882e-15
    vertex 152.0493516817714 6.857954482658526 4.93494134445882e-15
  endloop
endfacet
facet normal 0.0 0.0 -1.0
  outer loop
    vertex 200.0 0.0 0.0
    vertex 152.0493516817714 6.857954482658526 4.93494134445882e-15
    vertex 200.0 59.99999999999999 0.0
  endloop
endfacet
facet normal -2.353282126744071e-34 1.0 -6.609296443471638e-17
  outer loop
    vertex 1.9999999999999962 26.000000000000032 0.9999999999999974
    vertex 200.0 26.000000000000032 1.9999999999999962
    vertex 200.0 26.000000000000032 0.9999999999999968
  endloop
endfacet
facet normal -2.353282126744071e-34 1.0 -6.609296443471638e-17
  outer loop
    vertex 200.0 26.000000000000032 1.9999999999999962
    vertex 1.9999999999999962 26.000000000000032 0.9999999999999974
    vertex 1.9999999999999962 26.000000000000032 1.9999999999999971
  endloop
endfacet
facet normal 0.0 -1.0 1.7167003749276973e-17
  outer loop
    vertex 198.0 57.99999999999999 8.8
    vertex 1.9999999999999998 57.99999999999999 1.9999999999999998
    vertex 198.0 57.99999999999999 1.9999999999999998
  endloop
endfacet
facet normal 0.0 -1.0 1.7167003749276973e-17
  outer loop
    vertex 1.9999999999999998 57.99999999999999 1.9999999999999998
    vertex 198.0 57.99999999999999 8.8
    vertex 1.9999999999999998 57.99999999999999 8.8
  endloop
endfacet
facet normal -0.8320502943378437 -0.5547001962252291 1.2416122942166671e-17
  outer loop
    vertex 63.99999999999999 46.00000000000003 4.5
    vertex 65.99999999999999 43.000000000000036 2.0000000000000075
    vertex 65.99999999999999 43.000000000000036 4.500000000000007
  endloop
endfacet
facet normal -0.8320502943378437 -0.5547001962252291 1.2416122942166671e-17
  outer loop
    vertex 65.99999999999999 43.000000000000036 2.0000000000000075
    vertex 63.99999999999999 46.00000000000003 4.5
    vertex 63.99999999999999 46.00000000000003 2.0000000000000004
  endloop
endfacet
facet normal -0.0 1.0 -0.0
  outer loop
    vertex 65.99999999999999 13.000000000000039 2.0000000000000098
    vertex 134.00000000000006 13.000000000000039 4.500000000000003
    vertex 134.00000000000006 13.000000000000039 2.0000000000000027
  endloop
endfacet
facet normal -0.0 1.0 -0.0
  outer loop
    vertex 134.00000000000006 13.000000000000039 4.500000000000003
    vertex 65.99999999999999 13.000000000000039 2.0000000000000098
    vertex 104.00000000000003 13.000000000000039 4.499999999999984
  endloop
endfacet
facet normal -0.0 1.0 -0.0
  outer loop
    vertex 65.99999999999999 13.000000000000039 4.50000000000001
    vertex 104.00000000000003 13.000000000000039 4.499999999999984
    vertex 65.99999999999999 13.000000000000039 2.0000000000000098
  endloop
endfacet
facet normal -0.0 1.0 -0.0
  outer loop
    vertex 104.00000000000003 13.000000000000039 4.499999999999984
    vertex 65.99999999999999 13.000000000000039 4.50000000000001
    vertex 96.0 13.000000000000039 4.499999999999991
  endloop
endfacet
facet normal -0.0 1.0 -0.0
  outer loop
    vertex 96.0 13.000000000000039 4.499999999999991
    vertex 104.00000000000003 13.000000000000039 6.499999999999985
    vertex 104.00000000000003 13.000000000000039 4.499999999999984
  endloop
endfacet
facet normal -0.0 1.0 -0.0
  outer loop
    vertex 104.00000000000003 13.000000000000039 6.499999999999985
    vertex 96.0 13.000000000000039 4.499999999999991
    vertex 96.0 13.000000000000039 6.499999999999991
  endloop
endfacet
facet normal -1.0 2.209446160752308e-34 -1.3162814427177614e-18
  outer loop
    vertex 198.0 57.99999999999999 8.8
    vertex 198.0 41.00000000000003 1.999999999999998
    vertex 198.0 41.00000000000003 8.799999999999997
  endloop
endfacet
facet normal -1.0 2.209446160752308e-34 -1.3162814427177614e-18
  outer loop
    vertex 198.0 41.00000000000003 1.999999999999998
    vertex 198.0 57.99999999999999 8.8
    vertex 198.0 57.99999999999999 1.9999999999999998
  endloop
endfacet
facet normal 4.8877885606967987e-17 -1.1749860343949529e-15 1.0
  outer loop
    vertex 136.00000000000006 10.000000000000027 2.0000000000000027
    vertex 65.99999999999999 13.000000000000039 2.0000000000000098
    vertex 63.99999999999999 10.000000000000027 2.0000000000000027
  endloop
endfacet
facet normal 4.8877885606967987e-17 -1.1749860343949529e-15 1.0
  outer loop
    vertex 65.99999999999999 13.000000000000039 2.0000000000000098
    vertex 136.00000000000006 10.000000000000027 2.0000000000000027
    vertex 134.00000000000006 13.000000000000039 2.0000000000000027
  endloop
endfacet
facet normal -1.3162814427177614e-18 7.629779444123097e-18 1.0
  outer loop
    vertex 0.0 0.0 8.8
    vertex 1.9999999999999998 1.999999999999999 8.8
    vertex 0.0 59.99999999999999 8.8
  endloop
endfacet
facet normal -1.3162814427177614e-18 7.629779444123097e-18 1.0
  outer loop
    vertex 1.9999999999999998 1.999999999999999 8.8
    vertex 0.0 0.0 8.8
    vertex 200.0 0.0 8.8
  endloop
endfacet
facet normal -1.3162814427177614e-18 7.629779444123097e-18 1.0
  outer loop
    vertex 1.9999999999999998 1.999999999999999 8.8
    vertex 200.0 0.0 8.8
    vertex 198.0 1.999999999999999 8.8
  endloop
endfacet
facet normal -1.3162814427177614e-18 7.629779444123097e-18 1.0
  outer loop
    vertex 198.0 1.999999999999999 8.8
    vertex 200.0 0.0 8.8
    vertex 198.0 15.00000000000004 8.8
  endloop
endfacet
facet normal -1.3162814427177614e-18 7.629779444123097e-18 1.0
  outer loop
    vertex 198.0 15.00000000000004 8.8
    vertex 200.0 0.0 8.8
    vertex 200.0 15.00000000000004 8.8
  endloop
endfacet
facet normal -1.3162814427177614e-18 7.629779444123097e-18 1.0
  outer loop
    vertex 200.0 41.00000000000003 8.799999999999997
    vertex 198.0 57.99999999999999 8.8
    vertex 198.0 41.00000000000003 8.799999999999997
  endloop
endfacet
facet normal -1.3162814427177614e-18 7.629779444123097e-18 1.0
  outer loop
    vertex 0.0 59.99999999999999 8.8
    vertex 1.9999999999999998 57.99999999999999 8.8
    vertex 200.0 59.99999999999999 8.8
  endloop
endfacet
facet normal -1.3162814427177614e-18 7.629779444123097e-18 1.0
  outer loop
    vertex 1.9999999999999998 57.99999999999999 8.8
    vertex 0.0 59.99999999999999 8.8
    vertex 1.9999999999999998 1.999999999999999 8.8
  endloop
endfacet
facet normal -1.3162814427177614e-18 7.629779444123097e-18 1.0
  outer loop
    vertex 200.0 59.99999999999999 8.8
    vertex 1.9999999999999998 57.99999999999999 8.8
    vertex 198.0 57.99999999999999 8.8
  endloop
endfacet
facet normal -1.3162814427177614e-18 7.629779444123097e-18 1.0
  outer loop
    vertex 200.0 59.99999999999999 8.8
    vertex 198.0 57.99999999999999 8.8
    vertex 200.0 41.00000000000003 8.799999999999997
  endloop
endfacet
facet normal -1.0574874309554634e-15 1.0 -1.716700374927697e-17
  outer loop
    vertex 198.0 15.00000000000004 8.8
    vertex 200.0 15.00000000000004 1.9999999999999998
    vertex 198.0 15.00000000000004 1.9999999999999998
  endloop
endfacet
facet normal -1.0574874309554634e-15 1.0 -1.716700374927697e-17
  outer loop
    vertex 200.0 15.00000000000004 1.9999999999999998
    vertex 198.0 15.00000000000004 8.8
    vertex 200.0 15.00000000000004 8.8
  endloop
endfacet
facet normal 7.049916206369696e-16 9.399888275159675e-16 1.0
  outer loop
    vertex 104.00000000000003 43.000000000000036 6.499999999999982
    vertex 95.99999999999999 46.00000000000003 6.499999999999985
    vertex 95.99999999999999 43.000000000000036 6.4999999999999885
  endloop
endfacet
facet normal 7.049916206369696e-16 9.399888275159675e-16 1.0
  outer loop
    vertex 95.99999999999999 46.00000000000003 6.499999999999985
    vertex 104.00000000000003 43.000000000000036 6.499999999999982
    vertex 104.00000000000003 46.00000000000003 6.49999999999998
  endloop
endfacet
facet normal -4.8877885606967987e-17 -1.1749860343949594e-15 -1.0
  outer loop
    vertex 136.00000000000006 46.00000000000003 2.0000000000000004
    vertex 65.99999999999999 43.000000000000036 2.0000000000000075
    vertex 63.99999999999999 46.00000000000003 2.0000000000000004
  endloop
endfacet
facet normal -4.8877885606967987e-17 -1.1749860343949594e-15 -1.0
  outer loop
    vertex 65.99999999999999 43.000000000000036 2.0000000000000075
    vertex 136.00000000000006 46.00000000000003 2.0000000000000004
    vertex 134.00000000000006 43.000000000000036 2.0000000000000004
  endloop
endfacet
facet normal 1.0 -0.0 -0.0
  outer loop
    vertex 104.00000000000003 46.00000000000003 4.4999999999999805
    vertex 104.00000000000003 43.000000000000036 6.499999999999982
    vertex 104.00000000000003 43.000000000000036 4.499999999999982
  endloop
endfacet
facet normal 1.0 -0.0 -0.0
  outer loop
    vertex 104.00000000000003 43.000000000000036 6.499999999999982
    vertex 104.00000000000003 46.00000000000003 4.4999999999999805
    vertex 104.00000000000003 46.00000000000003 6.49999999999998
  endloop
endfacet
facet normal 0.0 -1.0 0.0
  outer loop
    vertex 136.00000000000006 10.000000000000027 4.500000000000003
    vertex 63.99999999999999 10.000000000000027 2.0000000000000027
    vertex 136.00000000000006 10.000000000000027 2.0000000000000027
  endloop
endfacet
facet normal 0.0 -1.0 0.0
  outer loop
    vertex 63.99999999999999 10.000000000000027 2.0000000000000027
    vertex 136.00000000000006 10.000000000000027 4.500000000000003
    vertex 104.00000000000003 10.000000000000027 4.499999999999982
  endloop
endfacet
facet normal 0.0 -1.0 0.0
  outer loop
    vertex 104.00000000000003 10.000000000000027 6.499999999999982
    vertex 95.99999999999999 10.000000000000027 4.4999999999999885
    vertex 104.00000000000003 10.000000000000027 4.499999999999982
  endloop
endfacet
facet normal 0.0 -1.0 0.0
  outer loop
    vertex 95.99999999999999 10.000000000000027 4.4999999999999885
    vertex 104.00000000000003 10.000000000000027 6.499999999999982
    vertex 95.99999999999999 10.000000000000027 6.4999999999999885
  endloop
endfacet
facet normal 0.0 -1.0 0.0
  outer loop
    vertex 104.00000000000003 10.000000000000027 4.499999999999982
    vertex 63.99999999999999 10.000000000000027 4.500000000000003
    vertex 63.99999999999999 10.000000000000027 2.0000000000000027
  endloop
endfacet
facet normal 0.0 -1.0 0.0
  outer loop
    vertex 63.99999999999999 10.000000000000027 4.500000000000003
    vertex 104.00000000000003 10.000000000000027 4.499999999999982
    vertex 95.99999999999999 10.000000000000027 4.4999999999999885
  endloop
endfacet
facet normal 0.0 -1.0 0.0
  outer loop
    vertex 200.0 0.0 8.8
    vertex 8.950713810480778e-18 0.0 0.0
    vertex 200.0 0.0 0.0
  endloop
endfacet
facet normal 0.0 -1.0 0.0
  outer loop
    vertex 8.950713810480778e-18 0.0 0.0
    vertex 200.0 0.0 8.8
    vertex 0.0 0.0 8.8
  endloop
endfacet
facet normal 0.832050294337845 0.5547001962252269 -0.0
  outer loop
    vertex 134.00000000000006 13.000000000000039 2.0000000000000027
    vertex 136.00000000000006 10.000000000000027 4.500000000000003
    vertex 136.00000000000006 10.000000000000027 2.0000000000000027
  endloop
endfacet
facet normal 0.832050294337845 0.5547001962252269 -0.0
  outer loop
    vertex 136.00000000000006 10.000000000000027 4.500000000000003
    vertex 134.00000000000006 13.000000000000039 2.0000000000000027
    vertex 134.00000000000006 13.000000000000039 4.500000000000003
  endloop
endfacet
facet normal -6.141195198480082e-16 4.3970371349499455e-16 1.0
  outer loop
    vertex 134.00000000000006 43.000000000000036 4.5
    vertex 104.00000000000003 46.00000000000003 4.4999999999999805
    vertex 104.00000000000003 43.000000000000036 4.499999999999982
  endloop
endfacet
facet normal -6.141195198480082e-16 4.3970371349499455e-16 1.0
  outer loop
    vertex 104.00000000000003 46.00000000000003 4.4999999999999805
    vertex 134.00000000000006 43.000000000000036 4.5
    vertex 136.00000000000006 46.00000000000003 4.5
  endloop
endfacet
facet normal -0.832050294337845 0.5547001962252269 1.2416122942177817e-17
  outer loop
    vertex 65.99999999999999 13.000000000000039 4.50000000000001
    vertex 63.99999999999999 10.000000000000027 2.0000000000000027
    vertex 63.99999999999999 10.000000000000027 4.500000000000003
  endloop
endfacet
facet normal -0.832050294337845 0.5547001962252269 1.2416122942177817e-17
  outer loop
    vertex 63.99999999999999 10.000000000000027 2.0000000000000027
    vertex 65.99999999999999 13.000000000000039 4.50000000000001
    vertex 65.99999999999999 13.000000000000039 2.0000000000000098
  endloop
endfacet
facet normal 0.0 -1.0 0.0
  outer loop
    vertex 134.00000000000006 43.000000000000036 4.5
    vertex 65.99999999999999 43.000000000000036 2.0000000000000075
    vertex 134.00000000000006 43.000000000000036 2.0000000000000004
  endloop
endfacet
facet normal 0.0 -1.0 0.0
  outer loop
    vertex 65.99999999999999 43.000000000000036 2.0000000000000075
    vertex 134.00000000000006 43.000000000000036 4.5
    vertex 104.00000000000003 43.000000000000036 4.499999999999982
  endloop
endfacet
facet normal 0.0 -1.0 0.0
  outer loop
    vertex 104.00000000000003 43.000000000000036 6.499999999999982
    vertex 95.99999999999999 43.000000000000036 4.499999999999989
    vertex 104.00000000000003 43.000000000000036 4.499999999999982
  endloop
endfacet
facet normal 0.0 -1.0 0.0
  outer loop
    vertex 95.99999999999999 43.000000000000036 4.499999999999989
    vertex 104.00000000000003 43.000000000000036 6.499999999999982
    vertex 95.99999999999999 43.000000000000036 6.4999999999999885
  endloop
endfacet
facet normal 0.0 -1.0 0.0
  outer loop
    vertex 104.00000000000003 43.000000000000036 4.499999999999982
    vertex 65.99999999999999 43.000000000000036 4.500000000000007
    vertex 65.99999999999999 43.000000000000036 2.0000000000000075
  endloop
endfacet
facet normal 0.0 -1.0 0.0
  outer loop
    vertex 65.99999999999999 43.000000000000036 4.500000000000007
    vertex 104.00000000000003 43.000000000000036 4.499999999999982
    vertex 95.99999999999999 43.000000000000036 4.499999999999989
  endloop
endfacet
facet normal 1.0 -0.0 -0.0
  outer loop
    vertex 104.00000000000003 13.000000000000039 4.499999999999984
    vertex 104.00000000000003 10.000000000000027 6.499999999999982
    vertex 104.00000000000003 10.000000000000027 4.499999999999982
  endloop
endfacet
facet normal 1.0 -0.0 -0.0
  outer loop
    vertex 104.00000000000003 10.000000000000027 6.499999999999982
    vertex 104.00000000000003 13.000000000000039 4.499999999999984
    vertex 104.00000000000003 13.000000000000039 6.499999999999985
  endloop
endfacet
facet normal -3.002943289044484e-18 1.2902524946497761e-16 1.0
  outer loop
    vertex 1.9999999999999998 1.999999999999999 1.9999999999999998
    vertex 49.09411714471772 6.961545561666635 1.9999999999999991
    vertex 49.086236337742704 7.091833626111879 1.9999999999999991
  endloop
endfacet
facet normal -3.002943289044484e-18 1.2902524946497761e-16 1.0
  outer loop
    vertex 49.09411714471772 6.961545561666635 1.9999999999999991
    vertex 1.9999999999999998 1.999999999999999 1.9999999999999998
    vertex 49.13545045213487 6.837736658297671 1.9999999999999991
  endloop
endfacet
facet normal -3.002943289044484e-18 1.2902524946497761e-16 1.0
  outer loop
    vertex 49.13545045213487 6.837736658297671 1.9999999999999991
    vertex 1.9999999999999998 1.999999999999999 1.9999999999999998
    vertex 49.207419463400186 6.728844288165696 1.9999999999999991
  endloop
endfacet
facet normal -3.002943289044484e-18 1.2902524946497761e-16 1.0
  outer loop
    vertex 49.207419463400186 6.728844288165696 1.9999999999999991
    vertex 1.9999999999999998 1.999999999999999 1.9999999999999998
    vertex 49.305119609330355 6.642289286342055 1.9999999999999991
  endloop
endfacet
facet normal -3.002943289044484e-18 1.2902524946497761e-16 1.0
  outer loop
    vertex 49.305119609330355 6.642289286342055 1.9999999999999991
    vertex 1.9999999999999998 1.999999999999999 1.9999999999999998
    vertex 49.421892786437354 6.583970233162125 1.9999999999999991
  endloop
endfacet
facet normal -3.002943289044484e-18 1.2902524946497761e-16 1.0
  outer loop
    vertex 49.421892786437354 6.583970233162125 1.9999999999999991
    vertex 1.9999999999999998 1.999999999999999 1.9999999999999998
    vertex 49.549781095678135 6.557861475723325 1.9999999999999991
  endloop
endfacet
facet normal -3.002943289044484e-18 1.2902524946497761e-16 1.0
  outer loop
    vertex 49.549781095678135 6.557861475723325 1.9999999999999991
    vertex 1.9999999999999998 1.999999999999999 1.9999999999999998
    vertex 198.0 1.999999999999999 1.9999999999999998
  endloop
endfacet
facet normal -3.002943289044484e-18 1.2902524946497761e-16 1.0
  outer loop
    vertex 49.549781095678135 6.557861475723325 1.9999999999999991
    vertex 198.0 1.999999999999999 1.9999999999999998
    vertex 49.68006916012339 6.565742282698349 1.9999999999999991
  endloop
endfacet
facet normal -3.002943289044484e-18 1.2902524946497761e-16 1.0
  outer loop
    vertex 49.68006916012339 6.565742282698349 1.9999999999999991
    vertex 198.0 1.999999999999999 1.9999999999999998
    vertex 49.803878063492355 6.607075590115498 1.9999999999999991
  endloop
endfacet
facet normal -3.002943289044484e-18 1.2902524946497761e-16 1.0
  outer loop
    vertex 49.803878063492355 6.607075590115498 1.9999999999999991
    vertex 198.0 1.999999999999999 1.9999999999999998
    vertex 49.912770433624324 6.679044601380812 1.9999999999999991
  endloop
endfacet
facet normal -3.002943289044484e-18 1.2902524946497761e-16 1.0
  outer loop
    vertex 49.912770433624324 6.679044601380812 1.9999999999999991
    vertex 198.0 1.999999999999999 1.9999999999999998
    vertex 49.999325435447965 6.776744747310976 1.9999999999999991
  endloop
endfacet
facet normal -3.002943289044484e-18 1.2902524946497761e-16 1.0
  outer loop
    vertex 49.999325435447965 6.776744747310976 1.9999999999999991
    vertex 198.0 1.999999999999999 1.9999999999999998
    vertex 50.0576444886279 6.893517924417975 1.9999999999999991
  endloop
endfacet
facet normal -3.002943289044484e-18 1.2902524946497761e-16 1.0
  outer loop
    vertex 50.0576444886279 6.893517924417975 1.9999999999999991
    vertex 198.0 1.999999999999999 1.9999999999999998
    vertex 50.0837532460667 7.021406233658765 1.9999999999999991
  endloop
endfacet
facet normal -3.002943289044484e-18 1.2902524946497761e-16 1.0
  outer loop
    vertex 50.0837532460667 7.021406233658765 1.9999999999999991
    vertex 198.0 1.999999999999999 1.9999999999999998
    vertex 63.99999999999999 10.000000000000027 2.0000000000000027
  endloop
endfacet
facet normal -3.002943289044484e-18 1.2902524946497761e-16 1.0
  outer loop
    vertex 63.99999999999999 10.000000000000027 2.0000000000000027
    vertex 198.0 1.999999999999999 1.9999999999999998
    vertex 151.52621070732937 6.382219765762818 2.0000000000000004
  endloop
endfacet
facet normal -3.002943289044484e-18 1.2902524946497761e-16 1.0
  outer loop
    vertex 63.99999999999999 10.000000000000027 2.0000000000000027
    vertex 151.52621070732937 6.382219765762818 2.0000000000000004
    vertex 151.3977543455526 6.405372518828963 2.0000000000000004
  endloop
endfacet
facet normal -3.002943289044484e-18 1.2902524946497761e-16 1.0
  outer loop
    vertex 63.99999999999999 10.000000000000027 2.0000000000000027
    vertex 151.3977543455526 6.405372518828963 2.0000000000000004
    vertex 136.00000000000006 10.000000000000027 2.0000000000000027
  endloop
endfacet
facet normal -3.002943289044484e-18 1.2902524946497761e-16 1.0
  outer loop
    vertex 136.00000000000006 10.000000000000027 2.0000000000000027
    vertex 151.3977543455526 6.405372518828963 2.0000000000000004
    vertex 151.27966740160136 6.460983313857653 2.0000000000000004
  endloop
endfacet
facet normal -3.002943289044484e-18 1.2902524946497761e-16 1.0
  outer loop
    vertex 136.00000000000006 10.000000000000027 2.0000000000000027
    vertex 151.27966740160136 6.460983313857653 2.0000000000000004
    vertex 151.17999730555803 6.545262367068868 2.0000000000000004
  endloop
endfacet
facet normal -3.002943289044484e-18 1.2902524946497761e-16 1.0
  outer loop
    vertex 136.00000000000006 10.000000000000027 2.0000000000000027
    vertex 151.17999730555803 6.545262367068868 2.0000000000000004
    vertex 151.10553640975533 6.652466200263983 2.0000000000000004
  endloop
endfacet
facet normal -3.002943289044484e-18 1.2902524946497761e-16 1.0
  outer loop
    vertex 136.00000000000006 10.000000000000027 2.0000000000000027
    vertex 151.10553640975533 6.652466200263983 2.0000000000000004
    vertex 151.0613591011898 6.775289049373461 2.0000000000000004
  endloop
endfacet
facet normal -3.002943289044484e-18 1.2902524946497761e-16 1.0
  outer loop
    vertex 136.00000000000006 10.000000000000027 2.0000000000000027
    vertex 151.0613591011898 6.775289049373461 2.0000000000000004
    vertex 151.05047599043365 6.905360740204846 2.0000000000000004
  endloop
endfacet
facet normal -3.002943289044484e-18 1.2902524946497761e-16 1.0
  outer loop
    vertex 151.52621070732937 6.382219765762818 2.0000000000000004
    vertex 198.0 1.999999999999999 1.9999999999999998
    vertex 151.65628239816076 6.39310287651894 2.0000000000000004
  endloop
endfacet
facet normal -3.002943289044484e-18 1.2902524946497761e-16 1.0
  outer loop
    vertex 151.65628239816076 6.39310287651894 2.0000000000000004
    vertex 198.0 1.999999999999999 1.9999999999999998
    vertex 151.77910524727025 6.437280185084493 2.0000000000000004
  endloop
endfacet
facet normal -3.002943289044484e-18 1.2902524946497761e-16 1.0
  outer loop
    vertex 151.77910524727025 6.437280185084493 2.0000000000000004
    vertex 198.0 1.999999999999999 1.9999999999999998
    vertex 151.88630908046537 6.511741080887187 2.0000000000000004
  endloop
endfacet
facet normal -3.002943289044484e-18 1.2902524946497761e-16 1.0
  outer loop
    vertex 151.88630908046537 6.511741080887187 2.0000000000000004
    vertex 198.0 1.999999999999999 1.9999999999999998
    vertex 151.97058813367656 6.61141117693052 2.0000000000000004
  endloop
endfacet
facet normal -3.002943289044484e-18 1.2902524946497761e-16 1.0
  outer loop
    vertex 151.97058813367656 6.61141117693052 2.0000000000000004
    vertex 198.0 1.999999999999999 1.9999999999999998
    vertex 152.02619892870524 6.7294981208817575 2.0000000000000004
  endloop
endfacet
facet normal -3.002943289044484e-18 1.2902524946497761e-16 1.0
  outer loop
    vertex 152.02619892870524 6.7294981208817575 2.0000000000000004
    vertex 198.0 1.999999999999999 1.9999999999999998
    vertex 152.0493516817714 6.857954482658526 2.0000000000000004
  endloop
endfacet
facet normal -3.002943289044484e-18 1.2902524946497761e-16 1.0
  outer loop
    vertex 1.9999999999999962 26.000000000000032 1.9999999999999971
    vertex 65.99999999999999 13.000000000000039 2.0000000000000098
    vertex 200.0 26.000000000000032 1.9999999999999962
  endloop
endfacet
facet normal -3.002943289044484e-18 1.2902524946497761e-16 1.0
  outer loop
    vertex 65.99999999999999 13.000000000000039 2.0000000000000098
    vertex 1.9999999999999962 26.000000000000032 1.9999999999999971
    vertex 1.9999999999999998 1.999999999999999 1.9999999999999998
  endloop
endfacet
facet normal -3.002943289044484e-18 1.2902524946497761e-16 1.0
  outer loop
    vertex 65.99999999999999 13.000000000000039 2.0000000000000098
    vertex 1.9999999999999998 1.999999999999999 1.9999999999999998
    vertex 49.48992042368601 7.547497577072295 1.9999999999999991
  endloop
endfacet
facet normal -3.002943289044484e-18 1.2902524946497761e-16 1.0
  outer loop
    vertex 49.48992042368601 7.547497577072295 1.9999999999999991
    vertex 1.9999999999999998 1.999999999999999 1.9999999999999998
    vertex 49.36611152031705 7.506164269655146 1.9999999999999991
  endloop
endfacet
facet normal -3.002943289044484e-18 1.2902524946497761e-16 1.0
  outer loop
    vertex 49.36611152031705 7.506164269655146 1.9999999999999991
    vertex 1.9999999999999998 1.999999999999999 1.9999999999999998
    vertex 49.25721915018507 7.434195258389832 1.9999999999999991
  endloop
endfacet
facet normal -3.002943289044484e-18 1.2902524946497761e-16 1.0
  outer loop
    vertex 49.25721915018507 7.434195258389832 1.9999999999999991
    vertex 1.9999999999999998 1.999999999999999 1.9999999999999998
    vertex 49.17066414836143 7.336495112459668 1.9999999999999991
  endloop
endfacet
facet normal -3.002943289044484e-18 1.2902524946497761e-16 1.0
  outer loop
    vertex 49.17066414836143 7.336495112459668 1.9999999999999991
    vertex 1.9999999999999998 1.999999999999999 1.9999999999999998
    vertex 49.112345095181496 7.21972193535267 1.9999999999999991
  endloop
endfacet
facet normal -3.002943289044484e-18 1.2902524946497761e-16 1.0
  outer loop
    vertex 49.112345095181496 7.21972193535267 1.9999999999999991
    vertex 1.9999999999999998 1.999999999999999 1.9999999999999998
    vertex 49.086236337742704 7.091833626111879 1.9999999999999991
  endloop
endfacet
facet normal -3.002943289044484e-18 1.2902524946497761e-16 1.0
  outer loop
    vertex 65.99999999999999 13.000000000000039 2.0000000000000098
    vertex 49.48992042368601 7.547497577072295 1.9999999999999991
    vertex 49.62020848813126 7.555378384047319 1.9999999999999991
  endloop
endfacet
facet normal -3.002943289044484e-18 1.2902524946497761e-16 1.0
  outer loop
    vertex 65.99999999999999 13.000000000000039 2.0000000000000098
    vertex 49.62020848813126 7.555378384047319 1.9999999999999991
    vertex 49.74809679737204 7.529269626608519 1.9999999999999991
  endloop
endfacet
facet normal -3.002943289044484e-18 1.2902524946497761e-16 1.0
  outer loop
    vertex 65.99999999999999 13.000000000000039 2.0000000000000098
    vertex 49.74809679737204 7.529269626608519 1.9999999999999991
    vertex 49.86486997447904 7.470950573428589 1.9999999999999991
  endloop
endfacet
facet normal -3.002943289044484e-18 1.2902524946497761e-16 1.0
  outer loop
    vertex 65.99999999999999 13.000000000000039 2.0000000000000098
    vertex 49.86486997447904 7.470950573428589 1.9999999999999991
    vertex 49.96257012040921 7.384395571604948 1.9999999999999991
  endloop
endfacet
facet normal -3.002943289044484e-18 1.2902524946497761e-16 1.0
  outer loop
    vertex 65.99999999999999 13.000000000000039 2.0000000000000098
    vertex 49.96257012040921 7.384395571604948 1.9999999999999991
    vertex 50.03453913167453 7.275503201472973 1.9999999999999991
  endloop
endfacet
facet normal -3.002943289044484e-18 1.2902524946497761e-16 1.0
  outer loop
    vertex 65.99999999999999 13.000000000000039 2.0000000000000098
    vertex 50.03453913167453 7.275503201472973 1.9999999999999991
    vertex 50.075872439091675 7.151694298104009 1.9999999999999991
  endloop
endfacet
facet normal -3.002943289044484e-18 1.2902524946497761e-16 1.0
  outer loop
    vertex 65.99999999999999 13.000000000000039 2.0000000000000098
    vertex 50.075872439091675 7.151694298104009 1.9999999999999991
    vertex 50.0837532460667 7.021406233658765 1.9999999999999991
  endloop
endfacet
facet normal -3.002943289044484e-18 1.2902524946497761e-16 1.0
  outer loop
    vertex 65.99999999999999 13.000000000000039 2.0000000000000098
    vertex 50.0837532460667 7.021406233658765 1.9999999999999991
    vertex 63.99999999999999 10.000000000000027 2.0000000000000027
  endloop
endfacet
facet normal -3.002943289044484e-18 1.2902524946497761e-16 1.0
  outer loop
    vertex 200.0 26.000000000000032 1.9999999999999962
    vertex 65.99999999999999 13.000000000000039 2.0000000000000098
    vertex 134.00000000000006 13.000000000000039 2.0000000000000027
  endloop
endfacet
facet normal -3.002943289044484e-18 1.2902524946497761e-16 1.0
  outer loop
    vertex 200.0 26.000000000000032 1.9999999999999962
    vertex 134.00000000000006 13.000000000000039 2.0000000000000027
    vertex 136.00000000000006 10.000000000000027 2.0000000000000027
  endloop
endfacet
facet normal -3.002943289044484e-18 1.2902524946497761e-16 1.0
  outer loop
    vertex 200.0 26.000000000000032 1.9999999999999962
    vertex 136.00000000000006 10.000000000000027 2.0000000000000027
    vertex 151.32072242493481 7.326035037778879 2.0000000000000004
  endloop
endfacet
facet normal -3.002943289044484e-18 1.2902524946497761e-16 1.0
  outer loop
    vertex 151.32072242493481 7.326035037778879 2.0000000000000004
    vertex 136.00000000000006 10.000000000000027 2.0000000000000027
    vertex 151.2135185917397 7.251574141976184 2.0000000000000004
  endloop
endfacet
facet normal -3.002943289044484e-18 1.2902524946497761e-16 1.0
  outer loop
    vertex 151.2135185917397 7.251574141976184 2.0000000000000004
    vertex 136.00000000000006 10.000000000000027 2.0000000000000027
    vertex 151.1292395385285 7.151904045932851 2.0000000000000004
  endloop
endfacet
facet normal -3.002943289044484e-18 1.2902524946497761e-16 1.0
  outer loop
    vertex 151.1292395385285 7.151904045932851 2.0000000000000004
    vertex 136.00000000000006 10.000000000000027 2.0000000000000027
    vertex 151.07362874349982 7.033817101981614 2.0000000000000004
  endloop
endfacet
facet normal -3.002943289044484e-18 1.2902524946497761e-16 1.0
  outer loop
    vertex 151.07362874349982 7.033817101981614 2.0000000000000004
    vertex 136.00000000000006 10.000000000000027 2.0000000000000027
    vertex 151.05047599043365 6.905360740204846 2.0000000000000004
  endloop
endfacet
facet normal -3.002943289044484e-18 1.2902524946497761e-16 1.0
  outer loop
    vertex 200.0 26.000000000000032 1.9999999999999962
    vertex 151.32072242493481 7.326035037778879 2.0000000000000004
    vertex 151.4435452740443 7.370212346344432 2.0000000000000004
  endloop
endfacet
facet normal -3.002943289044484e-18 1.2902524946497761e-16 1.0
  outer loop
    vertex 200.0 26.000000000000032 1.9999999999999962
    vertex 151.4435452740443 7.370212346344432 2.0000000000000004
    vertex 151.5736169648757 7.381095457100556 2.0000000000000004
  endloop
endfacet
facet normal -3.002943289044484e-18 1.2902524946497761e-16 1.0
  outer loop
    vertex 200.0 26.000000000000032 1.9999999999999962
    vertex 151.5736169648757 7.381095457100556 2.0000000000000004
    vertex 151.70207332665245 7.357942704034409 2.0000000000000004
  endloop
endfacet
facet normal -3.002943289044484e-18 1.2902524946497761e-16 1.0
  outer loop
    vertex 200.0 26.000000000000032 1.9999999999999962
    vertex 151.70207332665245 7.357942704034409 2.0000000000000004
    vertex 151.8201602706037 7.302331909005718 2.0000000000000004
  endloop
endfacet
facet normal -3.002943289044484e-18 1.2902524946497761e-16 1.0
  outer loop
    vertex 200.0 26.000000000000032 1.9999999999999962
    vertex 151.8201602706037 7.302331909005718 2.0000000000000004
    vertex 151.91983036664703 7.218052855794504 2.0000000000000004
  endloop
endfacet
facet normal -3.002943289044484e-18 1.2902524946497761e-16 1.0
  outer loop
    vertex 200.0 26.000000000000032 1.9999999999999962
    vertex 151.91983036664703 7.218052855794504 2.0000000000000004
    vertex 151.99429126244974 7.110849022599389 2.0000000000000004
  endloop
endfacet
facet normal -3.002943289044484e-18 1.2902524946497761e-16 1.0
  outer loop
    vertex 200.0 26.000000000000032 1.9999999999999962
    vertex 151.99429126244974 7.110849022599389 2.0000000000000004
    vertex 152.03846857101527 6.988026173489911 2.0000000000000004
  endloop
endfacet
facet normal -3.002943289044484e-18 1.2902524946497761e-16 1.0
  outer loop
    vertex 200.0 26.000000000000032 1.9999999999999962
    vertex 152.03846857101527 6.988026173489911 2.0000000000000004
    vertex 152.0493516817714 6.857954482658526 2.0000000000000004
  endloop
endfacet
facet normal -3.002943289044484e-18 1.2902524946497761e-16 1.0
  outer loop
    vertex 200.0 26.000000000000032 1.9999999999999962
    vertex 152.0493516817714 6.857954482658526 2.0000000000000004
    vertex 198.0 15.00000000000004 1.9999999999999998
  endloop
endfacet
facet normal -3.002943289044484e-18 1.2902524946497761e-16 1.0
  outer loop
    vertex 198.0 15.00000000000004 1.9999999999999998
    vertex 152.0493516817714 6.857954482658526 2.0000000000000004
    vertex 198.0 1.999999999999999 1.9999999999999998
  endloop
endfacet
facet normal -3.002943289044484e-18 1.2902524946497761e-16 1.0
  outer loop
    vertex 200.0 26.000000000000032 1.9999999999999962
    vertex 198.0 15.00000000000004 1.9999999999999998
    vertex 200.0 15.00000000000004 1.9999999999999998
  endloop
endfacet
facet normal 2.9631520627078145e-18 -8.212469595443658e-17 1.0
  outer loop
    vertex 1.999999999999998 30.000000000000053 1.999999999999998
    vertex 65.99999999999999 43.000000000000036 2.0000000000000075
    vertex 1.9999999999999998 57.99999999999999 1.9999999999999998
  endloop
endfacet
facet normal 2.9631520627078145e-18 -8.212469595443658e-17 1.0
  outer loop
    vertex 65.99999999999999 43.000000000000036 2.0000000000000075
    vertex 1.999999999999998 30.000000000000053 1.999999999999998
    vertex 200.0 30.000000000000053 1.9999999999999971
  endloop
endfacet
facet normal 2.9631520627078145e-18 -8.212469595443658e-17 1.0
  outer loop
    vertex 1.9999999999999998 57.99999999999999 1.9999999999999998
    vertex 65.99999999999999 43.000000000000036 2.0000000000000075
    vertex 63.99999999999999 46.00000000000003 2.0000000000000004
  endloop
endfacet
facet normal 2.9631520627078145e-18 -8.212469595443658e-17 1.0
  outer loop
    vertex 65.99999999999999 43.000000000000036 2.0000000000000075
    vertex 200.0 30.000000000000053 1.9999999999999971
    vertex 134.00000000000006 43.000000000000036 2.0000000000000004
  endloop
endfacet
facet normal 2.9631520627078145e-18 -8.212469595443658e-17 1.0
  outer loop
    vertex 134.00000000000006 43.000000000000036 2.0000000000000004
    vertex 200.0 30.000000000000053 1.9999999999999971
    vertex 136.00000000000006 46.00000000000003 2.0000000000000004
  endloop
endfacet
facet normal 2.9631520627078145e-18 -8.212469595443658e-17 1.0
  outer loop
    vertex 136.00000000000006 46.00000000000003 2.0000000000000004
    vertex 200.0 30.000000000000053 1.9999999999999971
    vertex 198.0 41.00000000000003 1.999999999999998
  endloop
endfacet
facet normal 2.9631520627078145e-18 -8.212469595443658e-17 1.0
  outer loop
    vertex 198.0 41.00000000000003 1.999999999999998
    vertex 200.0 30.000000000000053 1.9999999999999971
    vertex 200.0 41.00000000000003 1.999999999999998
  endloop
endfacet
facet normal 2.9631520627078145e-18 -8.212469595443658e-17 1.0
  outer loop
    vertex 63.99999999999999 46.00000000000003 2.0000000000000004
    vertex 198.0 57.99999999999999 1.9999999999999998
    vertex 1.9999999999999998 57.99999999999999 1.9999999999999998
  endloop
endfacet
facet normal 2.9631520627078145e-18 -8.212469595443658e-17 1.0
  outer loop
    vertex 198.0 57.99999999999999 1.9999999999999998
    vertex 63.99999999999999 46.00000000000003 2.0000000000000004
    vertex 136.00000000000006 46.00000000000003 2.0000000000000004
  endloop
endfacet
facet normal 2.9631520627078145e-18 -8.212469595443658e-17 1.0
  outer loop
    vertex 198.0 57.99999999999999 1.9999999999999998
    vertex 136.00000000000006 46.00000000000003 2.0000000000000004
    vertex 198.0 41.00000000000003 1.999999999999998
  endloop
endfacet
facet normal 0.0 -1.0 1.716700374927697e-17
  outer loop
    vertex 200.0 41.00000000000003 8.799999999999997
    vertex 198.0 41.00000000000003 1.999999999999998
    vertex 200.0 41.00000000000003 1.999999999999998
  endloop
endfacet
facet normal 0.0 -1.0 1.716700374927697e-17
  outer loop
    vertex 198.0 41.00000000000003 1.999999999999998
    vertex 200.0 41.00000000000003 8.799999999999997
    vertex 198.0 41.00000000000003 8.799999999999997
  endloop
endfacet
facet normal -1.0 0.0 0.0
  outer loop
    vertex 95.99999999999999 46.00000000000003 6.499999999999985
    vertex 95.99999999999999 43.000000000000036 4.499999999999989
    vertex 95.99999999999999 43.000000000000036 6.4999999999999885
  endloop
endfacet
facet normal -1.0 0.0 0.0
  outer loop
    vertex 95.99999999999999 43.000000000000036 4.499999999999989
    vertex 95.99999999999999 46.00000000000003 6.499999999999985
    vertex 95.99999999999999 46.00000000000003 4.499999999999986
  endloop
endfacet
facet normal 4.450704675738475e-18 2.937465085987394e-17 1.0
  outer loop
    vertex 200.0 26.000000000000032 0.9999999999999968
    vertex 1.999999999999998 30.000000000000053 0.999999999999998
    vertex 1.9999999999999962 26.000000000000032 0.9999999999999974
  endloop
endfacet
facet normal 4.450704675738475e-18 2.937465085987394e-17 1.0
  outer loop
    vertex 1.999999999999998 30.000000000000053 0.999999999999998
    vertex 200.0 26.000000000000032 0.9999999999999968
    vertex 200.0 30.000000000000053 0.9999999999999969
  endloop
endfacet
facet normal 1.0 -2.3111444718064724e-18 -1.7936219429526736e-16
  outer loop
    vertex 1.999999999999998 30.000000000000053 0.999999999999998
    vertex 1.9999999999999962 26.000000000000032 1.9999999999999971
    vertex 1.9999999999999962 26.000000000000032 0.9999999999999974
  endloop
endfacet
facet normal 1.0 -2.3111444718064724e-18 -1.7936219429526736e-16
  outer loop
    vertex 1.9999999999999962 26.000000000000032 1.9999999999999971
    vertex 1.9999999999999998 1.999999999999999 8.8
    vertex 1.9999999999999998 1.999999999999999 1.9999999999999998
  endloop
endfacet
facet normal 1.0 -2.3111444718064724e-18 -1.7936219429526736e-16
  outer loop
    vertex 1.9999999999999998 1.999999999999999 8.8
    vertex 1.9999999999999962 26.000000000000032 1.9999999999999971
    vertex 1.9999999999999998 57.99999999999999 8.8
  endloop
endfacet
facet normal 1.0 -2.3111444718064724e-18 -1.7936219429526736e-16
  outer loop
    vertex 1.9999999999999998 57.99999999999999 8.8
    vertex 1.9999999999999962 26.000000000000032 1.9999999999999971
    vertex 1.999999999999998 30.000000000000053 1.999999999999998
  endloop
endfacet
facet normal 1.0 -2.3111444718064724e-18 -1.7936219429526736e-16
  outer loop
    vertex 1.999999999999998 30.000000000000053 1.999999999999998
    vertex 1.9999999999999962 26.000000000000032 1.9999999999999971
    vertex 1.999999999999998 30.000000000000053 0.999999999999998
  endloop
endfacet
facet normal 1.0 -2.3111444718064724e-18 -1.7936219429526736e-16
  outer loop
    vertex 1.9999999999999998 57.99999999999999 8.8
    vertex 1.999999999999998 30.000000000000053 1.999999999999998
    vertex 1.9999999999999998 57.99999999999999 1.9999999999999998
  endloop
endfacet
facet normal 0.8320502943378437 -0.5547001962252291 -0.0
  outer loop
    vertex 136.00000000000006 46.00000000000003 2.0000000000000004
    vertex 134.00000000000006 43.000000000000036 4.5
    vertex 134.00000000000006 43.000000000000036 2.0000000000000004
  endloop
endfacet
facet normal 0.8320502943378437 -0.5547001962252291 -0.0
  outer loop
    vertex 134.00000000000006 43.000000000000036 4.5
    vertex 136.00000000000006 46.00000000000003 2.0000000000000004
    vertex 136.00000000000006 46.00000000000003 4.5
  endloop
endfacet
facet normal 3.529923190116106e-34 -1.0 6.609296443471638e-17
  outer loop
    vertex 200.0 30.000000000000053 1.9999999999999971
    vertex 1.999999999999998 30.000000000000053 0.999999999999998
    vertex 200.0 30.000000000000053 0.9999999999999969
  endloop
endfacet
facet normal 3.529923190116106e-34 -1.0 6.609296443471638e-17
  outer loop
    vertex 1.999999999999998 30.000000000000053 0.999999999999998
    vertex 200.0 30.000000000000053 1.9999999999999971
    vertex 1.999999999999998 30.000000000000053 1.999999999999998
  endloop
endfacet
facet normal 0.0 1.0 -1.7167003749276973e-17
  outer loop
    vertex 1.9999999999999998 1.999999999999999 8.8
    vertex 198.0 1.999999999999999 1.9999999999999998
    vertex 1.9999999999999998 1.999999999999999 1.9999999999999998
  endloop
endfacet
facet normal 0.0 1.0 -1.7167003749276973e-17
  outer loop
    vertex 198.0 1.999999999999999 1.9999999999999998
    vertex 1.9999999999999998 1.999999999999999 8.8
    vertex 198.0 1.999999999999999 8.8
  endloop
endfacet
facet normal -1.0 7.519910620127697e-15 1.2425329629214858e-31
  outer loop
    vertex 96.0 13.000000000000039 6.499999999999991
    vertex 95.99999999999999 10.000000000000027 4.4999999999999885
    vertex 95.99999999999999 10.000000000000027 6.4999999999999885
  endloop
endfacet
facet normal -1.0 7.519910620127697e-15 1.2425329629214858e-31
  outer loop
    vertex 95.99999999999999 10.000000000000027 4.4999999999999885
    vertex 96.0 13.000000000000039 6.499999999999991
    vertex 96.0 13.000000000000039 4.499999999999991
  endloop
endfacet
facet normal 5.203160609690768e-16 1.8184191351426354e-15 1.0
  outer loop
    vertex 65.99999999999999 43.000000000000036 4.500000000000007
    vertex 95.99999999999999 46.00000000000003 4.499999999999986
    vertex 63.99999999999999 46.00000000000003 4.5
  endloop
endfacet
facet normal 5.203160609690768e-16 1.8184191351426354e-15 1.0
  outer loop
    vertex 95.99999999999999 46.00000000000003 4.499999999999986
    vertex 65.99999999999999 43.000000000000036 4.500000000000007
    vertex 95.99999999999999 43.000000000000036 4.499999999999989
  endloop
endfacet
facet normal -1.0 0.0 -1.3162814427177614e-18
  outer loop
    vertex 198.0 15.00000000000004 8.8
    vertex 198.0 1.999999999999999 1.9999999999999998
    vertex 198.0 1.999999999999999 8.8
  endloop
endfacet
facet normal -1.0 0.0 -1.3162814427177614e-18
  outer loop
    vertex 198.0 1.999999999999999 1.9999999999999998
    vertex 198.0 15.00000000000004 8.8
    vertex 198.0 15.00000000000004 1.9999999999999998
  endloop
endfacet
facet normal 0.0 1.0 0.0
  outer loop
    vertex 0.0 59.99999999999999 8.8
    vertex 200.0 59.99999999999999 0.0
    vertex 8.950713810480778e-18 59.99999999999999 0.0
  endloop
endfacet
facet normal 0.0 1.0 0.0
  outer loop
    vertex 200.0 59.99999999999999 0.0
    vertex 0.0 59.99999999999999 8.8
    vertex 200.0 59.99999999999999 8.8
  endloop
endfacet
facet normal -0.0 1.0 -0.0
  outer loop
    vertex 63.99999999999999 46.00000000000003 4.5
    vertex 136.00000000000006 46.00000000000003 2.0000000000000004
    vertex 63.99999999999999 46.00000000000003 2.0000000000000004
  endloop
endfacet
facet normal -0.0 1.0 -0.0
  outer loop
    vertex 136.00000000000006 46.00000000000003 2.0000000000000004
    vertex 63.99999999999999 46.00000000000003 4.5
    vertex 104.00000000000003 46.00000000000003 4.4999999999999805
  endloop
endfacet
facet normal -0.0 1.0 -0.0
  outer loop
    vertex 104.00000000000003 46.00000000000003 4.4999999999999805
    vertex 63.99999999999999 46.00000000000003 4.5
    vertex 95.99999999999999 46.00000000000003 4.499999999999986
  endloop
endfacet
facet normal -0.0 1.0 -0.0
  outer loop
    vertex 95.99999999999999 46.00000000000003 4.499999999999986
    vertex 104.00000000000003 46.00000000000003 6.49999999999998
    vertex 104.00000000000003 46.00000000000003 4.4999999999999805
  endloop
endfacet
facet normal -0.0 1.0 -0.0
  outer loop
    vertex 104.00000000000003 46.00000000000003 6.49999999999998
    vertex 95.99999999999999 46.00000000000003 4.499999999999986
    vertex 95.99999999999999 46.00000000000003 6.499999999999985
  endloop
endfacet
facet normal -0.0 1.0 -0.0
  outer loop
    vertex 136.00000000000006 46.00000000000003 4.5
    vertex 136.00000000000006 46.00000000000003 2.0000000000000004
    vertex 104.00000000000003 46.00000000000003 4.4999999999999805
  endloop
endfacet
facet normal 5.203160609690768e-16 -1.8184191351426275e-15 1.0
  outer loop
    vertex 95.99999999999999 10.000000000000027 4.4999999999999885
    vertex 65.99999999999999 13.000000000000039 4.50000000000001
    vertex 63.99999999999999 10.000000000000027 4.500000000000003
  endloop
endfacet
facet normal 5.203160609690768e-16 -1.8184191351426275e-15 1.0
  outer loop
    vertex 65.99999999999999 13.000000000000039 4.50000000000001
    vertex 95.99999999999999 10.000000000000027 4.4999999999999885
    vertex 96.0 13.000000000000039 4.499999999999991
  endloop
endfacet
facet normal -6.141195198480082e-16 -4.397037134949922e-16 1.0
  outer loop
    vertex 136.00000000000006 10.000000000000027 4.500000000000003
    vertex 104.00000000000003 13.000000000000039 4.499999999999984
    vertex 104.00000000000003 10.000000000000027 4.499999999999982
  endloop
endfacet
facet normal -6.141195198480082e-16 -4.397037134949922e-16 1.0
  outer loop
    vertex 104.00000000000003 13.000000000000039 4.499999999999984
    vertex 136.00000000000006 10.000000000000027 4.500000000000003
    vertex 134.00000000000006 13.000000000000039 4.500000000000003
  endloop
endfacet
facet normal 0.9988756913377408 -0.047406257546342465 0.0
  outer loop
    vertex 151.05047599043365 6.905360740204846 4.93494134445882e-15
    vertex 151.0613591011898 6.775289049373461 2.0000000000000004
    vertex 151.0613591011898 6.775289049373461 4.93494134445882e-15
  endloop
endfacet
facet normal 0.977109469825495 0.21273712411645498 0.0
  outer loop
    vertex 151.0613591011898 6.775289049373461 2.0000000000000004
    vertex 151.05047599043365 6.905360740204846 4.93494134445882e-15
    vertex 151.05047599043365 6.905360740204846 2.0000000000000004
  endloop
endfacet
facet normal 0.977109469825495 0.21273712411645498 0.0
  outer loop
    vertex 151.0613591011898 6.775289049373461 4.93494134445882e-15
    vertex 151.10553640975533 6.652466200263983 2.0000000000000004
    vertex 151.10553640975533 6.652466200263983 4.93494134445882e-15
  endloop
endfacet
facet normal 0.8887548526943804 0.4583828223354254 0.0
  outer loop
    vertex 151.10553640975533 6.652466200263983 2.0000000000000004
    vertex 151.0613591011898 6.775289049373461 4.93494134445882e-15
    vertex 151.0613591011898 6.775289049373461 2.0000000000000004
  endloop
endfacet
facet normal 0.8887548526943804 0.4583828223354254 0.0
  outer loop
    vertex 151.10553640975533 6.652466200263983 4.93494134445882e-15
    vertex 151.17999730555803 6.545262367068868 2.0000000000000004
    vertex 151.17999730555803 6.545262367068868 4.93494134445882e-15
  endloop
endfacet
facet normal 0.739833061088985 0.6727904887256526 0.0
  outer loop
    vertex 151.17999730555803 6.545262367068868 2.0000000000000004
    vertex 151.10553640975533 6.652466200263983 4.93494134445882e-15
    vertex 151.10553640975533 6.652466200263983 2.0000000000000004
  endloop
endfacet
facet normal 0.739833061088985 0.6727904887256526 0.0
  outer loop
    vertex 151.17999730555803 6.545262367068868 2.0000000000000004
    vertex 151.27966740160136 6.460983313857653 4.93494134445882e-15
    vertex 151.17999730555803 6.545262367068868 4.93494134445882e-15
  endloop
endfacet
facet normal 0.5404928690023408 0.8413485951480625 0.0
  outer loop
    vertex 151.27966740160136 6.460983313857653 4.93494134445882e-15
    vertex 151.17999730555803 6.545262367068868 2.0000000000000004
    vertex 151.27966740160136 6.460983313857653 2.0000000000000004
  endloop
endfacet
facet normal 0.5404928690023408 0.8413485951480625 0.0
  outer loop
    vertex 151.27966740160136 6.460983313857653 2.0000000000000004
    vertex 151.3977543455526 6.405372518828963 4.93494134445882e-15
    vertex 151.27966740160136 6.460983313857653 4.93494134445882e-15
  endloop
endfacet
facet normal 0.30431898109986194 0.9525701852054482 0.0
  outer loop
    vertex 151.3977543455526 6.405372518828963 4.93494134445882e-15
    vertex 151.27966740160136 6.460983313857653 2.0000000000000004
    vertex 151.3977543455526 6.405372518828963 2.0000000000000004
  endloop
endfacet
facet normal 0.30431898109986194 0.9525701852054482 0.0
  outer loop
    vertex 151.3977543455526 6.405372518828963 2.0000000000000004
    vertex 151.52621070732937 6.382219765762818 4.93494134445882e-15
    vertex 151.3977543455526 6.405372518828963 4.93494134445882e-15
  endloop
endfacet
facet normal 0.047406257546333125 0.9988756913377413 0.0
  outer loop
    vertex 151.52621070732937 6.382219765762818 4.93494134445882e-15
    vertex 151.3977543455526 6.405372518828963 2.0000000000000004
    vertex 151.52621070732937 6.382219765762818 2.0000000000000004
  endloop
endfacet
facet normal 0.047406257546333125 0.9988756913377413 0.0
  outer loop
    vertex 151.52621070732937 6.382219765762818 2.0000000000000004
    vertex 151.65628239816076 6.39310287651894 4.93494134445882e-15
    vertex 151.52621070732937 6.382219765762818 4.93494134445882e-15
  endloop
endfacet
facet normal -0.21273712411643805 0.9771094698254987 0.0
  outer loop
    vertex 151.65628239816076 6.39310287651894 4.93494134445882e-15
    vertex 151.52621070732937 6.382219765762818 2.0000000000000004
    vertex 151.65628239816076 6.39310287651894 2.0000000000000004
  endloop
endfacet
facet normal -0.21273712411643805 0.9771094698254987 0.0
  outer loop
    vertex 151.65628239816076 6.39310287651894 2.0000000000000004
    vertex 151.77910524727025 6.437280185084493 4.93494134445882e-15
    vertex 151.65628239816076 6.39310287651894 4.93494134445882e-15
  endloop
endfacet
facet normal -0.45838282233540856 0.8887548526943891 0.0
  outer loop
    vertex 151.77910524727025 6.437280185084493 4.93494134445882e-15
    vertex 151.65628239816076 6.39310287651894 2.0000000000000004
    vertex 151.77910524727025 6.437280185084493 2.0000000000000004
  endloop
endfacet
facet normal -0.45838282233540856 0.8887548526943891 0.0
  outer loop
    vertex 151.77910524727025 6.437280185084493 2.0000000000000004
    vertex 151.88630908046537 6.511741080887187 4.93494134445882e-15
    vertex 151.77910524727025 6.437280185084493 4.93494134445882e-15
  endloop
endfacet
facet normal -0.6727904887256625 0.739833061088976 0.0
  outer loop
    vertex 151.88630908046537 6.511741080887187 4.93494134445882e-15
    vertex 151.77910524727025 6.437280185084493 2.0000000000000004
    vertex 151.88630908046537 6.511741080887187 2.0000000000000004
  endloop
endfacet
facet normal -0.8413485951480765 0.5404928690023195 0.0
  outer loop
    vertex 151.97058813367656 6.61141117693052 2.0000000000000004
    vertex 151.88630908046537 6.511741080887187 4.93494134445882e-15
    vertex 151.88630908046537 6.511741080887187 2.0000000000000004
  endloop
endfacet
facet normal -0.6727904887256625 0.739833061088976 0.0
  outer loop
    vertex 151.88630908046537 6.511741080887187 4.93494134445882e-15
    vertex 151.97058813367656 6.61141117693052 2.0000000000000004
    vertex 151.97058813367656 6.61141117693052 4.93494134445882e-15
  endloop
endfacet
facet normal -0.9525701852054362 0.30431898109989947 0.0
  outer loop
    vertex 152.02619892870524 6.7294981208817575 2.0000000000000004
    vertex 151.97058813367656 6.61141117693052 4.93494134445882e-15
    vertex 151.97058813367656 6.61141117693052 2.0000000000000004
  endloop
endfacet
facet normal -0.8413485951480765 0.5404928690023195 0.0
  outer loop
    vertex 151.97058813367656 6.61141117693052 4.93494134445882e-15
    vertex 152.02619892870524 6.7294981208817575 2.0000000000000004
    vertex 152.02619892870524 6.7294981208817575 4.93494134445882e-15
  endloop
endfacet
facet normal -0.9988756913377408 0.047406257546342465 0.0
  outer loop
    vertex 152.0493516817714 6.857954482658526 2.0000000000000004
    vertex 152.02619892870524 6.7294981208817575 4.93494134445882e-15
    vertex 152.02619892870524 6.7294981208817575 2.0000000000000004
  endloop
endfacet
facet normal -0.9525701852054362 0.30431898109989947 0.0
  outer loop
    vertex 152.02619892870524 6.7294981208817575 4.93494134445882e-15
    vertex 152.0493516817714 6.857954482658526 2.0000000000000004
    vertex 152.0493516817714 6.857954482658526 4.93494134445882e-15
  endloop
endfacet
facet normal -0.977109469825495 -0.21273712411645498 0.0
  outer loop
    vertex 152.03846857101527 6.988026173489911 2.0000000000000004
    vertex 152.0493516817714 6.857954482658526 4.93494134445882e-15
    vertex 152.0493516817714 6.857954482658526 2.0000000000000004
  endloop
endfacet
facet normal -0.9988756913377408 0.047406257546342465 0.0
  outer loop
    vertex 152.0493516817714 6.857954482658526 4.93494134445882e-15
    vertex 152.03846857101527 6.988026173489911 2.0000000000000004
    vertex 152.03846857101527 6.988026173489911 4.93494134445882e-15
  endloop
endfacet
facet normal -0.8887548526943804 -0.4583828223354254 0.0
  outer loop
    vertex 151.99429126244974 7.110849022599389 2.0000000000000004
    vertex 152.03846857101527 6.988026173489911 4.93494134445882e-15
    vertex 152.03846857101527 6.988026173489911 2.0000000000000004
  endloop
endfacet
facet normal -0.977109469825495 -0.21273712411645498 0.0
  outer loop
    vertex 152.03846857101527 6.988026173489911 4.93494134445882e-15
    vertex 151.99429126244974 7.110849022599389 2.0000000000000004
    vertex 151.99429126244974 7.110849022599389 4.93494134445882e-15
  endloop
endfacet
facet normal -0.739833061088985 -0.6727904887256526 0.0
  outer loop
    vertex 151.91983036664703 7.218052855794504 2.0000000000000004
    vertex 151.99429126244974 7.110849022599389 4.93494134445882e-15
    vertex 151.99429126244974 7.110849022599389 2.0000000000000004
  endloop
endfacet
facet normal -0.8887548526943804 -0.4583828223354254 0.0
  outer loop
    vertex 151.99429126244974 7.110849022599389 4.93494134445882e-15
    vertex 151.91983036664703 7.218052855794504 2.0000000000000004
    vertex 151.91983036664703 7.218052855794504 4.93494134445882e-15
  endloop
endfacet
facet normal -0.739833061088985 -0.6727904887256526 0.0
  outer loop
    vertex 151.91983036664703 7.218052855794504 2.0000000000000004
    vertex 151.8201602706037 7.302331909005718 4.93494134445882e-15
    vertex 151.91983036664703 7.218052855794504 4.93494134445882e-15
  endloop
endfacet
facet normal -0.5404928690023408 -0.8413485951480625 0.0
  outer loop
    vertex 151.8201602706037 7.302331909005718 4.93494134445882e-15
    vertex 151.91983036664703 7.218052855794504 2.0000000000000004
    vertex 151.8201602706037 7.302331909005718 2.0000000000000004
  endloop
endfacet
facet normal -0.5404928690023408 -0.8413485951480625 0.0
  outer loop
    vertex 151.8201602706037 7.302331909005718 2.0000000000000004
    vertex 151.70207332665245 7.357942704034409 4.93494134445882e-15
    vertex 151.8201602706037 7.302331909005718 4.93494134445882e-15
  endloop
endfacet
facet normal -0.3043189810998671 -0.9525701852054467 0.0
  outer loop
    vertex 151.70207332665245 7.357942704034409 4.93494134445882e-15
    vertex 151.8201602706037 7.302331909005718 2.0000000000000004
    vertex 151.70207332665245 7.357942704034409 2.0000000000000004
  endloop
endfacet
facet normal -0.3043189810998671 -0.9525701852054467 0.0
  outer loop
    vertex 151.70207332665245 7.357942704034409 2.0000000000000004
    vertex 151.5736169648757 7.381095457100556 4.93494134445882e-15
    vertex 151.70207332665245 7.357942704034409 4.93494134445882e-15
  endloop
endfacet
facet normal -0.047406257546333055 -0.9988756913377415 0.0
  outer loop
    vertex 151.5736169648757 7.381095457100556 4.93494134445882e-15
    vertex 151.70207332665245 7.357942704034409 2.0000000000000004
    vertex 151.5736169648757 7.381095457100556 2.0000000000000004
  endloop
endfacet
facet normal -0.047406257546333055 -0.9988756913377415 0.0
  outer loop
    vertex 151.5736169648757 7.381095457100556 2.0000000000000004
    vertex 151.4435452740443 7.370212346344432 4.93494134445882e-15
    vertex 151.5736169648757 7.381095457100556 4.93494134445882e-15
  endloop
endfacet
facet normal 0.21273712411644335 -0.9771094698254975 0.0
  outer loop
    vertex 151.4435452740443 7.370212346344432 4.93494134445882e-15
    vertex 151.5736169648757 7.381095457100556 2.0000000000000004
    vertex 151.4435452740443 7.370212346344432 2.0000000000000004
  endloop
endfacet
facet normal 0.21273712411644335 -0.9771094698254975 0.0
  outer loop
    vertex 151.4435452740443 7.370212346344432 2.0000000000000004
    vertex 151.32072242493481 7.326035037778879 4.93494134445882e-15
    vertex 151.4435452740443 7.370212346344432 4.93494134445882e-15
  endloop
endfacet
facet normal 0.45838282233540856 -0.8887548526943891 0.0
  outer loop
    vertex 151.32072242493481 7.326035037778879 4.93494134445882e-15
    vertex 151.4435452740443 7.370212346344432 2.0000000000000004
    vertex 151.32072242493481 7.326035037778879 2.0000000000000004
  endloop
endfacet
facet normal 0.45838282233540856 -0.8887548526943891 0.0
  outer loop
    vertex 151.32072242493481 7.326035037778879 2.0000000000000004
    vertex 151.2135185917397 7.251574141976184 4.93494134445882e-15
    vertex 151.32072242493481 7.326035037778879 4.93494134445882e-15
  endloop
endfacet
facet normal 0.6727904887256625 -0.739833061088976 0.0
  outer loop
    vertex 151.2135185917397 7.251574141976184 4.93494134445882e-15
    vertex 151.32072242493481 7.326035037778879 2.0000000000000004
    vertex 151.2135185917397 7.251574141976184 2.0000000000000004
  endloop
endfacet
facet normal 0.6727904887256625 -0.739833061088976 0.0
  outer loop
    vertex 151.2135185917397 7.251574141976184 4.93494134445882e-15
    vertex 151.1292395385285 7.151904045932851 2.0000000000000004
    vertex 151.1292395385285 7.151904045932851 4.93494134445882e-15
  endloop
endfacet
facet normal 0.8413485951480765 -0.5404928690023195 0.0
  outer loop
    vertex 151.1292395385285 7.151904045932851 2.0000000000000004
    vertex 151.2135185917397 7.251574141976184 4.93494134445882e-15
    vertex 151.2135185917397 7.251574141976184 2.0000000000000004
  endloop
endfacet
facet normal 0.8413485951480765 -0.5404928690023195 0.0
  outer loop
    vertex 151.1292395385285 7.151904045932851 4.93494134445882e-15
    vertex 151.07362874349982 7.033817101981614 2.0000000000000004
    vertex 151.07362874349982 7.033817101981614 4.93494134445882e-15
  endloop
endfacet
facet normal 0.9525701852054362 -0.30431898109989947 0.0
  outer loop
    vertex 151.07362874349982 7.033817101981614 2.0000000000000004
    vertex 151.1292395385285 7.151904045932851 4.93494134445882e-15
    vertex 151.1292395385285 7.151904045932851 2.0000000000000004
  endloop
endfacet
facet normal 0.9525701852054362 -0.30431898109989947 0.0
  outer loop
    vertex 151.07362874349982 7.033817101981614 4.93494134445882e-15
    vertex 151.05047599043365 6.905360740204846 2.0000000000000004
    vertex 151.05047599043365 6.905360740204846 4.93494134445882e-15
  endloop
endfacet
facet normal 0.9988756913377408 -0.047406257546342465 0.0
  outer loop
    vertex 151.05047599043365 6.905360740204846 2.0000000000000004
    vertex 151.07362874349982 7.033817101981614 4.93494134445882e-15
    vertex 151.07362874349982 7.033817101981614 2.0000000000000004
  endloop
endfacet
facet normal -0.43776654317530245 0.899088679539647 0.0
  outer loop
    vertex 49.803878063492355 6.607075590115498 1.9999999999999991
    vertex 49.912770433624324 6.679044601380812 2.8199664825478975e-15
    vertex 49.803878063492355 6.607075590115498 2.8199664825478975e-15
  endloop
endfacet
facet normal -0.6555512834392522 0.7551506570090166 0.0
  outer loop
    vertex 49.912770433624324 6.679044601380812 2.8199664825478975e-15
    vertex 49.803878063492355 6.607075590115498 1.9999999999999991
    vertex 49.912770433624324 6.679044601380812 1.9999999999999991
  endloop
endfacet
facet normal -0.8286612870865294 0.5597503651486945 0.0
  outer loop
    vertex 49.999325435447965 6.776744747310976 1.9999999999999991
    vertex 49.912770433624324 6.679044601380812 2.8199664825478975e-15
    vertex 49.912770433624324 6.679044601380812 1.9999999999999991
  endloop
endfacet
facet normal -0.6555512834392522 0.7551506570090166 0.0
  outer loop
    vertex 49.912770433624324 6.679044601380812 2.8199664825478975e-15
    vertex 49.999325435447965 6.776744747310976 1.9999999999999991
    vertex 49.999325435447965 6.776744747310976 2.8199664825478975e-15
  endloop
endfacet
facet normal -0.9452993934463932 0.32620401093469265 0.0
  outer loop
    vertex 50.0576444886279 6.893517924417975 1.9999999999999991
    vertex 49.999325435447965 6.776744747310976 2.8199664825478975e-15
    vertex 49.999325435447965 6.776744747310976 1.9999999999999991
  endloop
endfacet
facet normal -0.8286612870865294 0.5597503651486945 0.0
  outer loop
    vertex 49.999325435447965 6.776744747310976 2.8199664825478975e-15
    vertex 50.0576444886279 6.893517924417975 1.9999999999999991
    vertex 50.0576444886279 6.893517924417975 2.8199664825478975e-15
  endloop
endfacet
facet normal -0.9975169083239922 0.07042739245310926 0.0
  outer loop
    vertex 50.0837532460667 7.021406233658765 1.9999999999999991
    vertex 50.0576444886279 6.893517924417975 2.8199664825478975e-15
    vertex 50.0576444886279 6.893517924417975 1.9999999999999991
  endloop
endfacet
facet normal -0.9452993934463932 0.32620401093469265 0.0
  outer loop
    vertex 50.0576444886279 6.893517924417975 2.8199664825478975e-15
    vertex 50.0837532460667 7.021406233658765 1.9999999999999991
    vertex 50.0837532460667 7.021406233658765 2.8199664825478975e-15
  endloop
endfacet
facet normal -0.9817552943739456 -0.19014873643736702 0.0
  outer loop
    vertex 50.075872439091675 7.151694298104009 1.9999999999999991
    vertex 50.0837532460667 7.021406233658765 2.8199664825478975e-15
    vertex 50.0837532460667 7.021406233658765 1.9999999999999991
  endloop
endfacet
facet normal -0.9975169083239922 0.07042739245310926 0.0
  outer loop
    vertex 50.0837532460667 7.021406233658765 2.8199664825478975e-15
    vertex 50.075872439091675 7.151694298104009 1.9999999999999991
    vertex 50.075872439091675 7.151694298104009 2.8199664825478975e-15
  endloop
endfacet
facet normal -0.8990886795396467 -0.4377665431753034 0.0
  outer loop
    vertex 50.03453913167453 7.275503201472973 1.9999999999999991
    vertex 50.075872439091675 7.151694298104009 2.8199664825478975e-15
    vertex 50.075872439091675 7.151694298104009 1.9999999999999991
  endloop
endfacet
facet normal -0.9817552943739456 -0.19014873643736702 0.0
  outer loop
    vertex 50.075872439091675 7.151694298104009 2.8199664825478975e-15
    vertex 50.03453913167453 7.275503201472973 1.9999999999999991
    vertex 50.03453913167453 7.275503201472973 2.8199664825478975e-15
  endloop
endfacet
facet normal -0.7551506570090105 -0.6555512834392592 0.0
  outer loop
    vertex 49.96257012040921 7.384395571604948 1.9999999999999991
    vertex 50.03453913167453 7.275503201472973 2.8199664825478975e-15
    vertex 50.03453913167453 7.275503201472973 1.9999999999999991
  endloop
endfacet
facet normal -0.8990886795396467 -0.4377665431753034 0.0
  outer loop
    vertex 50.03453913167453 7.275503201472973 2.8199664825478975e-15
    vertex 49.96257012040921 7.384395571604948 1.9999999999999991
    vertex 49.96257012040921 7.384395571604948 2.8199664825478975e-15
  endloop
endfacet
facet normal -0.7551506570090105 -0.6555512834392592 0.0
  outer loop
    vertex 49.96257012040921 7.384395571604948 1.9999999999999991
    vertex 49.86486997447904 7.470950573428589 2.8199664825478975e-15
    vertex 49.96257012040921 7.384395571604948 2.8199664825478975e-15
  endloop
endfacet
facet normal -0.5597503651486879 -0.8286612870865339 0.0
  outer loop
    vertex 49.86486997447904 7.470950573428589 2.8199664825478975e-15
    vertex 49.96257012040921 7.384395571604948 1.9999999999999991
    vertex 49.86486997447904 7.470950573428589 1.9999999999999991
  endloop
endfacet
facet normal -0.5597503651486879 -0.8286612870865339 0.0
  outer loop
    vertex 49.86486997447904 7.470950573428589 1.9999999999999991
    vertex 49.74809679737204 7.529269626608519 2.8199664825478975e-15
    vertex 49.86486997447904 7.470950573428589 2.8199664825478975e-15
  endloop
endfacet
facet normal -0.32620401093470014 -0.9452993934463906 0.0
  outer loop
    vertex 49.74809679737204 7.529269626608519 2.8199664825478975e-15
    vertex 49.86486997447904 7.470950573428589 1.9999999999999991
    vertex 49.74809679737204 7.529269626608519 1.9999999999999991
  endloop
endfacet
facet normal -0.32620401093470014 -0.9452993934463906 0.0
  outer loop
    vertex 49.74809679737204 7.529269626608519 1.9999999999999991
    vertex 49.62020848813126 7.555378384047319 2.8199664825478975e-15
    vertex 49.74809679737204 7.529269626608519 2.8199664825478975e-15
  endloop
endfacet
facet normal -0.07042739245311788 -0.9975169083239914 0.0
  outer loop
    vertex 49.62020848813126 7.555378384047319 2.8199664825478975e-15
    vertex 49.74809679737204 7.529269626608519 1.9999999999999991
    vertex 49.62020848813126 7.555378384047319 1.9999999999999991
  endloop
endfacet
facet normal -0.07042739245311788 -0.9975169083239914 0.0
  outer loop
    vertex 49.62020848813126 7.555378384047319 1.9999999999999991
    vertex 49.48992042368601 7.547497577072295 2.8199664825478975e-15
    vertex 49.62020848813126 7.555378384047319 2.8199664825478975e-15
  endloop
endfacet
facet normal 0.1901487364373761 -0.9817552943739438 0.0
  outer loop
    vertex 49.48992042368601 7.547497577072295 2.8199664825478975e-15
    vertex 49.62020848813126 7.555378384047319 1.9999999999999991
    vertex 49.48992042368601 7.547497577072295 1.9999999999999991
  endloop
endfacet
facet normal 0.1901487364373761 -0.9817552943739438 0.0
  outer loop
    vertex 49.48992042368601 7.547497577072295 1.9999999999999991
    vertex 49.36611152031705 7.506164269655146 2.8199664825478975e-15
    vertex 49.48992042368601 7.547497577072295 2.8199664825478975e-15
  endloop
endfacet
facet normal 0.43776654317530245 -0.899088679539647 0.0
  outer loop
    vertex 49.36611152031705 7.506164269655146 2.8199664825478975e-15
    vertex 49.48992042368601 7.547497577072295 1.9999999999999991
    vertex 49.36611152031705 7.506164269655146 1.9999999999999991
  endloop
endfacet
facet normal 0.43776654317530245 -0.899088679539647 0.0
  outer loop
    vertex 49.36611152031705 7.506164269655146 1.9999999999999991
    vertex 49.25721915018507 7.434195258389832 2.8199664825478975e-15
    vertex 49.36611152031705 7.506164269655146 2.8199664825478975e-15
  endloop
endfacet
facet normal 0.655551283439255 -0.7551506570090142 0.0
  outer loop
    vertex 49.25721915018507 7.434195258389832 2.8199664825478975e-15
    vertex 49.36611152031705 7.506164269655146 1.9999999999999991
    vertex 49.25721915018507 7.434195258389832 1.9999999999999991
  endloop
endfacet
facet normal 0.655551283439255 -0.7551506570090142 0.0
  outer loop
    vertex 49.25721915018507 7.434195258389832 2.8199664825478975e-15
    vertex 49.17066414836143 7.336495112459668 1.9999999999999991
    vertex 49.17066414836143 7.336495112459668 2.8199664825478975e-15
  endloop
endfacet
facet normal 0.8286612870865299 -0.5597503651486934 0.0
  outer loop
    vertex 49.17066414836143 7.336495112459668 1.9999999999999991
    vertex 49.25721915018507 7.434195258389832 2.8199664825478975e-15
    vertex 49.25721915018507 7.434195258389832 1.9999999999999991
  endloop
endfacet
facet normal 0.8286612870865299 -0.5597503651486934 0.0
  outer loop
    vertex 49.17066414836143 7.336495112459668 2.8199664825478975e-15
    vertex 49.112345095181496 7.21972193535267 1.9999999999999991
    vertex 49.112345095181496 7.21972193535267 2.8199664825478975e-15
  endloop
endfacet
facet normal 0.9452993934463924 -0.3262040109346949 0.0
  outer loop
    vertex 49.112345095181496 7.21972193535267 1.9999999999999991
    vertex 49.17066414836143 7.336495112459668 2.8199664825478975e-15
    vertex 49.17066414836143 7.336495112459668 1.9999999999999991
  endloop
endfacet
facet normal 0.9452993934463924 -0.3262040109346949 0.0
  outer loop
    vertex 49.112345095181496 7.21972193535267 2.8199664825478975e-15
    vertex 49.086236337742704 7.091833626111879 1.9999999999999991
    vertex 49.086236337742704 7.091833626111879 2.8199664825478975e-15
  endloop
endfacet
facet normal 0.9975169083239922 -0.07042739245310926 0.0
  outer loop
    vertex 49.086236337742704 7.091833626111879 1.9999999999999991
    vertex 49.112345095181496 7.21972193535267 2.8199664825478975e-15
    vertex 49.112345095181496 7.21972193535267 1.9999999999999991
  endloop
endfacet
facet normal 0.9975169083239922 -0.07042739245310926 0.0
  outer loop
    vertex 49.086236337742704 7.091833626111879 2.8199664825478975e-15
    vertex 49.09411714471772 6.961545561666635 1.9999999999999991
    vertex 49.09411714471772 6.961545561666635 2.8199664825478975e-15
  endloop
endfacet
facet normal 0.9817552943739456 0.19014873643736702 0.0
  outer loop
    vertex 49.09411714471772 6.961545561666635 1.9999999999999991
    vertex 49.086236337742704 7.091833626111879 2.8199664825478975e-15
    vertex 49.086236337742704 7.091833626111879 1.9999999999999991
  endloop
endfacet
facet normal 0.9817552943739456 0.19014873643736702 0.0
  outer loop
    vertex 49.09411714471772 6.961545561666635 2.8199664825478975e-15
    vertex 49.13545045213487 6.837736658297671 1.9999999999999991
    vertex 49.13545045213487 6.837736658297671 2.8199664825478975e-15
  endloop
endfacet
facet normal 0.8990886795396467 0.4377665431753034 0.0
  outer loop
    vertex 49.13545045213487 6.837736658297671 1.9999999999999991
    vertex 49.09411714471772 6.961545561666635 2.8199664825478975e-15
    vertex 49.09411714471772 6.961545561666635 1.9999999999999991
  endloop
endfacet
facet normal 0.8990886795396467 0.4377665431753034 0.0
  outer loop
    vertex 49.13545045213487 6.837736658297671 2.8199664825478975e-15
    vertex 49.207419463400186 6.728844288165696 1.9999999999999991
    vertex 49.207419463400186 6.728844288165696 2.8199664825478975e-15
  endloop
endfacet
facet normal 0.7551506570090105 0.6555512834392592 0.0
  outer loop
    vertex 49.207419463400186 6.728844288165696 1.9999999999999991
    vertex 49.13545045213487 6.837736658297671 2.8199664825478975e-15
    vertex 49.13545045213487 6.837736658297671 1.9999999999999991
  endloop
endfacet
facet normal 0.7551506570090105 0.6555512834392592 0.0
  outer loop
    vertex 49.207419463400186 6.728844288165696 1.9999999999999991
    vertex 49.305119609330355 6.642289286342055 2.8199664825478975e-15
    vertex 49.207419463400186 6.728844288165696 2.8199664825478975e-15
  endloop
endfacet
facet normal 0.5597503651486879 0.8286612870865339 0.0
  outer loop
    vertex 49.305119609330355 6.642289286342055 2.8199664825478975e-15
    vertex 49.207419463400186 6.728844288165696 1.9999999999999991
    vertex 49.305119609330355 6.642289286342055 1.9999999999999991
  endloop
endfacet
facet normal 0.5597503651486879 0.8286612870865339 0.0
  outer loop
    vertex 49.305119609330355 6.642289286342055 1.9999999999999991
    vertex 49.421892786437354 6.583970233162125 2.8199664825478975e-15
    vertex 49.305119609330355 6.642289286342055 2.8199664825478975e-15
  endloop
endfacet
facet normal 0.32620401093470014 0.9452993934463906 0.0
  outer loop
    vertex 49.421892786437354 6.583970233162125 2.8199664825478975e-15
    vertex 49.305119609330355 6.642289286342055 1.9999999999999991
    vertex 49.421892786437354 6.583970233162125 1.9999999999999991
  endloop
endfacet
facet normal 0.32620401093470014 0.9452993934463906 0.0
  outer loop
    vertex 49.421892786437354 6.583970233162125 1.9999999999999991
    vertex 49.549781095678135 6.557861475723325 2.8199664825478975e-15
    vertex 49.421892786437354 6.583970233162125 2.8199664825478975e-15
  endloop
endfacet
facet normal 0.07042739245311788 0.9975169083239914 0.0
  outer loop
    vertex 49.549781095678135 6.557861475723325 2.8199664825478975e-15
    vertex 49.421892786437354 6.583970233162125 1.9999999999999991
    vertex 49.549781095678135 6.557861475723325 1.9999999999999991
  endloop
endfacet
facet normal 0.07042739245311788 0.9975169083239914 0.0
  outer loop
    vertex 49.549781095678135 6.557861475723325 1.9999999999999991
    vertex 49.68006916012339 6.565742282698349 2.8199664825478975e-15
    vertex 49.549781095678135 6.557861475723325 2.8199664825478975e-15
  endloop
endfacet
facet normal -0.1901487364373761 0.9817552943739438 0.0
  outer loop
    vertex 49.68006916012339 6.565742282698349 2.8199664825478975e-15
    vertex 49.549781095678135 6.557861475723325 1.9999999999999991
    vertex 49.68006916012339 6.565742282698349 1.9999999999999991
  endloop
endfacet
facet normal -0.1901487364373761 0.9817552943739438 0.0
  outer loop
    vertex 49.68006916012339 6.565742282698349 1.9999999999999991
    vertex 49.803878063492355 6.607075590115498 2.8199664825478975e-15
    vertex 49.68006916012339 6.565742282698349 2.8199664825478975e-15
  endloop
endfacet
facet normal -0.43776654317530245 0.899088679539647 0.0
  outer loop
    vertex 49.803878063492355 6.607075590115498 2.8199664825478975e-15
    vertex 49.68006916012339 6.565742282698349 1.9999999999999991
    vertex 49.803878063492355 6.607075590115498 1.9999999999999991
  endloop
endfacet
endsolid Base
