solid Base
facet normal 0.0 -1.0 0.0
  outer loop
    vertex 200.0 41.0 8.799999999999997
    vertex 198.0 41.0 1.999999999999998
    vertex 200.0 41.0 1.999999999999998
  endloop
endfacet
facet normal 0.0 -1.0 0.0
  outer loop
    vertex 198.0 41.0 1.999999999999998
    vertex 200.0 41.0 8.799999999999997
    vertex 198.0 41.0 8.799999999999997
  endloop
endfacet
facet normal 3.3332731120081458e-18 -1.5726830318593842e-16 1.0
  outer loop
    vertex 1.999999999999998 32.0 1.9999999999999978
    vertex 65.99999999999999 42.99999999999999 2.0000000000000075
    vertex 1.9999999999999998 57.999999999999986 2.0000000000000013
  endloop
endfacet
facet normal 3.3332731120081458e-18 -1.5726830318593842e-16 1.0
  outer loop
    vertex 65.99999999999999 42.99999999999999 2.0000000000000075
    vertex 1.999999999999998 32.0 1.9999999999999978
    vertex 200.0 32.0 1.9999999999999967
  endloop
endfacet
facet normal 3.3332731120081458e-18 -1.5726830318593842e-16 1.0
  outer loop
    vertex 1.9999999999999998 57.999999999999986 2.0000000000000013
    vertex 65.99999999999999 42.99999999999999 2.0000000000000075
    vertex 63.99999999999999 45.0 2.0000000000000004
  endloop
endfacet
facet normal 3.3332731120081458e-18 -1.5726830318593842e-16 1.0
  outer loop
    vertex 65.99999999999999 42.99999999999999 2.0000000000000075
    vertex 200.0 32.0 1.9999999999999967
    vertex 134.00000000000006 42.99999999999999 2.0000000000000004
  endloop
endfacet
facet normal 3.3332731120081458e-18 -1.5726830318593842e-16 1.0
  outer loop
    vertex 134.00000000000006 42.99999999999999 2.0000000000000004
    vertex 200.0 32.0 1.9999999999999967
    vertex 136.00000000000006 45.0 2.0000000000000004
  endloop
endfacet
facet normal 3.3332731120081458e-18 -1.5726830318593842e-16 1.0
  outer loop
    vertex 136.00000000000006 45.0 2.0000000000000004
    vertex 200.0 32.0 1.9999999999999967
    vertex 198.0 41.0 1.999999999999998
  endloop
endfacet
facet normal 3.3332731120081458e-18 -1.5726830318593842e-16 1.0
  outer loop
    vertex 198.0 41.0 1.999999999999998
    vertex 200.0 32.0 1.9999999999999967
    vertex 200.0 41.0 1.999999999999998
  endloop
endfacet
facet normal 3.3332731120081458e-18 -1.5726830318593842e-16 1.0
  outer loop
    vertex 63.99999999999999 45.0 2.0000000000000004
    vertex 198.0 57.999999999999986 2.0000000000000013
    vertex 1.9999999999999998 57.999999999999986 2.0000000000000013
  endloop
endfacet
facet normal 3.3332731120081458e-18 -1.5726830318593842e-16 1.0
  outer loop
    vertex 198.0 57.999999999999986 2.0000000000000013
    vertex 63.99999999999999 45.0 2.0000000000000004
    vertex 136.00000000000006 45.0 2.0000000000000004
  endloop
endfacet
facet normal 3.3332731120081458e-18 -1.5726830318593842e-16 1.0
  outer loop
    vertex 198.0 57.999999999999986 2.0000000000000013
    vertex 136.00000000000006 45.0 2.0000000000000004
    vertex 198.0 41.0 1.999999999999998
  endloop
endfacet
facet normal -2.636521565321646e-18 8.464806583417817e-17 1.0
  outer loop
    vertex 1.9999999999999998 1.9999999999999991 1.9999999999999998
    vertex 48.75817559543013 6.889561995741599 1.9999999999999953
    vertex 48.754869190249266 7.085323363507501 1.9999999999999953
  endloop
endfacet
facet normal -2.636521565321646e-18 8.464806583417817e-17 1.0
  outer loop
    vertex 48.75817559543013 6.889561995741599 1.9999999999999953
    vertex 1.9999999999999998 1.9999999999999991 1.9999999999999998
    vertex 48.81203610785964 6.701326795458466 1.9999999999999953
  endloop
endfacet
facet normal -2.636521565321646e-18 8.464806583417817e-17 1.0
  outer loop
    vertex 48.81203610785964 6.701326795458466 1.9999999999999953
    vertex 1.9999999999999998 1.9999999999999991 1.9999999999999998
    vertex 48.91278022262443 6.533445680484043 1.9999999999999953
  endloop
endfacet
facet normal -2.636521565321646e-18 8.464806583417817e-17 1.0
  outer loop
    vertex 48.91278022262443 6.533445680484043 1.9999999999999953
    vertex 1.9999999999999998 1.9999999999999991 1.9999999999999998
    vertex 49.053542394790796 6.397359471367157 1.9999999999999953
  endloop
endfacet
facet normal -2.636521565321646e-18 8.464806583417817e-17 1.0
  outer loop
    vertex 49.053542394790796 6.397359471367157 1.9999999999999953
    vertex 1.9999999999999998 1.9999999999999991 1.9999999999999998
    vertex 49.22472991494609 6.302342218366038 1.9999999999999953
  endloop
endfacet
facet normal -2.636521565321646e-18 8.464806583417817e-17 1.0
  outer loop
    vertex 49.22472991494609 6.302342218366038 1.9999999999999953
    vertex 1.9999999999999998 1.9999999999999991 1.9999999999999998
    vertex 49.41467663649249 6.254869190249275 1.9999999999999953
  endloop
endfacet
facet normal -2.636521565321646e-18 8.464806583417817e-17 1.0
  outer loop
    vertex 49.41467663649249 6.254869190249275 1.9999999999999953
    vertex 1.9999999999999998 1.9999999999999991 1.9999999999999998
    vertex 198.0 1.9999999999999991 1.9999999999999998
  endloop
endfacet
facet normal -2.636521565321646e-18 8.464806583417817e-17 1.0
  outer loop
    vertex 49.41467663649249 6.254869190249275 1.9999999999999953
    vertex 198.0 1.9999999999999991 1.9999999999999998
    vertex 49.61043800425839 6.258175595430142 1.9999999999999953
  endloop
endfacet
facet normal -2.636521565321646e-18 8.464806583417817e-17 1.0
  outer loop
    vertex 49.61043800425839 6.258175595430142 1.9999999999999953
    vertex 198.0 1.9999999999999991 1.9999999999999998
    vertex 49.798673204541515 6.312036107859647 1.9999999999999953
  endloop
endfacet
facet normal -2.636521565321646e-18 8.464806583417817e-17 1.0
  outer loop
    vertex 49.798673204541515 6.312036107859647 1.9999999999999953
    vertex 198.0 1.9999999999999991 1.9999999999999998
    vertex 49.96655431951595 6.412780222624438 1.9999999999999953
  endloop
endfacet
facet normal -2.636521565321646e-18 8.464806583417817e-17 1.0
  outer loop
    vertex 49.96655431951595 6.412780222624438 1.9999999999999953
    vertex 198.0 1.9999999999999991 1.9999999999999998
    vertex 50.102640528632826 6.553542394790808 1.9999999999999953
  endloop
endfacet
facet normal -2.636521565321646e-18 8.464806583417817e-17 1.0
  outer loop
    vertex 50.102640528632826 6.553542394790808 1.9999999999999953
    vertex 198.0 1.9999999999999991 1.9999999999999998
    vertex 50.19765778163394 6.724729914946104 1.9999999999999953
  endloop
endfacet
facet normal -2.636521565321646e-18 8.464806583417817e-17 1.0
  outer loop
    vertex 50.19765778163394 6.724729914946104 1.9999999999999953
    vertex 198.0 1.9999999999999991 1.9999999999999998
    vertex 50.24513080975071 6.914676636492496 1.9999999999999953
  endloop
endfacet
facet normal -2.636521565321646e-18 8.464806583417817e-17 1.0
  outer loop
    vertex 50.24513080975071 6.914676636492496 1.9999999999999953
    vertex 198.0 1.9999999999999991 1.9999999999999998
    vertex 151.40802037164465 6.255661536686696 1.999999999999999
  endloop
endfacet
facet normal -2.636521565321646e-18 8.464806583417817e-17 1.0
  outer loop
    vertex 50.24513080975071 6.914676636492496 1.9999999999999953
    vertex 151.40802037164465 6.255661536686696 1.999999999999999
    vertex 63.99999999999999 14.99999999999999 2.0000000000000027
  endloop
endfacet
facet normal -2.636521565321646e-18 8.464806583417817e-17 1.0
  outer loop
    vertex 63.99999999999999 14.99999999999999 2.0000000000000027
    vertex 151.40802037164465 6.255661536686696 1.999999999999999
    vertex 151.21850553117127 6.304830334365179 1.999999999999999
  endloop
endfacet
facet normal -2.636521565321646e-18 8.464806583417817e-17 1.0
  outer loop
    vertex 63.99999999999999 14.99999999999999 2.0000000000000027
    vertex 151.21850553117127 6.304830334365179 1.999999999999999
    vertex 151.048174073557 6.4013737959344805 1.999999999999999
  endloop
endfacet
facet normal -2.636521565321646e-18 8.464806583417817e-17 1.0
  outer loop
    vertex 63.99999999999999 14.99999999999999 2.0000000000000027
    vertex 151.048174073557 6.4013737959344805 1.999999999999999
    vertex 136.00000000000006 14.99999999999999 2.0000000000000027
  endloop
endfacet
facet normal -2.636521565321646e-18 8.464806583417817e-17 1.0
  outer loop
    vertex 136.00000000000006 14.99999999999999 2.0000000000000027
    vertex 151.048174073557 6.4013737959344805 1.999999999999999
    vertex 150.90863380615212 6.53871264403427 1.999999999999999
  endloop
endfacet
facet normal -2.636521565321646e-18 8.464806583417817e-17 1.0
  outer loop
    vertex 136.00000000000006 14.99999999999999 2.0000000000000027
    vertex 150.90863380615212 6.53871264403427 1.999999999999999
    vertex 150.80939416757914 6.707487463129729 1.999999999999999
  endloop
endfacet
facet normal -2.636521565321646e-18 8.464806583417817e-17 1.0
  outer loop
    vertex 136.00000000000006 14.99999999999999 2.0000000000000027
    vertex 150.80939416757914 6.707487463129729 1.999999999999999
    vertex 150.75721817520554 6.8961965282130695 1.999999999999999
  endloop
endfacet
facet normal -2.636521565321646e-18 8.464806583417817e-17 1.0
  outer loop
    vertex 136.00000000000006 14.99999999999999 2.0000000000000027
    vertex 150.75721817520554 6.8961965282130695 1.999999999999999
    vertex 150.75566153668672 7.091979628355339 1.999999999999999
  endloop
endfacet
facet normal -2.636521565321646e-18 8.464806583417817e-17 1.0
  outer loop
    vertex 151.40802037164465 6.255661536686696 1.999999999999999
    vertex 198.0 1.9999999999999991 1.9999999999999998
    vertex 151.6038034717869 6.2572181752055505 1.999999999999999
  endloop
endfacet
facet normal -2.636521565321646e-18 8.464806583417817e-17 1.0
  outer loop
    vertex 151.6038034717869 6.2572181752055505 1.999999999999999
    vertex 198.0 1.9999999999999991 1.9999999999999998
    vertex 151.79251253687028 6.309394167579135 1.999999999999999
  endloop
endfacet
facet normal -2.636521565321646e-18 8.464806583417817e-17 1.0
  outer loop
    vertex 151.79251253687028 6.309394167579135 1.999999999999999
    vertex 198.0 1.9999999999999991 1.9999999999999998
    vertex 151.96128735596574 6.408633806152108 1.999999999999999
  endloop
endfacet
facet normal -2.636521565321646e-18 8.464806583417817e-17 1.0
  outer loop
    vertex 151.96128735596574 6.408633806152108 1.999999999999999
    vertex 198.0 1.9999999999999991 1.9999999999999998
    vertex 152.09862620406554 6.548174073556971 1.999999999999999
  endloop
endfacet
facet normal -2.636521565321646e-18 8.464806583417817e-17 1.0
  outer loop
    vertex 152.09862620406554 6.548174073556971 1.999999999999999
    vertex 198.0 1.9999999999999991 1.9999999999999998
    vertex 152.1951696656348 6.71850553117128 1.999999999999999
  endloop
endfacet
facet normal -2.636521565321646e-18 8.464806583417817e-17 1.0
  outer loop
    vertex 152.1951696656348 6.71850553117128 1.999999999999999
    vertex 198.0 1.9999999999999991 1.9999999999999998
    vertex 152.2443384633133 6.908020371644658 1.999999999999999
  endloop
endfacet
facet normal -2.636521565321646e-18 8.464806583417817e-17 1.0
  outer loop
    vertex 1.9999999999999962 28.0 1.9999999999999978
    vertex 65.99999999999999 16.999999999999996 2.0000000000000098
    vertex 200.0 28.0 1.9999999999999971
  endloop
endfacet
facet normal -2.636521565321646e-18 8.464806583417817e-17 1.0
  outer loop
    vertex 65.99999999999999 16.999999999999996 2.0000000000000098
    vertex 1.9999999999999962 28.0 1.9999999999999978
    vertex 1.9999999999999998 1.9999999999999991 1.9999999999999998
  endloop
endfacet
facet normal -2.636521565321646e-18 8.464806583417817e-17 1.0
  outer loop
    vertex 65.99999999999999 16.999999999999996 2.0000000000000098
    vertex 1.9999999999999998 1.9999999999999991 1.9999999999999998
    vertex 49.20132679545846 7.687963892140349 1.9999999999999953
  endloop
endfacet
facet normal -2.636521565321646e-18 8.464806583417817e-17 1.0
  outer loop
    vertex 49.20132679545846 7.687963892140349 1.9999999999999953
    vertex 1.9999999999999998 1.9999999999999991 1.9999999999999998
    vertex 49.03344568048403 7.58721977737556 1.9999999999999953
  endloop
endfacet
facet normal -2.636521565321646e-18 8.464806583417817e-17 1.0
  outer loop
    vertex 49.03344568048403 7.58721977737556 1.9999999999999953
    vertex 1.9999999999999998 1.9999999999999991 1.9999999999999998
    vertex 48.897359471367146 7.446457605209194 1.9999999999999953
  endloop
endfacet
facet normal -2.636521565321646e-18 8.464806583417817e-17 1.0
  outer loop
    vertex 48.897359471367146 7.446457605209194 1.9999999999999953
    vertex 1.9999999999999998 1.9999999999999991 1.9999999999999998
    vertex 48.80234221836603 7.275270085053899 1.9999999999999953
  endloop
endfacet
facet normal -2.636521565321646e-18 8.464806583417817e-17 1.0
  outer loop
    vertex 48.80234221836603 7.275270085053899 1.9999999999999953
    vertex 1.9999999999999998 1.9999999999999991 1.9999999999999998
    vertex 48.754869190249266 7.085323363507501 1.9999999999999953
  endloop
endfacet
facet normal -2.636521565321646e-18 8.464806583417817e-17 1.0
  outer loop
    vertex 65.99999999999999 16.999999999999996 2.0000000000000098
    vertex 49.20132679545846 7.687963892140349 1.9999999999999953
    vertex 49.38956199574159 7.741824404569854 1.9999999999999953
  endloop
endfacet
facet normal -2.636521565321646e-18 8.464806583417817e-17 1.0
  outer loop
    vertex 65.99999999999999 16.999999999999996 2.0000000000000098
    vertex 49.38956199574159 7.741824404569854 1.9999999999999953
    vertex 49.58532336350749 7.745130809750721 1.9999999999999953
  endloop
endfacet
facet normal -2.636521565321646e-18 8.464806583417817e-17 1.0
  outer loop
    vertex 65.99999999999999 16.999999999999996 2.0000000000000098
    vertex 49.58532336350749 7.745130809750721 1.9999999999999953
    vertex 49.77527008505389 7.697657781633959 1.9999999999999953
  endloop
endfacet
facet normal -2.636521565321646e-18 8.464806583417817e-17 1.0
  outer loop
    vertex 65.99999999999999 16.999999999999996 2.0000000000000098
    vertex 49.77527008505389 7.697657781633959 1.9999999999999953
    vertex 49.94645760520918 7.602640528632841 1.9999999999999953
  endloop
endfacet
facet normal -2.636521565321646e-18 8.464806583417817e-17 1.0
  outer loop
    vertex 65.99999999999999 16.999999999999996 2.0000000000000098
    vertex 49.94645760520918 7.602640528632841 1.9999999999999953
    vertex 50.08721977737555 7.46655431951596 1.9999999999999953
  endloop
endfacet
facet normal -2.636521565321646e-18 8.464806583417817e-17 1.0
  outer loop
    vertex 65.99999999999999 16.999999999999996 2.0000000000000098
    vertex 50.08721977737555 7.46655431951596 1.9999999999999953
    vertex 50.187963892140345 7.298673204541531 1.9999999999999953
  endloop
endfacet
facet normal -2.636521565321646e-18 8.464806583417817e-17 1.0
  outer loop
    vertex 65.99999999999999 16.999999999999996 2.0000000000000098
    vertex 50.187963892140345 7.298673204541531 1.9999999999999953
    vertex 50.24182440456985 7.110438004258398 1.9999999999999953
  endloop
endfacet
facet normal -2.636521565321646e-18 8.464806583417817e-17 1.0
  outer loop
    vertex 65.99999999999999 16.999999999999996 2.0000000000000098
    vertex 50.24182440456985 7.110438004258398 1.9999999999999953
    vertex 50.24513080975071 6.914676636492496 1.9999999999999953
  endloop
endfacet
facet normal -2.636521565321646e-18 8.464806583417817e-17 1.0
  outer loop
    vertex 65.99999999999999 16.999999999999996 2.0000000000000098
    vertex 50.24513080975071 6.914676636492496 1.9999999999999953
    vertex 63.99999999999999 14.99999999999999 2.0000000000000027
  endloop
endfacet
facet normal -2.636521565321646e-18 8.464806583417817e-17 1.0
  outer loop
    vertex 200.0 28.0 1.9999999999999971
    vertex 65.99999999999999 16.999999999999996 2.0000000000000098
    vertex 134.00000000000006 16.999999999999996 2.0000000000000027
  endloop
endfacet
facet normal -2.636521565321646e-18 8.464806583417817e-17 1.0
  outer loop
    vertex 200.0 28.0 1.9999999999999971
    vertex 134.00000000000006 16.999999999999996 2.0000000000000027
    vertex 136.00000000000006 14.99999999999999 2.0000000000000027
  endloop
endfacet
facet normal -2.636521565321646e-18 8.464806583417817e-17 1.0
  outer loop
    vertex 200.0 28.0 1.9999999999999971
    vertex 136.00000000000006 14.99999999999999 2.0000000000000027
    vertex 151.20748746312975 7.690605832420863 1.999999999999999
  endloop
endfacet
facet normal -2.636521565321646e-18 8.464806583417817e-17 1.0
  outer loop
    vertex 151.20748746312975 7.690605832420863 1.999999999999999
    vertex 136.00000000000006 14.99999999999999 2.0000000000000027
    vertex 151.0387126440343 7.591366193847889 1.999999999999999
  endloop
endfacet
facet normal -2.636521565321646e-18 8.464806583417817e-17 1.0
  outer loop
    vertex 151.0387126440343 7.591366193847889 1.999999999999999
    vertex 136.00000000000006 14.99999999999999 2.0000000000000027
    vertex 150.9013737959345 7.451825926443026 1.999999999999999
  endloop
endfacet
facet normal -2.636521565321646e-18 8.464806583417817e-17 1.0
  outer loop
    vertex 150.9013737959345 7.451825926443026 1.999999999999999
    vertex 136.00000000000006 14.99999999999999 2.0000000000000027
    vertex 150.8048303343652 7.2814944688287175 1.999999999999999
  endloop
endfacet
facet normal -2.636521565321646e-18 8.464806583417817e-17 1.0
  outer loop
    vertex 150.8048303343652 7.2814944688287175 1.999999999999999
    vertex 136.00000000000006 14.99999999999999 2.0000000000000027
    vertex 150.75566153668672 7.091979628355339 1.999999999999999
  endloop
endfacet
facet normal -2.636521565321646e-18 8.464806583417817e-17 1.0
  outer loop
    vertex 200.0 28.0 1.9999999999999971
    vertex 151.20748746312975 7.690605832420863 1.999999999999999
    vertex 151.39619652821307 7.742781824794446 1.999999999999999
  endloop
endfacet
facet normal -2.636521565321646e-18 8.464806583417817e-17 1.0
  outer loop
    vertex 200.0 28.0 1.9999999999999971
    vertex 151.39619652821307 7.742781824794446 1.999999999999999
    vertex 151.59197962835532 7.7443384633133014 1.999999999999999
  endloop
endfacet
facet normal -2.636521565321646e-18 8.464806583417817e-17 1.0
  outer loop
    vertex 200.0 28.0 1.9999999999999971
    vertex 151.59197962835532 7.7443384633133014 1.999999999999999
    vertex 151.7814944688287 7.695169665634818 1.999999999999999
  endloop
endfacet
facet normal -2.636521565321646e-18 8.464806583417817e-17 1.0
  outer loop
    vertex 200.0 28.0 1.9999999999999971
    vertex 151.7814944688287 7.695169665634818 1.999999999999999
    vertex 151.95182592644304 7.598626204065517 1.999999999999999
  endloop
endfacet
facet normal -2.636521565321646e-18 8.464806583417817e-17 1.0
  outer loop
    vertex 200.0 28.0 1.9999999999999971
    vertex 151.95182592644304 7.598626204065517 1.999999999999999
    vertex 152.0913661938479 7.461287355965728 1.999999999999999
  endloop
endfacet
facet normal -2.636521565321646e-18 8.464806583417817e-17 1.0
  outer loop
    vertex 200.0 28.0 1.9999999999999971
    vertex 152.0913661938479 7.461287355965728 1.999999999999999
    vertex 152.19060583242089 7.292512536870274 1.999999999999999
  endloop
endfacet
facet normal -2.636521565321646e-18 8.464806583417817e-17 1.0
  outer loop
    vertex 200.0 28.0 1.9999999999999971
    vertex 152.19060583242089 7.292512536870274 1.999999999999999
    vertex 152.24278182479443 7.103803471786928 1.999999999999999
  endloop
endfacet
facet normal -2.636521565321646e-18 8.464806583417817e-17 1.0
  outer loop
    vertex 200.0 28.0 1.9999999999999971
    vertex 152.24278182479443 7.103803471786928 1.999999999999999
    vertex 152.2443384633133 6.908020371644658 1.999999999999999
  endloop
endfacet
facet normal -2.636521565321646e-18 8.464806583417817e-17 1.0
  outer loop
    vertex 200.0 28.0 1.9999999999999971
    vertex 152.2443384633133 6.908020371644658 1.999999999999999
    vertex 198.0 19.0 1.9999999999999998
  endloop
endfacet
facet normal -2.636521565321646e-18 8.464806583417817e-17 1.0
  outer loop
    vertex 198.0 19.0 1.9999999999999998
    vertex 152.2443384633133 6.908020371644658 1.999999999999999
    vertex 198.0 1.9999999999999991 1.9999999999999998
  endloop
endfacet
facet normal -2.636521565321646e-18 8.464806583417817e-17 1.0
  outer loop
    vertex 200.0 28.0 1.9999999999999971
    vertex 198.0 19.0 1.9999999999999998
    vertex 200.0 19.0 1.9999999999999998
  endloop
endfacet
facet normal -0.0 1.0 -0.0
  outer loop
    vertex 1.9999999999999962 28.0 0.9999999999999978
    vertex 200.0 28.0 1.9999999999999971
    vertex 200.0 28.0 0.9999999999999971
  endloop
endfacet
facet normal -0.0 1.0 -0.0
  outer loop
    vertex 200.0 28.0 1.9999999999999971
    vertex 1.9999999999999962 28.0 0.9999999999999978
    vertex 1.9999999999999962 28.0 1.9999999999999978
  endloop
endfacet
facet normal -1.0 0.0 0.0
  outer loop
    vertex 198.0 57.999999999999986 8.800000000000002
    vertex 198.0 41.0 1.999999999999998
    vertex 198.0 41.0 8.799999999999997
  endloop
endfacet
facet normal -1.0 0.0 0.0
  outer loop
    vertex 198.0 41.0 1.999999999999998
    vertex 198.0 57.999999999999986 8.800000000000002
    vertex 198.0 57.999999999999986 2.0000000000000013
  endloop
endfacet
facet normal 5.3402326365247686e-18 -1.4060774705224974e-17 1.0
  outer loop
    vertex 0.0 0.0 8.8
    vertex 1.9999999999999998 1.9999999999999991 8.8
    vertex 0.0 59.99999999999998 8.800000000000002
  endloop
endfacet
facet normal 5.3402326365247686e-18 -1.4060774705224974e-17 1.0
  outer loop
    vertex 1.9999999999999998 1.9999999999999991 8.8
    vertex 0.0 0.0 8.8
    vertex 200.0 0.0 8.8
  endloop
endfacet
facet normal 5.3402326365247686e-18 -1.4060774705224974e-17 1.0
  outer loop
    vertex 1.9999999999999998 1.9999999999999991 8.8
    vertex 200.0 0.0 8.8
    vertex 198.0 1.9999999999999991 8.8
  endloop
endfacet
facet normal 5.3402326365247686e-18 -1.4060774705224974e-17 1.0
  outer loop
    vertex 198.0 1.9999999999999991 8.8
    vertex 200.0 0.0 8.8
    vertex 198.0 19.0 8.8
  endloop
endfacet
facet normal 5.3402326365247686e-18 -1.4060774705224974e-17 1.0
  outer loop
    vertex 198.0 19.0 8.8
    vertex 200.0 0.0 8.8
    vertex 200.0 19.0 8.8
  endloop
endfacet
facet normal 5.3402326365247686e-18 -1.4060774705224974e-17 1.0
  outer loop
    vertex 200.0 41.0 8.799999999999997
    vertex 198.0 57.999999999999986 8.800000000000002
    vertex 198.0 41.0 8.799999999999997
  endloop
endfacet
facet normal 5.3402326365247686e-18 -1.4060774705224974e-17 1.0
  outer loop
    vertex 0.0 59.99999999999998 8.800000000000002
    vertex 1.9999999999999998 57.999999999999986 8.800000000000002
    vertex 200.0 59.99999999999998 8.800000000000002
  endloop
endfacet
facet normal 5.3402326365247686e-18 -1.4060774705224974e-17 1.0
  outer loop
    vertex 1.9999999999999998 57.999999999999986 8.800000000000002
    vertex 0.0 59.99999999999998 8.800000000000002
    vertex 1.9999999999999998 1.9999999999999991 8.8
  endloop
endfacet
facet normal 5.3402326365247686e-18 -1.4060774705224974e-17 1.0
  outer loop
    vertex 200.0 59.99999999999998 8.800000000000002
    vertex 1.9999999999999998 57.999999999999986 8.800000000000002
    vertex 198.0 57.999999999999986 8.800000000000002
  endloop
endfacet
facet normal 5.3402326365247686e-18 -1.4060774705224974e-17 1.0
  outer loop
    vertex 200.0 59.99999999999998 8.800000000000002
    vertex 198.0 57.999999999999986 8.800000000000002
    vertex 200.0 41.0 8.799999999999997
  endloop
endfacet
facet normal -0.0 1.0 -0.0
  outer loop
    vertex 0.0 59.99999999999998 8.800000000000002
    vertex 200.0 59.99999999999998 1.4099832412739487e-15
    vertex 0.0 59.99999999999998 1.4099832412739487e-15
  endloop
endfacet
facet normal -0.0 1.0 -0.0
  outer loop
    vertex 200.0 59.99999999999998 1.4099832412739487e-15
    vertex 0.0 59.99999999999998 8.800000000000002
    vertex 200.0 59.99999999999998 8.800000000000002
  endloop
endfacet
facet normal 0.0 -1.0 0.0
  outer loop
    vertex 198.0 57.999999999999986 8.800000000000002
    vertex 1.9999999999999998 57.999999999999986 2.0000000000000013
    vertex 198.0 57.999999999999986 2.0000000000000013
  endloop
endfacet
facet normal 0.0 -1.0 0.0
  outer loop
    vertex 1.9999999999999998 57.999999999999986 2.0000000000000013
    vertex 198.0 57.999999999999986 8.800000000000002
    vertex 1.9999999999999998 57.999999999999986 8.800000000000002
  endloop
endfacet
facet normal 0.0 -1.0 0.0
  outer loop
    vertex 200.0 0.0 8.8
    vertex 0.0 0.0 0.0
    vertex 200.0 0.0 0.0
  endloop
endfacet
facet normal 0.0 -1.0 0.0
  outer loop
    vertex 0.0 0.0 0.0
    vertex 200.0 0.0 8.8
    vertex 0.0 0.0 8.8
  endloop
endfacet
facet normal 1.0 -2.2366485426299812e-18 -2.655292931191282e-16
  outer loop
    vertex 1.999999999999998 32.0 0.9999999999999978
    vertex 1.9999999999999962 28.0 1.9999999999999978
    vertex 1.9999999999999962 28.0 0.9999999999999978
  endloop
endfacet
facet normal 1.0 -2.2366485426299812e-18 -2.655292931191282e-16
  outer loop
    vertex 1.9999999999999962 28.0 1.9999999999999978
    vertex 1.9999999999999998 1.9999999999999991 8.8
    vertex 1.9999999999999998 1.9999999999999991 1.9999999999999998
  endloop
endfacet
facet normal 1.0 -2.2366485426299812e-18 -2.655292931191282e-16
  outer loop
    vertex 1.9999999999999998 1.9999999999999991 8.8
    vertex 1.9999999999999962 28.0 1.9999999999999978
    vertex 1.9999999999999998 57.999999999999986 8.800000000000002
  endloop
endfacet
facet normal 1.0 -2.2366485426299812e-18 -2.655292931191282e-16
  outer loop
    vertex 1.9999999999999998 57.999999999999986 8.800000000000002
    vertex 1.9999999999999962 28.0 1.9999999999999978
    vertex 1.999999999999998 32.0 1.9999999999999978
  endloop
endfacet
facet normal 1.0 -2.2366485426299812e-18 -2.655292931191282e-16
  outer loop
    vertex 1.999999999999998 32.0 1.9999999999999978
    vertex 1.9999999999999962 28.0 1.9999999999999978
    vertex 1.999999999999998 32.0 0.9999999999999978
  endloop
endfacet
facet normal 1.0 -2.2366485426299812e-18 -2.655292931191282e-16
  outer loop
    vertex 1.9999999999999998 57.999999999999986 8.800000000000002
    vertex 1.999999999999998 32.0 1.9999999999999978
    vertex 1.9999999999999998 57.999999999999986 2.0000000000000013
  endloop
endfacet
facet normal -0.0 1.0 -0.0
  outer loop
    vertex 1.9999999999999998 1.9999999999999991 8.8
    vertex 198.0 1.9999999999999991 1.9999999999999998
    vertex 1.9999999999999998 1.9999999999999991 1.9999999999999998
  endloop
endfacet
facet normal -0.0 1.0 -0.0
  outer loop
    vertex 198.0 1.9999999999999991 1.9999999999999998
    vertex 1.9999999999999998 1.9999999999999991 8.8
    vertex 198.0 1.9999999999999991 8.8
  endloop
endfacet
facet normal 0.0 2.3499720687899156e-17 -1.0
  outer loop
    vertex 200.0 59.99999999999998 1.4099832412739487e-15
    vertex 0.0 0.0 0.0
    vertex 0.0 59.99999999999998 1.4099832412739487e-15
  endloop
endfacet
facet normal 0.0 2.3499720687899156e-17 -1.0
  outer loop
    vertex 0.0 0.0 0.0
    vertex 200.0 59.99999999999998 1.4099832412739487e-15
    vertex 49.20132679545846 7.687963892140349 -1.0574874309554614e-15
  endloop
endfacet
facet normal 0.0 2.3499720687899156e-17 -1.0
  outer loop
    vertex 0.0 0.0 0.0
    vertex 49.20132679545846 7.687963892140349 -1.0574874309554614e-15
    vertex 49.03344568048403 7.58721977737556 -1.0574874309554614e-15
  endloop
endfacet
facet normal 0.0 2.3499720687899156e-17 -1.0
  outer loop
    vertex 0.0 0.0 0.0
    vertex 49.03344568048403 7.58721977737556 -1.0574874309554614e-15
    vertex 48.897359471367146 7.446457605209194 -1.0574874309554614e-15
  endloop
endfacet
facet normal 0.0 2.3499720687899156e-17 -1.0
  outer loop
    vertex 0.0 0.0 0.0
    vertex 48.897359471367146 7.446457605209194 -1.0574874309554614e-15
    vertex 48.80234221836603 7.275270085053899 -1.0574874309554614e-15
  endloop
endfacet
facet normal 0.0 2.3499720687899156e-17 -1.0
  outer loop
    vertex 0.0 0.0 0.0
    vertex 48.80234221836603 7.275270085053899 -1.0574874309554614e-15
    vertex 48.754869190249266 7.085323363507501 -1.0574874309554614e-15
  endloop
endfacet
facet normal 0.0 2.3499720687899156e-17 -1.0
  outer loop
    vertex 49.20132679545846 7.687963892140349 -1.0574874309554614e-15
    vertex 200.0 59.99999999999998 1.4099832412739487e-15
    vertex 49.38956199574159 7.741824404569854 -1.0574874309554614e-15
  endloop
endfacet
facet normal 0.0 2.3499720687899156e-17 -1.0
  outer loop
    vertex 49.38956199574159 7.741824404569854 -1.0574874309554614e-15
    vertex 200.0 59.99999999999998 1.4099832412739487e-15
    vertex 49.58532336350749 7.745130809750721 -1.0574874309554614e-15
  endloop
endfacet
facet normal 0.0 2.3499720687899156e-17 -1.0
  outer loop
    vertex 49.58532336350749 7.745130809750721 -1.0574874309554614e-15
    vertex 200.0 59.99999999999998 1.4099832412739487e-15
    vertex 49.77527008505389 7.697657781633959 -1.0574874309554614e-15
  endloop
endfacet
facet normal 0.0 2.3499720687899156e-17 -1.0
  outer loop
    vertex 49.77527008505389 7.697657781633959 -1.0574874309554614e-15
    vertex 200.0 59.99999999999998 1.4099832412739487e-15
    vertex 49.94645760520918 7.602640528632841 -1.0574874309554614e-15
  endloop
endfacet
facet normal 0.0 2.3499720687899156e-17 -1.0
  outer loop
    vertex 49.94645760520918 7.602640528632841 -1.0574874309554614e-15
    vertex 200.0 59.99999999999998 1.4099832412739487e-15
    vertex 50.08721977737555 7.46655431951596 -1.0574874309554614e-15
  endloop
endfacet
facet normal 0.0 2.3499720687899156e-17 -1.0
  outer loop
    vertex 50.08721977737555 7.46655431951596 -1.0574874309554614e-15
    vertex 200.0 59.99999999999998 1.4099832412739487e-15
    vertex 50.187963892140345 7.298673204541531 -1.0574874309554614e-15
  endloop
endfacet
facet normal 0.0 2.3499720687899156e-17 -1.0
  outer loop
    vertex 50.187963892140345 7.298673204541531 -1.0574874309554614e-15
    vertex 200.0 59.99999999999998 1.4099832412739487e-15
    vertex 50.24182440456985 7.110438004258398 -1.0574874309554614e-15
  endloop
endfacet
facet normal 0.0 2.3499720687899156e-17 -1.0
  outer loop
    vertex 50.24182440456985 7.110438004258398 -1.0574874309554614e-15
    vertex 200.0 59.99999999999998 1.4099832412739487e-15
    vertex 50.24513080975071 6.914676636492496 -1.0574874309554614e-15
  endloop
endfacet
facet normal 0.0 2.3499720687899156e-17 -1.0
  outer loop
    vertex 50.24513080975071 6.914676636492496 -1.0574874309554614e-15
    vertex 200.0 59.99999999999998 1.4099832412739487e-15
    vertex 150.9013737959345 7.451825926443026 0.0
  endloop
endfacet
facet normal 0.0 2.3499720687899156e-17 -1.0
  outer loop
    vertex 50.24513080975071 6.914676636492496 -1.0574874309554614e-15
    vertex 150.9013737959345 7.451825926443026 0.0
    vertex 150.8048303343652 7.2814944688287175 0.0
  endloop
endfacet
facet normal 0.0 2.3499720687899156e-17 -1.0
  outer loop
    vertex 50.24513080975071 6.914676636492496 -1.0574874309554614e-15
    vertex 150.8048303343652 7.2814944688287175 0.0
    vertex 150.75566153668672 7.091979628355339 0.0
  endloop
endfacet
facet normal 0.0 2.3499720687899156e-17 -1.0
  outer loop
    vertex 150.9013737959345 7.451825926443026 0.0
    vertex 200.0 59.99999999999998 1.4099832412739487e-15
    vertex 151.0387126440343 7.591366193847889 0.0
  endloop
endfacet
facet normal 0.0 2.3499720687899156e-17 -1.0
  outer loop
    vertex 151.0387126440343 7.591366193847889 0.0
    vertex 200.0 59.99999999999998 1.4099832412739487e-15
    vertex 151.20748746312975 7.690605832420863 0.0
  endloop
endfacet
facet normal 0.0 2.3499720687899156e-17 -1.0
  outer loop
    vertex 151.20748746312975 7.690605832420863 0.0
    vertex 200.0 59.99999999999998 1.4099832412739487e-15
    vertex 151.39619652821307 7.742781824794446 0.0
  endloop
endfacet
facet normal 0.0 2.3499720687899156e-17 -1.0
  outer loop
    vertex 151.39619652821307 7.742781824794446 0.0
    vertex 200.0 59.99999999999998 1.4099832412739487e-15
    vertex 151.59197962835532 7.7443384633133014 0.0
  endloop
endfacet
facet normal 0.0 2.3499720687899156e-17 -1.0
  outer loop
    vertex 151.59197962835532 7.7443384633133014 0.0
    vertex 200.0 59.99999999999998 1.4099832412739487e-15
    vertex 151.7814944688287 7.695169665634818 0.0
  endloop
endfacet
facet normal 0.0 2.3499720687899156e-17 -1.0
  outer loop
    vertex 151.7814944688287 7.695169665634818 0.0
    vertex 200.0 59.99999999999998 1.4099832412739487e-15
    vertex 151.95182592644304 7.598626204065517 0.0
  endloop
endfacet
facet normal 0.0 2.3499720687899156e-17 -1.0
  outer loop
    vertex 151.95182592644304 7.598626204065517 0.0
    vertex 200.0 59.99999999999998 1.4099832412739487e-15
    vertex 152.0913661938479 7.461287355965728 0.0
  endloop
endfacet
facet normal 0.0 2.3499720687899156e-17 -1.0
  outer loop
    vertex 152.0913661938479 7.461287355965728 0.0
    vertex 200.0 59.99999999999998 1.4099832412739487e-15
    vertex 152.19060583242089 7.292512536870274 0.0
  endloop
endfacet
facet normal 0.0 2.3499720687899156e-17 -1.0
  outer loop
    vertex 152.19060583242089 7.292512536870274 0.0
    vertex 200.0 59.99999999999998 1.4099832412739487e-15
    vertex 152.24278182479443 7.103803471786928 0.0
  endloop
endfacet
facet normal 0.0 2.3499720687899156e-17 -1.0
  outer loop
    vertex 152.24278182479443 7.103803471786928 0.0
    vertex 200.0 59.99999999999998 1.4099832412739487e-15
    vertex 152.2443384633133 6.908020371644658 0.0
  endloop
endfacet
facet normal 0.0 2.3499720687899156e-17 -1.0
  outer loop
    vertex 0.0 0.0 0.0
    vertex 49.41467663649249 6.254869190249275 -1.0574874309554614e-15
    vertex 200.0 0.0 0.0
  endloop
endfacet
facet normal 0.0 2.3499720687899156e-17 -1.0
  outer loop
    vertex 49.41467663649249 6.254869190249275 -1.0574874309554614e-15
    vertex 0.0 0.0 0.0
    vertex 49.22472991494609 6.302342218366038 -1.0574874309554614e-15
  endloop
endfacet
facet normal 0.0 2.3499720687899156e-17 -1.0
  outer loop
    vertex 49.22472991494609 6.302342218366038 -1.0574874309554614e-15
    vertex 0.0 0.0 0.0
    vertex 49.053542394790796 6.397359471367157 -1.0574874309554614e-15
  endloop
endfacet
facet normal 0.0 2.3499720687899156e-17 -1.0
  outer loop
    vertex 49.053542394790796 6.397359471367157 -1.0574874309554614e-15
    vertex 0.0 0.0 0.0
    vertex 48.91278022262443 6.533445680484043 -1.0574874309554614e-15
  endloop
endfacet
facet normal 0.0 2.3499720687899156e-17 -1.0
  outer loop
    vertex 48.91278022262443 6.533445680484043 -1.0574874309554614e-15
    vertex 0.0 0.0 0.0
    vertex 48.81203610785964 6.701326795458466 -1.0574874309554614e-15
  endloop
endfacet
facet normal 0.0 2.3499720687899156e-17 -1.0
  outer loop
    vertex 48.81203610785964 6.701326795458466 -1.0574874309554614e-15
    vertex 0.0 0.0 0.0
    vertex 48.75817559543013 6.889561995741599 -1.0574874309554614e-15
  endloop
endfacet
facet normal 0.0 2.3499720687899156e-17 -1.0
  outer loop
    vertex 48.75817559543013 6.889561995741599 -1.0574874309554614e-15
    vertex 0.0 0.0 0.0
    vertex 48.754869190249266 7.085323363507501 -1.0574874309554614e-15
  endloop
endfacet
facet normal 0.0 2.3499720687899156e-17 -1.0
  outer loop
    vertex 200.0 0.0 0.0
    vertex 49.41467663649249 6.254869190249275 -1.0574874309554614e-15
    vertex 49.61043800425839 6.258175595430142 -1.0574874309554614e-15
  endloop
endfacet
facet normal 0.0 2.3499720687899156e-17 -1.0
  outer loop
    vertex 200.0 0.0 0.0
    vertex 49.61043800425839 6.258175595430142 -1.0574874309554614e-15
    vertex 49.798673204541515 6.312036107859647 -1.0574874309554614e-15
  endloop
endfacet
facet normal 0.0 2.3499720687899156e-17 -1.0
  outer loop
    vertex 200.0 0.0 0.0
    vertex 49.798673204541515 6.312036107859647 -1.0574874309554614e-15
    vertex 49.96655431951595 6.412780222624438 -1.0574874309554614e-15
  endloop
endfacet
facet normal 0.0 2.3499720687899156e-17 -1.0
  outer loop
    vertex 200.0 0.0 0.0
    vertex 49.96655431951595 6.412780222624438 -1.0574874309554614e-15
    vertex 50.102640528632826 6.553542394790808 -1.0574874309554614e-15
  endloop
endfacet
facet normal 0.0 2.3499720687899156e-17 -1.0
  outer loop
    vertex 200.0 0.0 0.0
    vertex 50.102640528632826 6.553542394790808 -1.0574874309554614e-15
    vertex 50.19765778163394 6.724729914946104 -1.0574874309554614e-15
  endloop
endfacet
facet normal 0.0 2.3499720687899156e-17 -1.0
  outer loop
    vertex 200.0 0.0 0.0
    vertex 50.19765778163394 6.724729914946104 -1.0574874309554614e-15
    vertex 50.24513080975071 6.914676636492496 -1.0574874309554614e-15
  endloop
endfacet
facet normal 0.0 2.3499720687899156e-17 -1.0
  outer loop
    vertex 200.0 0.0 0.0
    vertex 50.24513080975071 6.914676636492496 -1.0574874309554614e-15
    vertex 151.40802037164465 6.255661536686696 0.0
  endloop
endfacet
facet normal 0.0 2.3499720687899156e-17 -1.0
  outer loop
    vertex 151.40802037164465 6.255661536686696 0.0
    vertex 50.24513080975071 6.914676636492496 -1.0574874309554614e-15
    vertex 151.21850553117127 6.304830334365179 0.0
  endloop
endfacet
facet normal 0.0 2.3499720687899156e-17 -1.0
  outer loop
    vertex 151.21850553117127 6.304830334365179 0.0
    vertex 50.24513080975071 6.914676636492496 -1.0574874309554614e-15
    vertex 151.048174073557 6.4013737959344805 0.0
  endloop
endfacet
facet normal 0.0 2.3499720687899156e-17 -1.0
  outer loop
    vertex 151.048174073557 6.4013737959344805 0.0
    vertex 50.24513080975071 6.914676636492496 -1.0574874309554614e-15
    vertex 150.90863380615212 6.53871264403427 0.0
  endloop
endfacet
facet normal 0.0 2.3499720687899156e-17 -1.0
  outer loop
    vertex 150.90863380615212 6.53871264403427 0.0
    vertex 50.24513080975071 6.914676636492496 -1.0574874309554614e-15
    vertex 150.80939416757914 6.707487463129729 0.0
  endloop
endfacet
facet normal 0.0 2.3499720687899156e-17 -1.0
  outer loop
    vertex 150.80939416757914 6.707487463129729 0.0
    vertex 50.24513080975071 6.914676636492496 -1.0574874309554614e-15
    vertex 150.75721817520554 6.8961965282130695 0.0
  endloop
endfacet
facet normal 0.0 2.3499720687899156e-17 -1.0
  outer loop
    vertex 150.75721817520554 6.8961965282130695 0.0
    vertex 50.24513080975071 6.914676636492496 -1.0574874309554614e-15
    vertex 150.75566153668672 7.091979628355339 0.0
  endloop
endfacet
facet normal 0.0 2.3499720687899156e-17 -1.0
  outer loop
    vertex 200.0 0.0 0.0
    vertex 151.40802037164465 6.255661536686696 0.0
    vertex 151.6038034717869 6.2572181752055505 0.0
  endloop
endfacet
facet normal 0.0 2.3499720687899156e-17 -1.0
  outer loop
    vertex 200.0 0.0 0.0
    vertex 151.6038034717869 6.2572181752055505 0.0
    vertex 151.79251253687028 6.309394167579135 0.0
  endloop
endfacet
facet normal 0.0 2.3499720687899156e-17 -1.0
  outer loop
    vertex 200.0 0.0 0.0
    vertex 151.79251253687028 6.309394167579135 0.0
    vertex 151.96128735596574 6.408633806152108 0.0
  endloop
endfacet
facet normal 0.0 2.3499720687899156e-17 -1.0
  outer loop
    vertex 200.0 0.0 0.0
    vertex 151.96128735596574 6.408633806152108 0.0
    vertex 152.09862620406554 6.548174073556971 0.0
  endloop
endfacet
facet normal 0.0 2.3499720687899156e-17 -1.0
  outer loop
    vertex 200.0 0.0 0.0
    vertex 152.09862620406554 6.548174073556971 0.0
    vertex 152.1951696656348 6.71850553117128 0.0
  endloop
endfacet
facet normal 0.0 2.3499720687899156e-17 -1.0
  outer loop
    vertex 200.0 0.0 0.0
    vertex 152.1951696656348 6.71850553117128 0.0
    vertex 152.2443384633133 6.908020371644658 0.0
  endloop
endfacet
facet normal 0.0 2.3499720687899156e-17 -1.0
  outer loop
    vertex 200.0 0.0 0.0
    vertex 152.2443384633133 6.908020371644658 0.0
    vertex 200.0 59.99999999999998 1.4099832412739487e-15
  endloop
endfacet
facet normal 1.0 -0.0 -0.0
  outer loop
    vertex 200.0 0.0 0.0
    vertex 200.0 19.0 1.9999999999999998
    vertex 200.0 0.0 8.8
  endloop
endfacet
facet normal 1.0 -0.0 -0.0
  outer loop
    vertex 200.0 19.0 1.9999999999999998
    vertex 200.0 0.0 0.0
    vertex 200.0 28.0 0.9999999999999971
  endloop
endfacet
facet normal 1.0 -0.0 -0.0
  outer loop
    vertex 200.0 28.0 0.9999999999999971
    vertex 200.0 0.0 0.0
    vertex 200.0 59.99999999999998 1.4099832412739487e-15
  endloop
endfacet
facet normal 1.0 -0.0 -0.0
  outer loop
    vertex 200.0 28.0 0.9999999999999971
    vertex 200.0 59.99999999999998 1.4099832412739487e-15
    vertex 200.0 32.0 0.9999999999999968
  endloop
endfacet
facet normal 1.0 -0.0 -0.0
  outer loop
    vertex 200.0 32.0 0.9999999999999968
    vertex 200.0 59.99999999999998 1.4099832412739487e-15
    vertex 200.0 32.0 1.9999999999999967
  endloop
endfacet
facet normal 1.0 -0.0 -0.0
  outer loop
    vertex 200.0 32.0 1.9999999999999967
    vertex 200.0 59.99999999999998 1.4099832412739487e-15
    vertex 200.0 41.0 1.999999999999998
  endloop
endfacet
facet normal 1.0 -0.0 -0.0
  outer loop
    vertex 200.0 41.0 1.999999999999998
    vertex 200.0 59.99999999999998 1.4099832412739487e-15
    vertex 200.0 41.0 8.799999999999997
  endloop
endfacet
facet normal 1.0 -0.0 -0.0
  outer loop
    vertex 200.0 41.0 8.799999999999997
    vertex 200.0 59.99999999999998 1.4099832412739487e-15
    vertex 200.0 59.99999999999998 8.800000000000002
  endloop
endfacet
facet normal 1.0 -0.0 -0.0
  outer loop
    vertex 200.0 28.0 1.9999999999999971
    vertex 200.0 19.0 1.9999999999999998
    vertex 200.0 28.0 0.9999999999999971
  endloop
endfacet
facet normal 1.0 -0.0 -0.0
  outer loop
    vertex 200.0 19.0 8.8
    vertex 200.0 0.0 8.8
    vertex 200.0 19.0 1.9999999999999998
  endloop
endfacet
facet normal -1.0 0.0 0.0
  outer loop
    vertex 198.0 19.0 8.8
    vertex 198.0 1.9999999999999991 1.9999999999999998
    vertex 198.0 1.9999999999999991 8.8
  endloop
endfacet
facet normal -1.0 0.0 0.0
  outer loop
    vertex 198.0 1.9999999999999991 1.9999999999999998
    vertex 198.0 19.0 8.8
    vertex 198.0 19.0 1.9999999999999998
  endloop
endfacet
facet normal -0.0 1.0 -0.0
  outer loop
    vertex 198.0 19.0 8.8
    vertex 200.0 19.0 1.9999999999999998
    vertex 198.0 19.0 1.9999999999999998
  endloop
endfacet
facet normal -0.0 1.0 -0.0
  outer loop
    vertex 200.0 19.0 1.9999999999999998
    vertex 198.0 19.0 8.8
    vertex 200.0 19.0 8.8
  endloop
endfacet
facet normal -1.0 0.0 0.0
  outer loop
    vertex 0.0 59.99999999999998 8.800000000000002
    vertex 0.0 0.0 0.0
    vertex 0.0 0.0 8.8
  endloop
endfacet
facet normal -1.0 0.0 0.0
  outer loop
    vertex 0.0 0.0 0.0
    vertex 0.0 59.99999999999998 8.800000000000002
    vertex 0.0 59.99999999999998 1.4099832412739487e-15
  endloop
endfacet
facet normal 4.450704675738475e-18 4.406197628981085e-17 1.0
  outer loop
    vertex 200.0 28.0 0.9999999999999971
    vertex 1.999999999999998 32.0 0.9999999999999978
    vertex 1.9999999999999962 28.0 0.9999999999999978
  endloop
endfacet
facet normal 4.450704675738475e-18 4.406197628981085e-17 1.0
  outer loop
    vertex 1.999999999999998 32.0 0.9999999999999978
    vertex 200.0 28.0 0.9999999999999971
    vertex 200.0 32.0 0.9999999999999968
  endloop
endfacet
facet normal 0.0 -1.0 0.0
  outer loop
    vertex 200.0 32.0 1.9999999999999967
    vertex 1.999999999999998 32.0 0.9999999999999978
    vertex 200.0 32.0 0.9999999999999968
  endloop
endfacet
facet normal 0.0 -1.0 0.0
  outer loop
    vertex 1.999999999999998 32.0 0.9999999999999978
    vertex 200.0 32.0 1.9999999999999967
    vertex 1.999999999999998 32.0 1.9999999999999978
  endloop
endfacet
facet normal 4.887788560696799e-17 -1.7624790515924295e-15 1.0
  outer loop
    vertex 136.00000000000006 14.99999999999999 2.0000000000000027
    vertex 65.99999999999999 16.999999999999996 2.0000000000000098
    vertex 63.99999999999999 14.99999999999999 2.0000000000000027
  endloop
endfacet
facet normal 4.887788560696799e-17 -1.7624790515924295e-15 1.0
  outer loop
    vertex 65.99999999999999 16.999999999999996 2.0000000000000098
    vertex 136.00000000000006 14.99999999999999 2.0000000000000027
    vertex 134.00000000000006 16.999999999999996 2.0000000000000027
  endloop
endfacet
facet normal 5.203160609690768e-16 -2.7276287027139394e-15 1.0
  outer loop
    vertex 95.99999999999999 14.99999999999999 4.4999999999999885
    vertex 65.99999999999999 16.999999999999996 4.50000000000001
    vertex 63.99999999999999 14.99999999999999 4.500000000000003
  endloop
endfacet
facet normal 5.203160609690768e-16 -2.7276287027139394e-15 1.0
  outer loop
    vertex 65.99999999999999 16.999999999999996 4.50000000000001
    vertex 95.99999999999999 14.99999999999999 4.4999999999999885
    vertex 96.0 16.999999999999996 4.499999999999991
  endloop
endfacet
facet normal -0.0 1.0 -0.0
  outer loop
    vertex 65.99999999999999 16.999999999999996 2.0000000000000098
    vertex 134.00000000000006 16.999999999999996 4.500000000000003
    vertex 134.00000000000006 16.999999999999996 2.0000000000000027
  endloop
endfacet
facet normal -0.0 1.0 -0.0
  outer loop
    vertex 134.00000000000006 16.999999999999996 4.500000000000003
    vertex 65.99999999999999 16.999999999999996 2.0000000000000098
    vertex 104.00000000000003 16.999999999999996 4.499999999999984
  endloop
endfacet
facet normal -0.0 1.0 -0.0
  outer loop
    vertex 65.99999999999999 16.999999999999996 4.50000000000001
    vertex 104.00000000000003 16.999999999999996 4.499999999999984
    vertex 65.99999999999999 16.999999999999996 2.0000000000000098
  endloop
endfacet
facet normal -0.0 1.0 -0.0
  outer loop
    vertex 104.00000000000003 16.999999999999996 4.499999999999984
    vertex 65.99999999999999 16.999999999999996 4.50000000000001
    vertex 96.0 16.999999999999996 4.499999999999991
  endloop
endfacet
facet normal -0.0 1.0 -0.0
  outer loop
    vertex 96.0 16.999999999999996 4.499999999999991
    vertex 104.00000000000003 16.999999999999996 6.499999999999985
    vertex 104.00000000000003 16.999999999999996 4.499999999999984
  endloop
endfacet
facet normal -0.0 1.0 -0.0
  outer loop
    vertex 104.00000000000003 16.999999999999996 6.499999999999985
    vertex 96.0 16.999999999999996 4.499999999999991
    vertex 96.0 16.999999999999996 6.499999999999991
  endloop
endfacet
facet normal -0.7071067811865495 0.7071067811865456 3.1655026582647016e-17
  outer loop
    vertex 65.99999999999999 16.999999999999996 4.50000000000001
    vertex 63.99999999999999 14.99999999999999 2.0000000000000027
    vertex 63.99999999999999 14.99999999999999 4.500000000000003
  endloop
endfacet
facet normal -0.7071067811865495 0.7071067811865456 3.1655026582647016e-17
  outer loop
    vertex 63.99999999999999 14.99999999999999 2.0000000000000027
    vertex 65.99999999999999 16.999999999999996 4.50000000000001
    vertex 65.99999999999999 16.999999999999996 2.0000000000000098
  endloop
endfacet
facet normal -6.141195198480083e-16 -6.595555702424885e-16 1.0
  outer loop
    vertex 136.00000000000006 14.99999999999999 4.500000000000003
    vertex 104.00000000000003 16.999999999999996 4.499999999999984
    vertex 104.00000000000003 14.99999999999999 4.499999999999982
  endloop
endfacet
facet normal -6.141195198480083e-16 -6.595555702424885e-16 1.0
  outer loop
    vertex 104.00000000000003 16.999999999999996 4.499999999999984
    vertex 136.00000000000006 14.99999999999999 4.500000000000003
    vertex 134.00000000000006 16.999999999999996 4.500000000000003
  endloop
endfacet
facet normal 0.0 -1.0 0.0
  outer loop
    vertex 136.00000000000006 14.99999999999999 4.500000000000003
    vertex 63.99999999999999 14.99999999999999 2.0000000000000027
    vertex 136.00000000000006 14.99999999999999 2.0000000000000027
  endloop
endfacet
facet normal 0.0 -1.0 0.0
  outer loop
    vertex 63.99999999999999 14.99999999999999 2.0000000000000027
    vertex 136.00000000000006 14.99999999999999 4.500000000000003
    vertex 104.00000000000003 14.99999999999999 4.499999999999982
  endloop
endfacet
facet normal 0.0 -1.0 0.0
  outer loop
    vertex 104.00000000000003 14.99999999999999 6.499999999999982
    vertex 95.99999999999999 14.99999999999999 4.4999999999999885
    vertex 104.00000000000003 14.99999999999999 4.499999999999982
  endloop
endfacet
facet normal 0.0 -1.0 0.0
  outer loop
    vertex 95.99999999999999 14.99999999999999 4.4999999999999885
    vertex 104.00000000000003 14.99999999999999 6.499999999999982
    vertex 95.99999999999999 14.99999999999999 6.4999999999999885
  endloop
endfacet
facet normal 0.0 -1.0 0.0
  outer loop
    vertex 104.00000000000003 14.99999999999999 4.499999999999982
    vertex 63.99999999999999 14.99999999999999 4.500000000000003
    vertex 63.99999999999999 14.99999999999999 2.0000000000000027
  endloop
endfacet
facet normal 0.0 -1.0 0.0
  outer loop
    vertex 63.99999999999999 14.99999999999999 4.500000000000003
    vertex 104.00000000000003 14.99999999999999 4.499999999999982
    vertex 95.99999999999999 14.99999999999999 4.4999999999999885
  endloop
endfacet
facet normal 7.049916206369702e-16 -1.4099832412739454e-15 1.0
  outer loop
    vertex 104.00000000000003 14.99999999999999 6.499999999999982
    vertex 96.0 16.999999999999996 6.499999999999991
    vertex 95.99999999999999 14.99999999999999 6.4999999999999885
  endloop
endfacet
facet normal 7.049916206369702e-16 -1.4099832412739454e-15 1.0
  outer loop
    vertex 96.0 16.999999999999996 6.499999999999991
    vertex 104.00000000000003 14.99999999999999 6.499999999999982
    vertex 104.00000000000003 16.999999999999996 6.499999999999985
  endloop
endfacet
facet normal 1.0 -0.0 -0.0
  outer loop
    vertex 104.00000000000003 16.999999999999996 4.499999999999984
    vertex 104.00000000000003 14.99999999999999 6.499999999999982
    vertex 104.00000000000003 14.99999999999999 4.499999999999982
  endloop
endfacet
facet normal 1.0 -0.0 -0.0
  outer loop
    vertex 104.00000000000003 14.99999999999999 6.499999999999982
    vertex 104.00000000000003 16.999999999999996 4.499999999999984
    vertex 104.00000000000003 16.999999999999996 6.499999999999985
  endloop
endfacet
facet normal -1.0 5.639932965095774e-15 6.21266481460738e-32
  outer loop
    vertex 96.0 16.999999999999996 6.499999999999991
    vertex 95.99999999999999 14.99999999999999 4.4999999999999885
    vertex 95.99999999999999 14.99999999999999 6.4999999999999885
  endloop
endfacet
facet normal -1.0 5.639932965095774e-15 6.21266481460738e-32
  outer loop
    vertex 95.99999999999999 14.99999999999999 4.4999999999999885
    vertex 96.0 16.999999999999996 6.499999999999991
    vertex 96.0 16.999999999999996 4.499999999999991
  endloop
endfacet
facet normal 0.7071067811865495 0.7071067811865456 -0.0
  outer loop
    vertex 134.00000000000006 16.999999999999996 2.0000000000000027
    vertex 136.00000000000006 14.99999999999999 4.500000000000003
    vertex 136.00000000000006 14.99999999999999 2.0000000000000027
  endloop
endfacet
facet normal 0.7071067811865495 0.7071067811865456 -0.0
  outer loop
    vertex 136.00000000000006 14.99999999999999 4.500000000000003
    vertex 134.00000000000006 16.999999999999996 2.0000000000000027
    vertex 134.00000000000006 16.999999999999996 4.500000000000003
  endloop
endfacet
facet normal 7.049916206369702e-16 1.4099832412739454e-15 1.0
  outer loop
    vertex 96.0 42.99999999999999 6.4999999999999885
    vertex 104.00000000000003 45.0 6.49999999999998
    vertex 95.99999999999999 45.0 6.499999999999985
  endloop
endfacet
facet normal 7.049916206369702e-16 1.4099832412739454e-15 1.0
  outer loop
    vertex 104.00000000000003 45.0 6.49999999999998
    vertex 96.0 42.99999999999999 6.4999999999999885
    vertex 104.00000000000003 42.99999999999999 6.499999999999982
  endloop
endfacet
facet normal 1.0 -0.0 -0.0
  outer loop
    vertex 104.00000000000003 45.0 4.4999999999999805
    vertex 104.00000000000003 42.99999999999999 6.499999999999982
    vertex 104.00000000000003 42.99999999999999 4.499999999999982
  endloop
endfacet
facet normal 1.0 -0.0 -0.0
  outer loop
    vertex 104.00000000000003 42.99999999999999 6.499999999999982
    vertex 104.00000000000003 45.0 4.4999999999999805
    vertex 104.00000000000003 45.0 6.49999999999998
  endloop
endfacet
facet normal -1.0 -5.6399329650957744e-15 6.212664814607385e-32
  outer loop
    vertex 95.99999999999999 45.0 6.499999999999985
    vertex 96.0 42.99999999999999 4.499999999999989
    vertex 96.0 42.99999999999999 6.4999999999999885
  endloop
endfacet
facet normal -1.0 -5.6399329650957744e-15 6.212664814607385e-32
  outer loop
    vertex 96.0 42.99999999999999 4.499999999999989
    vertex 95.99999999999999 45.0 6.499999999999985
    vertex 95.99999999999999 45.0 4.499999999999986
  endloop
endfacet
facet normal -0.7071067811865495 -0.7071067811865456 3.1655026582647016e-17
  outer loop
    vertex 63.99999999999999 45.0 4.5
    vertex 65.99999999999999 42.99999999999999 2.0000000000000075
    vertex 65.99999999999999 42.99999999999999 4.500000000000007
  endloop
endfacet
facet normal -0.7071067811865495 -0.7071067811865456 3.1655026582647016e-17
  outer loop
    vertex 65.99999999999999 42.99999999999999 2.0000000000000075
    vertex 63.99999999999999 45.0 4.5
    vertex 63.99999999999999 45.0 2.0000000000000004
  endloop
endfacet
facet normal 0.0 -1.0 0.0
  outer loop
    vertex 134.00000000000006 42.99999999999999 4.5
    vertex 65.99999999999999 42.99999999999999 2.0000000000000075
    vertex 134.00000000000006 42.99999999999999 2.0000000000000004
  endloop
endfacet
facet normal 0.0 -1.0 0.0
  outer loop
    vertex 65.99999999999999 42.99999999999999 2.0000000000000075
    vertex 134.00000000000006 42.99999999999999 4.5
    vertex 104.00000000000003 42.99999999999999 4.499999999999982
  endloop
endfacet
facet normal 0.0 -1.0 0.0
  outer loop
    vertex 104.00000000000003 42.99999999999999 6.499999999999982
    vertex 96.0 42.99999999999999 4.499999999999989
    vertex 104.00000000000003 42.99999999999999 4.499999999999982
  endloop
endfacet
facet normal 0.0 -1.0 0.0
  outer loop
    vertex 96.0 42.99999999999999 4.499999999999989
    vertex 104.00000000000003 42.99999999999999 6.499999999999982
    vertex 96.0 42.99999999999999 6.4999999999999885
  endloop
endfacet
facet normal 0.0 -1.0 0.0
  outer loop
    vertex 104.00000000000003 42.99999999999999 4.499999999999982
    vertex 65.99999999999999 42.99999999999999 4.500000000000007
    vertex 65.99999999999999 42.99999999999999 2.0000000000000075
  endloop
endfacet
facet normal 0.0 -1.0 0.0
  outer loop
    vertex 65.99999999999999 42.99999999999999 4.500000000000007
    vertex 104.00000000000003 42.99999999999999 4.499999999999982
    vertex 96.0 42.99999999999999 4.499999999999989
  endloop
endfacet
facet normal -6.141195198480083e-16 6.595555702424885e-16 1.0
  outer loop
    vertex 134.00000000000006 42.99999999999999 4.5
    vertex 104.00000000000003 45.0 4.4999999999999805
    vertex 104.00000000000003 42.99999999999999 4.499999999999982
  endloop
endfacet
facet normal -6.141195198480083e-16 6.595555702424885e-16 1.0
  outer loop
    vertex 104.00000000000003 45.0 4.4999999999999805
    vertex 134.00000000000006 42.99999999999999 4.5
    vertex 136.00000000000006 45.0 4.5
  endloop
endfacet
facet normal 0.7071067811865495 -0.7071067811865456 -0.0
  outer loop
    vertex 136.00000000000006 45.0 2.0000000000000004
    vertex 134.00000000000006 42.99999999999999 4.5
    vertex 134.00000000000006 42.99999999999999 2.0000000000000004
  endloop
endfacet
facet normal 0.7071067811865495 -0.7071067811865456 -0.0
  outer loop
    vertex 134.00000000000006 42.99999999999999 4.5
    vertex 136.00000000000006 45.0 2.0000000000000004
    vertex 136.00000000000006 45.0 4.5
  endloop
endfacet
facet normal -0.0 1.0 -0.0
  outer loop
    vertex 63.99999999999999 45.0 4.5
    vertex 136.00000000000006 45.0 2.0000000000000004
    vertex 63.99999999999999 45.0 2.0000000000000004
  endloop
endfacet
facet normal -0.0 1.0 -0.0
  outer loop
    vertex 136.00000000000006 45.0 2.0000000000000004
    vertex 63.99999999999999 45.0 4.5
    vertex 104.00000000000003 45.0 4.4999999999999805
  endloop
endfacet
facet normal -0.0 1.0 -0.0
  outer loop
    vertex 104.00000000000003 45.0 4.4999999999999805
    vertex 63.99999999999999 45.0 4.5
    vertex 95.99999999999999 45.0 4.499999999999986
  endloop
endfacet
facet normal -0.0 1.0 -0.0
  outer loop
    vertex 95.99999999999999 45.0 4.499999999999986
    vertex 104.00000000000003 45.0 6.49999999999998
    vertex 104.00000000000003 45.0 4.4999999999999805
  endloop
endfacet
facet normal -0.0 1.0 -0.0
  outer loop
    vertex 104.00000000000003 45.0 6.49999999999998
    vertex 95.99999999999999 45.0 4.499999999999986
    vertex 95.99999999999999 45.0 6.499999999999985
  endloop
endfacet
facet normal -0.0 1.0 -0.0
  outer loop
    vertex 136.00000000000006 45.0 4.5
    vertex 136.00000000000006 45.0 2.0000000000000004
    vertex 104.00000000000003 45.0 4.4999999999999805
  endloop
endfacet
facet normal 5.203160609690768e-16 2.7276287027139394e-15 1.0
  outer loop
    vertex 65.99999999999999 42.99999999999999 4.500000000000007
    vertex 95.99999999999999 45.0 4.499999999999986
    vertex 63.99999999999999 45.0 4.5
  endloop
endfacet
facet normal 5.203160609690768e-16 2.7276287027139394e-15 1.0
  outer loop
    vertex 95.99999999999999 45.0 4.499999999999986
    vertex 65.99999999999999 42.99999999999999 4.500000000000007
    vertex 96.0 42.99999999999999 4.499999999999989
  endloop
endfacet
facet normal -4.887788560696799e-17 -1.7624790515924295e-15 -1.0
  outer loop
    vertex 136.00000000000006 45.0 2.0000000000000004
    vertex 65.99999999999999 42.99999999999999 2.0000000000000075
    vertex 63.99999999999999 45.0 2.0000000000000004
  endloop
endfacet
facet normal -4.887788560696799e-17 -1.7624790515924295e-15 -1.0
  outer loop
    vertex 65.99999999999999 42.99999999999999 2.0000000000000075
    vertex 136.00000000000006 45.0 2.0000000000000004
    vertex 134.00000000000006 42.99999999999999 2.0000000000000004
  endloop
endfacet
facet normal -0.7884882584638432 -0.6150498079543278 0.0
  outer loop
    vertex 152.0913661938479 7.461287355965728 1.999999999999999
    vertex 152.19060583242089 7.292512536870274 0.0
    vertex 152.19060583242089 7.292512536870274 1.999999999999999
  endloop
endfacet
facet normal -0.9208077765611842 -0.39001671582696046 0.0
  outer loop
    vertex 152.19060583242089 7.292512536870274 0.0
    vertex 152.0913661938479 7.461287355965728 1.999999999999999
    vertex 152.0913661938479 7.461287355965728 0.0
  endloop
endfacet
facet normal -0.7884882584638432 -0.6150498079543278 0.0
  outer loop
    vertex 152.0913661938479 7.461287355965728 1.999999999999999
    vertex 151.95182592644304 7.598626204065517 0.0
    vertex 152.0913661938479 7.461287355965728 0.0
  endloop
endfacet
facet normal -0.6024345685906738 -0.7981682720873894 0.0
  outer loop
    vertex 151.95182592644304 7.598626204065517 0.0
    vertex 152.0913661938479 7.461287355965728 1.999999999999999
    vertex 151.95182592644304 7.598626204065517 1.999999999999999
  endloop
endfacet
facet normal -0.6024345685906738 -0.7981682720873894 0.0
  outer loop
    vertex 151.95182592644304 7.598626204065517 1.999999999999999
    vertex 151.7814944688287 7.695169665634818 0.0
    vertex 151.95182592644304 7.598626204065517 0.0
  endloop
endfacet
facet normal -0.3753259584382692 -0.926892887513112 0.0
  outer loop
    vertex 151.7814944688287 7.695169665634818 0.0
    vertex 151.95182592644304 7.598626204065517 1.999999999999999
    vertex 151.7814944688287 7.695169665634818 1.999999999999999
  endloop
endfacet
facet normal -0.3753259584382692 -0.926892887513112 0.0
  outer loop
    vertex 151.7814944688287 7.695169665634818 1.999999999999999
    vertex 151.59197962835532 7.7443384633133014 0.0
    vertex 151.7814944688287 7.695169665634818 0.0
  endloop
endfacet
facet normal -0.1226395044737879 -0.9924512844177411 0.0
  outer loop
    vertex 151.59197962835532 7.7443384633133014 0.0
    vertex 151.7814944688287 7.695169665634818 1.999999999999999
    vertex 151.59197962835532 7.7443384633133014 1.999999999999999
  endloop
endfacet
facet normal -0.1226395044737879 -0.9924512844177411 0.0
  outer loop
    vertex 151.59197962835532 7.7443384633133014 1.999999999999999
    vertex 151.39619652821307 7.742781824794446 0.0
    vertex 151.59197962835532 7.7443384633133014 0.0
  endloop
endfacet
facet normal 0.13840462904925632 -0.9903757663926042 0.0
  outer loop
    vertex 151.39619652821307 7.742781824794446 0.0
    vertex 151.59197962835532 7.7443384633133014 1.999999999999999
    vertex 151.39619652821307 7.742781824794446 1.999999999999999
  endloop
endfacet
facet normal 0.13840462904925632 -0.9903757663926042 0.0
  outer loop
    vertex 151.39619652821307 7.742781824794446 1.999999999999999
    vertex 151.20748746312975 7.690605832420863 0.0
    vertex 151.39619652821307 7.742781824794446 0.0
  endloop
endfacet
facet normal 0.3900167158270301 -0.9208077765611549 0.0
  outer loop
    vertex 151.20748746312975 7.690605832420863 0.0
    vertex 151.39619652821307 7.742781824794446 1.999999999999999
    vertex 151.20748746312975 7.690605832420863 1.999999999999999
  endloop
endfacet
facet normal 0.3900167158270301 -0.9208077765611549 0.0
  outer loop
    vertex 151.20748746312975 7.690605832420863 1.999999999999999
    vertex 151.0387126440343 7.591366193847889 0.0
    vertex 151.20748746312975 7.690605832420863 0.0
  endloop
endfacet
facet normal 0.6150498079543146 -0.7884882584638535 0.0
  outer loop
    vertex 151.0387126440343 7.591366193847889 0.0
    vertex 151.20748746312975 7.690605832420863 1.999999999999999
    vertex 151.0387126440343 7.591366193847889 1.999999999999999
  endloop
endfacet
facet normal 0.6150498079543146 -0.7884882584638535 0.0
  outer loop
    vertex 151.0387126440343 7.591366193847889 0.0
    vertex 150.9013737959345 7.451825926443026 1.999999999999999
    vertex 150.9013737959345 7.451825926443026 0.0
  endloop
endfacet
facet normal 0.798168272087344 -0.6024345685907337 0.0
  outer loop
    vertex 150.9013737959345 7.451825926443026 1.999999999999999
    vertex 151.0387126440343 7.591366193847889 0.0
    vertex 151.0387126440343 7.591366193847889 1.999999999999999
  endloop
endfacet
facet normal 0.798168272087344 -0.6024345685907337 0.0
  outer loop
    vertex 150.9013737959345 7.451825926443026 0.0
    vertex 150.8048303343652 7.2814944688287175 1.999999999999999
    vertex 150.8048303343652 7.2814944688287175 0.0
  endloop
endfacet
facet normal 0.9268928875131061 -0.37532595843828404 0.0
  outer loop
    vertex 150.8048303343652 7.2814944688287175 1.999999999999999
    vertex 150.9013737959345 7.451825926443026 0.0
    vertex 150.9013737959345 7.451825926443026 1.999999999999999
  endloop
endfacet
facet normal 0.9268928875131061 -0.37532595843828404 0.0
  outer loop
    vertex 150.8048303343652 7.2814944688287175 0.0
    vertex 150.75566153668672 7.091979628355339 1.999999999999999
    vertex 150.75566153668672 7.091979628355339 0.0
  endloop
endfacet
facet normal 0.9924512844177406 -0.12263950447379045 0.0
  outer loop
    vertex 150.75566153668672 7.091979628355339 1.999999999999999
    vertex 150.8048303343652 7.2814944688287175 0.0
    vertex 150.8048303343652 7.2814944688287175 1.999999999999999
  endloop
endfacet
facet normal 0.9924512844177406 -0.12263950447379045 0.0
  outer loop
    vertex 150.75566153668672 7.091979628355339 0.0
    vertex 150.75721817520554 6.8961965282130695 1.999999999999999
    vertex 150.75721817520554 6.8961965282130695 0.0
  endloop
endfacet
facet normal 0.9903757663926124 0.13840462904919698 0.0
  outer loop
    vertex 150.75721817520554 6.8961965282130695 1.999999999999999
    vertex 150.75566153668672 7.091979628355339 0.0
    vertex 150.75566153668672 7.091979628355339 1.999999999999999
  endloop
endfacet
facet normal 0.9903757663926124 0.13840462904919698 0.0
  outer loop
    vertex 150.75721817520554 6.8961965282130695 0.0
    vertex 150.80939416757914 6.707487463129729 1.999999999999999
    vertex 150.80939416757914 6.707487463129729 0.0
  endloop
endfacet
facet normal 0.9208077765611423 0.3900167158270595 0.0
  outer loop
    vertex 150.80939416757914 6.707487463129729 1.999999999999999
    vertex 150.75721817520554 6.8961965282130695 0.0
    vertex 150.75721817520554 6.8961965282130695 1.999999999999999
  endloop
endfacet
facet normal 0.9208077765611423 0.3900167158270595 0.0
  outer loop
    vertex 150.80939416757914 6.707487463129729 0.0
    vertex 150.90863380615212 6.53871264403427 1.999999999999999
    vertex 150.90863380615212 6.53871264403427 0.0
  endloop
endfacet
facet normal 0.7884882584638477 0.6150498079543221 0.0
  outer loop
    vertex 150.90863380615212 6.53871264403427 1.999999999999999
    vertex 150.80939416757914 6.707487463129729 0.0
    vertex 150.80939416757914 6.707487463129729 1.999999999999999
  endloop
endfacet
facet normal 0.7884882584638477 0.6150498079543221 0.0
  outer loop
    vertex 150.90863380615212 6.53871264403427 1.999999999999999
    vertex 151.048174073557 6.4013737959344805 0.0
    vertex 150.90863380615212 6.53871264403427 0.0
  endloop
endfacet
facet normal 0.602434568590719 0.7981682720873552 0.0
  outer loop
    vertex 151.048174073557 6.4013737959344805 0.0
    vertex 150.90863380615212 6.53871264403427 1.999999999999999
    vertex 151.048174073557 6.4013737959344805 1.999999999999999
  endloop
endfacet
facet normal 0.602434568590719 0.7981682720873552 0.0
  outer loop
    vertex 151.048174073557 6.4013737959344805 1.999999999999999
    vertex 151.21850553117127 6.304830334365179 0.0
    vertex 151.048174073557 6.4013737959344805 0.0
  endloop
endfacet
facet normal 0.3753259584383219 0.9268928875130908 0.0
  outer loop
    vertex 151.21850553117127 6.304830334365179 0.0
    vertex 151.048174073557 6.4013737959344805 1.999999999999999
    vertex 151.21850553117127 6.304830334365179 1.999999999999999
  endloop
endfacet
facet normal 0.3753259584383219 0.9268928875130908 0.0
  outer loop
    vertex 151.21850553117127 6.304830334365179 1.999999999999999
    vertex 151.40802037164465 6.255661536686696 0.0
    vertex 151.21850553117127 6.304830334365179 0.0
  endloop
endfacet
facet normal 0.12263950447378792 0.9924512844177411 0.0
  outer loop
    vertex 151.40802037164465 6.255661536686696 0.0
    vertex 151.21850553117127 6.304830334365179 1.999999999999999
    vertex 151.40802037164465 6.255661536686696 1.999999999999999
  endloop
endfacet
facet normal 0.12263950447378792 0.9924512844177411 0.0
  outer loop
    vertex 151.40802037164465 6.255661536686696 1.999999999999999
    vertex 151.6038034717869 6.2572181752055505 0.0
    vertex 151.40802037164465 6.255661536686696 0.0
  endloop
endfacet
facet normal -0.13840462904922587 0.9903757663926084 0.0
  outer loop
    vertex 151.6038034717869 6.2572181752055505 0.0
    vertex 151.40802037164465 6.255661536686696 1.999999999999999
    vertex 151.6038034717869 6.2572181752055505 1.999999999999999
  endloop
endfacet
facet normal -0.13840462904922587 0.9903757663926084 0.0
  outer loop
    vertex 151.6038034717869 6.2572181752055505 1.999999999999999
    vertex 151.79251253687028 6.309394167579135 0.0
    vertex 151.6038034717869 6.2572181752055505 0.0
  endloop
endfacet
facet normal -0.39001671582700176 0.920807776561167 0.0
  outer loop
    vertex 151.79251253687028 6.309394167579135 0.0
    vertex 151.6038034717869 6.2572181752055505 1.999999999999999
    vertex 151.79251253687028 6.309394167579135 1.999999999999999
  endloop
endfacet
facet normal -0.39001671582700176 0.920807776561167 0.0
  outer loop
    vertex 151.79251253687028 6.309394167579135 1.999999999999999
    vertex 151.96128735596574 6.408633806152108 0.0
    vertex 151.79251253687028 6.309394167579135 0.0
  endloop
endfacet
facet normal -0.6150498079543146 0.7884882584638535 0.0
  outer loop
    vertex 151.96128735596574 6.408633806152108 0.0
    vertex 151.79251253687028 6.309394167579135 1.999999999999999
    vertex 151.96128735596574 6.408633806152108 1.999999999999999
  endloop
endfacet
facet normal -0.7981682720874044 0.6024345685906537 0.0
  outer loop
    vertex 152.09862620406554 6.548174073556971 1.999999999999999
    vertex 151.96128735596574 6.408633806152108 0.0
    vertex 151.96128735596574 6.408633806152108 1.999999999999999
  endloop
endfacet
facet normal -0.6150498079543146 0.7884882584638535 0.0
  outer loop
    vertex 151.96128735596574 6.408633806152108 0.0
    vertex 152.09862620406554 6.548174073556971 1.999999999999999
    vertex 152.09862620406554 6.548174073556971 0.0
  endloop
endfacet
facet normal -0.9268928875131018 0.3753259584382945 0.0
  outer loop
    vertex 152.1951696656348 6.71850553117128 1.999999999999999
    vertex 152.09862620406554 6.548174073556971 0.0
    vertex 152.09862620406554 6.548174073556971 1.999999999999999
  endloop
endfacet
facet normal -0.7981682720874044 0.6024345685906537 0.0
  outer loop
    vertex 152.09862620406554 6.548174073556971 0.0
    vertex 152.1951696656348 6.71850553117128 1.999999999999999
    vertex 152.1951696656348 6.71850553117128 0.0
  endloop
endfacet
facet normal -0.992451284417741 0.12263950447378677 0.0
  outer loop
    vertex 152.2443384633133 6.908020371644658 1.999999999999999
    vertex 152.1951696656348 6.71850553117128 0.0
    vertex 152.1951696656348 6.71850553117128 1.999999999999999
  endloop
endfacet
facet normal -0.9268928875131018 0.3753259584382945 0.0
  outer loop
    vertex 152.1951696656348 6.71850553117128 0.0
    vertex 152.2443384633133 6.908020371644658 1.999999999999999
    vertex 152.2443384633133 6.908020371644658 0.0
  endloop
endfacet
facet normal -0.9903757663926122 -0.13840462904919734 0.0
  outer loop
    vertex 152.24278182479443 7.103803471786928 1.999999999999999
    vertex 152.2443384633133 6.908020371644658 0.0
    vertex 152.2443384633133 6.908020371644658 1.999999999999999
  endloop
endfacet
facet normal -0.992451284417741 0.12263950447378677 0.0
  outer loop
    vertex 152.2443384633133 6.908020371644658 0.0
    vertex 152.24278182479443 7.103803471786928 1.999999999999999
    vertex 152.24278182479443 7.103803471786928 0.0
  endloop
endfacet
facet normal -0.9208077765611842 -0.39001671582696046 0.0
  outer loop
    vertex 152.19060583242089 7.292512536870274 1.999999999999999
    vertex 152.24278182479443 7.103803471786928 0.0
    vertex 152.24278182479443 7.103803471786928 1.999999999999999
  endloop
endfacet
facet normal -0.9903757663926122 -0.13840462904919734 0.0
  outer loop
    vertex 152.24278182479443 7.103803471786928 0.0
    vertex 152.19060583242089 7.292512536870274 1.999999999999999
    vertex 152.19060583242089 7.292512536870274 0.0
  endloop
endfacet
facet normal -0.9890992060931451 -0.14725067234451 0.0
  outer loop
    vertex 50.24182440456985 7.110438004258398 1.9999999999999953
    vertex 50.24513080975071 6.914676636492496 -1.0574874309554614e-15
    vertex 50.24513080975071 6.914676636492496 1.9999999999999953
  endloop
endfacet
facet normal -0.9935077463342922 0.11376448467670275 0.0
  outer loop
    vertex 50.24513080975071 6.914676636492496 -1.0574874309554614e-15
    vertex 50.24182440456985 7.110438004258398 1.9999999999999953
    vertex 50.24182440456985 7.110438004258398 -1.0574874309554614e-15
  endloop
endfacet
facet normal -0.9172851895204597 -0.39823093938870996 0.0
  outer loop
    vertex 50.187963892140345 7.298673204541531 1.9999999999999953
    vertex 50.24182440456985 7.110438004258398 -1.0574874309554614e-15
    vertex 50.24182440456985 7.110438004258398 1.9999999999999953
  endloop
endfacet
facet normal -0.9890992060931451 -0.14725067234451 0.0
  outer loop
    vertex 50.24182440456985 7.110438004258398 -1.0574874309554614e-15
    vertex 50.187963892140345 7.298673204541531 1.9999999999999953
    vertex 50.187963892140345 7.298673204541531 -1.0574874309554614e-15
  endloop
endfacet
facet normal -0.7829597031673976 -0.622072426021296 0.0
  outer loop
    vertex 50.08721977737555 7.46655431951596 1.9999999999999953
    vertex 50.187963892140345 7.298673204541531 -1.0574874309554614e-15
    vertex 50.187963892140345 7.298673204541531 1.9999999999999953
  endloop
endfacet
facet normal -0.9172851895204597 -0.39823093938870996 0.0
  outer loop
    vertex 50.187963892140345 7.298673204541531 -1.0574874309554614e-15
    vertex 50.08721977737555 7.46655431951596 1.9999999999999953
    vertex 50.08721977737555 7.46655431951596 -1.0574874309554614e-15
  endloop
endfacet
facet normal -0.7829597031673976 -0.622072426021296 0.0
  outer loop
    vertex 50.08721977737555 7.46655431951596 1.9999999999999953
    vertex 49.94645760520918 7.602640528632841 -1.0574874309554614e-15
    vertex 50.08721977737555 7.46655431951596 -1.0574874309554614e-15
  endloop
endfacet
facet normal -0.5952768069455875 -0.8035207048437928 0.0
  outer loop
    vertex 49.94645760520918 7.602640528632841 -1.0574874309554614e-15
    vertex 50.08721977737555 7.46655431951596 1.9999999999999953
    vertex 49.94645760520918 7.602640528632841 1.9999999999999953
  endloop
endfacet
facet normal -0.5952768069455875 -0.8035207048437928 0.0
  outer loop
    vertex 49.94645760520918 7.602640528632841 1.9999999999999953
    vertex 49.77527008505389 7.697657781633959 -1.0574874309554614e-15
    vertex 49.94645760520918 7.602640528632841 -1.0574874309554614e-15
  endloop
endfacet
facet normal -0.36702678007186545 -0.9302103755119475 0.0
  outer loop
    vertex 49.77527008505389 7.697657781633959 -1.0574874309554614e-15
    vertex 49.94645760520918 7.602640528632841 1.9999999999999953
    vertex 49.77527008505389 7.697657781633959 1.9999999999999953
  endloop
endfacet
facet normal -0.36702678007186545 -0.9302103755119475 0.0
  outer loop
    vertex 49.77527008505389 7.697657781633959 1.9999999999999953
    vertex 49.58532336350749 7.745130809750721 -1.0574874309554614e-15
    vertex 49.77527008505389 7.697657781633959 -1.0574874309554614e-15
  endloop
endfacet
facet normal -0.11376448467667111 -0.9935077463342957 0.0
  outer loop
    vertex 49.58532336350749 7.745130809750721 -1.0574874309554614e-15
    vertex 49.77527008505389 7.697657781633959 1.9999999999999953
    vertex 49.58532336350749 7.745130809750721 1.9999999999999953
  endloop
endfacet
facet normal -0.11376448467667111 -0.9935077463342957 0.0
  outer loop
    vertex 49.58532336350749 7.745130809750721 1.9999999999999953
    vertex 49.38956199574159 7.741824404569854 -1.0574874309554614e-15
    vertex 49.58532336350749 7.745130809750721 -1.0574874309554614e-15
  endloop
endfacet
facet normal 0.14725067234452816 -0.9890992060931423 0.0
  outer loop
    vertex 49.38956199574159 7.741824404569854 -1.0574874309554614e-15
    vertex 49.58532336350749 7.745130809750721 1.9999999999999953
    vertex 49.38956199574159 7.741824404569854 1.9999999999999953
  endloop
endfacet
facet normal 0.14725067234452816 -0.9890992060931423 0.0
  outer loop
    vertex 49.38956199574159 7.741824404569854 1.9999999999999953
    vertex 49.20132679545846 7.687963892140349 -1.0574874309554614e-15
    vertex 49.38956199574159 7.741824404569854 -1.0574874309554614e-15
  endloop
endfacet
facet normal 0.3982309393886955 -0.917285189520466 0.0
  outer loop
    vertex 49.20132679545846 7.687963892140349 -1.0574874309554614e-15
    vertex 49.38956199574159 7.741824404569854 1.9999999999999953
    vertex 49.20132679545846 7.687963892140349 1.9999999999999953
  endloop
endfacet
facet normal 0.3982309393886955 -0.917285189520466 0.0
  outer loop
    vertex 49.20132679545846 7.687963892140349 1.9999999999999953
    vertex 49.03344568048403 7.58721977737556 -1.0574874309554614e-15
    vertex 49.20132679545846 7.687963892140349 -1.0574874309554614e-15
  endloop
endfacet
facet normal 0.6220724260212804 -0.78295970316741 0.0
  outer loop
    vertex 49.03344568048403 7.58721977737556 -1.0574874309554614e-15
    vertex 49.20132679545846 7.687963892140349 1.9999999999999953
    vertex 49.03344568048403 7.58721977737556 1.9999999999999953
  endloop
endfacet
facet normal 0.6220724260212804 -0.78295970316741 0.0
  outer loop
    vertex 49.03344568048403 7.58721977737556 -1.0574874309554614e-15
    vertex 48.897359471367146 7.446457605209194 1.9999999999999953
    vertex 48.897359471367146 7.446457605209194 -1.0574874309554614e-15
  endloop
endfacet
facet normal 0.8035207048437928 -0.5952768069455875 0.0
  outer loop
    vertex 48.897359471367146 7.446457605209194 1.9999999999999953
    vertex 49.03344568048403 7.58721977737556 -1.0574874309554614e-15
    vertex 49.03344568048403 7.58721977737556 1.9999999999999953
  endloop
endfacet
facet normal 0.8035207048437928 -0.5952768069455875 0.0
  outer loop
    vertex 48.897359471367146 7.446457605209194 -1.0574874309554614e-15
    vertex 48.80234221836603 7.275270085053899 1.9999999999999953
    vertex 48.80234221836603 7.275270085053899 -1.0574874309554614e-15
  endloop
endfacet
facet normal 0.9302103755119475 -0.36702678007186545 0.0
  outer loop
    vertex 48.80234221836603 7.275270085053899 1.9999999999999953
    vertex 48.897359471367146 7.446457605209194 -1.0574874309554614e-15
    vertex 48.897359471367146 7.446457605209194 1.9999999999999953
  endloop
endfacet
facet normal 0.9302103755119475 -0.36702678007186545 0.0
  outer loop
    vertex 48.80234221836603 7.275270085053899 -1.0574874309554614e-15
    vertex 48.754869190249266 7.085323363507501 1.9999999999999953
    vertex 48.754869190249266 7.085323363507501 -1.0574874309554614e-15
  endloop
endfacet
facet normal 0.9935077463342957 -0.11376448467667105 0.0
  outer loop
    vertex 48.754869190249266 7.085323363507501 1.9999999999999953
    vertex 48.80234221836603 7.275270085053899 -1.0574874309554614e-15
    vertex 48.80234221836603 7.275270085053899 1.9999999999999953
  endloop
endfacet
facet normal 0.9935077463342957 -0.11376448467667105 0.0
  outer loop
    vertex 48.754869190249266 7.085323363507501 -1.0574874309554614e-15
    vertex 48.75817559543013 6.889561995741599 1.9999999999999953
    vertex 48.75817559543013 6.889561995741599 -1.0574874309554614e-15
  endloop
endfacet
facet normal 0.9890992060931428 0.14725067234452424 0.0
  outer loop
    vertex 48.75817559543013 6.889561995741599 1.9999999999999953
    vertex 48.754869190249266 7.085323363507501 -1.0574874309554614e-15
    vertex 48.754869190249266 7.085323363507501 1.9999999999999953
  endloop
endfacet
facet normal 0.9890992060931428 0.14725067234452424 0.0
  outer loop
    vertex 48.75817559543013 6.889561995741599 -1.0574874309554614e-15
    vertex 48.81203610785964 6.701326795458466 1.9999999999999953
    vertex 48.81203610785964 6.701326795458466 -1.0574874309554614e-15
  endloop
endfacet
facet normal 0.9172851895204616 0.3982309393887054 0.0
  outer loop
    vertex 48.81203610785964 6.701326795458466 1.9999999999999953
    vertex 48.75817559543013 6.889561995741599 -1.0574874309554614e-15
    vertex 48.75817559543013 6.889561995741599 1.9999999999999953
  endloop
endfacet
facet normal 0.9172851895204616 0.3982309393887054 0.0
  outer loop
    vertex 48.81203610785964 6.701326795458466 -1.0574874309554614e-15
    vertex 48.91278022262443 6.533445680484043 1.9999999999999953
    vertex 48.91278022262443 6.533445680484043 -1.0574874309554614e-15
  endloop
endfacet
facet normal 0.782959703167407 0.6220724260212841 0.0
  outer loop
    vertex 48.91278022262443 6.533445680484043 1.9999999999999953
    vertex 48.81203610785964 6.701326795458466 -1.0574874309554614e-15
    vertex 48.81203610785964 6.701326795458466 1.9999999999999953
  endloop
endfacet
facet normal 0.782959703167407 0.6220724260212841 0.0
  outer loop
    vertex 48.91278022262443 6.533445680484043 1.9999999999999953
    vertex 49.053542394790796 6.397359471367157 -1.0574874309554614e-15
    vertex 48.91278022262443 6.533445680484043 -1.0574874309554614e-15
  endloop
endfacet
facet normal 0.5952768069455958 0.8035207048437867 0.0
  outer loop
    vertex 49.053542394790796 6.397359471367157 -1.0574874309554614e-15
    vertex 48.91278022262443 6.533445680484043 1.9999999999999953
    vertex 49.053542394790796 6.397359471367157 1.9999999999999953
  endloop
endfacet
facet normal 0.5952768069455958 0.8035207048437867 0.0
  outer loop
    vertex 49.053542394790796 6.397359471367157 1.9999999999999953
    vertex 49.22472991494609 6.302342218366038 -1.0574874309554614e-15
    vertex 49.053542394790796 6.397359471367157 -1.0574874309554614e-15
  endloop
endfacet
facet normal 0.36702678007186545 0.9302103755119475 0.0
  outer loop
    vertex 49.22472991494609 6.302342218366038 -1.0574874309554614e-15
    vertex 49.053542394790796 6.397359471367157 1.9999999999999953
    vertex 49.22472991494609 6.302342218366038 1.9999999999999953
  endloop
endfacet
facet normal 0.36702678007186545 0.9302103755119475 0.0
  outer loop
    vertex 49.22472991494609 6.302342218366038 1.9999999999999953
    vertex 49.41467663649249 6.254869190249275 -1.0574874309554614e-15
    vertex 49.22472991494609 6.302342218366038 -1.0574874309554614e-15
  endloop
endfacet
facet normal 0.11376448467667111 0.9935077463342957 0.0
  outer loop
    vertex 49.41467663649249 6.254869190249275 -1.0574874309554614e-15
    vertex 49.22472991494609 6.302342218366038 1.9999999999999953
    vertex 49.41467663649249 6.254869190249275 1.9999999999999953
  endloop
endfacet
facet normal 0.11376448467667111 0.9935077463342957 0.0
  outer loop
    vertex 49.41467663649249 6.254869190249275 1.9999999999999953
    vertex 49.61043800425839 6.258175595430142 -1.0574874309554614e-15
    vertex 49.41467663649249 6.254869190249275 -1.0574874309554614e-15
  endloop
endfacet
facet normal -0.14725067234452816 0.9890992060931423 0.0
  outer loop
    vertex 49.61043800425839 6.258175595430142 -1.0574874309554614e-15
    vertex 49.41467663649249 6.254869190249275 1.9999999999999953
    vertex 49.61043800425839 6.258175595430142 1.9999999999999953
  endloop
endfacet
facet normal -0.14725067234452816 0.9890992060931423 0.0
  outer loop
    vertex 49.61043800425839 6.258175595430142 1.9999999999999953
    vertex 49.798673204541515 6.312036107859647 -1.0574874309554614e-15
    vertex 49.61043800425839 6.258175595430142 -1.0574874309554614e-15
  endloop
endfacet
facet normal -0.3982309393886955 0.917285189520466 0.0
  outer loop
    vertex 49.798673204541515 6.312036107859647 -1.0574874309554614e-15
    vertex 49.61043800425839 6.258175595430142 1.9999999999999953
    vertex 49.798673204541515 6.312036107859647 1.9999999999999953
  endloop
endfacet
facet normal -0.3982309393886955 0.917285189520466 0.0
  outer loop
    vertex 49.798673204541515 6.312036107859647 1.9999999999999953
    vertex 49.96655431951595 6.412780222624438 -1.0574874309554614e-15
    vertex 49.798673204541515 6.312036107859647 -1.0574874309554614e-15
  endloop
endfacet
facet normal -0.6220724260212965 0.7829597031673972 0.0
  outer loop
    vertex 49.96655431951595 6.412780222624438 -1.0574874309554614e-15
    vertex 49.798673204541515 6.312036107859647 1.9999999999999953
    vertex 49.96655431951595 6.412780222624438 1.9999999999999953
  endloop
endfacet
facet normal -0.8035207048438049 0.5952768069455712 0.0
  outer loop
    vertex 50.102640528632826 6.553542394790808 1.9999999999999953
    vertex 49.96655431951595 6.412780222624438 -1.0574874309554614e-15
    vertex 49.96655431951595 6.412780222624438 1.9999999999999953
  endloop
endfacet
facet normal -0.6220724260212965 0.7829597031673972 0.0
  outer loop
    vertex 49.96655431951595 6.412780222624438 -1.0574874309554614e-15
    vertex 50.102640528632826 6.553542394790808 1.9999999999999953
    vertex 50.102640528632826 6.553542394790808 -1.0574874309554614e-15
  endloop
endfacet
facet normal -0.9302103755119412 0.3670267800718818 0.0
  outer loop
    vertex 50.19765778163394 6.724729914946104 1.9999999999999953
    vertex 50.102640528632826 6.553542394790808 -1.0574874309554614e-15
    vertex 50.102640528632826 6.553542394790808 1.9999999999999953
  endloop
endfacet
facet normal -0.8035207048438049 0.5952768069455712 0.0
  outer loop
    vertex 50.102640528632826 6.553542394790808 -1.0574874309554614e-15
    vertex 50.19765778163394 6.724729914946104 1.9999999999999953
    vertex 50.19765778163394 6.724729914946104 -1.0574874309554614e-15
  endloop
endfacet
facet normal -0.9935077463342922 0.11376448467670275 0.0
  outer loop
    vertex 50.24513080975071 6.914676636492496 1.9999999999999953
    vertex 50.19765778163394 6.724729914946104 -1.0574874309554614e-15
    vertex 50.19765778163394 6.724729914946104 1.9999999999999953
  endloop
endfacet
facet normal -0.9302103755119412 0.3670267800718818 0.0
  outer loop
    vertex 50.19765778163394 6.724729914946104 -1.0574874309554614e-15
    vertex 50.24513080975071 6.914676636492496 1.9999999999999953
    vertex 50.24513080975071 6.914676636492496 -1.0574874309554614e-15
  endloop
endfacet
endsolid Base
