solid Cuchilla
facet normal -1.87997765503191e-15 -1.0 2.09327899150658e-16
outer loop
vertex 3.00000000000004 1.79999999999997 -4.93494134445882e-15
vertex 0.0 1.79999999999993 -2.0
vertex 3.00000000000004 1.79999999999992 -2.0
endloop
endfacet
facet normal -1.87997765503191e-15 -1.0 2.09327899150658e-16
outer loop
vertex 0.0 1.79999999999993 -2.0
vertex 3.00000000000004 1.79999999999997 -4.93494134445882e-15
vertex 0.0 1.79999999999997 -2.46747067222941e-15
endloop
endfacet
facet normal -0.413808415525035 -0.910363990522835 1.82994570917979e-16
outer loop
vertex 23.891620760074 3.67150910548359 -2.0
vertex 23.2228344058125 3.95708601453109 1.40998324127395e-15
vertex 23.2228344058125 3.9570860145311 -2.0
endloop
endfacet
facet normal -0.371390676354098 -0.928476690885261 1.87562034003546e-16
outer loop
vertex 23.2228344058125 3.95708601453109 1.40998324127395e-15
vertex 23.891620760074 3.67150910548359 -2.0
vertex 23.891620760074 3.67150910548358 1.05748743095546e-15
endloop
endfacet
facet normal 0.194745399669738 -0.980853826677285 2.08882648907717e-16
outer loop
vertex 9.56227278991097 4.78289885551869 -2.0
vertex 8.8524451422344 4.62486699410608 -2.8199664825479e-15
vertex 8.8524451422344 4.6248669941061 -2.00000000000001
endloop
endfacet
facet normal 0.239766180706314 -0.970830664219825 2.0760810972523e-16
outer loop
vertex 8.8524451422344 4.62486699410608 -2.8199664825479e-15
vertex 9.56227278991097 4.78289885551869 -2.0
vertex 9.56227278991097 4.78289885551867 -3.87745391350336e-15
endloop
endfacet
facet normal -0.32818286498038 -0.944614210740697 1.91730489901262e-16
outer loop
vertex 22.5415912464868 4.21152091091845 7.04991620636974e-16
vertex 21.8493405141802 4.43427252650986 -2.0
vertex 22.5415912464868 4.21152091091847 -2.0
endloop
endfacet
facet normal -0.284276898872155 -0.958742220186235 1.95491070911039e-16
outer loop
vertex 21.8493405141802 4.43427252650986 -2.0
vertex 22.5415912464868 4.21152091091845 7.04991620636974e-16
vertex 21.8493405141802 4.43427252650984 0.0
endloop
endfacet
facet normal -0.284276898872155 -0.958742220186235 1.95491070911039e-16
outer loop
vertex 21.8493405141802 4.43427252650986 -2.0
vertex 21.1475548577656 4.62486699410608 -7.04991620636974e-16
vertex 21.1475548577656 4.6248669941061 -2.0
endloop
endfacet
facet normal -0.239766180706314 -0.970830664219825 1.98835777019117e-16
outer loop
vertex 21.1475548577656 4.62486699410608 -7.04991620636974e-16
vertex 21.8493405141802 4.43427252650986 -2.0
vertex 21.8493405141802 4.43427252650984 0.0
endloop
endfacet
facet normal -0.455345845772756 -0.890314641425993 1.78037817166411e-16
outer loop
vertex 24.5465275769798 3.35539770139004 1.40998324127395e-15
vertex 23.891620760074 3.67150910548359 -2.0
vertex 24.5465275769798 3.35539770139005 -2.0
endloop
endfacet
facet normal -0.413808415525035 -0.910363990522835 1.82994570917979e-16
outer loop
vertex 23.891620760074 3.67150910548359 -2.0
vertex 24.5465275769798 3.35539770139004 1.40998324127395e-15
vertex 23.891620760074 3.67150910548358 1.05748743095546e-15
endloop
endfacet
facet normal 0.32818286498038 -0.944614210740697 2.03737726583152e-16
outer loop
vertex 7.45840875351321 4.21152091091845 -3.17246229286638e-15
vertex 6.77716559418756 3.9570860145311 -2.0
vertex 7.45840875351321 4.21152091091847 -2.00000000000001
endloop
endfacet
facet normal 0.371390676354098 -0.928476690885262 2.01150116223187e-16
outer loop
vertex 6.77716559418756 3.9570860145311 -2.0
vertex 7.45840875351321 4.21152091091845 -3.17246229286638e-15
vertex 6.77716559418756 3.95708601453109 -3.17246229286638e-15
endloop
endfacet
facet normal -1.0 -5.75277412052207e-33 -1.82935155414155e-17
outer loop
vertex 11.0 -2.25597318603832e-14 -1.40998324127395e-15
vertex 11.0 4.99999999999995 -2.0
vertex 11.0 -6.76791955811495e-14 -2.0
endloop
endfacet
facet normal -1.0 -5.75277412052207e-33 -1.82935155414155e-17
outer loop
vertex 11.0 4.99999999999995 -2.0
vertex 11.0 -2.25597318603832e-14 -1.40998324127395e-15
vertex 11.0 4.99999999999994 -3.87745391350336e-15
endloop
endfacet
facet normal 0.371390676354098 -0.928476690885261 2.01150116223187e-16
outer loop
vertex 6.77716559418756 3.95708601453109 -3.17246229286638e-15
vertex 6.10837923992601 3.67150910548359 -2.0
vertex 6.77716559418756 3.9570860145311 -2.0
endloop
endfacet
facet normal 0.413808415525035 -0.910363990522835 1.9813459227913e-16
outer loop
vertex 6.10837923992601 3.67150910548359 -2.0
vertex 6.77716559418756 3.95708601453109 -3.17246229286638e-15
vertex 6.10837923992601 3.67150910548358 -4.22994972382185e-15
endloop
endfacet
facet normal 0.149310330023644 -0.98879038493921 2.09712824822476e-16
outer loop
vertex 10.2786323879979 4.90803192411505 -4.58244553414033e-15
vertex 9.56227278991097 4.78289885551869 -2.0
vertex 10.2786323879979 4.90803192411507 -2.0
endloop
endfacet
facet normal 0.194745399669738 -0.980853826677285 2.08882648907717e-16
outer loop
vertex 9.56227278991097 4.78289885551869 -2.0
vertex 10.2786323879979 4.90803192411505 -4.58244553414033e-15
vertex 9.56227278991097 4.78289885551867 -3.87745391350336e-15
endloop
endfacet
facet normal -0.535428384154515 -0.844580632883376 1.66999422077964e-16
outer loop
vertex 25.8091622654657 2.63432483336803 -2.0
vertex 25.1861616506567 3.00942427694963 2.46747067222941e-15
vertex 25.1861616506567 3.00942427694965 -2.0
endloop
endfacet
facet normal -0.495914603088408 -0.868371295266988 1.72702317422161e-16
outer loop
vertex 25.1861616506567 3.00942427694963 2.46747067222941e-15
vertex 25.8091622654657 2.63432483336803 -2.0
vertex 25.8091622654657 2.63432483336801 4.22994972382185e-15
endloop
endfacet
facet normal -0.592537753940695 -0.805542680529664 1.57782958380874e-16
outer loop
vertex 27.0 1.79999999999992 -1.99999999999999
vertex 26.4142040906986 2.23089733263647 4.58244553414033e-15
vertex 26.4142040906986 2.23089733263649 -2.0
endloop
endfacet
facet normal -0.573803129940962 -0.81899326497228 1.60941263099897e-16
outer loop
vertex 26.4142040906986 2.23089733263647 4.58244553414033e-15
vertex 27.0 1.79999999999992 -1.99999999999999
vertex 27.0 1.79999999999997 3.87745391350336e-15
endloop
endfacet
facet normal 4.58531135373643e-17 -1.0 2.09327899150658e-16
outer loop
vertex 150.0 1.79999999999997 -2.46747067222941e-15
vertex 27.0 1.79999999999992 -1.99999999999999
vertex 150.0 1.79999999999993 -2.0
endloop
endfacet
facet normal 4.58531135373643e-17 -1.0 2.09327899150658e-16
outer loop
vertex 27.0 1.79999999999992 -1.99999999999999
vertex 150.0 1.79999999999997 -2.46747067222941e-15
vertex 27.0 1.79999999999997 3.87745391350336e-15
endloop
endfacet
facet normal 0.495914603088408 -0.868371295266988 1.90846360419787e-16
outer loop
vertex 4.81383834934332 3.00942427694963 -4.22994972382185e-15
vertex 4.19083773453433 2.63432483336803 -2.0
vertex 4.81383834934332 3.00942427694965 -2.0
endloop
endfacet
facet normal 0.535428384154515 -0.844580632883376 1.86589157011656e-16
outer loop
vertex 4.19083773453433 2.63432483336803 -2.0
vertex 4.81383834934332 3.00942427694963 -4.22994972382185e-15
vertex 4.19083773453433 2.63432483336801 -3.17246229286638e-15
endloop
endfacet
facet normal -0.495914603088408 -0.868371295266988 1.72702317422161e-16
outer loop
vertex 25.1861616506567 3.00942427694965 -2.0
vertex 24.5465275769798 3.35539770139004 1.40998324127395e-15
vertex 24.5465275769798 3.35539770139005 -2.0
endloop
endfacet
facet normal -0.455345845772756 -0.890314641425993 1.78037817166411e-16
outer loop
vertex 24.5465275769798 3.35539770139004 1.40998324127395e-15
vertex 25.1861616506567 3.00942427694965 -2.0
vertex 25.1861616506567 3.00942427694963 2.46747067222941e-15
endloop
endfacet
facet normal -1.80321655371576e-17 2.53684843488898e-16 1.0
outer loop
vertex 19.0 -2.25597318603832e-14 -3.52495810318487e-16
vertex 11.0 4.99999999999994 -3.87745391350336e-15
vertex 11.0 -2.25597318603832e-14 -1.40998324127395e-15
endloop
endfacet
facet normal -1.80321655371576e-17 2.53684843488898e-16 1.0
outer loop
vertex 3.00000000000004 1.79999999999997 -4.93494134445882e-15
vertex 0.0 10.8999999999999 -2.11497486191092e-15
vertex 0.0 1.79999999999997 -2.46747067222941e-15
endloop
endfacet
facet normal -1.80321655371576e-17 2.53684843488898e-16 1.0
outer loop
vertex 0.0 10.8999999999999 -2.11497486191092e-15
vertex 3.00000000000004 1.79999999999997 -4.93494134445882e-15
vertex 3.58579590930148 2.23089733263647 -3.52495810318487e-15
endloop
endfacet
facet normal -1.80321655371576e-17 2.53684843488898e-16 1.0
outer loop
vertex 0.0 10.8999999999999 -2.11497486191092e-15
vertex 3.58579590930148 2.23089733263647 -3.52495810318487e-15
vertex 4.19083773453433 2.63432483336801 -3.17246229286638e-15
endloop
endfacet
facet normal -1.80321655371576e-17 2.53684843488898e-16 1.0
outer loop
vertex 0.0 10.8999999999999 -2.11497486191092e-15
vertex 4.19083773453433 2.63432483336801 -3.17246229286638e-15
vertex 4.81383834934332 3.00942427694963 -4.22994972382185e-15
endloop
endfacet
facet normal -1.80321655371576e-17 2.53684843488898e-16 1.0
outer loop
vertex 0.0 10.8999999999999 -2.11497486191092e-15
vertex 4.81383834934332 3.00942427694963 -4.22994972382185e-15
vertex 5.45347242302028 3.35539770139004 -4.58244553414033e-15
endloop
endfacet
facet normal -1.80321655371576e-17 2.53684843488898e-16 1.0
outer loop
vertex 0.0 10.8999999999999 -2.11497486191092e-15
vertex 5.45347242302028 3.35539770139004 -4.58244553414033e-15
vertex 6.10837923992601 3.67150910548358 -4.22994972382185e-15
endloop
endfacet
facet normal -1.80321655371576e-17 2.53684843488898e-16 1.0
outer loop
vertex 0.0 10.8999999999999 -2.11497486191092e-15
vertex 6.10837923992601 3.67150910548358 -4.22994972382185e-15
vertex 6.77716559418756 3.95708601453109 -3.17246229286638e-15
endloop
endfacet
facet normal -1.80321655371576e-17 2.53684843488898e-16 1.0
outer loop
vertex 0.0 10.8999999999999 -2.11497486191092e-15
vertex 6.77716559418756 3.95708601453109 -3.17246229286638e-15
vertex 7.45840875351321 4.21152091091845 -3.17246229286638e-15
endloop
endfacet
facet normal -1.80321655371576e-17 2.53684843488898e-16 1.0
outer loop
vertex 0.0 10.8999999999999 -2.11497486191092e-15
vertex 7.45840875351321 4.21152091091845 -3.17246229286638e-15
vertex 8.15065948581979 4.43427252650984 -3.17246229286638e-15
endloop
endfacet
facet normal -1.80321655371576e-17 2.53684843488898e-16 1.0
outer loop
vertex 0.0 10.8999999999999 -2.11497486191092e-15
vertex 8.15065948581979 4.43427252650984 -3.17246229286638e-15
vertex 8.8524451422344 4.62486699410608 -2.8199664825479e-15
endloop
endfacet
facet normal -1.80321655371576e-17 2.53684843488898e-16 1.0
outer loop
vertex 0.0 10.8999999999999 -2.11497486191092e-15
vertex 8.8524451422344 4.62486699410608 -2.8199664825479e-15
vertex 9.56227278991097 4.78289885551867 -3.87745391350336e-15
endloop
endfacet
facet normal -1.80321655371576e-17 2.53684843488898e-16 1.0
outer loop
vertex 0.0 10.8999999999999 -2.11497486191092e-15
vertex 9.56227278991097 4.78289885551867 -3.87745391350336e-15
vertex 10.2786323879979 4.90803192411505 -4.58244553414033e-15
endloop
endfacet
facet normal -1.80321655371576e-17 2.53684843488898e-16 1.0
outer loop
vertex 0.0 10.8999999999999 -2.11497486191092e-15
vertex 10.2786323879979 4.90803192411505 -4.58244553414033e-15
vertex 11.0 4.99999999999994 -3.87745391350336e-15
endloop
endfacet
facet normal -1.80321655371576e-17 2.53684843488898e-16 1.0
outer loop
vertex 0.0 10.8999999999999 -2.11497486191092e-15
vertex 11.0 4.99999999999994 -3.87745391350336e-15
vertex 208.981481481481 10.8999999999999 -1.40998324127395e-15
endloop
endfacet
facet normal -1.80321655371576e-17 2.53684843488898e-16 1.0
outer loop
vertex 208.981481481481 10.8999999999999 -1.40998324127395e-15
vertex 11.0 4.99999999999994 -3.87745391350336e-15
vertex 19.0 4.99999999999994 -4.22994972382185e-15
endloop
endfacet
facet normal -1.80321655371576e-17 2.53684843488898e-16 1.0
outer loop
vertex 19.0 4.99999999999994 -4.22994972382185e-15
vertex 11.0 4.99999999999994 -3.87745391350336e-15
vertex 19.0 -2.25597318603832e-14 -3.52495810318487e-16
endloop
endfacet
facet normal -1.80321655371576e-17 2.53684843488898e-16 1.0
outer loop
vertex 208.981481481481 10.8999999999999 -1.40998324127395e-15
vertex 19.0 4.99999999999994 -4.22994972382185e-15
vertex 19.7213676120021 4.90803192411505 -3.87745391350336e-15
endloop
endfacet
facet normal -1.80321655371576e-17 2.53684843488898e-16 1.0
outer loop
vertex 208.981481481481 10.8999999999999 -1.40998324127395e-15
vertex 19.7213676120021 4.90803192411505 -3.87745391350336e-15
vertex 20.4377272100891 4.78289885551867 -2.46747067222941e-15
endloop
endfacet
facet normal -1.80321655371576e-17 2.53684843488898e-16 1.0
outer loop
vertex 208.981481481481 10.8999999999999 -1.40998324127395e-15
vertex 20.4377272100891 4.78289885551867 -2.46747067222941e-15
vertex 21.1475548577656 4.62486699410608 -7.04991620636974e-16
endloop
endfacet
facet normal -1.80321655371576e-17 2.53684843488898e-16 1.0
outer loop
vertex 208.981481481481 10.8999999999999 -1.40998324127395e-15
vertex 21.1475548577656 4.62486699410608 -7.04991620636974e-16
vertex 21.8493405141802 4.43427252650984 0.0
endloop
endfacet
facet normal -1.80321655371576e-17 2.53684843488898e-16 1.0
outer loop
vertex 208.981481481481 10.8999999999999 -1.40998324127395e-15
vertex 21.8493405141802 4.43427252650984 0.0
vertex 22.5415912464868 4.21152091091845 7.04991620636974e-16
endloop
endfacet
facet normal -1.80321655371576e-17 2.53684843488898e-16 1.0
outer loop
vertex 208.981481481481 10.8999999999999 -1.40998324127395e-15
vertex 22.5415912464868 4.21152091091845 7.04991620636974e-16
vertex 23.2228344058125 3.95708601453109 1.40998324127395e-15
endloop
endfacet
facet normal -1.80321655371576e-17 2.53684843488898e-16 1.0
outer loop
vertex 208.981481481481 10.8999999999999 -1.40998324127395e-15
vertex 23.2228344058125 3.95708601453109 1.40998324127395e-15
vertex 23.891620760074 3.67150910548358 1.05748743095546e-15
endloop
endfacet
facet normal -1.80321655371576e-17 2.53684843488898e-16 1.0
outer loop
vertex 208.981481481481 10.8999999999999 -1.40998324127395e-15
vertex 23.891620760074 3.67150910548358 1.05748743095546e-15
vertex 24.5465275769798 3.35539770139004 1.40998324127395e-15
endloop
endfacet
facet normal -1.80321655371576e-17 2.53684843488898e-16 1.0
outer loop
vertex 208.981481481481 10.8999999999999 -1.40998324127395e-15
vertex 24.5465275769798 3.35539770139004 1.40998324127395e-15
vertex 25.1861616506567 3.00942427694963 2.46747067222941e-15
endloop
endfacet
facet normal -1.80321655371576e-17 2.53684843488898e-16 1.0
outer loop
vertex 208.981481481481 10.8999999999999 -1.40998324127395e-15
vertex 25.1861616506567 3.00942427694963 2.46747067222941e-15
vertex 25.8091622654657 2.63432483336801 4.22994972382185e-15
endloop
endfacet
facet normal -1.80321655371576e-17 2.53684843488898e-16 1.0
outer loop
vertex 208.981481481481 10.8999999999999 -1.40998324127395e-15
vertex 25.8091622654657 2.63432483336801 4.22994972382185e-15
vertex 26.4142040906986 2.23089733263647 4.58244553414033e-15
endloop
endfacet
facet normal -1.80321655371576e-17 2.53684843488898e-16 1.0
outer loop
vertex 208.981481481481 10.8999999999999 -1.40998324127395e-15
vertex 26.4142040906986 2.23089733263647 4.58244553414033e-15
vertex 27.0 1.79999999999997 3.87745391350336e-15
endloop
endfacet
facet normal -1.80321655371576e-17 2.53684843488898e-16 1.0
outer loop
vertex 208.981481481481 10.8999999999999 -1.40998324127395e-15
vertex 27.0 1.79999999999997 3.87745391350336e-15
vertex 150.0 1.79999999999997 -2.46747067222941e-15
endloop
endfacet
facet normal 0.15248154619565 -0.988306317934771 1.24941872023161e-14
outer loop
vertex 220.0 12.5999999999999 -2.0
vertex 208.981481481481 10.8999999999999 -1.40998324127395e-15
vertex 150.0 1.79999999999993 -2.0
endloop
endfacet
facet normal 0.15248154619565 -0.988306317934771 1.24941872023161e-14
outer loop
vertex 208.981481481481 10.8999999999999 -1.40998324127395e-15
vertex 220.0 12.5999999999999 -2.0
vertex 220.0 12.5999999999999 1.7
endloop
endfacet
facet normal 0.15248154619565 -0.988306317934771 1.24941872023161e-14
outer loop
vertex 150.0 1.79999999999993 -2.0
vertex 208.981481481481 10.8999999999999 -1.40998324127395e-15
vertex 150.0 1.79999999999997 -2.46747067222941e-15
endloop
endfacet
facet normal 0.15248154619565 -0.988306317934771 1.24941872023161e-14
outer loop
vertex 208.981481481481 10.8999999999999 -1.40998324127395e-15
vertex 220.0 12.5999999999999 1.7
vertex 208.981481481481 10.8999999999999 1.7
endloop
endfacet
facet normal -0.573803129940962 -0.81899326497228 1.60941263099897e-16
outer loop
vertex 26.4142040906986 2.23089733263647 4.58244553414033e-15
vertex 25.8091622654657 2.63432483336803 -2.0
vertex 26.4142040906986 2.23089733263649 -2.0
endloop
endfacet
facet normal -0.535428384154515 -0.844580632883376 1.66999422077964e-16
outer loop
vertex 25.8091622654657 2.63432483336803 -2.0
vertex 26.4142040906986 2.23089733263647 4.58244553414033e-15
vertex 25.8091622654657 2.63432483336801 4.22994972382185e-15
endloop
endfacet
facet normal 1.0 1.09114841879982e-32 1.82935155414155e-17
outer loop
vertex 19.0 4.99999999999995 -2.0
vertex 19.0 -2.25597318603832e-14 -3.52495810318487e-16
vertex 19.0 -6.76791955811495e-14 -2.0
endloop
endfacet
facet normal 1.0 1.09114841879982e-32 1.82935155414155e-17
outer loop
vertex 19.0 -2.25597318603832e-14 -3.52495810318487e-16
vertex 19.0 4.99999999999995 -2.0
vertex 19.0 4.99999999999994 -4.22994972382185e-15
endloop
endfacet
facet normal 0.535428384154515 -0.844580632883376 1.86589157011656e-16
outer loop
vertex 4.19083773453433 2.63432483336801 -3.17246229286638e-15
vertex 3.58579590930148 2.23089733263649 -2.0
vertex 4.19083773453433 2.63432483336803 -2.0
endloop
endfacet
facet normal 0.573803129940962 -0.81899326497228 1.81935016050473e-16
outer loop
vertex 3.58579590930148 2.23089733263649 -2.0
vertex 4.19083773453433 2.63432483336801 -3.17246229286638e-15
vertex 3.58579590930148 2.23089733263647 -3.52495810318487e-15
endloop
endfacet
facet normal -0.149310330023644 -0.98879038493921 2.04250003136914e-16
outer loop
vertex 19.7213676120021 4.90803192411505 -3.87745391350336e-15
vertex 19.0 4.99999999999995 -2.0
vertex 19.7213676120021 4.90803192411507 -2.0
endloop
endfacet
facet normal -0.126467613028932 -0.991970736894373 2.05333613128599e-16
outer loop
vertex 19.0 4.99999999999995 -2.0
vertex 19.7213676120021 4.90803192411505 -3.87745391350336e-15
vertex 19.0 4.99999999999994 -4.22994972382185e-15
endloop
endfacet
facet normal 0.239766180706314 -0.970830664219825 2.0760810972523e-16
outer loop
vertex 8.8524451422344 4.62486699410608 -2.8199664825479e-15
vertex 8.15065948581979 4.43427252650986 -2.0
vertex 8.8524451422344 4.6248669941061 -2.00000000000001
endloop
endfacet
facet normal 0.284276898872155 -0.958742220186235 2.05891918646205e-16
outer loop
vertex 8.15065948581979 4.43427252650986 -2.0
vertex 8.8524451422344 4.62486699410608 -2.8199664825479e-15
vertex 8.15065948581979 4.43427252650984 -3.17246229286638e-15
endloop
endfacet
facet normal 0.284276898872155 -0.958742220186235 2.05891918646205e-16
outer loop
vertex 8.15065948581979 4.43427252650986 -2.0
vertex 7.45840875351321 4.21152091091845 -3.17246229286638e-15
vertex 7.45840875351321 4.21152091091847 -2.00000000000001
endloop
endfacet
facet normal 0.32818286498038 -0.944614210740697 2.03737726583152e-16
outer loop
vertex 7.45840875351321 4.21152091091845 -3.17246229286638e-15
vertex 8.15065948581979 4.43427252650986 -2.0
vertex 8.15065948581979 4.43427252650984 -3.17246229286638e-15
endloop
endfacet
facet normal -0.194745399669738 -0.980853826677285 2.01757492916762e-16
outer loop
vertex 20.4377272100891 4.78289885551869 -2.0
vertex 19.7213676120021 4.90803192411505 -3.87745391350336e-15
vertex 19.7213676120021 4.90803192411507 -2.0
endloop
endfacet
facet normal -0.149310330023644 -0.98879038493921 2.04250003136914e-16
outer loop
vertex 19.7213676120021 4.90803192411505 -3.87745391350336e-15
vertex 20.4377272100891 4.78289885551869 -2.0
vertex 20.4377272100891 4.78289885551867 -2.46747067222941e-15
endloop
endfacet
facet normal -0.239766180706314 -0.970830664219825 1.98835777019117e-16
outer loop
vertex 21.1475548577656 4.62486699410608 -7.04991620636974e-16
vertex 20.4377272100891 4.78289885551869 -2.0
vertex 21.1475548577656 4.6248669941061 -2.0
endloop
endfacet
facet normal -0.194745399669738 -0.980853826677285 2.01757492916762e-16
outer loop
vertex 20.4377272100891 4.78289885551869 -2.0
vertex 21.1475548577656 4.62486699410608 -7.04991620636974e-16
vertex 20.4377272100891 4.78289885551867 -2.46747067222941e-15
endloop
endfacet
facet normal -0.371390676354098 -0.928476690885262 1.87562034003546e-16
outer loop
vertex 23.2228344058125 3.9570860145311 -2.0
vertex 22.5415912464868 4.21152091091845 7.04991620636974e-16
vertex 22.5415912464868 4.21152091091847 -2.0
endloop
endfacet
facet normal -0.32818286498038 -0.944614210740697 1.91730489901262e-16
outer loop
vertex 22.5415912464868 4.21152091091845 7.04991620636974e-16
vertex 23.2228344058125 3.9570860145311 -2.0
vertex 23.2228344058125 3.95708601453109 1.40998324127395e-15
endloop
endfacet
facet normal -2.37714529934819e-31 -1.0 2.09327899150658e-16
outer loop
vertex 19.0 -6.76791955811495e-14 -2.0
vertex 11.0 -2.25597318603832e-14 -1.40998324127395e-15
vertex 11.0 -6.76791955811495e-14 -2.0
endloop
endfacet
facet normal -2.37714529934819e-31 -1.0 2.09327899150658e-16
outer loop
vertex 11.0 -2.25597318603832e-14 -1.40998324127395e-15
vertex 19.0 -6.76791955811495e-14 -2.0
vertex 19.0 -2.25597318603832e-14 -3.52495810318487e-16
endloop
endfacet
facet normal 0.573803129940962 -0.81899326497228 1.81935016050473e-16
outer loop
vertex 3.58579590930148 2.23089733263649 -2.0
vertex 3.00000000000004 1.79999999999997 -4.93494134445882e-15
vertex 3.00000000000004 1.79999999999992 -2.0
endloop
endfacet
facet normal 0.592537753940695 -0.805542680529664 1.79462155602053e-16
outer loop
vertex 3.00000000000004 1.79999999999997 -4.93494134445882e-15
vertex 3.58579590930148 2.23089733263649 -2.0
vertex 3.58579590930148 2.23089733263647 -3.52495810318487e-15
endloop
endfacet
facet normal -1.34938582239776e-16 -1.0 -2.05039057819768e-17
outer loop
vertex 208.981481481481 10.8999999999999 -1.40998324127395e-15
vertex 0.0 10.8999999999999 1.7
vertex 0.0 10.8999999999999 -2.11497486191092e-15
endloop
endfacet
facet normal -1.34938582239776e-16 -1.0 -2.05039057819768e-17
outer loop
vertex 0.0 10.8999999999999 1.7
vertex 208.981481481481 10.8999999999999 -1.40998324127395e-15
vertex 208.981481481481 10.8999999999999 1.7
endloop
endfacet
facet normal 0.126467613028932 -0.991970736894373 2.09960687617459e-16
outer loop
vertex 11.0 4.99999999999995 -2.0
vertex 10.2786323879979 4.90803192411505 -4.58244553414033e-15
vertex 10.2786323879979 4.90803192411507 -2.0
endloop
endfacet
facet normal 0.149310330023644 -0.98879038493921 2.09712824822476e-16
outer loop
vertex 10.2786323879979 4.90803192411505 -4.58244553414033e-15
vertex 11.0 4.99999999999995 -2.0
vertex 11.0 4.99999999999994 -3.87745391350336e-15
endloop
endfacet
facet normal 0.413808415525035 -0.910363990522835 1.9813459227913e-16
outer loop
vertex 6.10837923992601 3.67150910548359 -2.0
vertex 5.45347242302028 3.35539770139004 -4.58244553414033e-15
vertex 5.45347242302028 3.35539770139005 -2.00000000000001
endloop
endfacet
facet normal 0.455345845772756 -0.890314641425993 1.94697569779137e-16
outer loop
vertex 5.45347242302028 3.35539770139004 -4.58244553414033e-15
vertex 6.10837923992601 3.67150910548359 -2.0
vertex 6.10837923992601 3.67150910548358 -4.22994972382185e-15
endloop
endfacet
facet normal 0.455345845772756 -0.890314641425993 1.94697569779137e-16
outer loop
vertex 5.45347242302028 3.35539770139004 -4.58244553414033e-15
vertex 4.81383834934332 3.00942427694965 -2.0
vertex 5.45347242302028 3.35539770139005 -2.00000000000001
endloop
endfacet
facet normal 0.495914603088408 -0.868371295266988 1.90846360419787e-16
outer loop
vertex 4.81383834934332 3.00942427694965 -2.0
vertex 5.45347242302028 3.35539770139004 -4.58244553414033e-15
vertex 4.81383834934332 3.00942427694963 -4.22994972382185e-15
endloop
endfacet
facet normal -1.87997765503191e-15 1.0 2.0932789915067e-16
outer loop
vertex 0.0 23.3999999999999 -2.0
vertex 3.00000000000004 23.3999999999999 -5.28743715477731e-15
vertex 3.00000000000004 23.4 -2.0
endloop
endfacet
facet normal -1.87997765503191e-15 1.0 2.0932789915067e-16
outer loop
vertex 3.00000000000004 23.3999999999999 -5.28743715477731e-15
vertex 0.0 23.3999999999999 -2.0
vertex 0.0 23.3999999999999 -2.8199664825479e-15
endloop
endfacet
facet normal -1.0 0.0 0.0
outer loop
vertex 0.0 1.79999999999997 -2.46747067222941e-15
vertex 0.0 23.3999999999999 -2.0
vertex 0.0 1.79999999999993 -2.0
endloop
endfacet
facet normal -1.0 0.0 0.0
outer loop
vertex 0.0 23.3999999999999 -2.0
vertex 0.0 1.79999999999997 -2.46747067222941e-15
vertex 0.0 10.8999999999999 -2.11497486191092e-15
endloop
endfacet
facet normal -1.0 0.0 0.0
outer loop
vertex 0.0 23.3999999999999 -2.0
vertex 0.0 10.8999999999999 -2.11497486191092e-15
vertex 0.0 14.2999999999999 -2.46747067222941e-15
endloop
endfacet
facet normal -1.0 0.0 0.0
outer loop
vertex 0.0 14.2999999999999 -2.46747067222941e-15
vertex 0.0 10.8999999999999 -2.11497486191092e-15
vertex 0.0 10.8999999999999 1.7
endloop
endfacet
facet normal -1.0 0.0 0.0
outer loop
vertex 0.0 14.2999999999999 -2.46747067222941e-15
vertex 0.0 10.8999999999999 1.7
vertex 0.0 14.2999999999999 1.7
endloop
endfacet
facet normal -1.0 0.0 0.0
outer loop
vertex 0.0 23.3999999999999 -2.0
vertex 0.0 14.2999999999999 -2.46747067222941e-15
vertex 0.0 23.3999999999999 -2.8199664825479e-15
endloop
endfacet
facet normal 0.592537753940695 0.805542680529664 1.79462155602063e-16
outer loop
vertex 3.00000000000004 23.3999999999999 -5.28743715477731e-15
vertex 3.58579590930148 22.9691026673634 -2.0
vertex 3.00000000000004 23.4 -2.0
endloop
endfacet
facet normal 0.573803129940962 0.81899326497228 1.81935016050483e-16
outer loop
vertex 3.58579590930148 22.9691026673634 -2.0
vertex 3.00000000000004 23.3999999999999 -5.28743715477731e-15
vertex 3.58579590930148 22.9691026673634 -3.87745391350336e-15
endloop
endfacet
facet normal 1.51703946310186e-17 -1.86529114306527e-17 -1.0
outer loop
vertex 19.7213676120021 20.2919680758848 -2.0
vertex 19.0 4.99999999999995 -2.0
vertex 19.0 20.1999999999999 -2.0
endloop
endfacet
facet normal 1.51703946310186e-17 -1.86529114306527e-17 -1.0
outer loop
vertex 19.0 4.99999999999995 -2.0
vertex 19.7213676120021 20.2919680758848 -2.0
vertex 19.7213676120021 4.90803192411507 -2.0
endloop
endfacet
facet normal 1.51703946310186e-17 -1.86529114306527e-17 -1.0
outer loop
vertex 19.7213676120021 4.90803192411507 -2.0
vertex 19.7213676120021 20.2919680758848 -2.0
vertex 20.4377272100891 20.4171011444812 -2.0
endloop
endfacet
facet normal 1.51703946310186e-17 -1.86529114306527e-17 -1.0
outer loop
vertex 19.7213676120021 4.90803192411507 -2.0
vertex 20.4377272100891 20.4171011444812 -2.0
vertex 20.4377272100891 4.78289885551869 -2.0
endloop
endfacet
facet normal 1.51703946310186e-17 -1.86529114306527e-17 -1.0
outer loop
vertex 20.4377272100891 4.78289885551869 -2.0
vertex 20.4377272100891 20.4171011444812 -2.0
vertex 21.1475548577656 20.5751330058938 -2.0
endloop
endfacet
facet normal 1.51703946310186e-17 -1.86529114306527e-17 -1.0
outer loop
vertex 20.4377272100891 4.78289885551869 -2.0
vertex 21.1475548577656 20.5751330058938 -2.0
vertex 21.1475548577656 4.6248669941061 -2.0
endloop
endfacet
facet normal 1.51703946310186e-17 -1.86529114306527e-17 -1.0
outer loop
vertex 21.1475548577656 4.6248669941061 -2.0
vertex 21.1475548577656 20.5751330058938 -2.0
vertex 21.8493405141802 20.76572747349 -2.0
endloop
endfacet
facet normal 1.51703946310186e-17 -1.86529114306527e-17 -1.0
outer loop
vertex 21.1475548577656 4.6248669941061 -2.0
vertex 21.8493405141802 20.76572747349 -2.0
vertex 21.8493405141802 4.43427252650986 -2.0
endloop
endfacet
facet normal 1.51703946310186e-17 -1.86529114306527e-17 -1.0
outer loop
vertex 21.8493405141802 4.43427252650986 -2.0
vertex 21.8493405141802 20.76572747349 -2.0
vertex 22.5415912464868 20.9884790890814 -2.0
endloop
endfacet
facet normal 1.51703946310186e-17 -1.86529114306527e-17 -1.0
outer loop
vertex 21.8493405141802 4.43427252650986 -2.0
vertex 22.5415912464868 20.9884790890814 -2.0
vertex 22.5415912464868 4.21152091091847 -2.0
endloop
endfacet
facet normal 1.51703946310186e-17 -1.86529114306527e-17 -1.0
outer loop
vertex 22.5415912464868 4.21152091091847 -2.0
vertex 22.5415912464868 20.9884790890814 -2.0
vertex 23.2228344058125 21.2429139854688 -2.0
endloop
endfacet
facet normal 1.51703946310186e-17 -1.86529114306527e-17 -1.0
outer loop
vertex 22.5415912464868 4.21152091091847 -2.0
vertex 23.2228344058125 21.2429139854688 -2.0
vertex 23.2228344058125 3.9570860145311 -2.0
endloop
endfacet
facet normal 1.51703946310186e-17 -1.86529114306527e-17 -1.0
outer loop
vertex 23.2228344058125 3.9570860145311 -2.0
vertex 23.2228344058125 21.2429139854688 -2.0
vertex 23.891620760074 21.5284908945163 -2.0
endloop
endfacet
facet normal 1.51703946310186e-17 -1.86529114306527e-17 -1.0
outer loop
vertex 23.2228344058125 3.9570860145311 -2.0
vertex 23.891620760074 21.5284908945163 -2.0
vertex 23.891620760074 3.67150910548359 -2.0
endloop
endfacet
facet normal 1.51703946310186e-17 -1.86529114306527e-17 -1.0
outer loop
vertex 23.891620760074 3.67150910548359 -2.0
vertex 23.891620760074 21.5284908945163 -2.0
vertex 24.5465275769798 21.8446022986098 -2.0
endloop
endfacet
facet normal 1.51703946310186e-17 -1.86529114306527e-17 -1.0
outer loop
vertex 23.891620760074 3.67150910548359 -2.0
vertex 24.5465275769798 21.8446022986098 -2.0
vertex 24.5465275769798 3.35539770139005 -2.0
endloop
endfacet
facet normal 1.51703946310186e-17 -1.86529114306527e-17 -1.0
outer loop
vertex 24.5465275769798 3.35539770139005 -2.0
vertex 24.5465275769798 21.8446022986098 -2.0
vertex 25.1861616506567 22.1905757230502 -2.0
endloop
endfacet
facet normal 1.51703946310186e-17 -1.86529114306527e-17 -1.0
outer loop
vertex 24.5465275769798 3.35539770139005 -2.0
vertex 25.1861616506567 22.1905757230502 -2.0
vertex 25.1861616506567 3.00942427694965 -2.0
endloop
endfacet
facet normal 1.51703946310186e-17 -1.86529114306527e-17 -1.0
outer loop
vertex 25.1861616506567 3.00942427694965 -2.0
vertex 25.1861616506567 22.1905757230502 -2.0
vertex 25.8091622654657 22.5656751666318 -2.0
endloop
endfacet
facet normal 1.51703946310186e-17 -1.86529114306527e-17 -1.0
outer loop
vertex 25.1861616506567 3.00942427694965 -2.0
vertex 25.8091622654657 22.5656751666318 -2.0
vertex 25.8091622654657 2.63432483336803 -2.0
endloop
endfacet
facet normal 1.51703946310186e-17 -1.86529114306527e-17 -1.0
outer loop
vertex 25.8091622654657 2.63432483336803 -2.0
vertex 25.8091622654657 22.5656751666318 -2.0
vertex 26.4142040906986 22.9691026673634 -2.0
endloop
endfacet
facet normal 1.51703946310186e-17 -1.86529114306527e-17 -1.0
outer loop
vertex 25.8091622654657 2.63432483336803 -2.0
vertex 26.4142040906986 22.9691026673634 -2.0
vertex 26.4142040906986 2.23089733263649 -2.0
endloop
endfacet
facet normal 1.51703946310186e-17 -1.86529114306527e-17 -1.0
outer loop
vertex 26.4142040906986 2.23089733263649 -2.0
vertex 26.4142040906986 22.9691026673634 -2.0
vertex 27.0 23.4 -1.99999999999999
endloop
endfacet
facet normal 1.51703946310186e-17 -1.86529114306527e-17 -1.0
outer loop
vertex 26.4142040906986 2.23089733263649 -2.0
vertex 27.0 23.4 -1.99999999999999
vertex 27.0 1.79999999999992 -1.99999999999999
endloop
endfacet
facet normal 1.51703946310186e-17 -1.86529114306527e-17 -1.0
outer loop
vertex 27.0 1.79999999999992 -1.99999999999999
vertex 27.0 23.4 -1.99999999999999
vertex 150.0 23.3999999999999 -2.0
endloop
endfacet
facet normal 1.51703946310186e-17 -1.86529114306527e-17 -1.0
outer loop
vertex 27.0 1.79999999999992 -1.99999999999999
vertex 150.0 23.3999999999999 -2.0
vertex 150.0 1.79999999999993 -2.0
endloop
endfacet
facet normal 1.51703946310186e-17 -1.86529114306527e-17 -1.0
outer loop
vertex 150.0 1.79999999999993 -2.0
vertex 150.0 23.3999999999999 -2.0
vertex 220.0 12.5999999999999 -2.0
endloop
endfacet
facet normal 1.51703946310186e-17 -1.86529114306527e-17 -1.0
outer loop
vertex 19.0 25.1999999999999 -2.0
vertex 11.0 20.1999999999999 -2.0
vertex 11.0 25.1999999999999 -2.0
endloop
endfacet
facet normal 1.51703946310186e-17 -1.86529114306527e-17 -1.0
outer loop
vertex 11.0 20.1999999999999 -2.0
vertex 19.0 25.1999999999999 -2.0
vertex 11.0 4.99999999999995 -2.0
endloop
endfacet
facet normal 1.51703946310186e-17 -1.86529114306527e-17 -1.0
outer loop
vertex 11.0 4.99999999999995 -2.0
vertex 19.0 25.1999999999999 -2.0
vertex 11.0 -6.76791955811495e-14 -2.0
endloop
endfacet
facet normal 1.51703946310186e-17 -1.86529114306527e-17 -1.0
outer loop
vertex 11.0 -6.76791955811495e-14 -2.0
vertex 19.0 25.1999999999999 -2.0
vertex 19.0 -6.76791955811495e-14 -2.0
endloop
endfacet
facet normal 1.51703946310186e-17 -1.86529114306527e-17 -1.0
outer loop
vertex 19.0 -6.76791955811495e-14 -2.0
vertex 19.0 25.1999999999999 -2.0
vertex 19.0 20.1999999999999 -2.0
endloop
endfacet
facet normal 1.51703946310186e-17 -1.86529114306527e-17 -1.0
outer loop
vertex 19.0 -6.76791955811495e-14 -2.0
vertex 19.0 20.1999999999999 -2.0
vertex 19.0 4.99999999999995 -2.0
endloop
endfacet
facet normal 1.51703946310186e-17 -1.86529114306527e-17 -1.0
outer loop
vertex 3.00000000000004 23.4 -2.0
vertex 0.0 1.79999999999993 -2.0
vertex 0.0 23.3999999999999 -2.0
endloop
endfacet
facet normal 1.51703946310186e-17 -1.86529114306527e-17 -1.0
outer loop
vertex 0.0 1.79999999999993 -2.0
vertex 3.00000000000004 23.4 -2.0
vertex 3.00000000000004 1.79999999999992 -2.0
endloop
endfacet
facet normal 1.51703946310186e-17 -1.86529114306527e-17 -1.0
outer loop
vertex 3.00000000000004 1.79999999999992 -2.0
vertex 3.00000000000004 23.4 -2.0
vertex 3.58579590930148 22.9691026673634 -2.0
endloop
endfacet
facet normal 1.51703946310186e-17 -1.86529114306527e-17 -1.0
outer loop
vertex 3.00000000000004 1.79999999999992 -2.0
vertex 3.58579590930148 22.9691026673634 -2.0
vertex 3.58579590930148 2.23089733263649 -2.0
endloop
endfacet
facet normal 1.51703946310186e-17 -1.86529114306527e-17 -1.0
outer loop
vertex 3.58579590930148 2.23089733263649 -2.0
vertex 3.58579590930148 22.9691026673634 -2.0
vertex 4.19083773453433 22.5656751666318 -2.0
endloop
endfacet
facet normal 1.51703946310186e-17 -1.86529114306527e-17 -1.0
outer loop
vertex 3.58579590930148 2.23089733263649 -2.0
vertex 4.19083773453433 22.5656751666318 -2.0
vertex 4.19083773453433 2.63432483336803 -2.0
endloop
endfacet
facet normal 1.51703946310186e-17 -1.86529114306527e-17 -1.0
outer loop
vertex 4.19083773453433 2.63432483336803 -2.0
vertex 4.19083773453433 22.5656751666318 -2.0
vertex 4.81383834934332 22.1905757230502 -2.0
endloop
endfacet
facet normal 1.51703946310186e-17 -1.86529114306527e-17 -1.0
outer loop
vertex 4.19083773453433 2.63432483336803 -2.0
vertex 4.81383834934332 22.1905757230502 -2.0
vertex 4.81383834934332 3.00942427694965 -2.0
endloop
endfacet
facet normal 1.51703946310186e-17 -1.86529114306527e-17 -1.0
outer loop
vertex 4.81383834934332 3.00942427694965 -2.0
vertex 4.81383834934332 22.1905757230502 -2.0
vertex 5.45347242302028 21.8446022986098 -2.00000000000001
endloop
endfacet
facet normal 1.51703946310186e-17 -1.86529114306527e-17 -1.0
outer loop
vertex 4.81383834934332 3.00942427694965 -2.0
vertex 5.45347242302028 21.8446022986098 -2.00000000000001
vertex 5.45347242302028 3.35539770139005 -2.00000000000001
endloop
endfacet
facet normal 1.51703946310186e-17 -1.86529114306527e-17 -1.0
outer loop
vertex 5.45347242302028 3.35539770139005 -2.00000000000001
vertex 5.45347242302028 21.8446022986098 -2.00000000000001
vertex 6.10837923992601 21.5284908945163 -2.0
endloop
endfacet
facet normal 1.51703946310186e-17 -1.86529114306527e-17 -1.0
outer loop
vertex 5.45347242302028 3.35539770139005 -2.00000000000001
vertex 6.10837923992601 21.5284908945163 -2.0
vertex 6.10837923992601 3.67150910548359 -2.0
endloop
endfacet
facet normal 1.51703946310186e-17 -1.86529114306527e-17 -1.0
outer loop
vertex 6.10837923992601 3.67150910548359 -2.0
vertex 6.10837923992601 21.5284908945163 -2.0
vertex 6.77716559418756 21.2429139854688 -2.0
endloop
endfacet
facet normal 1.51703946310186e-17 -1.86529114306527e-17 -1.0
outer loop
vertex 6.10837923992601 3.67150910548359 -2.0
vertex 6.77716559418756 21.2429139854688 -2.0
vertex 6.77716559418756 3.9570860145311 -2.0
endloop
endfacet
facet normal 1.51703946310186e-17 -1.86529114306527e-17 -1.0
outer loop
vertex 6.77716559418756 3.9570860145311 -2.0
vertex 6.77716559418756 21.2429139854688 -2.0
vertex 7.45840875351321 20.9884790890814 -2.00000000000001
endloop
endfacet
facet normal 1.51703946310186e-17 -1.86529114306527e-17 -1.0
outer loop
vertex 6.77716559418756 3.9570860145311 -2.0
vertex 7.45840875351321 20.9884790890814 -2.00000000000001
vertex 7.45840875351321 4.21152091091847 -2.00000000000001
endloop
endfacet
facet normal 1.51703946310186e-17 -1.86529114306527e-17 -1.0
outer loop
vertex 7.45840875351321 4.21152091091847 -2.00000000000001
vertex 7.45840875351321 20.9884790890814 -2.00000000000001
vertex 8.15065948581979 20.76572747349 -2.0
endloop
endfacet
facet normal 1.51703946310186e-17 -1.86529114306527e-17 -1.0
outer loop
vertex 7.45840875351321 4.21152091091847 -2.00000000000001
vertex 8.15065948581979 20.76572747349 -2.0
vertex 8.15065948581979 4.43427252650986 -2.0
endloop
endfacet
facet normal 1.51703946310186e-17 -1.86529114306527e-17 -1.0
outer loop
vertex 8.15065948581979 4.43427252650986 -2.0
vertex 8.15065948581979 20.76572747349 -2.0
vertex 8.8524451422344 20.5751330058938 -2.00000000000001
endloop
endfacet
facet normal 1.51703946310186e-17 -1.86529114306527e-17 -1.0
outer loop
vertex 8.15065948581979 4.43427252650986 -2.0
vertex 8.8524451422344 20.5751330058938 -2.00000000000001
vertex 8.8524451422344 4.6248669941061 -2.00000000000001
endloop
endfacet
facet normal 1.51703946310186e-17 -1.86529114306527e-17 -1.0
outer loop
vertex 8.8524451422344 4.6248669941061 -2.00000000000001
vertex 8.8524451422344 20.5751330058938 -2.00000000000001
vertex 9.56227278991097 20.4171011444812 -2.0
endloop
endfacet
facet normal 1.51703946310186e-17 -1.86529114306527e-17 -1.0
outer loop
vertex 8.8524451422344 4.6248669941061 -2.00000000000001
vertex 9.56227278991097 20.4171011444812 -2.0
vertex 9.56227278991097 4.78289885551869 -2.0
endloop
endfacet
facet normal 1.51703946310186e-17 -1.86529114306527e-17 -1.0
outer loop
vertex 9.56227278991097 4.78289885551869 -2.0
vertex 9.56227278991097 20.4171011444812 -2.0
vertex 10.2786323879979 20.2919680758848 -2.0
endloop
endfacet
facet normal 1.51703946310186e-17 -1.86529114306527e-17 -1.0
outer loop
vertex 9.56227278991097 4.78289885551869 -2.0
vertex 10.2786323879979 20.2919680758848 -2.0
vertex 10.2786323879979 4.90803192411507 -2.0
endloop
endfacet
facet normal 1.51703946310186e-17 -1.86529114306527e-17 -1.0
outer loop
vertex 10.2786323879979 4.90803192411507 -2.0
vertex 10.2786323879979 20.2919680758848 -2.0
vertex 11.0 20.1999999999999 -2.0
endloop
endfacet
facet normal 1.51703946310186e-17 -1.86529114306527e-17 -1.0
outer loop
vertex 10.2786323879979 4.90803192411507 -2.0
vertex 11.0 20.1999999999999 -2.0
vertex 11.0 4.99999999999995 -2.0
endloop
endfacet
facet normal 0.455345845772756 0.890314641425993 1.94697569779148e-16
outer loop
vertex 5.45347242302028 21.8446022986098 -4.93494134445882e-15
vertex 6.10837923992601 21.5284908945163 -2.0
vertex 5.45347242302028 21.8446022986098 -2.00000000000001
endloop
endfacet
facet normal 0.413808415525035 0.910363990522835 1.98134592279141e-16
outer loop
vertex 6.10837923992601 21.5284908945163 -2.0
vertex 5.45347242302028 21.8446022986098 -4.93494134445882e-15
vertex 6.10837923992601 21.5284908945163 -4.58244553414033e-15
endloop
endfacet
facet normal 0.149310330023644 0.98879038493921 2.09712824822488e-16
outer loop
vertex 10.2786323879979 20.2919680758848 -4.93494134445882e-15
vertex 11.0 20.1999999999999 -2.0
vertex 10.2786323879979 20.2919680758848 -2.0
endloop
endfacet
facet normal 0.126467613028932 0.991970736894373 2.09960687617471e-16
outer loop
vertex 11.0 20.1999999999999 -2.0
vertex 10.2786323879979 20.2919680758848 -4.93494134445882e-15
vertex 11.0 20.1999999999999 -4.22994972382185e-15
endloop
endfacet
facet normal -0.413808415525035 0.910363990522835 1.82994570917989e-16
outer loop
vertex 23.891620760074 21.5284908945163 -2.0
vertex 24.5465275769798 21.8446022986098 1.05748743095546e-15
vertex 24.5465275769798 21.8446022986098 -2.0
endloop
endfacet
facet normal -0.455345845772756 0.890314641425993 1.78037817166422e-16
outer loop
vertex 24.5465275769798 21.8446022986098 1.05748743095546e-15
vertex 23.891620760074 21.5284908945163 -2.0
vertex 23.891620760074 21.5284908945163 7.04991620636974e-16
endloop
endfacet
facet normal -1.80321655371576e-17 -2.5368484348891e-16 1.0
outer loop
vertex 0.0 14.2999999999999 -2.46747067222941e-15
vertex 7.45840875351321 20.9884790890814 -3.52495810318487e-15
vertex 0.0 23.3999999999999 -2.8199664825479e-15
endloop
endfacet
facet normal -1.80321655371576e-17 -2.5368484348891e-16 1.0
outer loop
vertex 7.45840875351321 20.9884790890814 -3.52495810318487e-15
vertex 0.0 14.2999999999999 -2.46747067222941e-15
vertex 8.15065948581979 20.76572747349 -3.52495810318487e-15
endloop
endfacet
facet normal -1.80321655371576e-17 -2.5368484348891e-16 1.0
outer loop
vertex 8.15065948581979 20.76572747349 -3.52495810318487e-15
vertex 0.0 14.2999999999999 -2.46747067222941e-15
vertex 8.8524451422344 20.5751330058938 -3.17246229286638e-15
endloop
endfacet
facet normal -1.80321655371576e-17 -2.5368484348891e-16 1.0
outer loop
vertex 8.8524451422344 20.5751330058938 -3.17246229286638e-15
vertex 0.0 14.2999999999999 -2.46747067222941e-15
vertex 9.56227278991097 20.4171011444812 -4.22994972382185e-15
endloop
endfacet
facet normal -1.80321655371576e-17 -2.5368484348891e-16 1.0
outer loop
vertex 9.56227278991097 20.4171011444812 -4.22994972382185e-15
vertex 0.0 14.2999999999999 -2.46747067222941e-15
vertex 10.2786323879979 20.2919680758848 -4.93494134445882e-15
endloop
endfacet
facet normal -1.80321655371576e-17 -2.5368484348891e-16 1.0
outer loop
vertex 10.2786323879979 20.2919680758848 -4.93494134445882e-15
vertex 0.0 14.2999999999999 -2.46747067222941e-15
vertex 11.0 20.1999999999999 -4.22994972382185e-15
endloop
endfacet
facet normal -1.80321655371576e-17 -2.5368484348891e-16 1.0
outer loop
vertex 11.0 20.1999999999999 -4.22994972382185e-15
vertex 0.0 14.2999999999999 -2.46747067222941e-15
vertex 208.981481481481 14.3 -1.76247905159244e-15
endloop
endfacet
facet normal -1.80321655371576e-17 -2.5368484348891e-16 1.0
outer loop
vertex 0.0 23.3999999999999 -2.8199664825479e-15
vertex 7.45840875351321 20.9884790890814 -3.52495810318487e-15
vertex 6.77716559418756 21.2429139854688 -3.52495810318487e-15
endloop
endfacet
facet normal -1.80321655371576e-17 -2.5368484348891e-16 1.0
outer loop
vertex 0.0 23.3999999999999 -2.8199664825479e-15
vertex 6.77716559418756 21.2429139854688 -3.52495810318487e-15
vertex 6.10837923992601 21.5284908945163 -4.58244553414033e-15
endloop
endfacet
facet normal -1.80321655371576e-17 -2.5368484348891e-16 1.0
outer loop
vertex 0.0 23.3999999999999 -2.8199664825479e-15
vertex 6.10837923992601 21.5284908945163 -4.58244553414033e-15
vertex 5.45347242302028 21.8446022986098 -4.93494134445882e-15
endloop
endfacet
facet normal -1.80321655371576e-17 -2.5368484348891e-16 1.0
outer loop
vertex 0.0 23.3999999999999 -2.8199664825479e-15
vertex 5.45347242302028 21.8446022986098 -4.93494134445882e-15
vertex 4.81383834934332 22.1905757230502 -4.58244553414033e-15
endloop
endfacet
facet normal -1.80321655371576e-17 -2.5368484348891e-16 1.0
outer loop
vertex 0.0 23.3999999999999 -2.8199664825479e-15
vertex 4.81383834934332 22.1905757230502 -4.58244553414033e-15
vertex 4.19083773453433 22.5656751666319 -3.52495810318487e-15
endloop
endfacet
facet normal -1.80321655371576e-17 -2.5368484348891e-16 1.0
outer loop
vertex 0.0 23.3999999999999 -2.8199664825479e-15
vertex 4.19083773453433 22.5656751666319 -3.52495810318487e-15
vertex 3.58579590930148 22.9691026673634 -3.87745391350336e-15
endloop
endfacet
facet normal -1.80321655371576e-17 -2.5368484348891e-16 1.0
outer loop
vertex 0.0 23.3999999999999 -2.8199664825479e-15
vertex 3.58579590930148 22.9691026673634 -3.87745391350336e-15
vertex 3.00000000000004 23.3999999999999 -5.28743715477731e-15
endloop
endfacet
facet normal -1.80321655371576e-17 -2.5368484348891e-16 1.0
outer loop
vertex 11.0 20.1999999999999 -4.22994972382185e-15
vertex 208.981481481481 14.3 -1.76247905159244e-15
vertex 19.0 20.1999999999999 -4.58244553414033e-15
endloop
endfacet
facet normal -1.80321655371576e-17 -2.5368484348891e-16 1.0
outer loop
vertex 11.0 20.1999999999999 -4.22994972382185e-15
vertex 19.0 20.1999999999999 -4.58244553414033e-15
vertex 11.0 25.1999999999999 -1.76247905159244e-15
endloop
endfacet
facet normal -1.80321655371576e-17 -2.5368484348891e-16 1.0
outer loop
vertex 19.0 20.1999999999999 -4.58244553414033e-15
vertex 208.981481481481 14.3 -1.76247905159244e-15
vertex 19.7213676120021 20.2919680758848 -4.22994972382185e-15
endloop
endfacet
facet normal -1.80321655371576e-17 -2.5368484348891e-16 1.0
outer loop
vertex 19.7213676120021 20.2919680758848 -4.22994972382185e-15
vertex 208.981481481481 14.3 -1.76247905159244e-15
vertex 20.4377272100891 20.4171011444812 -2.8199664825479e-15
endloop
endfacet
facet normal -1.80321655371576e-17 -2.5368484348891e-16 1.0
outer loop
vertex 20.4377272100891 20.4171011444812 -2.8199664825479e-15
vertex 208.981481481481 14.3 -1.76247905159244e-15
vertex 21.1475548577656 20.5751330058938 -1.05748743095546e-15
endloop
endfacet
facet normal -1.80321655371576e-17 -2.5368484348891e-16 1.0
outer loop
vertex 21.1475548577656 20.5751330058938 -1.05748743095546e-15
vertex 208.981481481481 14.3 -1.76247905159244e-15
vertex 21.8493405141802 20.76572747349 -3.52495810318487e-16
endloop
endfacet
facet normal -1.80321655371576e-17 -2.5368484348891e-16 1.0
outer loop
vertex 21.8493405141802 20.76572747349 -3.52495810318487e-16
vertex 208.981481481481 14.3 -1.76247905159244e-15
vertex 22.5415912464868 20.9884790890814 3.52495810318487e-16
endloop
endfacet
facet normal -1.80321655371576e-17 -2.5368484348891e-16 1.0
outer loop
vertex 22.5415912464868 20.9884790890814 3.52495810318487e-16
vertex 208.981481481481 14.3 -1.76247905159244e-15
vertex 23.2228344058125 21.2429139854688 1.05748743095546e-15
endloop
endfacet
facet normal -1.80321655371576e-17 -2.5368484348891e-16 1.0
outer loop
vertex 23.2228344058125 21.2429139854688 1.05748743095546e-15
vertex 208.981481481481 14.3 -1.76247905159244e-15
vertex 23.891620760074 21.5284908945163 7.04991620636974e-16
endloop
endfacet
facet normal -1.80321655371576e-17 -2.5368484348891e-16 1.0
outer loop
vertex 23.891620760074 21.5284908945163 7.04991620636974e-16
vertex 208.981481481481 14.3 -1.76247905159244e-15
vertex 24.5465275769798 21.8446022986098 1.05748743095546e-15
endloop
endfacet
facet normal -1.80321655371576e-17 -2.5368484348891e-16 1.0
outer loop
vertex 24.5465275769798 21.8446022986098 1.05748743095546e-15
vertex 208.981481481481 14.3 -1.76247905159244e-15
vertex 25.1861616506567 22.1905757230502 2.11497486191092e-15
endloop
endfacet
facet normal -1.80321655371576e-17 -2.5368484348891e-16 1.0
outer loop
vertex 25.1861616506567 22.1905757230502 2.11497486191092e-15
vertex 208.981481481481 14.3 -1.76247905159244e-15
vertex 25.8091622654657 22.5656751666319 3.87745391350336e-15
endloop
endfacet
facet normal -1.80321655371576e-17 -2.5368484348891e-16 1.0
outer loop
vertex 25.8091622654657 22.5656751666319 3.87745391350336e-15
vertex 208.981481481481 14.3 -1.76247905159244e-15
vertex 26.4142040906986 22.9691026673634 4.22994972382185e-15
endloop
endfacet
facet normal -1.80321655371576e-17 -2.5368484348891e-16 1.0
outer loop
vertex 26.4142040906986 22.9691026673634 4.22994972382185e-15
vertex 208.981481481481 14.3 -1.76247905159244e-15
vertex 27.0 23.3999999999999 3.52495810318487e-15
endloop
endfacet
facet normal -1.80321655371576e-17 -2.5368484348891e-16 1.0
outer loop
vertex 27.0 23.3999999999999 3.52495810318487e-15
vertex 208.981481481481 14.3 -1.76247905159244e-15
vertex 150.0 23.3999999999999 -2.8199664825479e-15
endloop
endfacet
facet normal -1.80321655371576e-17 -2.5368484348891e-16 1.0
outer loop
vertex 19.0 25.1999999999999 -7.04991620636974e-16
vertex 11.0 25.1999999999999 -1.76247905159244e-15
vertex 19.0 20.1999999999999 -4.58244553414033e-15
endloop
endfacet
facet normal -2.37714529934819e-31 1.0 2.0932789915067e-16
outer loop
vertex 11.0 25.1999999999999 -1.76247905159244e-15
vertex 19.0 25.1999999999999 -2.0
vertex 11.0 25.1999999999999 -2.0
endloop
endfacet
facet normal -2.37714529934819e-31 1.0 2.0932789915067e-16
outer loop
vertex 19.0 25.1999999999999 -2.0
vertex 11.0 25.1999999999999 -1.76247905159244e-15
vertex 19.0 25.1999999999999 -7.04991620636974e-16
endloop
endfacet
facet normal 0.495914603088408 0.868371295266988 1.90846360419797e-16
outer loop
vertex 4.81383834934332 22.1905757230502 -2.0
vertex 5.45347242302028 21.8446022986098 -4.93494134445882e-15
vertex 5.45347242302028 21.8446022986098 -2.00000000000001
endloop
endfacet
facet normal 0.455345845772756 0.890314641425993 1.94697569779148e-16
outer loop
vertex 5.45347242302028 21.8446022986098 -4.93494134445882e-15
vertex 4.81383834934332 22.1905757230502 -2.0
vertex 4.81383834934332 22.1905757230502 -4.58244553414033e-15
endloop
endfacet
facet normal -1.34938582239776e-16 1.0 -2.05039057819648e-17
outer loop
vertex 0.0 14.2999999999999 1.7
vertex 208.981481481481 14.3 -1.76247905159244e-15
vertex 0.0 14.2999999999999 -2.46747067222941e-15
endloop
endfacet
facet normal -1.34938582239776e-16 1.0 -2.05039057819648e-17
outer loop
vertex 208.981481481481 14.3 -1.76247905159244e-15
vertex 0.0 14.2999999999999 1.7
vertex 208.981481481481 14.3 1.7
endloop
endfacet
facet normal -4.73907504948333e-18 1.03675238328966e-16 1.0
outer loop
vertex 208.981481481481 10.8999999999999 1.7
vertex 0.0 14.2999999999999 1.7
vertex 0.0 10.8999999999999 1.7
endloop
endfacet
facet normal -4.73907504948333e-18 1.03675238328966e-16 1.0
outer loop
vertex 0.0 14.2999999999999 1.7
vertex 208.981481481481 10.8999999999999 1.7
vertex 208.981481481481 14.3 1.7
endloop
endfacet
facet normal -4.73907504948333e-18 1.03675238328966e-16 1.0
outer loop
vertex 208.981481481481 14.3 1.7
vertex 208.981481481481 10.8999999999999 1.7
vertex 220.0 12.5999999999999 1.7
endloop
endfacet
facet normal 0.194745399669738 0.980853826677285 2.08882648907729e-16
outer loop
vertex 9.56227278991097 20.4171011444812 -4.22994972382185e-15
vertex 10.2786323879979 20.2919680758848 -2.0
vertex 9.56227278991097 20.4171011444812 -2.0
endloop
endfacet
facet normal 0.149310330023643 0.98879038493921 2.09712824822488e-16
outer loop
vertex 10.2786323879979 20.2919680758848 -2.0
vertex 9.56227278991097 20.4171011444812 -4.22994972382185e-15
vertex 10.2786323879979 20.2919680758848 -4.93494134445882e-15
endloop
endfacet
facet normal 0.239766180706314 0.970830664219825 2.07608109725242e-16
outer loop
vertex 8.8524451422344 20.5751330058938 -3.17246229286638e-15
vertex 9.56227278991097 20.4171011444812 -2.0
vertex 8.8524451422344 20.5751330058938 -2.00000000000001
endloop
endfacet
facet normal 0.194745399669738 0.980853826677285 2.08882648907729e-16
outer loop
vertex 9.56227278991097 20.4171011444812 -2.0
vertex 8.8524451422344 20.5751330058938 -3.17246229286638e-15
vertex 9.56227278991097 20.4171011444812 -4.22994972382185e-15
endloop
endfacet
facet normal 0.32818286498038 0.944614210740697 2.03737726583163e-16
outer loop
vertex 7.45840875351321 20.9884790890814 -3.52495810318487e-15
vertex 8.15065948581979 20.76572747349 -2.0
vertex 7.45840875351321 20.9884790890814 -2.00000000000001
endloop
endfacet
facet normal 0.284276898872155 0.958742220186235 2.05891918646216e-16
outer loop
vertex 8.15065948581979 20.76572747349 -2.0
vertex 7.45840875351321 20.9884790890814 -3.52495810318487e-15
vertex 8.15065948581979 20.76572747349 -3.52495810318487e-15
endloop
endfacet
facet normal 0.371390676354098 0.928476690885262 2.01150116223198e-16
outer loop
vertex 6.77716559418756 21.2429139854688 -2.0
vertex 7.45840875351321 20.9884790890814 -3.52495810318487e-15
vertex 7.45840875351321 20.9884790890814 -2.00000000000001
endloop
endfacet
facet normal 0.32818286498038 0.944614210740697 2.03737726583163e-16
outer loop
vertex 7.45840875351321 20.9884790890814 -3.52495810318487e-15
vertex 6.77716559418756 21.2429139854688 -2.0
vertex 6.77716559418756 21.2429139854688 -3.52495810318487e-15
endloop
endfacet
facet normal -0.455345845772756 0.890314641425993 1.78037817166422e-16
outer loop
vertex 24.5465275769798 21.8446022986098 1.05748743095546e-15
vertex 25.1861616506567 22.1905757230502 -2.0
vertex 24.5465275769798 21.8446022986098 -2.0
endloop
endfacet
facet normal -0.495914603088408 0.868371295266988 1.72702317422172e-16
outer loop
vertex 25.1861616506567 22.1905757230502 -2.0
vertex 24.5465275769798 21.8446022986098 1.05748743095546e-15
vertex 25.1861616506567 22.1905757230502 2.11497486191092e-15
endloop
endfacet
facet normal -1.0 5.75277412052229e-33 -1.82935155414155e-17
outer loop
vertex 11.0 20.1999999999999 -4.22994972382185e-15
vertex 11.0 25.1999999999999 -2.0
vertex 11.0 20.1999999999999 -2.0
endloop
endfacet
facet normal -1.0 5.75277412052229e-33 -1.82935155414155e-17
outer loop
vertex 11.0 25.1999999999999 -2.0
vertex 11.0 20.1999999999999 -4.22994972382185e-15
vertex 11.0 25.1999999999999 -1.76247905159244e-15
endloop
endfacet
facet normal 0.413808415525035 0.910363990522835 1.98134592279141e-16
outer loop
vertex 6.10837923992601 21.5284908945163 -4.58244553414033e-15
vertex 6.77716559418756 21.2429139854688 -2.0
vertex 6.10837923992601 21.5284908945163 -2.0
endloop
endfacet
facet normal 0.371390676354098 0.928476690885262 2.01150116223198e-16
outer loop
vertex 6.77716559418756 21.2429139854688 -2.0
vertex 6.10837923992601 21.5284908945163 -4.58244553414033e-15
vertex 6.77716559418756 21.2429139854688 -3.52495810318487e-15
endloop
endfacet
facet normal -0.371390676354098 0.928476690885261 1.87562034003557e-16
outer loop
vertex 23.2228344058125 21.2429139854688 1.05748743095546e-15
vertex 23.891620760074 21.5284908945163 -2.0
vertex 23.2228344058125 21.2429139854688 -2.0
endloop
endfacet
facet normal -0.413808415525035 0.910363990522835 1.82994570917989e-16
outer loop
vertex 23.891620760074 21.5284908945163 -2.0
vertex 23.2228344058125 21.2429139854688 1.05748743095546e-15
vertex 23.891620760074 21.5284908945163 7.04991620636974e-16
endloop
endfacet
facet normal -0.32818286498038 0.944614210740697 1.91730489901273e-16
outer loop
vertex 22.5415912464868 20.9884790890814 3.52495810318487e-16
vertex 23.2228344058125 21.2429139854688 -2.0
vertex 22.5415912464868 20.9884790890814 -2.0
endloop
endfacet
facet normal -0.371390676354098 0.928476690885262 1.87562034003557e-16
outer loop
vertex 23.2228344058125 21.2429139854688 -2.0
vertex 22.5415912464868 20.9884790890814 3.52495810318487e-16
vertex 23.2228344058125 21.2429139854688 1.05748743095546e-15
endloop
endfacet
facet normal -0.284276898872155 0.958742220186235 1.9549107091105e-16
outer loop
vertex 21.8493405141802 20.76572747349 -2.0
vertex 22.5415912464868 20.9884790890814 3.52495810318487e-16
vertex 22.5415912464868 20.9884790890814 -2.0
endloop
endfacet
facet normal -0.32818286498038 0.944614210740697 1.91730489901273e-16
outer loop
vertex 22.5415912464868 20.9884790890814 3.52495810318487e-16
vertex 21.8493405141802 20.76572747349 -2.0
vertex 21.8493405141802 20.76572747349 -3.52495810318487e-16
endloop
endfacet
facet normal -0.239766180706314 0.970830664219825 1.98835777019128e-16
outer loop
vertex 21.1475548577656 20.5751330058938 -1.05748743095546e-15
vertex 21.8493405141802 20.76572747349 -2.0
vertex 21.1475548577656 20.5751330058938 -2.0
endloop
endfacet
facet normal -0.284276898872155 0.958742220186235 1.9549107091105e-16
outer loop
vertex 21.8493405141802 20.76572747349 -2.0
vertex 21.1475548577656 20.5751330058938 -1.05748743095546e-15
vertex 21.8493405141802 20.76572747349 -3.52495810318487e-16
endloop
endfacet
facet normal -0.194745399669738 0.980853826677285 2.01757492916774e-16
outer loop
vertex 20.4377272100891 20.4171011444812 -2.0
vertex 21.1475548577656 20.5751330058938 -1.05748743095546e-15
vertex 21.1475548577656 20.5751330058938 -2.0
endloop
endfacet
facet normal -0.239766180706314 0.970830664219825 1.98835777019128e-16
outer loop
vertex 21.1475548577656 20.5751330058938 -1.05748743095546e-15
vertex 20.4377272100891 20.4171011444812 -2.0
vertex 20.4377272100891 20.4171011444812 -2.8199664825479e-15
endloop
endfacet
facet normal -0.149310330023644 0.98879038493921 2.04250003136926e-16
outer loop
vertex 19.7213676120021 20.2919680758848 -4.22994972382185e-15
vertex 20.4377272100891 20.4171011444812 -2.0
vertex 19.7213676120021 20.2919680758848 -2.0
endloop
endfacet
facet normal -0.194745399669738 0.980853826677285 2.01757492916774e-16
outer loop
vertex 20.4377272100891 20.4171011444812 -2.0
vertex 19.7213676120021 20.2919680758848 -4.22994972382185e-15
vertex 20.4377272100891 20.4171011444812 -2.8199664825479e-15
endloop
endfacet
facet normal -0.126467613028932 0.991970736894373 2.0533361312861e-16
outer loop
vertex 19.0 20.1999999999999 -4.58244553414033e-15
vertex 19.7213676120021 20.2919680758848 -2.0
vertex 19.0 20.1999999999999 -2.0
endloop
endfacet
facet normal -0.149310330023643 0.98879038493921 2.04250003136926e-16
outer loop
vertex 19.7213676120021 20.2919680758848 -2.0
vertex 19.0 20.1999999999999 -4.58244553414033e-15
vertex 19.7213676120021 20.2919680758848 -4.22994972382185e-15
endloop
endfacet
facet normal 1.0 -1.09114841879984e-32 1.82935155414155e-17
outer loop
vertex 19.0 25.1999999999999 -2.0
vertex 19.0 20.1999999999999 -4.58244553414033e-15
vertex 19.0 20.1999999999999 -2.0
endloop
endfacet
facet normal 1.0 -1.09114841879984e-32 1.82935155414155e-17
outer loop
vertex 19.0 20.1999999999999 -4.58244553414033e-15
vertex 19.0 25.1999999999999 -2.0
vertex 19.0 25.1999999999999 -7.04991620636974e-16
endloop
endfacet
facet normal 0.573803129940962 0.81899326497228 1.81935016050483e-16
outer loop
vertex 3.58579590930148 22.9691026673634 -3.87745391350336e-15
vertex 4.19083773453433 22.5656751666318 -2.0
vertex 3.58579590930148 22.9691026673634 -2.0
endloop
endfacet
facet normal 0.535428384154515 0.844580632883376 1.86589157011666e-16
outer loop
vertex 4.19083773453433 22.5656751666318 -2.0
vertex 3.58579590930148 22.9691026673634 -3.87745391350336e-15
vertex 4.19083773453433 22.5656751666319 -3.52495810318487e-15
endloop
endfacet
facet normal 0.284276898872155 0.958742220186235 2.05891918646216e-16
outer loop
vertex 8.15065948581979 20.76572747349 -2.0
vertex 8.8524451422344 20.5751330058938 -3.17246229286638e-15
vertex 8.8524451422344 20.5751330058938 -2.00000000000001
endloop
endfacet
facet normal 0.239766180706314 0.970830664219825 2.07608109725242e-16
outer loop
vertex 8.8524451422344 20.5751330058938 -3.17246229286638e-15
vertex 8.15065948581979 20.76572747349 -2.0
vertex 8.15065948581979 20.76572747349 -3.52495810318487e-15
endloop
endfacet
facet normal 0.15248154619565 0.988306317934771 1.45480261944776e-14
outer loop
vertex 220.0 12.5999999999999 -2.0
vertex 208.981481481481 14.3 -1.76247905159244e-15
vertex 220.0 12.5999999999999 1.7
endloop
endfacet
facet normal 0.15248154619565 0.988306317934771 1.45480261944776e-14
outer loop
vertex 208.981481481481 14.3 -1.76247905159244e-15
vertex 220.0 12.5999999999999 -2.0
vertex 150.0 23.3999999999999 -2.0
endloop
endfacet
facet normal 0.15248154619565 0.988306317934771 1.45480261944776e-14
outer loop
vertex 208.981481481481 14.3 -1.76247905159244e-15
vertex 150.0 23.3999999999999 -2.0
vertex 150.0 23.3999999999999 -2.8199664825479e-15
endloop
endfacet
facet normal 0.15248154619565 0.988306317934771 1.45480261944776e-14
outer loop
vertex 220.0 12.5999999999999 1.7
vertex 208.981481481481 14.3 -1.76247905159244e-15
vertex 208.981481481481 14.3 1.7
endloop
endfacet
facet normal -0.535428384154515 0.844580632883376 1.66999422077975e-16
outer loop
vertex 25.8091622654657 22.5656751666319 3.87745391350336e-15
vertex 26.4142040906986 22.9691026673634 -2.0
vertex 25.8091622654657 22.5656751666318 -2.0
endloop
endfacet
facet normal -0.573803129940962 0.81899326497228 1.60941263099907e-16
outer loop
vertex 26.4142040906986 22.9691026673634 -2.0
vertex 25.8091622654657 22.5656751666319 3.87745391350336e-15
vertex 26.4142040906986 22.9691026673634 4.22994972382185e-15
endloop
endfacet
facet normal -0.495914603088408 0.868371295266988 1.72702317422172e-16
outer loop
vertex 25.1861616506567 22.1905757230502 2.11497486191092e-15
vertex 25.8091622654657 22.5656751666318 -2.0
vertex 25.1861616506567 22.1905757230502 -2.0
endloop
endfacet
facet normal -0.535428384154515 0.844580632883376 1.66999422077975e-16
outer loop
vertex 25.8091622654657 22.5656751666318 -2.0
vertex 25.1861616506567 22.1905757230502 2.11497486191092e-15
vertex 25.8091622654657 22.5656751666319 3.87745391350336e-15
endloop
endfacet
facet normal -0.573803129940962 0.81899326497228 1.60941263099907e-16
outer loop
vertex 26.4142040906986 22.9691026673634 4.22994972382185e-15
vertex 27.0 23.4 -1.99999999999999
vertex 26.4142040906986 22.9691026673634 -2.0
endloop
endfacet
facet normal -0.592537753940695 0.805542680529664 1.57782958380884e-16
outer loop
vertex 27.0 23.4 -1.99999999999999
vertex 26.4142040906986 22.9691026673634 4.22994972382185e-15
vertex 27.0 23.3999999999999 3.52495810318487e-15
endloop
endfacet
facet normal 4.58531135373643e-17 1.0 2.0932789915067e-16
outer loop
vertex 27.0 23.4 -1.99999999999999
vertex 150.0 23.3999999999999 -2.8199664825479e-15
vertex 150.0 23.3999999999999 -2.0
endloop
endfacet
facet normal 4.58531135373643e-17 1.0 2.0932789915067e-16
outer loop
vertex 150.0 23.3999999999999 -2.8199664825479e-15
vertex 27.0 23.4 -1.99999999999999
vertex 27.0 23.3999999999999 3.52495810318487e-15
endloop
endfacet
facet normal 0.535428384154515 0.844580632883376 1.86589157011666e-16
outer loop
vertex 4.19083773453433 22.5656751666319 -3.52495810318487e-15
vertex 4.81383834934332 22.1905757230502 -2.0
vertex 4.19083773453433 22.5656751666318 -2.0
endloop
endfacet
facet normal 0.495914603088408 0.868371295266988 1.90846360419797e-16
outer loop
vertex 4.81383834934332 22.1905757230502 -2.0
vertex 4.19083773453433 22.5656751666319 -3.52495810318487e-15
vertex 4.81383834934332 22.1905757230502 -4.58244553414033e-15
endloop
endfacet
endsolid Cuchilla
