solid Tapa
facet normal 0.0 -1.0 0.0
  outer loop
    vertex 199.99999999999991 -9.999999999999993 1.0000000000000038
    vertex 0.0 -9.999999999999993 0.0
    vertex 199.99999999999991 -9.999999999999993 0.0
  endloop
endfacet
facet normal 0.0 -1.0 0.0
  outer loop
    vertex 0.0 -9.999999999999993 0.0
    vertex 199.99999999999991 -9.999999999999993 1.0000000000000038
    vertex 0.0 -9.999999999999993 1.0000000000000038
  endloop
endfacet
facet normal 1.0 -7.519910620127718e-16 -0.0
  outer loop
    vertex 199.99999999999994 50.000000000000085 0.0
    vertex 199.99999999999991 -9.999999999999993 1.0000000000000038
    vertex 199.99999999999991 -9.999999999999993 0.0
  endloop
endfacet
facet normal 1.0 -7.519910620127718e-16 -0.0
  outer loop
    vertex 199.99999999999991 -9.999999999999993 1.0000000000000038
    vertex 199.99999999999994 50.000000000000085 0.0
    vertex 199.99999999999994 50.000000000000085 1.0000000000000038
  endloop
endfacet
facet normal -0.0 1.0 -0.0
  outer loop
    vertex 0.0 50.000000000000085 1.0000000000000038
    vertex 199.99999999999994 50.000000000000085 0.0
    vertex 0.0 50.000000000000085 0.0
  endloop
endfacet
facet normal -0.0 1.0 -0.0
  outer loop
    vertex 199.99999999999994 50.000000000000085 0.0
    vertex 0.0 50.000000000000085 1.0000000000000038
    vertex 199.99999999999994 50.000000000000085 1.0000000000000038
  endloop
endfacet
facet normal -1.0 0.0 0.0
  outer loop
    vertex 0.0 50.000000000000085 1.0000000000000038
    vertex 0.0 -9.999999999999993 0.0
    vertex 0.0 -9.999999999999993 1.0000000000000038
  endloop
endfacet
facet normal -1.0 0.0 0.0
  outer loop
    vertex 0.0 -9.999999999999993 0.0
    vertex 0.0 50.000000000000085 1.0000000000000038
    vertex 0.0 50.000000000000085 0.0
  endloop
endfacet
facet normal -0.0 -0.0 1.0
  outer loop
    vertex 0.0 -9.999999999999993 1.0000000000000038
    vertex 2.099999999999996 -7.899999999999997 1.0000000000000038
    vertex 0.0 50.000000000000085 1.0000000000000038
  endloop
endfacet
facet normal -0.0 -0.0 1.0
  outer loop
    vertex 2.099999999999996 -7.899999999999997 1.0000000000000038
    vertex 0.0 -9.999999999999993 1.0000000000000038
    vertex 199.99999999999991 -9.999999999999993 1.0000000000000038
  endloop
endfacet
facet normal -0.0 -0.0 1.0
  outer loop
    vertex 2.099999999999996 -7.899999999999997 1.0000000000000038
    vertex 199.99999999999991 -9.999999999999993 1.0000000000000038
    vertex 197.89999999999984 -7.899999999999997 1.0000000000000038
  endloop
endfacet
facet normal -0.0 -0.0 1.0
  outer loop
    vertex 197.89999999999984 -7.899999999999997 1.0000000000000038
    vertex 199.99999999999991 -9.999999999999993 1.0000000000000038
    vertex 197.89999999999984 47.90000000000011 1.0000000000000038
  endloop
endfacet
facet normal -0.0 -0.0 1.0
  outer loop
    vertex 0.0 50.000000000000085 1.0000000000000038
    vertex 2.0999999999999988 47.90000000000011 1.0000000000000038
    vertex 199.99999999999994 50.000000000000085 1.0000000000000038
  endloop
endfacet
facet normal -0.0 -0.0 1.0
  outer loop
    vertex 2.0999999999999988 47.90000000000011 1.0000000000000038
    vertex 0.0 50.000000000000085 1.0000000000000038
    vertex 2.099999999999996 -7.899999999999997 1.0000000000000038
  endloop
endfacet
facet normal -0.0 -0.0 1.0
  outer loop
    vertex 199.99999999999994 50.000000000000085 1.0000000000000038
    vertex 2.0999999999999988 47.90000000000011 1.0000000000000038
    vertex 197.89999999999984 47.90000000000011 1.0000000000000038
  endloop
endfacet
facet normal -0.0 -0.0 1.0
  outer loop
    vertex 199.99999999999994 50.000000000000085 1.0000000000000038
    vertex 197.89999999999984 47.90000000000011 1.0000000000000038
    vertex 199.99999999999991 -9.999999999999993 1.0000000000000038
  endloop
endfacet
facet normal -1.0 5.053703373741743e-17 0.0
  outer loop
    vertex 2.0999999999999988 47.90000000000011 3.000000000000003
    vertex 2.099999999999996 -7.899999999999997 1.0000000000000038
    vertex 2.099999999999996 -7.899999999999997 3.000000000000003
  endloop
endfacet
facet normal -1.0 5.053703373741743e-17 0.0
  outer loop
    vertex 2.099999999999996 -7.899999999999997 1.0000000000000038
    vertex 2.0999999999999988 47.90000000000011 3.000000000000003
    vertex 2.0999999999999988 47.90000000000011 1.0000000000000038
  endloop
endfacet
facet normal -0.9659258262890681 -0.2588190451025215 -2.873468630843162e-17
  outer loop
    vertex 92.38027331526345 24.141104721640396 3.000000000000003
    vertex 92.92546009463837 20.000000000000053 1.0000000000000024
    vertex 92.92546009463837 20.000000000000053 3.0000000000000013
  endloop
endfacet
facet normal -1.0 1.7822219791293818e-16 5.142063106243446e-19
  outer loop
    vertex 92.92546009463837 20.000000000000053 1.0000000000000024
    vertex 92.38027331526345 24.141104721640396 3.000000000000003
    vertex 92.38027331526345 24.141104721640396 1.0000000000000038
  endloop
endfacet
facet normal -0.7071067811865476 -0.7071067811865476 -7.725758621031233e-17
  outer loop
    vertex 88.2391685936231 31.31370849898482 3.000000000000003
    vertex 90.78186655518937 28.00000000000006 1.0000000000000038
    vertex 90.78186655518937 28.00000000000006 3.000000000000003
  endloop
endfacet
facet normal -0.8660254037844379 -0.5000000000000011 -5.551115123125793e-17
  outer loop
    vertex 90.78186655518937 28.00000000000006 1.0000000000000038
    vertex 88.2391685936231 31.31370849898482 3.000000000000003
    vertex 88.2391685936231 31.31370849898482 1.0000000000000038
  endloop
endfacet
facet normal -0.8660254037844379 -0.5000000000000011 -5.551115123125793e-17
  outer loop
    vertex 90.78186655518937 28.00000000000006 3.000000000000003
    vertex 92.38027331526345 24.141104721640396 1.0000000000000038
    vertex 92.38027331526345 24.141104721640396 3.000000000000003
  endloop
endfacet
facet normal -0.9659258262890681 -0.25881904510252146 -2.8734686308431606e-17
  outer loop
    vertex 92.38027331526345 24.141104721640396 1.0000000000000038
    vertex 90.78186655518937 28.00000000000006 3.000000000000003
    vertex 90.78186655518937 28.00000000000006 1.0000000000000038
  endloop
endfacet
facet normal 0.0 -1.0 0.0
  outer loop
    vertex 197.89999999999984 -7.899999999999997 3.000000000000003
    vertex 2.099999999999996 -7.899999999999997 1.0000000000000038
    vertex 197.89999999999984 -7.899999999999997 1.0000000000000038
  endloop
endfacet
facet normal 0.0 -1.0 0.0
  outer loop
    vertex 2.099999999999996 -7.899999999999997 1.0000000000000038
    vertex 197.89999999999984 -7.899999999999997 3.000000000000003
    vertex 2.099999999999996 -7.899999999999997 3.000000000000003
  endloop
endfacet
facet normal 0.0 -1.0 0.0
  outer loop
    vertex 2.099999999999996 -7.899999999999997 3.000000000000003
    vertex 197.89999999999984 -7.899999999999997 3.000000000000003
    vertex 50.78503550590513 -7.899999999999997 3.000000000000003
  endloop
endfacet
facet normal 0.0 -1.0 0.0
  outer loop
    vertex 2.099999999999996 -7.899999999999997 3.000000000000003
    vertex 50.78503550590513 -7.899999999999997 3.000000000000003
    vertex 49.26588468337158 -7.899999999999997 3.000000000000003
  endloop
endfacet
facet normal 0.63938026570197 0.7688906787254466 8.536401349406547e-17
  outer loop
    vertex 71.81041796902258 13.848874570196479 1.0000000000000038
    vertex 73.57673721299714 12.734598767998296 5.639932965095795e-15
    vertex 71.81041796902258 13.848874570196479 5.639932965095795e-15
  endloop
endfacet
facet normal 0.41859036020514917 0.90817515400022 1.0082769663635412e-16
  outer loop
    vertex 73.57673721299714 12.734598767998296 5.639932965095795e-15
    vertex 71.81041796902258 13.848874570196479 1.0000000000000038
    vertex 73.57673721299714 12.734598767998296 1.0000000000000038
  endloop
endfacet
facet normal 0.8660254037844394 -0.49999999999999906 -5.551115123125772e-17
  outer loop
    vertex 63.06905363408733 28.00000000000006 1.0000000000000038
    vertex 61.47064687401326 24.141104721640396 3.000000000000003
    vertex 61.47064687401326 24.141104721640396 1.0000000000000038
  endloop
endfacet
facet normal 0.9659258262890685 -0.25881904510252035 -2.873468630843149e-17
  outer loop
    vertex 61.47064687401326 24.141104721640396 3.000000000000003
    vertex 63.06905363408733 28.00000000000006 1.0000000000000038
    vertex 63.06905363408733 28.00000000000006 3.000000000000003
  endloop
endfacet
facet normal 0.9659258262890685 -0.2588190451025203 -2.873468630843148e-17
  outer loop
    vertex 61.47064687401326 24.141104721640396 1.0000000000000038
    vertex 60.92546009463835 20.000000000000053 3.0000000000000013
    vertex 60.92546009463835 20.000000000000053 1.0000000000000024
  endloop
endfacet
facet normal 1.0 0.0 5.142063106240664e-19
  outer loop
    vertex 60.92546009463835 20.000000000000053 3.0000000000000013
    vertex 61.47064687401326 24.141104721640396 1.0000000000000038
    vertex 61.47064687401326 24.141104721640396 3.000000000000003
  endloop
endfacet
facet normal 1.0 0.0 5.142063106240657e-19
  outer loop
    vertex 60.92546009463835 20.000000000000053 1.0000000000000024
    vertex 61.47064687401326 15.858895278359713 3.000000000000003
    vertex 61.47064687401326 15.858895278359713 1.0000000000000038
  endloop
endfacet
facet normal 0.965925826289068 0.2588190451025218 2.924889261905571e-17
  outer loop
    vertex 61.47064687401326 15.858895278359713 3.000000000000003
    vertex 60.92546009463835 20.000000000000053 1.0000000000000024
    vertex 60.92546009463835 20.000000000000053 3.0000000000000013
  endloop
endfacet
facet normal 0.965925826289068 0.2588190451025218 2.9248892619055704e-17
  outer loop
    vertex 61.47064687401326 15.858895278359713 1.0000000000000038
    vertex 63.06905363408734 12.000000000000052 3.000000000000003
    vertex 63.06905363408734 12.000000000000052 1.0000000000000038
  endloop
endfacet
facet normal 0.8660254037844389 0.49999999999999944 5.551115123125775e-17
  outer loop
    vertex 63.06905363408734 12.000000000000052 3.000000000000003
    vertex 61.47064687401326 15.858895278359713 1.0000000000000038
    vertex 61.47064687401326 15.858895278359713 3.000000000000003
  endloop
endfacet
facet normal 0.8660254037844389 0.49999999999999944 5.551115123125775e-17
  outer loop
    vertex 63.06905363408734 12.000000000000052 1.0000000000000038
    vertex 65.61175159565357 8.686291501015294 3.000000000000003
    vertex 65.61175159565357 8.686291501015294 1.0000000000000038
  endloop
endfacet
facet normal 0.7071067811865472 0.7071067811865478 7.72575862103174e-17
  outer loop
    vertex 65.61175159565357 8.686291501015294 3.000000000000003
    vertex 63.06905363408734 12.000000000000052 1.0000000000000038
    vertex 63.06905363408734 12.000000000000052 3.000000000000003
  endloop
endfacet
facet normal 0.7071067811865472 0.7071067811865478 7.72575862103174e-17
  outer loop
    vertex 65.61175159565357 8.686291501015294 3.000000000000003
    vertex 68.92546009463837 6.143593539449032 1.0000000000000038
    vertex 65.61175159565357 8.686291501015294 1.0000000000000038
  endloop
endfacet
facet normal 0.4999999999999977 0.8660254037844399 9.490109759530694e-17
  outer loop
    vertex 68.92546009463837 6.143593539449032 1.0000000000000038
    vertex 65.61175159565357 8.686291501015294 3.000000000000003
    vertex 68.92546009463837 6.143593539449032 3.000000000000003
  endloop
endfacet
facet normal -0.8660254037844389 0.49999999999999944 5.551115123125775e-17
  outer loop
    vertex 90.78186655518937 12.000000000000062 3.000000000000003
    vertex 88.23916859362313 8.686291501015305 1.0000000000000038
    vertex 88.23916859362313 8.686291501015305 3.000000000000003
  endloop
endfacet
facet normal -0.707106781186549 0.707106781186546 7.725758621031217e-17
  outer loop
    vertex 88.23916859362313 8.686291501015305 1.0000000000000038
    vertex 90.78186655518937 12.000000000000062 3.000000000000003
    vertex 90.78186655518937 12.000000000000062 1.0000000000000038
  endloop
endfacet
facet normal -0.965925826289068 0.258819045102522 2.9248892619055994e-17
  outer loop
    vertex 92.38027331526345 15.858895278359723 3.000000000000003
    vertex 90.78186655518937 12.000000000000062 1.0000000000000038
    vertex 90.78186655518937 12.000000000000062 3.000000000000003
  endloop
endfacet
facet normal -0.8660254037844389 0.49999999999999944 5.551115123125775e-17
  outer loop
    vertex 90.78186655518937 12.000000000000062 1.0000000000000038
    vertex 92.38027331526345 15.858895278359723 3.000000000000003
    vertex 92.38027331526345 15.858895278359723 1.0000000000000038
  endloop
endfacet
facet normal -1.0 1.7822219791293808e-16 5.142063106243443e-19
  outer loop
    vertex 92.92546009463837 20.000000000000053 3.0000000000000013
    vertex 92.38027331526345 15.858895278359723 1.0000000000000038
    vertex 92.38027331526345 15.858895278359723 3.000000000000003
  endloop
endfacet
facet normal -0.965925826289068 0.25881904510252196 2.924889261905599e-17
  outer loop
    vertex 92.38027331526345 15.858895278359723 1.0000000000000038
    vertex 92.92546009463837 20.000000000000053 3.0000000000000013
    vertex 92.92546009463837 20.000000000000053 1.0000000000000024
  endloop
endfacet
facet normal -0.09157769128316974 0.9957979345526102 1.1055577948144824e-16
  outer loop
    vertex 77.65808162490372 12.033616523579179 1.0000000000000038
    vertex 79.69496991590485 12.494680862887463 5.639932965095795e-15
    vertex 77.65808162490372 12.033616523579179 5.639932965095795e-15
  endloop
endfacet
facet normal -0.3461887276583076 0.938164892139075 1.0415722641477773e-16
  outer loop
    vertex 79.69496991590485 12.494680862887463 5.639932965095795e-15
    vertex 77.65808162490372 12.033616523579179 1.0000000000000038
    vertex 79.69496991590485 12.494680862887463 1.0000000000000038
  endloop
endfacet
facet normal -0.3461887276583076 0.938164892139075 1.0415722641477773e-16
  outer loop
    vertex 79.69496991590485 12.494680862887463 1.0000000000000038
    vertex 81.54312068941803 13.467220298263651 5.639932965095795e-15
    vertex 79.69496991590485 12.494680862887463 5.639932965095795e-15
  endloop
endfacet
facet normal -0.577207574347458 0.8165974627170501 9.066053049589518e-17
  outer loop
    vertex 81.54312068941803 13.467220298263651 5.639932965095795e-15
    vertex 79.69496991590485 12.494680862887463 1.0000000000000038
    vertex 81.54312068941803 13.467220298263651 1.0000000000000038
  endloop
endfacet
facet normal 0.8165974627170501 0.577207574347458 6.408291390285846e-17
  outer loop
    vertex 70.39268039290195 15.38233940522038 5.639932965095795e-15
    vertex 71.81041796902258 13.848874570196479 1.0000000000000038
    vertex 71.81041796902258 13.848874570196479 5.639932965095795e-15
  endloop
endfacet
facet normal 0.63938026570197 0.7688906787254466 8.536401349406547e-17
  outer loop
    vertex 71.81041796902258 13.848874570196479 1.0000000000000038
    vertex 70.39268039290195 15.38233940522038 5.639932965095795e-15
    vertex 70.39268039290195 15.38233940522038 1.0000000000000038
  endloop
endfacet
facet normal 0.9381648921390737 0.3461887276583106 3.9489041341433967e-17
  outer loop
    vertex 69.42014095752576 17.23049017873357 5.639932965095795e-15
    vertex 70.39268039290195 15.38233940522038 1.0000000000000038
    vertex 70.39268039290195 15.38233940522038 5.639932965095795e-15
  endloop
endfacet
facet normal 0.8165974627170501 0.577207574347458 6.408291390285846e-17
  outer loop
    vertex 70.39268039290195 15.38233940522038 1.0000000000000038
    vertex 69.42014095752576 17.23049017873357 5.639932965095795e-15
    vertex 69.42014095752576 17.23049017873357 1.0000000000000038
  endloop
endfacet
facet normal 0.9957979345526101 0.09157769128317027 1.1221537850698572e-17
  outer loop
    vertex 68.95907661821747 19.267378469734698 4.229949723821846e-15
    vertex 69.42014095752576 17.23049017873357 1.0000000000000038
    vertex 69.42014095752576 17.23049017873357 5.639932965095795e-15
  endloop
endfacet
facet normal 0.9381648921390738 0.3461887276583106 3.9489041341433967e-17
  outer loop
    vertex 69.42014095752576 17.23049017873357 1.0000000000000038
    vertex 68.95907661821747 19.267378469734698 4.229949723821846e-15
    vertex 68.95907661821747 19.267378469734698 1.0000000000000024
  endloop
endfacet
facet normal 0.9855689933602811 -0.1692742134136269 -1.8793212920712103e-17
  outer loop
    vertex 69.0409081477561 21.354193707309076 5.639932965095795e-15
    vertex 68.95907661821747 19.267378469734698 1.0000000000000024
    vertex 68.95907661821747 19.267378469734698 4.229949723821846e-15
  endloop
endfacet
facet normal 0.9957979345526101 0.09157769128317027 1.1221537850698573e-17
  outer loop
    vertex 68.95907661821747 19.267378469734698 1.0000000000000024
    vertex 69.0409081477561 21.354193707309076 5.639932965095795e-15
    vertex 69.0409081477561 21.354193707309076 1.0000000000000038
  endloop
endfacet
facet normal 0.9081751540002188 -0.4185903602051522 -4.6472865578589774e-17
  outer loop
    vertex 69.66005886263659 23.34872288164126 5.639932965095795e-15
    vertex 69.0409081477561 21.354193707309076 1.0000000000000038
    vertex 69.0409081477561 21.354193707309076 5.639932965095795e-15
  endloop
endfacet
facet normal 0.9855689933602811 -0.16927421341362697 -1.8793212920712115e-17
  outer loop
    vertex 69.0409081477561 21.354193707309076 1.0000000000000038
    vertex 69.66005886263659 23.34872288164126 5.639932965095795e-15
    vertex 69.66005886263659 23.34872288164126 1.0000000000000038
  endloop
endfacet
facet normal 0.7688906787254461 -0.6393802657019708 -7.09854692473278e-17
  outer loop
    vertex 70.7743346648348 25.115042125615826 5.639932965095795e-15
    vertex 69.66005886263659 23.34872288164126 1.0000000000000038
    vertex 69.66005886263659 23.34872288164126 5.639932965095795e-15
  endloop
endfacet
facet normal 0.9081751540002188 -0.4185903602051522 -4.6472865578589774e-17
  outer loop
    vertex 69.66005886263659 23.34872288164126 1.0000000000000038
    vertex 70.7743346648348 25.115042125615826 5.639932965095795e-15
    vertex 70.7743346648348 25.115042125615826 1.0000000000000038
  endloop
endfacet
facet normal 0.5772075743474588 -0.8165974627170494 -9.066053049589508e-17
  outer loop
    vertex 72.30779949985867 26.532779701736455 1.0000000000000038
    vertex 70.7743346648348 25.115042125615826 5.639932965095795e-15
    vertex 72.30779949985867 26.532779701736455 5.639932965095795e-15
  endloop
endfacet
facet normal 0.7688906787254461 -0.6393802657019708 -7.09854692473278e-17
  outer loop
    vertex 70.7743346648348 25.115042125615826 5.639932965095795e-15
    vertex 72.30779949985867 26.532779701736455 1.0000000000000038
    vertex 70.7743346648348 25.115042125615826 1.0000000000000038
  endloop
endfacet
facet normal 0.34618872765830877 -0.9381648921390745 -1.0415722641477768e-16
  outer loop
    vertex 74.15595027337189 27.50531913711265 1.0000000000000038
    vertex 72.30779949985867 26.532779701736455 5.639932965095795e-15
    vertex 74.15595027337189 27.50531913711265 5.639932965095795e-15
  endloop
endfacet
facet normal 0.5772075743474588 -0.8165974627170494 -9.066053049589508e-17
  outer loop
    vertex 72.30779949985867 26.532779701736455 5.639932965095795e-15
    vertex 74.15595027337189 27.50531913711265 1.0000000000000038
    vertex 72.30779949985867 26.532779701736455 1.0000000000000038
  endloop
endfacet
facet normal 0.09157769128317107 -0.99579793455261 -1.1055577948144821e-16
  outer loop
    vertex 76.192838564373 27.966383476420948 1.0000000000000038
    vertex 74.15595027337189 27.50531913711265 5.639932965095795e-15
    vertex 76.192838564373 27.966383476420948 5.639932965095795e-15
  endloop
endfacet
facet normal 0.34618872765830877 -0.9381648921390745 -1.0415722641477768e-16
  outer loop
    vertex 74.15595027337189 27.50531913711265 5.639932965095795e-15
    vertex 76.192838564373 27.966383476420948 1.0000000000000038
    vertex 74.15595027337189 27.50531913711265 1.0000000000000038
  endloop
endfacet
facet normal -0.16927421341363266 -0.9855689933602803 -1.0942013887852208e-16
  outer loop
    vertex 78.2796538019474 27.884551946882308 1.0000000000000038
    vertex 76.192838564373 27.966383476420948 5.639932965095795e-15
    vertex 78.2796538019474 27.884551946882308 5.639932965095795e-15
  endloop
endfacet
facet normal 0.09157769128317107 -0.99579793455261 -1.1055577948144821e-16
  outer loop
    vertex 76.192838564373 27.966383476420948 5.639932965095795e-15
    vertex 78.2796538019474 27.884551946882308 1.0000000000000038
    vertex 76.192838564373 27.966383476420948 1.0000000000000038
  endloop
endfacet
facet normal -0.41859036020515356 -0.9081751540002181 -1.0082769663635393e-16
  outer loop
    vertex 80.27418297627958 27.2654012320018 1.0000000000000038
    vertex 78.2796538019474 27.884551946882308 5.639932965095795e-15
    vertex 80.27418297627958 27.2654012320018 5.639932965095795e-15
  endloop
endfacet
facet normal -0.16927421341363266 -0.9855689933602803 -1.0942013887852208e-16
  outer loop
    vertex 78.2796538019474 27.884551946882308 5.639932965095795e-15
    vertex 80.27418297627958 27.2654012320018 1.0000000000000038
    vertex 78.2796538019474 27.884551946882308 1.0000000000000038
  endloop
endfacet
facet normal -0.63938026570197 -0.7688906787254466 -8.536401349406547e-17
  outer loop
    vertex 82.04050222025414 26.151125429803617 1.0000000000000038
    vertex 80.27418297627958 27.2654012320018 5.639932965095795e-15
    vertex 82.04050222025414 26.151125429803617 5.639932965095795e-15
  endloop
endfacet
facet normal -0.41859036020515356 -0.9081751540002181 -1.0082769663635393e-16
  outer loop
    vertex 80.27418297627958 27.2654012320018 5.639932965095795e-15
    vertex 82.04050222025414 26.151125429803617 1.0000000000000038
    vertex 80.27418297627958 27.2654012320018 1.0000000000000038
  endloop
endfacet
facet normal -0.63938026570197 -0.7688906787254466 -8.536401349406547e-17
  outer loop
    vertex 82.04050222025414 26.151125429803617 1.0000000000000038
    vertex 83.45823979637477 24.617660594779718 5.639932965095795e-15
    vertex 83.45823979637477 24.617660594779718 1.0000000000000038
  endloop
endfacet
facet normal -0.8165974627170495 -0.5772075743474588 -6.408291390285854e-17
  outer loop
    vertex 83.45823979637477 24.617660594779718 5.639932965095795e-15
    vertex 82.04050222025414 26.151125429803617 1.0000000000000038
    vertex 82.04050222025414 26.151125429803617 5.639932965095795e-15
  endloop
endfacet
facet normal -0.8165974627170495 -0.5772075743474588 -6.408291390285854e-17
  outer loop
    vertex 83.45823979637477 24.617660594779718 1.0000000000000038
    vertex 84.43077923175096 22.769509821266535 5.639932965095795e-15
    vertex 84.43077923175096 22.769509821266535 1.0000000000000038
  endloop
endfacet
facet normal -0.9381648921390735 -0.34618872765831177 -3.843466963119454e-17
  outer loop
    vertex 84.43077923175096 22.769509821266535 5.639932965095795e-15
    vertex 83.45823979637477 24.617660594779718 1.0000000000000038
    vertex 83.45823979637477 24.617660594779718 5.639932965095795e-15
  endloop
endfacet
facet normal -0.9381648921390734 -0.3461887276583118 -3.843466963119454e-17
  outer loop
    vertex 84.43077923175096 22.769509821266535 1.0000000000000038
    vertex 84.89184357105925 20.73262153026541 4.229949723821846e-15
    vertex 84.89184357105925 20.73262153026541 1.0000000000000024
  endloop
endfacet
facet normal -0.9957979345526101 -0.09157769128317027 -9.779938894066813e-18
  outer loop
    vertex 84.89184357105925 20.73262153026541 4.229949723821846e-15
    vertex 84.43077923175096 22.769509821266535 1.0000000000000038
    vertex 84.43077923175096 22.769509821266535 5.639932965095795e-15
  endloop
endfacet
facet normal -0.99579793455261 -0.0915776912831703 -9.779938894066816e-18
  outer loop
    vertex 84.89184357105925 20.73262153026541 1.0000000000000024
    vertex 84.81001204152062 18.64580629269103 5.639932965095795e-15
    vertex 84.81001204152062 18.64580629269103 1.0000000000000024
  endloop
endfacet
facet normal -0.9855689933602804 0.1692742134136312 1.7781963152046673e-17
  outer loop
    vertex 84.81001204152062 18.64580629269103 5.639932965095795e-15
    vertex 84.89184357105925 20.73262153026541 1.0000000000000024
    vertex 84.89184357105925 20.73262153026541 4.229949723821846e-15
  endloop
endfacet
facet normal -0.9855689933602804 0.16927421341363125 1.778196315204668e-17
  outer loop
    vertex 84.81001204152062 18.64580629269103 1.0000000000000024
    vertex 84.19086132664012 16.651277118358834 5.639932965095795e-15
    vertex 84.19086132664012 16.651277118358834 1.0000000000000038
  endloop
endfacet
facet normal -0.9081751540002183 0.41859036020515333 4.507438856353179e-17
  outer loop
    vertex 84.19086132664012 16.651277118358834 5.639932965095795e-15
    vertex 84.81001204152062 18.64580629269103 1.0000000000000024
    vertex 84.81001204152062 18.64580629269103 5.639932965095795e-15
  endloop
endfacet
facet normal -0.9081751540002182 0.41859036020515344 4.50743885635318e-17
  outer loop
    vertex 84.19086132664012 16.651277118358834 1.0000000000000038
    vertex 83.07658552444192 14.88495787438428 5.639932965095795e-15
    vertex 83.07658552444192 14.88495787438428 1.0000000000000038
  endloop
endfacet
facet normal -0.7688906787254457 0.6393802657019712 7.098546924732785e-17
  outer loop
    vertex 83.07658552444192 14.88495787438428 5.639932965095795e-15
    vertex 84.19086132664012 16.651277118358834 1.0000000000000038
    vertex 84.19086132664012 16.651277118358834 5.639932965095795e-15
  endloop
endfacet
facet normal -0.577207574347458 0.8165974627170501 9.066053049589518e-17
  outer loop
    vertex 81.54312068941803 13.467220298263651 1.0000000000000038
    vertex 83.07658552444192 14.88495787438428 5.639932965095795e-15
    vertex 81.54312068941803 13.467220298263651 5.639932965095795e-15
  endloop
endfacet
facet normal -0.7688906787254457 0.6393802657019712 7.098546924732785e-17
  outer loop
    vertex 83.07658552444192 14.88495787438428 5.639932965095795e-15
    vertex 81.54312068941803 13.467220298263651 1.0000000000000038
    vertex 83.07658552444192 14.88495787438428 1.0000000000000038
  endloop
endfacet
facet normal 0.16927421341362556 0.9855689933602814 1.0942013887852223e-16
  outer loop
    vertex 75.57126638732933 12.115448053117804 1.0000000000000038
    vertex 77.65808162490372 12.033616523579179 5.639932965095795e-15
    vertex 75.57126638732933 12.115448053117804 5.639932965095795e-15
  endloop
endfacet
facet normal -0.09157769128316974 0.9957979345526102 1.1055577948144824e-16
  outer loop
    vertex 77.65808162490372 12.033616523579179 5.639932965095795e-15
    vertex 75.57126638732933 12.115448053117804 1.0000000000000038
    vertex 77.65808162490372 12.033616523579179 1.0000000000000038
  endloop
endfacet
facet normal 0.41859036020514917 0.90817515400022 1.0082769663635412e-16
  outer loop
    vertex 73.57673721299714 12.734598767998296 1.0000000000000038
    vertex 75.57126638732933 12.115448053117804 5.639932965095795e-15
    vertex 73.57673721299714 12.734598767998296 5.639932965095795e-15
  endloop
endfacet
facet normal 0.16927421341362556 0.9855689933602814 1.0942013887852223e-16
  outer loop
    vertex 75.57126638732933 12.115448053117804 5.639932965095795e-15
    vertex 73.57673721299714 12.734598767998296 1.0000000000000038
    vertex 75.57126638732933 12.115448053117804 1.0000000000000038
  endloop
endfacet
facet normal 1.0 -0.0 -0.0
  outer loop
    vertex 197.89999999999984 47.90000000000011 1.0000000000000038
    vertex 197.89999999999984 -7.899999999999997 3.000000000000003
    vertex 197.89999999999984 -7.899999999999997 1.0000000000000038
  endloop
endfacet
facet normal 1.0 -0.0 -0.0
  outer loop
    vertex 197.89999999999984 -7.899999999999997 3.000000000000003
    vertex 197.89999999999984 47.90000000000011 1.0000000000000038
    vertex 197.89999999999984 47.90000000000011 3.000000000000003
  endloop
endfacet
facet normal -0.0 1.0 -0.0
  outer loop
    vertex 2.0999999999999988 47.90000000000011 3.000000000000003
    vertex 197.89999999999984 47.90000000000011 1.0000000000000038
    vertex 2.0999999999999988 47.90000000000011 1.0000000000000038
  endloop
endfacet
facet normal -0.0 1.0 -0.0
  outer loop
    vertex 197.89999999999984 47.90000000000011 1.0000000000000038
    vertex 2.0999999999999988 47.90000000000011 3.000000000000003
    vertex 197.89999999999984 47.90000000000011 3.000000000000003
  endloop
endfacet
facet normal -0.0 1.0 -0.0
  outer loop
    vertex 197.89999999999984 47.90000000000011 3.000000000000003
    vertex 2.0999999999999988 47.90000000000011 3.000000000000003
    vertex 49.2658846833715 47.90000000000011 3.000000000000003
  endloop
endfacet
facet normal -0.0 1.0 -0.0
  outer loop
    vertex 197.89999999999984 47.90000000000011 3.000000000000003
    vertex 49.2658846833715 47.90000000000011 3.000000000000003
    vertex 50.7850355059052 47.90000000000011 3.000000000000003
  endloop
endfacet
facet normal 0.0 0.0 -1.0
  outer loop
    vertex 0.0 50.000000000000085 0.0
    vertex 74.15595027337189 27.50531913711265 5.639932965095795e-15
    vertex 0.0 -9.999999999999993 0.0
  endloop
endfacet
facet normal 0.0 0.0 -1.0
  outer loop
    vertex 74.15595027337189 27.50531913711265 5.639932965095795e-15
    vertex 0.0 50.000000000000085 0.0
    vertex 76.192838564373 27.966383476420948 5.639932965095795e-15
  endloop
endfacet
facet normal 0.0 0.0 -1.0
  outer loop
    vertex 76.192838564373 27.966383476420948 5.639932965095795e-15
    vertex 0.0 50.000000000000085 0.0
    vertex 199.99999999999994 50.000000000000085 0.0
  endloop
endfacet
facet normal 0.0 0.0 -1.0
  outer loop
    vertex 0.0 -9.999999999999993 0.0
    vertex 74.15595027337189 27.50531913711265 5.639932965095795e-15
    vertex 72.30779949985867 26.532779701736455 5.639932965095795e-15
  endloop
endfacet
facet normal 0.0 0.0 -1.0
  outer loop
    vertex 0.0 -9.999999999999993 0.0
    vertex 72.30779949985867 26.532779701736455 5.639932965095795e-15
    vertex 70.7743346648348 25.115042125615826 5.639932965095795e-15
  endloop
endfacet
facet normal 0.0 0.0 -1.0
  outer loop
    vertex 0.0 -9.999999999999993 0.0
    vertex 70.7743346648348 25.115042125615826 5.639932965095795e-15
    vertex 69.66005886263659 23.34872288164126 5.639932965095795e-15
  endloop
endfacet
facet normal 0.0 0.0 -1.0
  outer loop
    vertex 0.0 -9.999999999999993 0.0
    vertex 69.66005886263659 23.34872288164126 5.639932965095795e-15
    vertex 69.0409081477561 21.354193707309076 5.639932965095795e-15
  endloop
endfacet
facet normal 0.0 0.0 -1.0
  outer loop
    vertex 0.0 -9.999999999999993 0.0
    vertex 69.0409081477561 21.354193707309076 5.639932965095795e-15
    vertex 68.95907661821747 19.267378469734698 4.229949723821846e-15
  endloop
endfacet
facet normal 0.0 0.0 -1.0
  outer loop
    vertex 76.192838564373 27.966383476420948 5.639932965095795e-15
    vertex 199.99999999999994 50.000000000000085 0.0
    vertex 78.2796538019474 27.884551946882308 5.639932965095795e-15
  endloop
endfacet
facet normal 0.0 0.0 -1.0
  outer loop
    vertex 78.2796538019474 27.884551946882308 5.639932965095795e-15
    vertex 199.99999999999994 50.000000000000085 0.0
    vertex 80.27418297627958 27.2654012320018 5.639932965095795e-15
  endloop
endfacet
facet normal 0.0 0.0 -1.0
  outer loop
    vertex 80.27418297627958 27.2654012320018 5.639932965095795e-15
    vertex 199.99999999999994 50.000000000000085 0.0
    vertex 82.04050222025414 26.151125429803617 5.639932965095795e-15
  endloop
endfacet
facet normal 0.0 0.0 -1.0
  outer loop
    vertex 82.04050222025414 26.151125429803617 5.639932965095795e-15
    vertex 199.99999999999994 50.000000000000085 0.0
    vertex 83.45823979637477 24.617660594779718 5.639932965095795e-15
  endloop
endfacet
facet normal 0.0 0.0 -1.0
  outer loop
    vertex 83.45823979637477 24.617660594779718 5.639932965095795e-15
    vertex 199.99999999999994 50.000000000000085 0.0
    vertex 84.43077923175096 22.769509821266535 5.639932965095795e-15
  endloop
endfacet
facet normal 0.0 0.0 -1.0
  outer loop
    vertex 84.43077923175096 22.769509821266535 5.639932965095795e-15
    vertex 199.99999999999994 50.000000000000085 0.0
    vertex 84.89184357105925 20.73262153026541 4.229949723821846e-15
  endloop
endfacet
facet normal 0.0 0.0 -1.0
  outer loop
    vertex 84.89184357105925 20.73262153026541 4.229949723821846e-15
    vertex 199.99999999999994 50.000000000000085 0.0
    vertex 199.99999999999991 -9.999999999999993 0.0
  endloop
endfacet
facet normal 0.0 0.0 -1.0
  outer loop
    vertex 0.0 -9.999999999999993 0.0
    vertex 75.57126638732933 12.115448053117804 5.639932965095795e-15
    vertex 199.99999999999991 -9.999999999999993 0.0
  endloop
endfacet
facet normal 0.0 0.0 -1.0
  outer loop
    vertex 75.57126638732933 12.115448053117804 5.639932965095795e-15
    vertex 0.0 -9.999999999999993 0.0
    vertex 73.57673721299714 12.734598767998296 5.639932965095795e-15
  endloop
endfacet
facet normal 0.0 0.0 -1.0
  outer loop
    vertex 73.57673721299714 12.734598767998296 5.639932965095795e-15
    vertex 0.0 -9.999999999999993 0.0
    vertex 71.81041796902258 13.848874570196479 5.639932965095795e-15
  endloop
endfacet
facet normal 0.0 0.0 -1.0
  outer loop
    vertex 71.81041796902258 13.848874570196479 5.639932965095795e-15
    vertex 0.0 -9.999999999999993 0.0
    vertex 70.39268039290195 15.38233940522038 5.639932965095795e-15
  endloop
endfacet
facet normal 0.0 0.0 -1.0
  outer loop
    vertex 70.39268039290195 15.38233940522038 5.639932965095795e-15
    vertex 0.0 -9.999999999999993 0.0
    vertex 69.42014095752576 17.23049017873357 5.639932965095795e-15
  endloop
endfacet
facet normal 0.0 0.0 -1.0
  outer loop
    vertex 69.42014095752576 17.23049017873357 5.639932965095795e-15
    vertex 0.0 -9.999999999999993 0.0
    vertex 68.95907661821747 19.267378469734698 4.229949723821846e-15
  endloop
endfacet
facet normal 0.0 0.0 -1.0
  outer loop
    vertex 199.99999999999991 -9.999999999999993 0.0
    vertex 75.57126638732933 12.115448053117804 5.639932965095795e-15
    vertex 77.65808162490372 12.033616523579179 5.639932965095795e-15
  endloop
endfacet
facet normal 0.0 0.0 -1.0
  outer loop
    vertex 199.99999999999991 -9.999999999999993 0.0
    vertex 77.65808162490372 12.033616523579179 5.639932965095795e-15
    vertex 79.69496991590485 12.494680862887463 5.639932965095795e-15
  endloop
endfacet
facet normal 0.0 0.0 -1.0
  outer loop
    vertex 199.99999999999991 -9.999999999999993 0.0
    vertex 79.69496991590485 12.494680862887463 5.639932965095795e-15
    vertex 81.54312068941803 13.467220298263651 5.639932965095795e-15
  endloop
endfacet
facet normal 0.0 0.0 -1.0
  outer loop
    vertex 199.99999999999991 -9.999999999999993 0.0
    vertex 81.54312068941803 13.467220298263651 5.639932965095795e-15
    vertex 83.07658552444192 14.88495787438428 5.639932965095795e-15
  endloop
endfacet
facet normal 0.0 0.0 -1.0
  outer loop
    vertex 199.99999999999991 -9.999999999999993 0.0
    vertex 83.07658552444192 14.88495787438428 5.639932965095795e-15
    vertex 84.19086132664012 16.651277118358834 5.639932965095795e-15
  endloop
endfacet
facet normal 0.0 0.0 -1.0
  outer loop
    vertex 199.99999999999991 -9.999999999999993 0.0
    vertex 84.19086132664012 16.651277118358834 5.639932965095795e-15
    vertex 84.81001204152062 18.64580629269103 5.639932965095795e-15
  endloop
endfacet
facet normal 0.0 0.0 -1.0
  outer loop
    vertex 199.99999999999991 -9.999999999999993 0.0
    vertex 84.81001204152062 18.64580629269103 5.639932965095795e-15
    vertex 84.89184357105925 20.73262153026541 4.229949723821846e-15
  endloop
endfacet
facet normal -0.7071067811865476 -0.7071067811865476 -7.725758621031233e-17
  outer loop
    vertex 88.2391685936231 31.31370849898482 3.000000000000003
    vertex 84.92546009463835 33.85640646055108 1.0000000000000038
    vertex 88.2391685936231 31.31370849898482 1.0000000000000038
  endloop
endfacet
facet normal -0.4999999999999989 -0.8660254037844393 -9.490109759530183e-17
  outer loop
    vertex 84.92546009463835 33.85640646055108 1.0000000000000038
    vertex 88.2391685936231 31.31370849898482 3.000000000000003
    vertex 84.92546009463835 33.85640646055108 3.000000000000003
  endloop
endfacet
facet normal -0.4999999999999989 -0.8660254037844393 -9.490109759530183e-17
  outer loop
    vertex 84.92546009463835 33.85640646055108 3.000000000000003
    vertex 81.06656481627869 35.45481322062514 1.0000000000000038
    vertex 84.92546009463835 33.85640646055108 1.0000000000000038
  endloop
endfacet
facet normal -0.2588190451025194 -0.9659258262890686 -1.0723930924262032e-16
  outer loop
    vertex 81.06656481627869 35.45481322062514 1.0000000000000038
    vertex 84.92546009463835 33.85640646055108 3.000000000000003
    vertex 81.06656481627869 35.45481322062514 3.000000000000003
  endloop
endfacet
facet normal 3.1428474447663197e-20 1.041795582186813e-17 1.0
  outer loop
    vertex 68.92546009463837 6.143593539449032 1.0000000000000038
    vertex 69.42014095752576 17.23049017873357 1.0000000000000038
    vertex 68.95907661821747 19.267378469734698 1.0000000000000024
  endloop
endfacet
facet normal 3.1428474447663197e-20 1.041795582186813e-17 1.0
  outer loop
    vertex 69.42014095752576 17.23049017873357 1.0000000000000038
    vertex 68.92546009463837 6.143593539449032 1.0000000000000038
    vertex 72.78435537299804 4.545186779374963 1.0000000000000038
  endloop
endfacet
facet normal 3.1428474447663197e-20 1.041795582186813e-17 1.0
  outer loop
    vertex 69.42014095752576 17.23049017873357 1.0000000000000038
    vertex 72.78435537299804 4.545186779374963 1.0000000000000038
    vertex 70.39268039290195 15.38233940522038 1.0000000000000038
  endloop
endfacet
facet normal 3.1428474447663197e-20 1.041795582186813e-17 1.0
  outer loop
    vertex 70.39268039290195 15.38233940522038 1.0000000000000038
    vertex 72.78435537299804 4.545186779374963 1.0000000000000038
    vertex 71.81041796902258 13.848874570196479 1.0000000000000038
  endloop
endfacet
facet normal 3.1428474447663197e-20 1.041795582186813e-17 1.0
  outer loop
    vertex 71.81041796902258 13.848874570196479 1.0000000000000038
    vertex 72.78435537299804 4.545186779374963 1.0000000000000038
    vertex 73.57673721299714 12.734598767998296 1.0000000000000038
  endloop
endfacet
facet normal 3.1428474447663197e-20 1.041795582186813e-17 1.0
  outer loop
    vertex 73.57673721299714 12.734598767998296 1.0000000000000038
    vertex 72.78435537299804 4.545186779374963 1.0000000000000038
    vertex 76.92546009463837 4.000000000000066 1.0000000000000038
  endloop
endfacet
facet normal 3.1428474447663197e-20 1.041795582186813e-17 1.0
  outer loop
    vertex 73.57673721299714 12.734598767998296 1.0000000000000038
    vertex 76.92546009463837 4.000000000000066 1.0000000000000038
    vertex 75.57126638732933 12.115448053117804 1.0000000000000038
  endloop
endfacet
facet normal 3.1428474447663197e-20 1.041795582186813e-17 1.0
  outer loop
    vertex 75.57126638732933 12.115448053117804 1.0000000000000038
    vertex 76.92546009463837 4.000000000000066 1.0000000000000038
    vertex 77.65808162490372 12.033616523579179 1.0000000000000038
  endloop
endfacet
facet normal 3.1428474447663197e-20 1.041795582186813e-17 1.0
  outer loop
    vertex 77.65808162490372 12.033616523579179 1.0000000000000038
    vertex 76.92546009463837 4.000000000000066 1.0000000000000038
    vertex 81.06656481627871 4.545186779374974 1.0000000000000038
  endloop
endfacet
facet normal 3.1428474447663197e-20 1.041795582186813e-17 1.0
  outer loop
    vertex 77.65808162490372 12.033616523579179 1.0000000000000038
    vertex 81.06656481627871 4.545186779374974 1.0000000000000038
    vertex 79.69496991590485 12.494680862887463 1.0000000000000038
  endloop
endfacet
facet normal 3.1428474447663197e-20 1.041795582186813e-17 1.0
  outer loop
    vertex 79.69496991590485 12.494680862887463 1.0000000000000038
    vertex 81.06656481627871 4.545186779374974 1.0000000000000038
    vertex 81.54312068941803 13.467220298263651 1.0000000000000038
  endloop
endfacet
facet normal 3.1428474447663197e-20 1.041795582186813e-17 1.0
  outer loop
    vertex 81.54312068941803 13.467220298263651 1.0000000000000038
    vertex 81.06656481627871 4.545186779374974 1.0000000000000038
    vertex 84.92546009463838 6.143593539449044 1.0000000000000038
  endloop
endfacet
facet normal 3.1428474447663197e-20 1.041795582186813e-17 1.0
  outer loop
    vertex 81.54312068941803 13.467220298263651 1.0000000000000038
    vertex 84.92546009463838 6.143593539449044 1.0000000000000038
    vertex 83.07658552444192 14.88495787438428 1.0000000000000038
  endloop
endfacet
facet normal 3.1428474447663197e-20 1.041795582186813e-17 1.0
  outer loop
    vertex 83.07658552444192 14.88495787438428 1.0000000000000038
    vertex 84.92546009463838 6.143593539449044 1.0000000000000038
    vertex 84.19086132664012 16.651277118358834 1.0000000000000038
  endloop
endfacet
facet normal 3.1428474447663197e-20 1.041795582186813e-17 1.0
  outer loop
    vertex 84.19086132664012 16.651277118358834 1.0000000000000038
    vertex 84.92546009463838 6.143593539449044 1.0000000000000038
    vertex 84.81001204152062 18.64580629269103 1.0000000000000024
  endloop
endfacet
facet normal 3.1428474447663197e-20 1.041795582186813e-17 1.0
  outer loop
    vertex 84.81001204152062 18.64580629269103 1.0000000000000024
    vertex 84.92546009463838 6.143593539449044 1.0000000000000038
    vertex 84.89184357105925 20.73262153026541 1.0000000000000024
  endloop
endfacet
facet normal 3.1428474447663197e-20 1.041795582186813e-17 1.0
  outer loop
    vertex 84.89184357105925 20.73262153026541 1.0000000000000024
    vertex 84.92546009463838 6.143593539449044 1.0000000000000038
    vertex 84.92546009463835 33.85640646055108 1.0000000000000038
  endloop
endfacet
facet normal 3.1428474447663197e-20 1.041795582186813e-17 1.0
  outer loop
    vertex 84.92546009463835 33.85640646055108 1.0000000000000038
    vertex 84.92546009463838 6.143593539449044 1.0000000000000038
    vertex 88.2391685936231 31.31370849898482 1.0000000000000038
  endloop
endfacet
facet normal 3.1428474447663197e-20 1.041795582186813e-17 1.0
  outer loop
    vertex 88.2391685936231 31.31370849898482 1.0000000000000038
    vertex 84.92546009463838 6.143593539449044 1.0000000000000038
    vertex 88.23916859362313 8.686291501015305 1.0000000000000038
  endloop
endfacet
facet normal 3.1428474447663197e-20 1.041795582186813e-17 1.0
  outer loop
    vertex 88.2391685936231 31.31370849898482 1.0000000000000038
    vertex 88.23916859362313 8.686291501015305 1.0000000000000038
    vertex 90.78186655518937 28.00000000000006 1.0000000000000038
  endloop
endfacet
facet normal 3.1428474447663197e-20 1.041795582186813e-17 1.0
  outer loop
    vertex 90.78186655518937 28.00000000000006 1.0000000000000038
    vertex 88.23916859362313 8.686291501015305 1.0000000000000038
    vertex 90.78186655518937 12.000000000000062 1.0000000000000038
  endloop
endfacet
facet normal 3.1428474447663197e-20 1.041795582186813e-17 1.0
  outer loop
    vertex 90.78186655518937 28.00000000000006 1.0000000000000038
    vertex 90.78186655518937 12.000000000000062 1.0000000000000038
    vertex 92.38027331526345 15.858895278359723 1.0000000000000038
  endloop
endfacet
facet normal 3.1428474447663197e-20 1.041795582186813e-17 1.0
  outer loop
    vertex 90.78186655518937 28.00000000000006 1.0000000000000038
    vertex 92.38027331526345 15.858895278359723 1.0000000000000038
    vertex 92.38027331526345 24.141104721640396 1.0000000000000038
  endloop
endfacet
facet normal 3.1428474447663197e-20 1.041795582186813e-17 1.0
  outer loop
    vertex 92.38027331526345 24.141104721640396 1.0000000000000038
    vertex 92.38027331526345 15.858895278359723 1.0000000000000038
    vertex 92.92546009463837 20.000000000000053 1.0000000000000024
  endloop
endfacet
facet normal 3.1428474447663197e-20 1.041795582186813e-17 1.0
  outer loop
    vertex 61.47064687401326 15.858895278359713 1.0000000000000038
    vertex 61.47064687401326 24.141104721640396 1.0000000000000038
    vertex 60.92546009463835 20.000000000000053 1.0000000000000024
  endloop
endfacet
facet normal 3.1428474447663197e-20 1.041795582186813e-17 1.0
  outer loop
    vertex 61.47064687401326 24.141104721640396 1.0000000000000038
    vertex 61.47064687401326 15.858895278359713 1.0000000000000038
    vertex 63.06905363408734 12.000000000000052 1.0000000000000038
  endloop
endfacet
facet normal 3.1428474447663197e-20 1.041795582186813e-17 1.0
  outer loop
    vertex 61.47064687401326 24.141104721640396 1.0000000000000038
    vertex 63.06905363408734 12.000000000000052 1.0000000000000038
    vertex 63.06905363408733 28.00000000000006 1.0000000000000038
  endloop
endfacet
facet normal 3.1428474447663197e-20 1.041795582186813e-17 1.0
  outer loop
    vertex 63.06905363408733 28.00000000000006 1.0000000000000038
    vertex 63.06905363408734 12.000000000000052 1.0000000000000038
    vertex 65.61175159565357 31.31370849898482 1.0000000000000038
  endloop
endfacet
facet normal 3.1428474447663197e-20 1.041795582186813e-17 1.0
  outer loop
    vertex 65.61175159565357 31.31370849898482 1.0000000000000038
    vertex 63.06905363408734 12.000000000000052 1.0000000000000038
    vertex 65.61175159565357 8.686291501015294 1.0000000000000038
  endloop
endfacet
facet normal 3.1428474447663197e-20 1.041795582186813e-17 1.0
  outer loop
    vertex 65.61175159565357 31.31370849898482 1.0000000000000038
    vertex 65.61175159565357 8.686291501015294 1.0000000000000038
    vertex 68.92546009463837 6.143593539449032 1.0000000000000038
  endloop
endfacet
facet normal 3.1428474447663197e-20 1.041795582186813e-17 1.0
  outer loop
    vertex 65.61175159565357 31.31370849898482 1.0000000000000038
    vertex 68.92546009463837 6.143593539449032 1.0000000000000038
    vertex 68.92546009463835 33.85640646055106 1.0000000000000038
  endloop
endfacet
facet normal 3.1428474447663197e-20 1.041795582186813e-17 1.0
  outer loop
    vertex 68.92546009463835 33.85640646055106 1.0000000000000038
    vertex 68.92546009463837 6.143593539449032 1.0000000000000038
    vertex 68.95907661821747 19.267378469734698 1.0000000000000024
  endloop
endfacet
facet normal 3.1428474447663197e-20 1.041795582186813e-17 1.0
  outer loop
    vertex 68.92546009463835 33.85640646055106 1.0000000000000038
    vertex 68.95907661821747 19.267378469734698 1.0000000000000024
    vertex 69.0409081477561 21.354193707309076 1.0000000000000038
  endloop
endfacet
facet normal 3.1428474447663197e-20 1.041795582186813e-17 1.0
  outer loop
    vertex 68.92546009463835 33.85640646055106 1.0000000000000038
    vertex 69.0409081477561 21.354193707309076 1.0000000000000038
    vertex 72.78435537299802 35.45481322062514 1.0000000000000038
  endloop
endfacet
facet normal 3.1428474447663197e-20 1.041795582186813e-17 1.0
  outer loop
    vertex 72.78435537299802 35.45481322062514 1.0000000000000038
    vertex 69.0409081477561 21.354193707309076 1.0000000000000038
    vertex 69.66005886263659 23.34872288164126 1.0000000000000038
  endloop
endfacet
facet normal 3.1428474447663197e-20 1.041795582186813e-17 1.0
  outer loop
    vertex 72.78435537299802 35.45481322062514 1.0000000000000038
    vertex 69.66005886263659 23.34872288164126 1.0000000000000038
    vertex 70.7743346648348 25.115042125615826 1.0000000000000038
  endloop
endfacet
facet normal 3.1428474447663197e-20 1.041795582186813e-17 1.0
  outer loop
    vertex 72.78435537299802 35.45481322062514 1.0000000000000038
    vertex 70.7743346648348 25.115042125615826 1.0000000000000038
    vertex 72.30779949985867 26.532779701736455 1.0000000000000038
  endloop
endfacet
facet normal 3.1428474447663197e-20 1.041795582186813e-17 1.0
  outer loop
    vertex 72.78435537299802 35.45481322062514 1.0000000000000038
    vertex 72.30779949985867 26.532779701736455 1.0000000000000038
    vertex 74.15595027337189 27.50531913711265 1.0000000000000038
  endloop
endfacet
facet normal 3.1428474447663197e-20 1.041795582186813e-17 1.0
  outer loop
    vertex 72.78435537299802 35.45481322062514 1.0000000000000038
    vertex 74.15595027337189 27.50531913711265 1.0000000000000038
    vertex 76.92546009463837 36.00000000000005 1.0000000000000038
  endloop
endfacet
facet normal 3.1428474447663197e-20 1.041795582186813e-17 1.0
  outer loop
    vertex 76.92546009463837 36.00000000000005 1.0000000000000038
    vertex 74.15595027337189 27.50531913711265 1.0000000000000038
    vertex 76.192838564373 27.966383476420948 1.0000000000000038
  endloop
endfacet
facet normal 3.1428474447663197e-20 1.041795582186813e-17 1.0
  outer loop
    vertex 76.92546009463837 36.00000000000005 1.0000000000000038
    vertex 76.192838564373 27.966383476420948 1.0000000000000038
    vertex 78.2796538019474 27.884551946882308 1.0000000000000038
  endloop
endfacet
facet normal 3.1428474447663197e-20 1.041795582186813e-17 1.0
  outer loop
    vertex 76.92546009463837 36.00000000000005 1.0000000000000038
    vertex 78.2796538019474 27.884551946882308 1.0000000000000038
    vertex 81.06656481627869 35.45481322062514 1.0000000000000038
  endloop
endfacet
facet normal 3.1428474447663197e-20 1.041795582186813e-17 1.0
  outer loop
    vertex 81.06656481627869 35.45481322062514 1.0000000000000038
    vertex 78.2796538019474 27.884551946882308 1.0000000000000038
    vertex 80.27418297627958 27.2654012320018 1.0000000000000038
  endloop
endfacet
facet normal 3.1428474447663197e-20 1.041795582186813e-17 1.0
  outer loop
    vertex 81.06656481627869 35.45481322062514 1.0000000000000038
    vertex 80.27418297627958 27.2654012320018 1.0000000000000038
    vertex 82.04050222025414 26.151125429803617 1.0000000000000038
  endloop
endfacet
facet normal 3.1428474447663197e-20 1.041795582186813e-17 1.0
  outer loop
    vertex 81.06656481627869 35.45481322062514 1.0000000000000038
    vertex 82.04050222025414 26.151125429803617 1.0000000000000038
    vertex 84.92546009463835 33.85640646055108 1.0000000000000038
  endloop
endfacet
facet normal 3.1428474447663197e-20 1.041795582186813e-17 1.0
  outer loop
    vertex 84.92546009463835 33.85640646055108 1.0000000000000038
    vertex 82.04050222025414 26.151125429803617 1.0000000000000038
    vertex 83.45823979637477 24.617660594779718 1.0000000000000038
  endloop
endfacet
facet normal 3.1428474447663197e-20 1.041795582186813e-17 1.0
  outer loop
    vertex 84.92546009463835 33.85640646055108 1.0000000000000038
    vertex 83.45823979637477 24.617660594779718 1.0000000000000038
    vertex 84.43077923175096 22.769509821266535 1.0000000000000038
  endloop
endfacet
facet normal 3.1428474447663197e-20 1.041795582186813e-17 1.0
  outer loop
    vertex 84.92546009463835 33.85640646055108 1.0000000000000038
    vertex 84.43077923175096 22.769509821266535 1.0000000000000038
    vertex 84.89184357105925 20.73262153026541 1.0000000000000024
  endloop
endfacet
facet normal -5.257554838431674e-16 -1.0 -1.1102230246251565e-16
  outer loop
    vertex 76.92546009463837 36.00000000000005 3.000000000000003
    vertex 72.78435537299802 35.45481322062514 1.0000000000000038
    vertex 76.92546009463837 36.00000000000005 1.0000000000000038
  endloop
endfacet
facet normal 0.25881904510252135 -0.9659258262890681 -1.0723930924262026e-16
  outer loop
    vertex 72.78435537299802 35.45481322062514 1.0000000000000038
    vertex 76.92546009463837 36.00000000000005 3.000000000000003
    vertex 72.78435537299802 35.45481322062514 3.000000000000003
  endloop
endfacet
facet normal -0.2588190451025194 -0.9659258262890686 -1.0723930924262032e-16
  outer loop
    vertex 81.06656481627869 35.45481322062514 3.000000000000003
    vertex 76.92546009463837 36.00000000000005 1.0000000000000038
    vertex 81.06656481627869 35.45481322062514 1.0000000000000038
  endloop
endfacet
facet normal -5.257554838431674e-16 -1.0 -1.1102230246251565e-16
  outer loop
    vertex 76.92546009463837 36.00000000000005 1.0000000000000038
    vertex 81.06656481627869 35.45481322062514 3.000000000000003
    vertex 76.92546009463837 36.00000000000005 3.000000000000003
  endloop
endfacet
facet normal 0.25881904510252135 -0.9659258262890681 -1.0723930924262026e-16
  outer loop
    vertex 72.78435537299802 35.45481322062514 3.000000000000003
    vertex 68.92546009463835 33.85640646055106 1.0000000000000038
    vertex 72.78435537299802 35.45481322062514 1.0000000000000038
  endloop
endfacet
facet normal 0.4999999999999986 -0.8660254037844394 -9.490109759530746e-17
  outer loop
    vertex 68.92546009463835 33.85640646055106 1.0000000000000038
    vertex 72.78435537299802 35.45481322062514 3.000000000000003
    vertex 68.92546009463835 33.85640646055106 3.000000000000003
  endloop
endfacet
facet normal 0.4999999999999986 -0.8660254037844394 -9.490109759530746e-17
  outer loop
    vertex 68.92546009463835 33.85640646055106 3.000000000000003
    vertex 65.61175159565357 31.31370849898482 1.0000000000000038
    vertex 68.92546009463835 33.85640646055106 1.0000000000000038
  endloop
endfacet
facet normal 0.7071067811865464 -0.7071067811865488 -7.725758621031809e-17
  outer loop
    vertex 65.61175159565357 31.31370849898482 1.0000000000000038
    vertex 68.92546009463835 33.85640646055106 3.000000000000003
    vertex 65.61175159565357 31.31370849898482 3.000000000000003
  endloop
endfacet
facet normal 0.7071067811865464 -0.7071067811865488 -7.725758621031809e-17
  outer loop
    vertex 65.61175159565357 31.31370849898482 1.0000000000000038
    vertex 63.06905363408733 28.00000000000006 3.000000000000003
    vertex 63.06905363408733 28.00000000000006 1.0000000000000038
  endloop
endfacet
facet normal 0.8660254037844394 -0.49999999999999906 -5.551115123125772e-17
  outer loop
    vertex 63.06905363408733 28.00000000000006 3.000000000000003
    vertex 65.61175159565357 31.31370849898482 1.0000000000000038
    vertex 65.61175159565357 31.31370849898482 3.000000000000003
  endloop
endfacet
facet normal 0.4999999999999977 0.8660254037844399 9.490109759530694e-17
  outer loop
    vertex 68.92546009463837 6.143593539449032 3.000000000000003
    vertex 72.78435537299804 4.545186779374963 1.0000000000000038
    vertex 68.92546009463837 6.143593539449032 1.0000000000000038
  endloop
endfacet
facet normal 0.2588190451025192 0.9659258262890686 1.0723930924262031e-16
  outer loop
    vertex 72.78435537299804 4.545186779374963 1.0000000000000038
    vertex 68.92546009463837 6.143593539449032 3.000000000000003
    vertex 72.78435537299804 4.545186779374963 3.000000000000003
  endloop
endfacet
facet normal 0.2588190451025192 0.9659258262890686 1.0723930924262031e-16
  outer loop
    vertex 72.78435537299804 4.545186779374963 3.000000000000003
    vertex 76.92546009463837 4.000000000000066 1.0000000000000038
    vertex 72.78435537299804 4.545186779374963 1.0000000000000038
  endloop
endfacet
facet normal -1.1673553963297443e-15 1.0 1.1102230246251563e-16
  outer loop
    vertex 76.92546009463837 4.000000000000066 1.0000000000000038
    vertex 72.78435537299804 4.545186779374963 3.000000000000003
    vertex 76.92546009463837 4.000000000000066 3.000000000000003
  endloop
endfacet
facet normal -1.1673553963297443e-15 1.0 1.1102230246251563e-16
  outer loop
    vertex 76.92546009463837 4.000000000000066 3.000000000000003
    vertex 81.06656481627871 4.545186779374974 1.0000000000000038
    vertex 76.92546009463837 4.000000000000066 1.0000000000000038
  endloop
endfacet
facet normal -0.2588190451025203 0.9659258262890684 1.0723930924262028e-16
  outer loop
    vertex 81.06656481627871 4.545186779374974 1.0000000000000038
    vertex 76.92546009463837 4.000000000000066 3.000000000000003
    vertex 81.06656481627871 4.545186779374974 3.000000000000003
  endloop
endfacet
facet normal -0.2588190451025203 0.9659258262890684 1.0723930924262028e-16
  outer loop
    vertex 81.06656481627871 4.545186779374974 3.000000000000003
    vertex 84.92546009463838 6.143593539449044 1.0000000000000038
    vertex 81.06656481627871 4.545186779374974 1.0000000000000038
  endloop
endfacet
facet normal -0.5 0.8660254037844387 9.490109759530177e-17
  outer loop
    vertex 84.92546009463838 6.143593539449044 1.0000000000000038
    vertex 81.06656481627871 4.545186779374974 3.000000000000003
    vertex 84.92546009463838 6.143593539449044 3.000000000000003
  endloop
endfacet
facet normal -0.5 0.8660254037844387 9.490109759530177e-17
  outer loop
    vertex 84.92546009463838 6.143593539449044 3.000000000000003
    vertex 88.23916859362313 8.686291501015305 1.0000000000000038
    vertex 84.92546009463838 6.143593539449044 1.0000000000000038
  endloop
endfacet
facet normal -0.707106781186549 0.707106781186546 7.725758621031217e-17
  outer loop
    vertex 88.23916859362313 8.686291501015305 1.0000000000000038
    vertex 84.92546009463838 6.143593539449044 3.000000000000003
    vertex 88.23916859362313 8.686291501015305 3.000000000000003
  endloop
endfacet
facet normal -0.0 -0.0 1.0
  outer loop
    vertex 49.26588468337158 -7.899999999999997 3.000000000000003
    vertex 2.0999999999999988 47.90000000000011 3.000000000000003
    vertex 2.099999999999996 -7.899999999999997 3.000000000000003
  endloop
endfacet
facet normal -0.0 -0.0 1.0
  outer loop
    vertex 2.0999999999999988 47.90000000000011 3.000000000000003
    vertex 49.26588468337158 -7.899999999999997 3.000000000000003
    vertex 49.2658846833715 47.90000000000011 3.000000000000003
  endloop
endfacet
facet normal -0.0 -0.0 1.0
  outer loop
    vertex 49.2658846833715 47.90000000000011 3.000000000000003
    vertex 49.26588468337158 -7.899999999999997 3.000000000000003
    vertex 50.7850355059052 47.90000000000011 3.000000000000003
  endloop
endfacet
facet normal -0.0 -0.0 1.0
  outer loop
    vertex 50.7850355059052 47.90000000000011 3.000000000000003
    vertex 49.26588468337158 -7.899999999999997 3.000000000000003
    vertex 50.78503550590513 -7.899999999999997 3.000000000000003
  endloop
endfacet
facet normal -0.0 -0.0 1.0
  outer loop
    vertex 50.7850355059052 47.90000000000011 3.000000000000003
    vertex 50.78503550590513 -7.899999999999997 3.000000000000003
    vertex 61.47064687401326 15.858895278359713 3.000000000000003
  endloop
endfacet
facet normal -0.0 -0.0 1.0
  outer loop
    vertex 61.47064687401326 15.858895278359713 3.000000000000003
    vertex 50.78503550590513 -7.899999999999997 3.000000000000003
    vertex 63.06905363408734 12.000000000000052 3.000000000000003
  endloop
endfacet
facet normal -0.0 -0.0 1.0
  outer loop
    vertex 63.06905363408734 12.000000000000052 3.000000000000003
    vertex 50.78503550590513 -7.899999999999997 3.000000000000003
    vertex 65.61175159565357 8.686291501015294 3.000000000000003
  endloop
endfacet
facet normal -0.0 -0.0 1.0
  outer loop
    vertex 65.61175159565357 8.686291501015294 3.000000000000003
    vertex 50.78503550590513 -7.899999999999997 3.000000000000003
    vertex 68.92546009463837 6.143593539449032 3.000000000000003
  endloop
endfacet
facet normal -0.0 -0.0 1.0
  outer loop
    vertex 68.92546009463837 6.143593539449032 3.000000000000003
    vertex 50.78503550590513 -7.899999999999997 3.000000000000003
    vertex 72.78435537299804 4.545186779374963 3.000000000000003
  endloop
endfacet
facet normal -0.0 -0.0 1.0
  outer loop
    vertex 72.78435537299804 4.545186779374963 3.000000000000003
    vertex 50.78503550590513 -7.899999999999997 3.000000000000003
    vertex 76.92546009463837 4.000000000000066 3.000000000000003
  endloop
endfacet
facet normal -0.0 -0.0 1.0
  outer loop
    vertex 76.92546009463837 4.000000000000066 3.000000000000003
    vertex 50.78503550590513 -7.899999999999997 3.000000000000003
    vertex 197.89999999999984 -7.899999999999997 3.000000000000003
  endloop
endfacet
facet normal -0.0 -0.0 1.0
  outer loop
    vertex 50.7850355059052 47.90000000000011 3.000000000000003
    vertex 61.47064687401326 15.858895278359713 3.000000000000003
    vertex 60.92546009463835 20.000000000000053 3.0000000000000013
  endloop
endfacet
facet normal -0.0 -0.0 1.0
  outer loop
    vertex 76.92546009463837 4.000000000000066 3.000000000000003
    vertex 197.89999999999984 -7.899999999999997 3.000000000000003
    vertex 81.06656481627871 4.545186779374974 3.000000000000003
  endloop
endfacet
facet normal -0.0 -0.0 1.0
  outer loop
    vertex 81.06656481627871 4.545186779374974 3.000000000000003
    vertex 197.89999999999984 -7.899999999999997 3.000000000000003
    vertex 84.92546009463838 6.143593539449044 3.000000000000003
  endloop
endfacet
facet normal -0.0 -0.0 1.0
  outer loop
    vertex 84.92546009463838 6.143593539449044 3.000000000000003
    vertex 197.89999999999984 -7.899999999999997 3.000000000000003
    vertex 88.23916859362313 8.686291501015305 3.000000000000003
  endloop
endfacet
facet normal -0.0 -0.0 1.0
  outer loop
    vertex 88.23916859362313 8.686291501015305 3.000000000000003
    vertex 197.89999999999984 -7.899999999999997 3.000000000000003
    vertex 90.78186655518937 12.000000000000062 3.000000000000003
  endloop
endfacet
facet normal -0.0 -0.0 1.0
  outer loop
    vertex 90.78186655518937 12.000000000000062 3.000000000000003
    vertex 197.89999999999984 -7.899999999999997 3.000000000000003
    vertex 92.38027331526345 15.858895278359723 3.000000000000003
  endloop
endfacet
facet normal -0.0 -0.0 1.0
  outer loop
    vertex 92.38027331526345 15.858895278359723 3.000000000000003
    vertex 197.89999999999984 -7.899999999999997 3.000000000000003
    vertex 92.92546009463837 20.000000000000053 3.0000000000000013
  endloop
endfacet
facet normal -0.0 -0.0 1.0
  outer loop
    vertex 50.7850355059052 47.90000000000011 3.000000000000003
    vertex 76.92546009463837 36.00000000000005 3.000000000000003
    vertex 197.89999999999984 47.90000000000011 3.000000000000003
  endloop
endfacet
facet normal -0.0 -0.0 1.0
  outer loop
    vertex 76.92546009463837 36.00000000000005 3.000000000000003
    vertex 50.7850355059052 47.90000000000011 3.000000000000003
    vertex 72.78435537299802 35.45481322062514 3.000000000000003
  endloop
endfacet
facet normal -0.0 -0.0 1.0
  outer loop
    vertex 72.78435537299802 35.45481322062514 3.000000000000003
    vertex 50.7850355059052 47.90000000000011 3.000000000000003
    vertex 68.92546009463835 33.85640646055106 3.000000000000003
  endloop
endfacet
facet normal -0.0 -0.0 1.0
  outer loop
    vertex 68.92546009463835 33.85640646055106 3.000000000000003
    vertex 50.7850355059052 47.90000000000011 3.000000000000003
    vertex 65.61175159565357 31.31370849898482 3.000000000000003
  endloop
endfacet
facet normal -0.0 -0.0 1.0
  outer loop
    vertex 65.61175159565357 31.31370849898482 3.000000000000003
    vertex 50.7850355059052 47.90000000000011 3.000000000000003
    vertex 63.06905363408733 28.00000000000006 3.000000000000003
  endloop
endfacet
facet normal -0.0 -0.0 1.0
  outer loop
    vertex 63.06905363408733 28.00000000000006 3.000000000000003
    vertex 50.7850355059052 47.90000000000011 3.000000000000003
    vertex 61.47064687401326 24.141104721640396 3.000000000000003
  endloop
endfacet
facet normal -0.0 -0.0 1.0
  outer loop
    vertex 61.47064687401326 24.141104721640396 3.000000000000003
    vertex 50.7850355059052 47.90000000000011 3.000000000000003
    vertex 60.92546009463835 20.000000000000053 3.0000000000000013
  endloop
endfacet
facet normal -0.0 -0.0 1.0
  outer loop
    vertex 197.89999999999984 47.90000000000011 3.000000000000003
    vertex 76.92546009463837 36.00000000000005 3.000000000000003
    vertex 81.06656481627869 35.45481322062514 3.000000000000003
  endloop
endfacet
facet normal -0.0 -0.0 1.0
  outer loop
    vertex 197.89999999999984 47.90000000000011 3.000000000000003
    vertex 81.06656481627869 35.45481322062514 3.000000000000003
    vertex 84.92546009463835 33.85640646055108 3.000000000000003
  endloop
endfacet
facet normal -0.0 -0.0 1.0
  outer loop
    vertex 197.89999999999984 47.90000000000011 3.000000000000003
    vertex 84.92546009463835 33.85640646055108 3.000000000000003
    vertex 88.2391685936231 31.31370849898482 3.000000000000003
  endloop
endfacet
facet normal -0.0 -0.0 1.0
  outer loop
    vertex 197.89999999999984 47.90000000000011 3.000000000000003
    vertex 88.2391685936231 31.31370849898482 3.000000000000003
    vertex 90.78186655518937 28.00000000000006 3.000000000000003
  endloop
endfacet
facet normal -0.0 -0.0 1.0
  outer loop
    vertex 197.89999999999984 47.90000000000011 3.000000000000003
    vertex 90.78186655518937 28.00000000000006 3.000000000000003
    vertex 92.38027331526345 24.141104721640396 3.000000000000003
  endloop
endfacet
facet normal -0.0 -0.0 1.0
  outer loop
    vertex 197.89999999999984 47.90000000000011 3.000000000000003
    vertex 92.38027331526345 24.141104721640396 3.000000000000003
    vertex 92.92546009463837 20.000000000000053 3.0000000000000013
  endloop
endfacet
facet normal -0.0 -0.0 1.0
  outer loop
    vertex 197.89999999999984 47.90000000000011 3.000000000000003
    vertex 92.92546009463837 20.000000000000053 3.0000000000000013
    vertex 197.89999999999984 -7.899999999999997 3.000000000000003
  endloop
endfacet
endsolid Tapa
