solid Tirador
facet normal -0.0 1.0 -0.0
  outer loop
    vertex -1.247005221120259e-16 16.800000000000004 1.800000000000002
    vertex 9.5 16.800000000000004 4.0
    vertex 9.5 16.800000000000004 1.8000000000000005
  endloop
endfacet
facet normal -0.0 1.0 -0.0
  outer loop
    vertex 9.5 16.800000000000004 4.0
    vertex -1.247005221120259e-16 16.800000000000004 1.800000000000002
    vertex -3.65765695324041e-17 16.800000000000004 4.000000000000002
  endloop
endfacet
facet normal 0.0 -1.0 0.0
  outer loop
    vertex 9.5 38.80000000000001 1.8000000000000038
    vertex -3.65765695324041e-17 38.80000000000001 4.000000000000002
    vertex -1.247005221120259e-16 38.80000000000001 1.800000000000002
  endloop
endfacet
facet normal 0.0 -1.0 0.0
  outer loop
    vertex -3.65765695324041e-17 38.80000000000001 4.000000000000002
    vertex 9.5 38.80000000000001 1.8000000000000038
    vertex 9.5 38.80000000000001 4.0000000000000036
  endloop
endfacet
facet normal 0.9103664774626045 0.4138029443011851 -1.1960681255669476e-17
  outer loop
    vertex 9.5 16.800000000000004 1.8000000000000005
    vertex 10.5 14.600000000000007 3.9999999999999996
    vertex 10.5 14.600000000000007 1.7999999999999998
  endloop
endfacet
facet normal 0.9103664774626045 0.4138029443011851 -1.1960681255669476e-17
  outer loop
    vertex 10.5 14.600000000000007 3.9999999999999996
    vertex 9.5 16.800000000000004 1.8000000000000005
    vertex 9.5 16.800000000000004 4.0
  endloop
endfacet
facet normal 0.894427190999918 -0.447213595499954 7.088773619604897e-31
  outer loop
    vertex 9.999999999999998 39.80000000000002 1.8000000000000038
    vertex 9.5 38.80000000000001 4.0000000000000036
    vertex 9.5 38.80000000000001 1.8000000000000038
  endloop
endfacet
facet normal 0.894427190999918 -0.447213595499954 7.088773619604897e-31
  outer loop
    vertex 9.5 38.80000000000001 4.0000000000000036
    vertex 9.999999999999998 39.80000000000002 1.8000000000000038
    vertex 9.999999999999998 39.80000000000002 4.000000000000002
  endloop
endfacet
facet normal 1.0 1.4536018937093004e-16 1.1890644793442912e-17
  outer loop
    vertex 9.999999999999998 40.80000000000002 0.0
    vertex 10.0 30.80000000000001 1.7999999999999998
    vertex 10.0 30.80000000000001 0.0
  endloop
endfacet
facet normal 1.0 1.4536018937093004e-16 1.1890644793442912e-17
  outer loop
    vertex 10.0 30.80000000000001 1.7999999999999998
    vertex 9.999999999999998 40.80000000000002 0.0
    vertex 9.999999999999998 39.80000000000002 1.8000000000000038
  endloop
endfacet
facet normal 1.0 1.4536018937093004e-16 1.1890644793442912e-17
  outer loop
    vertex 9.999999999999998 39.80000000000002 1.8000000000000038
    vertex 9.999999999999998 40.80000000000002 0.0
    vertex 9.999999999999998 39.80000000000002 4.000000000000002
  endloop
endfacet
facet normal 1.0 1.4536018937093004e-16 1.1890644793442912e-17
  outer loop
    vertex 9.999999999999998 39.80000000000002 4.000000000000002
    vertex 9.999999999999998 40.80000000000002 0.0
    vertex 9.999999999999998 40.80000000000002 3.9999999999999996
  endloop
endfacet
facet normal 0.0 0.0 -1.0
  outer loop
    vertex 9.999999999999998 40.80000000000002 0.0
    vertex -3.65765695324041e-17 0.0 0.0
    vertex -3.65765695324041e-17 40.80000000000002 0.0
  endloop
endfacet
facet normal 0.0 0.0 -1.0
  outer loop
    vertex -3.65765695324041e-17 0.0 0.0
    vertex 9.999999999999998 40.80000000000002 0.0
    vertex 10.0 30.80000000000001 0.0
  endloop
endfacet
facet normal 0.0 0.0 -1.0
  outer loop
    vertex -3.65765695324041e-17 0.0 0.0
    vertex 10.0 30.80000000000001 0.0
    vertex 20.0 14.600000000000007 0.0
  endloop
endfacet
facet normal 0.0 0.0 -1.0
  outer loop
    vertex -3.65765695324041e-17 0.0 0.0
    vertex 20.0 14.600000000000007 0.0
    vertex 45.0 0.0 0.0
  endloop
endfacet
facet normal 0.0 0.0 -1.0
  outer loop
    vertex 45.0 0.0 0.0
    vertex 20.0 14.600000000000007 0.0
    vertex 45.0 14.600000000000007 0.0
  endloop
endfacet
facet normal -1.0 -3.1998882870837325e-19 5.29044477078823e-18
  outer loop
    vertex -3.65765695324041e-17 40.80000000000002 3.9999999999999996
    vertex -1.247005221120259e-16 38.80000000000001 1.800000000000002
    vertex -3.65765695324041e-17 38.80000000000001 4.000000000000002
  endloop
endfacet
facet normal -1.0 -3.1998882870837325e-19 5.29044477078823e-18
  outer loop
    vertex -3.65765695324041e-17 16.800000000000004 4.000000000000002
    vertex -3.65765695324041e-17 0.0 0.0
    vertex -3.65765695324041e-17 0.0 3.9999999999999996
  endloop
endfacet
facet normal -1.0 -3.1998882870837325e-19 5.29044477078823e-18
  outer loop
    vertex -3.65765695324041e-17 0.0 0.0
    vertex -3.65765695324041e-17 16.800000000000004 4.000000000000002
    vertex -1.247005221120259e-16 16.800000000000004 1.800000000000002
  endloop
endfacet
facet normal -1.0 -3.1998882870837325e-19 5.29044477078823e-18
  outer loop
    vertex -3.65765695324041e-17 0.0 0.0
    vertex -1.247005221120259e-16 16.800000000000004 1.800000000000002
    vertex -3.65765695324041e-17 40.80000000000002 0.0
  endloop
endfacet
facet normal -1.0 -3.1998882870837325e-19 5.29044477078823e-18
  outer loop
    vertex -3.65765695324041e-17 40.80000000000002 0.0
    vertex -1.247005221120259e-16 16.800000000000004 1.800000000000002
    vertex -1.247005221120259e-16 38.80000000000001 1.800000000000002
  endloop
endfacet
facet normal -1.0 -3.1998882870837325e-19 5.29044477078823e-18
  outer loop
    vertex -3.65765695324041e-17 40.80000000000002 0.0
    vertex -1.247005221120259e-16 38.80000000000001 1.800000000000002
    vertex -3.65765695324041e-17 40.80000000000002 3.9999999999999996
  endloop
endfacet
facet normal 0.0 -1.0 0.0
  outer loop
    vertex 45.0 0.0 3.9999999999999996
    vertex -3.65765695324041e-17 0.0 0.0
    vertex 45.0 0.0 0.0
  endloop
endfacet
facet normal 0.0 -1.0 0.0
  outer loop
    vertex -3.65765695324041e-17 0.0 0.0
    vertex 45.0 0.0 3.9999999999999996
    vertex -3.65765695324041e-17 0.0 3.9999999999999996
  endloop
endfacet
facet normal -1.0516826888417282e-16 1.599377180043708e-15 1.0
  outer loop
    vertex 9.5 38.80000000000001 4.0000000000000036
    vertex -3.65765695324041e-17 40.80000000000002 3.9999999999999996
    vertex -3.65765695324041e-17 38.80000000000001 4.000000000000002
  endloop
endfacet
facet normal -1.0516826888417282e-16 1.599377180043708e-15 1.0
  outer loop
    vertex -3.65765695324041e-17 40.80000000000002 3.9999999999999996
    vertex 9.5 38.80000000000001 4.0000000000000036
    vertex 9.999999999999998 40.80000000000002 3.9999999999999996
  endloop
endfacet
facet normal -1.0516826888417282e-16 1.599377180043708e-15 1.0
  outer loop
    vertex 9.999999999999998 40.80000000000002 3.9999999999999996
    vertex 9.5 38.80000000000001 4.0000000000000036
    vertex 9.999999999999998 39.80000000000002 4.000000000000002
  endloop
endfacet
facet normal 1.0 -0.0 -0.0
  outer loop
    vertex 45.0 14.600000000000007 0.0
    vertex 45.0 0.0 3.9999999999999996
    vertex 45.0 0.0 0.0
  endloop
endfacet
facet normal 1.0 -0.0 -0.0
  outer loop
    vertex 45.0 0.0 3.9999999999999996
    vertex 45.0 14.600000000000007 0.0
    vertex 45.0 14.600000000000007 3.9999999999999996
  endloop
endfacet
facet normal -0.0 1.0 -0.0
  outer loop
    vertex -3.65765695324041e-17 40.80000000000002 3.9999999999999996
    vertex 9.999999999999998 40.80000000000002 0.0
    vertex -3.65765695324041e-17 40.80000000000002 0.0
  endloop
endfacet
facet normal -0.0 1.0 -0.0
  outer loop
    vertex 9.999999999999998 40.80000000000002 0.0
    vertex -3.65765695324041e-17 40.80000000000002 3.9999999999999996
    vertex 9.999999999999998 40.80000000000002 3.9999999999999996
  endloop
endfacet
facet normal 4.633479454165523e-17 -9.53270160137696e-17 1.0
  outer loop
    vertex 9.5 16.800000000000004 1.8000000000000005
    vertex -1.247005221120259e-16 38.80000000000001 1.800000000000002
    vertex -1.247005221120259e-16 16.800000000000004 1.800000000000002
  endloop
endfacet
facet normal 4.633479454165523e-17 -9.53270160137696e-17 1.0
  outer loop
    vertex -1.247005221120259e-16 38.80000000000001 1.800000000000002
    vertex 9.5 16.800000000000004 1.8000000000000005
    vertex 9.5 38.80000000000001 1.8000000000000038
  endloop
endfacet
facet normal 4.633479454165523e-17 -9.53270160137696e-17 1.0
  outer loop
    vertex 9.5 38.80000000000001 1.8000000000000038
    vertex 9.5 16.800000000000004 1.8000000000000005
    vertex 10.5 14.600000000000007 1.7999999999999998
  endloop
endfacet
facet normal 4.633479454165523e-17 -9.53270160137696e-17 1.0
  outer loop
    vertex 9.5 38.80000000000001 1.8000000000000038
    vertex 10.5 14.600000000000007 1.7999999999999998
    vertex 10.0 30.80000000000001 1.7999999999999998
  endloop
endfacet
facet normal 4.633479454165523e-17 -9.53270160137696e-17 1.0
  outer loop
    vertex 9.5 38.80000000000001 1.8000000000000038
    vertex 10.0 30.80000000000001 1.7999999999999998
    vertex 9.999999999999998 39.80000000000002 1.8000000000000038
  endloop
endfacet
facet normal 4.633479454165523e-17 -9.53270160137696e-17 1.0
  outer loop
    vertex 10.0 30.80000000000001 1.7999999999999998
    vertex 10.5 14.600000000000007 1.7999999999999998
    vertex 20.0 14.600000000000007 1.7999999999999998
  endloop
endfacet
facet normal -0.0 1.0 -0.0
  outer loop
    vertex 10.5 14.600000000000007 3.9999999999999996
    vertex 20.0 14.600000000000007 1.7999999999999998
    vertex 10.5 14.600000000000007 1.7999999999999998
  endloop
endfacet
facet normal -0.0 1.0 -0.0
  outer loop
    vertex 20.0 14.600000000000007 1.7999999999999998
    vertex 45.0 14.600000000000007 0.0
    vertex 20.0 14.600000000000007 0.0
  endloop
endfacet
facet normal -0.0 1.0 -0.0
  outer loop
    vertex 45.0 14.600000000000007 0.0
    vertex 20.0 14.600000000000007 1.7999999999999998
    vertex 45.0 14.600000000000007 3.9999999999999996
  endloop
endfacet
facet normal -0.0 1.0 -0.0
  outer loop
    vertex 45.0 14.600000000000007 3.9999999999999996
    vertex 20.0 14.600000000000007 1.7999999999999998
    vertex 10.5 14.600000000000007 3.9999999999999996
  endloop
endfacet
facet normal 1.6526208506475353e-17 -4.456275775461328e-17 1.0
  outer loop
    vertex 45.0 0.0 3.9999999999999996
    vertex -3.65765695324041e-17 16.800000000000004 4.000000000000002
    vertex -3.65765695324041e-17 0.0 3.9999999999999996
  endloop
endfacet
facet normal 1.6526208506475353e-17 -4.456275775461328e-17 1.0
  outer loop
    vertex -3.65765695324041e-17 16.800000000000004 4.000000000000002
    vertex 45.0 0.0 3.9999999999999996
    vertex 10.5 14.600000000000007 3.9999999999999996
  endloop
endfacet
facet normal 1.6526208506475353e-17 -4.456275775461328e-17 1.0
  outer loop
    vertex -3.65765695324041e-17 16.800000000000004 4.000000000000002
    vertex 10.5 14.600000000000007 3.9999999999999996
    vertex 9.5 16.800000000000004 4.0
  endloop
endfacet
facet normal 1.6526208506475353e-17 -4.456275775461328e-17 1.0
  outer loop
    vertex 10.5 14.600000000000007 3.9999999999999996
    vertex 45.0 0.0 3.9999999999999996
    vertex 45.0 14.600000000000007 3.9999999999999996
  endloop
endfacet
facet normal 0.8509361101440402 0.5252692037926172 -0.0
  outer loop
    vertex 10.0 30.80000000000001 0.0
    vertex 20.0 14.600000000000007 1.7999999999999998
    vertex 20.0 14.600000000000007 0.0
  endloop
endfacet
facet normal 0.8509361101440402 0.5252692037926172 -0.0
  outer loop
    vertex 20.0 14.600000000000007 1.7999999999999998
    vertex 10.0 30.80000000000001 0.0
    vertex 10.0 30.80000000000001 1.7999999999999998
  endloop
endfacet
endsolid Tirador
