solid Traba
facet normal 0.2588190451025207 -0.9659258262890683 0.0
  outer loop
    vertex 29.88822856765378 0.05111126056640256 1.900000000000007
    vertex 29.500000000000004 3.524958103184872e-15 0.0
    vertex 29.88822856765378 0.05111126056640256 0.0
  endloop
endfacet
facet normal 0.13052619222005615 -0.9914448613738098 0.0
  outer loop
    vertex 29.500000000000004 3.524958103184872e-15 0.0
    vertex 29.88822856765378 0.05111126056640256 1.900000000000007
    vertex 29.500000000000004 3.524958103184872e-15 1.900000000000007
  endloop
endfacet
facet normal 0.49999999999999806 -0.8660254037844397 0.0
  outer loop
    vertex 30.25 0.20096189432334555 1.900000000000007
    vertex 29.88822856765378 0.05111126056640256 0.0
    vertex 30.25 0.20096189432334555 0.0
  endloop
endfacet
facet normal 0.2588190451025207 -0.9659258262890683 0.0
  outer loop
    vertex 29.88822856765378 0.05111126056640256 0.0
    vertex 30.25 0.20096189432334555 1.900000000000007
    vertex 29.88822856765378 0.05111126056640256 1.900000000000007
  endloop
endfacet
facet normal 0.7071067811865457 -0.7071067811865495 0.0
  outer loop
    vertex 30.56066017177982 0.4393398282201811 1.900000000000007
    vertex 30.25 0.20096189432334555 0.0
    vertex 30.56066017177982 0.4393398282201811 0.0
  endloop
endfacet
facet normal 0.49999999999999806 -0.8660254037844397 0.0
  outer loop
    vertex 30.25 0.20096189432334555 0.0
    vertex 30.56066017177982 0.4393398282201811 1.900000000000007
    vertex 30.25 0.20096189432334555 1.900000000000007
  endloop
endfacet
facet normal 0.8660254037844359 -0.5000000000000046 0.0
  outer loop
    vertex 30.799038105676658 0.75 0.0
    vertex 30.56066017177982 0.4393398282201811 1.900000000000007
    vertex 30.56066017177982 0.4393398282201811 0.0
  endloop
endfacet
facet normal 0.7071067811865457 -0.7071067811865495 0.0
  outer loop
    vertex 30.56066017177982 0.4393398282201811 1.900000000000007
    vertex 30.799038105676658 0.75 0.0
    vertex 30.799038105676658 0.75 1.900000000000007
  endloop
endfacet
facet normal 0.9659258262890688 -0.2588190451025193 0.0
  outer loop
    vertex 30.948888739433606 1.1117714323462187 0.0
    vertex 30.799038105676658 0.75 1.900000000000007
    vertex 30.799038105676658 0.75 0.0
  endloop
endfacet
facet normal 0.8660254037844359 -0.5000000000000046 0.0
  outer loop
    vertex 30.799038105676658 0.75 1.900000000000007
    vertex 30.948888739433606 1.1117714323462187 0.0
    vertex 30.948888739433606 1.1117714323462187 1.900000000000007
  endloop
endfacet
facet normal 1.0 7.752665609212807e-15 0.0
  outer loop
    vertex 31.0 1.5000000000000029 0.0
    vertex 30.948888739433606 1.1117714323462187 1.900000000000007
    vertex 30.948888739433606 1.1117714323462187 0.0
  endloop
endfacet
facet normal 0.9659258262890688 -0.2588190451025193 0.0
  outer loop
    vertex 30.948888739433606 1.1117714323462187 1.900000000000007
    vertex 31.0 1.5000000000000029 0.0
    vertex 31.0 1.5000000000000029 1.900000000000007
  endloop
endfacet
facet normal 0.9659258262890685 0.2588190451025204 0.0
  outer loop
    vertex 30.9488887394336 1.8882285676537836 0.0
    vertex 31.0 1.5000000000000029 1.900000000000007
    vertex 31.0 1.5000000000000029 0.0
  endloop
endfacet
facet normal 1.0 7.752665609212807e-15 0.0
  outer loop
    vertex 31.0 1.5000000000000029 1.900000000000007
    vertex 30.9488887394336 1.8882285676537836 0.0
    vertex 30.9488887394336 1.8882285676537836 1.900000000000007
  endloop
endfacet
facet normal 0.866025403784439 0.4999999999999994 0.0
  outer loop
    vertex 30.799038105676658 2.250000000000002 0.0
    vertex 30.9488887394336 1.8882285676537836 1.900000000000007
    vertex 30.9488887394336 1.8882285676537836 0.0
  endloop
endfacet
facet normal 0.9659258262890685 0.2588190451025204 0.0
  outer loop
    vertex 30.9488887394336 1.8882285676537836 1.900000000000007
    vertex 30.799038105676658 2.250000000000002 0.0
    vertex 30.799038105676658 2.250000000000002 1.900000000000007
  endloop
endfacet
facet normal 0.7071067811865466 0.7071067811865485 0.0
  outer loop
    vertex 30.56066017177982 2.5606601717798205 0.0
    vertex 30.799038105676658 2.250000000000002 1.900000000000007
    vertex 30.799038105676658 2.250000000000002 0.0
  endloop
endfacet
facet normal 0.866025403784439 0.4999999999999994 0.0
  outer loop
    vertex 30.799038105676658 2.250000000000002 1.900000000000007
    vertex 30.56066017177982 2.5606601717798205 0.0
    vertex 30.56066017177982 2.5606601717798205 1.900000000000007
  endloop
endfacet
facet normal 0.5000000000000001 0.8660254037844385 0.0
  outer loop
    vertex 30.25 2.799038105676658 1.900000000000007
    vertex 30.56066017177982 2.5606601717798205 0.0
    vertex 30.25 2.799038105676658 0.0
  endloop
endfacet
facet normal 0.7071067811865466 0.7071067811865485 0.0
  outer loop
    vertex 30.56066017177982 2.5606601717798205 0.0
    vertex 30.25 2.799038105676658 1.900000000000007
    vertex 30.56066017177982 2.5606601717798205 1.900000000000007
  endloop
endfacet
facet normal 0.258819045102519 0.9659258262890688 0.0
  outer loop
    vertex 29.88822856765378 2.9488887394336016 1.900000000000007
    vertex 30.25 2.799038105676658 0.0
    vertex 29.88822856765378 2.9488887394336016 0.0
  endloop
endfacet
facet normal 0.5000000000000001 0.8660254037844385 0.0
  outer loop
    vertex 30.25 2.799038105676658 0.0
    vertex 29.88822856765378 2.9488887394336016 1.900000000000007
    vertex 30.25 2.799038105676658 1.900000000000007
  endloop
endfacet
facet normal 0.13052619222005174 0.9914448613738105 -0.0
  outer loop
    vertex 29.500000000000004 2.9999999999999987 1.900000000000007
    vertex 29.88822856765378 2.9488887394336016 0.0
    vertex 29.500000000000004 2.9999999999999987 0.0
  endloop
endfacet
facet normal 0.258819045102519 0.9659258262890688 0.0
  outer loop
    vertex 29.88822856765378 2.9488887394336016 0.0
    vertex 29.500000000000004 2.9999999999999987 1.900000000000007
    vertex 29.88822856765378 2.9488887394336016 1.900000000000007
  endloop
endfacet
facet normal 0.9659258262890679 0.2588190451025221 0.0
  outer loop
    vertex 5.897777478867204 3.776457135307567 0.0
    vertex 6.000000000000001 3.0000000000000013 3.8999999999999844
    vertex 6.000000000000001 3.0000000000000013 0.0
  endloop
endfacet
facet normal 0.9914448613738103 0.13052619222005293 -0.0
  outer loop
    vertex 6.000000000000001 3.0000000000000013 3.8999999999999844
    vertex 5.897777478867204 3.776457135307567 0.0
    vertex 5.897777478867204 3.776457135307567 3.8999999999999844
  endloop
endfacet
facet normal 0.8660254037844384 0.5000000000000003 0.0
  outer loop
    vertex 5.598076211353315 4.500000000000003 0.0
    vertex 5.897777478867204 3.776457135307567 3.8999999999999844
    vertex 5.897777478867204 3.776457135307567 0.0
  endloop
endfacet
facet normal 0.9659258262890679 0.2588190451025221 0.0
  outer loop
    vertex 5.897777478867204 3.776457135307567 3.8999999999999844
    vertex 5.598076211353315 4.500000000000003 0.0
    vertex 5.598076211353315 4.500000000000003 3.8999999999999844
  endloop
endfacet
facet normal 0.7071067811865475 0.7071067811865475 0.0
  outer loop
    vertex 5.121320343559642 5.1213203435596455 0.0
    vertex 5.598076211353315 4.500000000000003 3.8999999999999844
    vertex 5.598076211353315 4.500000000000003 0.0
  endloop
endfacet
facet normal 0.8660254037844384 0.5000000000000003 0.0
  outer loop
    vertex 5.598076211353315 4.500000000000003 3.8999999999999844
    vertex 5.121320343559642 5.1213203435596455 0.0
    vertex 5.121320343559642 5.1213203435596455 3.8999999999999844
  endloop
endfacet
facet normal 0.4999999999999989 0.8660254037844393 0.0
  outer loop
    vertex 4.499999999999998 5.598076211353319 3.8999999999999844
    vertex 5.121320343559642 5.1213203435596455 0.0
    vertex 4.499999999999998 5.598076211353319 0.0
  endloop
endfacet
facet normal 0.7071067811865475 0.7071067811865475 0.0
  outer loop
    vertex 5.121320343559642 5.1213203435596455 0.0
    vertex 4.499999999999998 5.598076211353319 3.8999999999999844
    vertex 5.121320343559642 5.1213203435596455 3.8999999999999844
  endloop
endfacet
facet normal 0.25881904510252013 0.9659258262890685 0.0
  outer loop
    vertex 3.776457135307561 5.897777478867207 3.8999999999999844
    vertex 4.499999999999998 5.598076211353319 0.0
    vertex 3.776457135307561 5.897777478867207 0.0
  endloop
endfacet
facet normal 0.4999999999999989 0.8660254037844393 0.0
  outer loop
    vertex 4.499999999999998 5.598076211353319 0.0
    vertex 3.776457135307561 5.897777478867207 3.8999999999999844
    vertex 4.499999999999998 5.598076211353319 3.8999999999999844
  endloop
endfacet
facet normal 1.9604441770423192e-16 1.0 0.0
  outer loop
    vertex 2.9999999999999996 6.000000000000002 3.8999999999999844
    vertex 3.776457135307561 5.897777478867207 0.0
    vertex 2.9999999999999996 6.000000000000002 0.0
  endloop
endfacet
facet normal 0.25881904510252013 0.9659258262890685 0.0
  outer loop
    vertex 3.776457135307561 5.897777478867207 0.0
    vertex 2.9999999999999996 6.000000000000002 3.8999999999999844
    vertex 3.776457135307561 5.897777478867207 3.8999999999999844
  endloop
endfacet
facet normal -0.2588190451025212 0.9659258262890682 0.0
  outer loop
    vertex 2.223542864692436 5.897777478867207 3.8999999999999844
    vertex 2.9999999999999996 6.000000000000002 0.0
    vertex 2.223542864692436 5.897777478867207 0.0
  endloop
endfacet
facet normal 1.9604441770423192e-16 1.0 0.0
  outer loop
    vertex 2.9999999999999996 6.000000000000002 0.0
    vertex 2.223542864692436 5.897777478867207 3.8999999999999844
    vertex 2.9999999999999996 6.000000000000002 3.8999999999999844
  endloop
endfacet
facet normal -0.5000000000000007 0.8660254037844383 0.0
  outer loop
    vertex 1.499999999999999 5.598076211353317 3.8999999999999844
    vertex 2.223542864692436 5.897777478867207 0.0
    vertex 1.499999999999999 5.598076211353317 0.0
  endloop
endfacet
facet normal -0.2588190451025212 0.9659258262890682 0.0
  outer loop
    vertex 2.223542864692436 5.897777478867207 0.0
    vertex 1.499999999999999 5.598076211353317 3.8999999999999844
    vertex 2.223542864692436 5.897777478867207 3.8999999999999844
  endloop
endfacet
facet normal -0.7071067811865477 0.7071067811865472 0.0
  outer loop
    vertex 0.8786796564403565 5.121320343559643 3.8999999999999844
    vertex 1.499999999999999 5.598076211353317 0.0
    vertex 0.8786796564403565 5.121320343559643 0.0
  endloop
endfacet
facet normal -0.5000000000000007 0.8660254037844383 0.0
  outer loop
    vertex 1.499999999999999 5.598076211353317 0.0
    vertex 0.8786796564403565 5.121320343559643 3.8999999999999844
    vertex 1.499999999999999 5.598076211353317 3.8999999999999844
  endloop
endfacet
facet normal -0.7071067811865477 0.7071067811865472 0.0
  outer loop
    vertex 0.8786796564403565 5.121320343559643 3.8999999999999844
    vertex 0.40192378864668404 4.500000000000002 0.0
    vertex 0.40192378864668404 4.500000000000002 3.8999999999999844
  endloop
endfacet
facet normal -0.8660254037844389 0.4999999999999997 0.0
  outer loop
    vertex 0.40192378864668404 4.500000000000002 0.0
    vertex 0.8786796564403565 5.121320343559643 3.8999999999999844
    vertex 0.8786796564403565 5.121320343559643 0.0
  endloop
endfacet
facet normal -0.8660254037844389 0.4999999999999997 0.0
  outer loop
    vertex 0.40192378864668404 4.500000000000002 3.8999999999999844
    vertex 0.10222252113279526 3.7764571353075627 0.0
    vertex 0.10222252113279526 3.7764571353075627 3.8999999999999844
  endloop
endfacet
facet normal -0.9659258262890684 0.25881904510252035 0.0
  outer loop
    vertex 0.10222252113279526 3.7764571353075627 0.0
    vertex 0.40192378864668404 4.500000000000002 3.8999999999999844
    vertex 0.40192378864668404 4.500000000000002 0.0
  endloop
endfacet
facet normal -0.9659258262890684 0.25881904510252035 0.0
  outer loop
    vertex 0.10222252113279526 3.7764571353075627 3.8999999999999844
    vertex 3.524958103184872e-16 3.0000000000000013 0.0
    vertex 3.524958103184872e-16 3.0000000000000013 3.8999999999999844
  endloop
endfacet
facet normal -1.0 -9.802220885211596e-17 0.0
  outer loop
    vertex 3.524958103184872e-16 3.0000000000000013 0.0
    vertex 0.10222252113279526 3.7764571353075627 3.8999999999999844
    vertex 0.10222252113279526 3.7764571353075627 0.0
  endloop
endfacet
facet normal -1.0 -9.802220885211596e-17 0.0
  outer loop
    vertex 3.524958103184872e-16 3.0000000000000013 3.8999999999999844
    vertex 0.1022225211327956 2.2235428646924382 0.0
    vertex 0.1022225211327956 2.2235428646924382 3.8999999999999844
  endloop
endfacet
facet normal -0.9659258262890682 -0.2588190451025209 0.0
  outer loop
    vertex 0.1022225211327956 2.2235428646924382 0.0
    vertex 3.524958103184872e-16 3.0000000000000013 3.8999999999999844
    vertex 3.524958103184872e-16 3.0000000000000013 0.0
  endloop
endfacet
facet normal -0.9659258262890682 -0.2588190451025209 0.0
  outer loop
    vertex 0.1022225211327956 2.2235428646924382 3.8999999999999844
    vertex 0.40192378864668477 1.5000000000000007 0.0
    vertex 0.40192378864668477 1.5000000000000007 3.8999999999999844
  endloop
endfacet
facet normal -0.8660254037844384 -0.5000000000000004 0.0
  outer loop
    vertex 0.40192378864668477 1.5000000000000007 0.0
    vertex 0.1022225211327956 2.2235428646924382 3.8999999999999844
    vertex 0.1022225211327956 2.2235428646924382 0.0
  endloop
endfacet
facet normal -0.8660254037844384 -0.5000000000000004 0.0
  outer loop
    vertex 0.40192378864668477 1.5000000000000007 3.8999999999999844
    vertex 0.878679656440358 0.8786796564403593 0.0
    vertex 0.878679656440358 0.8786796564403593 3.8999999999999844
  endloop
endfacet
facet normal -0.7071067811865476 -0.7071067811865475 0.0
  outer loop
    vertex 0.878679656440358 0.8786796564403593 0.0
    vertex 0.40192378864668477 1.5000000000000007 3.8999999999999844
    vertex 0.40192378864668477 1.5000000000000007 0.0
  endloop
endfacet
facet normal -0.4999999999999989 -0.8660254037844393 0.0
  outer loop
    vertex 1.5000000000000009 0.40192378864668477 3.8999999999999844
    vertex 0.878679656440358 0.8786796564403593 0.0
    vertex 1.5000000000000009 0.40192378864668477 0.0
  endloop
endfacet
facet normal -0.7071067811865476 -0.7071067811865475 0.0
  outer loop
    vertex 0.878679656440358 0.8786796564403593 0.0
    vertex 1.5000000000000009 0.40192378864668477 3.8999999999999844
    vertex 0.878679656440358 0.8786796564403593 3.8999999999999844
  endloop
endfacet
facet normal -0.2588190451025209 -0.9659258262890683 0.0
  outer loop
    vertex 2.2235428646924382 0.10222252113279878 3.8999999999999844
    vertex 1.5000000000000009 0.40192378864668477 0.0
    vertex 2.2235428646924382 0.10222252113279878 0.0
  endloop
endfacet
facet normal -0.4999999999999989 -0.8660254037844393 0.0
  outer loop
    vertex 1.5000000000000009 0.40192378864668477 0.0
    vertex 2.2235428646924382 0.10222252113279878 3.8999999999999844
    vertex 1.5000000000000009 0.40192378864668477 3.8999999999999844
  endloop
endfacet
facet normal -0.13052619222005524 -0.99144486137381 0.0
  outer loop
    vertex 3.000000000000001 7.049916206369744e-16 3.8999999999999844
    vertex 2.2235428646924382 0.10222252113279878 0.0
    vertex 3.000000000000001 7.049916206369744e-16 0.0
  endloop
endfacet
facet normal -0.2588190451025209 -0.9659258262890683 0.0
  outer loop
    vertex 2.2235428646924382 0.10222252113279878 0.0
    vertex 3.000000000000001 7.049916206369744e-16 3.8999999999999844
    vertex 2.2235428646924382 0.10222252113279878 3.8999999999999844
  endloop
endfacet
facet normal 0.13052619222005435 0.99144486137381 6.323419230098077e-32
  outer loop
    vertex 19.499999999999996 2.9999999999999982 3.8999999999999844
    vertex 19.88822856765378 2.9488887394335994 1.9000000000000068
    vertex 19.499999999999996 2.9999999999999982 1.9000000000000068
  endloop
endfacet
facet normal 0.2588190451025232 0.9659258262890676 6.537669609482218e-32
  outer loop
    vertex 19.88822856765378 2.9488887394335994 1.9000000000000068
    vertex 19.499999999999996 2.9999999999999982 3.8999999999999844
    vertex 19.88822856765378 2.9488887394335994 3.8999999999999844
  endloop
endfacet
facet normal 0.2588190451025232 0.9659258262890676 6.537669609482218e-32
  outer loop
    vertex 19.88822856765378 2.9488887394335994 3.8999999999999844
    vertex 20.249999999999996 2.7990381056766545 1.9000000000000068
    vertex 19.88822856765378 2.9488887394335994 1.9000000000000068
  endloop
endfacet
facet normal 0.500000000000001 0.866025403784438 2.109302511186094e-31
  outer loop
    vertex 20.249999999999996 2.7990381056766545 1.9000000000000068
    vertex 19.88822856765378 2.9488887394335994 3.8999999999999844
    vertex 20.249999999999996 2.7990381056766545 3.8999999999999844
  endloop
endfacet
facet normal 0.500000000000001 0.866025403784438 2.109302511186094e-31
  outer loop
    vertex 20.249999999999996 2.7990381056766545 3.8999999999999844
    vertex 20.560660171779816 2.560660171779819 1.9000000000000068
    vertex 20.249999999999996 2.7990381056766545 1.9000000000000068
  endloop
endfacet
facet normal 0.7071067811865469 0.7071067811865482 1.7744347385061917e-31
  outer loop
    vertex 20.560660171779816 2.560660171779819 1.9000000000000068
    vertex 20.249999999999996 2.7990381056766545 3.8999999999999844
    vertex 20.560660171779816 2.560660171779819 3.8999999999999844
  endloop
endfacet
facet normal 0.7071067811865469 0.7071067811865482 1.7744347385061917e-31
  outer loop
    vertex 20.560660171779816 2.560660171779819 1.9000000000000068
    vertex 20.799038105676654 2.249999999999998 3.8999999999999844
    vertex 20.799038105676654 2.249999999999998 1.9000000000000068
  endloop
endfacet
facet normal 0.8660254037844386 0.5 -1.1578563948806478e-31
  outer loop
    vertex 20.799038105676654 2.249999999999998 3.8999999999999844
    vertex 20.560660171779816 2.560660171779819 1.9000000000000068
    vertex 20.560660171779816 2.560660171779819 3.8999999999999844
  endloop
endfacet
facet normal 0.8660254037844386 0.5 -1.1578563948806478e-31
  outer loop
    vertex 20.799038105676654 2.249999999999998 1.9000000000000068
    vertex 20.9488887394336 1.8882285676537787 3.8999999999999844
    vertex 20.9488887394336 1.8882285676537787 1.9000000000000068
  endloop
endfacet
facet normal 0.9659258262890684 0.2588190451025203 -2.410613268295494e-31
  outer loop
    vertex 20.9488887394336 1.8882285676537787 3.8999999999999844
    vertex 20.799038105676654 2.249999999999998 1.9000000000000068
    vertex 20.799038105676654 2.249999999999998 3.8999999999999844
  endloop
endfacet
facet normal 0.9659258262890684 0.2588190451025203 -2.410613268295494e-31
  outer loop
    vertex 20.9488887394336 1.8882285676537787 1.9000000000000068
    vertex 20.999999999999996 1.5000000000000007 3.8999999999999844
    vertex 20.999999999999996 1.5000000000000007 1.9000000000000068
  endloop
endfacet
facet normal 1.0 6.861554619648117e-16 -2.495289836335744e-31
  outer loop
    vertex 20.999999999999996 1.5000000000000007 3.8999999999999844
    vertex 20.9488887394336 1.8882285676537787 1.9000000000000068
    vertex 20.9488887394336 1.8882285676537787 3.8999999999999844
  endloop
endfacet
facet normal 1.0 6.861554619648117e-16 -2.495289836335744e-31
  outer loop
    vertex 20.999999999999996 1.5000000000000007 1.9000000000000068
    vertex 20.9488887394336 1.1117714323462187 3.8999999999999844
    vertex 20.9488887394336 1.1117714323462187 1.9000000000000068
  endloop
endfacet
facet normal 0.9659258262890684 -0.25881904510251996 -1.6874418592392354e-18
  outer loop
    vertex 20.9488887394336 1.1117714323462187 3.8999999999999844
    vertex 20.999999999999996 1.5000000000000007 1.9000000000000068
    vertex 20.999999999999996 1.5000000000000007 3.8999999999999844
  endloop
endfacet
facet normal 0.9659258262890684 -0.25881904510251996 -1.6874418592392354e-18
  outer loop
    vertex 20.9488887394336 1.1117714323462187 1.9000000000000068
    vertex 20.799038105676654 0.75 3.8999999999999844
    vertex 20.799038105676654 0.75 1.9000000000000068
  endloop
endfacet
facet normal 0.8660254037844379 -0.5000000000000012 -1.6874418592391118e-18
  outer loop
    vertex 20.799038105676654 0.75 3.8999999999999844
    vertex 20.9488887394336 1.1117714323462187 1.9000000000000068
    vertex 20.9488887394336 1.1117714323462187 3.8999999999999844
  endloop
endfacet
facet normal 0.8660254037844379 -0.5000000000000012 -1.6874418592391118e-18
  outer loop
    vertex 20.799038105676654 0.75 1.9000000000000068
    vertex 20.560660171779816 0.4393398282201803 3.8999999999999844
    vertex 20.560660171779816 0.4393398282201803 1.9000000000000068
  endloop
endfacet
facet normal 0.7071067811865461 -0.707106781186549 1.7491450143280635e-18
  outer loop
    vertex 20.560660171779816 0.4393398282201803 3.8999999999999844
    vertex 20.799038105676654 0.75 1.9000000000000068
    vertex 20.799038105676654 0.75 3.8999999999999844
  endloop
endfacet
facet normal 0.7071067811865461 -0.707106781186549 1.7491450143280635e-18
  outer loop
    vertex 20.560660171779816 0.4393398282201803 3.8999999999999844
    vertex 20.249999999999996 0.20096189432334471 1.9000000000000068
    vertex 20.560660171779816 0.4393398282201803 1.9000000000000068
  endloop
endfacet
facet normal 0.4999999999999994 -0.8660254037844392 1.7491450143281143e-18
  outer loop
    vertex 20.249999999999996 0.20096189432334471 1.9000000000000068
    vertex 20.560660171779816 0.4393398282201803 3.8999999999999844
    vertex 20.249999999999996 0.20096189432334471 3.8999999999999844
  endloop
endfacet
facet normal 0.4999999999999994 -0.8660254037844392 1.7491450143281143e-18
  outer loop
    vertex 20.249999999999996 0.20096189432334471 3.8999999999999844
    vertex 19.88822856765378 0.05111126056640174 1.9000000000000068
    vertex 20.249999999999996 0.20096189432334471 1.9000000000000068
  endloop
endfacet
facet normal 0.25881904510252246 -0.9659258262890679 6.567510195706964e-32
  outer loop
    vertex 19.88822856765378 0.05111126056640174 1.9000000000000068
    vertex 20.249999999999996 0.20096189432334471 3.8999999999999844
    vertex 19.88822856765378 0.05111126056640174 3.8999999999999844
  endloop
endfacet
facet normal 0.25881904510252246 -0.9659258262890679 6.567510195706964e-32
  outer loop
    vertex 19.88822856765378 0.05111126056640174 3.8999999999999844
    vertex 19.499999999999996 1.993804427113943e-15 1.9000000000000068
    vertex 19.88822856765378 0.05111126056640174 1.9000000000000068
  endloop
endfacet
facet normal 0.130526192220057 -0.9914448613738098 3.2436619271593985e-32
  outer loop
    vertex 19.499999999999996 1.993804427113943e-15 1.9000000000000068
    vertex 19.88822856765378 0.05111126056640174 3.8999999999999844
    vertex 19.499999999999996 1.993804427113943e-15 3.8999999999999844
  endloop
endfacet
facet normal -0.0 -0.0 1.0
  outer loop
    vertex 2.2235428646924382 0.10222252113279878 3.8999999999999844
    vertex 2.0000000000000004 3.0000000000000013 3.8999999999999844
    vertex 1.5000000000000009 0.40192378864668477 3.8999999999999844
  endloop
endfacet
facet normal -0.0 -0.0 1.0
  outer loop
    vertex 2.0000000000000004 3.0000000000000013 3.8999999999999844
    vertex 2.2235428646924382 0.10222252113279878 3.8999999999999844
    vertex 2.0340741737109322 2.74118095489748 3.8999999999999844
  endloop
endfacet
facet normal -0.0 -0.0 1.0
  outer loop
    vertex 2.0340741737109322 2.74118095489748 3.8999999999999844
    vertex 2.2235428646924382 0.10222252113279878 3.8999999999999844
    vertex 2.133974596215562 2.500000000000001 3.8999999999999844
  endloop
endfacet
facet normal -0.0 -0.0 1.0
  outer loop
    vertex 2.133974596215562 2.500000000000001 3.8999999999999844
    vertex 2.2235428646924382 0.10222252113279878 3.8999999999999844
    vertex 2.292893218813453 2.292893218813454 3.8999999999999844
  endloop
endfacet
facet normal -0.0 -0.0 1.0
  outer loop
    vertex 2.292893218813453 2.292893218813454 3.8999999999999844
    vertex 2.2235428646924382 0.10222252113279878 3.8999999999999844
    vertex 3.000000000000001 7.049916206369744e-16 3.8999999999999844
  endloop
endfacet
facet normal -0.0 -0.0 1.0
  outer loop
    vertex 2.292893218813453 2.292893218813454 3.8999999999999844
    vertex 3.000000000000001 7.049916206369744e-16 3.8999999999999844
    vertex 2.500000000000001 2.1339745962155625 3.8999999999999844
  endloop
endfacet
facet normal -0.0 -0.0 1.0
  outer loop
    vertex 2.500000000000001 2.1339745962155625 3.8999999999999844
    vertex 3.000000000000001 7.049916206369744e-16 3.8999999999999844
    vertex 2.7411809548974797 2.0340741737109336 3.8999999999999844
  endloop
endfacet
facet normal -0.0 -0.0 1.0
  outer loop
    vertex 2.7411809548974797 2.0340741737109336 3.8999999999999844
    vertex 3.000000000000001 7.049916206369744e-16 3.8999999999999844
    vertex 3.0 2.0000000000000018 3.8999999999999844
  endloop
endfacet
facet normal -0.0 -0.0 1.0
  outer loop
    vertex 3.0 2.0000000000000018 3.8999999999999844
    vertex 3.000000000000001 7.049916206369744e-16 3.8999999999999844
    vertex 3.2588190451025207 2.0340741737109336 3.8999999999999844
  endloop
endfacet
facet normal -0.0 -0.0 1.0
  outer loop
    vertex 3.2588190451025207 2.0340741737109336 3.8999999999999844
    vertex 3.000000000000001 7.049916206369744e-16 3.8999999999999844
    vertex 19.499999999999996 1.993804427113943e-15 3.8999999999999844
  endloop
endfacet
facet normal -0.0 -0.0 1.0
  outer loop
    vertex 3.2588190451025207 2.0340741737109336 3.8999999999999844
    vertex 19.499999999999996 1.993804427113943e-15 3.8999999999999844
    vertex 3.5 2.133974596215563 3.8999999999999844
  endloop
endfacet
facet normal -0.0 -0.0 1.0
  outer loop
    vertex 3.5 2.133974596215563 3.8999999999999844
    vertex 19.499999999999996 1.993804427113943e-15 3.8999999999999844
    vertex 3.7071067811865475 2.292893218813454 3.8999999999999844
  endloop
endfacet
facet normal -0.0 -0.0 1.0
  outer loop
    vertex 3.7071067811865475 2.292893218813454 3.8999999999999844
    vertex 19.499999999999996 1.993804427113943e-15 3.8999999999999844
    vertex 3.866025403784439 2.5000000000000013 3.8999999999999844
  endloop
endfacet
facet normal -0.0 -0.0 1.0
  outer loop
    vertex 3.866025403784439 2.5000000000000013 3.8999999999999844
    vertex 19.499999999999996 1.993804427113943e-15 3.8999999999999844
    vertex 3.9659258262890678 2.7411809548974806 3.8999999999999844
  endloop
endfacet
facet normal -0.0 -0.0 1.0
  outer loop
    vertex 3.9659258262890678 2.7411809548974806 3.8999999999999844
    vertex 19.499999999999996 1.993804427113943e-15 3.8999999999999844
    vertex 3.9999999999999996 3.0000000000000013 3.8999999999999844
  endloop
endfacet
facet normal -0.0 -0.0 1.0
  outer loop
    vertex 3.9999999999999996 3.0000000000000013 3.8999999999999844
    vertex 19.499999999999996 1.993804427113943e-15 3.8999999999999844
    vertex 6.000000000000001 3.0000000000000013 3.8999999999999844
  endloop
endfacet
facet normal -0.0 -0.0 1.0
  outer loop
    vertex 3.9999999999999996 3.0000000000000013 3.8999999999999844
    vertex 6.000000000000001 3.0000000000000013 3.8999999999999844
    vertex 4.499999999999998 5.598076211353319 3.8999999999999844
  endloop
endfacet
facet normal -0.0 -0.0 1.0
  outer loop
    vertex 4.499999999999998 5.598076211353319 3.8999999999999844
    vertex 6.000000000000001 3.0000000000000013 3.8999999999999844
    vertex 5.121320343559642 5.1213203435596455 3.8999999999999844
  endloop
endfacet
facet normal -0.0 -0.0 1.0
  outer loop
    vertex 5.121320343559642 5.1213203435596455 3.8999999999999844
    vertex 6.000000000000001 3.0000000000000013 3.8999999999999844
    vertex 5.598076211353315 4.500000000000003 3.8999999999999844
  endloop
endfacet
facet normal -0.0 -0.0 1.0
  outer loop
    vertex 5.598076211353315 4.500000000000003 3.8999999999999844
    vertex 6.000000000000001 3.0000000000000013 3.8999999999999844
    vertex 5.897777478867204 3.776457135307567 3.8999999999999844
  endloop
endfacet
facet normal -0.0 -0.0 1.0
  outer loop
    vertex 6.000000000000001 3.0000000000000013 3.8999999999999844
    vertex 19.499999999999996 1.993804427113943e-15 3.8999999999999844
    vertex 19.499999999999996 2.9999999999999982 3.8999999999999844
  endloop
endfacet
facet normal -0.0 -0.0 1.0
  outer loop
    vertex 19.499999999999996 2.9999999999999982 3.8999999999999844
    vertex 19.499999999999996 1.993804427113943e-15 3.8999999999999844
    vertex 19.88822856765378 0.05111126056640174 3.8999999999999844
  endloop
endfacet
facet normal -0.0 -0.0 1.0
  outer loop
    vertex 19.499999999999996 2.9999999999999982 3.8999999999999844
    vertex 19.88822856765378 0.05111126056640174 3.8999999999999844
    vertex 19.88822856765378 2.9488887394335994 3.8999999999999844
  endloop
endfacet
facet normal -0.0 -0.0 1.0
  outer loop
    vertex 19.88822856765378 2.9488887394335994 3.8999999999999844
    vertex 19.88822856765378 0.05111126056640174 3.8999999999999844
    vertex 20.249999999999996 0.20096189432334471 3.8999999999999844
  endloop
endfacet
facet normal -0.0 -0.0 1.0
  outer loop
    vertex 19.88822856765378 2.9488887394335994 3.8999999999999844
    vertex 20.249999999999996 0.20096189432334471 3.8999999999999844
    vertex 20.249999999999996 2.7990381056766545 3.8999999999999844
  endloop
endfacet
facet normal -0.0 -0.0 1.0
  outer loop
    vertex 20.249999999999996 2.7990381056766545 3.8999999999999844
    vertex 20.249999999999996 0.20096189432334471 3.8999999999999844
    vertex 20.560660171779816 0.4393398282201803 3.8999999999999844
  endloop
endfacet
facet normal -0.0 -0.0 1.0
  outer loop
    vertex 20.249999999999996 2.7990381056766545 3.8999999999999844
    vertex 20.560660171779816 0.4393398282201803 3.8999999999999844
    vertex 20.560660171779816 2.560660171779819 3.8999999999999844
  endloop
endfacet
facet normal -0.0 -0.0 1.0
  outer loop
    vertex 20.560660171779816 2.560660171779819 3.8999999999999844
    vertex 20.560660171779816 0.4393398282201803 3.8999999999999844
    vertex 20.799038105676654 0.75 3.8999999999999844
  endloop
endfacet
facet normal -0.0 -0.0 1.0
  outer loop
    vertex 20.560660171779816 2.560660171779819 3.8999999999999844
    vertex 20.799038105676654 0.75 3.8999999999999844
    vertex 20.799038105676654 2.249999999999998 3.8999999999999844
  endloop
endfacet
facet normal -0.0 -0.0 1.0
  outer loop
    vertex 20.799038105676654 2.249999999999998 3.8999999999999844
    vertex 20.799038105676654 0.75 3.8999999999999844
    vertex 20.9488887394336 1.1117714323462187 3.8999999999999844
  endloop
endfacet
facet normal -0.0 -0.0 1.0
  outer loop
    vertex 20.799038105676654 2.249999999999998 3.8999999999999844
    vertex 20.9488887394336 1.1117714323462187 3.8999999999999844
    vertex 20.9488887394336 1.8882285676537787 3.8999999999999844
  endloop
endfacet
facet normal -0.0 -0.0 1.0
  outer loop
    vertex 20.9488887394336 1.8882285676537787 3.8999999999999844
    vertex 20.9488887394336 1.1117714323462187 3.8999999999999844
    vertex 20.999999999999996 1.5000000000000007 3.8999999999999844
  endloop
endfacet
facet normal -0.0 -0.0 1.0
  outer loop
    vertex 0.1022225211327956 2.2235428646924382 3.8999999999999844
    vertex 0.10222252113279526 3.7764571353075627 3.8999999999999844
    vertex 3.524958103184872e-16 3.0000000000000013 3.8999999999999844
  endloop
endfacet
facet normal -0.0 -0.0 1.0
  outer loop
    vertex 0.10222252113279526 3.7764571353075627 3.8999999999999844
    vertex 0.1022225211327956 2.2235428646924382 3.8999999999999844
    vertex 0.40192378864668404 4.500000000000002 3.8999999999999844
  endloop
endfacet
facet normal -0.0 -0.0 1.0
  outer loop
    vertex 0.40192378864668404 4.500000000000002 3.8999999999999844
    vertex 0.1022225211327956 2.2235428646924382 3.8999999999999844
    vertex 0.40192378864668477 1.5000000000000007 3.8999999999999844
  endloop
endfacet
facet normal -0.0 -0.0 1.0
  outer loop
    vertex 0.40192378864668404 4.500000000000002 3.8999999999999844
    vertex 0.40192378864668477 1.5000000000000007 3.8999999999999844
    vertex 0.8786796564403565 5.121320343559643 3.8999999999999844
  endloop
endfacet
facet normal -0.0 -0.0 1.0
  outer loop
    vertex 0.8786796564403565 5.121320343559643 3.8999999999999844
    vertex 0.40192378864668477 1.5000000000000007 3.8999999999999844
    vertex 0.878679656440358 0.8786796564403593 3.8999999999999844
  endloop
endfacet
facet normal -0.0 -0.0 1.0
  outer loop
    vertex 0.8786796564403565 5.121320343559643 3.8999999999999844
    vertex 0.878679656440358 0.8786796564403593 3.8999999999999844
    vertex 1.499999999999999 5.598076211353317 3.8999999999999844
  endloop
endfacet
facet normal -0.0 -0.0 1.0
  outer loop
    vertex 1.499999999999999 5.598076211353317 3.8999999999999844
    vertex 0.878679656440358 0.8786796564403593 3.8999999999999844
    vertex 1.5000000000000009 0.40192378864668477 3.8999999999999844
  endloop
endfacet
facet normal -0.0 -0.0 1.0
  outer loop
    vertex 1.499999999999999 5.598076211353317 3.8999999999999844
    vertex 1.5000000000000009 0.40192378864668477 3.8999999999999844
    vertex 2.223542864692436 5.897777478867207 3.8999999999999844
  endloop
endfacet
facet normal -0.0 -0.0 1.0
  outer loop
    vertex 2.223542864692436 5.897777478867207 3.8999999999999844
    vertex 1.5000000000000009 0.40192378864668477 3.8999999999999844
    vertex 2.0000000000000004 3.0000000000000013 3.8999999999999844
  endloop
endfacet
facet normal -0.0 -0.0 1.0
  outer loop
    vertex 2.223542864692436 5.897777478867207 3.8999999999999844
    vertex 2.0000000000000004 3.0000000000000013 3.8999999999999844
    vertex 2.0340741737109322 3.2588190451025216 3.8999999999999844
  endloop
endfacet
facet normal -0.0 -0.0 1.0
  outer loop
    vertex 2.223542864692436 5.897777478867207 3.8999999999999844
    vertex 2.0340741737109322 3.2588190451025216 3.8999999999999844
    vertex 2.1339745962155616 3.5000000000000004 3.8999999999999844
  endloop
endfacet
facet normal -0.0 -0.0 1.0
  outer loop
    vertex 2.223542864692436 5.897777478867207 3.8999999999999844
    vertex 2.1339745962155616 3.5000000000000004 3.8999999999999844
    vertex 2.2928932188134525 3.707106781186548 3.8999999999999844
  endloop
endfacet
facet normal -0.0 -0.0 1.0
  outer loop
    vertex 2.223542864692436 5.897777478867207 3.8999999999999844
    vertex 2.2928932188134525 3.707106781186548 3.8999999999999844
    vertex 2.9999999999999996 6.000000000000002 3.8999999999999844
  endloop
endfacet
facet normal -0.0 -0.0 1.0
  outer loop
    vertex 2.9999999999999996 6.000000000000002 3.8999999999999844
    vertex 2.2928932188134525 3.707106781186548 3.8999999999999844
    vertex 2.5 3.8660254037844393 3.8999999999999844
  endloop
endfacet
facet normal -0.0 -0.0 1.0
  outer loop
    vertex 2.9999999999999996 6.000000000000002 3.8999999999999844
    vertex 2.5 3.8660254037844393 3.8999999999999844
    vertex 2.741180954897479 3.9659258262890686 3.8999999999999844
  endloop
endfacet
facet normal -0.0 -0.0 1.0
  outer loop
    vertex 2.9999999999999996 6.000000000000002 3.8999999999999844
    vertex 2.741180954897479 3.9659258262890686 3.8999999999999844
    vertex 3.0 4.000000000000001 3.8999999999999844
  endloop
endfacet
facet normal -0.0 -0.0 1.0
  outer loop
    vertex 2.9999999999999996 6.000000000000002 3.8999999999999844
    vertex 3.0 4.000000000000001 3.8999999999999844
    vertex 3.776457135307561 5.897777478867207 3.8999999999999844
  endloop
endfacet
facet normal -0.0 -0.0 1.0
  outer loop
    vertex 3.776457135307561 5.897777478867207 3.8999999999999844
    vertex 3.0 4.000000000000001 3.8999999999999844
    vertex 3.2588190451025203 3.9659258262890695 3.8999999999999844
  endloop
endfacet
facet normal -0.0 -0.0 1.0
  outer loop
    vertex 3.776457135307561 5.897777478867207 3.8999999999999844
    vertex 3.2588190451025203 3.9659258262890695 3.8999999999999844
    vertex 3.499999999999999 3.86602540378444 3.8999999999999844
  endloop
endfacet
facet normal -0.0 -0.0 1.0
  outer loop
    vertex 3.776457135307561 5.897777478867207 3.8999999999999844
    vertex 3.499999999999999 3.86602540378444 3.8999999999999844
    vertex 3.7071067811865475 3.707106781186549 3.8999999999999844
  endloop
endfacet
facet normal -0.0 -0.0 1.0
  outer loop
    vertex 3.776457135307561 5.897777478867207 3.8999999999999844
    vertex 3.7071067811865475 3.707106781186549 3.8999999999999844
    vertex 3.866025403784438 3.5000000000000013 3.8999999999999844
  endloop
endfacet
facet normal -0.0 -0.0 1.0
  outer loop
    vertex 3.776457135307561 5.897777478867207 3.8999999999999844
    vertex 3.866025403784438 3.5000000000000013 3.8999999999999844
    vertex 4.499999999999998 5.598076211353319 3.8999999999999844
  endloop
endfacet
facet normal -0.0 -0.0 1.0
  outer loop
    vertex 4.499999999999998 5.598076211353319 3.8999999999999844
    vertex 3.866025403784438 3.5000000000000013 3.8999999999999844
    vertex 3.9659258262890678 3.258819045102523 3.8999999999999844
  endloop
endfacet
facet normal -0.0 -0.0 1.0
  outer loop
    vertex 4.499999999999998 5.598076211353319 3.8999999999999844
    vertex 3.9659258262890678 3.258819045102523 3.8999999999999844
    vertex 3.9999999999999996 3.0000000000000013 3.8999999999999844
  endloop
endfacet
facet normal -3.487250264856395e-17 -1.3375638381416427e-32 1.0
  outer loop
    vertex 29.500000000000004 3.524958103184872e-15 1.900000000000007
    vertex 19.88822856765378 0.05111126056640174 1.9000000000000068
    vertex 19.499999999999996 1.993804427113943e-15 1.9000000000000068
  endloop
endfacet
facet normal -3.487250264856395e-17 -1.3375638381416427e-32 1.0
  outer loop
    vertex 19.88822856765378 0.05111126056640174 1.9000000000000068
    vertex 29.500000000000004 3.524958103184872e-15 1.900000000000007
    vertex 20.249999999999996 0.20096189432334471 1.9000000000000068
  endloop
endfacet
facet normal -3.487250264856395e-17 -1.3375638381416427e-32 1.0
  outer loop
    vertex 20.249999999999996 0.20096189432334471 1.9000000000000068
    vertex 29.500000000000004 3.524958103184872e-15 1.900000000000007
    vertex 20.560660171779816 0.4393398282201803 1.9000000000000068
  endloop
endfacet
facet normal -3.487250264856395e-17 -1.3375638381416427e-32 1.0
  outer loop
    vertex 20.560660171779816 0.4393398282201803 1.9000000000000068
    vertex 29.500000000000004 3.524958103184872e-15 1.900000000000007
    vertex 20.799038105676654 0.75 1.9000000000000068
  endloop
endfacet
facet normal -3.487250264856395e-17 -1.3375638381416427e-32 1.0
  outer loop
    vertex 20.799038105676654 0.75 1.9000000000000068
    vertex 29.500000000000004 3.524958103184872e-15 1.900000000000007
    vertex 20.9488887394336 1.1117714323462187 1.9000000000000068
  endloop
endfacet
facet normal -3.487250264856395e-17 -1.3375638381416427e-32 1.0
  outer loop
    vertex 20.9488887394336 1.1117714323462187 1.9000000000000068
    vertex 29.500000000000004 3.524958103184872e-15 1.900000000000007
    vertex 20.999999999999996 1.5000000000000007 1.9000000000000068
  endloop
endfacet
facet normal -3.487250264856395e-17 -1.3375638381416427e-32 1.0
  outer loop
    vertex 19.88822856765378 2.9488887394335994 1.9000000000000068
    vertex 29.500000000000004 2.9999999999999987 1.900000000000007
    vertex 19.499999999999996 2.9999999999999982 1.9000000000000068
  endloop
endfacet
facet normal -3.487250264856395e-17 -1.3375638381416427e-32 1.0
  outer loop
    vertex 29.500000000000004 2.9999999999999987 1.900000000000007
    vertex 19.88822856765378 2.9488887394335994 1.9000000000000068
    vertex 20.249999999999996 2.7990381056766545 1.9000000000000068
  endloop
endfacet
facet normal -3.487250264856395e-17 -1.3375638381416427e-32 1.0
  outer loop
    vertex 29.500000000000004 2.9999999999999987 1.900000000000007
    vertex 20.249999999999996 2.7990381056766545 1.9000000000000068
    vertex 20.560660171779816 2.560660171779819 1.9000000000000068
  endloop
endfacet
facet normal -3.487250264856395e-17 -1.3375638381416427e-32 1.0
  outer loop
    vertex 29.500000000000004 2.9999999999999987 1.900000000000007
    vertex 20.560660171779816 2.560660171779819 1.9000000000000068
    vertex 20.799038105676654 2.249999999999998 1.9000000000000068
  endloop
endfacet
facet normal -3.487250264856395e-17 -1.3375638381416427e-32 1.0
  outer loop
    vertex 29.500000000000004 2.9999999999999987 1.900000000000007
    vertex 20.799038105676654 2.249999999999998 1.9000000000000068
    vertex 20.9488887394336 1.8882285676537787 1.9000000000000068
  endloop
endfacet
facet normal -3.487250264856395e-17 -1.3375638381416427e-32 1.0
  outer loop
    vertex 29.500000000000004 2.9999999999999987 1.900000000000007
    vertex 20.9488887394336 1.8882285676537787 1.9000000000000068
    vertex 20.999999999999996 1.5000000000000007 1.9000000000000068
  endloop
endfacet
facet normal -3.487250264856395e-17 -1.3375638381416427e-32 1.0
  outer loop
    vertex 29.500000000000004 2.9999999999999987 1.900000000000007
    vertex 20.999999999999996 1.5000000000000007 1.9000000000000068
    vertex 29.500000000000004 3.524958103184872e-15 1.900000000000007
  endloop
endfacet
facet normal -3.487250264856395e-17 -1.3375638381416427e-32 1.0
  outer loop
    vertex 29.500000000000004 2.9999999999999987 1.900000000000007
    vertex 29.500000000000004 3.524958103184872e-15 1.900000000000007
    vertex 29.88822856765378 0.05111126056640256 1.900000000000007
  endloop
endfacet
facet normal -3.487250264856395e-17 -1.3375638381416427e-32 1.0
  outer loop
    vertex 29.500000000000004 2.9999999999999987 1.900000000000007
    vertex 29.88822856765378 0.05111126056640256 1.900000000000007
    vertex 29.88822856765378 2.9488887394336016 1.900000000000007
  endloop
endfacet
facet normal -3.487250264856395e-17 -1.3375638381416427e-32 1.0
  outer loop
    vertex 29.88822856765378 2.9488887394336016 1.900000000000007
    vertex 29.88822856765378 0.05111126056640256 1.900000000000007
    vertex 30.25 0.20096189432334555 1.900000000000007
  endloop
endfacet
facet normal -3.487250264856395e-17 -1.3375638381416427e-32 1.0
  outer loop
    vertex 29.88822856765378 2.9488887394336016 1.900000000000007
    vertex 30.25 0.20096189432334555 1.900000000000007
    vertex 30.25 2.799038105676658 1.900000000000007
  endloop
endfacet
facet normal -3.487250264856395e-17 -1.3375638381416427e-32 1.0
  outer loop
    vertex 30.25 2.799038105676658 1.900000000000007
    vertex 30.25 0.20096189432334555 1.900000000000007
    vertex 30.56066017177982 0.4393398282201811 1.900000000000007
  endloop
endfacet
facet normal -3.487250264856395e-17 -1.3375638381416427e-32 1.0
  outer loop
    vertex 30.25 2.799038105676658 1.900000000000007
    vertex 30.56066017177982 0.4393398282201811 1.900000000000007
    vertex 30.56066017177982 2.5606601717798205 1.900000000000007
  endloop
endfacet
facet normal -3.487250264856395e-17 -1.3375638381416427e-32 1.0
  outer loop
    vertex 30.56066017177982 2.5606601717798205 1.900000000000007
    vertex 30.56066017177982 0.4393398282201811 1.900000000000007
    vertex 30.799038105676658 0.75 1.900000000000007
  endloop
endfacet
facet normal -3.487250264856395e-17 -1.3375638381416427e-32 1.0
  outer loop
    vertex 30.56066017177982 2.5606601717798205 1.900000000000007
    vertex 30.799038105676658 0.75 1.900000000000007
    vertex 30.799038105676658 2.250000000000002 1.900000000000007
  endloop
endfacet
facet normal -3.487250264856395e-17 -1.3375638381416427e-32 1.0
  outer loop
    vertex 30.799038105676658 2.250000000000002 1.900000000000007
    vertex 30.799038105676658 0.75 1.900000000000007
    vertex 30.948888739433606 1.1117714323462187 1.900000000000007
  endloop
endfacet
facet normal -3.487250264856395e-17 -1.3375638381416427e-32 1.0
  outer loop
    vertex 30.799038105676658 2.250000000000002 1.900000000000007
    vertex 30.948888739433606 1.1117714323462187 1.900000000000007
    vertex 30.9488887394336 1.8882285676537836 1.900000000000007
  endloop
endfacet
facet normal -3.487250264856395e-17 -1.3375638381416427e-32 1.0
  outer loop
    vertex 30.9488887394336 1.8882285676537836 1.900000000000007
    vertex 30.948888739433606 1.1117714323462187 1.900000000000007
    vertex 31.0 1.5000000000000029 1.900000000000007
  endloop
endfacet
facet normal 1.2119838357456934e-16 1.0 2.4444624849248103e-16
  outer loop
    vertex 6.000000000000001 3.0000000000000013 3.8999999999999844
    vertex 29.500000000000004 2.9999999999999987 0.0
    vertex 6.000000000000001 3.0000000000000013 0.0
  endloop
endfacet
facet normal 1.2119838357456934e-16 1.0 2.4444624849248103e-16
  outer loop
    vertex 29.500000000000004 2.9999999999999987 0.0
    vertex 6.000000000000001 3.0000000000000013 3.8999999999999844
    vertex 19.499999999999996 2.9999999999999982 1.9000000000000068
  endloop
endfacet
facet normal 1.2119838357456934e-16 1.0 2.4444624849248103e-16
  outer loop
    vertex 19.499999999999996 2.9999999999999982 1.9000000000000068
    vertex 6.000000000000001 3.0000000000000013 3.8999999999999844
    vertex 19.499999999999996 2.9999999999999982 3.8999999999999844
  endloop
endfacet
facet normal 1.2119838357456934e-16 1.0 2.4444624849248103e-16
  outer loop
    vertex 29.500000000000004 2.9999999999999987 1.900000000000007
    vertex 29.500000000000004 2.9999999999999987 0.0
    vertex 19.499999999999996 2.9999999999999982 1.9000000000000068
  endloop
endfacet
facet normal 0.0 0.0 -1.0
  outer loop
    vertex 0.10222252113279526 3.7764571353075627 0.0
    vertex 0.1022225211327956 2.2235428646924382 0.0
    vertex 3.524958103184872e-16 3.0000000000000013 0.0
  endloop
endfacet
facet normal 0.0 0.0 -1.0
  outer loop
    vertex 0.1022225211327956 2.2235428646924382 0.0
    vertex 0.10222252113279526 3.7764571353075627 0.0
    vertex 0.40192378864668404 4.500000000000002 0.0
  endloop
endfacet
facet normal 0.0 0.0 -1.0
  outer loop
    vertex 0.1022225211327956 2.2235428646924382 0.0
    vertex 0.40192378864668404 4.500000000000002 0.0
    vertex 0.40192378864668477 1.5000000000000007 0.0
  endloop
endfacet
facet normal 0.0 0.0 -1.0
  outer loop
    vertex 0.40192378864668477 1.5000000000000007 0.0
    vertex 0.40192378864668404 4.500000000000002 0.0
    vertex 0.8786796564403565 5.121320343559643 0.0
  endloop
endfacet
facet normal 0.0 0.0 -1.0
  outer loop
    vertex 0.40192378864668477 1.5000000000000007 0.0
    vertex 0.8786796564403565 5.121320343559643 0.0
    vertex 0.878679656440358 0.8786796564403593 0.0
  endloop
endfacet
facet normal 0.0 0.0 -1.0
  outer loop
    vertex 0.878679656440358 0.8786796564403593 0.0
    vertex 0.8786796564403565 5.121320343559643 0.0
    vertex 1.499999999999999 5.598076211353317 0.0
  endloop
endfacet
facet normal 0.0 0.0 -1.0
  outer loop
    vertex 0.878679656440358 0.8786796564403593 0.0
    vertex 1.499999999999999 5.598076211353317 0.0
    vertex 1.5000000000000009 0.40192378864668477 0.0
  endloop
endfacet
facet normal 0.0 0.0 -1.0
  outer loop
    vertex 1.5000000000000009 0.40192378864668477 0.0
    vertex 1.499999999999999 5.598076211353317 0.0
    vertex 2.223542864692436 5.897777478867207 0.0
  endloop
endfacet
facet normal 0.0 0.0 -1.0
  outer loop
    vertex 1.5000000000000009 0.40192378864668477 0.0
    vertex 2.223542864692436 5.897777478867207 0.0
    vertex 2.0000000000000004 3.0000000000000013 3.3134606169937796e-14
  endloop
endfacet
facet normal 0.0 0.0 -1.0
  outer loop
    vertex 2.0000000000000004 3.0000000000000013 3.3134606169937796e-14
    vertex 2.223542864692436 5.897777478867207 0.0
    vertex 2.0340741737109322 3.2588190451025216 3.3134606169937796e-14
  endloop
endfacet
facet normal 0.0 0.0 -1.0
  outer loop
    vertex 2.0340741737109322 3.2588190451025216 3.3134606169937796e-14
    vertex 2.223542864692436 5.897777478867207 0.0
    vertex 2.1339745962155616 3.5000000000000004 3.3134606169937796e-14
  endloop
endfacet
facet normal 0.0 0.0 -1.0
  outer loop
    vertex 2.1339745962155616 3.5000000000000004 3.3134606169937796e-14
    vertex 2.223542864692436 5.897777478867207 0.0
    vertex 2.2928932188134525 3.707106781186548 3.3134606169937796e-14
  endloop
endfacet
facet normal 0.0 0.0 -1.0
  outer loop
    vertex 2.2928932188134525 3.707106781186548 3.3134606169937796e-14
    vertex 2.223542864692436 5.897777478867207 0.0
    vertex 2.9999999999999996 6.000000000000002 0.0
  endloop
endfacet
facet normal 0.0 0.0 -1.0
  outer loop
    vertex 2.2928932188134525 3.707106781186548 3.3134606169937796e-14
    vertex 2.9999999999999996 6.000000000000002 0.0
    vertex 2.5 3.8660254037844393 3.3134606169937796e-14
  endloop
endfacet
facet normal 0.0 0.0 -1.0
  outer loop
    vertex 2.5 3.8660254037844393 3.3134606169937796e-14
    vertex 2.9999999999999996 6.000000000000002 0.0
    vertex 2.741180954897479 3.9659258262890686 3.3134606169937796e-14
  endloop
endfacet
facet normal 0.0 0.0 -1.0
  outer loop
    vertex 2.741180954897479 3.9659258262890686 3.3134606169937796e-14
    vertex 2.9999999999999996 6.000000000000002 0.0
    vertex 3.0 4.000000000000001 3.3134606169937796e-14
  endloop
endfacet
facet normal 0.0 0.0 -1.0
  outer loop
    vertex 3.0 4.000000000000001 3.3134606169937796e-14
    vertex 2.9999999999999996 6.000000000000002 0.0
    vertex 3.776457135307561 5.897777478867207 0.0
  endloop
endfacet
facet normal 0.0 0.0 -1.0
  outer loop
    vertex 3.0 4.000000000000001 3.3134606169937796e-14
    vertex 3.776457135307561 5.897777478867207 0.0
    vertex 3.2588190451025203 3.9659258262890695 3.3134606169937796e-14
  endloop
endfacet
facet normal 0.0 0.0 -1.0
  outer loop
    vertex 3.2588190451025203 3.9659258262890695 3.3134606169937796e-14
    vertex 3.776457135307561 5.897777478867207 0.0
    vertex 3.499999999999999 3.86602540378444 3.3134606169937796e-14
  endloop
endfacet
facet normal 0.0 0.0 -1.0
  outer loop
    vertex 3.499999999999999 3.86602540378444 3.3134606169937796e-14
    vertex 3.776457135307561 5.897777478867207 0.0
    vertex 3.7071067811865475 3.707106781186549 3.3134606169937796e-14
  endloop
endfacet
facet normal 0.0 0.0 -1.0
  outer loop
    vertex 3.7071067811865475 3.707106781186549 3.3134606169937796e-14
    vertex 3.776457135307561 5.897777478867207 0.0
    vertex 3.866025403784438 3.5000000000000013 3.3134606169937796e-14
  endloop
endfacet
facet normal 0.0 0.0 -1.0
  outer loop
    vertex 3.866025403784438 3.5000000000000013 3.3134606169937796e-14
    vertex 3.776457135307561 5.897777478867207 0.0
    vertex 4.499999999999998 5.598076211353319 0.0
  endloop
endfacet
facet normal 0.0 0.0 -1.0
  outer loop
    vertex 3.866025403784438 3.5000000000000013 3.3134606169937796e-14
    vertex 4.499999999999998 5.598076211353319 0.0
    vertex 3.9659258262890678 3.258819045102523 3.3134606169937796e-14
  endloop
endfacet
facet normal 0.0 0.0 -1.0
  outer loop
    vertex 3.9659258262890678 3.258819045102523 3.3134606169937796e-14
    vertex 4.499999999999998 5.598076211353319 0.0
    vertex 3.9999999999999996 3.0000000000000013 3.3134606169937796e-14
  endloop
endfacet
facet normal 0.0 0.0 -1.0
  outer loop
    vertex 2.0000000000000004 3.0000000000000013 3.3134606169937796e-14
    vertex 2.2235428646924382 0.10222252113279878 0.0
    vertex 1.5000000000000009 0.40192378864668477 0.0
  endloop
endfacet
facet normal 0.0 0.0 -1.0
  outer loop
    vertex 2.2235428646924382 0.10222252113279878 0.0
    vertex 2.0000000000000004 3.0000000000000013 3.3134606169937796e-14
    vertex 2.0340741737109322 2.74118095489748 3.3134606169937796e-14
  endloop
endfacet
facet normal 0.0 0.0 -1.0
  outer loop
    vertex 2.2235428646924382 0.10222252113279878 0.0
    vertex 2.0340741737109322 2.74118095489748 3.3134606169937796e-14
    vertex 2.133974596215562 2.500000000000001 3.3134606169937796e-14
  endloop
endfacet
facet normal 0.0 0.0 -1.0
  outer loop
    vertex 2.2235428646924382 0.10222252113279878 0.0
    vertex 2.133974596215562 2.500000000000001 3.3134606169937796e-14
    vertex 2.292893218813453 2.292893218813454 3.3134606169937796e-14
  endloop
endfacet
facet normal 0.0 0.0 -1.0
  outer loop
    vertex 2.2235428646924382 0.10222252113279878 0.0
    vertex 2.292893218813453 2.292893218813454 3.3134606169937796e-14
    vertex 3.000000000000001 7.049916206369744e-16 0.0
  endloop
endfacet
facet normal 0.0 0.0 -1.0
  outer loop
    vertex 3.000000000000001 7.049916206369744e-16 0.0
    vertex 2.292893218813453 2.292893218813454 3.3134606169937796e-14
    vertex 2.500000000000001 2.1339745962155625 3.3134606169937796e-14
  endloop
endfacet
facet normal 0.0 0.0 -1.0
  outer loop
    vertex 3.000000000000001 7.049916206369744e-16 0.0
    vertex 2.500000000000001 2.1339745962155625 3.3134606169937796e-14
    vertex 2.7411809548974797 2.0340741737109336 3.3134606169937796e-14
  endloop
endfacet
facet normal 0.0 0.0 -1.0
  outer loop
    vertex 3.000000000000001 7.049916206369744e-16 0.0
    vertex 2.7411809548974797 2.0340741737109336 3.3134606169937796e-14
    vertex 3.0 2.0000000000000018 3.3134606169937796e-14
  endloop
endfacet
facet normal 0.0 0.0 -1.0
  outer loop
    vertex 3.000000000000001 7.049916206369744e-16 0.0
    vertex 3.0 2.0000000000000018 3.3134606169937796e-14
    vertex 3.2588190451025207 2.0340741737109336 3.3134606169937796e-14
  endloop
endfacet
facet normal 0.0 0.0 -1.0
  outer loop
    vertex 3.000000000000001 7.049916206369744e-16 0.0
    vertex 3.2588190451025207 2.0340741737109336 3.3134606169937796e-14
    vertex 29.500000000000004 3.524958103184872e-15 0.0
  endloop
endfacet
facet normal 0.0 0.0 -1.0
  outer loop
    vertex 29.500000000000004 3.524958103184872e-15 0.0
    vertex 3.2588190451025207 2.0340741737109336 3.3134606169937796e-14
    vertex 3.5 2.133974596215563 3.3134606169937796e-14
  endloop
endfacet
facet normal 0.0 0.0 -1.0
  outer loop
    vertex 29.500000000000004 3.524958103184872e-15 0.0
    vertex 3.5 2.133974596215563 3.3134606169937796e-14
    vertex 3.7071067811865475 2.292893218813454 3.3134606169937796e-14
  endloop
endfacet
facet normal 0.0 0.0 -1.0
  outer loop
    vertex 29.500000000000004 3.524958103184872e-15 0.0
    vertex 3.7071067811865475 2.292893218813454 3.3134606169937796e-14
    vertex 3.866025403784439 2.5000000000000013 3.3134606169937796e-14
  endloop
endfacet
facet normal 0.0 0.0 -1.0
  outer loop
    vertex 29.500000000000004 3.524958103184872e-15 0.0
    vertex 3.866025403784439 2.5000000000000013 3.3134606169937796e-14
    vertex 3.9659258262890678 2.7411809548974806 3.3134606169937796e-14
  endloop
endfacet
facet normal 0.0 0.0 -1.0
  outer loop
    vertex 29.500000000000004 3.524958103184872e-15 0.0
    vertex 3.9659258262890678 2.7411809548974806 3.3134606169937796e-14
    vertex 3.9999999999999996 3.0000000000000013 3.3134606169937796e-14
  endloop
endfacet
facet normal 0.0 0.0 -1.0
  outer loop
    vertex 29.500000000000004 3.524958103184872e-15 0.0
    vertex 3.9999999999999996 3.0000000000000013 3.3134606169937796e-14
    vertex 6.000000000000001 3.0000000000000013 0.0
  endloop
endfacet
facet normal 0.0 0.0 -1.0
  outer loop
    vertex 6.000000000000001 3.0000000000000013 0.0
    vertex 3.9999999999999996 3.0000000000000013 3.3134606169937796e-14
    vertex 4.499999999999998 5.598076211353319 0.0
  endloop
endfacet
facet normal 0.0 0.0 -1.0
  outer loop
    vertex 6.000000000000001 3.0000000000000013 0.0
    vertex 4.499999999999998 5.598076211353319 0.0
    vertex 5.121320343559642 5.1213203435596455 0.0
  endloop
endfacet
facet normal 0.0 0.0 -1.0
  outer loop
    vertex 6.000000000000001 3.0000000000000013 0.0
    vertex 5.121320343559642 5.1213203435596455 0.0
    vertex 5.598076211353315 4.500000000000003 0.0
  endloop
endfacet
facet normal 0.0 0.0 -1.0
  outer loop
    vertex 6.000000000000001 3.0000000000000013 0.0
    vertex 5.598076211353315 4.500000000000003 0.0
    vertex 5.897777478867204 3.776457135307567 0.0
  endloop
endfacet
facet normal 0.0 0.0 -1.0
  outer loop
    vertex 29.500000000000004 3.524958103184872e-15 0.0
    vertex 6.000000000000001 3.0000000000000013 0.0
    vertex 29.500000000000004 2.9999999999999987 0.0
  endloop
endfacet
facet normal 0.0 0.0 -1.0
  outer loop
    vertex 29.500000000000004 3.524958103184872e-15 0.0
    vertex 29.500000000000004 2.9999999999999987 0.0
    vertex 29.88822856765378 2.9488887394336016 0.0
  endloop
endfacet
facet normal 0.0 0.0 -1.0
  outer loop
    vertex 29.500000000000004 3.524958103184872e-15 0.0
    vertex 29.88822856765378 2.9488887394336016 0.0
    vertex 29.88822856765378 0.05111126056640256 0.0
  endloop
endfacet
facet normal 0.0 0.0 -1.0
  outer loop
    vertex 29.88822856765378 0.05111126056640256 0.0
    vertex 29.88822856765378 2.9488887394336016 0.0
    vertex 30.25 2.799038105676658 0.0
  endloop
endfacet
facet normal 0.0 0.0 -1.0
  outer loop
    vertex 29.88822856765378 0.05111126056640256 0.0
    vertex 30.25 2.799038105676658 0.0
    vertex 30.25 0.20096189432334555 0.0
  endloop
endfacet
facet normal 0.0 0.0 -1.0
  outer loop
    vertex 30.25 0.20096189432334555 0.0
    vertex 30.25 2.799038105676658 0.0
    vertex 30.56066017177982 2.5606601717798205 0.0
  endloop
endfacet
facet normal 0.0 0.0 -1.0
  outer loop
    vertex 30.25 0.20096189432334555 0.0
    vertex 30.56066017177982 2.5606601717798205 0.0
    vertex 30.56066017177982 0.4393398282201811 0.0
  endloop
endfacet
facet normal 0.0 0.0 -1.0
  outer loop
    vertex 30.56066017177982 0.4393398282201811 0.0
    vertex 30.56066017177982 2.5606601717798205 0.0
    vertex 30.799038105676658 2.250000000000002 0.0
  endloop
endfacet
facet normal 0.0 0.0 -1.0
  outer loop
    vertex 30.56066017177982 0.4393398282201811 0.0
    vertex 30.799038105676658 2.250000000000002 0.0
    vertex 30.799038105676658 0.75 0.0
  endloop
endfacet
facet normal 0.0 0.0 -1.0
  outer loop
    vertex 30.799038105676658 0.75 0.0
    vertex 30.799038105676658 2.250000000000002 0.0
    vertex 30.9488887394336 1.8882285676537836 0.0
  endloop
endfacet
facet normal 0.0 0.0 -1.0
  outer loop
    vertex 30.799038105676658 0.75 0.0
    vertex 30.9488887394336 1.8882285676537836 0.0
    vertex 30.948888739433606 1.1117714323462187 0.0
  endloop
endfacet
facet normal 0.0 0.0 -1.0
  outer loop
    vertex 30.948888739433606 1.1117714323462187 0.0
    vertex 30.9488887394336 1.8882285676537836 0.0
    vertex 31.0 1.5000000000000029 0.0
  endloop
endfacet
facet normal 0.9659258262890684 -0.2588190451025205 -2.443474408294289e-31
  outer loop
    vertex 2.0340741737109322 3.2588190451025216 3.3134606169937796e-14
    vertex 2.0000000000000004 3.0000000000000013 3.8999999999999844
    vertex 2.0000000000000004 3.0000000000000013 3.3134606169937796e-14
  endloop
endfacet
facet normal 1.0 -1.6931108801729119e-16 -1.863799444381306e-31
  outer loop
    vertex 2.0000000000000004 3.0000000000000013 3.8999999999999844
    vertex 2.0340741737109322 3.2588190451025216 3.3134606169937796e-14
    vertex 2.0340741737109322 3.2588190451025216 3.8999999999999844
  endloop
endfacet
facet normal 1.0 -1.6931108801729119e-16 -1.863799444381306e-31
  outer loop
    vertex 2.0000000000000004 3.0000000000000013 3.3134606169937796e-14
    vertex 2.0340741737109322 2.74118095489748 3.8999999999999844
    vertex 2.0340741737109322 2.74118095489748 3.3134606169937796e-14
  endloop
endfacet
facet normal 0.9659258262890682 0.2588190451025209 -1.1571096284079473e-31
  outer loop
    vertex 2.0340741737109322 2.74118095489748 3.8999999999999844
    vertex 2.0000000000000004 3.0000000000000013 3.3134606169937796e-14
    vertex 2.0000000000000004 3.0000000000000013 3.8999999999999844
  endloop
endfacet
facet normal 0.9659258262890682 0.2588190451025209 -1.1571096284079473e-31
  outer loop
    vertex 2.0340741737109322 2.74118095489748 3.3134606169937796e-14
    vertex 2.133974596215562 2.500000000000001 3.8999999999999844
    vertex 2.133974596215562 2.500000000000001 3.3134606169937796e-14
  endloop
endfacet
facet normal 0.8660254037844384 0.5000000000000004 -3.715647034726609e-32
  outer loop
    vertex 2.133974596215562 2.500000000000001 3.8999999999999844
    vertex 2.0340741737109322 2.74118095489748 3.3134606169937796e-14
    vertex 2.0340741737109322 2.74118095489748 3.8999999999999844
  endloop
endfacet
facet normal 0.8660254037844384 0.5000000000000004 -3.715647034726609e-32
  outer loop
    vertex 2.133974596215562 2.500000000000001 3.3134606169937796e-14
    vertex 2.292893218813453 2.292893218813454 3.8999999999999844
    vertex 2.292893218813453 2.292893218813454 3.3134606169937796e-14
  endloop
endfacet
facet normal 0.7071067811865474 0.7071067811865477 4.393017419645806e-32
  outer loop
    vertex 2.292893218813453 2.292893218813454 3.8999999999999844
    vertex 2.133974596215562 2.500000000000001 3.3134606169937796e-14
    vertex 2.133974596215562 2.500000000000001 3.8999999999999844
  endloop
endfacet
facet normal 0.7071067811865474 0.7071067811865477 4.393017419645806e-32
  outer loop
    vertex 2.292893218813453 2.292893218813454 3.8999999999999844
    vertex 2.500000000000001 2.1339745962155625 3.3134606169937796e-14
    vertex 2.292893218813453 2.292893218813454 3.3134606169937796e-14
  endloop
endfacet
facet normal 0.4999999999999999 0.8660254037844388 1.2202304996673904e-31
  outer loop
    vertex 2.500000000000001 2.1339745962155625 3.3134606169937796e-14
    vertex 2.292893218813453 2.292893218813454 3.8999999999999844
    vertex 2.500000000000001 2.1339745962155625 3.8999999999999844
  endloop
endfacet
facet normal 0.4999999999999999 0.8660254037844388 1.2202304996673904e-31
  outer loop
    vertex 2.500000000000001 2.1339745962155625 3.8999999999999844
    vertex 2.7411809548974797 2.0340741737109336 3.3134606169937796e-14
    vertex 2.500000000000001 2.1339745962155625 3.3134606169937796e-14
  endloop
endfacet
facet normal 0.25881904510252074 0.9659258262890683 1.918002565344113e-31
  outer loop
    vertex 2.7411809548974797 2.0340741737109336 3.3134606169937796e-14
    vertex 2.500000000000001 2.1339745962155625 3.8999999999999844
    vertex 2.7411809548974797 2.0340741737109336 3.8999999999999844
  endloop
endfacet
facet normal 0.25881904510252074 0.9659258262890683 1.918002565344113e-31
  outer loop
    vertex 2.7411809548974797 2.0340741737109336 3.8999999999999844
    vertex 3.0 2.0000000000000018 3.3134606169937796e-14
    vertex 2.7411809548974797 2.0340741737109336 3.3134606169937796e-14
  endloop
endfacet
facet normal 0.0 1.0 2.4850659258417402e-31
  outer loop
    vertex 3.0 2.0000000000000018 3.3134606169937796e-14
    vertex 2.7411809548974797 2.0340741737109336 3.8999999999999844
    vertex 3.0 2.0000000000000018 3.8999999999999844
  endloop
endfacet
facet normal 0.0 1.0 2.4850659258417402e-31
  outer loop
    vertex 3.0 2.0000000000000018 3.8999999999999844
    vertex 3.2588190451025207 2.0340741737109336 3.3134606169937796e-14
    vertex 3.0 2.0000000000000018 3.3134606169937796e-14
  endloop
endfacet
facet normal -0.258819045102521 0.9659258262890682 2.882776150258869e-31
  outer loop
    vertex 3.2588190451025207 2.0340741737109336 3.3134606169937796e-14
    vertex 3.0 2.0000000000000018 3.8999999999999844
    vertex 3.2588190451025207 2.0340741737109336 3.8999999999999844
  endloop
endfacet
facet normal -0.258819045102521 0.9659258262890682 2.882776150258869e-31
  outer loop
    vertex 3.2588190451025207 2.0340741737109336 3.8999999999999844
    vertex 3.5 2.133974596215563 3.3134606169937796e-14
    vertex 3.2588190451025207 2.0340741737109336 3.3134606169937796e-14
  endloop
endfacet
facet normal -0.5 0.8660254037844386 3.084029944048695e-31
  outer loop
    vertex 3.5 2.133974596215563 3.3134606169937796e-14
    vertex 3.2588190451025207 2.0340741737109336 3.8999999999999844
    vertex 3.5 2.133974596215563 3.8999999999999844
  endloop
endfacet
facet normal -0.5 0.8660254037844386 3.084029944048695e-31
  outer loop
    vertex 3.5 2.133974596215563 3.8999999999999844
    vertex 3.7071067811865475 2.292893218813454 3.3134606169937796e-14
    vertex 3.5 2.133974596215563 3.3134606169937796e-14
  endloop
endfacet
facet normal -0.7071067811865471 0.7071067811865479 3.075112193752061e-31
  outer loop
    vertex 3.7071067811865475 2.292893218813454 3.3134606169937796e-14
    vertex 3.5 2.133974596215563 3.8999999999999844
    vertex 3.7071067811865475 2.292893218813454 3.8999999999999844
  endloop
endfacet
facet normal -0.8660254037844387 0.5 2.856630629314403e-31
  outer loop
    vertex 3.866025403784439 2.5000000000000013 3.8999999999999844
    vertex 3.7071067811865475 2.292893218813454 3.3134606169937796e-14
    vertex 3.7071067811865475 2.292893218813454 3.8999999999999844
  endloop
endfacet
facet normal -0.7071067811865471 0.7071067811865479 3.075112193752061e-31
  outer loop
    vertex 3.7071067811865475 2.292893218813454 3.3134606169937796e-14
    vertex 3.866025403784439 2.5000000000000013 3.8999999999999844
    vertex 3.866025403784439 2.5000000000000013 3.3134606169937796e-14
  endloop
endfacet
facet normal -0.9659258262890684 0.2588190451025204 2.443474408294289e-31
  outer loop
    vertex 3.9659258262890678 2.7411809548974806 3.8999999999999844
    vertex 3.866025403784439 2.5000000000000013 3.3134606169937796e-14
    vertex 3.866025403784439 2.5000000000000013 3.8999999999999844
  endloop
endfacet
facet normal -0.8660254037844387 0.5 2.856630629314403e-31
  outer loop
    vertex 3.866025403784439 2.5000000000000013 3.3134606169937796e-14
    vertex 3.9659258262890678 2.7411809548974806 3.8999999999999844
    vertex 3.9659258262890678 2.7411809548974806 3.3134606169937796e-14
  endloop
endfacet
facet normal -1.0 2.6733329686940717e-16 1.863799444381306e-31
  outer loop
    vertex 3.9999999999999996 3.0000000000000013 3.8999999999999844
    vertex 3.9659258262890678 2.7411809548974806 3.3134606169937796e-14
    vertex 3.9659258262890678 2.7411809548974806 3.8999999999999844
  endloop
endfacet
facet normal -0.9659258262890684 0.2588190451025204 2.443474408294289e-31
  outer loop
    vertex 3.9659258262890678 2.7411809548974806 3.3134606169937796e-14
    vertex 3.9999999999999996 3.0000000000000013 3.8999999999999844
    vertex 3.9999999999999996 3.0000000000000013 3.3134606169937796e-14
  endloop
endfacet
facet normal -0.9659258262890681 -0.25881904510252196 1.1571096284079447e-31
  outer loop
    vertex 3.9659258262890678 3.258819045102523 3.8999999999999844
    vertex 3.9999999999999996 3.0000000000000013 3.3134606169937796e-14
    vertex 3.9999999999999996 3.0000000000000013 3.8999999999999844
  endloop
endfacet
facet normal -1.0 2.6733329686940717e-16 1.863799444381306e-31
  outer loop
    vertex 3.9999999999999996 3.0000000000000013 3.3134606169937796e-14
    vertex 3.9659258262890678 3.258819045102523 3.8999999999999844
    vertex 3.9659258262890678 3.258819045102523 3.3134606169937796e-14
  endloop
endfacet
facet normal -0.8660254037844384 -0.5000000000000006 3.715647034726603e-32
  outer loop
    vertex 3.866025403784438 3.5000000000000013 3.8999999999999844
    vertex 3.9659258262890678 3.258819045102523 3.3134606169937796e-14
    vertex 3.9659258262890678 3.258819045102523 3.8999999999999844
  endloop
endfacet
facet normal -0.9659258262890681 -0.25881904510252196 1.1571096284079447e-31
  outer loop
    vertex 3.9659258262890678 3.258819045102523 3.3134606169937796e-14
    vertex 3.866025403784438 3.5000000000000013 3.8999999999999844
    vertex 3.866025403784438 3.5000000000000013 3.3134606169937796e-14
  endloop
endfacet
facet normal -0.7071067811865477 -0.7071067811865472 -4.393017419645788e-32
  outer loop
    vertex 3.7071067811865475 3.707106781186549 3.8999999999999844
    vertex 3.866025403784438 3.5000000000000013 3.3134606169937796e-14
    vertex 3.866025403784438 3.5000000000000013 3.8999999999999844
  endloop
endfacet
facet normal -0.8660254037844384 -0.5000000000000006 3.715647034726603e-32
  outer loop
    vertex 3.866025403784438 3.5000000000000013 3.3134606169937796e-14
    vertex 3.7071067811865475 3.707106781186549 3.8999999999999844
    vertex 3.7071067811865475 3.707106781186549 3.3134606169937796e-14
  endloop
endfacet
facet normal -0.7071067811865477 -0.7071067811865472 -4.393017419645788e-32
  outer loop
    vertex 3.7071067811865475 3.707106781186549 3.8999999999999844
    vertex 3.499999999999999 3.86602540378444 3.3134606169937796e-14
    vertex 3.7071067811865475 3.707106781186549 3.3134606169937796e-14
  endloop
endfacet
facet normal -0.4999999999999993 -0.8660254037844392 -1.2202304996673921e-31
  outer loop
    vertex 3.499999999999999 3.86602540378444 3.3134606169937796e-14
    vertex 3.7071067811865475 3.707106781186549 3.8999999999999844
    vertex 3.499999999999999 3.86602540378444 3.8999999999999844
  endloop
endfacet
facet normal -0.4999999999999993 -0.8660254037844392 -1.2202304996673921e-31
  outer loop
    vertex 3.499999999999999 3.86602540378444 3.8999999999999844
    vertex 3.2588190451025203 3.9659258262890695 3.3134606169937796e-14
    vertex 3.499999999999999 3.86602540378444 3.3134606169937796e-14
  endloop
endfacet
facet normal -0.2588190451025205 -0.9659258262890684 -1.9180025653441136e-31
  outer loop
    vertex 3.2588190451025203 3.9659258262890695 3.3134606169937796e-14
    vertex 3.499999999999999 3.86602540378444 3.8999999999999844
    vertex 3.2588190451025203 3.9659258262890695 3.8999999999999844
  endloop
endfacet
facet normal -0.2588190451025205 -0.9659258262890684 -1.9180025653441136e-31
  outer loop
    vertex 3.2588190451025203 3.9659258262890695 3.8999999999999844
    vertex 3.0 4.000000000000001 3.3134606169937796e-14
    vertex 3.2588190451025203 3.9659258262890695 3.3134606169937796e-14
  endloop
endfacet
facet normal 1.1762665062253916e-15 -1.0 -2.485065925841742e-31
  outer loop
    vertex 3.0 4.000000000000001 3.3134606169937796e-14
    vertex 3.2588190451025203 3.9659258262890695 3.8999999999999844
    vertex 3.0 4.000000000000001 3.8999999999999844
  endloop
endfacet
facet normal 1.1762665062253916e-15 -1.0 -2.485065925841742e-31
  outer loop
    vertex 3.0 4.000000000000001 3.8999999999999844
    vertex 2.741180954897479 3.9659258262890686 3.3134606169937796e-14
    vertex 3.0 4.000000000000001 3.3134606169937796e-14
  endloop
endfacet
facet normal 0.25881904510252196 -0.965925826289068 -2.88277615025887e-31
  outer loop
    vertex 2.741180954897479 3.9659258262890686 3.3134606169937796e-14
    vertex 3.0 4.000000000000001 3.8999999999999844
    vertex 2.741180954897479 3.9659258262890686 3.8999999999999844
  endloop
endfacet
facet normal 0.25881904510252196 -0.965925826289068 -2.88277615025887e-31
  outer loop
    vertex 2.741180954897479 3.9659258262890686 3.8999999999999844
    vertex 2.5 3.8660254037844393 3.3134606169937796e-14
    vertex 2.741180954897479 3.9659258262890686 3.3134606169937796e-14
  endloop
endfacet
facet normal 0.5000000000000001 -0.8660254037844386 -3.0840299440486942e-31
  outer loop
    vertex 2.5 3.8660254037844393 3.3134606169937796e-14
    vertex 2.741180954897479 3.9659258262890686 3.8999999999999844
    vertex 2.5 3.8660254037844393 3.8999999999999844
  endloop
endfacet
facet normal 0.5000000000000001 -0.8660254037844386 -3.0840299440486942e-31
  outer loop
    vertex 2.5 3.8660254037844393 3.8999999999999844
    vertex 2.2928932188134525 3.707106781186548 3.3134606169937796e-14
    vertex 2.5 3.8660254037844393 3.3134606169937796e-14
  endloop
endfacet
facet normal 0.7071067811865479 -0.7071067811865471 -3.0751121937520602e-31
  outer loop
    vertex 2.2928932188134525 3.707106781186548 3.3134606169937796e-14
    vertex 2.5 3.8660254037844393 3.8999999999999844
    vertex 2.2928932188134525 3.707106781186548 3.8999999999999844
  endloop
endfacet
facet normal 0.7071067811865479 -0.7071067811865471 -3.0751121937520602e-31
  outer loop
    vertex 2.2928932188134525 3.707106781186548 3.3134606169937796e-14
    vertex 2.1339745962155616 3.5000000000000004 3.8999999999999844
    vertex 2.1339745962155616 3.5000000000000004 3.3134606169937796e-14
  endloop
endfacet
facet normal 0.8660254037844389 -0.49999999999999956 -2.8566306293144015e-31
  outer loop
    vertex 2.1339745962155616 3.5000000000000004 3.8999999999999844
    vertex 2.2928932188134525 3.707106781186548 3.3134606169937796e-14
    vertex 2.2928932188134525 3.707106781186548 3.8999999999999844
  endloop
endfacet
facet normal 0.8660254037844389 -0.49999999999999956 -2.8566306293144015e-31
  outer loop
    vertex 2.1339745962155616 3.5000000000000004 3.3134606169937796e-14
    vertex 2.0340741737109322 3.2588190451025216 3.8999999999999844
    vertex 2.0340741737109322 3.2588190451025216 3.3134606169937796e-14
  endloop
endfacet
facet normal 0.9659258262890684 -0.2588190451025205 -2.443474408294289e-31
  outer loop
    vertex 2.0340741737109322 3.2588190451025216 3.8999999999999844
    vertex 2.1339745962155616 3.5000000000000004 3.3134606169937796e-14
    vertex 2.1339745962155616 3.5000000000000004 3.8999999999999844
  endloop
endfacet
facet normal 1.0173837923851167e-16 -1.0 -6.55621224507112e-17
  outer loop
    vertex 29.500000000000004 3.524958103184872e-15 1.900000000000007
    vertex 3.000000000000001 7.049916206369744e-16 0.0
    vertex 29.500000000000004 3.524958103184872e-15 0.0
  endloop
endfacet
facet normal 1.0173837923851167e-16 -1.0 -6.55621224507112e-17
  outer loop
    vertex 3.000000000000001 7.049916206369744e-16 0.0
    vertex 29.500000000000004 3.524958103184872e-15 1.900000000000007
    vertex 19.499999999999996 1.993804427113943e-15 1.9000000000000068
  endloop
endfacet
facet normal 1.0173837923851167e-16 -1.0 -6.55621224507112e-17
  outer loop
    vertex 19.499999999999996 1.993804427113943e-15 1.9000000000000068
    vertex 3.000000000000001 7.049916206369744e-16 3.8999999999999844
    vertex 3.000000000000001 7.049916206369744e-16 0.0
  endloop
endfacet
facet normal 1.0173837923851167e-16 -1.0 -6.55621224507112e-17
  outer loop
    vertex 3.000000000000001 7.049916206369744e-16 3.8999999999999844
    vertex 19.499999999999996 1.993804427113943e-15 1.9000000000000068
    vertex 19.499999999999996 1.993804427113943e-15 3.8999999999999844
  endloop
endfacet
endsolid Traba
